%TF.GenerationSoftware,KiCad,Pcbnew,5.1.6+dfsg1-1*%
%TF.CreationDate,2020-08-05T09:46:32+08:00*%
%TF.ProjectId,stm32dev,73746d33-3264-4657-962e-6b696361645f,b*%
%TF.SameCoordinates,Original*%
%TF.FileFunction,Soldermask,Bot*%
%TF.FilePolarity,Negative*%
%FSLAX46Y46*%
G04 Gerber Fmt 4.6, Leading zero omitted, Abs format (unit mm)*
G04 Created by KiCad (PCBNEW 5.1.6+dfsg1-1) date 2020-08-05 09:46:32*
%MOMM*%
%LPD*%
G01*
G04 APERTURE LIST*
%ADD10R,1.650000X1.100000*%
%ADD11R,1.600000X1.600000*%
%ADD12R,1.850000X0.800000*%
%ADD13R,1.500000X0.900000*%
%ADD14R,1.100000X1.550000*%
%ADD15R,1.600000X0.900000*%
%ADD16R,1.600000X1.400000*%
%ADD17O,1.800000X1.800000*%
%ADD18R,1.800000X1.800000*%
%ADD19R,1.550000X0.700000*%
%ADD20R,1.550000X0.400000*%
%ADD21O,2.200000X1.100000*%
%ADD22C,0.750000*%
%ADD23O,1.700000X1.100000*%
G04 APERTURE END LIST*
D10*
%TO.C,J3*%
X128535000Y-103365000D03*
D11*
X139210000Y-103415000D03*
D12*
X139335000Y-100965000D03*
X139335000Y-99865000D03*
X139335000Y-98765000D03*
X139335000Y-97665000D03*
X139335000Y-96565000D03*
X139335000Y-95465000D03*
X139335000Y-94365000D03*
D13*
X130960000Y-103765000D03*
D14*
X130110000Y-92140000D03*
D15*
X131610000Y-91815000D03*
D16*
X139210000Y-92065000D03*
D12*
X139335000Y-93265000D03*
%TD*%
D17*
%TO.C,J2*%
X123825000Y-95250000D03*
X126365000Y-95250000D03*
X123825000Y-97790000D03*
X126365000Y-97790000D03*
X123825000Y-100330000D03*
D18*
X126365000Y-100330000D03*
%TD*%
D17*
%TO.C,J5*%
X172720000Y-87630000D03*
X172720000Y-85090000D03*
X170180000Y-87630000D03*
X170180000Y-85090000D03*
X167640000Y-87630000D03*
X167640000Y-85090000D03*
X165100000Y-87630000D03*
X165100000Y-85090000D03*
X162560000Y-87630000D03*
X162560000Y-85090000D03*
X160020000Y-87630000D03*
X160020000Y-85090000D03*
X157480000Y-87630000D03*
X157480000Y-85090000D03*
X154940000Y-87630000D03*
X154940000Y-85090000D03*
X152400000Y-87630000D03*
X152400000Y-85090000D03*
X149860000Y-87630000D03*
X149860000Y-85090000D03*
X147320000Y-87630000D03*
X147320000Y-85090000D03*
X144780000Y-87630000D03*
X144780000Y-85090000D03*
X142240000Y-87630000D03*
X142240000Y-85090000D03*
X139700000Y-87630000D03*
X139700000Y-85090000D03*
X137160000Y-87630000D03*
X137160000Y-85090000D03*
X134620000Y-87630000D03*
X134620000Y-85090000D03*
X132080000Y-87630000D03*
X132080000Y-85090000D03*
X129540000Y-87630000D03*
X129540000Y-85090000D03*
X127000000Y-87630000D03*
X127000000Y-85090000D03*
X124460000Y-87630000D03*
D18*
X124460000Y-85090000D03*
%TD*%
D17*
%TO.C,J4*%
X172720000Y-110490000D03*
X172720000Y-107950000D03*
X170180000Y-110490000D03*
X170180000Y-107950000D03*
X167640000Y-110490000D03*
X167640000Y-107950000D03*
X165100000Y-110490000D03*
X165100000Y-107950000D03*
X162560000Y-110490000D03*
X162560000Y-107950000D03*
X160020000Y-110490000D03*
X160020000Y-107950000D03*
X157480000Y-110490000D03*
X157480000Y-107950000D03*
X154940000Y-110490000D03*
X154940000Y-107950000D03*
X152400000Y-110490000D03*
X152400000Y-107950000D03*
X149860000Y-110490000D03*
X149860000Y-107950000D03*
X147320000Y-110490000D03*
X147320000Y-107950000D03*
X144780000Y-110490000D03*
X144780000Y-107950000D03*
X142240000Y-110490000D03*
X142240000Y-107950000D03*
X139700000Y-110490000D03*
X139700000Y-107950000D03*
X137160000Y-110490000D03*
X137160000Y-107950000D03*
X134620000Y-110490000D03*
X134620000Y-107950000D03*
X132080000Y-110490000D03*
X132080000Y-107950000D03*
X129540000Y-110490000D03*
X129540000Y-107950000D03*
X127000000Y-110490000D03*
X127000000Y-107950000D03*
X124460000Y-110490000D03*
D18*
X124460000Y-107950000D03*
%TD*%
D19*
%TO.C,J1*%
X168040000Y-101675000D03*
X168040000Y-100875000D03*
X168040000Y-95975000D03*
X168040000Y-95175000D03*
X168040000Y-95175000D03*
X168040000Y-95975000D03*
X168040000Y-100875000D03*
X168040000Y-101675000D03*
D20*
X168040000Y-96675000D03*
X168040000Y-97175000D03*
X168040000Y-97675000D03*
X168040000Y-98675000D03*
X168040000Y-99175000D03*
X168040000Y-99675000D03*
X168040000Y-100175000D03*
X168040000Y-98175000D03*
D21*
X168955000Y-102745000D03*
X168955000Y-94105000D03*
D22*
X169485000Y-95535000D03*
D23*
X173135000Y-94105000D03*
D22*
X169485000Y-101315000D03*
D23*
X173135000Y-102745000D03*
%TD*%
M02*
