M48
; DRILL file {KiCad 5.1.6+dfsg1-1} date Wed Aug  5 09:46:36 2020
; FORMAT={-:-/ absolute / inch / decimal}
; #@! TF.CreationDate,2020-08-05T09:46:36+08:00
; #@! TF.GenerationSoftware,Kicad,Pcbnew,5.1.6+dfsg1-1
; #@! TF.FileFunction,Plated,1,2,PTH
FMAT,2
INCH
T1C0.0138
T2C0.0236
T3C0.0394
%
G90
G05
T1
X4.875Y-3.6
X4.9Y-4.075
X4.925Y-3.575
X5.15Y-3.525
X5.3Y-3.525
X5.4Y-3.75
X5.425Y-4.175
X5.55Y-3.75
X5.575Y-3.7
X5.6Y-3.8
X5.605Y-4.14
X5.675Y-3.7
X5.675Y-3.85
X5.725Y-3.5964
X5.75Y-4.1
X5.8Y-3.925
X5.825Y-3.55
X5.85Y-3.725
X5.875Y-3.6868
X5.875Y-3.975
X5.9Y-3.725
X5.925Y-4.075
X5.95Y-3.725
X5.95Y-3.875
X6.025Y-3.725
X6.025Y-3.775
X6.025Y-3.95
X6.075Y-3.775
X6.125Y-3.85
X6.125Y-4.15
X6.175Y-3.56
X6.175Y-3.675
X6.225Y-3.575
X6.225Y-3.675
X6.225Y-3.875
X6.275Y-3.575
X6.275Y-3.675
X6.325Y-3.575
X6.4Y-4.15
X6.45Y-3.875
X6.45Y-3.925
X6.45Y-4.0
X6.475Y-3.725
X6.475Y-4.15
X6.525Y-3.675
X6.525Y-3.725
X6.55Y-3.875
X6.55Y-3.925
X6.55Y-4.15
X6.625Y-3.65
X6.7Y-3.8
X6.7Y-3.85
X6.7Y-3.9
X6.7Y-3.95
X6.825Y-3.825
X6.825Y-3.875
T3
X4.9Y-4.25
X4.9Y-4.35
X5.0Y-4.25
X5.0Y-4.35
X5.1Y-4.25
X5.1Y-4.35
X5.2Y-4.25
X5.2Y-4.35
X5.3Y-4.25
X5.3Y-4.35
X5.4Y-4.25
X5.4Y-4.35
X5.5Y-4.25
X5.5Y-4.35
X5.6Y-4.25
X5.6Y-4.35
X5.7Y-4.25
X5.7Y-4.35
X5.8Y-4.25
X5.8Y-4.35
X5.9Y-4.25
X5.9Y-4.35
X6.0Y-4.25
X6.0Y-4.35
X6.1Y-4.25
X6.1Y-4.35
X6.2Y-4.25
X6.2Y-4.35
X6.3Y-4.25
X6.3Y-4.35
X6.4Y-4.25
X6.4Y-4.35
X6.5Y-4.25
X6.5Y-4.35
X6.6Y-4.25
X6.6Y-4.35
X6.7Y-4.25
X6.7Y-4.35
X6.8Y-4.25
X6.8Y-4.35
X4.9Y-3.35
X4.9Y-3.45
X5.0Y-3.35
X5.0Y-3.45
X5.1Y-3.35
X5.1Y-3.45
X5.2Y-3.35
X5.2Y-3.45
X5.3Y-3.35
X5.3Y-3.45
X5.4Y-3.35
X5.4Y-3.45
X5.5Y-3.35
X5.5Y-3.45
X5.6Y-3.35
X5.6Y-3.45
X5.7Y-3.35
X5.7Y-3.45
X5.8Y-3.35
X5.8Y-3.45
X5.9Y-3.35
X5.9Y-3.45
X6.0Y-3.35
X6.0Y-3.45
X6.1Y-3.35
X6.1Y-3.45
X6.2Y-3.35
X6.2Y-3.45
X6.3Y-3.35
X6.3Y-3.45
X6.4Y-3.35
X6.4Y-3.45
X6.5Y-3.35
X6.5Y-3.45
X6.6Y-3.35
X6.6Y-3.45
X6.7Y-3.35
X6.7Y-3.45
X6.8Y-3.35
X6.8Y-3.45
X4.875Y-3.75
X4.875Y-3.85
X4.875Y-3.95
X4.975Y-3.75
X4.975Y-3.85
X4.975Y-3.95
T2
G00X6.6734Y-3.7049
M15
G01X6.6301Y-3.7049
M16
G05
G00X6.6734Y-4.0451
M15
G01X6.6301Y-4.0451
M16
G05
G00X6.8281Y-3.7049
M15
G01X6.8045Y-3.7049
M16
G05
G00X6.8281Y-4.0451
M15
G01X6.8045Y-4.0451
M16
G05
T0
M30
