%TF.GenerationSoftware,KiCad,Pcbnew,5.1.6+dfsg1-1*%
%TF.CreationDate,2020-08-04T18:23:16+08:00*%
%TF.ProjectId,stm32dev,73746d33-3264-4657-962e-6b696361645f,b*%
%TF.SameCoordinates,Original*%
%TF.FileFunction,Soldermask,Top*%
%TF.FilePolarity,Negative*%
%FSLAX46Y46*%
G04 Gerber Fmt 4.6, Leading zero omitted, Abs format (unit mm)*
G04 Created by KiCad (PCBNEW 5.1.6+dfsg1-1) date 2020-08-04 18:23:16*
%MOMM*%
%LPD*%
G01*
G04 APERTURE LIST*
%ADD10O,1.800000X1.800000*%
%ADD11R,1.800000X1.800000*%
%ADD12R,1.800000X1.100000*%
%ADD13O,2.200000X1.100000*%
%ADD14C,0.750000*%
%ADD15O,1.700000X1.100000*%
%ADD16R,1.300000X1.000000*%
%ADD17R,2.500000X2.000000*%
%ADD18R,1.000000X0.900000*%
%ADD19R,1.600000X1.100000*%
G04 APERTURE END LIST*
%TO.C,C9*%
G36*
G01*
X143312500Y-104915000D02*
X143707500Y-104915000D01*
G75*
G02*
X143880000Y-105087500I0J-172500D01*
G01*
X143880000Y-105432500D01*
G75*
G02*
X143707500Y-105605000I-172500J0D01*
G01*
X143312500Y-105605000D01*
G75*
G02*
X143140000Y-105432500I0J172500D01*
G01*
X143140000Y-105087500D01*
G75*
G02*
X143312500Y-104915000I172500J0D01*
G01*
G37*
G36*
G01*
X143312500Y-103945000D02*
X143707500Y-103945000D01*
G75*
G02*
X143880000Y-104117500I0J-172500D01*
G01*
X143880000Y-104462500D01*
G75*
G02*
X143707500Y-104635000I-172500J0D01*
G01*
X143312500Y-104635000D01*
G75*
G02*
X143140000Y-104462500I0J172500D01*
G01*
X143140000Y-104117500D01*
G75*
G02*
X143312500Y-103945000I172500J0D01*
G01*
G37*
%TD*%
D10*
%TO.C,J2*%
X123825000Y-95250000D03*
X126365000Y-95250000D03*
X123825000Y-97790000D03*
X126365000Y-97790000D03*
X123825000Y-100330000D03*
D11*
X126365000Y-100330000D03*
%TD*%
D10*
%TO.C,J5*%
X172720000Y-87630000D03*
X172720000Y-85090000D03*
X170180000Y-87630000D03*
X170180000Y-85090000D03*
X167640000Y-87630000D03*
X167640000Y-85090000D03*
X165100000Y-87630000D03*
X165100000Y-85090000D03*
X162560000Y-87630000D03*
X162560000Y-85090000D03*
X160020000Y-87630000D03*
X160020000Y-85090000D03*
X157480000Y-87630000D03*
X157480000Y-85090000D03*
X154940000Y-87630000D03*
X154940000Y-85090000D03*
X152400000Y-87630000D03*
X152400000Y-85090000D03*
X149860000Y-87630000D03*
X149860000Y-85090000D03*
X147320000Y-87630000D03*
X147320000Y-85090000D03*
X144780000Y-87630000D03*
X144780000Y-85090000D03*
X142240000Y-87630000D03*
X142240000Y-85090000D03*
X139700000Y-87630000D03*
X139700000Y-85090000D03*
X137160000Y-87630000D03*
X137160000Y-85090000D03*
X134620000Y-87630000D03*
X134620000Y-85090000D03*
X132080000Y-87630000D03*
X132080000Y-85090000D03*
X129540000Y-87630000D03*
X129540000Y-85090000D03*
X127000000Y-87630000D03*
X127000000Y-85090000D03*
X124460000Y-87630000D03*
D11*
X124460000Y-85090000D03*
%TD*%
D10*
%TO.C,J4*%
X172720000Y-110490000D03*
X172720000Y-107950000D03*
X170180000Y-110490000D03*
X170180000Y-107950000D03*
X167640000Y-110490000D03*
X167640000Y-107950000D03*
X165100000Y-110490000D03*
X165100000Y-107950000D03*
X162560000Y-110490000D03*
X162560000Y-107950000D03*
X160020000Y-110490000D03*
X160020000Y-107950000D03*
X157480000Y-110490000D03*
X157480000Y-107950000D03*
X154940000Y-110490000D03*
X154940000Y-107950000D03*
X152400000Y-110490000D03*
X152400000Y-107950000D03*
X149860000Y-110490000D03*
X149860000Y-107950000D03*
X147320000Y-110490000D03*
X147320000Y-107950000D03*
X144780000Y-110490000D03*
X144780000Y-107950000D03*
X142240000Y-110490000D03*
X142240000Y-107950000D03*
X139700000Y-110490000D03*
X139700000Y-107950000D03*
X137160000Y-110490000D03*
X137160000Y-107950000D03*
X134620000Y-110490000D03*
X134620000Y-107950000D03*
X132080000Y-110490000D03*
X132080000Y-107950000D03*
X129540000Y-110490000D03*
X129540000Y-107950000D03*
X127000000Y-110490000D03*
X127000000Y-107950000D03*
X124460000Y-110490000D03*
D11*
X124460000Y-107950000D03*
%TD*%
D12*
%TO.C,SW2*%
X129565000Y-89540000D03*
X135865000Y-89540000D03*
X129565000Y-93340000D03*
X135865000Y-93340000D03*
%TD*%
%TO.C,SW1*%
X129565000Y-102240000D03*
X135865000Y-102240000D03*
X129565000Y-106040000D03*
X135865000Y-106040000D03*
%TD*%
%TO.C,R8*%
G36*
G01*
X172225000Y-96082500D02*
X172225000Y-95687500D01*
G75*
G02*
X172397500Y-95515000I172500J0D01*
G01*
X172742500Y-95515000D01*
G75*
G02*
X172915000Y-95687500I0J-172500D01*
G01*
X172915000Y-96082500D01*
G75*
G02*
X172742500Y-96255000I-172500J0D01*
G01*
X172397500Y-96255000D01*
G75*
G02*
X172225000Y-96082500I0J172500D01*
G01*
G37*
G36*
G01*
X171255000Y-96082500D02*
X171255000Y-95687500D01*
G75*
G02*
X171427500Y-95515000I172500J0D01*
G01*
X171772500Y-95515000D01*
G75*
G02*
X171945000Y-95687500I0J-172500D01*
G01*
X171945000Y-96082500D01*
G75*
G02*
X171772500Y-96255000I-172500J0D01*
G01*
X171427500Y-96255000D01*
G75*
G02*
X171255000Y-96082500I0J172500D01*
G01*
G37*
%TD*%
%TO.C,R9*%
G36*
G01*
X170040000Y-92512500D02*
X170040000Y-92907500D01*
G75*
G02*
X169867500Y-93080000I-172500J0D01*
G01*
X169522500Y-93080000D01*
G75*
G02*
X169350000Y-92907500I0J172500D01*
G01*
X169350000Y-92512500D01*
G75*
G02*
X169522500Y-92340000I172500J0D01*
G01*
X169867500Y-92340000D01*
G75*
G02*
X170040000Y-92512500I0J-172500D01*
G01*
G37*
G36*
G01*
X171010000Y-92512500D02*
X171010000Y-92907500D01*
G75*
G02*
X170837500Y-93080000I-172500J0D01*
G01*
X170492500Y-93080000D01*
G75*
G02*
X170320000Y-92907500I0J172500D01*
G01*
X170320000Y-92512500D01*
G75*
G02*
X170492500Y-92340000I172500J0D01*
G01*
X170837500Y-92340000D01*
G75*
G02*
X171010000Y-92512500I0J-172500D01*
G01*
G37*
%TD*%
%TO.C,R7*%
G36*
G01*
X172225000Y-101162500D02*
X172225000Y-100767500D01*
G75*
G02*
X172397500Y-100595000I172500J0D01*
G01*
X172742500Y-100595000D01*
G75*
G02*
X172915000Y-100767500I0J-172500D01*
G01*
X172915000Y-101162500D01*
G75*
G02*
X172742500Y-101335000I-172500J0D01*
G01*
X172397500Y-101335000D01*
G75*
G02*
X172225000Y-101162500I0J172500D01*
G01*
G37*
G36*
G01*
X171255000Y-101162500D02*
X171255000Y-100767500D01*
G75*
G02*
X171427500Y-100595000I172500J0D01*
G01*
X171772500Y-100595000D01*
G75*
G02*
X171945000Y-100767500I0J-172500D01*
G01*
X171945000Y-101162500D01*
G75*
G02*
X171772500Y-101335000I-172500J0D01*
G01*
X171427500Y-101335000D01*
G75*
G02*
X171255000Y-101162500I0J172500D01*
G01*
G37*
%TD*%
%TO.C,R6*%
G36*
G01*
X170040000Y-90607500D02*
X170040000Y-91002500D01*
G75*
G02*
X169867500Y-91175000I-172500J0D01*
G01*
X169522500Y-91175000D01*
G75*
G02*
X169350000Y-91002500I0J172500D01*
G01*
X169350000Y-90607500D01*
G75*
G02*
X169522500Y-90435000I172500J0D01*
G01*
X169867500Y-90435000D01*
G75*
G02*
X170040000Y-90607500I0J-172500D01*
G01*
G37*
G36*
G01*
X171010000Y-90607500D02*
X171010000Y-91002500D01*
G75*
G02*
X170837500Y-91175000I-172500J0D01*
G01*
X170492500Y-91175000D01*
G75*
G02*
X170320000Y-91002500I0J172500D01*
G01*
X170320000Y-90607500D01*
G75*
G02*
X170492500Y-90435000I172500J0D01*
G01*
X170837500Y-90435000D01*
G75*
G02*
X171010000Y-90607500I0J-172500D01*
G01*
G37*
%TD*%
%TO.C,R4*%
G36*
G01*
X172225000Y-99892500D02*
X172225000Y-99497500D01*
G75*
G02*
X172397500Y-99325000I172500J0D01*
G01*
X172742500Y-99325000D01*
G75*
G02*
X172915000Y-99497500I0J-172500D01*
G01*
X172915000Y-99892500D01*
G75*
G02*
X172742500Y-100065000I-172500J0D01*
G01*
X172397500Y-100065000D01*
G75*
G02*
X172225000Y-99892500I0J172500D01*
G01*
G37*
G36*
G01*
X171255000Y-99892500D02*
X171255000Y-99497500D01*
G75*
G02*
X171427500Y-99325000I172500J0D01*
G01*
X171772500Y-99325000D01*
G75*
G02*
X171945000Y-99497500I0J-172500D01*
G01*
X171945000Y-99892500D01*
G75*
G02*
X171772500Y-100065000I-172500J0D01*
G01*
X171427500Y-100065000D01*
G75*
G02*
X171255000Y-99892500I0J172500D01*
G01*
G37*
%TD*%
%TO.C,R3*%
G36*
G01*
X172225000Y-98622500D02*
X172225000Y-98227500D01*
G75*
G02*
X172397500Y-98055000I172500J0D01*
G01*
X172742500Y-98055000D01*
G75*
G02*
X172915000Y-98227500I0J-172500D01*
G01*
X172915000Y-98622500D01*
G75*
G02*
X172742500Y-98795000I-172500J0D01*
G01*
X172397500Y-98795000D01*
G75*
G02*
X172225000Y-98622500I0J172500D01*
G01*
G37*
G36*
G01*
X171255000Y-98622500D02*
X171255000Y-98227500D01*
G75*
G02*
X171427500Y-98055000I172500J0D01*
G01*
X171772500Y-98055000D01*
G75*
G02*
X171945000Y-98227500I0J-172500D01*
G01*
X171945000Y-98622500D01*
G75*
G02*
X171772500Y-98795000I-172500J0D01*
G01*
X171427500Y-98795000D01*
G75*
G02*
X171255000Y-98622500I0J172500D01*
G01*
G37*
%TD*%
%TO.C,R2*%
G36*
G01*
X172225000Y-97352500D02*
X172225000Y-96957500D01*
G75*
G02*
X172397500Y-96785000I172500J0D01*
G01*
X172742500Y-96785000D01*
G75*
G02*
X172915000Y-96957500I0J-172500D01*
G01*
X172915000Y-97352500D01*
G75*
G02*
X172742500Y-97525000I-172500J0D01*
G01*
X172397500Y-97525000D01*
G75*
G02*
X172225000Y-97352500I0J172500D01*
G01*
G37*
G36*
G01*
X171255000Y-97352500D02*
X171255000Y-96957500D01*
G75*
G02*
X171427500Y-96785000I172500J0D01*
G01*
X171772500Y-96785000D01*
G75*
G02*
X171945000Y-96957500I0J-172500D01*
G01*
X171945000Y-97352500D01*
G75*
G02*
X171772500Y-97525000I-172500J0D01*
G01*
X171427500Y-97525000D01*
G75*
G02*
X171255000Y-97352500I0J172500D01*
G01*
G37*
%TD*%
%TO.C,R5*%
G36*
G01*
X126225000Y-91877500D02*
X126225000Y-92272500D01*
G75*
G02*
X126052500Y-92445000I-172500J0D01*
G01*
X125707500Y-92445000D01*
G75*
G02*
X125535000Y-92272500I0J172500D01*
G01*
X125535000Y-91877500D01*
G75*
G02*
X125707500Y-91705000I172500J0D01*
G01*
X126052500Y-91705000D01*
G75*
G02*
X126225000Y-91877500I0J-172500D01*
G01*
G37*
G36*
G01*
X127195000Y-91877500D02*
X127195000Y-92272500D01*
G75*
G02*
X127022500Y-92445000I-172500J0D01*
G01*
X126677500Y-92445000D01*
G75*
G02*
X126505000Y-92272500I0J172500D01*
G01*
X126505000Y-91877500D01*
G75*
G02*
X126677500Y-91705000I172500J0D01*
G01*
X127022500Y-91705000D01*
G75*
G02*
X127195000Y-91877500I0J-172500D01*
G01*
G37*
%TD*%
%TO.C,R1*%
G36*
G01*
X126505000Y-104337500D02*
X126505000Y-103942500D01*
G75*
G02*
X126677500Y-103770000I172500J0D01*
G01*
X127022500Y-103770000D01*
G75*
G02*
X127195000Y-103942500I0J-172500D01*
G01*
X127195000Y-104337500D01*
G75*
G02*
X127022500Y-104510000I-172500J0D01*
G01*
X126677500Y-104510000D01*
G75*
G02*
X126505000Y-104337500I0J172500D01*
G01*
G37*
G36*
G01*
X125535000Y-104337500D02*
X125535000Y-103942500D01*
G75*
G02*
X125707500Y-103770000I172500J0D01*
G01*
X126052500Y-103770000D01*
G75*
G02*
X126225000Y-103942500I0J-172500D01*
G01*
X126225000Y-104337500D01*
G75*
G02*
X126052500Y-104510000I-172500J0D01*
G01*
X125707500Y-104510000D01*
G75*
G02*
X125535000Y-104337500I0J172500D01*
G01*
G37*
%TD*%
D13*
%TO.C,J1*%
X168955000Y-102745000D03*
X168955000Y-94105000D03*
D14*
X169485000Y-95535000D03*
D15*
X173135000Y-94105000D03*
D14*
X169485000Y-101315000D03*
D15*
X173135000Y-102745000D03*
%TD*%
%TO.C,D4*%
G36*
G01*
X173020000Y-92991250D02*
X173020000Y-92428750D01*
G75*
G02*
X173263750Y-92185000I243750J0D01*
G01*
X173751250Y-92185000D01*
G75*
G02*
X173995000Y-92428750I0J-243750D01*
G01*
X173995000Y-92991250D01*
G75*
G02*
X173751250Y-93235000I-243750J0D01*
G01*
X173263750Y-93235000D01*
G75*
G02*
X173020000Y-92991250I0J243750D01*
G01*
G37*
G36*
G01*
X171445000Y-92991250D02*
X171445000Y-92428750D01*
G75*
G02*
X171688750Y-92185000I243750J0D01*
G01*
X172176250Y-92185000D01*
G75*
G02*
X172420000Y-92428750I0J-243750D01*
G01*
X172420000Y-92991250D01*
G75*
G02*
X172176250Y-93235000I-243750J0D01*
G01*
X171688750Y-93235000D01*
G75*
G02*
X171445000Y-92991250I0J243750D01*
G01*
G37*
%TD*%
D16*
%TO.C,D2*%
X167640000Y-100075000D03*
X167640000Y-96775000D03*
%TD*%
%TO.C,D3*%
G36*
G01*
X173020000Y-91086250D02*
X173020000Y-90523750D01*
G75*
G02*
X173263750Y-90280000I243750J0D01*
G01*
X173751250Y-90280000D01*
G75*
G02*
X173995000Y-90523750I0J-243750D01*
G01*
X173995000Y-91086250D01*
G75*
G02*
X173751250Y-91330000I-243750J0D01*
G01*
X173263750Y-91330000D01*
G75*
G02*
X173020000Y-91086250I0J243750D01*
G01*
G37*
G36*
G01*
X171445000Y-91086250D02*
X171445000Y-90523750D01*
G75*
G02*
X171688750Y-90280000I243750J0D01*
G01*
X172176250Y-90280000D01*
G75*
G02*
X172420000Y-90523750I0J-243750D01*
G01*
X172420000Y-91086250D01*
G75*
G02*
X172176250Y-91330000I-243750J0D01*
G01*
X171688750Y-91330000D01*
G75*
G02*
X171445000Y-91086250I0J243750D01*
G01*
G37*
%TD*%
%TO.C,C2*%
G36*
G01*
X126225000Y-102672500D02*
X126225000Y-103067500D01*
G75*
G02*
X126052500Y-103240000I-172500J0D01*
G01*
X125707500Y-103240000D01*
G75*
G02*
X125535000Y-103067500I0J172500D01*
G01*
X125535000Y-102672500D01*
G75*
G02*
X125707500Y-102500000I172500J0D01*
G01*
X126052500Y-102500000D01*
G75*
G02*
X126225000Y-102672500I0J-172500D01*
G01*
G37*
G36*
G01*
X127195000Y-102672500D02*
X127195000Y-103067500D01*
G75*
G02*
X127022500Y-103240000I-172500J0D01*
G01*
X126677500Y-103240000D01*
G75*
G02*
X126505000Y-103067500I0J172500D01*
G01*
X126505000Y-102672500D01*
G75*
G02*
X126677500Y-102500000I172500J0D01*
G01*
X127022500Y-102500000D01*
G75*
G02*
X127195000Y-102672500I0J-172500D01*
G01*
G37*
%TD*%
%TO.C,C4*%
G36*
G01*
X144582500Y-104915000D02*
X144977500Y-104915000D01*
G75*
G02*
X145150000Y-105087500I0J-172500D01*
G01*
X145150000Y-105432500D01*
G75*
G02*
X144977500Y-105605000I-172500J0D01*
G01*
X144582500Y-105605000D01*
G75*
G02*
X144410000Y-105432500I0J172500D01*
G01*
X144410000Y-105087500D01*
G75*
G02*
X144582500Y-104915000I172500J0D01*
G01*
G37*
G36*
G01*
X144582500Y-103945000D02*
X144977500Y-103945000D01*
G75*
G02*
X145150000Y-104117500I0J-172500D01*
G01*
X145150000Y-104462500D01*
G75*
G02*
X144977500Y-104635000I-172500J0D01*
G01*
X144582500Y-104635000D01*
G75*
G02*
X144410000Y-104462500I0J172500D01*
G01*
X144410000Y-104117500D01*
G75*
G02*
X144582500Y-103945000I172500J0D01*
G01*
G37*
%TD*%
D17*
%TO.C,Y1*%
X139700000Y-101110000D03*
X139700000Y-97010000D03*
%TD*%
D18*
%TO.C,U1*%
X164830000Y-99695000D03*
X162830000Y-100645000D03*
X162830000Y-98745000D03*
%TD*%
%TO.C,C13*%
G36*
G01*
X156985000Y-90367500D02*
X156985000Y-89972500D01*
G75*
G02*
X157157500Y-89800000I172500J0D01*
G01*
X157502500Y-89800000D01*
G75*
G02*
X157675000Y-89972500I0J-172500D01*
G01*
X157675000Y-90367500D01*
G75*
G02*
X157502500Y-90540000I-172500J0D01*
G01*
X157157500Y-90540000D01*
G75*
G02*
X156985000Y-90367500I0J172500D01*
G01*
G37*
G36*
G01*
X156015000Y-90367500D02*
X156015000Y-89972500D01*
G75*
G02*
X156187500Y-89800000I172500J0D01*
G01*
X156532500Y-89800000D01*
G75*
G02*
X156705000Y-89972500I0J-172500D01*
G01*
X156705000Y-90367500D01*
G75*
G02*
X156532500Y-90540000I-172500J0D01*
G01*
X156187500Y-90540000D01*
G75*
G02*
X156015000Y-90367500I0J172500D01*
G01*
G37*
%TD*%
%TO.C,C12*%
G36*
G01*
X160217500Y-99555000D02*
X159822500Y-99555000D01*
G75*
G02*
X159650000Y-99382500I0J172500D01*
G01*
X159650000Y-99037500D01*
G75*
G02*
X159822500Y-98865000I172500J0D01*
G01*
X160217500Y-98865000D01*
G75*
G02*
X160390000Y-99037500I0J-172500D01*
G01*
X160390000Y-99382500D01*
G75*
G02*
X160217500Y-99555000I-172500J0D01*
G01*
G37*
G36*
G01*
X160217500Y-100525000D02*
X159822500Y-100525000D01*
G75*
G02*
X159650000Y-100352500I0J172500D01*
G01*
X159650000Y-100007500D01*
G75*
G02*
X159822500Y-99835000I172500J0D01*
G01*
X160217500Y-99835000D01*
G75*
G02*
X160390000Y-100007500I0J-172500D01*
G01*
X160390000Y-100352500D01*
G75*
G02*
X160217500Y-100525000I-172500J0D01*
G01*
G37*
%TD*%
%TO.C,C11*%
G36*
G01*
X139560000Y-102672500D02*
X139560000Y-103067500D01*
G75*
G02*
X139387500Y-103240000I-172500J0D01*
G01*
X139042500Y-103240000D01*
G75*
G02*
X138870000Y-103067500I0J172500D01*
G01*
X138870000Y-102672500D01*
G75*
G02*
X139042500Y-102500000I172500J0D01*
G01*
X139387500Y-102500000D01*
G75*
G02*
X139560000Y-102672500I0J-172500D01*
G01*
G37*
G36*
G01*
X140530000Y-102672500D02*
X140530000Y-103067500D01*
G75*
G02*
X140357500Y-103240000I-172500J0D01*
G01*
X140012500Y-103240000D01*
G75*
G02*
X139840000Y-103067500I0J172500D01*
G01*
X139840000Y-102672500D01*
G75*
G02*
X140012500Y-102500000I172500J0D01*
G01*
X140357500Y-102500000D01*
G75*
G02*
X140530000Y-102672500I0J-172500D01*
G01*
G37*
%TD*%
%TO.C,C10*%
G36*
G01*
X139840000Y-95447500D02*
X139840000Y-95052500D01*
G75*
G02*
X140012500Y-94880000I172500J0D01*
G01*
X140357500Y-94880000D01*
G75*
G02*
X140530000Y-95052500I0J-172500D01*
G01*
X140530000Y-95447500D01*
G75*
G02*
X140357500Y-95620000I-172500J0D01*
G01*
X140012500Y-95620000D01*
G75*
G02*
X139840000Y-95447500I0J172500D01*
G01*
G37*
G36*
G01*
X138870000Y-95447500D02*
X138870000Y-95052500D01*
G75*
G02*
X139042500Y-94880000I172500J0D01*
G01*
X139387500Y-94880000D01*
G75*
G02*
X139560000Y-95052500I0J-172500D01*
G01*
X139560000Y-95447500D01*
G75*
G02*
X139387500Y-95620000I-172500J0D01*
G01*
X139042500Y-95620000D01*
G75*
G02*
X138870000Y-95447500I0J172500D01*
G01*
G37*
%TD*%
%TO.C,C8*%
G36*
G01*
X155715000Y-105607500D02*
X155715000Y-105212500D01*
G75*
G02*
X155887500Y-105040000I172500J0D01*
G01*
X156232500Y-105040000D01*
G75*
G02*
X156405000Y-105212500I0J-172500D01*
G01*
X156405000Y-105607500D01*
G75*
G02*
X156232500Y-105780000I-172500J0D01*
G01*
X155887500Y-105780000D01*
G75*
G02*
X155715000Y-105607500I0J172500D01*
G01*
G37*
G36*
G01*
X154745000Y-105607500D02*
X154745000Y-105212500D01*
G75*
G02*
X154917500Y-105040000I172500J0D01*
G01*
X155262500Y-105040000D01*
G75*
G02*
X155435000Y-105212500I0J-172500D01*
G01*
X155435000Y-105607500D01*
G75*
G02*
X155262500Y-105780000I-172500J0D01*
G01*
X154917500Y-105780000D01*
G75*
G02*
X154745000Y-105607500I0J172500D01*
G01*
G37*
%TD*%
%TO.C,C7*%
G36*
G01*
X143312500Y-97930000D02*
X143707500Y-97930000D01*
G75*
G02*
X143880000Y-98102500I0J-172500D01*
G01*
X143880000Y-98447500D01*
G75*
G02*
X143707500Y-98620000I-172500J0D01*
G01*
X143312500Y-98620000D01*
G75*
G02*
X143140000Y-98447500I0J172500D01*
G01*
X143140000Y-98102500D01*
G75*
G02*
X143312500Y-97930000I172500J0D01*
G01*
G37*
G36*
G01*
X143312500Y-96960000D02*
X143707500Y-96960000D01*
G75*
G02*
X143880000Y-97132500I0J-172500D01*
G01*
X143880000Y-97477500D01*
G75*
G02*
X143707500Y-97650000I-172500J0D01*
G01*
X143312500Y-97650000D01*
G75*
G02*
X143140000Y-97477500I0J172500D01*
G01*
X143140000Y-97132500D01*
G75*
G02*
X143312500Y-96960000I172500J0D01*
G01*
G37*
%TD*%
%TO.C,C6*%
G36*
G01*
X151625000Y-89337500D02*
X151625000Y-89732500D01*
G75*
G02*
X151452500Y-89905000I-172500J0D01*
G01*
X151107500Y-89905000D01*
G75*
G02*
X150935000Y-89732500I0J172500D01*
G01*
X150935000Y-89337500D01*
G75*
G02*
X151107500Y-89165000I172500J0D01*
G01*
X151452500Y-89165000D01*
G75*
G02*
X151625000Y-89337500I0J-172500D01*
G01*
G37*
G36*
G01*
X152595000Y-89337500D02*
X152595000Y-89732500D01*
G75*
G02*
X152422500Y-89905000I-172500J0D01*
G01*
X152077500Y-89905000D01*
G75*
G02*
X151905000Y-89732500I0J172500D01*
G01*
X151905000Y-89337500D01*
G75*
G02*
X152077500Y-89165000I172500J0D01*
G01*
X152422500Y-89165000D01*
G75*
G02*
X152595000Y-89337500I0J-172500D01*
G01*
G37*
%TD*%
D19*
%TO.C,D1*%
X130265000Y-96190000D03*
X130265000Y-99390000D03*
X135165000Y-96190000D03*
X135165000Y-99390000D03*
%TD*%
%TO.C,C5*%
G36*
G01*
X160217500Y-97650000D02*
X159822500Y-97650000D01*
G75*
G02*
X159650000Y-97477500I0J172500D01*
G01*
X159650000Y-97132500D01*
G75*
G02*
X159822500Y-96960000I172500J0D01*
G01*
X160217500Y-96960000D01*
G75*
G02*
X160390000Y-97132500I0J-172500D01*
G01*
X160390000Y-97477500D01*
G75*
G02*
X160217500Y-97650000I-172500J0D01*
G01*
G37*
G36*
G01*
X160217500Y-98620000D02*
X159822500Y-98620000D01*
G75*
G02*
X159650000Y-98447500I0J172500D01*
G01*
X159650000Y-98102500D01*
G75*
G02*
X159822500Y-97930000I172500J0D01*
G01*
X160217500Y-97930000D01*
G75*
G02*
X160390000Y-98102500I0J-172500D01*
G01*
X160390000Y-98447500D01*
G75*
G02*
X160217500Y-98620000I-172500J0D01*
G01*
G37*
%TD*%
%TO.C,C3*%
G36*
G01*
X164230000Y-103351250D02*
X164230000Y-102388750D01*
G75*
G02*
X164498750Y-102120000I268750J0D01*
G01*
X165036250Y-102120000D01*
G75*
G02*
X165305000Y-102388750I0J-268750D01*
G01*
X165305000Y-103351250D01*
G75*
G02*
X165036250Y-103620000I-268750J0D01*
G01*
X164498750Y-103620000D01*
G75*
G02*
X164230000Y-103351250I0J268750D01*
G01*
G37*
G36*
G01*
X162355000Y-103351250D02*
X162355000Y-102388750D01*
G75*
G02*
X162623750Y-102120000I268750J0D01*
G01*
X163161250Y-102120000D01*
G75*
G02*
X163430000Y-102388750I0J-268750D01*
G01*
X163430000Y-103351250D01*
G75*
G02*
X163161250Y-103620000I-268750J0D01*
G01*
X162623750Y-103620000D01*
G75*
G02*
X162355000Y-103351250I0J268750D01*
G01*
G37*
%TD*%
%TO.C,C1*%
G36*
G01*
X163430000Y-96038750D02*
X163430000Y-97001250D01*
G75*
G02*
X163161250Y-97270000I-268750J0D01*
G01*
X162623750Y-97270000D01*
G75*
G02*
X162355000Y-97001250I0J268750D01*
G01*
X162355000Y-96038750D01*
G75*
G02*
X162623750Y-95770000I268750J0D01*
G01*
X163161250Y-95770000D01*
G75*
G02*
X163430000Y-96038750I0J-268750D01*
G01*
G37*
G36*
G01*
X165305000Y-96038750D02*
X165305000Y-97001250D01*
G75*
G02*
X165036250Y-97270000I-268750J0D01*
G01*
X164498750Y-97270000D01*
G75*
G02*
X164230000Y-97001250I0J268750D01*
G01*
X164230000Y-96038750D01*
G75*
G02*
X164498750Y-95770000I268750J0D01*
G01*
X165036250Y-95770000D01*
G75*
G02*
X165305000Y-96038750I0J-268750D01*
G01*
G37*
%TD*%
%TO.C,U2*%
G36*
G01*
X145471750Y-97082893D02*
X144446445Y-96057588D01*
G75*
G02*
X144446445Y-95916166I70711J70711D01*
G01*
X144587866Y-95774745D01*
G75*
G02*
X144729288Y-95774745I70711J-70711D01*
G01*
X145754593Y-96800050D01*
G75*
G02*
X145754593Y-96941472I-70711J-70711D01*
G01*
X145613172Y-97082893D01*
G75*
G02*
X145471750Y-97082893I-70711J70711D01*
G01*
G37*
G36*
G01*
X145825303Y-96729340D02*
X144799998Y-95704035D01*
G75*
G02*
X144799998Y-95562613I70711J70711D01*
G01*
X144941419Y-95421192D01*
G75*
G02*
X145082841Y-95421192I70711J-70711D01*
G01*
X146108146Y-96446497D01*
G75*
G02*
X146108146Y-96587919I-70711J-70711D01*
G01*
X145966725Y-96729340D01*
G75*
G02*
X145825303Y-96729340I-70711J70711D01*
G01*
G37*
G36*
G01*
X146178856Y-96375787D02*
X145153551Y-95350482D01*
G75*
G02*
X145153551Y-95209060I70711J70711D01*
G01*
X145294972Y-95067639D01*
G75*
G02*
X145436394Y-95067639I70711J-70711D01*
G01*
X146461699Y-96092944D01*
G75*
G02*
X146461699Y-96234366I-70711J-70711D01*
G01*
X146320278Y-96375787D01*
G75*
G02*
X146178856Y-96375787I-70711J70711D01*
G01*
G37*
G36*
G01*
X146532410Y-96022233D02*
X145507105Y-94996928D01*
G75*
G02*
X145507105Y-94855506I70711J70711D01*
G01*
X145648526Y-94714085D01*
G75*
G02*
X145789948Y-94714085I70711J-70711D01*
G01*
X146815253Y-95739390D01*
G75*
G02*
X146815253Y-95880812I-70711J-70711D01*
G01*
X146673832Y-96022233D01*
G75*
G02*
X146532410Y-96022233I-70711J70711D01*
G01*
G37*
G36*
G01*
X146885963Y-95668680D02*
X145860658Y-94643375D01*
G75*
G02*
X145860658Y-94501953I70711J70711D01*
G01*
X146002079Y-94360532D01*
G75*
G02*
X146143501Y-94360532I70711J-70711D01*
G01*
X147168806Y-95385837D01*
G75*
G02*
X147168806Y-95527259I-70711J-70711D01*
G01*
X147027385Y-95668680D01*
G75*
G02*
X146885963Y-95668680I-70711J70711D01*
G01*
G37*
G36*
G01*
X147239517Y-95315126D02*
X146214212Y-94289821D01*
G75*
G02*
X146214212Y-94148399I70711J70711D01*
G01*
X146355633Y-94006978D01*
G75*
G02*
X146497055Y-94006978I70711J-70711D01*
G01*
X147522360Y-95032283D01*
G75*
G02*
X147522360Y-95173705I-70711J-70711D01*
G01*
X147380939Y-95315126D01*
G75*
G02*
X147239517Y-95315126I-70711J70711D01*
G01*
G37*
G36*
G01*
X147593070Y-94961573D02*
X146567765Y-93936268D01*
G75*
G02*
X146567765Y-93794846I70711J70711D01*
G01*
X146709186Y-93653425D01*
G75*
G02*
X146850608Y-93653425I70711J-70711D01*
G01*
X147875913Y-94678730D01*
G75*
G02*
X147875913Y-94820152I-70711J-70711D01*
G01*
X147734492Y-94961573D01*
G75*
G02*
X147593070Y-94961573I-70711J70711D01*
G01*
G37*
G36*
G01*
X147946623Y-94608020D02*
X146921318Y-93582715D01*
G75*
G02*
X146921318Y-93441293I70711J70711D01*
G01*
X147062739Y-93299872D01*
G75*
G02*
X147204161Y-93299872I70711J-70711D01*
G01*
X148229466Y-94325177D01*
G75*
G02*
X148229466Y-94466599I-70711J-70711D01*
G01*
X148088045Y-94608020D01*
G75*
G02*
X147946623Y-94608020I-70711J70711D01*
G01*
G37*
G36*
G01*
X148300177Y-94254466D02*
X147274872Y-93229161D01*
G75*
G02*
X147274872Y-93087739I70711J70711D01*
G01*
X147416293Y-92946318D01*
G75*
G02*
X147557715Y-92946318I70711J-70711D01*
G01*
X148583020Y-93971623D01*
G75*
G02*
X148583020Y-94113045I-70711J-70711D01*
G01*
X148441599Y-94254466D01*
G75*
G02*
X148300177Y-94254466I-70711J70711D01*
G01*
G37*
G36*
G01*
X148653730Y-93900913D02*
X147628425Y-92875608D01*
G75*
G02*
X147628425Y-92734186I70711J70711D01*
G01*
X147769846Y-92592765D01*
G75*
G02*
X147911268Y-92592765I70711J-70711D01*
G01*
X148936573Y-93618070D01*
G75*
G02*
X148936573Y-93759492I-70711J-70711D01*
G01*
X148795152Y-93900913D01*
G75*
G02*
X148653730Y-93900913I-70711J70711D01*
G01*
G37*
G36*
G01*
X149007283Y-93547360D02*
X147981978Y-92522055D01*
G75*
G02*
X147981978Y-92380633I70711J70711D01*
G01*
X148123399Y-92239212D01*
G75*
G02*
X148264821Y-92239212I70711J-70711D01*
G01*
X149290126Y-93264517D01*
G75*
G02*
X149290126Y-93405939I-70711J-70711D01*
G01*
X149148705Y-93547360D01*
G75*
G02*
X149007283Y-93547360I-70711J70711D01*
G01*
G37*
G36*
G01*
X149360837Y-93193806D02*
X148335532Y-92168501D01*
G75*
G02*
X148335532Y-92027079I70711J70711D01*
G01*
X148476953Y-91885658D01*
G75*
G02*
X148618375Y-91885658I70711J-70711D01*
G01*
X149643680Y-92910963D01*
G75*
G02*
X149643680Y-93052385I-70711J-70711D01*
G01*
X149502259Y-93193806D01*
G75*
G02*
X149360837Y-93193806I-70711J70711D01*
G01*
G37*
G36*
G01*
X149714390Y-92840253D02*
X148689085Y-91814948D01*
G75*
G02*
X148689085Y-91673526I70711J70711D01*
G01*
X148830506Y-91532105D01*
G75*
G02*
X148971928Y-91532105I70711J-70711D01*
G01*
X149997233Y-92557410D01*
G75*
G02*
X149997233Y-92698832I-70711J-70711D01*
G01*
X149855812Y-92840253D01*
G75*
G02*
X149714390Y-92840253I-70711J70711D01*
G01*
G37*
G36*
G01*
X150067944Y-92486699D02*
X149042639Y-91461394D01*
G75*
G02*
X149042639Y-91319972I70711J70711D01*
G01*
X149184060Y-91178551D01*
G75*
G02*
X149325482Y-91178551I70711J-70711D01*
G01*
X150350787Y-92203856D01*
G75*
G02*
X150350787Y-92345278I-70711J-70711D01*
G01*
X150209366Y-92486699D01*
G75*
G02*
X150067944Y-92486699I-70711J70711D01*
G01*
G37*
G36*
G01*
X150421497Y-92133146D02*
X149396192Y-91107841D01*
G75*
G02*
X149396192Y-90966419I70711J70711D01*
G01*
X149537613Y-90824998D01*
G75*
G02*
X149679035Y-90824998I70711J-70711D01*
G01*
X150704340Y-91850303D01*
G75*
G02*
X150704340Y-91991725I-70711J-70711D01*
G01*
X150562919Y-92133146D01*
G75*
G02*
X150421497Y-92133146I-70711J70711D01*
G01*
G37*
G36*
G01*
X150775050Y-91779593D02*
X149749745Y-90754288D01*
G75*
G02*
X149749745Y-90612866I70711J70711D01*
G01*
X149891166Y-90471445D01*
G75*
G02*
X150032588Y-90471445I70711J-70711D01*
G01*
X151057893Y-91496750D01*
G75*
G02*
X151057893Y-91638172I-70711J-70711D01*
G01*
X150916472Y-91779593D01*
G75*
G02*
X150775050Y-91779593I-70711J70711D01*
G01*
G37*
G36*
G01*
X152613529Y-91779593D02*
X152472107Y-91638172D01*
G75*
G02*
X152472107Y-91496750I70711J70711D01*
G01*
X153497412Y-90471445D01*
G75*
G02*
X153638834Y-90471445I70711J-70711D01*
G01*
X153780255Y-90612866D01*
G75*
G02*
X153780255Y-90754288I-70711J-70711D01*
G01*
X152754950Y-91779593D01*
G75*
G02*
X152613528Y-91779593I-70711J70711D01*
G01*
G37*
G36*
G01*
X152967082Y-92133146D02*
X152825660Y-91991725D01*
G75*
G02*
X152825660Y-91850303I70711J70711D01*
G01*
X153850965Y-90824998D01*
G75*
G02*
X153992387Y-90824998I70711J-70711D01*
G01*
X154133808Y-90966419D01*
G75*
G02*
X154133808Y-91107841I-70711J-70711D01*
G01*
X153108503Y-92133146D01*
G75*
G02*
X152967081Y-92133146I-70711J70711D01*
G01*
G37*
G36*
G01*
X153320635Y-92486699D02*
X153179213Y-92345278D01*
G75*
G02*
X153179213Y-92203856I70711J70711D01*
G01*
X154204518Y-91178551D01*
G75*
G02*
X154345940Y-91178551I70711J-70711D01*
G01*
X154487361Y-91319972D01*
G75*
G02*
X154487361Y-91461394I-70711J-70711D01*
G01*
X153462056Y-92486699D01*
G75*
G02*
X153320634Y-92486699I-70711J70711D01*
G01*
G37*
G36*
G01*
X153674189Y-92840253D02*
X153532767Y-92698832D01*
G75*
G02*
X153532767Y-92557410I70711J70711D01*
G01*
X154558072Y-91532105D01*
G75*
G02*
X154699494Y-91532105I70711J-70711D01*
G01*
X154840915Y-91673526D01*
G75*
G02*
X154840915Y-91814948I-70711J-70711D01*
G01*
X153815610Y-92840253D01*
G75*
G02*
X153674188Y-92840253I-70711J70711D01*
G01*
G37*
G36*
G01*
X154027742Y-93193806D02*
X153886320Y-93052385D01*
G75*
G02*
X153886320Y-92910963I70711J70711D01*
G01*
X154911625Y-91885658D01*
G75*
G02*
X155053047Y-91885658I70711J-70711D01*
G01*
X155194468Y-92027079D01*
G75*
G02*
X155194468Y-92168501I-70711J-70711D01*
G01*
X154169163Y-93193806D01*
G75*
G02*
X154027741Y-93193806I-70711J70711D01*
G01*
G37*
G36*
G01*
X154381296Y-93547360D02*
X154239874Y-93405939D01*
G75*
G02*
X154239874Y-93264517I70711J70711D01*
G01*
X155265179Y-92239212D01*
G75*
G02*
X155406601Y-92239212I70711J-70711D01*
G01*
X155548022Y-92380633D01*
G75*
G02*
X155548022Y-92522055I-70711J-70711D01*
G01*
X154522717Y-93547360D01*
G75*
G02*
X154381295Y-93547360I-70711J70711D01*
G01*
G37*
G36*
G01*
X154734849Y-93900913D02*
X154593427Y-93759492D01*
G75*
G02*
X154593427Y-93618070I70711J70711D01*
G01*
X155618732Y-92592765D01*
G75*
G02*
X155760154Y-92592765I70711J-70711D01*
G01*
X155901575Y-92734186D01*
G75*
G02*
X155901575Y-92875608I-70711J-70711D01*
G01*
X154876270Y-93900913D01*
G75*
G02*
X154734848Y-93900913I-70711J70711D01*
G01*
G37*
G36*
G01*
X155088402Y-94254466D02*
X154946980Y-94113045D01*
G75*
G02*
X154946980Y-93971623I70711J70711D01*
G01*
X155972285Y-92946318D01*
G75*
G02*
X156113707Y-92946318I70711J-70711D01*
G01*
X156255128Y-93087739D01*
G75*
G02*
X156255128Y-93229161I-70711J-70711D01*
G01*
X155229823Y-94254466D01*
G75*
G02*
X155088401Y-94254466I-70711J70711D01*
G01*
G37*
G36*
G01*
X155441956Y-94608020D02*
X155300534Y-94466599D01*
G75*
G02*
X155300534Y-94325177I70711J70711D01*
G01*
X156325839Y-93299872D01*
G75*
G02*
X156467261Y-93299872I70711J-70711D01*
G01*
X156608682Y-93441293D01*
G75*
G02*
X156608682Y-93582715I-70711J-70711D01*
G01*
X155583377Y-94608020D01*
G75*
G02*
X155441955Y-94608020I-70711J70711D01*
G01*
G37*
G36*
G01*
X155795509Y-94961573D02*
X155654087Y-94820152D01*
G75*
G02*
X155654087Y-94678730I70711J70711D01*
G01*
X156679392Y-93653425D01*
G75*
G02*
X156820814Y-93653425I70711J-70711D01*
G01*
X156962235Y-93794846D01*
G75*
G02*
X156962235Y-93936268I-70711J-70711D01*
G01*
X155936930Y-94961573D01*
G75*
G02*
X155795508Y-94961573I-70711J70711D01*
G01*
G37*
G36*
G01*
X156149062Y-95315126D02*
X156007640Y-95173705D01*
G75*
G02*
X156007640Y-95032283I70711J70711D01*
G01*
X157032945Y-94006978D01*
G75*
G02*
X157174367Y-94006978I70711J-70711D01*
G01*
X157315788Y-94148399D01*
G75*
G02*
X157315788Y-94289821I-70711J-70711D01*
G01*
X156290483Y-95315126D01*
G75*
G02*
X156149061Y-95315126I-70711J70711D01*
G01*
G37*
G36*
G01*
X156502616Y-95668680D02*
X156361194Y-95527259D01*
G75*
G02*
X156361194Y-95385837I70711J70711D01*
G01*
X157386499Y-94360532D01*
G75*
G02*
X157527921Y-94360532I70711J-70711D01*
G01*
X157669342Y-94501953D01*
G75*
G02*
X157669342Y-94643375I-70711J-70711D01*
G01*
X156644037Y-95668680D01*
G75*
G02*
X156502615Y-95668680I-70711J70711D01*
G01*
G37*
G36*
G01*
X156856169Y-96022233D02*
X156714747Y-95880812D01*
G75*
G02*
X156714747Y-95739390I70711J70711D01*
G01*
X157740052Y-94714085D01*
G75*
G02*
X157881474Y-94714085I70711J-70711D01*
G01*
X158022895Y-94855506D01*
G75*
G02*
X158022895Y-94996928I-70711J-70711D01*
G01*
X156997590Y-96022233D01*
G75*
G02*
X156856168Y-96022233I-70711J70711D01*
G01*
G37*
G36*
G01*
X157209723Y-96375787D02*
X157068301Y-96234366D01*
G75*
G02*
X157068301Y-96092944I70711J70711D01*
G01*
X158093606Y-95067639D01*
G75*
G02*
X158235028Y-95067639I70711J-70711D01*
G01*
X158376449Y-95209060D01*
G75*
G02*
X158376449Y-95350482I-70711J-70711D01*
G01*
X157351144Y-96375787D01*
G75*
G02*
X157209722Y-96375787I-70711J70711D01*
G01*
G37*
G36*
G01*
X157563276Y-96729340D02*
X157421854Y-96587919D01*
G75*
G02*
X157421854Y-96446497I70711J70711D01*
G01*
X158447159Y-95421192D01*
G75*
G02*
X158588581Y-95421192I70711J-70711D01*
G01*
X158730002Y-95562613D01*
G75*
G02*
X158730002Y-95704035I-70711J-70711D01*
G01*
X157704697Y-96729340D01*
G75*
G02*
X157563275Y-96729340I-70711J70711D01*
G01*
G37*
G36*
G01*
X157916829Y-97082893D02*
X157775407Y-96941472D01*
G75*
G02*
X157775407Y-96800050I70711J70711D01*
G01*
X158800712Y-95774745D01*
G75*
G02*
X158942134Y-95774745I70711J-70711D01*
G01*
X159083555Y-95916166D01*
G75*
G02*
X159083555Y-96057588I-70711J-70711D01*
G01*
X158058250Y-97082893D01*
G75*
G02*
X157916828Y-97082893I-70711J70711D01*
G01*
G37*
G36*
G01*
X158800712Y-99805255D02*
X157775407Y-98779950D01*
G75*
G02*
X157775407Y-98638528I70711J70711D01*
G01*
X157916828Y-98497107D01*
G75*
G02*
X158058250Y-98497107I70711J-70711D01*
G01*
X159083555Y-99522412D01*
G75*
G02*
X159083555Y-99663834I-70711J-70711D01*
G01*
X158942134Y-99805255D01*
G75*
G02*
X158800712Y-99805255I-70711J70711D01*
G01*
G37*
G36*
G01*
X158447159Y-100158808D02*
X157421854Y-99133503D01*
G75*
G02*
X157421854Y-98992081I70711J70711D01*
G01*
X157563275Y-98850660D01*
G75*
G02*
X157704697Y-98850660I70711J-70711D01*
G01*
X158730002Y-99875965D01*
G75*
G02*
X158730002Y-100017387I-70711J-70711D01*
G01*
X158588581Y-100158808D01*
G75*
G02*
X158447159Y-100158808I-70711J70711D01*
G01*
G37*
G36*
G01*
X158093606Y-100512361D02*
X157068301Y-99487056D01*
G75*
G02*
X157068301Y-99345634I70711J70711D01*
G01*
X157209722Y-99204213D01*
G75*
G02*
X157351144Y-99204213I70711J-70711D01*
G01*
X158376449Y-100229518D01*
G75*
G02*
X158376449Y-100370940I-70711J-70711D01*
G01*
X158235028Y-100512361D01*
G75*
G02*
X158093606Y-100512361I-70711J70711D01*
G01*
G37*
G36*
G01*
X157740052Y-100865915D02*
X156714747Y-99840610D01*
G75*
G02*
X156714747Y-99699188I70711J70711D01*
G01*
X156856168Y-99557767D01*
G75*
G02*
X156997590Y-99557767I70711J-70711D01*
G01*
X158022895Y-100583072D01*
G75*
G02*
X158022895Y-100724494I-70711J-70711D01*
G01*
X157881474Y-100865915D01*
G75*
G02*
X157740052Y-100865915I-70711J70711D01*
G01*
G37*
G36*
G01*
X157386499Y-101219468D02*
X156361194Y-100194163D01*
G75*
G02*
X156361194Y-100052741I70711J70711D01*
G01*
X156502615Y-99911320D01*
G75*
G02*
X156644037Y-99911320I70711J-70711D01*
G01*
X157669342Y-100936625D01*
G75*
G02*
X157669342Y-101078047I-70711J-70711D01*
G01*
X157527921Y-101219468D01*
G75*
G02*
X157386499Y-101219468I-70711J70711D01*
G01*
G37*
G36*
G01*
X157032945Y-101573022D02*
X156007640Y-100547717D01*
G75*
G02*
X156007640Y-100406295I70711J70711D01*
G01*
X156149061Y-100264874D01*
G75*
G02*
X156290483Y-100264874I70711J-70711D01*
G01*
X157315788Y-101290179D01*
G75*
G02*
X157315788Y-101431601I-70711J-70711D01*
G01*
X157174367Y-101573022D01*
G75*
G02*
X157032945Y-101573022I-70711J70711D01*
G01*
G37*
G36*
G01*
X156679392Y-101926575D02*
X155654087Y-100901270D01*
G75*
G02*
X155654087Y-100759848I70711J70711D01*
G01*
X155795508Y-100618427D01*
G75*
G02*
X155936930Y-100618427I70711J-70711D01*
G01*
X156962235Y-101643732D01*
G75*
G02*
X156962235Y-101785154I-70711J-70711D01*
G01*
X156820814Y-101926575D01*
G75*
G02*
X156679392Y-101926575I-70711J70711D01*
G01*
G37*
G36*
G01*
X156325839Y-102280128D02*
X155300534Y-101254823D01*
G75*
G02*
X155300534Y-101113401I70711J70711D01*
G01*
X155441955Y-100971980D01*
G75*
G02*
X155583377Y-100971980I70711J-70711D01*
G01*
X156608682Y-101997285D01*
G75*
G02*
X156608682Y-102138707I-70711J-70711D01*
G01*
X156467261Y-102280128D01*
G75*
G02*
X156325839Y-102280128I-70711J70711D01*
G01*
G37*
G36*
G01*
X155972285Y-102633682D02*
X154946980Y-101608377D01*
G75*
G02*
X154946980Y-101466955I70711J70711D01*
G01*
X155088401Y-101325534D01*
G75*
G02*
X155229823Y-101325534I70711J-70711D01*
G01*
X156255128Y-102350839D01*
G75*
G02*
X156255128Y-102492261I-70711J-70711D01*
G01*
X156113707Y-102633682D01*
G75*
G02*
X155972285Y-102633682I-70711J70711D01*
G01*
G37*
G36*
G01*
X155618732Y-102987235D02*
X154593427Y-101961930D01*
G75*
G02*
X154593427Y-101820508I70711J70711D01*
G01*
X154734848Y-101679087D01*
G75*
G02*
X154876270Y-101679087I70711J-70711D01*
G01*
X155901575Y-102704392D01*
G75*
G02*
X155901575Y-102845814I-70711J-70711D01*
G01*
X155760154Y-102987235D01*
G75*
G02*
X155618732Y-102987235I-70711J70711D01*
G01*
G37*
G36*
G01*
X155265179Y-103340788D02*
X154239874Y-102315483D01*
G75*
G02*
X154239874Y-102174061I70711J70711D01*
G01*
X154381295Y-102032640D01*
G75*
G02*
X154522717Y-102032640I70711J-70711D01*
G01*
X155548022Y-103057945D01*
G75*
G02*
X155548022Y-103199367I-70711J-70711D01*
G01*
X155406601Y-103340788D01*
G75*
G02*
X155265179Y-103340788I-70711J70711D01*
G01*
G37*
G36*
G01*
X154911625Y-103694342D02*
X153886320Y-102669037D01*
G75*
G02*
X153886320Y-102527615I70711J70711D01*
G01*
X154027741Y-102386194D01*
G75*
G02*
X154169163Y-102386194I70711J-70711D01*
G01*
X155194468Y-103411499D01*
G75*
G02*
X155194468Y-103552921I-70711J-70711D01*
G01*
X155053047Y-103694342D01*
G75*
G02*
X154911625Y-103694342I-70711J70711D01*
G01*
G37*
G36*
G01*
X154558072Y-104047895D02*
X153532767Y-103022590D01*
G75*
G02*
X153532767Y-102881168I70711J70711D01*
G01*
X153674188Y-102739747D01*
G75*
G02*
X153815610Y-102739747I70711J-70711D01*
G01*
X154840915Y-103765052D01*
G75*
G02*
X154840915Y-103906474I-70711J-70711D01*
G01*
X154699494Y-104047895D01*
G75*
G02*
X154558072Y-104047895I-70711J70711D01*
G01*
G37*
G36*
G01*
X154204518Y-104401449D02*
X153179213Y-103376144D01*
G75*
G02*
X153179213Y-103234722I70711J70711D01*
G01*
X153320634Y-103093301D01*
G75*
G02*
X153462056Y-103093301I70711J-70711D01*
G01*
X154487361Y-104118606D01*
G75*
G02*
X154487361Y-104260028I-70711J-70711D01*
G01*
X154345940Y-104401449D01*
G75*
G02*
X154204518Y-104401449I-70711J70711D01*
G01*
G37*
G36*
G01*
X153850965Y-104755002D02*
X152825660Y-103729697D01*
G75*
G02*
X152825660Y-103588275I70711J70711D01*
G01*
X152967081Y-103446854D01*
G75*
G02*
X153108503Y-103446854I70711J-70711D01*
G01*
X154133808Y-104472159D01*
G75*
G02*
X154133808Y-104613581I-70711J-70711D01*
G01*
X153992387Y-104755002D01*
G75*
G02*
X153850965Y-104755002I-70711J70711D01*
G01*
G37*
G36*
G01*
X153497412Y-105108555D02*
X152472107Y-104083250D01*
G75*
G02*
X152472107Y-103941828I70711J70711D01*
G01*
X152613528Y-103800407D01*
G75*
G02*
X152754950Y-103800407I70711J-70711D01*
G01*
X153780255Y-104825712D01*
G75*
G02*
X153780255Y-104967134I-70711J-70711D01*
G01*
X153638834Y-105108555D01*
G75*
G02*
X153497412Y-105108555I-70711J70711D01*
G01*
G37*
G36*
G01*
X149891167Y-105108555D02*
X149749745Y-104967134D01*
G75*
G02*
X149749745Y-104825712I70711J70711D01*
G01*
X150775050Y-103800407D01*
G75*
G02*
X150916472Y-103800407I70711J-70711D01*
G01*
X151057893Y-103941828D01*
G75*
G02*
X151057893Y-104083250I-70711J-70711D01*
G01*
X150032588Y-105108555D01*
G75*
G02*
X149891166Y-105108555I-70711J70711D01*
G01*
G37*
G36*
G01*
X149537614Y-104755002D02*
X149396192Y-104613581D01*
G75*
G02*
X149396192Y-104472159I70711J70711D01*
G01*
X150421497Y-103446854D01*
G75*
G02*
X150562919Y-103446854I70711J-70711D01*
G01*
X150704340Y-103588275D01*
G75*
G02*
X150704340Y-103729697I-70711J-70711D01*
G01*
X149679035Y-104755002D01*
G75*
G02*
X149537613Y-104755002I-70711J70711D01*
G01*
G37*
G36*
G01*
X149184061Y-104401449D02*
X149042639Y-104260028D01*
G75*
G02*
X149042639Y-104118606I70711J70711D01*
G01*
X150067944Y-103093301D01*
G75*
G02*
X150209366Y-103093301I70711J-70711D01*
G01*
X150350787Y-103234722D01*
G75*
G02*
X150350787Y-103376144I-70711J-70711D01*
G01*
X149325482Y-104401449D01*
G75*
G02*
X149184060Y-104401449I-70711J70711D01*
G01*
G37*
G36*
G01*
X148830507Y-104047895D02*
X148689085Y-103906474D01*
G75*
G02*
X148689085Y-103765052I70711J70711D01*
G01*
X149714390Y-102739747D01*
G75*
G02*
X149855812Y-102739747I70711J-70711D01*
G01*
X149997233Y-102881168D01*
G75*
G02*
X149997233Y-103022590I-70711J-70711D01*
G01*
X148971928Y-104047895D01*
G75*
G02*
X148830506Y-104047895I-70711J70711D01*
G01*
G37*
G36*
G01*
X148476954Y-103694342D02*
X148335532Y-103552921D01*
G75*
G02*
X148335532Y-103411499I70711J70711D01*
G01*
X149360837Y-102386194D01*
G75*
G02*
X149502259Y-102386194I70711J-70711D01*
G01*
X149643680Y-102527615D01*
G75*
G02*
X149643680Y-102669037I-70711J-70711D01*
G01*
X148618375Y-103694342D01*
G75*
G02*
X148476953Y-103694342I-70711J70711D01*
G01*
G37*
G36*
G01*
X148123400Y-103340788D02*
X147981978Y-103199367D01*
G75*
G02*
X147981978Y-103057945I70711J70711D01*
G01*
X149007283Y-102032640D01*
G75*
G02*
X149148705Y-102032640I70711J-70711D01*
G01*
X149290126Y-102174061D01*
G75*
G02*
X149290126Y-102315483I-70711J-70711D01*
G01*
X148264821Y-103340788D01*
G75*
G02*
X148123399Y-103340788I-70711J70711D01*
G01*
G37*
G36*
G01*
X147769847Y-102987235D02*
X147628425Y-102845814D01*
G75*
G02*
X147628425Y-102704392I70711J70711D01*
G01*
X148653730Y-101679087D01*
G75*
G02*
X148795152Y-101679087I70711J-70711D01*
G01*
X148936573Y-101820508D01*
G75*
G02*
X148936573Y-101961930I-70711J-70711D01*
G01*
X147911268Y-102987235D01*
G75*
G02*
X147769846Y-102987235I-70711J70711D01*
G01*
G37*
G36*
G01*
X147416294Y-102633682D02*
X147274872Y-102492261D01*
G75*
G02*
X147274872Y-102350839I70711J70711D01*
G01*
X148300177Y-101325534D01*
G75*
G02*
X148441599Y-101325534I70711J-70711D01*
G01*
X148583020Y-101466955D01*
G75*
G02*
X148583020Y-101608377I-70711J-70711D01*
G01*
X147557715Y-102633682D01*
G75*
G02*
X147416293Y-102633682I-70711J70711D01*
G01*
G37*
G36*
G01*
X147062740Y-102280128D02*
X146921318Y-102138707D01*
G75*
G02*
X146921318Y-101997285I70711J70711D01*
G01*
X147946623Y-100971980D01*
G75*
G02*
X148088045Y-100971980I70711J-70711D01*
G01*
X148229466Y-101113401D01*
G75*
G02*
X148229466Y-101254823I-70711J-70711D01*
G01*
X147204161Y-102280128D01*
G75*
G02*
X147062739Y-102280128I-70711J70711D01*
G01*
G37*
G36*
G01*
X146709187Y-101926575D02*
X146567765Y-101785154D01*
G75*
G02*
X146567765Y-101643732I70711J70711D01*
G01*
X147593070Y-100618427D01*
G75*
G02*
X147734492Y-100618427I70711J-70711D01*
G01*
X147875913Y-100759848D01*
G75*
G02*
X147875913Y-100901270I-70711J-70711D01*
G01*
X146850608Y-101926575D01*
G75*
G02*
X146709186Y-101926575I-70711J70711D01*
G01*
G37*
G36*
G01*
X146355634Y-101573022D02*
X146214212Y-101431601D01*
G75*
G02*
X146214212Y-101290179I70711J70711D01*
G01*
X147239517Y-100264874D01*
G75*
G02*
X147380939Y-100264874I70711J-70711D01*
G01*
X147522360Y-100406295D01*
G75*
G02*
X147522360Y-100547717I-70711J-70711D01*
G01*
X146497055Y-101573022D01*
G75*
G02*
X146355633Y-101573022I-70711J70711D01*
G01*
G37*
G36*
G01*
X146002080Y-101219468D02*
X145860658Y-101078047D01*
G75*
G02*
X145860658Y-100936625I70711J70711D01*
G01*
X146885963Y-99911320D01*
G75*
G02*
X147027385Y-99911320I70711J-70711D01*
G01*
X147168806Y-100052741D01*
G75*
G02*
X147168806Y-100194163I-70711J-70711D01*
G01*
X146143501Y-101219468D01*
G75*
G02*
X146002079Y-101219468I-70711J70711D01*
G01*
G37*
G36*
G01*
X145648527Y-100865915D02*
X145507105Y-100724494D01*
G75*
G02*
X145507105Y-100583072I70711J70711D01*
G01*
X146532410Y-99557767D01*
G75*
G02*
X146673832Y-99557767I70711J-70711D01*
G01*
X146815253Y-99699188D01*
G75*
G02*
X146815253Y-99840610I-70711J-70711D01*
G01*
X145789948Y-100865915D01*
G75*
G02*
X145648526Y-100865915I-70711J70711D01*
G01*
G37*
G36*
G01*
X145294973Y-100512361D02*
X145153551Y-100370940D01*
G75*
G02*
X145153551Y-100229518I70711J70711D01*
G01*
X146178856Y-99204213D01*
G75*
G02*
X146320278Y-99204213I70711J-70711D01*
G01*
X146461699Y-99345634D01*
G75*
G02*
X146461699Y-99487056I-70711J-70711D01*
G01*
X145436394Y-100512361D01*
G75*
G02*
X145294972Y-100512361I-70711J70711D01*
G01*
G37*
G36*
G01*
X144941420Y-100158808D02*
X144799998Y-100017387D01*
G75*
G02*
X144799998Y-99875965I70711J70711D01*
G01*
X145825303Y-98850660D01*
G75*
G02*
X145966725Y-98850660I70711J-70711D01*
G01*
X146108146Y-98992081D01*
G75*
G02*
X146108146Y-99133503I-70711J-70711D01*
G01*
X145082841Y-100158808D01*
G75*
G02*
X144941419Y-100158808I-70711J70711D01*
G01*
G37*
G36*
G01*
X144587867Y-99805255D02*
X144446445Y-99663834D01*
G75*
G02*
X144446445Y-99522412I70711J70711D01*
G01*
X145471750Y-98497107D01*
G75*
G02*
X145613172Y-98497107I70711J-70711D01*
G01*
X145754593Y-98638528D01*
G75*
G02*
X145754593Y-98779950I-70711J-70711D01*
G01*
X144729288Y-99805255D01*
G75*
G02*
X144587866Y-99805255I-70711J70711D01*
G01*
G37*
%TD*%
M02*
