%TF.GenerationSoftware,KiCad,Pcbnew,5.1.6+dfsg1-1*%
%TF.CreationDate,2020-08-05T09:46:32+08:00*%
%TF.ProjectId,stm32dev,73746d33-3264-4657-962e-6b696361645f,b*%
%TF.SameCoordinates,Original*%
%TF.FileFunction,Paste,Top*%
%TF.FilePolarity,Positive*%
%FSLAX46Y46*%
G04 Gerber Fmt 4.6, Leading zero omitted, Abs format (unit mm)*
G04 Created by KiCad (PCBNEW 5.1.6+dfsg1-1) date 2020-08-05 09:46:32*
%MOMM*%
%LPD*%
G01*
G04 APERTURE LIST*
%ADD10R,1.700000X1.000000*%
%ADD11R,1.200000X0.900000*%
%ADD12R,2.400000X1.900000*%
%ADD13R,0.900000X0.800000*%
%ADD14R,1.500000X1.000000*%
G04 APERTURE END LIST*
%TO.C,C13*%
G36*
G01*
X155442500Y-90680250D02*
X155442500Y-90167750D01*
G75*
G02*
X155661250Y-89949000I218750J0D01*
G01*
X156098750Y-89949000D01*
G75*
G02*
X156317500Y-90167750I0J-218750D01*
G01*
X156317500Y-90680250D01*
G75*
G02*
X156098750Y-90899000I-218750J0D01*
G01*
X155661250Y-90899000D01*
G75*
G02*
X155442500Y-90680250I0J218750D01*
G01*
G37*
G36*
G01*
X153867500Y-90680250D02*
X153867500Y-90167750D01*
G75*
G02*
X154086250Y-89949000I218750J0D01*
G01*
X154523750Y-89949000D01*
G75*
G02*
X154742500Y-90167750I0J-218750D01*
G01*
X154742500Y-90680250D01*
G75*
G02*
X154523750Y-90899000I-218750J0D01*
G01*
X154086250Y-90899000D01*
G75*
G02*
X153867500Y-90680250I0J218750D01*
G01*
G37*
%TD*%
%TO.C,C12*%
G36*
G01*
X159641250Y-99345000D02*
X159128750Y-99345000D01*
G75*
G02*
X158910000Y-99126250I0J218750D01*
G01*
X158910000Y-98688750D01*
G75*
G02*
X159128750Y-98470000I218750J0D01*
G01*
X159641250Y-98470000D01*
G75*
G02*
X159860000Y-98688750I0J-218750D01*
G01*
X159860000Y-99126250D01*
G75*
G02*
X159641250Y-99345000I-218750J0D01*
G01*
G37*
G36*
G01*
X159641250Y-100920000D02*
X159128750Y-100920000D01*
G75*
G02*
X158910000Y-100701250I0J218750D01*
G01*
X158910000Y-100263750D01*
G75*
G02*
X159128750Y-100045000I218750J0D01*
G01*
X159641250Y-100045000D01*
G75*
G02*
X159860000Y-100263750I0J-218750D01*
G01*
X159860000Y-100701250D01*
G75*
G02*
X159641250Y-100920000I-218750J0D01*
G01*
G37*
%TD*%
%TO.C,C9*%
G36*
G01*
X143337500Y-104965000D02*
X143682500Y-104965000D01*
G75*
G02*
X143830000Y-105112500I0J-147500D01*
G01*
X143830000Y-105407500D01*
G75*
G02*
X143682500Y-105555000I-147500J0D01*
G01*
X143337500Y-105555000D01*
G75*
G02*
X143190000Y-105407500I0J147500D01*
G01*
X143190000Y-105112500D01*
G75*
G02*
X143337500Y-104965000I147500J0D01*
G01*
G37*
G36*
G01*
X143337500Y-103995000D02*
X143682500Y-103995000D01*
G75*
G02*
X143830000Y-104142500I0J-147500D01*
G01*
X143830000Y-104437500D01*
G75*
G02*
X143682500Y-104585000I-147500J0D01*
G01*
X143337500Y-104585000D01*
G75*
G02*
X143190000Y-104437500I0J147500D01*
G01*
X143190000Y-104142500D01*
G75*
G02*
X143337500Y-103995000I147500J0D01*
G01*
G37*
%TD*%
D10*
%TO.C,SW2*%
X129565000Y-89540000D03*
X135865000Y-89540000D03*
X129565000Y-93340000D03*
X135865000Y-93340000D03*
%TD*%
%TO.C,SW1*%
X129565000Y-102240000D03*
X135865000Y-102240000D03*
X129565000Y-106040000D03*
X135865000Y-106040000D03*
%TD*%
%TO.C,R8*%
G36*
G01*
X172275000Y-96057500D02*
X172275000Y-95712500D01*
G75*
G02*
X172422500Y-95565000I147500J0D01*
G01*
X172717500Y-95565000D01*
G75*
G02*
X172865000Y-95712500I0J-147500D01*
G01*
X172865000Y-96057500D01*
G75*
G02*
X172717500Y-96205000I-147500J0D01*
G01*
X172422500Y-96205000D01*
G75*
G02*
X172275000Y-96057500I0J147500D01*
G01*
G37*
G36*
G01*
X171305000Y-96057500D02*
X171305000Y-95712500D01*
G75*
G02*
X171452500Y-95565000I147500J0D01*
G01*
X171747500Y-95565000D01*
G75*
G02*
X171895000Y-95712500I0J-147500D01*
G01*
X171895000Y-96057500D01*
G75*
G02*
X171747500Y-96205000I-147500J0D01*
G01*
X171452500Y-96205000D01*
G75*
G02*
X171305000Y-96057500I0J147500D01*
G01*
G37*
%TD*%
%TO.C,R9*%
G36*
G01*
X169990000Y-92537500D02*
X169990000Y-92882500D01*
G75*
G02*
X169842500Y-93030000I-147500J0D01*
G01*
X169547500Y-93030000D01*
G75*
G02*
X169400000Y-92882500I0J147500D01*
G01*
X169400000Y-92537500D01*
G75*
G02*
X169547500Y-92390000I147500J0D01*
G01*
X169842500Y-92390000D01*
G75*
G02*
X169990000Y-92537500I0J-147500D01*
G01*
G37*
G36*
G01*
X170960000Y-92537500D02*
X170960000Y-92882500D01*
G75*
G02*
X170812500Y-93030000I-147500J0D01*
G01*
X170517500Y-93030000D01*
G75*
G02*
X170370000Y-92882500I0J147500D01*
G01*
X170370000Y-92537500D01*
G75*
G02*
X170517500Y-92390000I147500J0D01*
G01*
X170812500Y-92390000D01*
G75*
G02*
X170960000Y-92537500I0J-147500D01*
G01*
G37*
%TD*%
%TO.C,R7*%
G36*
G01*
X172275000Y-101137500D02*
X172275000Y-100792500D01*
G75*
G02*
X172422500Y-100645000I147500J0D01*
G01*
X172717500Y-100645000D01*
G75*
G02*
X172865000Y-100792500I0J-147500D01*
G01*
X172865000Y-101137500D01*
G75*
G02*
X172717500Y-101285000I-147500J0D01*
G01*
X172422500Y-101285000D01*
G75*
G02*
X172275000Y-101137500I0J147500D01*
G01*
G37*
G36*
G01*
X171305000Y-101137500D02*
X171305000Y-100792500D01*
G75*
G02*
X171452500Y-100645000I147500J0D01*
G01*
X171747500Y-100645000D01*
G75*
G02*
X171895000Y-100792500I0J-147500D01*
G01*
X171895000Y-101137500D01*
G75*
G02*
X171747500Y-101285000I-147500J0D01*
G01*
X171452500Y-101285000D01*
G75*
G02*
X171305000Y-101137500I0J147500D01*
G01*
G37*
%TD*%
%TO.C,R6*%
G36*
G01*
X169990000Y-90632500D02*
X169990000Y-90977500D01*
G75*
G02*
X169842500Y-91125000I-147500J0D01*
G01*
X169547500Y-91125000D01*
G75*
G02*
X169400000Y-90977500I0J147500D01*
G01*
X169400000Y-90632500D01*
G75*
G02*
X169547500Y-90485000I147500J0D01*
G01*
X169842500Y-90485000D01*
G75*
G02*
X169990000Y-90632500I0J-147500D01*
G01*
G37*
G36*
G01*
X170960000Y-90632500D02*
X170960000Y-90977500D01*
G75*
G02*
X170812500Y-91125000I-147500J0D01*
G01*
X170517500Y-91125000D01*
G75*
G02*
X170370000Y-90977500I0J147500D01*
G01*
X170370000Y-90632500D01*
G75*
G02*
X170517500Y-90485000I147500J0D01*
G01*
X170812500Y-90485000D01*
G75*
G02*
X170960000Y-90632500I0J-147500D01*
G01*
G37*
%TD*%
%TO.C,R4*%
G36*
G01*
X172275000Y-99867500D02*
X172275000Y-99522500D01*
G75*
G02*
X172422500Y-99375000I147500J0D01*
G01*
X172717500Y-99375000D01*
G75*
G02*
X172865000Y-99522500I0J-147500D01*
G01*
X172865000Y-99867500D01*
G75*
G02*
X172717500Y-100015000I-147500J0D01*
G01*
X172422500Y-100015000D01*
G75*
G02*
X172275000Y-99867500I0J147500D01*
G01*
G37*
G36*
G01*
X171305000Y-99867500D02*
X171305000Y-99522500D01*
G75*
G02*
X171452500Y-99375000I147500J0D01*
G01*
X171747500Y-99375000D01*
G75*
G02*
X171895000Y-99522500I0J-147500D01*
G01*
X171895000Y-99867500D01*
G75*
G02*
X171747500Y-100015000I-147500J0D01*
G01*
X171452500Y-100015000D01*
G75*
G02*
X171305000Y-99867500I0J147500D01*
G01*
G37*
%TD*%
%TO.C,R3*%
G36*
G01*
X172275000Y-98597500D02*
X172275000Y-98252500D01*
G75*
G02*
X172422500Y-98105000I147500J0D01*
G01*
X172717500Y-98105000D01*
G75*
G02*
X172865000Y-98252500I0J-147500D01*
G01*
X172865000Y-98597500D01*
G75*
G02*
X172717500Y-98745000I-147500J0D01*
G01*
X172422500Y-98745000D01*
G75*
G02*
X172275000Y-98597500I0J147500D01*
G01*
G37*
G36*
G01*
X171305000Y-98597500D02*
X171305000Y-98252500D01*
G75*
G02*
X171452500Y-98105000I147500J0D01*
G01*
X171747500Y-98105000D01*
G75*
G02*
X171895000Y-98252500I0J-147500D01*
G01*
X171895000Y-98597500D01*
G75*
G02*
X171747500Y-98745000I-147500J0D01*
G01*
X171452500Y-98745000D01*
G75*
G02*
X171305000Y-98597500I0J147500D01*
G01*
G37*
%TD*%
%TO.C,R2*%
G36*
G01*
X172275000Y-97327500D02*
X172275000Y-96982500D01*
G75*
G02*
X172422500Y-96835000I147500J0D01*
G01*
X172717500Y-96835000D01*
G75*
G02*
X172865000Y-96982500I0J-147500D01*
G01*
X172865000Y-97327500D01*
G75*
G02*
X172717500Y-97475000I-147500J0D01*
G01*
X172422500Y-97475000D01*
G75*
G02*
X172275000Y-97327500I0J147500D01*
G01*
G37*
G36*
G01*
X171305000Y-97327500D02*
X171305000Y-96982500D01*
G75*
G02*
X171452500Y-96835000I147500J0D01*
G01*
X171747500Y-96835000D01*
G75*
G02*
X171895000Y-96982500I0J-147500D01*
G01*
X171895000Y-97327500D01*
G75*
G02*
X171747500Y-97475000I-147500J0D01*
G01*
X171452500Y-97475000D01*
G75*
G02*
X171305000Y-97327500I0J147500D01*
G01*
G37*
%TD*%
%TO.C,R5*%
G36*
G01*
X126175000Y-91902500D02*
X126175000Y-92247500D01*
G75*
G02*
X126027500Y-92395000I-147500J0D01*
G01*
X125732500Y-92395000D01*
G75*
G02*
X125585000Y-92247500I0J147500D01*
G01*
X125585000Y-91902500D01*
G75*
G02*
X125732500Y-91755000I147500J0D01*
G01*
X126027500Y-91755000D01*
G75*
G02*
X126175000Y-91902500I0J-147500D01*
G01*
G37*
G36*
G01*
X127145000Y-91902500D02*
X127145000Y-92247500D01*
G75*
G02*
X126997500Y-92395000I-147500J0D01*
G01*
X126702500Y-92395000D01*
G75*
G02*
X126555000Y-92247500I0J147500D01*
G01*
X126555000Y-91902500D01*
G75*
G02*
X126702500Y-91755000I147500J0D01*
G01*
X126997500Y-91755000D01*
G75*
G02*
X127145000Y-91902500I0J-147500D01*
G01*
G37*
%TD*%
%TO.C,R1*%
G36*
G01*
X126555000Y-104312500D02*
X126555000Y-103967500D01*
G75*
G02*
X126702500Y-103820000I147500J0D01*
G01*
X126997500Y-103820000D01*
G75*
G02*
X127145000Y-103967500I0J-147500D01*
G01*
X127145000Y-104312500D01*
G75*
G02*
X126997500Y-104460000I-147500J0D01*
G01*
X126702500Y-104460000D01*
G75*
G02*
X126555000Y-104312500I0J147500D01*
G01*
G37*
G36*
G01*
X125585000Y-104312500D02*
X125585000Y-103967500D01*
G75*
G02*
X125732500Y-103820000I147500J0D01*
G01*
X126027500Y-103820000D01*
G75*
G02*
X126175000Y-103967500I0J-147500D01*
G01*
X126175000Y-104312500D01*
G75*
G02*
X126027500Y-104460000I-147500J0D01*
G01*
X125732500Y-104460000D01*
G75*
G02*
X125585000Y-104312500I0J147500D01*
G01*
G37*
%TD*%
%TO.C,D4*%
G36*
G01*
X173070000Y-92966250D02*
X173070000Y-92453750D01*
G75*
G02*
X173288750Y-92235000I218750J0D01*
G01*
X173726250Y-92235000D01*
G75*
G02*
X173945000Y-92453750I0J-218750D01*
G01*
X173945000Y-92966250D01*
G75*
G02*
X173726250Y-93185000I-218750J0D01*
G01*
X173288750Y-93185000D01*
G75*
G02*
X173070000Y-92966250I0J218750D01*
G01*
G37*
G36*
G01*
X171495000Y-92966250D02*
X171495000Y-92453750D01*
G75*
G02*
X171713750Y-92235000I218750J0D01*
G01*
X172151250Y-92235000D01*
G75*
G02*
X172370000Y-92453750I0J-218750D01*
G01*
X172370000Y-92966250D01*
G75*
G02*
X172151250Y-93185000I-218750J0D01*
G01*
X171713750Y-93185000D01*
G75*
G02*
X171495000Y-92966250I0J218750D01*
G01*
G37*
%TD*%
D11*
%TO.C,D2*%
X167640000Y-100075000D03*
X167640000Y-96775000D03*
%TD*%
%TO.C,D3*%
G36*
G01*
X173070000Y-91061250D02*
X173070000Y-90548750D01*
G75*
G02*
X173288750Y-90330000I218750J0D01*
G01*
X173726250Y-90330000D01*
G75*
G02*
X173945000Y-90548750I0J-218750D01*
G01*
X173945000Y-91061250D01*
G75*
G02*
X173726250Y-91280000I-218750J0D01*
G01*
X173288750Y-91280000D01*
G75*
G02*
X173070000Y-91061250I0J218750D01*
G01*
G37*
G36*
G01*
X171495000Y-91061250D02*
X171495000Y-90548750D01*
G75*
G02*
X171713750Y-90330000I218750J0D01*
G01*
X172151250Y-90330000D01*
G75*
G02*
X172370000Y-90548750I0J-218750D01*
G01*
X172370000Y-91061250D01*
G75*
G02*
X172151250Y-91280000I-218750J0D01*
G01*
X171713750Y-91280000D01*
G75*
G02*
X171495000Y-91061250I0J218750D01*
G01*
G37*
%TD*%
%TO.C,C2*%
G36*
G01*
X126175000Y-102697500D02*
X126175000Y-103042500D01*
G75*
G02*
X126027500Y-103190000I-147500J0D01*
G01*
X125732500Y-103190000D01*
G75*
G02*
X125585000Y-103042500I0J147500D01*
G01*
X125585000Y-102697500D01*
G75*
G02*
X125732500Y-102550000I147500J0D01*
G01*
X126027500Y-102550000D01*
G75*
G02*
X126175000Y-102697500I0J-147500D01*
G01*
G37*
G36*
G01*
X127145000Y-102697500D02*
X127145000Y-103042500D01*
G75*
G02*
X126997500Y-103190000I-147500J0D01*
G01*
X126702500Y-103190000D01*
G75*
G02*
X126555000Y-103042500I0J147500D01*
G01*
X126555000Y-102697500D01*
G75*
G02*
X126702500Y-102550000I147500J0D01*
G01*
X126997500Y-102550000D01*
G75*
G02*
X127145000Y-102697500I0J-147500D01*
G01*
G37*
%TD*%
%TO.C,C4*%
G36*
G01*
X144607500Y-104965000D02*
X144952500Y-104965000D01*
G75*
G02*
X145100000Y-105112500I0J-147500D01*
G01*
X145100000Y-105407500D01*
G75*
G02*
X144952500Y-105555000I-147500J0D01*
G01*
X144607500Y-105555000D01*
G75*
G02*
X144460000Y-105407500I0J147500D01*
G01*
X144460000Y-105112500D01*
G75*
G02*
X144607500Y-104965000I147500J0D01*
G01*
G37*
G36*
G01*
X144607500Y-103995000D02*
X144952500Y-103995000D01*
G75*
G02*
X145100000Y-104142500I0J-147500D01*
G01*
X145100000Y-104437500D01*
G75*
G02*
X144952500Y-104585000I-147500J0D01*
G01*
X144607500Y-104585000D01*
G75*
G02*
X144460000Y-104437500I0J147500D01*
G01*
X144460000Y-104142500D01*
G75*
G02*
X144607500Y-103995000I147500J0D01*
G01*
G37*
%TD*%
D12*
%TO.C,Y1*%
X139065000Y-101110000D03*
X139065000Y-97010000D03*
%TD*%
D13*
%TO.C,U1*%
X164830000Y-99695000D03*
X162830000Y-100645000D03*
X162830000Y-98745000D03*
%TD*%
%TO.C,C11*%
G36*
G01*
X138875000Y-102697500D02*
X138875000Y-103042500D01*
G75*
G02*
X138727500Y-103190000I-147500J0D01*
G01*
X138432500Y-103190000D01*
G75*
G02*
X138285000Y-103042500I0J147500D01*
G01*
X138285000Y-102697500D01*
G75*
G02*
X138432500Y-102550000I147500J0D01*
G01*
X138727500Y-102550000D01*
G75*
G02*
X138875000Y-102697500I0J-147500D01*
G01*
G37*
G36*
G01*
X139845000Y-102697500D02*
X139845000Y-103042500D01*
G75*
G02*
X139697500Y-103190000I-147500J0D01*
G01*
X139402500Y-103190000D01*
G75*
G02*
X139255000Y-103042500I0J147500D01*
G01*
X139255000Y-102697500D01*
G75*
G02*
X139402500Y-102550000I147500J0D01*
G01*
X139697500Y-102550000D01*
G75*
G02*
X139845000Y-102697500I0J-147500D01*
G01*
G37*
%TD*%
%TO.C,C10*%
G36*
G01*
X139405000Y-95422500D02*
X139405000Y-95077500D01*
G75*
G02*
X139552500Y-94930000I147500J0D01*
G01*
X139847500Y-94930000D01*
G75*
G02*
X139995000Y-95077500I0J-147500D01*
G01*
X139995000Y-95422500D01*
G75*
G02*
X139847500Y-95570000I-147500J0D01*
G01*
X139552500Y-95570000D01*
G75*
G02*
X139405000Y-95422500I0J147500D01*
G01*
G37*
G36*
G01*
X138435000Y-95422500D02*
X138435000Y-95077500D01*
G75*
G02*
X138582500Y-94930000I147500J0D01*
G01*
X138877500Y-94930000D01*
G75*
G02*
X139025000Y-95077500I0J-147500D01*
G01*
X139025000Y-95422500D01*
G75*
G02*
X138877500Y-95570000I-147500J0D01*
G01*
X138582500Y-95570000D01*
G75*
G02*
X138435000Y-95422500I0J147500D01*
G01*
G37*
%TD*%
%TO.C,C8*%
G36*
G01*
X154495000Y-105582500D02*
X154495000Y-105237500D01*
G75*
G02*
X154642500Y-105090000I147500J0D01*
G01*
X154937500Y-105090000D01*
G75*
G02*
X155085000Y-105237500I0J-147500D01*
G01*
X155085000Y-105582500D01*
G75*
G02*
X154937500Y-105730000I-147500J0D01*
G01*
X154642500Y-105730000D01*
G75*
G02*
X154495000Y-105582500I0J147500D01*
G01*
G37*
G36*
G01*
X153525000Y-105582500D02*
X153525000Y-105237500D01*
G75*
G02*
X153672500Y-105090000I147500J0D01*
G01*
X153967500Y-105090000D01*
G75*
G02*
X154115000Y-105237500I0J-147500D01*
G01*
X154115000Y-105582500D01*
G75*
G02*
X153967500Y-105730000I-147500J0D01*
G01*
X153672500Y-105730000D01*
G75*
G02*
X153525000Y-105582500I0J147500D01*
G01*
G37*
%TD*%
%TO.C,C7*%
G36*
G01*
X142067500Y-97980000D02*
X142412500Y-97980000D01*
G75*
G02*
X142560000Y-98127500I0J-147500D01*
G01*
X142560000Y-98422500D01*
G75*
G02*
X142412500Y-98570000I-147500J0D01*
G01*
X142067500Y-98570000D01*
G75*
G02*
X141920000Y-98422500I0J147500D01*
G01*
X141920000Y-98127500D01*
G75*
G02*
X142067500Y-97980000I147500J0D01*
G01*
G37*
G36*
G01*
X142067500Y-97010000D02*
X142412500Y-97010000D01*
G75*
G02*
X142560000Y-97157500I0J-147500D01*
G01*
X142560000Y-97452500D01*
G75*
G02*
X142412500Y-97600000I-147500J0D01*
G01*
X142067500Y-97600000D01*
G75*
G02*
X141920000Y-97452500I0J147500D01*
G01*
X141920000Y-97157500D01*
G75*
G02*
X142067500Y-97010000I147500J0D01*
G01*
G37*
%TD*%
%TO.C,C6*%
G36*
G01*
X150305000Y-89362500D02*
X150305000Y-89707500D01*
G75*
G02*
X150157500Y-89855000I-147500J0D01*
G01*
X149862500Y-89855000D01*
G75*
G02*
X149715000Y-89707500I0J147500D01*
G01*
X149715000Y-89362500D01*
G75*
G02*
X149862500Y-89215000I147500J0D01*
G01*
X150157500Y-89215000D01*
G75*
G02*
X150305000Y-89362500I0J-147500D01*
G01*
G37*
G36*
G01*
X151275000Y-89362500D02*
X151275000Y-89707500D01*
G75*
G02*
X151127500Y-89855000I-147500J0D01*
G01*
X150832500Y-89855000D01*
G75*
G02*
X150685000Y-89707500I0J147500D01*
G01*
X150685000Y-89362500D01*
G75*
G02*
X150832500Y-89215000I147500J0D01*
G01*
X151127500Y-89215000D01*
G75*
G02*
X151275000Y-89362500I0J-147500D01*
G01*
G37*
%TD*%
D14*
%TO.C,D1*%
X130265000Y-96190000D03*
X130265000Y-99390000D03*
X135165000Y-96190000D03*
X135165000Y-99390000D03*
%TD*%
%TO.C,C5*%
G36*
G01*
X158940000Y-97327500D02*
X158940000Y-96982500D01*
G75*
G02*
X159087500Y-96835000I147500J0D01*
G01*
X159382500Y-96835000D01*
G75*
G02*
X159530000Y-96982500I0J-147500D01*
G01*
X159530000Y-97327500D01*
G75*
G02*
X159382500Y-97475000I-147500J0D01*
G01*
X159087500Y-97475000D01*
G75*
G02*
X158940000Y-97327500I0J147500D01*
G01*
G37*
G36*
G01*
X157970000Y-97327500D02*
X157970000Y-96982500D01*
G75*
G02*
X158117500Y-96835000I147500J0D01*
G01*
X158412500Y-96835000D01*
G75*
G02*
X158560000Y-96982500I0J-147500D01*
G01*
X158560000Y-97327500D01*
G75*
G02*
X158412500Y-97475000I-147500J0D01*
G01*
X158117500Y-97475000D01*
G75*
G02*
X157970000Y-97327500I0J147500D01*
G01*
G37*
%TD*%
%TO.C,C3*%
G36*
G01*
X164280000Y-103326250D02*
X164280000Y-102413750D01*
G75*
G02*
X164523750Y-102170000I243750J0D01*
G01*
X165011250Y-102170000D01*
G75*
G02*
X165255000Y-102413750I0J-243750D01*
G01*
X165255000Y-103326250D01*
G75*
G02*
X165011250Y-103570000I-243750J0D01*
G01*
X164523750Y-103570000D01*
G75*
G02*
X164280000Y-103326250I0J243750D01*
G01*
G37*
G36*
G01*
X162405000Y-103326250D02*
X162405000Y-102413750D01*
G75*
G02*
X162648750Y-102170000I243750J0D01*
G01*
X163136250Y-102170000D01*
G75*
G02*
X163380000Y-102413750I0J-243750D01*
G01*
X163380000Y-103326250D01*
G75*
G02*
X163136250Y-103570000I-243750J0D01*
G01*
X162648750Y-103570000D01*
G75*
G02*
X162405000Y-103326250I0J243750D01*
G01*
G37*
%TD*%
%TO.C,C1*%
G36*
G01*
X163380000Y-96063750D02*
X163380000Y-96976250D01*
G75*
G02*
X163136250Y-97220000I-243750J0D01*
G01*
X162648750Y-97220000D01*
G75*
G02*
X162405000Y-96976250I0J243750D01*
G01*
X162405000Y-96063750D01*
G75*
G02*
X162648750Y-95820000I243750J0D01*
G01*
X163136250Y-95820000D01*
G75*
G02*
X163380000Y-96063750I0J-243750D01*
G01*
G37*
G36*
G01*
X165255000Y-96063750D02*
X165255000Y-96976250D01*
G75*
G02*
X165011250Y-97220000I-243750J0D01*
G01*
X164523750Y-97220000D01*
G75*
G02*
X164280000Y-96976250I0J243750D01*
G01*
X164280000Y-96063750D01*
G75*
G02*
X164523750Y-95820000I243750J0D01*
G01*
X165011250Y-95820000D01*
G75*
G02*
X165255000Y-96063750I0J-243750D01*
G01*
G37*
%TD*%
%TO.C,U2*%
G36*
G01*
X144219428Y-97029860D02*
X143229478Y-96039910D01*
G75*
G02*
X143229478Y-95933844I53033J53033D01*
G01*
X143335544Y-95827778D01*
G75*
G02*
X143441610Y-95827778I53033J-53033D01*
G01*
X144431560Y-96817728D01*
G75*
G02*
X144431560Y-96923794I-53033J-53033D01*
G01*
X144325494Y-97029860D01*
G75*
G02*
X144219428Y-97029860I-53033J53033D01*
G01*
G37*
G36*
G01*
X144572981Y-96676307D02*
X143583031Y-95686357D01*
G75*
G02*
X143583031Y-95580291I53033J53033D01*
G01*
X143689097Y-95474225D01*
G75*
G02*
X143795163Y-95474225I53033J-53033D01*
G01*
X144785113Y-96464175D01*
G75*
G02*
X144785113Y-96570241I-53033J-53033D01*
G01*
X144679047Y-96676307D01*
G75*
G02*
X144572981Y-96676307I-53033J53033D01*
G01*
G37*
G36*
G01*
X144926534Y-96322754D02*
X143936584Y-95332804D01*
G75*
G02*
X143936584Y-95226738I53033J53033D01*
G01*
X144042650Y-95120672D01*
G75*
G02*
X144148716Y-95120672I53033J-53033D01*
G01*
X145138666Y-96110622D01*
G75*
G02*
X145138666Y-96216688I-53033J-53033D01*
G01*
X145032600Y-96322754D01*
G75*
G02*
X144926534Y-96322754I-53033J53033D01*
G01*
G37*
G36*
G01*
X145280088Y-95969200D02*
X144290138Y-94979250D01*
G75*
G02*
X144290138Y-94873184I53033J53033D01*
G01*
X144396204Y-94767118D01*
G75*
G02*
X144502270Y-94767118I53033J-53033D01*
G01*
X145492220Y-95757068D01*
G75*
G02*
X145492220Y-95863134I-53033J-53033D01*
G01*
X145386154Y-95969200D01*
G75*
G02*
X145280088Y-95969200I-53033J53033D01*
G01*
G37*
G36*
G01*
X145633641Y-95615647D02*
X144643691Y-94625697D01*
G75*
G02*
X144643691Y-94519631I53033J53033D01*
G01*
X144749757Y-94413565D01*
G75*
G02*
X144855823Y-94413565I53033J-53033D01*
G01*
X145845773Y-95403515D01*
G75*
G02*
X145845773Y-95509581I-53033J-53033D01*
G01*
X145739707Y-95615647D01*
G75*
G02*
X145633641Y-95615647I-53033J53033D01*
G01*
G37*
G36*
G01*
X145987195Y-95262093D02*
X144997245Y-94272143D01*
G75*
G02*
X144997245Y-94166077I53033J53033D01*
G01*
X145103311Y-94060011D01*
G75*
G02*
X145209377Y-94060011I53033J-53033D01*
G01*
X146199327Y-95049961D01*
G75*
G02*
X146199327Y-95156027I-53033J-53033D01*
G01*
X146093261Y-95262093D01*
G75*
G02*
X145987195Y-95262093I-53033J53033D01*
G01*
G37*
G36*
G01*
X146340748Y-94908540D02*
X145350798Y-93918590D01*
G75*
G02*
X145350798Y-93812524I53033J53033D01*
G01*
X145456864Y-93706458D01*
G75*
G02*
X145562930Y-93706458I53033J-53033D01*
G01*
X146552880Y-94696408D01*
G75*
G02*
X146552880Y-94802474I-53033J-53033D01*
G01*
X146446814Y-94908540D01*
G75*
G02*
X146340748Y-94908540I-53033J53033D01*
G01*
G37*
G36*
G01*
X146694301Y-94554987D02*
X145704351Y-93565037D01*
G75*
G02*
X145704351Y-93458971I53033J53033D01*
G01*
X145810417Y-93352905D01*
G75*
G02*
X145916483Y-93352905I53033J-53033D01*
G01*
X146906433Y-94342855D01*
G75*
G02*
X146906433Y-94448921I-53033J-53033D01*
G01*
X146800367Y-94554987D01*
G75*
G02*
X146694301Y-94554987I-53033J53033D01*
G01*
G37*
G36*
G01*
X147047855Y-94201433D02*
X146057905Y-93211483D01*
G75*
G02*
X146057905Y-93105417I53033J53033D01*
G01*
X146163971Y-92999351D01*
G75*
G02*
X146270037Y-92999351I53033J-53033D01*
G01*
X147259987Y-93989301D01*
G75*
G02*
X147259987Y-94095367I-53033J-53033D01*
G01*
X147153921Y-94201433D01*
G75*
G02*
X147047855Y-94201433I-53033J53033D01*
G01*
G37*
G36*
G01*
X147401408Y-93847880D02*
X146411458Y-92857930D01*
G75*
G02*
X146411458Y-92751864I53033J53033D01*
G01*
X146517524Y-92645798D01*
G75*
G02*
X146623590Y-92645798I53033J-53033D01*
G01*
X147613540Y-93635748D01*
G75*
G02*
X147613540Y-93741814I-53033J-53033D01*
G01*
X147507474Y-93847880D01*
G75*
G02*
X147401408Y-93847880I-53033J53033D01*
G01*
G37*
G36*
G01*
X147754961Y-93494327D02*
X146765011Y-92504377D01*
G75*
G02*
X146765011Y-92398311I53033J53033D01*
G01*
X146871077Y-92292245D01*
G75*
G02*
X146977143Y-92292245I53033J-53033D01*
G01*
X147967093Y-93282195D01*
G75*
G02*
X147967093Y-93388261I-53033J-53033D01*
G01*
X147861027Y-93494327D01*
G75*
G02*
X147754961Y-93494327I-53033J53033D01*
G01*
G37*
G36*
G01*
X148108515Y-93140773D02*
X147118565Y-92150823D01*
G75*
G02*
X147118565Y-92044757I53033J53033D01*
G01*
X147224631Y-91938691D01*
G75*
G02*
X147330697Y-91938691I53033J-53033D01*
G01*
X148320647Y-92928641D01*
G75*
G02*
X148320647Y-93034707I-53033J-53033D01*
G01*
X148214581Y-93140773D01*
G75*
G02*
X148108515Y-93140773I-53033J53033D01*
G01*
G37*
G36*
G01*
X148462068Y-92787220D02*
X147472118Y-91797270D01*
G75*
G02*
X147472118Y-91691204I53033J53033D01*
G01*
X147578184Y-91585138D01*
G75*
G02*
X147684250Y-91585138I53033J-53033D01*
G01*
X148674200Y-92575088D01*
G75*
G02*
X148674200Y-92681154I-53033J-53033D01*
G01*
X148568134Y-92787220D01*
G75*
G02*
X148462068Y-92787220I-53033J53033D01*
G01*
G37*
G36*
G01*
X148815622Y-92433666D02*
X147825672Y-91443716D01*
G75*
G02*
X147825672Y-91337650I53033J53033D01*
G01*
X147931738Y-91231584D01*
G75*
G02*
X148037804Y-91231584I53033J-53033D01*
G01*
X149027754Y-92221534D01*
G75*
G02*
X149027754Y-92327600I-53033J-53033D01*
G01*
X148921688Y-92433666D01*
G75*
G02*
X148815622Y-92433666I-53033J53033D01*
G01*
G37*
G36*
G01*
X149169175Y-92080113D02*
X148179225Y-91090163D01*
G75*
G02*
X148179225Y-90984097I53033J53033D01*
G01*
X148285291Y-90878031D01*
G75*
G02*
X148391357Y-90878031I53033J-53033D01*
G01*
X149381307Y-91867981D01*
G75*
G02*
X149381307Y-91974047I-53033J-53033D01*
G01*
X149275241Y-92080113D01*
G75*
G02*
X149169175Y-92080113I-53033J53033D01*
G01*
G37*
G36*
G01*
X149522728Y-91726560D02*
X148532778Y-90736610D01*
G75*
G02*
X148532778Y-90630544I53033J53033D01*
G01*
X148638844Y-90524478D01*
G75*
G02*
X148744910Y-90524478I53033J-53033D01*
G01*
X149734860Y-91514428D01*
G75*
G02*
X149734860Y-91620494I-53033J-53033D01*
G01*
X149628794Y-91726560D01*
G75*
G02*
X149522728Y-91726560I-53033J53033D01*
G01*
G37*
G36*
G01*
X151361206Y-91726560D02*
X151255140Y-91620494D01*
G75*
G02*
X151255140Y-91514428I53033J53033D01*
G01*
X152245090Y-90524478D01*
G75*
G02*
X152351156Y-90524478I53033J-53033D01*
G01*
X152457222Y-90630544D01*
G75*
G02*
X152457222Y-90736610I-53033J-53033D01*
G01*
X151467272Y-91726560D01*
G75*
G02*
X151361206Y-91726560I-53033J53033D01*
G01*
G37*
G36*
G01*
X151714759Y-92080113D02*
X151608693Y-91974047D01*
G75*
G02*
X151608693Y-91867981I53033J53033D01*
G01*
X152598643Y-90878031D01*
G75*
G02*
X152704709Y-90878031I53033J-53033D01*
G01*
X152810775Y-90984097D01*
G75*
G02*
X152810775Y-91090163I-53033J-53033D01*
G01*
X151820825Y-92080113D01*
G75*
G02*
X151714759Y-92080113I-53033J53033D01*
G01*
G37*
G36*
G01*
X152068312Y-92433666D02*
X151962246Y-92327600D01*
G75*
G02*
X151962246Y-92221534I53033J53033D01*
G01*
X152952196Y-91231584D01*
G75*
G02*
X153058262Y-91231584I53033J-53033D01*
G01*
X153164328Y-91337650D01*
G75*
G02*
X153164328Y-91443716I-53033J-53033D01*
G01*
X152174378Y-92433666D01*
G75*
G02*
X152068312Y-92433666I-53033J53033D01*
G01*
G37*
G36*
G01*
X152421866Y-92787220D02*
X152315800Y-92681154D01*
G75*
G02*
X152315800Y-92575088I53033J53033D01*
G01*
X153305750Y-91585138D01*
G75*
G02*
X153411816Y-91585138I53033J-53033D01*
G01*
X153517882Y-91691204D01*
G75*
G02*
X153517882Y-91797270I-53033J-53033D01*
G01*
X152527932Y-92787220D01*
G75*
G02*
X152421866Y-92787220I-53033J53033D01*
G01*
G37*
G36*
G01*
X152775419Y-93140773D02*
X152669353Y-93034707D01*
G75*
G02*
X152669353Y-92928641I53033J53033D01*
G01*
X153659303Y-91938691D01*
G75*
G02*
X153765369Y-91938691I53033J-53033D01*
G01*
X153871435Y-92044757D01*
G75*
G02*
X153871435Y-92150823I-53033J-53033D01*
G01*
X152881485Y-93140773D01*
G75*
G02*
X152775419Y-93140773I-53033J53033D01*
G01*
G37*
G36*
G01*
X153128973Y-93494327D02*
X153022907Y-93388261D01*
G75*
G02*
X153022907Y-93282195I53033J53033D01*
G01*
X154012857Y-92292245D01*
G75*
G02*
X154118923Y-92292245I53033J-53033D01*
G01*
X154224989Y-92398311D01*
G75*
G02*
X154224989Y-92504377I-53033J-53033D01*
G01*
X153235039Y-93494327D01*
G75*
G02*
X153128973Y-93494327I-53033J53033D01*
G01*
G37*
G36*
G01*
X153482526Y-93847880D02*
X153376460Y-93741814D01*
G75*
G02*
X153376460Y-93635748I53033J53033D01*
G01*
X154366410Y-92645798D01*
G75*
G02*
X154472476Y-92645798I53033J-53033D01*
G01*
X154578542Y-92751864D01*
G75*
G02*
X154578542Y-92857930I-53033J-53033D01*
G01*
X153588592Y-93847880D01*
G75*
G02*
X153482526Y-93847880I-53033J53033D01*
G01*
G37*
G36*
G01*
X153836079Y-94201433D02*
X153730013Y-94095367D01*
G75*
G02*
X153730013Y-93989301I53033J53033D01*
G01*
X154719963Y-92999351D01*
G75*
G02*
X154826029Y-92999351I53033J-53033D01*
G01*
X154932095Y-93105417D01*
G75*
G02*
X154932095Y-93211483I-53033J-53033D01*
G01*
X153942145Y-94201433D01*
G75*
G02*
X153836079Y-94201433I-53033J53033D01*
G01*
G37*
G36*
G01*
X154189633Y-94554987D02*
X154083567Y-94448921D01*
G75*
G02*
X154083567Y-94342855I53033J53033D01*
G01*
X155073517Y-93352905D01*
G75*
G02*
X155179583Y-93352905I53033J-53033D01*
G01*
X155285649Y-93458971D01*
G75*
G02*
X155285649Y-93565037I-53033J-53033D01*
G01*
X154295699Y-94554987D01*
G75*
G02*
X154189633Y-94554987I-53033J53033D01*
G01*
G37*
G36*
G01*
X154543186Y-94908540D02*
X154437120Y-94802474D01*
G75*
G02*
X154437120Y-94696408I53033J53033D01*
G01*
X155427070Y-93706458D01*
G75*
G02*
X155533136Y-93706458I53033J-53033D01*
G01*
X155639202Y-93812524D01*
G75*
G02*
X155639202Y-93918590I-53033J-53033D01*
G01*
X154649252Y-94908540D01*
G75*
G02*
X154543186Y-94908540I-53033J53033D01*
G01*
G37*
G36*
G01*
X154896739Y-95262093D02*
X154790673Y-95156027D01*
G75*
G02*
X154790673Y-95049961I53033J53033D01*
G01*
X155780623Y-94060011D01*
G75*
G02*
X155886689Y-94060011I53033J-53033D01*
G01*
X155992755Y-94166077D01*
G75*
G02*
X155992755Y-94272143I-53033J-53033D01*
G01*
X155002805Y-95262093D01*
G75*
G02*
X154896739Y-95262093I-53033J53033D01*
G01*
G37*
G36*
G01*
X155250293Y-95615647D02*
X155144227Y-95509581D01*
G75*
G02*
X155144227Y-95403515I53033J53033D01*
G01*
X156134177Y-94413565D01*
G75*
G02*
X156240243Y-94413565I53033J-53033D01*
G01*
X156346309Y-94519631D01*
G75*
G02*
X156346309Y-94625697I-53033J-53033D01*
G01*
X155356359Y-95615647D01*
G75*
G02*
X155250293Y-95615647I-53033J53033D01*
G01*
G37*
G36*
G01*
X155603846Y-95969200D02*
X155497780Y-95863134D01*
G75*
G02*
X155497780Y-95757068I53033J53033D01*
G01*
X156487730Y-94767118D01*
G75*
G02*
X156593796Y-94767118I53033J-53033D01*
G01*
X156699862Y-94873184D01*
G75*
G02*
X156699862Y-94979250I-53033J-53033D01*
G01*
X155709912Y-95969200D01*
G75*
G02*
X155603846Y-95969200I-53033J53033D01*
G01*
G37*
G36*
G01*
X155957400Y-96322754D02*
X155851334Y-96216688D01*
G75*
G02*
X155851334Y-96110622I53033J53033D01*
G01*
X156841284Y-95120672D01*
G75*
G02*
X156947350Y-95120672I53033J-53033D01*
G01*
X157053416Y-95226738D01*
G75*
G02*
X157053416Y-95332804I-53033J-53033D01*
G01*
X156063466Y-96322754D01*
G75*
G02*
X155957400Y-96322754I-53033J53033D01*
G01*
G37*
G36*
G01*
X156310953Y-96676307D02*
X156204887Y-96570241D01*
G75*
G02*
X156204887Y-96464175I53033J53033D01*
G01*
X157194837Y-95474225D01*
G75*
G02*
X157300903Y-95474225I53033J-53033D01*
G01*
X157406969Y-95580291D01*
G75*
G02*
X157406969Y-95686357I-53033J-53033D01*
G01*
X156417019Y-96676307D01*
G75*
G02*
X156310953Y-96676307I-53033J53033D01*
G01*
G37*
G36*
G01*
X156664506Y-97029860D02*
X156558440Y-96923794D01*
G75*
G02*
X156558440Y-96817728I53033J53033D01*
G01*
X157548390Y-95827778D01*
G75*
G02*
X157654456Y-95827778I53033J-53033D01*
G01*
X157760522Y-95933844D01*
G75*
G02*
X157760522Y-96039910I-53033J-53033D01*
G01*
X156770572Y-97029860D01*
G75*
G02*
X156664506Y-97029860I-53033J53033D01*
G01*
G37*
G36*
G01*
X157548390Y-99752222D02*
X156558440Y-98762272D01*
G75*
G02*
X156558440Y-98656206I53033J53033D01*
G01*
X156664506Y-98550140D01*
G75*
G02*
X156770572Y-98550140I53033J-53033D01*
G01*
X157760522Y-99540090D01*
G75*
G02*
X157760522Y-99646156I-53033J-53033D01*
G01*
X157654456Y-99752222D01*
G75*
G02*
X157548390Y-99752222I-53033J53033D01*
G01*
G37*
G36*
G01*
X157194837Y-100105775D02*
X156204887Y-99115825D01*
G75*
G02*
X156204887Y-99009759I53033J53033D01*
G01*
X156310953Y-98903693D01*
G75*
G02*
X156417019Y-98903693I53033J-53033D01*
G01*
X157406969Y-99893643D01*
G75*
G02*
X157406969Y-99999709I-53033J-53033D01*
G01*
X157300903Y-100105775D01*
G75*
G02*
X157194837Y-100105775I-53033J53033D01*
G01*
G37*
G36*
G01*
X156841284Y-100459328D02*
X155851334Y-99469378D01*
G75*
G02*
X155851334Y-99363312I53033J53033D01*
G01*
X155957400Y-99257246D01*
G75*
G02*
X156063466Y-99257246I53033J-53033D01*
G01*
X157053416Y-100247196D01*
G75*
G02*
X157053416Y-100353262I-53033J-53033D01*
G01*
X156947350Y-100459328D01*
G75*
G02*
X156841284Y-100459328I-53033J53033D01*
G01*
G37*
G36*
G01*
X156487730Y-100812882D02*
X155497780Y-99822932D01*
G75*
G02*
X155497780Y-99716866I53033J53033D01*
G01*
X155603846Y-99610800D01*
G75*
G02*
X155709912Y-99610800I53033J-53033D01*
G01*
X156699862Y-100600750D01*
G75*
G02*
X156699862Y-100706816I-53033J-53033D01*
G01*
X156593796Y-100812882D01*
G75*
G02*
X156487730Y-100812882I-53033J53033D01*
G01*
G37*
G36*
G01*
X156134177Y-101166435D02*
X155144227Y-100176485D01*
G75*
G02*
X155144227Y-100070419I53033J53033D01*
G01*
X155250293Y-99964353D01*
G75*
G02*
X155356359Y-99964353I53033J-53033D01*
G01*
X156346309Y-100954303D01*
G75*
G02*
X156346309Y-101060369I-53033J-53033D01*
G01*
X156240243Y-101166435D01*
G75*
G02*
X156134177Y-101166435I-53033J53033D01*
G01*
G37*
G36*
G01*
X155780623Y-101519989D02*
X154790673Y-100530039D01*
G75*
G02*
X154790673Y-100423973I53033J53033D01*
G01*
X154896739Y-100317907D01*
G75*
G02*
X155002805Y-100317907I53033J-53033D01*
G01*
X155992755Y-101307857D01*
G75*
G02*
X155992755Y-101413923I-53033J-53033D01*
G01*
X155886689Y-101519989D01*
G75*
G02*
X155780623Y-101519989I-53033J53033D01*
G01*
G37*
G36*
G01*
X155427070Y-101873542D02*
X154437120Y-100883592D01*
G75*
G02*
X154437120Y-100777526I53033J53033D01*
G01*
X154543186Y-100671460D01*
G75*
G02*
X154649252Y-100671460I53033J-53033D01*
G01*
X155639202Y-101661410D01*
G75*
G02*
X155639202Y-101767476I-53033J-53033D01*
G01*
X155533136Y-101873542D01*
G75*
G02*
X155427070Y-101873542I-53033J53033D01*
G01*
G37*
G36*
G01*
X155073517Y-102227095D02*
X154083567Y-101237145D01*
G75*
G02*
X154083567Y-101131079I53033J53033D01*
G01*
X154189633Y-101025013D01*
G75*
G02*
X154295699Y-101025013I53033J-53033D01*
G01*
X155285649Y-102014963D01*
G75*
G02*
X155285649Y-102121029I-53033J-53033D01*
G01*
X155179583Y-102227095D01*
G75*
G02*
X155073517Y-102227095I-53033J53033D01*
G01*
G37*
G36*
G01*
X154719963Y-102580649D02*
X153730013Y-101590699D01*
G75*
G02*
X153730013Y-101484633I53033J53033D01*
G01*
X153836079Y-101378567D01*
G75*
G02*
X153942145Y-101378567I53033J-53033D01*
G01*
X154932095Y-102368517D01*
G75*
G02*
X154932095Y-102474583I-53033J-53033D01*
G01*
X154826029Y-102580649D01*
G75*
G02*
X154719963Y-102580649I-53033J53033D01*
G01*
G37*
G36*
G01*
X154366410Y-102934202D02*
X153376460Y-101944252D01*
G75*
G02*
X153376460Y-101838186I53033J53033D01*
G01*
X153482526Y-101732120D01*
G75*
G02*
X153588592Y-101732120I53033J-53033D01*
G01*
X154578542Y-102722070D01*
G75*
G02*
X154578542Y-102828136I-53033J-53033D01*
G01*
X154472476Y-102934202D01*
G75*
G02*
X154366410Y-102934202I-53033J53033D01*
G01*
G37*
G36*
G01*
X154012857Y-103287755D02*
X153022907Y-102297805D01*
G75*
G02*
X153022907Y-102191739I53033J53033D01*
G01*
X153128973Y-102085673D01*
G75*
G02*
X153235039Y-102085673I53033J-53033D01*
G01*
X154224989Y-103075623D01*
G75*
G02*
X154224989Y-103181689I-53033J-53033D01*
G01*
X154118923Y-103287755D01*
G75*
G02*
X154012857Y-103287755I-53033J53033D01*
G01*
G37*
G36*
G01*
X153659303Y-103641309D02*
X152669353Y-102651359D01*
G75*
G02*
X152669353Y-102545293I53033J53033D01*
G01*
X152775419Y-102439227D01*
G75*
G02*
X152881485Y-102439227I53033J-53033D01*
G01*
X153871435Y-103429177D01*
G75*
G02*
X153871435Y-103535243I-53033J-53033D01*
G01*
X153765369Y-103641309D01*
G75*
G02*
X153659303Y-103641309I-53033J53033D01*
G01*
G37*
G36*
G01*
X153305750Y-103994862D02*
X152315800Y-103004912D01*
G75*
G02*
X152315800Y-102898846I53033J53033D01*
G01*
X152421866Y-102792780D01*
G75*
G02*
X152527932Y-102792780I53033J-53033D01*
G01*
X153517882Y-103782730D01*
G75*
G02*
X153517882Y-103888796I-53033J-53033D01*
G01*
X153411816Y-103994862D01*
G75*
G02*
X153305750Y-103994862I-53033J53033D01*
G01*
G37*
G36*
G01*
X152952196Y-104348416D02*
X151962246Y-103358466D01*
G75*
G02*
X151962246Y-103252400I53033J53033D01*
G01*
X152068312Y-103146334D01*
G75*
G02*
X152174378Y-103146334I53033J-53033D01*
G01*
X153164328Y-104136284D01*
G75*
G02*
X153164328Y-104242350I-53033J-53033D01*
G01*
X153058262Y-104348416D01*
G75*
G02*
X152952196Y-104348416I-53033J53033D01*
G01*
G37*
G36*
G01*
X152598643Y-104701969D02*
X151608693Y-103712019D01*
G75*
G02*
X151608693Y-103605953I53033J53033D01*
G01*
X151714759Y-103499887D01*
G75*
G02*
X151820825Y-103499887I53033J-53033D01*
G01*
X152810775Y-104489837D01*
G75*
G02*
X152810775Y-104595903I-53033J-53033D01*
G01*
X152704709Y-104701969D01*
G75*
G02*
X152598643Y-104701969I-53033J53033D01*
G01*
G37*
G36*
G01*
X152245090Y-105055522D02*
X151255140Y-104065572D01*
G75*
G02*
X151255140Y-103959506I53033J53033D01*
G01*
X151361206Y-103853440D01*
G75*
G02*
X151467272Y-103853440I53033J-53033D01*
G01*
X152457222Y-104843390D01*
G75*
G02*
X152457222Y-104949456I-53033J-53033D01*
G01*
X152351156Y-105055522D01*
G75*
G02*
X152245090Y-105055522I-53033J53033D01*
G01*
G37*
G36*
G01*
X148638844Y-105055522D02*
X148532778Y-104949456D01*
G75*
G02*
X148532778Y-104843390I53033J53033D01*
G01*
X149522728Y-103853440D01*
G75*
G02*
X149628794Y-103853440I53033J-53033D01*
G01*
X149734860Y-103959506D01*
G75*
G02*
X149734860Y-104065572I-53033J-53033D01*
G01*
X148744910Y-105055522D01*
G75*
G02*
X148638844Y-105055522I-53033J53033D01*
G01*
G37*
G36*
G01*
X148285291Y-104701969D02*
X148179225Y-104595903D01*
G75*
G02*
X148179225Y-104489837I53033J53033D01*
G01*
X149169175Y-103499887D01*
G75*
G02*
X149275241Y-103499887I53033J-53033D01*
G01*
X149381307Y-103605953D01*
G75*
G02*
X149381307Y-103712019I-53033J-53033D01*
G01*
X148391357Y-104701969D01*
G75*
G02*
X148285291Y-104701969I-53033J53033D01*
G01*
G37*
G36*
G01*
X147931738Y-104348416D02*
X147825672Y-104242350D01*
G75*
G02*
X147825672Y-104136284I53033J53033D01*
G01*
X148815622Y-103146334D01*
G75*
G02*
X148921688Y-103146334I53033J-53033D01*
G01*
X149027754Y-103252400D01*
G75*
G02*
X149027754Y-103358466I-53033J-53033D01*
G01*
X148037804Y-104348416D01*
G75*
G02*
X147931738Y-104348416I-53033J53033D01*
G01*
G37*
G36*
G01*
X147578184Y-103994862D02*
X147472118Y-103888796D01*
G75*
G02*
X147472118Y-103782730I53033J53033D01*
G01*
X148462068Y-102792780D01*
G75*
G02*
X148568134Y-102792780I53033J-53033D01*
G01*
X148674200Y-102898846D01*
G75*
G02*
X148674200Y-103004912I-53033J-53033D01*
G01*
X147684250Y-103994862D01*
G75*
G02*
X147578184Y-103994862I-53033J53033D01*
G01*
G37*
G36*
G01*
X147224631Y-103641309D02*
X147118565Y-103535243D01*
G75*
G02*
X147118565Y-103429177I53033J53033D01*
G01*
X148108515Y-102439227D01*
G75*
G02*
X148214581Y-102439227I53033J-53033D01*
G01*
X148320647Y-102545293D01*
G75*
G02*
X148320647Y-102651359I-53033J-53033D01*
G01*
X147330697Y-103641309D01*
G75*
G02*
X147224631Y-103641309I-53033J53033D01*
G01*
G37*
G36*
G01*
X146871077Y-103287755D02*
X146765011Y-103181689D01*
G75*
G02*
X146765011Y-103075623I53033J53033D01*
G01*
X147754961Y-102085673D01*
G75*
G02*
X147861027Y-102085673I53033J-53033D01*
G01*
X147967093Y-102191739D01*
G75*
G02*
X147967093Y-102297805I-53033J-53033D01*
G01*
X146977143Y-103287755D01*
G75*
G02*
X146871077Y-103287755I-53033J53033D01*
G01*
G37*
G36*
G01*
X146517524Y-102934202D02*
X146411458Y-102828136D01*
G75*
G02*
X146411458Y-102722070I53033J53033D01*
G01*
X147401408Y-101732120D01*
G75*
G02*
X147507474Y-101732120I53033J-53033D01*
G01*
X147613540Y-101838186D01*
G75*
G02*
X147613540Y-101944252I-53033J-53033D01*
G01*
X146623590Y-102934202D01*
G75*
G02*
X146517524Y-102934202I-53033J53033D01*
G01*
G37*
G36*
G01*
X146163971Y-102580649D02*
X146057905Y-102474583D01*
G75*
G02*
X146057905Y-102368517I53033J53033D01*
G01*
X147047855Y-101378567D01*
G75*
G02*
X147153921Y-101378567I53033J-53033D01*
G01*
X147259987Y-101484633D01*
G75*
G02*
X147259987Y-101590699I-53033J-53033D01*
G01*
X146270037Y-102580649D01*
G75*
G02*
X146163971Y-102580649I-53033J53033D01*
G01*
G37*
G36*
G01*
X145810417Y-102227095D02*
X145704351Y-102121029D01*
G75*
G02*
X145704351Y-102014963I53033J53033D01*
G01*
X146694301Y-101025013D01*
G75*
G02*
X146800367Y-101025013I53033J-53033D01*
G01*
X146906433Y-101131079D01*
G75*
G02*
X146906433Y-101237145I-53033J-53033D01*
G01*
X145916483Y-102227095D01*
G75*
G02*
X145810417Y-102227095I-53033J53033D01*
G01*
G37*
G36*
G01*
X145456864Y-101873542D02*
X145350798Y-101767476D01*
G75*
G02*
X145350798Y-101661410I53033J53033D01*
G01*
X146340748Y-100671460D01*
G75*
G02*
X146446814Y-100671460I53033J-53033D01*
G01*
X146552880Y-100777526D01*
G75*
G02*
X146552880Y-100883592I-53033J-53033D01*
G01*
X145562930Y-101873542D01*
G75*
G02*
X145456864Y-101873542I-53033J53033D01*
G01*
G37*
G36*
G01*
X145103311Y-101519989D02*
X144997245Y-101413923D01*
G75*
G02*
X144997245Y-101307857I53033J53033D01*
G01*
X145987195Y-100317907D01*
G75*
G02*
X146093261Y-100317907I53033J-53033D01*
G01*
X146199327Y-100423973D01*
G75*
G02*
X146199327Y-100530039I-53033J-53033D01*
G01*
X145209377Y-101519989D01*
G75*
G02*
X145103311Y-101519989I-53033J53033D01*
G01*
G37*
G36*
G01*
X144749757Y-101166435D02*
X144643691Y-101060369D01*
G75*
G02*
X144643691Y-100954303I53033J53033D01*
G01*
X145633641Y-99964353D01*
G75*
G02*
X145739707Y-99964353I53033J-53033D01*
G01*
X145845773Y-100070419D01*
G75*
G02*
X145845773Y-100176485I-53033J-53033D01*
G01*
X144855823Y-101166435D01*
G75*
G02*
X144749757Y-101166435I-53033J53033D01*
G01*
G37*
G36*
G01*
X144396204Y-100812882D02*
X144290138Y-100706816D01*
G75*
G02*
X144290138Y-100600750I53033J53033D01*
G01*
X145280088Y-99610800D01*
G75*
G02*
X145386154Y-99610800I53033J-53033D01*
G01*
X145492220Y-99716866D01*
G75*
G02*
X145492220Y-99822932I-53033J-53033D01*
G01*
X144502270Y-100812882D01*
G75*
G02*
X144396204Y-100812882I-53033J53033D01*
G01*
G37*
G36*
G01*
X144042650Y-100459328D02*
X143936584Y-100353262D01*
G75*
G02*
X143936584Y-100247196I53033J53033D01*
G01*
X144926534Y-99257246D01*
G75*
G02*
X145032600Y-99257246I53033J-53033D01*
G01*
X145138666Y-99363312D01*
G75*
G02*
X145138666Y-99469378I-53033J-53033D01*
G01*
X144148716Y-100459328D01*
G75*
G02*
X144042650Y-100459328I-53033J53033D01*
G01*
G37*
G36*
G01*
X143689097Y-100105775D02*
X143583031Y-99999709D01*
G75*
G02*
X143583031Y-99893643I53033J53033D01*
G01*
X144572981Y-98903693D01*
G75*
G02*
X144679047Y-98903693I53033J-53033D01*
G01*
X144785113Y-99009759D01*
G75*
G02*
X144785113Y-99115825I-53033J-53033D01*
G01*
X143795163Y-100105775D01*
G75*
G02*
X143689097Y-100105775I-53033J53033D01*
G01*
G37*
G36*
G01*
X143335544Y-99752222D02*
X143229478Y-99646156D01*
G75*
G02*
X143229478Y-99540090I53033J53033D01*
G01*
X144219428Y-98550140D01*
G75*
G02*
X144325494Y-98550140I53033J-53033D01*
G01*
X144431560Y-98656206D01*
G75*
G02*
X144431560Y-98762272I-53033J-53033D01*
G01*
X143441610Y-99752222D01*
G75*
G02*
X143335544Y-99752222I-53033J53033D01*
G01*
G37*
%TD*%
M02*
