%TF.GenerationSoftware,KiCad,Pcbnew,5.1.6+dfsg1-1*%
%TF.CreationDate,2020-08-05T09:46:32+08:00*%
%TF.ProjectId,stm32dev,73746d33-3264-4657-962e-6b696361645f,b*%
%TF.SameCoordinates,Original*%
%TF.FileFunction,Soldermask,Top*%
%TF.FilePolarity,Negative*%
%FSLAX46Y46*%
G04 Gerber Fmt 4.6, Leading zero omitted, Abs format (unit mm)*
G04 Created by KiCad (PCBNEW 5.1.6+dfsg1-1) date 2020-08-05 09:46:32*
%MOMM*%
%LPD*%
G01*
G04 APERTURE LIST*
%ADD10O,1.800000X1.800000*%
%ADD11R,1.800000X1.800000*%
%ADD12R,1.800000X1.100000*%
%ADD13O,2.200000X1.100000*%
%ADD14C,0.750000*%
%ADD15O,1.700000X1.100000*%
%ADD16R,1.300000X1.000000*%
%ADD17R,2.500000X2.000000*%
%ADD18R,1.000000X0.900000*%
%ADD19R,1.600000X1.100000*%
G04 APERTURE END LIST*
%TO.C,C13*%
G36*
G01*
X155392500Y-90705250D02*
X155392500Y-90142750D01*
G75*
G02*
X155636250Y-89899000I243750J0D01*
G01*
X156123750Y-89899000D01*
G75*
G02*
X156367500Y-90142750I0J-243750D01*
G01*
X156367500Y-90705250D01*
G75*
G02*
X156123750Y-90949000I-243750J0D01*
G01*
X155636250Y-90949000D01*
G75*
G02*
X155392500Y-90705250I0J243750D01*
G01*
G37*
G36*
G01*
X153817500Y-90705250D02*
X153817500Y-90142750D01*
G75*
G02*
X154061250Y-89899000I243750J0D01*
G01*
X154548750Y-89899000D01*
G75*
G02*
X154792500Y-90142750I0J-243750D01*
G01*
X154792500Y-90705250D01*
G75*
G02*
X154548750Y-90949000I-243750J0D01*
G01*
X154061250Y-90949000D01*
G75*
G02*
X153817500Y-90705250I0J243750D01*
G01*
G37*
%TD*%
%TO.C,C12*%
G36*
G01*
X159666250Y-99395000D02*
X159103750Y-99395000D01*
G75*
G02*
X158860000Y-99151250I0J243750D01*
G01*
X158860000Y-98663750D01*
G75*
G02*
X159103750Y-98420000I243750J0D01*
G01*
X159666250Y-98420000D01*
G75*
G02*
X159910000Y-98663750I0J-243750D01*
G01*
X159910000Y-99151250D01*
G75*
G02*
X159666250Y-99395000I-243750J0D01*
G01*
G37*
G36*
G01*
X159666250Y-100970000D02*
X159103750Y-100970000D01*
G75*
G02*
X158860000Y-100726250I0J243750D01*
G01*
X158860000Y-100238750D01*
G75*
G02*
X159103750Y-99995000I243750J0D01*
G01*
X159666250Y-99995000D01*
G75*
G02*
X159910000Y-100238750I0J-243750D01*
G01*
X159910000Y-100726250D01*
G75*
G02*
X159666250Y-100970000I-243750J0D01*
G01*
G37*
%TD*%
%TO.C,C9*%
G36*
G01*
X143312500Y-104915000D02*
X143707500Y-104915000D01*
G75*
G02*
X143880000Y-105087500I0J-172500D01*
G01*
X143880000Y-105432500D01*
G75*
G02*
X143707500Y-105605000I-172500J0D01*
G01*
X143312500Y-105605000D01*
G75*
G02*
X143140000Y-105432500I0J172500D01*
G01*
X143140000Y-105087500D01*
G75*
G02*
X143312500Y-104915000I172500J0D01*
G01*
G37*
G36*
G01*
X143312500Y-103945000D02*
X143707500Y-103945000D01*
G75*
G02*
X143880000Y-104117500I0J-172500D01*
G01*
X143880000Y-104462500D01*
G75*
G02*
X143707500Y-104635000I-172500J0D01*
G01*
X143312500Y-104635000D01*
G75*
G02*
X143140000Y-104462500I0J172500D01*
G01*
X143140000Y-104117500D01*
G75*
G02*
X143312500Y-103945000I172500J0D01*
G01*
G37*
%TD*%
D10*
%TO.C,J2*%
X123825000Y-95250000D03*
X126365000Y-95250000D03*
X123825000Y-97790000D03*
X126365000Y-97790000D03*
X123825000Y-100330000D03*
D11*
X126365000Y-100330000D03*
%TD*%
D10*
%TO.C,J5*%
X172720000Y-87630000D03*
X172720000Y-85090000D03*
X170180000Y-87630000D03*
X170180000Y-85090000D03*
X167640000Y-87630000D03*
X167640000Y-85090000D03*
X165100000Y-87630000D03*
X165100000Y-85090000D03*
X162560000Y-87630000D03*
X162560000Y-85090000D03*
X160020000Y-87630000D03*
X160020000Y-85090000D03*
X157480000Y-87630000D03*
X157480000Y-85090000D03*
X154940000Y-87630000D03*
X154940000Y-85090000D03*
X152400000Y-87630000D03*
X152400000Y-85090000D03*
X149860000Y-87630000D03*
X149860000Y-85090000D03*
X147320000Y-87630000D03*
X147320000Y-85090000D03*
X144780000Y-87630000D03*
X144780000Y-85090000D03*
X142240000Y-87630000D03*
X142240000Y-85090000D03*
X139700000Y-87630000D03*
X139700000Y-85090000D03*
X137160000Y-87630000D03*
X137160000Y-85090000D03*
X134620000Y-87630000D03*
X134620000Y-85090000D03*
X132080000Y-87630000D03*
X132080000Y-85090000D03*
X129540000Y-87630000D03*
X129540000Y-85090000D03*
X127000000Y-87630000D03*
X127000000Y-85090000D03*
X124460000Y-87630000D03*
D11*
X124460000Y-85090000D03*
%TD*%
D10*
%TO.C,J4*%
X172720000Y-110490000D03*
X172720000Y-107950000D03*
X170180000Y-110490000D03*
X170180000Y-107950000D03*
X167640000Y-110490000D03*
X167640000Y-107950000D03*
X165100000Y-110490000D03*
X165100000Y-107950000D03*
X162560000Y-110490000D03*
X162560000Y-107950000D03*
X160020000Y-110490000D03*
X160020000Y-107950000D03*
X157480000Y-110490000D03*
X157480000Y-107950000D03*
X154940000Y-110490000D03*
X154940000Y-107950000D03*
X152400000Y-110490000D03*
X152400000Y-107950000D03*
X149860000Y-110490000D03*
X149860000Y-107950000D03*
X147320000Y-110490000D03*
X147320000Y-107950000D03*
X144780000Y-110490000D03*
X144780000Y-107950000D03*
X142240000Y-110490000D03*
X142240000Y-107950000D03*
X139700000Y-110490000D03*
X139700000Y-107950000D03*
X137160000Y-110490000D03*
X137160000Y-107950000D03*
X134620000Y-110490000D03*
X134620000Y-107950000D03*
X132080000Y-110490000D03*
X132080000Y-107950000D03*
X129540000Y-110490000D03*
X129540000Y-107950000D03*
X127000000Y-110490000D03*
X127000000Y-107950000D03*
X124460000Y-110490000D03*
D11*
X124460000Y-107950000D03*
%TD*%
D12*
%TO.C,SW2*%
X129565000Y-89540000D03*
X135865000Y-89540000D03*
X129565000Y-93340000D03*
X135865000Y-93340000D03*
%TD*%
%TO.C,SW1*%
X129565000Y-102240000D03*
X135865000Y-102240000D03*
X129565000Y-106040000D03*
X135865000Y-106040000D03*
%TD*%
%TO.C,R8*%
G36*
G01*
X172225000Y-96082500D02*
X172225000Y-95687500D01*
G75*
G02*
X172397500Y-95515000I172500J0D01*
G01*
X172742500Y-95515000D01*
G75*
G02*
X172915000Y-95687500I0J-172500D01*
G01*
X172915000Y-96082500D01*
G75*
G02*
X172742500Y-96255000I-172500J0D01*
G01*
X172397500Y-96255000D01*
G75*
G02*
X172225000Y-96082500I0J172500D01*
G01*
G37*
G36*
G01*
X171255000Y-96082500D02*
X171255000Y-95687500D01*
G75*
G02*
X171427500Y-95515000I172500J0D01*
G01*
X171772500Y-95515000D01*
G75*
G02*
X171945000Y-95687500I0J-172500D01*
G01*
X171945000Y-96082500D01*
G75*
G02*
X171772500Y-96255000I-172500J0D01*
G01*
X171427500Y-96255000D01*
G75*
G02*
X171255000Y-96082500I0J172500D01*
G01*
G37*
%TD*%
%TO.C,R9*%
G36*
G01*
X170040000Y-92512500D02*
X170040000Y-92907500D01*
G75*
G02*
X169867500Y-93080000I-172500J0D01*
G01*
X169522500Y-93080000D01*
G75*
G02*
X169350000Y-92907500I0J172500D01*
G01*
X169350000Y-92512500D01*
G75*
G02*
X169522500Y-92340000I172500J0D01*
G01*
X169867500Y-92340000D01*
G75*
G02*
X170040000Y-92512500I0J-172500D01*
G01*
G37*
G36*
G01*
X171010000Y-92512500D02*
X171010000Y-92907500D01*
G75*
G02*
X170837500Y-93080000I-172500J0D01*
G01*
X170492500Y-93080000D01*
G75*
G02*
X170320000Y-92907500I0J172500D01*
G01*
X170320000Y-92512500D01*
G75*
G02*
X170492500Y-92340000I172500J0D01*
G01*
X170837500Y-92340000D01*
G75*
G02*
X171010000Y-92512500I0J-172500D01*
G01*
G37*
%TD*%
%TO.C,R7*%
G36*
G01*
X172225000Y-101162500D02*
X172225000Y-100767500D01*
G75*
G02*
X172397500Y-100595000I172500J0D01*
G01*
X172742500Y-100595000D01*
G75*
G02*
X172915000Y-100767500I0J-172500D01*
G01*
X172915000Y-101162500D01*
G75*
G02*
X172742500Y-101335000I-172500J0D01*
G01*
X172397500Y-101335000D01*
G75*
G02*
X172225000Y-101162500I0J172500D01*
G01*
G37*
G36*
G01*
X171255000Y-101162500D02*
X171255000Y-100767500D01*
G75*
G02*
X171427500Y-100595000I172500J0D01*
G01*
X171772500Y-100595000D01*
G75*
G02*
X171945000Y-100767500I0J-172500D01*
G01*
X171945000Y-101162500D01*
G75*
G02*
X171772500Y-101335000I-172500J0D01*
G01*
X171427500Y-101335000D01*
G75*
G02*
X171255000Y-101162500I0J172500D01*
G01*
G37*
%TD*%
%TO.C,R6*%
G36*
G01*
X170040000Y-90607500D02*
X170040000Y-91002500D01*
G75*
G02*
X169867500Y-91175000I-172500J0D01*
G01*
X169522500Y-91175000D01*
G75*
G02*
X169350000Y-91002500I0J172500D01*
G01*
X169350000Y-90607500D01*
G75*
G02*
X169522500Y-90435000I172500J0D01*
G01*
X169867500Y-90435000D01*
G75*
G02*
X170040000Y-90607500I0J-172500D01*
G01*
G37*
G36*
G01*
X171010000Y-90607500D02*
X171010000Y-91002500D01*
G75*
G02*
X170837500Y-91175000I-172500J0D01*
G01*
X170492500Y-91175000D01*
G75*
G02*
X170320000Y-91002500I0J172500D01*
G01*
X170320000Y-90607500D01*
G75*
G02*
X170492500Y-90435000I172500J0D01*
G01*
X170837500Y-90435000D01*
G75*
G02*
X171010000Y-90607500I0J-172500D01*
G01*
G37*
%TD*%
%TO.C,R4*%
G36*
G01*
X172225000Y-99892500D02*
X172225000Y-99497500D01*
G75*
G02*
X172397500Y-99325000I172500J0D01*
G01*
X172742500Y-99325000D01*
G75*
G02*
X172915000Y-99497500I0J-172500D01*
G01*
X172915000Y-99892500D01*
G75*
G02*
X172742500Y-100065000I-172500J0D01*
G01*
X172397500Y-100065000D01*
G75*
G02*
X172225000Y-99892500I0J172500D01*
G01*
G37*
G36*
G01*
X171255000Y-99892500D02*
X171255000Y-99497500D01*
G75*
G02*
X171427500Y-99325000I172500J0D01*
G01*
X171772500Y-99325000D01*
G75*
G02*
X171945000Y-99497500I0J-172500D01*
G01*
X171945000Y-99892500D01*
G75*
G02*
X171772500Y-100065000I-172500J0D01*
G01*
X171427500Y-100065000D01*
G75*
G02*
X171255000Y-99892500I0J172500D01*
G01*
G37*
%TD*%
%TO.C,R3*%
G36*
G01*
X172225000Y-98622500D02*
X172225000Y-98227500D01*
G75*
G02*
X172397500Y-98055000I172500J0D01*
G01*
X172742500Y-98055000D01*
G75*
G02*
X172915000Y-98227500I0J-172500D01*
G01*
X172915000Y-98622500D01*
G75*
G02*
X172742500Y-98795000I-172500J0D01*
G01*
X172397500Y-98795000D01*
G75*
G02*
X172225000Y-98622500I0J172500D01*
G01*
G37*
G36*
G01*
X171255000Y-98622500D02*
X171255000Y-98227500D01*
G75*
G02*
X171427500Y-98055000I172500J0D01*
G01*
X171772500Y-98055000D01*
G75*
G02*
X171945000Y-98227500I0J-172500D01*
G01*
X171945000Y-98622500D01*
G75*
G02*
X171772500Y-98795000I-172500J0D01*
G01*
X171427500Y-98795000D01*
G75*
G02*
X171255000Y-98622500I0J172500D01*
G01*
G37*
%TD*%
%TO.C,R2*%
G36*
G01*
X172225000Y-97352500D02*
X172225000Y-96957500D01*
G75*
G02*
X172397500Y-96785000I172500J0D01*
G01*
X172742500Y-96785000D01*
G75*
G02*
X172915000Y-96957500I0J-172500D01*
G01*
X172915000Y-97352500D01*
G75*
G02*
X172742500Y-97525000I-172500J0D01*
G01*
X172397500Y-97525000D01*
G75*
G02*
X172225000Y-97352500I0J172500D01*
G01*
G37*
G36*
G01*
X171255000Y-97352500D02*
X171255000Y-96957500D01*
G75*
G02*
X171427500Y-96785000I172500J0D01*
G01*
X171772500Y-96785000D01*
G75*
G02*
X171945000Y-96957500I0J-172500D01*
G01*
X171945000Y-97352500D01*
G75*
G02*
X171772500Y-97525000I-172500J0D01*
G01*
X171427500Y-97525000D01*
G75*
G02*
X171255000Y-97352500I0J172500D01*
G01*
G37*
%TD*%
%TO.C,R5*%
G36*
G01*
X126225000Y-91877500D02*
X126225000Y-92272500D01*
G75*
G02*
X126052500Y-92445000I-172500J0D01*
G01*
X125707500Y-92445000D01*
G75*
G02*
X125535000Y-92272500I0J172500D01*
G01*
X125535000Y-91877500D01*
G75*
G02*
X125707500Y-91705000I172500J0D01*
G01*
X126052500Y-91705000D01*
G75*
G02*
X126225000Y-91877500I0J-172500D01*
G01*
G37*
G36*
G01*
X127195000Y-91877500D02*
X127195000Y-92272500D01*
G75*
G02*
X127022500Y-92445000I-172500J0D01*
G01*
X126677500Y-92445000D01*
G75*
G02*
X126505000Y-92272500I0J172500D01*
G01*
X126505000Y-91877500D01*
G75*
G02*
X126677500Y-91705000I172500J0D01*
G01*
X127022500Y-91705000D01*
G75*
G02*
X127195000Y-91877500I0J-172500D01*
G01*
G37*
%TD*%
%TO.C,R1*%
G36*
G01*
X126505000Y-104337500D02*
X126505000Y-103942500D01*
G75*
G02*
X126677500Y-103770000I172500J0D01*
G01*
X127022500Y-103770000D01*
G75*
G02*
X127195000Y-103942500I0J-172500D01*
G01*
X127195000Y-104337500D01*
G75*
G02*
X127022500Y-104510000I-172500J0D01*
G01*
X126677500Y-104510000D01*
G75*
G02*
X126505000Y-104337500I0J172500D01*
G01*
G37*
G36*
G01*
X125535000Y-104337500D02*
X125535000Y-103942500D01*
G75*
G02*
X125707500Y-103770000I172500J0D01*
G01*
X126052500Y-103770000D01*
G75*
G02*
X126225000Y-103942500I0J-172500D01*
G01*
X126225000Y-104337500D01*
G75*
G02*
X126052500Y-104510000I-172500J0D01*
G01*
X125707500Y-104510000D01*
G75*
G02*
X125535000Y-104337500I0J172500D01*
G01*
G37*
%TD*%
D13*
%TO.C,J1*%
X168955000Y-102745000D03*
X168955000Y-94105000D03*
D14*
X169485000Y-95535000D03*
D15*
X173135000Y-94105000D03*
D14*
X169485000Y-101315000D03*
D15*
X173135000Y-102745000D03*
%TD*%
%TO.C,D4*%
G36*
G01*
X173020000Y-92991250D02*
X173020000Y-92428750D01*
G75*
G02*
X173263750Y-92185000I243750J0D01*
G01*
X173751250Y-92185000D01*
G75*
G02*
X173995000Y-92428750I0J-243750D01*
G01*
X173995000Y-92991250D01*
G75*
G02*
X173751250Y-93235000I-243750J0D01*
G01*
X173263750Y-93235000D01*
G75*
G02*
X173020000Y-92991250I0J243750D01*
G01*
G37*
G36*
G01*
X171445000Y-92991250D02*
X171445000Y-92428750D01*
G75*
G02*
X171688750Y-92185000I243750J0D01*
G01*
X172176250Y-92185000D01*
G75*
G02*
X172420000Y-92428750I0J-243750D01*
G01*
X172420000Y-92991250D01*
G75*
G02*
X172176250Y-93235000I-243750J0D01*
G01*
X171688750Y-93235000D01*
G75*
G02*
X171445000Y-92991250I0J243750D01*
G01*
G37*
%TD*%
D16*
%TO.C,D2*%
X167640000Y-100075000D03*
X167640000Y-96775000D03*
%TD*%
%TO.C,D3*%
G36*
G01*
X173020000Y-91086250D02*
X173020000Y-90523750D01*
G75*
G02*
X173263750Y-90280000I243750J0D01*
G01*
X173751250Y-90280000D01*
G75*
G02*
X173995000Y-90523750I0J-243750D01*
G01*
X173995000Y-91086250D01*
G75*
G02*
X173751250Y-91330000I-243750J0D01*
G01*
X173263750Y-91330000D01*
G75*
G02*
X173020000Y-91086250I0J243750D01*
G01*
G37*
G36*
G01*
X171445000Y-91086250D02*
X171445000Y-90523750D01*
G75*
G02*
X171688750Y-90280000I243750J0D01*
G01*
X172176250Y-90280000D01*
G75*
G02*
X172420000Y-90523750I0J-243750D01*
G01*
X172420000Y-91086250D01*
G75*
G02*
X172176250Y-91330000I-243750J0D01*
G01*
X171688750Y-91330000D01*
G75*
G02*
X171445000Y-91086250I0J243750D01*
G01*
G37*
%TD*%
%TO.C,C2*%
G36*
G01*
X126225000Y-102672500D02*
X126225000Y-103067500D01*
G75*
G02*
X126052500Y-103240000I-172500J0D01*
G01*
X125707500Y-103240000D01*
G75*
G02*
X125535000Y-103067500I0J172500D01*
G01*
X125535000Y-102672500D01*
G75*
G02*
X125707500Y-102500000I172500J0D01*
G01*
X126052500Y-102500000D01*
G75*
G02*
X126225000Y-102672500I0J-172500D01*
G01*
G37*
G36*
G01*
X127195000Y-102672500D02*
X127195000Y-103067500D01*
G75*
G02*
X127022500Y-103240000I-172500J0D01*
G01*
X126677500Y-103240000D01*
G75*
G02*
X126505000Y-103067500I0J172500D01*
G01*
X126505000Y-102672500D01*
G75*
G02*
X126677500Y-102500000I172500J0D01*
G01*
X127022500Y-102500000D01*
G75*
G02*
X127195000Y-102672500I0J-172500D01*
G01*
G37*
%TD*%
%TO.C,C4*%
G36*
G01*
X144582500Y-104915000D02*
X144977500Y-104915000D01*
G75*
G02*
X145150000Y-105087500I0J-172500D01*
G01*
X145150000Y-105432500D01*
G75*
G02*
X144977500Y-105605000I-172500J0D01*
G01*
X144582500Y-105605000D01*
G75*
G02*
X144410000Y-105432500I0J172500D01*
G01*
X144410000Y-105087500D01*
G75*
G02*
X144582500Y-104915000I172500J0D01*
G01*
G37*
G36*
G01*
X144582500Y-103945000D02*
X144977500Y-103945000D01*
G75*
G02*
X145150000Y-104117500I0J-172500D01*
G01*
X145150000Y-104462500D01*
G75*
G02*
X144977500Y-104635000I-172500J0D01*
G01*
X144582500Y-104635000D01*
G75*
G02*
X144410000Y-104462500I0J172500D01*
G01*
X144410000Y-104117500D01*
G75*
G02*
X144582500Y-103945000I172500J0D01*
G01*
G37*
%TD*%
D17*
%TO.C,Y1*%
X139065000Y-101110000D03*
X139065000Y-97010000D03*
%TD*%
D18*
%TO.C,U1*%
X164830000Y-99695000D03*
X162830000Y-100645000D03*
X162830000Y-98745000D03*
%TD*%
%TO.C,C11*%
G36*
G01*
X138925000Y-102672500D02*
X138925000Y-103067500D01*
G75*
G02*
X138752500Y-103240000I-172500J0D01*
G01*
X138407500Y-103240000D01*
G75*
G02*
X138235000Y-103067500I0J172500D01*
G01*
X138235000Y-102672500D01*
G75*
G02*
X138407500Y-102500000I172500J0D01*
G01*
X138752500Y-102500000D01*
G75*
G02*
X138925000Y-102672500I0J-172500D01*
G01*
G37*
G36*
G01*
X139895000Y-102672500D02*
X139895000Y-103067500D01*
G75*
G02*
X139722500Y-103240000I-172500J0D01*
G01*
X139377500Y-103240000D01*
G75*
G02*
X139205000Y-103067500I0J172500D01*
G01*
X139205000Y-102672500D01*
G75*
G02*
X139377500Y-102500000I172500J0D01*
G01*
X139722500Y-102500000D01*
G75*
G02*
X139895000Y-102672500I0J-172500D01*
G01*
G37*
%TD*%
%TO.C,C10*%
G36*
G01*
X139355000Y-95447500D02*
X139355000Y-95052500D01*
G75*
G02*
X139527500Y-94880000I172500J0D01*
G01*
X139872500Y-94880000D01*
G75*
G02*
X140045000Y-95052500I0J-172500D01*
G01*
X140045000Y-95447500D01*
G75*
G02*
X139872500Y-95620000I-172500J0D01*
G01*
X139527500Y-95620000D01*
G75*
G02*
X139355000Y-95447500I0J172500D01*
G01*
G37*
G36*
G01*
X138385000Y-95447500D02*
X138385000Y-95052500D01*
G75*
G02*
X138557500Y-94880000I172500J0D01*
G01*
X138902500Y-94880000D01*
G75*
G02*
X139075000Y-95052500I0J-172500D01*
G01*
X139075000Y-95447500D01*
G75*
G02*
X138902500Y-95620000I-172500J0D01*
G01*
X138557500Y-95620000D01*
G75*
G02*
X138385000Y-95447500I0J172500D01*
G01*
G37*
%TD*%
%TO.C,C8*%
G36*
G01*
X154445000Y-105607500D02*
X154445000Y-105212500D01*
G75*
G02*
X154617500Y-105040000I172500J0D01*
G01*
X154962500Y-105040000D01*
G75*
G02*
X155135000Y-105212500I0J-172500D01*
G01*
X155135000Y-105607500D01*
G75*
G02*
X154962500Y-105780000I-172500J0D01*
G01*
X154617500Y-105780000D01*
G75*
G02*
X154445000Y-105607500I0J172500D01*
G01*
G37*
G36*
G01*
X153475000Y-105607500D02*
X153475000Y-105212500D01*
G75*
G02*
X153647500Y-105040000I172500J0D01*
G01*
X153992500Y-105040000D01*
G75*
G02*
X154165000Y-105212500I0J-172500D01*
G01*
X154165000Y-105607500D01*
G75*
G02*
X153992500Y-105780000I-172500J0D01*
G01*
X153647500Y-105780000D01*
G75*
G02*
X153475000Y-105607500I0J172500D01*
G01*
G37*
%TD*%
%TO.C,C7*%
G36*
G01*
X142042500Y-97930000D02*
X142437500Y-97930000D01*
G75*
G02*
X142610000Y-98102500I0J-172500D01*
G01*
X142610000Y-98447500D01*
G75*
G02*
X142437500Y-98620000I-172500J0D01*
G01*
X142042500Y-98620000D01*
G75*
G02*
X141870000Y-98447500I0J172500D01*
G01*
X141870000Y-98102500D01*
G75*
G02*
X142042500Y-97930000I172500J0D01*
G01*
G37*
G36*
G01*
X142042500Y-96960000D02*
X142437500Y-96960000D01*
G75*
G02*
X142610000Y-97132500I0J-172500D01*
G01*
X142610000Y-97477500D01*
G75*
G02*
X142437500Y-97650000I-172500J0D01*
G01*
X142042500Y-97650000D01*
G75*
G02*
X141870000Y-97477500I0J172500D01*
G01*
X141870000Y-97132500D01*
G75*
G02*
X142042500Y-96960000I172500J0D01*
G01*
G37*
%TD*%
%TO.C,C6*%
G36*
G01*
X150355000Y-89337500D02*
X150355000Y-89732500D01*
G75*
G02*
X150182500Y-89905000I-172500J0D01*
G01*
X149837500Y-89905000D01*
G75*
G02*
X149665000Y-89732500I0J172500D01*
G01*
X149665000Y-89337500D01*
G75*
G02*
X149837500Y-89165000I172500J0D01*
G01*
X150182500Y-89165000D01*
G75*
G02*
X150355000Y-89337500I0J-172500D01*
G01*
G37*
G36*
G01*
X151325000Y-89337500D02*
X151325000Y-89732500D01*
G75*
G02*
X151152500Y-89905000I-172500J0D01*
G01*
X150807500Y-89905000D01*
G75*
G02*
X150635000Y-89732500I0J172500D01*
G01*
X150635000Y-89337500D01*
G75*
G02*
X150807500Y-89165000I172500J0D01*
G01*
X151152500Y-89165000D01*
G75*
G02*
X151325000Y-89337500I0J-172500D01*
G01*
G37*
%TD*%
D19*
%TO.C,D1*%
X130265000Y-96190000D03*
X130265000Y-99390000D03*
X135165000Y-96190000D03*
X135165000Y-99390000D03*
%TD*%
%TO.C,C5*%
G36*
G01*
X158890000Y-97352500D02*
X158890000Y-96957500D01*
G75*
G02*
X159062500Y-96785000I172500J0D01*
G01*
X159407500Y-96785000D01*
G75*
G02*
X159580000Y-96957500I0J-172500D01*
G01*
X159580000Y-97352500D01*
G75*
G02*
X159407500Y-97525000I-172500J0D01*
G01*
X159062500Y-97525000D01*
G75*
G02*
X158890000Y-97352500I0J172500D01*
G01*
G37*
G36*
G01*
X157920000Y-97352500D02*
X157920000Y-96957500D01*
G75*
G02*
X158092500Y-96785000I172500J0D01*
G01*
X158437500Y-96785000D01*
G75*
G02*
X158610000Y-96957500I0J-172500D01*
G01*
X158610000Y-97352500D01*
G75*
G02*
X158437500Y-97525000I-172500J0D01*
G01*
X158092500Y-97525000D01*
G75*
G02*
X157920000Y-97352500I0J172500D01*
G01*
G37*
%TD*%
%TO.C,C3*%
G36*
G01*
X164230000Y-103351250D02*
X164230000Y-102388750D01*
G75*
G02*
X164498750Y-102120000I268750J0D01*
G01*
X165036250Y-102120000D01*
G75*
G02*
X165305000Y-102388750I0J-268750D01*
G01*
X165305000Y-103351250D01*
G75*
G02*
X165036250Y-103620000I-268750J0D01*
G01*
X164498750Y-103620000D01*
G75*
G02*
X164230000Y-103351250I0J268750D01*
G01*
G37*
G36*
G01*
X162355000Y-103351250D02*
X162355000Y-102388750D01*
G75*
G02*
X162623750Y-102120000I268750J0D01*
G01*
X163161250Y-102120000D01*
G75*
G02*
X163430000Y-102388750I0J-268750D01*
G01*
X163430000Y-103351250D01*
G75*
G02*
X163161250Y-103620000I-268750J0D01*
G01*
X162623750Y-103620000D01*
G75*
G02*
X162355000Y-103351250I0J268750D01*
G01*
G37*
%TD*%
%TO.C,C1*%
G36*
G01*
X163430000Y-96038750D02*
X163430000Y-97001250D01*
G75*
G02*
X163161250Y-97270000I-268750J0D01*
G01*
X162623750Y-97270000D01*
G75*
G02*
X162355000Y-97001250I0J268750D01*
G01*
X162355000Y-96038750D01*
G75*
G02*
X162623750Y-95770000I268750J0D01*
G01*
X163161250Y-95770000D01*
G75*
G02*
X163430000Y-96038750I0J-268750D01*
G01*
G37*
G36*
G01*
X165305000Y-96038750D02*
X165305000Y-97001250D01*
G75*
G02*
X165036250Y-97270000I-268750J0D01*
G01*
X164498750Y-97270000D01*
G75*
G02*
X164230000Y-97001250I0J268750D01*
G01*
X164230000Y-96038750D01*
G75*
G02*
X164498750Y-95770000I268750J0D01*
G01*
X165036250Y-95770000D01*
G75*
G02*
X165305000Y-96038750I0J-268750D01*
G01*
G37*
%TD*%
%TO.C,U2*%
G36*
G01*
X144201750Y-97082893D02*
X143176445Y-96057588D01*
G75*
G02*
X143176445Y-95916166I70711J70711D01*
G01*
X143317866Y-95774745D01*
G75*
G02*
X143459288Y-95774745I70711J-70711D01*
G01*
X144484593Y-96800050D01*
G75*
G02*
X144484593Y-96941472I-70711J-70711D01*
G01*
X144343172Y-97082893D01*
G75*
G02*
X144201750Y-97082893I-70711J70711D01*
G01*
G37*
G36*
G01*
X144555303Y-96729340D02*
X143529998Y-95704035D01*
G75*
G02*
X143529998Y-95562613I70711J70711D01*
G01*
X143671419Y-95421192D01*
G75*
G02*
X143812841Y-95421192I70711J-70711D01*
G01*
X144838146Y-96446497D01*
G75*
G02*
X144838146Y-96587919I-70711J-70711D01*
G01*
X144696725Y-96729340D01*
G75*
G02*
X144555303Y-96729340I-70711J70711D01*
G01*
G37*
G36*
G01*
X144908856Y-96375787D02*
X143883551Y-95350482D01*
G75*
G02*
X143883551Y-95209060I70711J70711D01*
G01*
X144024972Y-95067639D01*
G75*
G02*
X144166394Y-95067639I70711J-70711D01*
G01*
X145191699Y-96092944D01*
G75*
G02*
X145191699Y-96234366I-70711J-70711D01*
G01*
X145050278Y-96375787D01*
G75*
G02*
X144908856Y-96375787I-70711J70711D01*
G01*
G37*
G36*
G01*
X145262410Y-96022233D02*
X144237105Y-94996928D01*
G75*
G02*
X144237105Y-94855506I70711J70711D01*
G01*
X144378526Y-94714085D01*
G75*
G02*
X144519948Y-94714085I70711J-70711D01*
G01*
X145545253Y-95739390D01*
G75*
G02*
X145545253Y-95880812I-70711J-70711D01*
G01*
X145403832Y-96022233D01*
G75*
G02*
X145262410Y-96022233I-70711J70711D01*
G01*
G37*
G36*
G01*
X145615963Y-95668680D02*
X144590658Y-94643375D01*
G75*
G02*
X144590658Y-94501953I70711J70711D01*
G01*
X144732079Y-94360532D01*
G75*
G02*
X144873501Y-94360532I70711J-70711D01*
G01*
X145898806Y-95385837D01*
G75*
G02*
X145898806Y-95527259I-70711J-70711D01*
G01*
X145757385Y-95668680D01*
G75*
G02*
X145615963Y-95668680I-70711J70711D01*
G01*
G37*
G36*
G01*
X145969517Y-95315126D02*
X144944212Y-94289821D01*
G75*
G02*
X144944212Y-94148399I70711J70711D01*
G01*
X145085633Y-94006978D01*
G75*
G02*
X145227055Y-94006978I70711J-70711D01*
G01*
X146252360Y-95032283D01*
G75*
G02*
X146252360Y-95173705I-70711J-70711D01*
G01*
X146110939Y-95315126D01*
G75*
G02*
X145969517Y-95315126I-70711J70711D01*
G01*
G37*
G36*
G01*
X146323070Y-94961573D02*
X145297765Y-93936268D01*
G75*
G02*
X145297765Y-93794846I70711J70711D01*
G01*
X145439186Y-93653425D01*
G75*
G02*
X145580608Y-93653425I70711J-70711D01*
G01*
X146605913Y-94678730D01*
G75*
G02*
X146605913Y-94820152I-70711J-70711D01*
G01*
X146464492Y-94961573D01*
G75*
G02*
X146323070Y-94961573I-70711J70711D01*
G01*
G37*
G36*
G01*
X146676623Y-94608020D02*
X145651318Y-93582715D01*
G75*
G02*
X145651318Y-93441293I70711J70711D01*
G01*
X145792739Y-93299872D01*
G75*
G02*
X145934161Y-93299872I70711J-70711D01*
G01*
X146959466Y-94325177D01*
G75*
G02*
X146959466Y-94466599I-70711J-70711D01*
G01*
X146818045Y-94608020D01*
G75*
G02*
X146676623Y-94608020I-70711J70711D01*
G01*
G37*
G36*
G01*
X147030177Y-94254466D02*
X146004872Y-93229161D01*
G75*
G02*
X146004872Y-93087739I70711J70711D01*
G01*
X146146293Y-92946318D01*
G75*
G02*
X146287715Y-92946318I70711J-70711D01*
G01*
X147313020Y-93971623D01*
G75*
G02*
X147313020Y-94113045I-70711J-70711D01*
G01*
X147171599Y-94254466D01*
G75*
G02*
X147030177Y-94254466I-70711J70711D01*
G01*
G37*
G36*
G01*
X147383730Y-93900913D02*
X146358425Y-92875608D01*
G75*
G02*
X146358425Y-92734186I70711J70711D01*
G01*
X146499846Y-92592765D01*
G75*
G02*
X146641268Y-92592765I70711J-70711D01*
G01*
X147666573Y-93618070D01*
G75*
G02*
X147666573Y-93759492I-70711J-70711D01*
G01*
X147525152Y-93900913D01*
G75*
G02*
X147383730Y-93900913I-70711J70711D01*
G01*
G37*
G36*
G01*
X147737283Y-93547360D02*
X146711978Y-92522055D01*
G75*
G02*
X146711978Y-92380633I70711J70711D01*
G01*
X146853399Y-92239212D01*
G75*
G02*
X146994821Y-92239212I70711J-70711D01*
G01*
X148020126Y-93264517D01*
G75*
G02*
X148020126Y-93405939I-70711J-70711D01*
G01*
X147878705Y-93547360D01*
G75*
G02*
X147737283Y-93547360I-70711J70711D01*
G01*
G37*
G36*
G01*
X148090837Y-93193806D02*
X147065532Y-92168501D01*
G75*
G02*
X147065532Y-92027079I70711J70711D01*
G01*
X147206953Y-91885658D01*
G75*
G02*
X147348375Y-91885658I70711J-70711D01*
G01*
X148373680Y-92910963D01*
G75*
G02*
X148373680Y-93052385I-70711J-70711D01*
G01*
X148232259Y-93193806D01*
G75*
G02*
X148090837Y-93193806I-70711J70711D01*
G01*
G37*
G36*
G01*
X148444390Y-92840253D02*
X147419085Y-91814948D01*
G75*
G02*
X147419085Y-91673526I70711J70711D01*
G01*
X147560506Y-91532105D01*
G75*
G02*
X147701928Y-91532105I70711J-70711D01*
G01*
X148727233Y-92557410D01*
G75*
G02*
X148727233Y-92698832I-70711J-70711D01*
G01*
X148585812Y-92840253D01*
G75*
G02*
X148444390Y-92840253I-70711J70711D01*
G01*
G37*
G36*
G01*
X148797944Y-92486699D02*
X147772639Y-91461394D01*
G75*
G02*
X147772639Y-91319972I70711J70711D01*
G01*
X147914060Y-91178551D01*
G75*
G02*
X148055482Y-91178551I70711J-70711D01*
G01*
X149080787Y-92203856D01*
G75*
G02*
X149080787Y-92345278I-70711J-70711D01*
G01*
X148939366Y-92486699D01*
G75*
G02*
X148797944Y-92486699I-70711J70711D01*
G01*
G37*
G36*
G01*
X149151497Y-92133146D02*
X148126192Y-91107841D01*
G75*
G02*
X148126192Y-90966419I70711J70711D01*
G01*
X148267613Y-90824998D01*
G75*
G02*
X148409035Y-90824998I70711J-70711D01*
G01*
X149434340Y-91850303D01*
G75*
G02*
X149434340Y-91991725I-70711J-70711D01*
G01*
X149292919Y-92133146D01*
G75*
G02*
X149151497Y-92133146I-70711J70711D01*
G01*
G37*
G36*
G01*
X149505050Y-91779593D02*
X148479745Y-90754288D01*
G75*
G02*
X148479745Y-90612866I70711J70711D01*
G01*
X148621166Y-90471445D01*
G75*
G02*
X148762588Y-90471445I70711J-70711D01*
G01*
X149787893Y-91496750D01*
G75*
G02*
X149787893Y-91638172I-70711J-70711D01*
G01*
X149646472Y-91779593D01*
G75*
G02*
X149505050Y-91779593I-70711J70711D01*
G01*
G37*
G36*
G01*
X151343529Y-91779593D02*
X151202107Y-91638172D01*
G75*
G02*
X151202107Y-91496750I70711J70711D01*
G01*
X152227412Y-90471445D01*
G75*
G02*
X152368834Y-90471445I70711J-70711D01*
G01*
X152510255Y-90612866D01*
G75*
G02*
X152510255Y-90754288I-70711J-70711D01*
G01*
X151484950Y-91779593D01*
G75*
G02*
X151343528Y-91779593I-70711J70711D01*
G01*
G37*
G36*
G01*
X151697082Y-92133146D02*
X151555660Y-91991725D01*
G75*
G02*
X151555660Y-91850303I70711J70711D01*
G01*
X152580965Y-90824998D01*
G75*
G02*
X152722387Y-90824998I70711J-70711D01*
G01*
X152863808Y-90966419D01*
G75*
G02*
X152863808Y-91107841I-70711J-70711D01*
G01*
X151838503Y-92133146D01*
G75*
G02*
X151697081Y-92133146I-70711J70711D01*
G01*
G37*
G36*
G01*
X152050635Y-92486699D02*
X151909213Y-92345278D01*
G75*
G02*
X151909213Y-92203856I70711J70711D01*
G01*
X152934518Y-91178551D01*
G75*
G02*
X153075940Y-91178551I70711J-70711D01*
G01*
X153217361Y-91319972D01*
G75*
G02*
X153217361Y-91461394I-70711J-70711D01*
G01*
X152192056Y-92486699D01*
G75*
G02*
X152050634Y-92486699I-70711J70711D01*
G01*
G37*
G36*
G01*
X152404189Y-92840253D02*
X152262767Y-92698832D01*
G75*
G02*
X152262767Y-92557410I70711J70711D01*
G01*
X153288072Y-91532105D01*
G75*
G02*
X153429494Y-91532105I70711J-70711D01*
G01*
X153570915Y-91673526D01*
G75*
G02*
X153570915Y-91814948I-70711J-70711D01*
G01*
X152545610Y-92840253D01*
G75*
G02*
X152404188Y-92840253I-70711J70711D01*
G01*
G37*
G36*
G01*
X152757742Y-93193806D02*
X152616320Y-93052385D01*
G75*
G02*
X152616320Y-92910963I70711J70711D01*
G01*
X153641625Y-91885658D01*
G75*
G02*
X153783047Y-91885658I70711J-70711D01*
G01*
X153924468Y-92027079D01*
G75*
G02*
X153924468Y-92168501I-70711J-70711D01*
G01*
X152899163Y-93193806D01*
G75*
G02*
X152757741Y-93193806I-70711J70711D01*
G01*
G37*
G36*
G01*
X153111296Y-93547360D02*
X152969874Y-93405939D01*
G75*
G02*
X152969874Y-93264517I70711J70711D01*
G01*
X153995179Y-92239212D01*
G75*
G02*
X154136601Y-92239212I70711J-70711D01*
G01*
X154278022Y-92380633D01*
G75*
G02*
X154278022Y-92522055I-70711J-70711D01*
G01*
X153252717Y-93547360D01*
G75*
G02*
X153111295Y-93547360I-70711J70711D01*
G01*
G37*
G36*
G01*
X153464849Y-93900913D02*
X153323427Y-93759492D01*
G75*
G02*
X153323427Y-93618070I70711J70711D01*
G01*
X154348732Y-92592765D01*
G75*
G02*
X154490154Y-92592765I70711J-70711D01*
G01*
X154631575Y-92734186D01*
G75*
G02*
X154631575Y-92875608I-70711J-70711D01*
G01*
X153606270Y-93900913D01*
G75*
G02*
X153464848Y-93900913I-70711J70711D01*
G01*
G37*
G36*
G01*
X153818402Y-94254466D02*
X153676980Y-94113045D01*
G75*
G02*
X153676980Y-93971623I70711J70711D01*
G01*
X154702285Y-92946318D01*
G75*
G02*
X154843707Y-92946318I70711J-70711D01*
G01*
X154985128Y-93087739D01*
G75*
G02*
X154985128Y-93229161I-70711J-70711D01*
G01*
X153959823Y-94254466D01*
G75*
G02*
X153818401Y-94254466I-70711J70711D01*
G01*
G37*
G36*
G01*
X154171956Y-94608020D02*
X154030534Y-94466599D01*
G75*
G02*
X154030534Y-94325177I70711J70711D01*
G01*
X155055839Y-93299872D01*
G75*
G02*
X155197261Y-93299872I70711J-70711D01*
G01*
X155338682Y-93441293D01*
G75*
G02*
X155338682Y-93582715I-70711J-70711D01*
G01*
X154313377Y-94608020D01*
G75*
G02*
X154171955Y-94608020I-70711J70711D01*
G01*
G37*
G36*
G01*
X154525509Y-94961573D02*
X154384087Y-94820152D01*
G75*
G02*
X154384087Y-94678730I70711J70711D01*
G01*
X155409392Y-93653425D01*
G75*
G02*
X155550814Y-93653425I70711J-70711D01*
G01*
X155692235Y-93794846D01*
G75*
G02*
X155692235Y-93936268I-70711J-70711D01*
G01*
X154666930Y-94961573D01*
G75*
G02*
X154525508Y-94961573I-70711J70711D01*
G01*
G37*
G36*
G01*
X154879062Y-95315126D02*
X154737640Y-95173705D01*
G75*
G02*
X154737640Y-95032283I70711J70711D01*
G01*
X155762945Y-94006978D01*
G75*
G02*
X155904367Y-94006978I70711J-70711D01*
G01*
X156045788Y-94148399D01*
G75*
G02*
X156045788Y-94289821I-70711J-70711D01*
G01*
X155020483Y-95315126D01*
G75*
G02*
X154879061Y-95315126I-70711J70711D01*
G01*
G37*
G36*
G01*
X155232616Y-95668680D02*
X155091194Y-95527259D01*
G75*
G02*
X155091194Y-95385837I70711J70711D01*
G01*
X156116499Y-94360532D01*
G75*
G02*
X156257921Y-94360532I70711J-70711D01*
G01*
X156399342Y-94501953D01*
G75*
G02*
X156399342Y-94643375I-70711J-70711D01*
G01*
X155374037Y-95668680D01*
G75*
G02*
X155232615Y-95668680I-70711J70711D01*
G01*
G37*
G36*
G01*
X155586169Y-96022233D02*
X155444747Y-95880812D01*
G75*
G02*
X155444747Y-95739390I70711J70711D01*
G01*
X156470052Y-94714085D01*
G75*
G02*
X156611474Y-94714085I70711J-70711D01*
G01*
X156752895Y-94855506D01*
G75*
G02*
X156752895Y-94996928I-70711J-70711D01*
G01*
X155727590Y-96022233D01*
G75*
G02*
X155586168Y-96022233I-70711J70711D01*
G01*
G37*
G36*
G01*
X155939723Y-96375787D02*
X155798301Y-96234366D01*
G75*
G02*
X155798301Y-96092944I70711J70711D01*
G01*
X156823606Y-95067639D01*
G75*
G02*
X156965028Y-95067639I70711J-70711D01*
G01*
X157106449Y-95209060D01*
G75*
G02*
X157106449Y-95350482I-70711J-70711D01*
G01*
X156081144Y-96375787D01*
G75*
G02*
X155939722Y-96375787I-70711J70711D01*
G01*
G37*
G36*
G01*
X156293276Y-96729340D02*
X156151854Y-96587919D01*
G75*
G02*
X156151854Y-96446497I70711J70711D01*
G01*
X157177159Y-95421192D01*
G75*
G02*
X157318581Y-95421192I70711J-70711D01*
G01*
X157460002Y-95562613D01*
G75*
G02*
X157460002Y-95704035I-70711J-70711D01*
G01*
X156434697Y-96729340D01*
G75*
G02*
X156293275Y-96729340I-70711J70711D01*
G01*
G37*
G36*
G01*
X156646829Y-97082893D02*
X156505407Y-96941472D01*
G75*
G02*
X156505407Y-96800050I70711J70711D01*
G01*
X157530712Y-95774745D01*
G75*
G02*
X157672134Y-95774745I70711J-70711D01*
G01*
X157813555Y-95916166D01*
G75*
G02*
X157813555Y-96057588I-70711J-70711D01*
G01*
X156788250Y-97082893D01*
G75*
G02*
X156646828Y-97082893I-70711J70711D01*
G01*
G37*
G36*
G01*
X157530712Y-99805255D02*
X156505407Y-98779950D01*
G75*
G02*
X156505407Y-98638528I70711J70711D01*
G01*
X156646828Y-98497107D01*
G75*
G02*
X156788250Y-98497107I70711J-70711D01*
G01*
X157813555Y-99522412D01*
G75*
G02*
X157813555Y-99663834I-70711J-70711D01*
G01*
X157672134Y-99805255D01*
G75*
G02*
X157530712Y-99805255I-70711J70711D01*
G01*
G37*
G36*
G01*
X157177159Y-100158808D02*
X156151854Y-99133503D01*
G75*
G02*
X156151854Y-98992081I70711J70711D01*
G01*
X156293275Y-98850660D01*
G75*
G02*
X156434697Y-98850660I70711J-70711D01*
G01*
X157460002Y-99875965D01*
G75*
G02*
X157460002Y-100017387I-70711J-70711D01*
G01*
X157318581Y-100158808D01*
G75*
G02*
X157177159Y-100158808I-70711J70711D01*
G01*
G37*
G36*
G01*
X156823606Y-100512361D02*
X155798301Y-99487056D01*
G75*
G02*
X155798301Y-99345634I70711J70711D01*
G01*
X155939722Y-99204213D01*
G75*
G02*
X156081144Y-99204213I70711J-70711D01*
G01*
X157106449Y-100229518D01*
G75*
G02*
X157106449Y-100370940I-70711J-70711D01*
G01*
X156965028Y-100512361D01*
G75*
G02*
X156823606Y-100512361I-70711J70711D01*
G01*
G37*
G36*
G01*
X156470052Y-100865915D02*
X155444747Y-99840610D01*
G75*
G02*
X155444747Y-99699188I70711J70711D01*
G01*
X155586168Y-99557767D01*
G75*
G02*
X155727590Y-99557767I70711J-70711D01*
G01*
X156752895Y-100583072D01*
G75*
G02*
X156752895Y-100724494I-70711J-70711D01*
G01*
X156611474Y-100865915D01*
G75*
G02*
X156470052Y-100865915I-70711J70711D01*
G01*
G37*
G36*
G01*
X156116499Y-101219468D02*
X155091194Y-100194163D01*
G75*
G02*
X155091194Y-100052741I70711J70711D01*
G01*
X155232615Y-99911320D01*
G75*
G02*
X155374037Y-99911320I70711J-70711D01*
G01*
X156399342Y-100936625D01*
G75*
G02*
X156399342Y-101078047I-70711J-70711D01*
G01*
X156257921Y-101219468D01*
G75*
G02*
X156116499Y-101219468I-70711J70711D01*
G01*
G37*
G36*
G01*
X155762945Y-101573022D02*
X154737640Y-100547717D01*
G75*
G02*
X154737640Y-100406295I70711J70711D01*
G01*
X154879061Y-100264874D01*
G75*
G02*
X155020483Y-100264874I70711J-70711D01*
G01*
X156045788Y-101290179D01*
G75*
G02*
X156045788Y-101431601I-70711J-70711D01*
G01*
X155904367Y-101573022D01*
G75*
G02*
X155762945Y-101573022I-70711J70711D01*
G01*
G37*
G36*
G01*
X155409392Y-101926575D02*
X154384087Y-100901270D01*
G75*
G02*
X154384087Y-100759848I70711J70711D01*
G01*
X154525508Y-100618427D01*
G75*
G02*
X154666930Y-100618427I70711J-70711D01*
G01*
X155692235Y-101643732D01*
G75*
G02*
X155692235Y-101785154I-70711J-70711D01*
G01*
X155550814Y-101926575D01*
G75*
G02*
X155409392Y-101926575I-70711J70711D01*
G01*
G37*
G36*
G01*
X155055839Y-102280128D02*
X154030534Y-101254823D01*
G75*
G02*
X154030534Y-101113401I70711J70711D01*
G01*
X154171955Y-100971980D01*
G75*
G02*
X154313377Y-100971980I70711J-70711D01*
G01*
X155338682Y-101997285D01*
G75*
G02*
X155338682Y-102138707I-70711J-70711D01*
G01*
X155197261Y-102280128D01*
G75*
G02*
X155055839Y-102280128I-70711J70711D01*
G01*
G37*
G36*
G01*
X154702285Y-102633682D02*
X153676980Y-101608377D01*
G75*
G02*
X153676980Y-101466955I70711J70711D01*
G01*
X153818401Y-101325534D01*
G75*
G02*
X153959823Y-101325534I70711J-70711D01*
G01*
X154985128Y-102350839D01*
G75*
G02*
X154985128Y-102492261I-70711J-70711D01*
G01*
X154843707Y-102633682D01*
G75*
G02*
X154702285Y-102633682I-70711J70711D01*
G01*
G37*
G36*
G01*
X154348732Y-102987235D02*
X153323427Y-101961930D01*
G75*
G02*
X153323427Y-101820508I70711J70711D01*
G01*
X153464848Y-101679087D01*
G75*
G02*
X153606270Y-101679087I70711J-70711D01*
G01*
X154631575Y-102704392D01*
G75*
G02*
X154631575Y-102845814I-70711J-70711D01*
G01*
X154490154Y-102987235D01*
G75*
G02*
X154348732Y-102987235I-70711J70711D01*
G01*
G37*
G36*
G01*
X153995179Y-103340788D02*
X152969874Y-102315483D01*
G75*
G02*
X152969874Y-102174061I70711J70711D01*
G01*
X153111295Y-102032640D01*
G75*
G02*
X153252717Y-102032640I70711J-70711D01*
G01*
X154278022Y-103057945D01*
G75*
G02*
X154278022Y-103199367I-70711J-70711D01*
G01*
X154136601Y-103340788D01*
G75*
G02*
X153995179Y-103340788I-70711J70711D01*
G01*
G37*
G36*
G01*
X153641625Y-103694342D02*
X152616320Y-102669037D01*
G75*
G02*
X152616320Y-102527615I70711J70711D01*
G01*
X152757741Y-102386194D01*
G75*
G02*
X152899163Y-102386194I70711J-70711D01*
G01*
X153924468Y-103411499D01*
G75*
G02*
X153924468Y-103552921I-70711J-70711D01*
G01*
X153783047Y-103694342D01*
G75*
G02*
X153641625Y-103694342I-70711J70711D01*
G01*
G37*
G36*
G01*
X153288072Y-104047895D02*
X152262767Y-103022590D01*
G75*
G02*
X152262767Y-102881168I70711J70711D01*
G01*
X152404188Y-102739747D01*
G75*
G02*
X152545610Y-102739747I70711J-70711D01*
G01*
X153570915Y-103765052D01*
G75*
G02*
X153570915Y-103906474I-70711J-70711D01*
G01*
X153429494Y-104047895D01*
G75*
G02*
X153288072Y-104047895I-70711J70711D01*
G01*
G37*
G36*
G01*
X152934518Y-104401449D02*
X151909213Y-103376144D01*
G75*
G02*
X151909213Y-103234722I70711J70711D01*
G01*
X152050634Y-103093301D01*
G75*
G02*
X152192056Y-103093301I70711J-70711D01*
G01*
X153217361Y-104118606D01*
G75*
G02*
X153217361Y-104260028I-70711J-70711D01*
G01*
X153075940Y-104401449D01*
G75*
G02*
X152934518Y-104401449I-70711J70711D01*
G01*
G37*
G36*
G01*
X152580965Y-104755002D02*
X151555660Y-103729697D01*
G75*
G02*
X151555660Y-103588275I70711J70711D01*
G01*
X151697081Y-103446854D01*
G75*
G02*
X151838503Y-103446854I70711J-70711D01*
G01*
X152863808Y-104472159D01*
G75*
G02*
X152863808Y-104613581I-70711J-70711D01*
G01*
X152722387Y-104755002D01*
G75*
G02*
X152580965Y-104755002I-70711J70711D01*
G01*
G37*
G36*
G01*
X152227412Y-105108555D02*
X151202107Y-104083250D01*
G75*
G02*
X151202107Y-103941828I70711J70711D01*
G01*
X151343528Y-103800407D01*
G75*
G02*
X151484950Y-103800407I70711J-70711D01*
G01*
X152510255Y-104825712D01*
G75*
G02*
X152510255Y-104967134I-70711J-70711D01*
G01*
X152368834Y-105108555D01*
G75*
G02*
X152227412Y-105108555I-70711J70711D01*
G01*
G37*
G36*
G01*
X148621167Y-105108555D02*
X148479745Y-104967134D01*
G75*
G02*
X148479745Y-104825712I70711J70711D01*
G01*
X149505050Y-103800407D01*
G75*
G02*
X149646472Y-103800407I70711J-70711D01*
G01*
X149787893Y-103941828D01*
G75*
G02*
X149787893Y-104083250I-70711J-70711D01*
G01*
X148762588Y-105108555D01*
G75*
G02*
X148621166Y-105108555I-70711J70711D01*
G01*
G37*
G36*
G01*
X148267614Y-104755002D02*
X148126192Y-104613581D01*
G75*
G02*
X148126192Y-104472159I70711J70711D01*
G01*
X149151497Y-103446854D01*
G75*
G02*
X149292919Y-103446854I70711J-70711D01*
G01*
X149434340Y-103588275D01*
G75*
G02*
X149434340Y-103729697I-70711J-70711D01*
G01*
X148409035Y-104755002D01*
G75*
G02*
X148267613Y-104755002I-70711J70711D01*
G01*
G37*
G36*
G01*
X147914061Y-104401449D02*
X147772639Y-104260028D01*
G75*
G02*
X147772639Y-104118606I70711J70711D01*
G01*
X148797944Y-103093301D01*
G75*
G02*
X148939366Y-103093301I70711J-70711D01*
G01*
X149080787Y-103234722D01*
G75*
G02*
X149080787Y-103376144I-70711J-70711D01*
G01*
X148055482Y-104401449D01*
G75*
G02*
X147914060Y-104401449I-70711J70711D01*
G01*
G37*
G36*
G01*
X147560507Y-104047895D02*
X147419085Y-103906474D01*
G75*
G02*
X147419085Y-103765052I70711J70711D01*
G01*
X148444390Y-102739747D01*
G75*
G02*
X148585812Y-102739747I70711J-70711D01*
G01*
X148727233Y-102881168D01*
G75*
G02*
X148727233Y-103022590I-70711J-70711D01*
G01*
X147701928Y-104047895D01*
G75*
G02*
X147560506Y-104047895I-70711J70711D01*
G01*
G37*
G36*
G01*
X147206954Y-103694342D02*
X147065532Y-103552921D01*
G75*
G02*
X147065532Y-103411499I70711J70711D01*
G01*
X148090837Y-102386194D01*
G75*
G02*
X148232259Y-102386194I70711J-70711D01*
G01*
X148373680Y-102527615D01*
G75*
G02*
X148373680Y-102669037I-70711J-70711D01*
G01*
X147348375Y-103694342D01*
G75*
G02*
X147206953Y-103694342I-70711J70711D01*
G01*
G37*
G36*
G01*
X146853400Y-103340788D02*
X146711978Y-103199367D01*
G75*
G02*
X146711978Y-103057945I70711J70711D01*
G01*
X147737283Y-102032640D01*
G75*
G02*
X147878705Y-102032640I70711J-70711D01*
G01*
X148020126Y-102174061D01*
G75*
G02*
X148020126Y-102315483I-70711J-70711D01*
G01*
X146994821Y-103340788D01*
G75*
G02*
X146853399Y-103340788I-70711J70711D01*
G01*
G37*
G36*
G01*
X146499847Y-102987235D02*
X146358425Y-102845814D01*
G75*
G02*
X146358425Y-102704392I70711J70711D01*
G01*
X147383730Y-101679087D01*
G75*
G02*
X147525152Y-101679087I70711J-70711D01*
G01*
X147666573Y-101820508D01*
G75*
G02*
X147666573Y-101961930I-70711J-70711D01*
G01*
X146641268Y-102987235D01*
G75*
G02*
X146499846Y-102987235I-70711J70711D01*
G01*
G37*
G36*
G01*
X146146294Y-102633682D02*
X146004872Y-102492261D01*
G75*
G02*
X146004872Y-102350839I70711J70711D01*
G01*
X147030177Y-101325534D01*
G75*
G02*
X147171599Y-101325534I70711J-70711D01*
G01*
X147313020Y-101466955D01*
G75*
G02*
X147313020Y-101608377I-70711J-70711D01*
G01*
X146287715Y-102633682D01*
G75*
G02*
X146146293Y-102633682I-70711J70711D01*
G01*
G37*
G36*
G01*
X145792740Y-102280128D02*
X145651318Y-102138707D01*
G75*
G02*
X145651318Y-101997285I70711J70711D01*
G01*
X146676623Y-100971980D01*
G75*
G02*
X146818045Y-100971980I70711J-70711D01*
G01*
X146959466Y-101113401D01*
G75*
G02*
X146959466Y-101254823I-70711J-70711D01*
G01*
X145934161Y-102280128D01*
G75*
G02*
X145792739Y-102280128I-70711J70711D01*
G01*
G37*
G36*
G01*
X145439187Y-101926575D02*
X145297765Y-101785154D01*
G75*
G02*
X145297765Y-101643732I70711J70711D01*
G01*
X146323070Y-100618427D01*
G75*
G02*
X146464492Y-100618427I70711J-70711D01*
G01*
X146605913Y-100759848D01*
G75*
G02*
X146605913Y-100901270I-70711J-70711D01*
G01*
X145580608Y-101926575D01*
G75*
G02*
X145439186Y-101926575I-70711J70711D01*
G01*
G37*
G36*
G01*
X145085634Y-101573022D02*
X144944212Y-101431601D01*
G75*
G02*
X144944212Y-101290179I70711J70711D01*
G01*
X145969517Y-100264874D01*
G75*
G02*
X146110939Y-100264874I70711J-70711D01*
G01*
X146252360Y-100406295D01*
G75*
G02*
X146252360Y-100547717I-70711J-70711D01*
G01*
X145227055Y-101573022D01*
G75*
G02*
X145085633Y-101573022I-70711J70711D01*
G01*
G37*
G36*
G01*
X144732080Y-101219468D02*
X144590658Y-101078047D01*
G75*
G02*
X144590658Y-100936625I70711J70711D01*
G01*
X145615963Y-99911320D01*
G75*
G02*
X145757385Y-99911320I70711J-70711D01*
G01*
X145898806Y-100052741D01*
G75*
G02*
X145898806Y-100194163I-70711J-70711D01*
G01*
X144873501Y-101219468D01*
G75*
G02*
X144732079Y-101219468I-70711J70711D01*
G01*
G37*
G36*
G01*
X144378527Y-100865915D02*
X144237105Y-100724494D01*
G75*
G02*
X144237105Y-100583072I70711J70711D01*
G01*
X145262410Y-99557767D01*
G75*
G02*
X145403832Y-99557767I70711J-70711D01*
G01*
X145545253Y-99699188D01*
G75*
G02*
X145545253Y-99840610I-70711J-70711D01*
G01*
X144519948Y-100865915D01*
G75*
G02*
X144378526Y-100865915I-70711J70711D01*
G01*
G37*
G36*
G01*
X144024973Y-100512361D02*
X143883551Y-100370940D01*
G75*
G02*
X143883551Y-100229518I70711J70711D01*
G01*
X144908856Y-99204213D01*
G75*
G02*
X145050278Y-99204213I70711J-70711D01*
G01*
X145191699Y-99345634D01*
G75*
G02*
X145191699Y-99487056I-70711J-70711D01*
G01*
X144166394Y-100512361D01*
G75*
G02*
X144024972Y-100512361I-70711J70711D01*
G01*
G37*
G36*
G01*
X143671420Y-100158808D02*
X143529998Y-100017387D01*
G75*
G02*
X143529998Y-99875965I70711J70711D01*
G01*
X144555303Y-98850660D01*
G75*
G02*
X144696725Y-98850660I70711J-70711D01*
G01*
X144838146Y-98992081D01*
G75*
G02*
X144838146Y-99133503I-70711J-70711D01*
G01*
X143812841Y-100158808D01*
G75*
G02*
X143671419Y-100158808I-70711J70711D01*
G01*
G37*
G36*
G01*
X143317867Y-99805255D02*
X143176445Y-99663834D01*
G75*
G02*
X143176445Y-99522412I70711J70711D01*
G01*
X144201750Y-98497107D01*
G75*
G02*
X144343172Y-98497107I70711J-70711D01*
G01*
X144484593Y-98638528D01*
G75*
G02*
X144484593Y-98779950I-70711J-70711D01*
G01*
X143459288Y-99805255D01*
G75*
G02*
X143317866Y-99805255I-70711J70711D01*
G01*
G37*
%TD*%
M02*
