M48
; DRILL file {KiCad 5.1.6+dfsg1-1} date Sat Jun 20 17:48:05 2020
; FORMAT={-:-/ absolute / inch / decimal}
; #@! TF.CreationDate,2020-06-20T17:48:05+08:00
; #@! TF.GenerationSoftware,Kicad,Pcbnew,5.1.6+dfsg1-1
; #@! TF.FileFunction,Plated,1,2,PTH
FMAT,2
INCH
T1C0.0138
T2C0.0236
T3C0.0335
T4C0.0394
%
G90
G05
T1
X5.5Y-4.125
X5.5Y-4.175
X5.65Y-4.125
X5.7Y-3.8
X5.7Y-3.925
X5.7283Y-3.8386
X5.7638Y-3.6736
X5.775Y-3.775
X5.8232Y-3.5386
X5.879Y-3.7397
X5.9Y-3.875
X5.9126Y-3.7393
X5.9217Y-4.011
X5.9546Y-3.8746
X5.9695Y-3.7068
X5.9728Y-3.6734
X5.975Y-3.975
X5.9815Y-3.8503
X6.075Y-3.6
X6.15Y-3.725
X6.175Y-3.475
X6.175Y-3.95
X6.175Y-4.0
X6.2Y-4.025
X6.2Y-4.125
X6.425Y-3.975
X6.425Y-4.05
X6.475Y-3.6
X6.5Y-3.475
X6.5Y-3.975
X6.5Y-4.05
X6.525Y-3.7
X6.575Y-3.975
X6.575Y-4.05
X6.75Y-3.575
X6.75Y-4.125
T3
X6.6924Y-3.7266
X6.6924Y-3.9234
T4
X6.225Y-3.55
X6.225Y-3.65
X6.225Y-3.75
X6.325Y-3.55
X6.325Y-3.65
X6.325Y-3.75
X5.4Y-4.3
X5.5Y-4.3
X5.6Y-4.3
X5.7Y-4.3
X5.8Y-4.3
X5.9Y-4.3
X6.0Y-4.3
X6.1Y-4.3
X6.2Y-4.3
X6.3Y-4.3
X6.4Y-4.3
X6.5Y-4.3
X6.6Y-4.3
X6.7Y-4.3
X6.8Y-4.3
X5.4Y-3.4
X5.5Y-3.4
X5.6Y-3.4
X5.7Y-3.4
X5.8Y-3.4
X5.9Y-3.4
X6.0Y-3.4
X6.1Y-3.4
X6.2Y-3.4
X6.3Y-3.4
X6.4Y-3.4
X6.5Y-3.4
X6.6Y-3.4
X6.7Y-3.4
X6.8Y-3.4
T2
G00X6.7849Y-3.6872
M15
G01X6.8125Y-3.6872
M16
G05
G00X6.8125Y-3.9628
M15
G01X6.7849Y-3.9628
M16
G05
T0
M30
