%TF.GenerationSoftware,KiCad,Pcbnew,5.1.6+dfsg1-1*%
%TF.CreationDate,2020-06-20T18:18:21+08:00*%
%TF.ProjectId,stm32dev,73746d33-3264-4657-962e-6b696361645f,a*%
%TF.SameCoordinates,Original*%
%TF.FileFunction,Paste,Top*%
%TF.FilePolarity,Positive*%
%FSLAX46Y46*%
G04 Gerber Fmt 4.6, Leading zero omitted, Abs format (unit mm)*
G04 Created by KiCad (PCBNEW 5.1.6+dfsg1-1) date 2020-06-20 18:18:21*
%MOMM*%
%LPD*%
G01*
G04 APERTURE LIST*
%ADD10R,0.900000X1.200000*%
%ADD11R,1.000000X1.500000*%
%ADD12R,1.900000X1.500000*%
%ADD13R,1.350000X0.400000*%
%ADD14R,1.500000X2.000000*%
%ADD15R,3.800000X2.000000*%
%ADD16R,1.200000X1.400000*%
G04 APERTURE END LIST*
D10*
%TO.C,D3*%
X173100000Y-90805000D03*
X169800000Y-90805000D03*
%TD*%
%TO.C,D1*%
X173354000Y-103632000D03*
X170054000Y-103632000D03*
%TD*%
%TO.C,C10*%
G36*
G01*
X138715000Y-98803750D02*
X138715000Y-99316250D01*
G75*
G02*
X138496250Y-99535000I-218750J0D01*
G01*
X138058750Y-99535000D01*
G75*
G02*
X137840000Y-99316250I0J218750D01*
G01*
X137840000Y-98803750D01*
G75*
G02*
X138058750Y-98585000I218750J0D01*
G01*
X138496250Y-98585000D01*
G75*
G02*
X138715000Y-98803750I0J-218750D01*
G01*
G37*
G36*
G01*
X140290000Y-98803750D02*
X140290000Y-99316250D01*
G75*
G02*
X140071250Y-99535000I-218750J0D01*
G01*
X139633750Y-99535000D01*
G75*
G02*
X139415000Y-99316250I0J218750D01*
G01*
X139415000Y-98803750D01*
G75*
G02*
X139633750Y-98585000I218750J0D01*
G01*
X140071250Y-98585000D01*
G75*
G02*
X140290000Y-98803750I0J-218750D01*
G01*
G37*
%TD*%
%TO.C,C6*%
G36*
G01*
X139415000Y-92966250D02*
X139415000Y-92453750D01*
G75*
G02*
X139633750Y-92235000I218750J0D01*
G01*
X140071250Y-92235000D01*
G75*
G02*
X140290000Y-92453750I0J-218750D01*
G01*
X140290000Y-92966250D01*
G75*
G02*
X140071250Y-93185000I-218750J0D01*
G01*
X139633750Y-93185000D01*
G75*
G02*
X139415000Y-92966250I0J218750D01*
G01*
G37*
G36*
G01*
X137840000Y-92966250D02*
X137840000Y-92453750D01*
G75*
G02*
X138058750Y-92235000I218750J0D01*
G01*
X138496250Y-92235000D01*
G75*
G02*
X138715000Y-92453750I0J-218750D01*
G01*
X138715000Y-92966250D01*
G75*
G02*
X138496250Y-93185000I-218750J0D01*
G01*
X138058750Y-93185000D01*
G75*
G02*
X137840000Y-92966250I0J218750D01*
G01*
G37*
%TD*%
%TO.C,C13*%
G36*
G01*
X155831250Y-89820000D02*
X155318750Y-89820000D01*
G75*
G02*
X155100000Y-89601250I0J218750D01*
G01*
X155100000Y-89163750D01*
G75*
G02*
X155318750Y-88945000I218750J0D01*
G01*
X155831250Y-88945000D01*
G75*
G02*
X156050000Y-89163750I0J-218750D01*
G01*
X156050000Y-89601250D01*
G75*
G02*
X155831250Y-89820000I-218750J0D01*
G01*
G37*
G36*
G01*
X155831250Y-91395000D02*
X155318750Y-91395000D01*
G75*
G02*
X155100000Y-91176250I0J218750D01*
G01*
X155100000Y-90738750D01*
G75*
G02*
X155318750Y-90520000I218750J0D01*
G01*
X155831250Y-90520000D01*
G75*
G02*
X156050000Y-90738750I0J-218750D01*
G01*
X156050000Y-91176250D01*
G75*
G02*
X155831250Y-91395000I-218750J0D01*
G01*
G37*
%TD*%
%TO.C,C12*%
G36*
G01*
X154655000Y-105031250D02*
X154655000Y-104518750D01*
G75*
G02*
X154873750Y-104300000I218750J0D01*
G01*
X155311250Y-104300000D01*
G75*
G02*
X155530000Y-104518750I0J-218750D01*
G01*
X155530000Y-105031250D01*
G75*
G02*
X155311250Y-105250000I-218750J0D01*
G01*
X154873750Y-105250000D01*
G75*
G02*
X154655000Y-105031250I0J218750D01*
G01*
G37*
G36*
G01*
X153080000Y-105031250D02*
X153080000Y-104518750D01*
G75*
G02*
X153298750Y-104300000I218750J0D01*
G01*
X153736250Y-104300000D01*
G75*
G02*
X153955000Y-104518750I0J-218750D01*
G01*
X153955000Y-105031250D01*
G75*
G02*
X153736250Y-105250000I-218750J0D01*
G01*
X153298750Y-105250000D01*
G75*
G02*
X153080000Y-105031250I0J218750D01*
G01*
G37*
%TD*%
%TO.C,C11*%
G36*
G01*
X141415000Y-92537500D02*
X141415000Y-92882500D01*
G75*
G02*
X141267500Y-93030000I-147500J0D01*
G01*
X140972500Y-93030000D01*
G75*
G02*
X140825000Y-92882500I0J147500D01*
G01*
X140825000Y-92537500D01*
G75*
G02*
X140972500Y-92390000I147500J0D01*
G01*
X141267500Y-92390000D01*
G75*
G02*
X141415000Y-92537500I0J-147500D01*
G01*
G37*
G36*
G01*
X142385000Y-92537500D02*
X142385000Y-92882500D01*
G75*
G02*
X142237500Y-93030000I-147500J0D01*
G01*
X141942500Y-93030000D01*
G75*
G02*
X141795000Y-92882500I0J147500D01*
G01*
X141795000Y-92537500D01*
G75*
G02*
X141942500Y-92390000I147500J0D01*
G01*
X142237500Y-92390000D01*
G75*
G02*
X142385000Y-92537500I0J-147500D01*
G01*
G37*
%TD*%
%TO.C,C9*%
G36*
G01*
X139527500Y-103060000D02*
X139872500Y-103060000D01*
G75*
G02*
X140020000Y-103207500I0J-147500D01*
G01*
X140020000Y-103502500D01*
G75*
G02*
X139872500Y-103650000I-147500J0D01*
G01*
X139527500Y-103650000D01*
G75*
G02*
X139380000Y-103502500I0J147500D01*
G01*
X139380000Y-103207500D01*
G75*
G02*
X139527500Y-103060000I147500J0D01*
G01*
G37*
G36*
G01*
X139527500Y-102090000D02*
X139872500Y-102090000D01*
G75*
G02*
X140020000Y-102237500I0J-147500D01*
G01*
X140020000Y-102532500D01*
G75*
G02*
X139872500Y-102680000I-147500J0D01*
G01*
X139527500Y-102680000D01*
G75*
G02*
X139380000Y-102532500I0J147500D01*
G01*
X139380000Y-102237500D01*
G75*
G02*
X139527500Y-102090000I147500J0D01*
G01*
G37*
%TD*%
%TO.C,C8*%
G36*
G01*
X155130000Y-103042500D02*
X155130000Y-102697500D01*
G75*
G02*
X155277500Y-102550000I147500J0D01*
G01*
X155572500Y-102550000D01*
G75*
G02*
X155720000Y-102697500I0J-147500D01*
G01*
X155720000Y-103042500D01*
G75*
G02*
X155572500Y-103190000I-147500J0D01*
G01*
X155277500Y-103190000D01*
G75*
G02*
X155130000Y-103042500I0J147500D01*
G01*
G37*
G36*
G01*
X154160000Y-103042500D02*
X154160000Y-102697500D01*
G75*
G02*
X154307500Y-102550000I147500J0D01*
G01*
X154602500Y-102550000D01*
G75*
G02*
X154750000Y-102697500I0J-147500D01*
G01*
X154750000Y-103042500D01*
G75*
G02*
X154602500Y-103190000I-147500J0D01*
G01*
X154307500Y-103190000D01*
G75*
G02*
X154160000Y-103042500I0J147500D01*
G01*
G37*
%TD*%
%TO.C,C7*%
G36*
G01*
X154645000Y-92882500D02*
X154645000Y-92537500D01*
G75*
G02*
X154792500Y-92390000I147500J0D01*
G01*
X155087500Y-92390000D01*
G75*
G02*
X155235000Y-92537500I0J-147500D01*
G01*
X155235000Y-92882500D01*
G75*
G02*
X155087500Y-93030000I-147500J0D01*
G01*
X154792500Y-93030000D01*
G75*
G02*
X154645000Y-92882500I0J147500D01*
G01*
G37*
G36*
G01*
X153675000Y-92882500D02*
X153675000Y-92537500D01*
G75*
G02*
X153822500Y-92390000I147500J0D01*
G01*
X154117500Y-92390000D01*
G75*
G02*
X154265000Y-92537500I0J-147500D01*
G01*
X154265000Y-92882500D01*
G75*
G02*
X154117500Y-93030000I-147500J0D01*
G01*
X153822500Y-93030000D01*
G75*
G02*
X153675000Y-92882500I0J147500D01*
G01*
G37*
%TD*%
%TO.C,C5*%
G36*
G01*
X144590000Y-105237500D02*
X144590000Y-105582500D01*
G75*
G02*
X144442500Y-105730000I-147500J0D01*
G01*
X144147500Y-105730000D01*
G75*
G02*
X144000000Y-105582500I0J147500D01*
G01*
X144000000Y-105237500D01*
G75*
G02*
X144147500Y-105090000I147500J0D01*
G01*
X144442500Y-105090000D01*
G75*
G02*
X144590000Y-105237500I0J-147500D01*
G01*
G37*
G36*
G01*
X145560000Y-105237500D02*
X145560000Y-105582500D01*
G75*
G02*
X145412500Y-105730000I-147500J0D01*
G01*
X145117500Y-105730000D01*
G75*
G02*
X144970000Y-105582500I0J147500D01*
G01*
X144970000Y-105237500D01*
G75*
G02*
X145117500Y-105090000I147500J0D01*
G01*
X145412500Y-105090000D01*
G75*
G02*
X145560000Y-105237500I0J-147500D01*
G01*
G37*
%TD*%
D11*
%TO.C,D2*%
X164135000Y-94525000D03*
X167335000Y-94525000D03*
X164135000Y-89625000D03*
X167335000Y-89625000D03*
%TD*%
D12*
%TO.C,J1*%
X172687500Y-98155000D03*
D13*
X169987500Y-97155000D03*
X169987500Y-96505000D03*
X169987500Y-95855000D03*
X169987500Y-98455000D03*
X169987500Y-97805000D03*
D12*
X172687500Y-96155000D03*
%TD*%
D14*
%TO.C,U1*%
X162800000Y-105385000D03*
X167400000Y-105385000D03*
X165100000Y-105385000D03*
D15*
X165100000Y-99085000D03*
%TD*%
%TO.C,C4*%
G36*
G01*
X165290000Y-96692500D02*
X165290000Y-96347500D01*
G75*
G02*
X165437500Y-96200000I147500J0D01*
G01*
X165732500Y-96200000D01*
G75*
G02*
X165880000Y-96347500I0J-147500D01*
G01*
X165880000Y-96692500D01*
G75*
G02*
X165732500Y-96840000I-147500J0D01*
G01*
X165437500Y-96840000D01*
G75*
G02*
X165290000Y-96692500I0J147500D01*
G01*
G37*
G36*
G01*
X164320000Y-96692500D02*
X164320000Y-96347500D01*
G75*
G02*
X164467500Y-96200000I147500J0D01*
G01*
X164762500Y-96200000D01*
G75*
G02*
X164910000Y-96347500I0J-147500D01*
G01*
X164910000Y-96692500D01*
G75*
G02*
X164762500Y-96840000I-147500J0D01*
G01*
X164467500Y-96840000D01*
G75*
G02*
X164320000Y-96692500I0J147500D01*
G01*
G37*
%TD*%
%TO.C,C3*%
G36*
G01*
X160476250Y-101150000D02*
X159563750Y-101150000D01*
G75*
G02*
X159320000Y-100906250I0J243750D01*
G01*
X159320000Y-100418750D01*
G75*
G02*
X159563750Y-100175000I243750J0D01*
G01*
X160476250Y-100175000D01*
G75*
G02*
X160720000Y-100418750I0J-243750D01*
G01*
X160720000Y-100906250D01*
G75*
G02*
X160476250Y-101150000I-243750J0D01*
G01*
G37*
G36*
G01*
X160476250Y-103025000D02*
X159563750Y-103025000D01*
G75*
G02*
X159320000Y-102781250I0J243750D01*
G01*
X159320000Y-102293750D01*
G75*
G02*
X159563750Y-102050000I243750J0D01*
G01*
X160476250Y-102050000D01*
G75*
G02*
X160720000Y-102293750I0J-243750D01*
G01*
X160720000Y-102781250D01*
G75*
G02*
X160476250Y-103025000I-243750J0D01*
G01*
G37*
%TD*%
%TO.C,C2*%
G36*
G01*
X159563750Y-105860000D02*
X160476250Y-105860000D01*
G75*
G02*
X160720000Y-106103750I0J-243750D01*
G01*
X160720000Y-106591250D01*
G75*
G02*
X160476250Y-106835000I-243750J0D01*
G01*
X159563750Y-106835000D01*
G75*
G02*
X159320000Y-106591250I0J243750D01*
G01*
X159320000Y-106103750D01*
G75*
G02*
X159563750Y-105860000I243750J0D01*
G01*
G37*
G36*
G01*
X159563750Y-103985000D02*
X160476250Y-103985000D01*
G75*
G02*
X160720000Y-104228750I0J-243750D01*
G01*
X160720000Y-104716250D01*
G75*
G02*
X160476250Y-104960000I-243750J0D01*
G01*
X159563750Y-104960000D01*
G75*
G02*
X159320000Y-104716250I0J243750D01*
G01*
X159320000Y-104228750D01*
G75*
G02*
X159563750Y-103985000I243750J0D01*
G01*
G37*
%TD*%
%TO.C,C1*%
G36*
G01*
X171900000Y-106501250D02*
X171900000Y-105588750D01*
G75*
G02*
X172143750Y-105345000I243750J0D01*
G01*
X172631250Y-105345000D01*
G75*
G02*
X172875000Y-105588750I0J-243750D01*
G01*
X172875000Y-106501250D01*
G75*
G02*
X172631250Y-106745000I-243750J0D01*
G01*
X172143750Y-106745000D01*
G75*
G02*
X171900000Y-106501250I0J243750D01*
G01*
G37*
G36*
G01*
X170025000Y-106501250D02*
X170025000Y-105588750D01*
G75*
G02*
X170268750Y-105345000I243750J0D01*
G01*
X170756250Y-105345000D01*
G75*
G02*
X171000000Y-105588750I0J-243750D01*
G01*
X171000000Y-106501250D01*
G75*
G02*
X170756250Y-106745000I-243750J0D01*
G01*
X170268750Y-106745000D01*
G75*
G02*
X170025000Y-106501250I0J243750D01*
G01*
G37*
%TD*%
D16*
%TO.C,Y1*%
X139915000Y-94785000D03*
X139915000Y-96985000D03*
X138215000Y-96985000D03*
X138215000Y-94785000D03*
%TD*%
%TO.C,U2*%
G36*
G01*
X144265000Y-92690000D02*
X144265000Y-91290000D01*
G75*
G02*
X144340000Y-91215000I75000J0D01*
G01*
X144490000Y-91215000D01*
G75*
G02*
X144565000Y-91290000I0J-75000D01*
G01*
X144565000Y-92690000D01*
G75*
G02*
X144490000Y-92765000I-75000J0D01*
G01*
X144340000Y-92765000D01*
G75*
G02*
X144265000Y-92690000I0J75000D01*
G01*
G37*
G36*
G01*
X144765000Y-92690000D02*
X144765000Y-91290000D01*
G75*
G02*
X144840000Y-91215000I75000J0D01*
G01*
X144990000Y-91215000D01*
G75*
G02*
X145065000Y-91290000I0J-75000D01*
G01*
X145065000Y-92690000D01*
G75*
G02*
X144990000Y-92765000I-75000J0D01*
G01*
X144840000Y-92765000D01*
G75*
G02*
X144765000Y-92690000I0J75000D01*
G01*
G37*
G36*
G01*
X145265000Y-92690000D02*
X145265000Y-91290000D01*
G75*
G02*
X145340000Y-91215000I75000J0D01*
G01*
X145490000Y-91215000D01*
G75*
G02*
X145565000Y-91290000I0J-75000D01*
G01*
X145565000Y-92690000D01*
G75*
G02*
X145490000Y-92765000I-75000J0D01*
G01*
X145340000Y-92765000D01*
G75*
G02*
X145265000Y-92690000I0J75000D01*
G01*
G37*
G36*
G01*
X145765000Y-92690000D02*
X145765000Y-91290000D01*
G75*
G02*
X145840000Y-91215000I75000J0D01*
G01*
X145990000Y-91215000D01*
G75*
G02*
X146065000Y-91290000I0J-75000D01*
G01*
X146065000Y-92690000D01*
G75*
G02*
X145990000Y-92765000I-75000J0D01*
G01*
X145840000Y-92765000D01*
G75*
G02*
X145765000Y-92690000I0J75000D01*
G01*
G37*
G36*
G01*
X146265000Y-92690000D02*
X146265000Y-91290000D01*
G75*
G02*
X146340000Y-91215000I75000J0D01*
G01*
X146490000Y-91215000D01*
G75*
G02*
X146565000Y-91290000I0J-75000D01*
G01*
X146565000Y-92690000D01*
G75*
G02*
X146490000Y-92765000I-75000J0D01*
G01*
X146340000Y-92765000D01*
G75*
G02*
X146265000Y-92690000I0J75000D01*
G01*
G37*
G36*
G01*
X146765000Y-92690000D02*
X146765000Y-91290000D01*
G75*
G02*
X146840000Y-91215000I75000J0D01*
G01*
X146990000Y-91215000D01*
G75*
G02*
X147065000Y-91290000I0J-75000D01*
G01*
X147065000Y-92690000D01*
G75*
G02*
X146990000Y-92765000I-75000J0D01*
G01*
X146840000Y-92765000D01*
G75*
G02*
X146765000Y-92690000I0J75000D01*
G01*
G37*
G36*
G01*
X147265000Y-92690000D02*
X147265000Y-91290000D01*
G75*
G02*
X147340000Y-91215000I75000J0D01*
G01*
X147490000Y-91215000D01*
G75*
G02*
X147565000Y-91290000I0J-75000D01*
G01*
X147565000Y-92690000D01*
G75*
G02*
X147490000Y-92765000I-75000J0D01*
G01*
X147340000Y-92765000D01*
G75*
G02*
X147265000Y-92690000I0J75000D01*
G01*
G37*
G36*
G01*
X147765000Y-92690000D02*
X147765000Y-91290000D01*
G75*
G02*
X147840000Y-91215000I75000J0D01*
G01*
X147990000Y-91215000D01*
G75*
G02*
X148065000Y-91290000I0J-75000D01*
G01*
X148065000Y-92690000D01*
G75*
G02*
X147990000Y-92765000I-75000J0D01*
G01*
X147840000Y-92765000D01*
G75*
G02*
X147765000Y-92690000I0J75000D01*
G01*
G37*
G36*
G01*
X148265000Y-92690000D02*
X148265000Y-91290000D01*
G75*
G02*
X148340000Y-91215000I75000J0D01*
G01*
X148490000Y-91215000D01*
G75*
G02*
X148565000Y-91290000I0J-75000D01*
G01*
X148565000Y-92690000D01*
G75*
G02*
X148490000Y-92765000I-75000J0D01*
G01*
X148340000Y-92765000D01*
G75*
G02*
X148265000Y-92690000I0J75000D01*
G01*
G37*
G36*
G01*
X148765000Y-92690000D02*
X148765000Y-91290000D01*
G75*
G02*
X148840000Y-91215000I75000J0D01*
G01*
X148990000Y-91215000D01*
G75*
G02*
X149065000Y-91290000I0J-75000D01*
G01*
X149065000Y-92690000D01*
G75*
G02*
X148990000Y-92765000I-75000J0D01*
G01*
X148840000Y-92765000D01*
G75*
G02*
X148765000Y-92690000I0J75000D01*
G01*
G37*
G36*
G01*
X149265000Y-92690000D02*
X149265000Y-91290000D01*
G75*
G02*
X149340000Y-91215000I75000J0D01*
G01*
X149490000Y-91215000D01*
G75*
G02*
X149565000Y-91290000I0J-75000D01*
G01*
X149565000Y-92690000D01*
G75*
G02*
X149490000Y-92765000I-75000J0D01*
G01*
X149340000Y-92765000D01*
G75*
G02*
X149265000Y-92690000I0J75000D01*
G01*
G37*
G36*
G01*
X149765000Y-92690000D02*
X149765000Y-91290000D01*
G75*
G02*
X149840000Y-91215000I75000J0D01*
G01*
X149990000Y-91215000D01*
G75*
G02*
X150065000Y-91290000I0J-75000D01*
G01*
X150065000Y-92690000D01*
G75*
G02*
X149990000Y-92765000I-75000J0D01*
G01*
X149840000Y-92765000D01*
G75*
G02*
X149765000Y-92690000I0J75000D01*
G01*
G37*
G36*
G01*
X150265000Y-92690000D02*
X150265000Y-91290000D01*
G75*
G02*
X150340000Y-91215000I75000J0D01*
G01*
X150490000Y-91215000D01*
G75*
G02*
X150565000Y-91290000I0J-75000D01*
G01*
X150565000Y-92690000D01*
G75*
G02*
X150490000Y-92765000I-75000J0D01*
G01*
X150340000Y-92765000D01*
G75*
G02*
X150265000Y-92690000I0J75000D01*
G01*
G37*
G36*
G01*
X150765000Y-92690000D02*
X150765000Y-91290000D01*
G75*
G02*
X150840000Y-91215000I75000J0D01*
G01*
X150990000Y-91215000D01*
G75*
G02*
X151065000Y-91290000I0J-75000D01*
G01*
X151065000Y-92690000D01*
G75*
G02*
X150990000Y-92765000I-75000J0D01*
G01*
X150840000Y-92765000D01*
G75*
G02*
X150765000Y-92690000I0J75000D01*
G01*
G37*
G36*
G01*
X151265000Y-92690000D02*
X151265000Y-91290000D01*
G75*
G02*
X151340000Y-91215000I75000J0D01*
G01*
X151490000Y-91215000D01*
G75*
G02*
X151565000Y-91290000I0J-75000D01*
G01*
X151565000Y-92690000D01*
G75*
G02*
X151490000Y-92765000I-75000J0D01*
G01*
X151340000Y-92765000D01*
G75*
G02*
X151265000Y-92690000I0J75000D01*
G01*
G37*
G36*
G01*
X151765000Y-92690000D02*
X151765000Y-91290000D01*
G75*
G02*
X151840000Y-91215000I75000J0D01*
G01*
X151990000Y-91215000D01*
G75*
G02*
X152065000Y-91290000I0J-75000D01*
G01*
X152065000Y-92690000D01*
G75*
G02*
X151990000Y-92765000I-75000J0D01*
G01*
X151840000Y-92765000D01*
G75*
G02*
X151765000Y-92690000I0J75000D01*
G01*
G37*
G36*
G01*
X153065000Y-93990000D02*
X153065000Y-93840000D01*
G75*
G02*
X153140000Y-93765000I75000J0D01*
G01*
X154540000Y-93765000D01*
G75*
G02*
X154615000Y-93840000I0J-75000D01*
G01*
X154615000Y-93990000D01*
G75*
G02*
X154540000Y-94065000I-75000J0D01*
G01*
X153140000Y-94065000D01*
G75*
G02*
X153065000Y-93990000I0J75000D01*
G01*
G37*
G36*
G01*
X153065000Y-94490000D02*
X153065000Y-94340000D01*
G75*
G02*
X153140000Y-94265000I75000J0D01*
G01*
X154540000Y-94265000D01*
G75*
G02*
X154615000Y-94340000I0J-75000D01*
G01*
X154615000Y-94490000D01*
G75*
G02*
X154540000Y-94565000I-75000J0D01*
G01*
X153140000Y-94565000D01*
G75*
G02*
X153065000Y-94490000I0J75000D01*
G01*
G37*
G36*
G01*
X153065000Y-94990000D02*
X153065000Y-94840000D01*
G75*
G02*
X153140000Y-94765000I75000J0D01*
G01*
X154540000Y-94765000D01*
G75*
G02*
X154615000Y-94840000I0J-75000D01*
G01*
X154615000Y-94990000D01*
G75*
G02*
X154540000Y-95065000I-75000J0D01*
G01*
X153140000Y-95065000D01*
G75*
G02*
X153065000Y-94990000I0J75000D01*
G01*
G37*
G36*
G01*
X153065000Y-95490000D02*
X153065000Y-95340000D01*
G75*
G02*
X153140000Y-95265000I75000J0D01*
G01*
X154540000Y-95265000D01*
G75*
G02*
X154615000Y-95340000I0J-75000D01*
G01*
X154615000Y-95490000D01*
G75*
G02*
X154540000Y-95565000I-75000J0D01*
G01*
X153140000Y-95565000D01*
G75*
G02*
X153065000Y-95490000I0J75000D01*
G01*
G37*
G36*
G01*
X153065000Y-95990000D02*
X153065000Y-95840000D01*
G75*
G02*
X153140000Y-95765000I75000J0D01*
G01*
X154540000Y-95765000D01*
G75*
G02*
X154615000Y-95840000I0J-75000D01*
G01*
X154615000Y-95990000D01*
G75*
G02*
X154540000Y-96065000I-75000J0D01*
G01*
X153140000Y-96065000D01*
G75*
G02*
X153065000Y-95990000I0J75000D01*
G01*
G37*
G36*
G01*
X153065000Y-96490000D02*
X153065000Y-96340000D01*
G75*
G02*
X153140000Y-96265000I75000J0D01*
G01*
X154540000Y-96265000D01*
G75*
G02*
X154615000Y-96340000I0J-75000D01*
G01*
X154615000Y-96490000D01*
G75*
G02*
X154540000Y-96565000I-75000J0D01*
G01*
X153140000Y-96565000D01*
G75*
G02*
X153065000Y-96490000I0J75000D01*
G01*
G37*
G36*
G01*
X153065000Y-96990000D02*
X153065000Y-96840000D01*
G75*
G02*
X153140000Y-96765000I75000J0D01*
G01*
X154540000Y-96765000D01*
G75*
G02*
X154615000Y-96840000I0J-75000D01*
G01*
X154615000Y-96990000D01*
G75*
G02*
X154540000Y-97065000I-75000J0D01*
G01*
X153140000Y-97065000D01*
G75*
G02*
X153065000Y-96990000I0J75000D01*
G01*
G37*
G36*
G01*
X153065000Y-97490000D02*
X153065000Y-97340000D01*
G75*
G02*
X153140000Y-97265000I75000J0D01*
G01*
X154540000Y-97265000D01*
G75*
G02*
X154615000Y-97340000I0J-75000D01*
G01*
X154615000Y-97490000D01*
G75*
G02*
X154540000Y-97565000I-75000J0D01*
G01*
X153140000Y-97565000D01*
G75*
G02*
X153065000Y-97490000I0J75000D01*
G01*
G37*
G36*
G01*
X153065000Y-97990000D02*
X153065000Y-97840000D01*
G75*
G02*
X153140000Y-97765000I75000J0D01*
G01*
X154540000Y-97765000D01*
G75*
G02*
X154615000Y-97840000I0J-75000D01*
G01*
X154615000Y-97990000D01*
G75*
G02*
X154540000Y-98065000I-75000J0D01*
G01*
X153140000Y-98065000D01*
G75*
G02*
X153065000Y-97990000I0J75000D01*
G01*
G37*
G36*
G01*
X153065000Y-98490000D02*
X153065000Y-98340000D01*
G75*
G02*
X153140000Y-98265000I75000J0D01*
G01*
X154540000Y-98265000D01*
G75*
G02*
X154615000Y-98340000I0J-75000D01*
G01*
X154615000Y-98490000D01*
G75*
G02*
X154540000Y-98565000I-75000J0D01*
G01*
X153140000Y-98565000D01*
G75*
G02*
X153065000Y-98490000I0J75000D01*
G01*
G37*
G36*
G01*
X153065000Y-98990000D02*
X153065000Y-98840000D01*
G75*
G02*
X153140000Y-98765000I75000J0D01*
G01*
X154540000Y-98765000D01*
G75*
G02*
X154615000Y-98840000I0J-75000D01*
G01*
X154615000Y-98990000D01*
G75*
G02*
X154540000Y-99065000I-75000J0D01*
G01*
X153140000Y-99065000D01*
G75*
G02*
X153065000Y-98990000I0J75000D01*
G01*
G37*
G36*
G01*
X153065000Y-99490000D02*
X153065000Y-99340000D01*
G75*
G02*
X153140000Y-99265000I75000J0D01*
G01*
X154540000Y-99265000D01*
G75*
G02*
X154615000Y-99340000I0J-75000D01*
G01*
X154615000Y-99490000D01*
G75*
G02*
X154540000Y-99565000I-75000J0D01*
G01*
X153140000Y-99565000D01*
G75*
G02*
X153065000Y-99490000I0J75000D01*
G01*
G37*
G36*
G01*
X153065000Y-99990000D02*
X153065000Y-99840000D01*
G75*
G02*
X153140000Y-99765000I75000J0D01*
G01*
X154540000Y-99765000D01*
G75*
G02*
X154615000Y-99840000I0J-75000D01*
G01*
X154615000Y-99990000D01*
G75*
G02*
X154540000Y-100065000I-75000J0D01*
G01*
X153140000Y-100065000D01*
G75*
G02*
X153065000Y-99990000I0J75000D01*
G01*
G37*
G36*
G01*
X153065000Y-100490000D02*
X153065000Y-100340000D01*
G75*
G02*
X153140000Y-100265000I75000J0D01*
G01*
X154540000Y-100265000D01*
G75*
G02*
X154615000Y-100340000I0J-75000D01*
G01*
X154615000Y-100490000D01*
G75*
G02*
X154540000Y-100565000I-75000J0D01*
G01*
X153140000Y-100565000D01*
G75*
G02*
X153065000Y-100490000I0J75000D01*
G01*
G37*
G36*
G01*
X153065000Y-100990000D02*
X153065000Y-100840000D01*
G75*
G02*
X153140000Y-100765000I75000J0D01*
G01*
X154540000Y-100765000D01*
G75*
G02*
X154615000Y-100840000I0J-75000D01*
G01*
X154615000Y-100990000D01*
G75*
G02*
X154540000Y-101065000I-75000J0D01*
G01*
X153140000Y-101065000D01*
G75*
G02*
X153065000Y-100990000I0J75000D01*
G01*
G37*
G36*
G01*
X153065000Y-101490000D02*
X153065000Y-101340000D01*
G75*
G02*
X153140000Y-101265000I75000J0D01*
G01*
X154540000Y-101265000D01*
G75*
G02*
X154615000Y-101340000I0J-75000D01*
G01*
X154615000Y-101490000D01*
G75*
G02*
X154540000Y-101565000I-75000J0D01*
G01*
X153140000Y-101565000D01*
G75*
G02*
X153065000Y-101490000I0J75000D01*
G01*
G37*
G36*
G01*
X151765000Y-104040000D02*
X151765000Y-102640000D01*
G75*
G02*
X151840000Y-102565000I75000J0D01*
G01*
X151990000Y-102565000D01*
G75*
G02*
X152065000Y-102640000I0J-75000D01*
G01*
X152065000Y-104040000D01*
G75*
G02*
X151990000Y-104115000I-75000J0D01*
G01*
X151840000Y-104115000D01*
G75*
G02*
X151765000Y-104040000I0J75000D01*
G01*
G37*
G36*
G01*
X151265000Y-104040000D02*
X151265000Y-102640000D01*
G75*
G02*
X151340000Y-102565000I75000J0D01*
G01*
X151490000Y-102565000D01*
G75*
G02*
X151565000Y-102640000I0J-75000D01*
G01*
X151565000Y-104040000D01*
G75*
G02*
X151490000Y-104115000I-75000J0D01*
G01*
X151340000Y-104115000D01*
G75*
G02*
X151265000Y-104040000I0J75000D01*
G01*
G37*
G36*
G01*
X150765000Y-104040000D02*
X150765000Y-102640000D01*
G75*
G02*
X150840000Y-102565000I75000J0D01*
G01*
X150990000Y-102565000D01*
G75*
G02*
X151065000Y-102640000I0J-75000D01*
G01*
X151065000Y-104040000D01*
G75*
G02*
X150990000Y-104115000I-75000J0D01*
G01*
X150840000Y-104115000D01*
G75*
G02*
X150765000Y-104040000I0J75000D01*
G01*
G37*
G36*
G01*
X150265000Y-104040000D02*
X150265000Y-102640000D01*
G75*
G02*
X150340000Y-102565000I75000J0D01*
G01*
X150490000Y-102565000D01*
G75*
G02*
X150565000Y-102640000I0J-75000D01*
G01*
X150565000Y-104040000D01*
G75*
G02*
X150490000Y-104115000I-75000J0D01*
G01*
X150340000Y-104115000D01*
G75*
G02*
X150265000Y-104040000I0J75000D01*
G01*
G37*
G36*
G01*
X149765000Y-104040000D02*
X149765000Y-102640000D01*
G75*
G02*
X149840000Y-102565000I75000J0D01*
G01*
X149990000Y-102565000D01*
G75*
G02*
X150065000Y-102640000I0J-75000D01*
G01*
X150065000Y-104040000D01*
G75*
G02*
X149990000Y-104115000I-75000J0D01*
G01*
X149840000Y-104115000D01*
G75*
G02*
X149765000Y-104040000I0J75000D01*
G01*
G37*
G36*
G01*
X149265000Y-104040000D02*
X149265000Y-102640000D01*
G75*
G02*
X149340000Y-102565000I75000J0D01*
G01*
X149490000Y-102565000D01*
G75*
G02*
X149565000Y-102640000I0J-75000D01*
G01*
X149565000Y-104040000D01*
G75*
G02*
X149490000Y-104115000I-75000J0D01*
G01*
X149340000Y-104115000D01*
G75*
G02*
X149265000Y-104040000I0J75000D01*
G01*
G37*
G36*
G01*
X148765000Y-104040000D02*
X148765000Y-102640000D01*
G75*
G02*
X148840000Y-102565000I75000J0D01*
G01*
X148990000Y-102565000D01*
G75*
G02*
X149065000Y-102640000I0J-75000D01*
G01*
X149065000Y-104040000D01*
G75*
G02*
X148990000Y-104115000I-75000J0D01*
G01*
X148840000Y-104115000D01*
G75*
G02*
X148765000Y-104040000I0J75000D01*
G01*
G37*
G36*
G01*
X148265000Y-104040000D02*
X148265000Y-102640000D01*
G75*
G02*
X148340000Y-102565000I75000J0D01*
G01*
X148490000Y-102565000D01*
G75*
G02*
X148565000Y-102640000I0J-75000D01*
G01*
X148565000Y-104040000D01*
G75*
G02*
X148490000Y-104115000I-75000J0D01*
G01*
X148340000Y-104115000D01*
G75*
G02*
X148265000Y-104040000I0J75000D01*
G01*
G37*
G36*
G01*
X147765000Y-104040000D02*
X147765000Y-102640000D01*
G75*
G02*
X147840000Y-102565000I75000J0D01*
G01*
X147990000Y-102565000D01*
G75*
G02*
X148065000Y-102640000I0J-75000D01*
G01*
X148065000Y-104040000D01*
G75*
G02*
X147990000Y-104115000I-75000J0D01*
G01*
X147840000Y-104115000D01*
G75*
G02*
X147765000Y-104040000I0J75000D01*
G01*
G37*
G36*
G01*
X147265000Y-104040000D02*
X147265000Y-102640000D01*
G75*
G02*
X147340000Y-102565000I75000J0D01*
G01*
X147490000Y-102565000D01*
G75*
G02*
X147565000Y-102640000I0J-75000D01*
G01*
X147565000Y-104040000D01*
G75*
G02*
X147490000Y-104115000I-75000J0D01*
G01*
X147340000Y-104115000D01*
G75*
G02*
X147265000Y-104040000I0J75000D01*
G01*
G37*
G36*
G01*
X146765000Y-104040000D02*
X146765000Y-102640000D01*
G75*
G02*
X146840000Y-102565000I75000J0D01*
G01*
X146990000Y-102565000D01*
G75*
G02*
X147065000Y-102640000I0J-75000D01*
G01*
X147065000Y-104040000D01*
G75*
G02*
X146990000Y-104115000I-75000J0D01*
G01*
X146840000Y-104115000D01*
G75*
G02*
X146765000Y-104040000I0J75000D01*
G01*
G37*
G36*
G01*
X146265000Y-104040000D02*
X146265000Y-102640000D01*
G75*
G02*
X146340000Y-102565000I75000J0D01*
G01*
X146490000Y-102565000D01*
G75*
G02*
X146565000Y-102640000I0J-75000D01*
G01*
X146565000Y-104040000D01*
G75*
G02*
X146490000Y-104115000I-75000J0D01*
G01*
X146340000Y-104115000D01*
G75*
G02*
X146265000Y-104040000I0J75000D01*
G01*
G37*
G36*
G01*
X145765000Y-104040000D02*
X145765000Y-102640000D01*
G75*
G02*
X145840000Y-102565000I75000J0D01*
G01*
X145990000Y-102565000D01*
G75*
G02*
X146065000Y-102640000I0J-75000D01*
G01*
X146065000Y-104040000D01*
G75*
G02*
X145990000Y-104115000I-75000J0D01*
G01*
X145840000Y-104115000D01*
G75*
G02*
X145765000Y-104040000I0J75000D01*
G01*
G37*
G36*
G01*
X145265000Y-104040000D02*
X145265000Y-102640000D01*
G75*
G02*
X145340000Y-102565000I75000J0D01*
G01*
X145490000Y-102565000D01*
G75*
G02*
X145565000Y-102640000I0J-75000D01*
G01*
X145565000Y-104040000D01*
G75*
G02*
X145490000Y-104115000I-75000J0D01*
G01*
X145340000Y-104115000D01*
G75*
G02*
X145265000Y-104040000I0J75000D01*
G01*
G37*
G36*
G01*
X144765000Y-104040000D02*
X144765000Y-102640000D01*
G75*
G02*
X144840000Y-102565000I75000J0D01*
G01*
X144990000Y-102565000D01*
G75*
G02*
X145065000Y-102640000I0J-75000D01*
G01*
X145065000Y-104040000D01*
G75*
G02*
X144990000Y-104115000I-75000J0D01*
G01*
X144840000Y-104115000D01*
G75*
G02*
X144765000Y-104040000I0J75000D01*
G01*
G37*
G36*
G01*
X144265000Y-104040000D02*
X144265000Y-102640000D01*
G75*
G02*
X144340000Y-102565000I75000J0D01*
G01*
X144490000Y-102565000D01*
G75*
G02*
X144565000Y-102640000I0J-75000D01*
G01*
X144565000Y-104040000D01*
G75*
G02*
X144490000Y-104115000I-75000J0D01*
G01*
X144340000Y-104115000D01*
G75*
G02*
X144265000Y-104040000I0J75000D01*
G01*
G37*
G36*
G01*
X141715000Y-101490000D02*
X141715000Y-101340000D01*
G75*
G02*
X141790000Y-101265000I75000J0D01*
G01*
X143190000Y-101265000D01*
G75*
G02*
X143265000Y-101340000I0J-75000D01*
G01*
X143265000Y-101490000D01*
G75*
G02*
X143190000Y-101565000I-75000J0D01*
G01*
X141790000Y-101565000D01*
G75*
G02*
X141715000Y-101490000I0J75000D01*
G01*
G37*
G36*
G01*
X141715000Y-100990000D02*
X141715000Y-100840000D01*
G75*
G02*
X141790000Y-100765000I75000J0D01*
G01*
X143190000Y-100765000D01*
G75*
G02*
X143265000Y-100840000I0J-75000D01*
G01*
X143265000Y-100990000D01*
G75*
G02*
X143190000Y-101065000I-75000J0D01*
G01*
X141790000Y-101065000D01*
G75*
G02*
X141715000Y-100990000I0J75000D01*
G01*
G37*
G36*
G01*
X141715000Y-100490000D02*
X141715000Y-100340000D01*
G75*
G02*
X141790000Y-100265000I75000J0D01*
G01*
X143190000Y-100265000D01*
G75*
G02*
X143265000Y-100340000I0J-75000D01*
G01*
X143265000Y-100490000D01*
G75*
G02*
X143190000Y-100565000I-75000J0D01*
G01*
X141790000Y-100565000D01*
G75*
G02*
X141715000Y-100490000I0J75000D01*
G01*
G37*
G36*
G01*
X141715000Y-99990000D02*
X141715000Y-99840000D01*
G75*
G02*
X141790000Y-99765000I75000J0D01*
G01*
X143190000Y-99765000D01*
G75*
G02*
X143265000Y-99840000I0J-75000D01*
G01*
X143265000Y-99990000D01*
G75*
G02*
X143190000Y-100065000I-75000J0D01*
G01*
X141790000Y-100065000D01*
G75*
G02*
X141715000Y-99990000I0J75000D01*
G01*
G37*
G36*
G01*
X141715000Y-99490000D02*
X141715000Y-99340000D01*
G75*
G02*
X141790000Y-99265000I75000J0D01*
G01*
X143190000Y-99265000D01*
G75*
G02*
X143265000Y-99340000I0J-75000D01*
G01*
X143265000Y-99490000D01*
G75*
G02*
X143190000Y-99565000I-75000J0D01*
G01*
X141790000Y-99565000D01*
G75*
G02*
X141715000Y-99490000I0J75000D01*
G01*
G37*
G36*
G01*
X141715000Y-98990000D02*
X141715000Y-98840000D01*
G75*
G02*
X141790000Y-98765000I75000J0D01*
G01*
X143190000Y-98765000D01*
G75*
G02*
X143265000Y-98840000I0J-75000D01*
G01*
X143265000Y-98990000D01*
G75*
G02*
X143190000Y-99065000I-75000J0D01*
G01*
X141790000Y-99065000D01*
G75*
G02*
X141715000Y-98990000I0J75000D01*
G01*
G37*
G36*
G01*
X141715000Y-98490000D02*
X141715000Y-98340000D01*
G75*
G02*
X141790000Y-98265000I75000J0D01*
G01*
X143190000Y-98265000D01*
G75*
G02*
X143265000Y-98340000I0J-75000D01*
G01*
X143265000Y-98490000D01*
G75*
G02*
X143190000Y-98565000I-75000J0D01*
G01*
X141790000Y-98565000D01*
G75*
G02*
X141715000Y-98490000I0J75000D01*
G01*
G37*
G36*
G01*
X141715000Y-97990000D02*
X141715000Y-97840000D01*
G75*
G02*
X141790000Y-97765000I75000J0D01*
G01*
X143190000Y-97765000D01*
G75*
G02*
X143265000Y-97840000I0J-75000D01*
G01*
X143265000Y-97990000D01*
G75*
G02*
X143190000Y-98065000I-75000J0D01*
G01*
X141790000Y-98065000D01*
G75*
G02*
X141715000Y-97990000I0J75000D01*
G01*
G37*
G36*
G01*
X141715000Y-97490000D02*
X141715000Y-97340000D01*
G75*
G02*
X141790000Y-97265000I75000J0D01*
G01*
X143190000Y-97265000D01*
G75*
G02*
X143265000Y-97340000I0J-75000D01*
G01*
X143265000Y-97490000D01*
G75*
G02*
X143190000Y-97565000I-75000J0D01*
G01*
X141790000Y-97565000D01*
G75*
G02*
X141715000Y-97490000I0J75000D01*
G01*
G37*
G36*
G01*
X141715000Y-96990000D02*
X141715000Y-96840000D01*
G75*
G02*
X141790000Y-96765000I75000J0D01*
G01*
X143190000Y-96765000D01*
G75*
G02*
X143265000Y-96840000I0J-75000D01*
G01*
X143265000Y-96990000D01*
G75*
G02*
X143190000Y-97065000I-75000J0D01*
G01*
X141790000Y-97065000D01*
G75*
G02*
X141715000Y-96990000I0J75000D01*
G01*
G37*
G36*
G01*
X141715000Y-96490000D02*
X141715000Y-96340000D01*
G75*
G02*
X141790000Y-96265000I75000J0D01*
G01*
X143190000Y-96265000D01*
G75*
G02*
X143265000Y-96340000I0J-75000D01*
G01*
X143265000Y-96490000D01*
G75*
G02*
X143190000Y-96565000I-75000J0D01*
G01*
X141790000Y-96565000D01*
G75*
G02*
X141715000Y-96490000I0J75000D01*
G01*
G37*
G36*
G01*
X141715000Y-95990000D02*
X141715000Y-95840000D01*
G75*
G02*
X141790000Y-95765000I75000J0D01*
G01*
X143190000Y-95765000D01*
G75*
G02*
X143265000Y-95840000I0J-75000D01*
G01*
X143265000Y-95990000D01*
G75*
G02*
X143190000Y-96065000I-75000J0D01*
G01*
X141790000Y-96065000D01*
G75*
G02*
X141715000Y-95990000I0J75000D01*
G01*
G37*
G36*
G01*
X141715000Y-95490000D02*
X141715000Y-95340000D01*
G75*
G02*
X141790000Y-95265000I75000J0D01*
G01*
X143190000Y-95265000D01*
G75*
G02*
X143265000Y-95340000I0J-75000D01*
G01*
X143265000Y-95490000D01*
G75*
G02*
X143190000Y-95565000I-75000J0D01*
G01*
X141790000Y-95565000D01*
G75*
G02*
X141715000Y-95490000I0J75000D01*
G01*
G37*
G36*
G01*
X141715000Y-94990000D02*
X141715000Y-94840000D01*
G75*
G02*
X141790000Y-94765000I75000J0D01*
G01*
X143190000Y-94765000D01*
G75*
G02*
X143265000Y-94840000I0J-75000D01*
G01*
X143265000Y-94990000D01*
G75*
G02*
X143190000Y-95065000I-75000J0D01*
G01*
X141790000Y-95065000D01*
G75*
G02*
X141715000Y-94990000I0J75000D01*
G01*
G37*
G36*
G01*
X141715000Y-94490000D02*
X141715000Y-94340000D01*
G75*
G02*
X141790000Y-94265000I75000J0D01*
G01*
X143190000Y-94265000D01*
G75*
G02*
X143265000Y-94340000I0J-75000D01*
G01*
X143265000Y-94490000D01*
G75*
G02*
X143190000Y-94565000I-75000J0D01*
G01*
X141790000Y-94565000D01*
G75*
G02*
X141715000Y-94490000I0J75000D01*
G01*
G37*
G36*
G01*
X141715000Y-93990000D02*
X141715000Y-93840000D01*
G75*
G02*
X141790000Y-93765000I75000J0D01*
G01*
X143190000Y-93765000D01*
G75*
G02*
X143265000Y-93840000I0J-75000D01*
G01*
X143265000Y-93990000D01*
G75*
G02*
X143190000Y-94065000I-75000J0D01*
G01*
X141790000Y-94065000D01*
G75*
G02*
X141715000Y-93990000I0J75000D01*
G01*
G37*
%TD*%
M02*
