%TF.GenerationSoftware,KiCad,Pcbnew,5.1.6+dfsg1-1*%
%TF.CreationDate,2020-06-20T18:18:21+08:00*%
%TF.ProjectId,stm32dev,73746d33-3264-4657-962e-6b696361645f,a*%
%TF.SameCoordinates,Original*%
%TF.FileFunction,Legend,Top*%
%TF.FilePolarity,Positive*%
%FSLAX46Y46*%
G04 Gerber Fmt 4.6, Leading zero omitted, Abs format (unit mm)*
G04 Created by KiCad (PCBNEW 5.1.6+dfsg1-1) date 2020-06-20 18:18:21*
%MOMM*%
%LPD*%
G01*
G04 APERTURE LIST*
%ADD10C,0.150000*%
%ADD11C,0.120000*%
G04 APERTURE END LIST*
D10*
X172627136Y-87588351D02*
X172542106Y-87593455D01*
X172443132Y-87650598D01*
X172363205Y-87740732D01*
X172335317Y-87844810D01*
X172340421Y-87929841D01*
X172383620Y-88080854D01*
X172440763Y-88179829D01*
X172549945Y-88292747D01*
X172621031Y-88339682D01*
X172725110Y-88367570D01*
X172843132Y-88343418D01*
X172909114Y-88305323D01*
X172989041Y-88215189D01*
X173002985Y-88163150D01*
X172869652Y-87932210D01*
X172737686Y-88008400D01*
X173338003Y-88057704D02*
X172938003Y-87364884D01*
X173733901Y-87829133D01*
X173333901Y-87136312D01*
X174063815Y-87638656D02*
X173663815Y-86945836D01*
X173828772Y-86850598D01*
X173946794Y-86826446D01*
X174050872Y-86854334D01*
X174121959Y-86901269D01*
X174231141Y-87014188D01*
X174288284Y-87113162D01*
X174331483Y-87264175D01*
X174336587Y-87349206D01*
X174308699Y-87453284D01*
X174228772Y-87543418D01*
X174063815Y-87638656D01*
X170166062Y-88334578D02*
X170152118Y-88386617D01*
X170072191Y-88476752D01*
X170006209Y-88514847D01*
X169888187Y-88538998D01*
X169784108Y-88511111D01*
X169713022Y-88464175D01*
X169603840Y-88351257D01*
X169546697Y-88252283D01*
X169503498Y-88101269D01*
X169498394Y-88016239D01*
X169526282Y-87912161D01*
X169606209Y-87822026D01*
X169672191Y-87783931D01*
X169790213Y-87759780D01*
X169842252Y-87773724D01*
X170106184Y-87621343D02*
X170120128Y-87569304D01*
X170167063Y-87498217D01*
X170332020Y-87402979D01*
X170417051Y-87397875D01*
X170469090Y-87411819D01*
X170540177Y-87458754D01*
X170578272Y-87524737D01*
X170602423Y-87642759D01*
X170435097Y-88267228D01*
X170863986Y-88019609D01*
X171556806Y-87619609D02*
X171135390Y-87423028D01*
X171160909Y-87848180D02*
X170760909Y-87155360D01*
X171024841Y-87002979D01*
X171109871Y-86997875D01*
X171161910Y-87011819D01*
X171232997Y-87058754D01*
X171290140Y-87157728D01*
X171295244Y-87242759D01*
X171281300Y-87294798D01*
X171234364Y-87365885D01*
X170970433Y-87518266D01*
X171387747Y-86793455D02*
X172249627Y-87219609D01*
X171849627Y-86526788D02*
X171787747Y-87486275D01*
X167708541Y-88286959D02*
X167694597Y-88338998D01*
X167614670Y-88429133D01*
X167548687Y-88467228D01*
X167430665Y-88491379D01*
X167326587Y-88463492D01*
X167255500Y-88416556D01*
X167146318Y-88303638D01*
X167089176Y-88204664D01*
X167045977Y-88053650D01*
X167040873Y-87968620D01*
X167068760Y-87864542D01*
X167148687Y-87774407D01*
X167214670Y-87736312D01*
X167332692Y-87712161D01*
X167384731Y-87726105D01*
X167648663Y-87573724D02*
X167662606Y-87521685D01*
X167709542Y-87450598D01*
X167874499Y-87355360D01*
X167959529Y-87350256D01*
X168011569Y-87364200D01*
X168082655Y-87411135D01*
X168120750Y-87477118D01*
X168144902Y-87595140D01*
X167977576Y-88219609D01*
X168406465Y-87971990D01*
X168204413Y-87164884D02*
X168600311Y-86936312D01*
X168802362Y-87743418D02*
X168402362Y-87050598D01*
X168765268Y-86841074D02*
X169627148Y-87267228D01*
X169227148Y-86574407D02*
X169165268Y-87533894D01*
X165058174Y-88438656D02*
X164658174Y-87745836D01*
X164922106Y-87593455D01*
X165007136Y-87588351D01*
X165059175Y-87602295D01*
X165130262Y-87649230D01*
X165187405Y-87748205D01*
X165192509Y-87833235D01*
X165178565Y-87885274D01*
X165131630Y-87956361D01*
X164867698Y-88108742D01*
X166108797Y-87744102D02*
X166094853Y-87796141D01*
X166014926Y-87886275D01*
X165948943Y-87924371D01*
X165830921Y-87948522D01*
X165726843Y-87920634D01*
X165655757Y-87873699D01*
X165546575Y-87760781D01*
X165489432Y-87661807D01*
X165446233Y-87510793D01*
X165441129Y-87425763D01*
X165469017Y-87321685D01*
X165548943Y-87231550D01*
X165614926Y-87193455D01*
X165732948Y-87169304D01*
X165784987Y-87183247D01*
X166340738Y-86774407D02*
X166208772Y-86850598D01*
X166161837Y-86921685D01*
X166147893Y-86973724D01*
X166139053Y-87110793D01*
X166182252Y-87261807D01*
X166334633Y-87525738D01*
X166405720Y-87572673D01*
X166457759Y-87586617D01*
X166542789Y-87581513D01*
X166674755Y-87505323D01*
X166721690Y-87434236D01*
X166735634Y-87382197D01*
X166730530Y-87297167D01*
X166635292Y-87132210D01*
X166564206Y-87085274D01*
X166512167Y-87071330D01*
X166427136Y-87076434D01*
X166295170Y-87152625D01*
X166248235Y-87223711D01*
X166234291Y-87275750D01*
X166239395Y-87360781D01*
X162518174Y-88438656D02*
X162118174Y-87745836D01*
X162382106Y-87593455D01*
X162467136Y-87588351D01*
X162519175Y-87602295D01*
X162590262Y-87649230D01*
X162647405Y-87748205D01*
X162652509Y-87833235D01*
X162638565Y-87885274D01*
X162591630Y-87956361D01*
X162327698Y-88108742D01*
X163568797Y-87744102D02*
X163554853Y-87796141D01*
X163474926Y-87886275D01*
X163408943Y-87924371D01*
X163290921Y-87948522D01*
X163186843Y-87920634D01*
X163115757Y-87873699D01*
X163006575Y-87760781D01*
X162949432Y-87661807D01*
X162906233Y-87510793D01*
X162901129Y-87425763D01*
X162929017Y-87321685D01*
X163008943Y-87231550D01*
X163074926Y-87193455D01*
X163192948Y-87169304D01*
X163244987Y-87183247D01*
X163437832Y-86983931D02*
X163899712Y-86717265D01*
X164002789Y-87581513D01*
X159809114Y-87612503D02*
X160094829Y-88107374D01*
X160118980Y-88225396D01*
X160091092Y-88329474D01*
X160011166Y-88419609D01*
X159945183Y-88457704D01*
X160539029Y-88114847D02*
X160139029Y-87422026D01*
X160655683Y-87783565D01*
X160600909Y-87155360D01*
X161000909Y-87848180D01*
X161278784Y-87643760D02*
X161396806Y-87619609D01*
X161561764Y-87524371D01*
X161608699Y-87453284D01*
X161622643Y-87401245D01*
X161617539Y-87316214D01*
X161579444Y-87250231D01*
X161508357Y-87203296D01*
X161456318Y-87189352D01*
X161371287Y-87194456D01*
X161220274Y-87237655D01*
X161135244Y-87242759D01*
X161083204Y-87228815D01*
X161012118Y-87181880D01*
X160974023Y-87115897D01*
X160968919Y-87030866D01*
X160982863Y-86978827D01*
X161029798Y-86907741D01*
X161194755Y-86812503D01*
X161312777Y-86788351D01*
X157021679Y-87755360D02*
X157307393Y-88250231D01*
X157331544Y-88368253D01*
X157303657Y-88472332D01*
X157223730Y-88562466D01*
X157157747Y-88600561D01*
X158109395Y-87963150D02*
X158095451Y-88015189D01*
X158015525Y-88105323D01*
X157949542Y-88143418D01*
X157831520Y-88167570D01*
X157727442Y-88139682D01*
X157656355Y-88092747D01*
X157547173Y-87979829D01*
X157490030Y-87880854D01*
X157446831Y-87729841D01*
X157441727Y-87644810D01*
X157469615Y-87540732D01*
X157549542Y-87450598D01*
X157615525Y-87412503D01*
X157733547Y-87388351D01*
X157785586Y-87402295D01*
X158774328Y-87667228D02*
X158444413Y-87857704D01*
X158044413Y-87164884D01*
X159005268Y-87533894D02*
X158605268Y-86841074D01*
X159401165Y-87305323D02*
X158875671Y-87080854D01*
X159001165Y-86612503D02*
X158833839Y-87236971D01*
X154943559Y-87488693D02*
X155229273Y-87983565D01*
X155253425Y-88101587D01*
X155225537Y-88205665D01*
X155145610Y-88295799D01*
X155079627Y-88333894D01*
X155673473Y-87991037D02*
X155273473Y-87298217D01*
X155438430Y-87202979D01*
X155556452Y-87178827D01*
X155660531Y-87206715D01*
X155731617Y-87253650D01*
X155840799Y-87366569D01*
X155897942Y-87465543D01*
X155941141Y-87616556D01*
X155946245Y-87701587D01*
X155918357Y-87805665D01*
X155838430Y-87895799D01*
X155673473Y-87991037D01*
X156366294Y-87591037D02*
X155966294Y-86898217D01*
X152205610Y-87602979D02*
X152491324Y-88097851D01*
X152515476Y-88215872D01*
X152487588Y-88319951D01*
X152407662Y-88410085D01*
X152341679Y-88448180D01*
X152935525Y-88105323D02*
X152535525Y-87412503D01*
X152700482Y-87317265D01*
X152818504Y-87293113D01*
X152922582Y-87321001D01*
X152993669Y-87367936D01*
X153102851Y-87480854D01*
X153159993Y-87579829D01*
X153203192Y-87730842D01*
X153208296Y-87815872D01*
X153180409Y-87919951D01*
X153100482Y-88010085D01*
X152935525Y-88105323D01*
X153360311Y-86936312D02*
X153492276Y-86860122D01*
X153577307Y-86855018D01*
X153681385Y-86882906D01*
X153790567Y-86995824D01*
X153923900Y-87226764D01*
X153967099Y-87377777D01*
X153939212Y-87481855D01*
X153892276Y-87552942D01*
X153760311Y-87629133D01*
X153675280Y-87634236D01*
X153571202Y-87606349D01*
X153462020Y-87493430D01*
X153328687Y-87262490D01*
X153285488Y-87111477D01*
X153313375Y-87007399D01*
X153360311Y-86936312D01*
X149434670Y-87736312D02*
X149720384Y-88231184D01*
X149744536Y-88349206D01*
X149716648Y-88453284D01*
X149636721Y-88543418D01*
X149570739Y-88581513D01*
X150560482Y-88010085D02*
X150139066Y-87813504D01*
X150164584Y-88238656D02*
X149764584Y-87545836D01*
X150028516Y-87393455D01*
X150113547Y-87388351D01*
X150165586Y-87402295D01*
X150236672Y-87449230D01*
X150293815Y-87548205D01*
X150298919Y-87633235D01*
X150284975Y-87685274D01*
X150238040Y-87756361D01*
X149974108Y-87908742D01*
X150805366Y-87824712D02*
X150923388Y-87800561D01*
X151088345Y-87705323D01*
X151135280Y-87634236D01*
X151149224Y-87582197D01*
X151144120Y-87497167D01*
X151106025Y-87431184D01*
X151034938Y-87384249D01*
X150982899Y-87370305D01*
X150897869Y-87375409D01*
X150746855Y-87418608D01*
X150661825Y-87423711D01*
X150609786Y-87409768D01*
X150538699Y-87362832D01*
X150500604Y-87296849D01*
X150495500Y-87211819D01*
X150509444Y-87159780D01*
X150556379Y-87088693D01*
X150721336Y-86993455D01*
X150839358Y-86969304D01*
X151018259Y-86822026D02*
X151414157Y-86593455D01*
X151616208Y-87400561D02*
X151216208Y-86707741D01*
X147292118Y-88386617D02*
X147410140Y-88362466D01*
X147575097Y-88267228D01*
X147622033Y-88196141D01*
X147635976Y-88144102D01*
X147630873Y-88059071D01*
X147592777Y-87993089D01*
X147521691Y-87946153D01*
X147469652Y-87932210D01*
X147384621Y-87937313D01*
X147233608Y-87980512D01*
X147148577Y-87985616D01*
X147096538Y-87971672D01*
X147025451Y-87924737D01*
X146987356Y-87858754D01*
X146982252Y-87773724D01*
X146996196Y-87721685D01*
X147043132Y-87650598D01*
X147208089Y-87555360D01*
X147326111Y-87531208D01*
X148361788Y-87725054D02*
X148347844Y-87777093D01*
X148267918Y-87867228D01*
X148201935Y-87905323D01*
X148083913Y-87929474D01*
X147979835Y-87901587D01*
X147908748Y-87854651D01*
X147799566Y-87741733D01*
X147742423Y-87642759D01*
X147699224Y-87491746D01*
X147694120Y-87406715D01*
X147722008Y-87302637D01*
X147801935Y-87212503D01*
X147867918Y-87174407D01*
X147985940Y-87150256D01*
X148037979Y-87164200D01*
X149026721Y-87429133D02*
X148696806Y-87619609D01*
X148296806Y-86926788D01*
X144735622Y-88396141D02*
X144853644Y-88371990D01*
X145018602Y-88276752D01*
X145065537Y-88205665D01*
X145079481Y-88153626D01*
X145074377Y-88068595D01*
X145036282Y-88002612D01*
X144965195Y-87955677D01*
X144913156Y-87941733D01*
X144828125Y-87946837D01*
X144677112Y-87990036D01*
X144592082Y-87995140D01*
X144540042Y-87981196D01*
X144468956Y-87934261D01*
X144430861Y-87868278D01*
X144425757Y-87783247D01*
X144439701Y-87731208D01*
X144486636Y-87660122D01*
X144651593Y-87564884D01*
X144769615Y-87540732D01*
X145447490Y-88029133D02*
X145047490Y-87336312D01*
X145212448Y-87241074D01*
X145330470Y-87216923D01*
X145434548Y-87244810D01*
X145505634Y-87291746D01*
X145614816Y-87404664D01*
X145671959Y-87503638D01*
X145715158Y-87654651D01*
X145720262Y-87739682D01*
X145692374Y-87843760D01*
X145612448Y-87933894D01*
X145447490Y-88029133D01*
X145993034Y-87450231D02*
X146322948Y-87259755D01*
X146041336Y-87686275D02*
X145872276Y-86860122D01*
X146503217Y-87419609D01*
X142308541Y-88286959D02*
X142294597Y-88338998D01*
X142214670Y-88429133D01*
X142148687Y-88467228D01*
X142030665Y-88491379D01*
X141926587Y-88463492D01*
X141855500Y-88416556D01*
X141746318Y-88303638D01*
X141689176Y-88204664D01*
X141645977Y-88053650D01*
X141640873Y-87968620D01*
X141668760Y-87864542D01*
X141748687Y-87774407D01*
X141814670Y-87736312D01*
X141932692Y-87712161D01*
X141984731Y-87726105D01*
X143006465Y-87971990D02*
X142610567Y-88200561D01*
X142808516Y-88086275D02*
X142408516Y-87393455D01*
X142399676Y-87530525D01*
X142371788Y-87634603D01*
X142324853Y-87705689D01*
X142804413Y-87164884D02*
X143200311Y-86936312D01*
X143402362Y-87743418D02*
X143002362Y-87050598D01*
X143365268Y-86841074D02*
X144227148Y-87267228D01*
X143827148Y-86574407D02*
X143765268Y-87533894D01*
X139686062Y-88334578D02*
X139672118Y-88386617D01*
X139592191Y-88476752D01*
X139526209Y-88514847D01*
X139408187Y-88538998D01*
X139304108Y-88511111D01*
X139233022Y-88464175D01*
X139123840Y-88351257D01*
X139066697Y-88252283D01*
X139023498Y-88101269D01*
X139018394Y-88016239D01*
X139046282Y-87912161D01*
X139126209Y-87822026D01*
X139192191Y-87783931D01*
X139310213Y-87759780D01*
X139362252Y-87773724D01*
X140383986Y-88019609D02*
X139988089Y-88248180D01*
X140186037Y-88133894D02*
X139786037Y-87441074D01*
X139777197Y-87578144D01*
X139749310Y-87682222D01*
X139702374Y-87753308D01*
X141076806Y-87619609D02*
X140655390Y-87423028D01*
X140680909Y-87848180D02*
X140280909Y-87155360D01*
X140544841Y-87002979D01*
X140629871Y-86997875D01*
X140681910Y-87011819D01*
X140752997Y-87058754D01*
X140810140Y-87157728D01*
X140815244Y-87242759D01*
X140801300Y-87294798D01*
X140754364Y-87365885D01*
X140490433Y-87518266D01*
X140907747Y-86793455D02*
X141769627Y-87219609D01*
X141369627Y-86526788D02*
X141307747Y-87486275D01*
X137067136Y-87588351D02*
X136982106Y-87593455D01*
X136883132Y-87650598D01*
X136803205Y-87740732D01*
X136775317Y-87844810D01*
X136780421Y-87929841D01*
X136823620Y-88080854D01*
X136880763Y-88179829D01*
X136989945Y-88292747D01*
X137061031Y-88339682D01*
X137165110Y-88367570D01*
X137283132Y-88343418D01*
X137349114Y-88305323D01*
X137429041Y-88215189D01*
X137442985Y-88163150D01*
X137309652Y-87932210D01*
X137177686Y-88008400D01*
X137778003Y-88057704D02*
X137378003Y-87364884D01*
X138173901Y-87829133D01*
X137773901Y-87136312D01*
X138503815Y-87638656D02*
X138103815Y-86945836D01*
X138268772Y-86850598D01*
X138386794Y-86826446D01*
X138490872Y-86854334D01*
X138561959Y-86901269D01*
X138671141Y-87014188D01*
X138728284Y-87113162D01*
X138771483Y-87264175D01*
X138776587Y-87349206D01*
X138748699Y-87453284D01*
X138668772Y-87543418D01*
X138503815Y-87638656D01*
X171357136Y-107908351D02*
X171272106Y-107913455D01*
X171173132Y-107970598D01*
X171093205Y-108060732D01*
X171065317Y-108164810D01*
X171070421Y-108249841D01*
X171113620Y-108400854D01*
X171170763Y-108499829D01*
X171279945Y-108612747D01*
X171351031Y-108659682D01*
X171455110Y-108687570D01*
X171573132Y-108663418D01*
X171639114Y-108625323D01*
X171719041Y-108535189D01*
X171732985Y-108483150D01*
X171599652Y-108252210D01*
X171467686Y-108328400D01*
X172068003Y-108377704D02*
X171668003Y-107684884D01*
X172463901Y-108149133D01*
X172063901Y-107456312D01*
X172793815Y-107958656D02*
X172393815Y-107265836D01*
X172558772Y-107170598D01*
X172676794Y-107146446D01*
X172780872Y-107174334D01*
X172851959Y-107221269D01*
X172961141Y-107334188D01*
X173018284Y-107433162D01*
X173061483Y-107584175D01*
X173066587Y-107669206D01*
X173038699Y-107773284D01*
X172958772Y-107863418D01*
X172793815Y-107958656D01*
X168748602Y-107903931D02*
X169379542Y-108463418D01*
X169210482Y-107637265D01*
X169862838Y-107700512D02*
X169980860Y-107676361D01*
X170032899Y-107690305D01*
X170103986Y-107737240D01*
X170161129Y-107836214D01*
X170166233Y-107921245D01*
X170152289Y-107973284D01*
X170105353Y-108044371D01*
X169841422Y-108196752D01*
X169441422Y-107503931D01*
X169672362Y-107370598D01*
X169757393Y-107365494D01*
X169809432Y-107379438D01*
X169880518Y-107426373D01*
X169918614Y-107492356D01*
X169923717Y-107577387D01*
X169909774Y-107629426D01*
X169862838Y-107700512D01*
X169631898Y-107833846D01*
X165862191Y-108103931D02*
X166493132Y-108663418D01*
X166324072Y-107837265D01*
X167312814Y-108102197D02*
X167298870Y-108154236D01*
X167218943Y-108244371D01*
X167152960Y-108282466D01*
X167034938Y-108306617D01*
X166930860Y-108278730D01*
X166859774Y-108231794D01*
X166750592Y-108118876D01*
X166693449Y-108019902D01*
X166650250Y-107868888D01*
X166645146Y-107783858D01*
X166673034Y-107679780D01*
X166752960Y-107589646D01*
X166818943Y-107551550D01*
X166936965Y-107527399D01*
X166989004Y-107541343D01*
X168005634Y-107702197D02*
X167991690Y-107754236D01*
X167911764Y-107844371D01*
X167845781Y-107882466D01*
X167727759Y-107906617D01*
X167623681Y-107878730D01*
X167552594Y-107831794D01*
X167443412Y-107718876D01*
X167386269Y-107619902D01*
X167343070Y-107468888D01*
X167337966Y-107383858D01*
X167365854Y-107279780D01*
X167445781Y-107189646D01*
X167511764Y-107151550D01*
X167629786Y-107127399D01*
X167681825Y-107141343D01*
X163871837Y-108446422D02*
X164201752Y-108255946D01*
X163920140Y-108682466D02*
X163751080Y-107856312D01*
X164382020Y-108415799D01*
X164612960Y-108282466D02*
X164212960Y-107589646D01*
X165305781Y-107882466D02*
X164909883Y-108111037D01*
X165107832Y-107996752D02*
X164707832Y-107303931D01*
X164698992Y-107441001D01*
X164671104Y-107545079D01*
X164624169Y-107616166D01*
X161331837Y-108446422D02*
X161661752Y-108255946D01*
X161380140Y-108682466D02*
X161211080Y-107856312D01*
X161842020Y-108415799D01*
X162072960Y-108282466D02*
X161672960Y-107589646D01*
X162134841Y-107322979D02*
X162200824Y-107284884D01*
X162285854Y-107279780D01*
X162337893Y-107293724D01*
X162408980Y-107340659D01*
X162518162Y-107453577D01*
X162613400Y-107618534D01*
X162656599Y-107769548D01*
X162661703Y-107854578D01*
X162647759Y-107906617D01*
X162600824Y-107977704D01*
X162534841Y-108015799D01*
X162449810Y-108020903D01*
X162397771Y-108006959D01*
X162326684Y-107960024D01*
X162217502Y-107847106D01*
X162122264Y-107682148D01*
X162079065Y-107531135D01*
X162073962Y-107446105D01*
X162087905Y-107394066D01*
X162134841Y-107322979D01*
X158593889Y-108560708D02*
X158923803Y-108370231D01*
X158642191Y-108796752D02*
X158473132Y-107970598D01*
X159104072Y-108530085D01*
X159066978Y-107627741D02*
X159198943Y-107551550D01*
X159283974Y-107546446D01*
X159388052Y-107574334D01*
X159497234Y-107687252D01*
X159630567Y-107918192D01*
X159673766Y-108069206D01*
X159645879Y-108173284D01*
X159598943Y-108244371D01*
X159466978Y-108320561D01*
X159381947Y-108325665D01*
X159277869Y-108297777D01*
X159168687Y-108184859D01*
X159035354Y-107953919D01*
X158992155Y-107802906D01*
X159020042Y-107698827D01*
X159066978Y-107627741D01*
X160423729Y-107768180D02*
X160027832Y-107996752D01*
X160225781Y-107882466D02*
X159825781Y-107189646D01*
X159816941Y-107326715D01*
X159789053Y-107430793D01*
X159742118Y-107501880D01*
X156053889Y-108560708D02*
X156383803Y-108370231D01*
X156102191Y-108796752D02*
X155933132Y-107970598D01*
X156564072Y-108530085D01*
X156526978Y-107627741D02*
X156658943Y-107551550D01*
X156743974Y-107546446D01*
X156848052Y-107574334D01*
X156957234Y-107687252D01*
X157090567Y-107918192D01*
X157133766Y-108069206D01*
X157105879Y-108173284D01*
X157058943Y-108244371D01*
X156926978Y-108320561D01*
X156841947Y-108325665D01*
X156737869Y-108297777D01*
X156628687Y-108184859D01*
X156495354Y-107953919D01*
X156452155Y-107802906D01*
X156480042Y-107698827D01*
X156526978Y-107627741D01*
X157252789Y-107208693D02*
X157318772Y-107170598D01*
X157403803Y-107165494D01*
X157455842Y-107179438D01*
X157526928Y-107226373D01*
X157636110Y-107339291D01*
X157731348Y-107504249D01*
X157774548Y-107655262D01*
X157779651Y-107740292D01*
X157765707Y-107792332D01*
X157718772Y-107863418D01*
X157652789Y-107901513D01*
X157567759Y-107906617D01*
X157515720Y-107892673D01*
X157444633Y-107845738D01*
X157335451Y-107732820D01*
X157240213Y-107567863D01*
X157197014Y-107416849D01*
X157191910Y-107331819D01*
X157205854Y-107279780D01*
X157252789Y-107208693D01*
X152881764Y-108265836D02*
X153205574Y-108826691D01*
X153276660Y-108873626D01*
X153328699Y-108887570D01*
X153413730Y-108882466D01*
X153545696Y-108806275D01*
X153592631Y-108735189D01*
X153606575Y-108683150D01*
X153601471Y-108598119D01*
X153277662Y-108037265D01*
X153612680Y-107931819D02*
X153626624Y-107879780D01*
X153673559Y-107808693D01*
X153838516Y-107713455D01*
X153923547Y-107708351D01*
X153975586Y-107722295D01*
X154046672Y-107769230D01*
X154084768Y-107835213D01*
X154108919Y-107953235D01*
X153941593Y-108577704D01*
X154370482Y-108330085D01*
X155063302Y-107930085D02*
X154641886Y-107733504D01*
X154667405Y-108158656D02*
X154267405Y-107465836D01*
X154531336Y-107313455D01*
X154616367Y-107308351D01*
X154668406Y-107322295D01*
X154739493Y-107369230D01*
X154796635Y-107468205D01*
X154801739Y-107553235D01*
X154787795Y-107605274D01*
X154740860Y-107676361D01*
X154476929Y-107828742D01*
X154894242Y-107103931D02*
X155756122Y-107530085D01*
X155356122Y-106837265D02*
X155294242Y-107796752D01*
X150424243Y-108218217D02*
X150748052Y-108779071D01*
X150819139Y-108826007D01*
X150871178Y-108839951D01*
X150956209Y-108834847D01*
X151088174Y-108758656D01*
X151135110Y-108687570D01*
X151149053Y-108635531D01*
X151143950Y-108550500D01*
X150820140Y-107989646D01*
X151155158Y-107884200D02*
X151169102Y-107832161D01*
X151216037Y-107761074D01*
X151380995Y-107665836D01*
X151466025Y-107660732D01*
X151518064Y-107674676D01*
X151589151Y-107721611D01*
X151627246Y-107787594D01*
X151651398Y-107905616D01*
X151484072Y-108530085D01*
X151912960Y-108282466D01*
X151710909Y-107475360D02*
X152106806Y-107246788D01*
X152308858Y-108053894D02*
X151908858Y-107361074D01*
X152271764Y-107151550D02*
X153133644Y-107577704D01*
X152733644Y-106884884D02*
X152671764Y-107844371D01*
X148597662Y-108730085D02*
X148197662Y-108037265D01*
X148461593Y-107884884D01*
X148546624Y-107879780D01*
X148598663Y-107893724D01*
X148669749Y-107940659D01*
X148726892Y-108039633D01*
X148731996Y-108124664D01*
X148718052Y-108176703D01*
X148671117Y-108247789D01*
X148407185Y-108400170D01*
X149143205Y-108151184D02*
X149473119Y-107960708D01*
X149191507Y-108387228D02*
X149022448Y-107561074D01*
X149653388Y-108120561D01*
X150247234Y-107777704D02*
X149851336Y-108006275D01*
X150049285Y-107891990D02*
X149649285Y-107199169D01*
X149640445Y-107336239D01*
X149612557Y-107440317D01*
X149565622Y-107511404D01*
X146057662Y-108730085D02*
X145657662Y-108037265D01*
X145921593Y-107884884D01*
X146006624Y-107879780D01*
X146058663Y-107893724D01*
X146129749Y-107940659D01*
X146186892Y-108039633D01*
X146191996Y-108124664D01*
X146178052Y-108176703D01*
X146131117Y-108247789D01*
X145867185Y-108400170D01*
X146603205Y-108151184D02*
X146933119Y-107960708D01*
X146651507Y-108387228D02*
X146482448Y-107561074D01*
X147113388Y-108120561D01*
X147076294Y-107218217D02*
X147142276Y-107180122D01*
X147227307Y-107175018D01*
X147279346Y-107188962D01*
X147350433Y-107235897D01*
X147459615Y-107348815D01*
X147554853Y-107513772D01*
X147598052Y-107664786D01*
X147603156Y-107749816D01*
X147589212Y-107801855D01*
X147542276Y-107872942D01*
X147476294Y-107911037D01*
X147391263Y-107916141D01*
X147339224Y-107902197D01*
X147268137Y-107855262D01*
X147158955Y-107742344D01*
X147063717Y-107577387D01*
X147020518Y-107426373D01*
X147015415Y-107341343D01*
X147029358Y-107289304D01*
X147076294Y-107218217D01*
X143416135Y-108744712D02*
X143534157Y-108720561D01*
X143699114Y-108625323D01*
X143746050Y-108554236D01*
X143759994Y-108502197D01*
X143754890Y-108417167D01*
X143716795Y-108351184D01*
X143645708Y-108304249D01*
X143593669Y-108290305D01*
X143508638Y-108295409D01*
X143357625Y-108338608D01*
X143272594Y-108343711D01*
X143220555Y-108329768D01*
X143149469Y-108282832D01*
X143111373Y-108216849D01*
X143106270Y-108131819D01*
X143120213Y-108079780D01*
X143167149Y-108008693D01*
X143332106Y-107913455D01*
X143450128Y-107889304D01*
X144485805Y-108083150D02*
X144471861Y-108135189D01*
X144391935Y-108225323D01*
X144325952Y-108263418D01*
X144207930Y-108287570D01*
X144103852Y-108259682D01*
X144032765Y-108212747D01*
X143923583Y-108099829D01*
X143866440Y-108000854D01*
X143823241Y-107849841D01*
X143818138Y-107764810D01*
X143846025Y-107660732D01*
X143925952Y-107570598D01*
X143991935Y-107532503D01*
X144109957Y-107508351D01*
X144161996Y-107522295D01*
X144820824Y-107977704D02*
X144420824Y-107284884D01*
X145216721Y-107749133D02*
X144691226Y-107524664D01*
X144816721Y-107056312D02*
X144649395Y-107680781D01*
X140697234Y-108891990D02*
X140297234Y-108199169D01*
X140813889Y-108560708D01*
X140759114Y-107932503D01*
X141159114Y-108625323D01*
X141220995Y-107665836D02*
X141352960Y-107589646D01*
X141437991Y-107584542D01*
X141542069Y-107612429D01*
X141651251Y-107725348D01*
X141784584Y-107956288D01*
X141827783Y-108107301D01*
X141799896Y-108211379D01*
X141752960Y-108282466D01*
X141620995Y-108358656D01*
X141535964Y-108363760D01*
X141431886Y-108335872D01*
X141322704Y-108222954D01*
X141189371Y-107992014D01*
X141146172Y-107841001D01*
X141174059Y-107736923D01*
X141220995Y-107665836D01*
X142162802Y-108001855D02*
X142280824Y-107977704D01*
X142445781Y-107882466D01*
X142492716Y-107811379D01*
X142506660Y-107759340D01*
X142501556Y-107674310D01*
X142463461Y-107608327D01*
X142392374Y-107561391D01*
X142340335Y-107547448D01*
X142255305Y-107552551D01*
X142104291Y-107595750D01*
X142019261Y-107600854D01*
X141967222Y-107586910D01*
X141896135Y-107539975D01*
X141858040Y-107473992D01*
X141852936Y-107388962D01*
X141866880Y-107336923D01*
X141913815Y-107265836D01*
X142078772Y-107170598D01*
X142196794Y-107146446D01*
X142874670Y-107634847D02*
X142474670Y-106942026D01*
X138157234Y-108891990D02*
X137757234Y-108199169D01*
X138273889Y-108560708D01*
X138219114Y-107932503D01*
X138619114Y-108625323D01*
X138949029Y-108434847D02*
X138549029Y-107742026D01*
X139226904Y-108230427D02*
X139344926Y-108206275D01*
X139509883Y-108111037D01*
X139556819Y-108039951D01*
X139570763Y-107987912D01*
X139565659Y-107902881D01*
X139527563Y-107836898D01*
X139456477Y-107789963D01*
X139404438Y-107776019D01*
X139319407Y-107781123D01*
X139168394Y-107824322D01*
X139083363Y-107829426D01*
X139031324Y-107815482D01*
X138960238Y-107768547D01*
X138922142Y-107702564D01*
X138917039Y-107617533D01*
X138930982Y-107565494D01*
X138977918Y-107494407D01*
X139142875Y-107399169D01*
X139260897Y-107375018D01*
X139670738Y-107094407D02*
X139802704Y-107018217D01*
X139887734Y-107013113D01*
X139991812Y-107041001D01*
X140100994Y-107153919D01*
X140234328Y-107384859D01*
X140277527Y-107535872D01*
X140249639Y-107639951D01*
X140202704Y-107711037D01*
X140070738Y-107787228D01*
X139985707Y-107792332D01*
X139881629Y-107764444D01*
X139772447Y-107651526D01*
X139639114Y-107420586D01*
X139595915Y-107269572D01*
X139623803Y-107165494D01*
X139670738Y-107094407D01*
X135797136Y-107908351D02*
X135712106Y-107913455D01*
X135613132Y-107970598D01*
X135533205Y-108060732D01*
X135505317Y-108164810D01*
X135510421Y-108249841D01*
X135553620Y-108400854D01*
X135610763Y-108499829D01*
X135719945Y-108612747D01*
X135791031Y-108659682D01*
X135895110Y-108687570D01*
X136013132Y-108663418D01*
X136079114Y-108625323D01*
X136159041Y-108535189D01*
X136172985Y-108483150D01*
X136039652Y-108252210D01*
X135907686Y-108328400D01*
X136508003Y-108377704D02*
X136108003Y-107684884D01*
X136903901Y-108149133D01*
X136503901Y-107456312D01*
X137233815Y-107958656D02*
X136833815Y-107265836D01*
X136998772Y-107170598D01*
X137116794Y-107146446D01*
X137220872Y-107174334D01*
X137291959Y-107221269D01*
X137401141Y-107334188D01*
X137458284Y-107433162D01*
X137501483Y-107584175D01*
X137506587Y-107669206D01*
X137478699Y-107773284D01*
X137398772Y-107863418D01*
X137233815Y-107958656D01*
D11*
%TO.C,D3*%
X169200000Y-89805000D02*
X173100000Y-89805000D01*
X169200000Y-91805000D02*
X173100000Y-91805000D01*
X169200000Y-89805000D02*
X169200000Y-91805000D01*
%TO.C,D1*%
X169454000Y-102632000D02*
X173354000Y-102632000D01*
X169454000Y-104632000D02*
X173354000Y-104632000D01*
X169454000Y-102632000D02*
X169454000Y-104632000D01*
%TO.C,C10*%
X139227779Y-98550000D02*
X138902221Y-98550000D01*
X139227779Y-99570000D02*
X138902221Y-99570000D01*
%TO.C,C6*%
X138902221Y-93220000D02*
X139227779Y-93220000D01*
X138902221Y-92200000D02*
X139227779Y-92200000D01*
%TO.C,C13*%
X155065000Y-90332779D02*
X155065000Y-90007221D01*
X156085000Y-90332779D02*
X156085000Y-90007221D01*
%TO.C,C12*%
X154142221Y-104265000D02*
X154467779Y-104265000D01*
X154142221Y-105285000D02*
X154467779Y-105285000D01*
%TO.C,D2*%
X162985000Y-95725000D02*
X162985000Y-88425000D01*
X168485000Y-95725000D02*
X168485000Y-88425000D01*
X168485000Y-88425000D02*
X167335000Y-88425000D01*
%TO.C,J5*%
X156785000Y-96580000D02*
X161985000Y-96580000D01*
X156785000Y-91440000D02*
X156785000Y-96580000D01*
X161985000Y-88840000D02*
X161985000Y-96580000D01*
X156785000Y-91440000D02*
X159385000Y-91440000D01*
X159385000Y-91440000D02*
X159385000Y-88840000D01*
X159385000Y-88840000D02*
X161985000Y-88840000D01*
X156785000Y-90170000D02*
X156785000Y-88840000D01*
X156785000Y-88840000D02*
X158115000Y-88840000D01*
%TO.C,J1*%
X169687500Y-101055000D02*
X169687500Y-100605000D01*
X171537500Y-101055000D02*
X169687500Y-101055000D01*
X174087500Y-93255000D02*
X173837500Y-93255000D01*
X174087500Y-101055000D02*
X173837500Y-101055000D01*
X171537500Y-93255000D02*
X169687500Y-93255000D01*
X169687500Y-93255000D02*
X169687500Y-93705000D01*
X169137500Y-98855000D02*
X169137500Y-98405000D01*
X169137500Y-98855000D02*
X169587500Y-98855000D01*
%TO.C,U1*%
X168510000Y-100325000D02*
X167250000Y-100325000D01*
X161690000Y-100325000D02*
X162950000Y-100325000D01*
X168510000Y-104085000D02*
X168510000Y-100325000D01*
X161690000Y-106335000D02*
X161690000Y-100325000D01*
%TO.C,C3*%
X159310000Y-101858578D02*
X159310000Y-101341422D01*
X160730000Y-101858578D02*
X160730000Y-101341422D01*
%TO.C,C2*%
X160730000Y-105151422D02*
X160730000Y-105668578D01*
X159310000Y-105151422D02*
X159310000Y-105668578D01*
%TO.C,C1*%
X171191422Y-105335000D02*
X171708578Y-105335000D01*
X171191422Y-106755000D02*
X171708578Y-106755000D01*
%TO.C,Y1*%
X140715000Y-93885000D02*
X137415000Y-93885000D01*
X137415000Y-93885000D02*
X137415000Y-97885000D01*
%TO.C,U2*%
X152325000Y-102775000D02*
X153275000Y-102775000D01*
X153275000Y-102775000D02*
X153275000Y-101825000D01*
X144005000Y-102775000D02*
X143055000Y-102775000D01*
X143055000Y-102775000D02*
X143055000Y-101825000D01*
X152325000Y-92555000D02*
X153275000Y-92555000D01*
X153275000Y-92555000D02*
X153275000Y-93505000D01*
X144005000Y-92555000D02*
X143055000Y-92555000D01*
X143055000Y-92555000D02*
X143055000Y-93505000D01*
X143055000Y-93505000D02*
X141715000Y-93505000D01*
%TO.C,D3*%
D10*
X170711904Y-89257380D02*
X170711904Y-88257380D01*
X170950000Y-88257380D01*
X171092857Y-88305000D01*
X171188095Y-88400238D01*
X171235714Y-88495476D01*
X171283333Y-88685952D01*
X171283333Y-88828809D01*
X171235714Y-89019285D01*
X171188095Y-89114523D01*
X171092857Y-89209761D01*
X170950000Y-89257380D01*
X170711904Y-89257380D01*
X171616666Y-88257380D02*
X172235714Y-88257380D01*
X171902380Y-88638333D01*
X172045238Y-88638333D01*
X172140476Y-88685952D01*
X172188095Y-88733571D01*
X172235714Y-88828809D01*
X172235714Y-89066904D01*
X172188095Y-89162142D01*
X172140476Y-89209761D01*
X172045238Y-89257380D01*
X171759523Y-89257380D01*
X171664285Y-89209761D01*
X171616666Y-89162142D01*
%TO.C,D1*%
X169441904Y-102084380D02*
X169441904Y-101084380D01*
X169680000Y-101084380D01*
X169822857Y-101132000D01*
X169918095Y-101227238D01*
X169965714Y-101322476D01*
X170013333Y-101512952D01*
X170013333Y-101655809D01*
X169965714Y-101846285D01*
X169918095Y-101941523D01*
X169822857Y-102036761D01*
X169680000Y-102084380D01*
X169441904Y-102084380D01*
X170965714Y-102084380D02*
X170394285Y-102084380D01*
X170680000Y-102084380D02*
X170680000Y-101084380D01*
X170584761Y-101227238D01*
X170489523Y-101322476D01*
X170394285Y-101370095D01*
%TO.C,C10*%
X138550714Y-100775714D02*
X138512619Y-100813809D01*
X138398333Y-100851904D01*
X138322142Y-100851904D01*
X138207857Y-100813809D01*
X138131666Y-100737619D01*
X138093571Y-100661428D01*
X138055476Y-100509047D01*
X138055476Y-100394761D01*
X138093571Y-100242380D01*
X138131666Y-100166190D01*
X138207857Y-100090000D01*
X138322142Y-100051904D01*
X138398333Y-100051904D01*
X138512619Y-100090000D01*
X138550714Y-100128095D01*
X139312619Y-100851904D02*
X138855476Y-100851904D01*
X139084047Y-100851904D02*
X139084047Y-100051904D01*
X139007857Y-100166190D01*
X138931666Y-100242380D01*
X138855476Y-100280476D01*
X139807857Y-100051904D02*
X139884047Y-100051904D01*
X139960238Y-100090000D01*
X139998333Y-100128095D01*
X140036428Y-100204285D01*
X140074523Y-100356666D01*
X140074523Y-100547142D01*
X140036428Y-100699523D01*
X139998333Y-100775714D01*
X139960238Y-100813809D01*
X139884047Y-100851904D01*
X139807857Y-100851904D01*
X139731666Y-100813809D01*
X139693571Y-100775714D01*
X139655476Y-100699523D01*
X139617380Y-100547142D01*
X139617380Y-100356666D01*
X139655476Y-100204285D01*
X139693571Y-100128095D01*
X139731666Y-100090000D01*
X139807857Y-100051904D01*
%TO.C,C6*%
X138931666Y-91565714D02*
X138893571Y-91603809D01*
X138779285Y-91641904D01*
X138703095Y-91641904D01*
X138588809Y-91603809D01*
X138512619Y-91527619D01*
X138474523Y-91451428D01*
X138436428Y-91299047D01*
X138436428Y-91184761D01*
X138474523Y-91032380D01*
X138512619Y-90956190D01*
X138588809Y-90880000D01*
X138703095Y-90841904D01*
X138779285Y-90841904D01*
X138893571Y-90880000D01*
X138931666Y-90918095D01*
X139617380Y-90841904D02*
X139465000Y-90841904D01*
X139388809Y-90880000D01*
X139350714Y-90918095D01*
X139274523Y-91032380D01*
X139236428Y-91184761D01*
X139236428Y-91489523D01*
X139274523Y-91565714D01*
X139312619Y-91603809D01*
X139388809Y-91641904D01*
X139541190Y-91641904D01*
X139617380Y-91603809D01*
X139655476Y-91565714D01*
X139693571Y-91489523D01*
X139693571Y-91299047D01*
X139655476Y-91222857D01*
X139617380Y-91184761D01*
X139541190Y-91146666D01*
X139388809Y-91146666D01*
X139312619Y-91184761D01*
X139274523Y-91222857D01*
X139236428Y-91299047D01*
%TO.C,C13*%
X154430714Y-90684285D02*
X154468809Y-90722380D01*
X154506904Y-90836666D01*
X154506904Y-90912857D01*
X154468809Y-91027142D01*
X154392619Y-91103333D01*
X154316428Y-91141428D01*
X154164047Y-91179523D01*
X154049761Y-91179523D01*
X153897380Y-91141428D01*
X153821190Y-91103333D01*
X153745000Y-91027142D01*
X153706904Y-90912857D01*
X153706904Y-90836666D01*
X153745000Y-90722380D01*
X153783095Y-90684285D01*
X154506904Y-89922380D02*
X154506904Y-90379523D01*
X154506904Y-90150952D02*
X153706904Y-90150952D01*
X153821190Y-90227142D01*
X153897380Y-90303333D01*
X153935476Y-90379523D01*
X153706904Y-89655714D02*
X153706904Y-89160476D01*
X154011666Y-89427142D01*
X154011666Y-89312857D01*
X154049761Y-89236666D01*
X154087857Y-89198571D01*
X154164047Y-89160476D01*
X154354523Y-89160476D01*
X154430714Y-89198571D01*
X154468809Y-89236666D01*
X154506904Y-89312857D01*
X154506904Y-89541428D01*
X154468809Y-89617619D01*
X154430714Y-89655714D01*
%TO.C,C12*%
X153790714Y-106330714D02*
X153752619Y-106368809D01*
X153638333Y-106406904D01*
X153562142Y-106406904D01*
X153447857Y-106368809D01*
X153371666Y-106292619D01*
X153333571Y-106216428D01*
X153295476Y-106064047D01*
X153295476Y-105949761D01*
X153333571Y-105797380D01*
X153371666Y-105721190D01*
X153447857Y-105645000D01*
X153562142Y-105606904D01*
X153638333Y-105606904D01*
X153752619Y-105645000D01*
X153790714Y-105683095D01*
X154552619Y-106406904D02*
X154095476Y-106406904D01*
X154324047Y-106406904D02*
X154324047Y-105606904D01*
X154247857Y-105721190D01*
X154171666Y-105797380D01*
X154095476Y-105835476D01*
X154857380Y-105683095D02*
X154895476Y-105645000D01*
X154971666Y-105606904D01*
X155162142Y-105606904D01*
X155238333Y-105645000D01*
X155276428Y-105683095D01*
X155314523Y-105759285D01*
X155314523Y-105835476D01*
X155276428Y-105949761D01*
X154819285Y-106406904D01*
X155314523Y-106406904D01*
%TO.C,C11*%
X141090714Y-91725714D02*
X141052619Y-91763809D01*
X140938333Y-91801904D01*
X140862142Y-91801904D01*
X140747857Y-91763809D01*
X140671666Y-91687619D01*
X140633571Y-91611428D01*
X140595476Y-91459047D01*
X140595476Y-91344761D01*
X140633571Y-91192380D01*
X140671666Y-91116190D01*
X140747857Y-91040000D01*
X140862142Y-91001904D01*
X140938333Y-91001904D01*
X141052619Y-91040000D01*
X141090714Y-91078095D01*
X141852619Y-91801904D02*
X141395476Y-91801904D01*
X141624047Y-91801904D02*
X141624047Y-91001904D01*
X141547857Y-91116190D01*
X141471666Y-91192380D01*
X141395476Y-91230476D01*
X142614523Y-91801904D02*
X142157380Y-91801904D01*
X142385952Y-91801904D02*
X142385952Y-91001904D01*
X142309761Y-91116190D01*
X142233571Y-91192380D01*
X142157380Y-91230476D01*
%TO.C,C9*%
X141155714Y-103003333D02*
X141193809Y-103041428D01*
X141231904Y-103155714D01*
X141231904Y-103231904D01*
X141193809Y-103346190D01*
X141117619Y-103422380D01*
X141041428Y-103460476D01*
X140889047Y-103498571D01*
X140774761Y-103498571D01*
X140622380Y-103460476D01*
X140546190Y-103422380D01*
X140470000Y-103346190D01*
X140431904Y-103231904D01*
X140431904Y-103155714D01*
X140470000Y-103041428D01*
X140508095Y-103003333D01*
X141231904Y-102622380D02*
X141231904Y-102470000D01*
X141193809Y-102393809D01*
X141155714Y-102355714D01*
X141041428Y-102279523D01*
X140889047Y-102241428D01*
X140584285Y-102241428D01*
X140508095Y-102279523D01*
X140470000Y-102317619D01*
X140431904Y-102393809D01*
X140431904Y-102546190D01*
X140470000Y-102622380D01*
X140508095Y-102660476D01*
X140584285Y-102698571D01*
X140774761Y-102698571D01*
X140850952Y-102660476D01*
X140889047Y-102622380D01*
X140927142Y-102546190D01*
X140927142Y-102393809D01*
X140889047Y-102317619D01*
X140850952Y-102279523D01*
X140774761Y-102241428D01*
%TO.C,C8*%
X156711666Y-103155714D02*
X156673571Y-103193809D01*
X156559285Y-103231904D01*
X156483095Y-103231904D01*
X156368809Y-103193809D01*
X156292619Y-103117619D01*
X156254523Y-103041428D01*
X156216428Y-102889047D01*
X156216428Y-102774761D01*
X156254523Y-102622380D01*
X156292619Y-102546190D01*
X156368809Y-102470000D01*
X156483095Y-102431904D01*
X156559285Y-102431904D01*
X156673571Y-102470000D01*
X156711666Y-102508095D01*
X157168809Y-102774761D02*
X157092619Y-102736666D01*
X157054523Y-102698571D01*
X157016428Y-102622380D01*
X157016428Y-102584285D01*
X157054523Y-102508095D01*
X157092619Y-102470000D01*
X157168809Y-102431904D01*
X157321190Y-102431904D01*
X157397380Y-102470000D01*
X157435476Y-102508095D01*
X157473571Y-102584285D01*
X157473571Y-102622380D01*
X157435476Y-102698571D01*
X157397380Y-102736666D01*
X157321190Y-102774761D01*
X157168809Y-102774761D01*
X157092619Y-102812857D01*
X157054523Y-102850952D01*
X157016428Y-102927142D01*
X157016428Y-103079523D01*
X157054523Y-103155714D01*
X157092619Y-103193809D01*
X157168809Y-103231904D01*
X157321190Y-103231904D01*
X157397380Y-103193809D01*
X157435476Y-103155714D01*
X157473571Y-103079523D01*
X157473571Y-102927142D01*
X157435476Y-102850952D01*
X157397380Y-102812857D01*
X157321190Y-102774761D01*
%TO.C,C7*%
X156495714Y-92843333D02*
X156533809Y-92881428D01*
X156571904Y-92995714D01*
X156571904Y-93071904D01*
X156533809Y-93186190D01*
X156457619Y-93262380D01*
X156381428Y-93300476D01*
X156229047Y-93338571D01*
X156114761Y-93338571D01*
X155962380Y-93300476D01*
X155886190Y-93262380D01*
X155810000Y-93186190D01*
X155771904Y-93071904D01*
X155771904Y-92995714D01*
X155810000Y-92881428D01*
X155848095Y-92843333D01*
X155771904Y-92576666D02*
X155771904Y-92043333D01*
X156571904Y-92386190D01*
%TO.C,C5*%
X144646666Y-106865714D02*
X144608571Y-106903809D01*
X144494285Y-106941904D01*
X144418095Y-106941904D01*
X144303809Y-106903809D01*
X144227619Y-106827619D01*
X144189523Y-106751428D01*
X144151428Y-106599047D01*
X144151428Y-106484761D01*
X144189523Y-106332380D01*
X144227619Y-106256190D01*
X144303809Y-106180000D01*
X144418095Y-106141904D01*
X144494285Y-106141904D01*
X144608571Y-106180000D01*
X144646666Y-106218095D01*
X145370476Y-106141904D02*
X144989523Y-106141904D01*
X144951428Y-106522857D01*
X144989523Y-106484761D01*
X145065714Y-106446666D01*
X145256190Y-106446666D01*
X145332380Y-106484761D01*
X145370476Y-106522857D01*
X145408571Y-106599047D01*
X145408571Y-106789523D01*
X145370476Y-106865714D01*
X145332380Y-106903809D01*
X145256190Y-106941904D01*
X145065714Y-106941904D01*
X144989523Y-106903809D01*
X144951428Y-106865714D01*
%TO.C,D2*%
X169271904Y-93300476D02*
X168471904Y-93300476D01*
X168471904Y-93110000D01*
X168510000Y-92995714D01*
X168586190Y-92919523D01*
X168662380Y-92881428D01*
X168814761Y-92843333D01*
X168929047Y-92843333D01*
X169081428Y-92881428D01*
X169157619Y-92919523D01*
X169233809Y-92995714D01*
X169271904Y-93110000D01*
X169271904Y-93300476D01*
X168548095Y-92538571D02*
X168510000Y-92500476D01*
X168471904Y-92424285D01*
X168471904Y-92233809D01*
X168510000Y-92157619D01*
X168548095Y-92119523D01*
X168624285Y-92081428D01*
X168700476Y-92081428D01*
X168814761Y-92119523D01*
X169271904Y-92576666D01*
X169271904Y-92081428D01*
%TO.C,J1*%
X167899404Y-97421666D02*
X168470833Y-97421666D01*
X168585119Y-97459761D01*
X168661309Y-97535952D01*
X168699404Y-97650238D01*
X168699404Y-97726428D01*
X168699404Y-96621666D02*
X168699404Y-97078809D01*
X168699404Y-96850238D02*
X167899404Y-96850238D01*
X168013690Y-96926428D01*
X168089880Y-97002619D01*
X168127976Y-97078809D01*
%TO.C,U1*%
X161613904Y-99669523D02*
X162261523Y-99669523D01*
X162337714Y-99631428D01*
X162375809Y-99593333D01*
X162413904Y-99517142D01*
X162413904Y-99364761D01*
X162375809Y-99288571D01*
X162337714Y-99250476D01*
X162261523Y-99212380D01*
X161613904Y-99212380D01*
X162413904Y-98412380D02*
X162413904Y-98869523D01*
X162413904Y-98640952D02*
X161613904Y-98640952D01*
X161728190Y-98717142D01*
X161804380Y-98793333D01*
X161842476Y-98869523D01*
%TO.C,C4*%
X166871666Y-96805714D02*
X166833571Y-96843809D01*
X166719285Y-96881904D01*
X166643095Y-96881904D01*
X166528809Y-96843809D01*
X166452619Y-96767619D01*
X166414523Y-96691428D01*
X166376428Y-96539047D01*
X166376428Y-96424761D01*
X166414523Y-96272380D01*
X166452619Y-96196190D01*
X166528809Y-96120000D01*
X166643095Y-96081904D01*
X166719285Y-96081904D01*
X166833571Y-96120000D01*
X166871666Y-96158095D01*
X167557380Y-96348571D02*
X167557380Y-96881904D01*
X167366904Y-96043809D02*
X167176428Y-96615238D01*
X167671666Y-96615238D01*
%TO.C,C3*%
X158655714Y-101733333D02*
X158693809Y-101771428D01*
X158731904Y-101885714D01*
X158731904Y-101961904D01*
X158693809Y-102076190D01*
X158617619Y-102152380D01*
X158541428Y-102190476D01*
X158389047Y-102228571D01*
X158274761Y-102228571D01*
X158122380Y-102190476D01*
X158046190Y-102152380D01*
X157970000Y-102076190D01*
X157931904Y-101961904D01*
X157931904Y-101885714D01*
X157970000Y-101771428D01*
X158008095Y-101733333D01*
X157931904Y-101466666D02*
X157931904Y-100971428D01*
X158236666Y-101238095D01*
X158236666Y-101123809D01*
X158274761Y-101047619D01*
X158312857Y-101009523D01*
X158389047Y-100971428D01*
X158579523Y-100971428D01*
X158655714Y-101009523D01*
X158693809Y-101047619D01*
X158731904Y-101123809D01*
X158731904Y-101352380D01*
X158693809Y-101428571D01*
X158655714Y-101466666D01*
%TO.C,C2*%
X158781714Y-105543333D02*
X158819809Y-105581428D01*
X158857904Y-105695714D01*
X158857904Y-105771904D01*
X158819809Y-105886190D01*
X158743619Y-105962380D01*
X158667428Y-106000476D01*
X158515047Y-106038571D01*
X158400761Y-106038571D01*
X158248380Y-106000476D01*
X158172190Y-105962380D01*
X158096000Y-105886190D01*
X158057904Y-105771904D01*
X158057904Y-105695714D01*
X158096000Y-105581428D01*
X158134095Y-105543333D01*
X158134095Y-105238571D02*
X158096000Y-105200476D01*
X158057904Y-105124285D01*
X158057904Y-104933809D01*
X158096000Y-104857619D01*
X158134095Y-104819523D01*
X158210285Y-104781428D01*
X158286476Y-104781428D01*
X158400761Y-104819523D01*
X158857904Y-105276666D01*
X158857904Y-104781428D01*
%TO.C,C1*%
X174275714Y-106178333D02*
X174313809Y-106216428D01*
X174351904Y-106330714D01*
X174351904Y-106406904D01*
X174313809Y-106521190D01*
X174237619Y-106597380D01*
X174161428Y-106635476D01*
X174009047Y-106673571D01*
X173894761Y-106673571D01*
X173742380Y-106635476D01*
X173666190Y-106597380D01*
X173590000Y-106521190D01*
X173551904Y-106406904D01*
X173551904Y-106330714D01*
X173590000Y-106216428D01*
X173628095Y-106178333D01*
X174351904Y-105416428D02*
X174351904Y-105873571D01*
X174351904Y-105645000D02*
X173551904Y-105645000D01*
X173666190Y-105721190D01*
X173742380Y-105797380D01*
X173780476Y-105873571D01*
%TO.C,Y1*%
X136505952Y-96265952D02*
X136886904Y-96265952D01*
X136086904Y-96532619D02*
X136505952Y-96265952D01*
X136086904Y-95999285D01*
X136886904Y-95313571D02*
X136886904Y-95770714D01*
X136886904Y-95542142D02*
X136086904Y-95542142D01*
X136201190Y-95618333D01*
X136277380Y-95694523D01*
X136315476Y-95770714D01*
%TO.C,U2*%
X147555476Y-89826904D02*
X147555476Y-90474523D01*
X147593571Y-90550714D01*
X147631666Y-90588809D01*
X147707857Y-90626904D01*
X147860238Y-90626904D01*
X147936428Y-90588809D01*
X147974523Y-90550714D01*
X148012619Y-90474523D01*
X148012619Y-89826904D01*
X148355476Y-89903095D02*
X148393571Y-89865000D01*
X148469761Y-89826904D01*
X148660238Y-89826904D01*
X148736428Y-89865000D01*
X148774523Y-89903095D01*
X148812619Y-89979285D01*
X148812619Y-90055476D01*
X148774523Y-90169761D01*
X148317380Y-90626904D01*
X148812619Y-90626904D01*
%TD*%
M02*
