%TF.GenerationSoftware,KiCad,Pcbnew,5.1.6+dfsg1-1*%
%TF.CreationDate,2020-06-20T18:18:21+08:00*%
%TF.ProjectId,stm32dev,73746d33-3264-4657-962e-6b696361645f,a*%
%TF.SameCoordinates,Original*%
%TF.FileFunction,Soldermask,Bot*%
%TF.FilePolarity,Negative*%
%FSLAX46Y46*%
G04 Gerber Fmt 4.6, Leading zero omitted, Abs format (unit mm)*
G04 Created by KiCad (PCBNEW 5.1.6+dfsg1-1) date 2020-06-20 18:18:21*
%MOMM*%
%LPD*%
G01*
G04 APERTURE LIST*
%ADD10O,1.800000X1.800000*%
%ADD11R,1.800000X1.800000*%
%ADD12R,1.650000X1.100000*%
%ADD13R,1.600000X1.600000*%
%ADD14R,1.850000X0.800000*%
%ADD15R,1.500000X0.900000*%
%ADD16R,1.100000X1.550000*%
%ADD17R,1.600000X0.900000*%
%ADD18R,1.600000X1.400000*%
%ADD19O,2.000000X1.300000*%
%ADD20C,1.550000*%
G04 APERTURE END LIST*
D10*
%TO.C,J5*%
X160655000Y-95250000D03*
X158115000Y-95250000D03*
X160655000Y-92710000D03*
X158115000Y-92710000D03*
X160655000Y-90170000D03*
D11*
X158115000Y-90170000D03*
%TD*%
D12*
%TO.C,J2*%
X147690000Y-91580000D03*
D13*
X137015000Y-91530000D03*
D14*
X136890000Y-93980000D03*
X136890000Y-95080000D03*
X136890000Y-96180000D03*
X136890000Y-97280000D03*
X136890000Y-98380000D03*
X136890000Y-99480000D03*
X136890000Y-100580000D03*
D15*
X145265000Y-91180000D03*
D16*
X146115000Y-102805000D03*
D17*
X144615000Y-103130000D03*
D18*
X137015000Y-102880000D03*
D14*
X136890000Y-101680000D03*
%TD*%
D10*
%TO.C,J4*%
X172720000Y-86360000D03*
X170180000Y-86360000D03*
X167640000Y-86360000D03*
X165100000Y-86360000D03*
X162560000Y-86360000D03*
X160020000Y-86360000D03*
X157480000Y-86360000D03*
X154940000Y-86360000D03*
X152400000Y-86360000D03*
X149860000Y-86360000D03*
X147320000Y-86360000D03*
X144780000Y-86360000D03*
X142240000Y-86360000D03*
X139700000Y-86360000D03*
D11*
X137160000Y-86360000D03*
%TD*%
D10*
%TO.C,J3*%
X172720000Y-109220000D03*
X170180000Y-109220000D03*
X167640000Y-109220000D03*
X165100000Y-109220000D03*
X162560000Y-109220000D03*
X160020000Y-109220000D03*
X157480000Y-109220000D03*
X154940000Y-109220000D03*
X152400000Y-109220000D03*
X149860000Y-109220000D03*
X147320000Y-109220000D03*
X144780000Y-109220000D03*
X142240000Y-109220000D03*
X139700000Y-109220000D03*
D11*
X137160000Y-109220000D03*
%TD*%
D19*
%TO.C,J1*%
X172687500Y-93655000D03*
X172687500Y-100655000D03*
D20*
X169987500Y-94655000D03*
X169987500Y-99655000D03*
%TD*%
M02*
