%TF.GenerationSoftware,KiCad,Pcbnew,5.1.6+dfsg1-1*%
%TF.CreationDate,2020-07-01T20:32:58+08:00*%
%TF.ProjectId,stm32devmini,73746d33-3264-4657-966d-696e692e6b69,a*%
%TF.SameCoordinates,Original*%
%TF.FileFunction,Legend,Top*%
%TF.FilePolarity,Positive*%
%FSLAX46Y46*%
G04 Gerber Fmt 4.6, Leading zero omitted, Abs format (unit mm)*
G04 Created by KiCad (PCBNEW 5.1.6+dfsg1-1) date 2020-07-01 20:32:58*
%MOMM*%
%LPD*%
G01*
G04 APERTURE LIST*
%ADD10C,0.150000*%
%ADD11C,0.120000*%
G04 APERTURE END LIST*
D10*
X152679523Y-92017904D02*
X153174761Y-92017904D01*
X152908095Y-92322666D01*
X153022380Y-92322666D01*
X153098571Y-92360761D01*
X153136666Y-92398857D01*
X153174761Y-92475047D01*
X153174761Y-92665523D01*
X153136666Y-92741714D01*
X153098571Y-92779809D01*
X153022380Y-92817904D01*
X152793809Y-92817904D01*
X152717619Y-92779809D01*
X152679523Y-92741714D01*
X153403333Y-92017904D02*
X153670000Y-92817904D01*
X153936666Y-92017904D01*
X154127142Y-92017904D02*
X154622380Y-92017904D01*
X154355714Y-92322666D01*
X154470000Y-92322666D01*
X154546190Y-92360761D01*
X154584285Y-92398857D01*
X154622380Y-92475047D01*
X154622380Y-92665523D01*
X154584285Y-92741714D01*
X154546190Y-92779809D01*
X154470000Y-92817904D01*
X154241428Y-92817904D01*
X154165238Y-92779809D01*
X154127142Y-92741714D01*
X155600476Y-92056000D02*
X155524285Y-92017904D01*
X155410000Y-92017904D01*
X155295714Y-92056000D01*
X155219523Y-92132190D01*
X155181428Y-92208380D01*
X155143333Y-92360761D01*
X155143333Y-92475047D01*
X155181428Y-92627428D01*
X155219523Y-92703619D01*
X155295714Y-92779809D01*
X155410000Y-92817904D01*
X155486190Y-92817904D01*
X155600476Y-92779809D01*
X155638571Y-92741714D01*
X155638571Y-92475047D01*
X155486190Y-92475047D01*
X155981428Y-92817904D02*
X155981428Y-92017904D01*
X156438571Y-92817904D01*
X156438571Y-92017904D01*
X156819523Y-92817904D02*
X156819523Y-92017904D01*
X157010000Y-92017904D01*
X157124285Y-92056000D01*
X157200476Y-92132190D01*
X157238571Y-92208380D01*
X157276666Y-92360761D01*
X157276666Y-92475047D01*
X157238571Y-92627428D01*
X157200476Y-92703619D01*
X157124285Y-92779809D01*
X157010000Y-92817904D01*
X156819523Y-92817904D01*
X158083333Y-92017904D02*
X158350000Y-92817904D01*
X158616666Y-92017904D01*
X159150000Y-92398857D02*
X159264285Y-92436952D01*
X159302380Y-92475047D01*
X159340476Y-92551238D01*
X159340476Y-92665523D01*
X159302380Y-92741714D01*
X159264285Y-92779809D01*
X159188095Y-92817904D01*
X158883333Y-92817904D01*
X158883333Y-92017904D01*
X159150000Y-92017904D01*
X159226190Y-92056000D01*
X159264285Y-92094095D01*
X159302380Y-92170285D01*
X159302380Y-92246476D01*
X159264285Y-92322666D01*
X159226190Y-92360761D01*
X159150000Y-92398857D01*
X158883333Y-92398857D01*
X201320476Y-110598000D02*
X201244285Y-110559904D01*
X201130000Y-110559904D01*
X201015714Y-110598000D01*
X200939523Y-110674190D01*
X200901428Y-110750380D01*
X200863333Y-110902761D01*
X200863333Y-111017047D01*
X200901428Y-111169428D01*
X200939523Y-111245619D01*
X201015714Y-111321809D01*
X201130000Y-111359904D01*
X201206190Y-111359904D01*
X201320476Y-111321809D01*
X201358571Y-111283714D01*
X201358571Y-111017047D01*
X201206190Y-111017047D01*
X201701428Y-111359904D02*
X201701428Y-110559904D01*
X202158571Y-111359904D01*
X202158571Y-110559904D01*
X202539523Y-111359904D02*
X202539523Y-110559904D01*
X202730000Y-110559904D01*
X202844285Y-110598000D01*
X202920476Y-110674190D01*
X202958571Y-110750380D01*
X202996666Y-110902761D01*
X202996666Y-111017047D01*
X202958571Y-111169428D01*
X202920476Y-111245619D01*
X202844285Y-111321809D01*
X202730000Y-111359904D01*
X202539523Y-111359904D01*
X198780476Y-110598000D02*
X198704285Y-110559904D01*
X198590000Y-110559904D01*
X198475714Y-110598000D01*
X198399523Y-110674190D01*
X198361428Y-110750380D01*
X198323333Y-110902761D01*
X198323333Y-111017047D01*
X198361428Y-111169428D01*
X198399523Y-111245619D01*
X198475714Y-111321809D01*
X198590000Y-111359904D01*
X198666190Y-111359904D01*
X198780476Y-111321809D01*
X198818571Y-111283714D01*
X198818571Y-111017047D01*
X198666190Y-111017047D01*
X199161428Y-111359904D02*
X199161428Y-110559904D01*
X199618571Y-111359904D01*
X199618571Y-110559904D01*
X199999523Y-111359904D02*
X199999523Y-110559904D01*
X200190000Y-110559904D01*
X200304285Y-110598000D01*
X200380476Y-110674190D01*
X200418571Y-110750380D01*
X200456666Y-110902761D01*
X200456666Y-111017047D01*
X200418571Y-111169428D01*
X200380476Y-111245619D01*
X200304285Y-111321809D01*
X200190000Y-111359904D01*
X199999523Y-111359904D01*
X195859523Y-110559904D02*
X196354761Y-110559904D01*
X196088095Y-110864666D01*
X196202380Y-110864666D01*
X196278571Y-110902761D01*
X196316666Y-110940857D01*
X196354761Y-111017047D01*
X196354761Y-111207523D01*
X196316666Y-111283714D01*
X196278571Y-111321809D01*
X196202380Y-111359904D01*
X195973809Y-111359904D01*
X195897619Y-111321809D01*
X195859523Y-111283714D01*
X196583333Y-110559904D02*
X196850000Y-111359904D01*
X197116666Y-110559904D01*
X197307142Y-110559904D02*
X197802380Y-110559904D01*
X197535714Y-110864666D01*
X197650000Y-110864666D01*
X197726190Y-110902761D01*
X197764285Y-110940857D01*
X197802380Y-111017047D01*
X197802380Y-111207523D01*
X197764285Y-111283714D01*
X197726190Y-111321809D01*
X197650000Y-111359904D01*
X197421428Y-111359904D01*
X197345238Y-111321809D01*
X197307142Y-111283714D01*
X193871904Y-111359904D02*
X193605238Y-110978952D01*
X193414761Y-111359904D02*
X193414761Y-110559904D01*
X193719523Y-110559904D01*
X193795714Y-110598000D01*
X193833809Y-110636095D01*
X193871904Y-110712285D01*
X193871904Y-110826571D01*
X193833809Y-110902761D01*
X193795714Y-110940857D01*
X193719523Y-110978952D01*
X193414761Y-110978952D01*
X194176666Y-111321809D02*
X194290952Y-111359904D01*
X194481428Y-111359904D01*
X194557619Y-111321809D01*
X194595714Y-111283714D01*
X194633809Y-111207523D01*
X194633809Y-111131333D01*
X194595714Y-111055142D01*
X194557619Y-111017047D01*
X194481428Y-110978952D01*
X194329047Y-110940857D01*
X194252857Y-110902761D01*
X194214761Y-110864666D01*
X194176666Y-110788476D01*
X194176666Y-110712285D01*
X194214761Y-110636095D01*
X194252857Y-110598000D01*
X194329047Y-110559904D01*
X194519523Y-110559904D01*
X194633809Y-110598000D01*
X194862380Y-110559904D02*
X195319523Y-110559904D01*
X195090952Y-111359904D02*
X195090952Y-110559904D01*
X191065238Y-110940857D02*
X191179523Y-110978952D01*
X191217619Y-111017047D01*
X191255714Y-111093238D01*
X191255714Y-111207523D01*
X191217619Y-111283714D01*
X191179523Y-111321809D01*
X191103333Y-111359904D01*
X190798571Y-111359904D01*
X190798571Y-110559904D01*
X191065238Y-110559904D01*
X191141428Y-110598000D01*
X191179523Y-110636095D01*
X191217619Y-110712285D01*
X191217619Y-110788476D01*
X191179523Y-110864666D01*
X191141428Y-110902761D01*
X191065238Y-110940857D01*
X190798571Y-110940857D01*
X192017619Y-111359904D02*
X191560476Y-111359904D01*
X191789047Y-111359904D02*
X191789047Y-110559904D01*
X191712857Y-110674190D01*
X191636666Y-110750380D01*
X191560476Y-110788476D01*
X192779523Y-111359904D02*
X192322380Y-111359904D01*
X192550952Y-111359904D02*
X192550952Y-110559904D01*
X192474761Y-110674190D01*
X192398571Y-110750380D01*
X192322380Y-110788476D01*
X188525238Y-110940857D02*
X188639523Y-110978952D01*
X188677619Y-111017047D01*
X188715714Y-111093238D01*
X188715714Y-111207523D01*
X188677619Y-111283714D01*
X188639523Y-111321809D01*
X188563333Y-111359904D01*
X188258571Y-111359904D01*
X188258571Y-110559904D01*
X188525238Y-110559904D01*
X188601428Y-110598000D01*
X188639523Y-110636095D01*
X188677619Y-110712285D01*
X188677619Y-110788476D01*
X188639523Y-110864666D01*
X188601428Y-110902761D01*
X188525238Y-110940857D01*
X188258571Y-110940857D01*
X189477619Y-111359904D02*
X189020476Y-111359904D01*
X189249047Y-111359904D02*
X189249047Y-110559904D01*
X189172857Y-110674190D01*
X189096666Y-110750380D01*
X189020476Y-110788476D01*
X189972857Y-110559904D02*
X190049047Y-110559904D01*
X190125238Y-110598000D01*
X190163333Y-110636095D01*
X190201428Y-110712285D01*
X190239523Y-110864666D01*
X190239523Y-111055142D01*
X190201428Y-111207523D01*
X190163333Y-111283714D01*
X190125238Y-111321809D01*
X190049047Y-111359904D01*
X189972857Y-111359904D01*
X189896666Y-111321809D01*
X189858571Y-111283714D01*
X189820476Y-111207523D01*
X189782380Y-111055142D01*
X189782380Y-110864666D01*
X189820476Y-110712285D01*
X189858571Y-110636095D01*
X189896666Y-110598000D01*
X189972857Y-110559904D01*
X186366190Y-110940857D02*
X186480476Y-110978952D01*
X186518571Y-111017047D01*
X186556666Y-111093238D01*
X186556666Y-111207523D01*
X186518571Y-111283714D01*
X186480476Y-111321809D01*
X186404285Y-111359904D01*
X186099523Y-111359904D01*
X186099523Y-110559904D01*
X186366190Y-110559904D01*
X186442380Y-110598000D01*
X186480476Y-110636095D01*
X186518571Y-110712285D01*
X186518571Y-110788476D01*
X186480476Y-110864666D01*
X186442380Y-110902761D01*
X186366190Y-110940857D01*
X186099523Y-110940857D01*
X187318571Y-111359904D02*
X186861428Y-111359904D01*
X187090000Y-111359904D02*
X187090000Y-110559904D01*
X187013809Y-110674190D01*
X186937619Y-110750380D01*
X186861428Y-110788476D01*
X183826190Y-110940857D02*
X183940476Y-110978952D01*
X183978571Y-111017047D01*
X184016666Y-111093238D01*
X184016666Y-111207523D01*
X183978571Y-111283714D01*
X183940476Y-111321809D01*
X183864285Y-111359904D01*
X183559523Y-111359904D01*
X183559523Y-110559904D01*
X183826190Y-110559904D01*
X183902380Y-110598000D01*
X183940476Y-110636095D01*
X183978571Y-110712285D01*
X183978571Y-110788476D01*
X183940476Y-110864666D01*
X183902380Y-110902761D01*
X183826190Y-110940857D01*
X183559523Y-110940857D01*
X184511904Y-110559904D02*
X184588095Y-110559904D01*
X184664285Y-110598000D01*
X184702380Y-110636095D01*
X184740476Y-110712285D01*
X184778571Y-110864666D01*
X184778571Y-111055142D01*
X184740476Y-111207523D01*
X184702380Y-111283714D01*
X184664285Y-111321809D01*
X184588095Y-111359904D01*
X184511904Y-111359904D01*
X184435714Y-111321809D01*
X184397619Y-111283714D01*
X184359523Y-111207523D01*
X184321428Y-111055142D01*
X184321428Y-110864666D01*
X184359523Y-110712285D01*
X184397619Y-110636095D01*
X184435714Y-110598000D01*
X184511904Y-110559904D01*
X181038571Y-111131333D02*
X181419523Y-111131333D01*
X180962380Y-111359904D02*
X181229047Y-110559904D01*
X181495714Y-111359904D01*
X181686190Y-110559904D02*
X182219523Y-110559904D01*
X181876666Y-111359904D01*
X178498571Y-111131333D02*
X178879523Y-111131333D01*
X178422380Y-111359904D02*
X178689047Y-110559904D01*
X178955714Y-111359904D01*
X179565238Y-110559904D02*
X179412857Y-110559904D01*
X179336666Y-110598000D01*
X179298571Y-110636095D01*
X179222380Y-110750380D01*
X179184285Y-110902761D01*
X179184285Y-111207523D01*
X179222380Y-111283714D01*
X179260476Y-111321809D01*
X179336666Y-111359904D01*
X179489047Y-111359904D01*
X179565238Y-111321809D01*
X179603333Y-111283714D01*
X179641428Y-111207523D01*
X179641428Y-111017047D01*
X179603333Y-110940857D01*
X179565238Y-110902761D01*
X179489047Y-110864666D01*
X179336666Y-110864666D01*
X179260476Y-110902761D01*
X179222380Y-110940857D01*
X179184285Y-111017047D01*
X175958571Y-111131333D02*
X176339523Y-111131333D01*
X175882380Y-111359904D02*
X176149047Y-110559904D01*
X176415714Y-111359904D01*
X177063333Y-110559904D02*
X176682380Y-110559904D01*
X176644285Y-110940857D01*
X176682380Y-110902761D01*
X176758571Y-110864666D01*
X176949047Y-110864666D01*
X177025238Y-110902761D01*
X177063333Y-110940857D01*
X177101428Y-111017047D01*
X177101428Y-111207523D01*
X177063333Y-111283714D01*
X177025238Y-111321809D01*
X176949047Y-111359904D01*
X176758571Y-111359904D01*
X176682380Y-111321809D01*
X176644285Y-111283714D01*
X173418571Y-111131333D02*
X173799523Y-111131333D01*
X173342380Y-111359904D02*
X173609047Y-110559904D01*
X173875714Y-111359904D01*
X174485238Y-110826571D02*
X174485238Y-111359904D01*
X174294761Y-110521809D02*
X174104285Y-111093238D01*
X174599523Y-111093238D01*
X170878571Y-111131333D02*
X171259523Y-111131333D01*
X170802380Y-111359904D02*
X171069047Y-110559904D01*
X171335714Y-111359904D01*
X171526190Y-110559904D02*
X172021428Y-110559904D01*
X171754761Y-110864666D01*
X171869047Y-110864666D01*
X171945238Y-110902761D01*
X171983333Y-110940857D01*
X172021428Y-111017047D01*
X172021428Y-111207523D01*
X171983333Y-111283714D01*
X171945238Y-111321809D01*
X171869047Y-111359904D01*
X171640476Y-111359904D01*
X171564285Y-111321809D01*
X171526190Y-111283714D01*
X168338571Y-111131333D02*
X168719523Y-111131333D01*
X168262380Y-111359904D02*
X168529047Y-110559904D01*
X168795714Y-111359904D01*
X169024285Y-110636095D02*
X169062380Y-110598000D01*
X169138571Y-110559904D01*
X169329047Y-110559904D01*
X169405238Y-110598000D01*
X169443333Y-110636095D01*
X169481428Y-110712285D01*
X169481428Y-110788476D01*
X169443333Y-110902761D01*
X168986190Y-111359904D01*
X169481428Y-111359904D01*
X165798571Y-111131333D02*
X166179523Y-111131333D01*
X165722380Y-111359904D02*
X165989047Y-110559904D01*
X166255714Y-111359904D01*
X166941428Y-111359904D02*
X166484285Y-111359904D01*
X166712857Y-111359904D02*
X166712857Y-110559904D01*
X166636666Y-110674190D01*
X166560476Y-110750380D01*
X166484285Y-110788476D01*
X163258571Y-111131333D02*
X163639523Y-111131333D01*
X163182380Y-111359904D02*
X163449047Y-110559904D01*
X163715714Y-111359904D01*
X164134761Y-110559904D02*
X164210952Y-110559904D01*
X164287142Y-110598000D01*
X164325238Y-110636095D01*
X164363333Y-110712285D01*
X164401428Y-110864666D01*
X164401428Y-111055142D01*
X164363333Y-111207523D01*
X164325238Y-111283714D01*
X164287142Y-111321809D01*
X164210952Y-111359904D01*
X164134761Y-111359904D01*
X164058571Y-111321809D01*
X164020476Y-111283714D01*
X163982380Y-111207523D01*
X163944285Y-111055142D01*
X163944285Y-110864666D01*
X163982380Y-110712285D01*
X164020476Y-110636095D01*
X164058571Y-110598000D01*
X164134761Y-110559904D01*
X160775714Y-111283714D02*
X160737619Y-111321809D01*
X160623333Y-111359904D01*
X160547142Y-111359904D01*
X160432857Y-111321809D01*
X160356666Y-111245619D01*
X160318571Y-111169428D01*
X160280476Y-111017047D01*
X160280476Y-110902761D01*
X160318571Y-110750380D01*
X160356666Y-110674190D01*
X160432857Y-110598000D01*
X160547142Y-110559904D01*
X160623333Y-110559904D01*
X160737619Y-110598000D01*
X160775714Y-110636095D01*
X161537619Y-111359904D02*
X161080476Y-111359904D01*
X161309047Y-111359904D02*
X161309047Y-110559904D01*
X161232857Y-110674190D01*
X161156666Y-110750380D01*
X161080476Y-110788476D01*
X162261428Y-110559904D02*
X161880476Y-110559904D01*
X161842380Y-110940857D01*
X161880476Y-110902761D01*
X161956666Y-110864666D01*
X162147142Y-110864666D01*
X162223333Y-110902761D01*
X162261428Y-110940857D01*
X162299523Y-111017047D01*
X162299523Y-111207523D01*
X162261428Y-111283714D01*
X162223333Y-111321809D01*
X162147142Y-111359904D01*
X161956666Y-111359904D01*
X161880476Y-111321809D01*
X161842380Y-111283714D01*
X158235714Y-111283714D02*
X158197619Y-111321809D01*
X158083333Y-111359904D01*
X158007142Y-111359904D01*
X157892857Y-111321809D01*
X157816666Y-111245619D01*
X157778571Y-111169428D01*
X157740476Y-111017047D01*
X157740476Y-110902761D01*
X157778571Y-110750380D01*
X157816666Y-110674190D01*
X157892857Y-110598000D01*
X158007142Y-110559904D01*
X158083333Y-110559904D01*
X158197619Y-110598000D01*
X158235714Y-110636095D01*
X158997619Y-111359904D02*
X158540476Y-111359904D01*
X158769047Y-111359904D02*
X158769047Y-110559904D01*
X158692857Y-110674190D01*
X158616666Y-110750380D01*
X158540476Y-110788476D01*
X159683333Y-110826571D02*
X159683333Y-111359904D01*
X159492857Y-110521809D02*
X159302380Y-111093238D01*
X159797619Y-111093238D01*
X155695714Y-111283714D02*
X155657619Y-111321809D01*
X155543333Y-111359904D01*
X155467142Y-111359904D01*
X155352857Y-111321809D01*
X155276666Y-111245619D01*
X155238571Y-111169428D01*
X155200476Y-111017047D01*
X155200476Y-110902761D01*
X155238571Y-110750380D01*
X155276666Y-110674190D01*
X155352857Y-110598000D01*
X155467142Y-110559904D01*
X155543333Y-110559904D01*
X155657619Y-110598000D01*
X155695714Y-110636095D01*
X156457619Y-111359904D02*
X156000476Y-111359904D01*
X156229047Y-111359904D02*
X156229047Y-110559904D01*
X156152857Y-110674190D01*
X156076666Y-110750380D01*
X156000476Y-110788476D01*
X156724285Y-110559904D02*
X157219523Y-110559904D01*
X156952857Y-110864666D01*
X157067142Y-110864666D01*
X157143333Y-110902761D01*
X157181428Y-110940857D01*
X157219523Y-111017047D01*
X157219523Y-111207523D01*
X157181428Y-111283714D01*
X157143333Y-111321809D01*
X157067142Y-111359904D01*
X156838571Y-111359904D01*
X156762380Y-111321809D01*
X156724285Y-111283714D01*
X153003333Y-110559904D02*
X153270000Y-111359904D01*
X153536666Y-110559904D01*
X154070000Y-110940857D02*
X154184285Y-110978952D01*
X154222380Y-111017047D01*
X154260476Y-111093238D01*
X154260476Y-111207523D01*
X154222380Y-111283714D01*
X154184285Y-111321809D01*
X154108095Y-111359904D01*
X153803333Y-111359904D01*
X153803333Y-110559904D01*
X154070000Y-110559904D01*
X154146190Y-110598000D01*
X154184285Y-110636095D01*
X154222380Y-110712285D01*
X154222380Y-110788476D01*
X154184285Y-110864666D01*
X154146190Y-110902761D01*
X154070000Y-110940857D01*
X153803333Y-110940857D01*
X160966190Y-92398857D02*
X161080476Y-92436952D01*
X161118571Y-92475047D01*
X161156666Y-92551238D01*
X161156666Y-92665523D01*
X161118571Y-92741714D01*
X161080476Y-92779809D01*
X161004285Y-92817904D01*
X160699523Y-92817904D01*
X160699523Y-92017904D01*
X160966190Y-92017904D01*
X161042380Y-92056000D01*
X161080476Y-92094095D01*
X161118571Y-92170285D01*
X161118571Y-92246476D01*
X161080476Y-92322666D01*
X161042380Y-92360761D01*
X160966190Y-92398857D01*
X160699523Y-92398857D01*
X161537619Y-92817904D02*
X161690000Y-92817904D01*
X161766190Y-92779809D01*
X161804285Y-92741714D01*
X161880476Y-92627428D01*
X161918571Y-92475047D01*
X161918571Y-92170285D01*
X161880476Y-92094095D01*
X161842380Y-92056000D01*
X161766190Y-92017904D01*
X161613809Y-92017904D01*
X161537619Y-92056000D01*
X161499523Y-92094095D01*
X161461428Y-92170285D01*
X161461428Y-92360761D01*
X161499523Y-92436952D01*
X161537619Y-92475047D01*
X161613809Y-92513142D01*
X161766190Y-92513142D01*
X161842380Y-92475047D01*
X161880476Y-92436952D01*
X161918571Y-92360761D01*
X163506190Y-92398857D02*
X163620476Y-92436952D01*
X163658571Y-92475047D01*
X163696666Y-92551238D01*
X163696666Y-92665523D01*
X163658571Y-92741714D01*
X163620476Y-92779809D01*
X163544285Y-92817904D01*
X163239523Y-92817904D01*
X163239523Y-92017904D01*
X163506190Y-92017904D01*
X163582380Y-92056000D01*
X163620476Y-92094095D01*
X163658571Y-92170285D01*
X163658571Y-92246476D01*
X163620476Y-92322666D01*
X163582380Y-92360761D01*
X163506190Y-92398857D01*
X163239523Y-92398857D01*
X164153809Y-92360761D02*
X164077619Y-92322666D01*
X164039523Y-92284571D01*
X164001428Y-92208380D01*
X164001428Y-92170285D01*
X164039523Y-92094095D01*
X164077619Y-92056000D01*
X164153809Y-92017904D01*
X164306190Y-92017904D01*
X164382380Y-92056000D01*
X164420476Y-92094095D01*
X164458571Y-92170285D01*
X164458571Y-92208380D01*
X164420476Y-92284571D01*
X164382380Y-92322666D01*
X164306190Y-92360761D01*
X164153809Y-92360761D01*
X164077619Y-92398857D01*
X164039523Y-92436952D01*
X164001428Y-92513142D01*
X164001428Y-92665523D01*
X164039523Y-92741714D01*
X164077619Y-92779809D01*
X164153809Y-92817904D01*
X164306190Y-92817904D01*
X164382380Y-92779809D01*
X164420476Y-92741714D01*
X164458571Y-92665523D01*
X164458571Y-92513142D01*
X164420476Y-92436952D01*
X164382380Y-92398857D01*
X164306190Y-92360761D01*
X166046190Y-92398857D02*
X166160476Y-92436952D01*
X166198571Y-92475047D01*
X166236666Y-92551238D01*
X166236666Y-92665523D01*
X166198571Y-92741714D01*
X166160476Y-92779809D01*
X166084285Y-92817904D01*
X165779523Y-92817904D01*
X165779523Y-92017904D01*
X166046190Y-92017904D01*
X166122380Y-92056000D01*
X166160476Y-92094095D01*
X166198571Y-92170285D01*
X166198571Y-92246476D01*
X166160476Y-92322666D01*
X166122380Y-92360761D01*
X166046190Y-92398857D01*
X165779523Y-92398857D01*
X166503333Y-92017904D02*
X167036666Y-92017904D01*
X166693809Y-92817904D01*
X168586190Y-92398857D02*
X168700476Y-92436952D01*
X168738571Y-92475047D01*
X168776666Y-92551238D01*
X168776666Y-92665523D01*
X168738571Y-92741714D01*
X168700476Y-92779809D01*
X168624285Y-92817904D01*
X168319523Y-92817904D01*
X168319523Y-92017904D01*
X168586190Y-92017904D01*
X168662380Y-92056000D01*
X168700476Y-92094095D01*
X168738571Y-92170285D01*
X168738571Y-92246476D01*
X168700476Y-92322666D01*
X168662380Y-92360761D01*
X168586190Y-92398857D01*
X168319523Y-92398857D01*
X169462380Y-92017904D02*
X169310000Y-92017904D01*
X169233809Y-92056000D01*
X169195714Y-92094095D01*
X169119523Y-92208380D01*
X169081428Y-92360761D01*
X169081428Y-92665523D01*
X169119523Y-92741714D01*
X169157619Y-92779809D01*
X169233809Y-92817904D01*
X169386190Y-92817904D01*
X169462380Y-92779809D01*
X169500476Y-92741714D01*
X169538571Y-92665523D01*
X169538571Y-92475047D01*
X169500476Y-92398857D01*
X169462380Y-92360761D01*
X169386190Y-92322666D01*
X169233809Y-92322666D01*
X169157619Y-92360761D01*
X169119523Y-92398857D01*
X169081428Y-92475047D01*
X171126190Y-92398857D02*
X171240476Y-92436952D01*
X171278571Y-92475047D01*
X171316666Y-92551238D01*
X171316666Y-92665523D01*
X171278571Y-92741714D01*
X171240476Y-92779809D01*
X171164285Y-92817904D01*
X170859523Y-92817904D01*
X170859523Y-92017904D01*
X171126190Y-92017904D01*
X171202380Y-92056000D01*
X171240476Y-92094095D01*
X171278571Y-92170285D01*
X171278571Y-92246476D01*
X171240476Y-92322666D01*
X171202380Y-92360761D01*
X171126190Y-92398857D01*
X170859523Y-92398857D01*
X172040476Y-92017904D02*
X171659523Y-92017904D01*
X171621428Y-92398857D01*
X171659523Y-92360761D01*
X171735714Y-92322666D01*
X171926190Y-92322666D01*
X172002380Y-92360761D01*
X172040476Y-92398857D01*
X172078571Y-92475047D01*
X172078571Y-92665523D01*
X172040476Y-92741714D01*
X172002380Y-92779809D01*
X171926190Y-92817904D01*
X171735714Y-92817904D01*
X171659523Y-92779809D01*
X171621428Y-92741714D01*
X173666190Y-92398857D02*
X173780476Y-92436952D01*
X173818571Y-92475047D01*
X173856666Y-92551238D01*
X173856666Y-92665523D01*
X173818571Y-92741714D01*
X173780476Y-92779809D01*
X173704285Y-92817904D01*
X173399523Y-92817904D01*
X173399523Y-92017904D01*
X173666190Y-92017904D01*
X173742380Y-92056000D01*
X173780476Y-92094095D01*
X173818571Y-92170285D01*
X173818571Y-92246476D01*
X173780476Y-92322666D01*
X173742380Y-92360761D01*
X173666190Y-92398857D01*
X173399523Y-92398857D01*
X174542380Y-92284571D02*
X174542380Y-92817904D01*
X174351904Y-91979809D02*
X174161428Y-92551238D01*
X174656666Y-92551238D01*
X176206190Y-92398857D02*
X176320476Y-92436952D01*
X176358571Y-92475047D01*
X176396666Y-92551238D01*
X176396666Y-92665523D01*
X176358571Y-92741714D01*
X176320476Y-92779809D01*
X176244285Y-92817904D01*
X175939523Y-92817904D01*
X175939523Y-92017904D01*
X176206190Y-92017904D01*
X176282380Y-92056000D01*
X176320476Y-92094095D01*
X176358571Y-92170285D01*
X176358571Y-92246476D01*
X176320476Y-92322666D01*
X176282380Y-92360761D01*
X176206190Y-92398857D01*
X175939523Y-92398857D01*
X176663333Y-92017904D02*
X177158571Y-92017904D01*
X176891904Y-92322666D01*
X177006190Y-92322666D01*
X177082380Y-92360761D01*
X177120476Y-92398857D01*
X177158571Y-92475047D01*
X177158571Y-92665523D01*
X177120476Y-92741714D01*
X177082380Y-92779809D01*
X177006190Y-92817904D01*
X176777619Y-92817904D01*
X176701428Y-92779809D01*
X176663333Y-92741714D01*
X178117619Y-92589333D02*
X178498571Y-92589333D01*
X178041428Y-92817904D02*
X178308095Y-92017904D01*
X178574761Y-92817904D01*
X179260476Y-92817904D02*
X178803333Y-92817904D01*
X179031904Y-92817904D02*
X179031904Y-92017904D01*
X178955714Y-92132190D01*
X178879523Y-92208380D01*
X178803333Y-92246476D01*
X179984285Y-92017904D02*
X179603333Y-92017904D01*
X179565238Y-92398857D01*
X179603333Y-92360761D01*
X179679523Y-92322666D01*
X179870000Y-92322666D01*
X179946190Y-92360761D01*
X179984285Y-92398857D01*
X180022380Y-92475047D01*
X180022380Y-92665523D01*
X179984285Y-92741714D01*
X179946190Y-92779809D01*
X179870000Y-92817904D01*
X179679523Y-92817904D01*
X179603333Y-92779809D01*
X179565238Y-92741714D01*
X180657619Y-92589333D02*
X181038571Y-92589333D01*
X180581428Y-92817904D02*
X180848095Y-92017904D01*
X181114761Y-92817904D01*
X181800476Y-92817904D02*
X181343333Y-92817904D01*
X181571904Y-92817904D02*
X181571904Y-92017904D01*
X181495714Y-92132190D01*
X181419523Y-92208380D01*
X181343333Y-92246476D01*
X182105238Y-92094095D02*
X182143333Y-92056000D01*
X182219523Y-92017904D01*
X182410000Y-92017904D01*
X182486190Y-92056000D01*
X182524285Y-92094095D01*
X182562380Y-92170285D01*
X182562380Y-92246476D01*
X182524285Y-92360761D01*
X182067142Y-92817904D01*
X182562380Y-92817904D01*
X183197619Y-92589333D02*
X183578571Y-92589333D01*
X183121428Y-92817904D02*
X183388095Y-92017904D01*
X183654761Y-92817904D01*
X184340476Y-92817904D02*
X183883333Y-92817904D01*
X184111904Y-92817904D02*
X184111904Y-92017904D01*
X184035714Y-92132190D01*
X183959523Y-92208380D01*
X183883333Y-92246476D01*
X185102380Y-92817904D02*
X184645238Y-92817904D01*
X184873809Y-92817904D02*
X184873809Y-92017904D01*
X184797619Y-92132190D01*
X184721428Y-92208380D01*
X184645238Y-92246476D01*
X185737619Y-92589333D02*
X186118571Y-92589333D01*
X185661428Y-92817904D02*
X185928095Y-92017904D01*
X186194761Y-92817904D01*
X186880476Y-92817904D02*
X186423333Y-92817904D01*
X186651904Y-92817904D02*
X186651904Y-92017904D01*
X186575714Y-92132190D01*
X186499523Y-92208380D01*
X186423333Y-92246476D01*
X187375714Y-92017904D02*
X187451904Y-92017904D01*
X187528095Y-92056000D01*
X187566190Y-92094095D01*
X187604285Y-92170285D01*
X187642380Y-92322666D01*
X187642380Y-92513142D01*
X187604285Y-92665523D01*
X187566190Y-92741714D01*
X187528095Y-92779809D01*
X187451904Y-92817904D01*
X187375714Y-92817904D01*
X187299523Y-92779809D01*
X187261428Y-92741714D01*
X187223333Y-92665523D01*
X187185238Y-92513142D01*
X187185238Y-92322666D01*
X187223333Y-92170285D01*
X187261428Y-92094095D01*
X187299523Y-92056000D01*
X187375714Y-92017904D01*
X188658571Y-92589333D02*
X189039523Y-92589333D01*
X188582380Y-92817904D02*
X188849047Y-92017904D01*
X189115714Y-92817904D01*
X189420476Y-92817904D02*
X189572857Y-92817904D01*
X189649047Y-92779809D01*
X189687142Y-92741714D01*
X189763333Y-92627428D01*
X189801428Y-92475047D01*
X189801428Y-92170285D01*
X189763333Y-92094095D01*
X189725238Y-92056000D01*
X189649047Y-92017904D01*
X189496666Y-92017904D01*
X189420476Y-92056000D01*
X189382380Y-92094095D01*
X189344285Y-92170285D01*
X189344285Y-92360761D01*
X189382380Y-92436952D01*
X189420476Y-92475047D01*
X189496666Y-92513142D01*
X189649047Y-92513142D01*
X189725238Y-92475047D01*
X189763333Y-92436952D01*
X189801428Y-92360761D01*
X201225238Y-92398857D02*
X201339523Y-92436952D01*
X201377619Y-92475047D01*
X201415714Y-92551238D01*
X201415714Y-92665523D01*
X201377619Y-92741714D01*
X201339523Y-92779809D01*
X201263333Y-92817904D01*
X200958571Y-92817904D01*
X200958571Y-92017904D01*
X201225238Y-92017904D01*
X201301428Y-92056000D01*
X201339523Y-92094095D01*
X201377619Y-92170285D01*
X201377619Y-92246476D01*
X201339523Y-92322666D01*
X201301428Y-92360761D01*
X201225238Y-92398857D01*
X200958571Y-92398857D01*
X202177619Y-92817904D02*
X201720476Y-92817904D01*
X201949047Y-92817904D02*
X201949047Y-92017904D01*
X201872857Y-92132190D01*
X201796666Y-92208380D01*
X201720476Y-92246476D01*
X202482380Y-92094095D02*
X202520476Y-92056000D01*
X202596666Y-92017904D01*
X202787142Y-92017904D01*
X202863333Y-92056000D01*
X202901428Y-92094095D01*
X202939523Y-92170285D01*
X202939523Y-92246476D01*
X202901428Y-92360761D01*
X202444285Y-92817904D01*
X202939523Y-92817904D01*
X198685238Y-92398857D02*
X198799523Y-92436952D01*
X198837619Y-92475047D01*
X198875714Y-92551238D01*
X198875714Y-92665523D01*
X198837619Y-92741714D01*
X198799523Y-92779809D01*
X198723333Y-92817904D01*
X198418571Y-92817904D01*
X198418571Y-92017904D01*
X198685238Y-92017904D01*
X198761428Y-92056000D01*
X198799523Y-92094095D01*
X198837619Y-92170285D01*
X198837619Y-92246476D01*
X198799523Y-92322666D01*
X198761428Y-92360761D01*
X198685238Y-92398857D01*
X198418571Y-92398857D01*
X199637619Y-92817904D02*
X199180476Y-92817904D01*
X199409047Y-92817904D02*
X199409047Y-92017904D01*
X199332857Y-92132190D01*
X199256666Y-92208380D01*
X199180476Y-92246476D01*
X199904285Y-92017904D02*
X200399523Y-92017904D01*
X200132857Y-92322666D01*
X200247142Y-92322666D01*
X200323333Y-92360761D01*
X200361428Y-92398857D01*
X200399523Y-92475047D01*
X200399523Y-92665523D01*
X200361428Y-92741714D01*
X200323333Y-92779809D01*
X200247142Y-92817904D01*
X200018571Y-92817904D01*
X199942380Y-92779809D01*
X199904285Y-92741714D01*
X196145238Y-92398857D02*
X196259523Y-92436952D01*
X196297619Y-92475047D01*
X196335714Y-92551238D01*
X196335714Y-92665523D01*
X196297619Y-92741714D01*
X196259523Y-92779809D01*
X196183333Y-92817904D01*
X195878571Y-92817904D01*
X195878571Y-92017904D01*
X196145238Y-92017904D01*
X196221428Y-92056000D01*
X196259523Y-92094095D01*
X196297619Y-92170285D01*
X196297619Y-92246476D01*
X196259523Y-92322666D01*
X196221428Y-92360761D01*
X196145238Y-92398857D01*
X195878571Y-92398857D01*
X197097619Y-92817904D02*
X196640476Y-92817904D01*
X196869047Y-92817904D02*
X196869047Y-92017904D01*
X196792857Y-92132190D01*
X196716666Y-92208380D01*
X196640476Y-92246476D01*
X197783333Y-92284571D02*
X197783333Y-92817904D01*
X197592857Y-91979809D02*
X197402380Y-92551238D01*
X197897619Y-92551238D01*
X193605238Y-92398857D02*
X193719523Y-92436952D01*
X193757619Y-92475047D01*
X193795714Y-92551238D01*
X193795714Y-92665523D01*
X193757619Y-92741714D01*
X193719523Y-92779809D01*
X193643333Y-92817904D01*
X193338571Y-92817904D01*
X193338571Y-92017904D01*
X193605238Y-92017904D01*
X193681428Y-92056000D01*
X193719523Y-92094095D01*
X193757619Y-92170285D01*
X193757619Y-92246476D01*
X193719523Y-92322666D01*
X193681428Y-92360761D01*
X193605238Y-92398857D01*
X193338571Y-92398857D01*
X194557619Y-92817904D02*
X194100476Y-92817904D01*
X194329047Y-92817904D02*
X194329047Y-92017904D01*
X194252857Y-92132190D01*
X194176666Y-92208380D01*
X194100476Y-92246476D01*
X195281428Y-92017904D02*
X194900476Y-92017904D01*
X194862380Y-92398857D01*
X194900476Y-92360761D01*
X194976666Y-92322666D01*
X195167142Y-92322666D01*
X195243333Y-92360761D01*
X195281428Y-92398857D01*
X195319523Y-92475047D01*
X195319523Y-92665523D01*
X195281428Y-92741714D01*
X195243333Y-92779809D01*
X195167142Y-92817904D01*
X194976666Y-92817904D01*
X194900476Y-92779809D01*
X194862380Y-92741714D01*
X191198571Y-92589333D02*
X191579523Y-92589333D01*
X191122380Y-92817904D02*
X191389047Y-92017904D01*
X191655714Y-92817904D01*
X191960476Y-92817904D02*
X192112857Y-92817904D01*
X192189047Y-92779809D01*
X192227142Y-92741714D01*
X192303333Y-92627428D01*
X192341428Y-92475047D01*
X192341428Y-92170285D01*
X192303333Y-92094095D01*
X192265238Y-92056000D01*
X192189047Y-92017904D01*
X192036666Y-92017904D01*
X191960476Y-92056000D01*
X191922380Y-92094095D01*
X191884285Y-92170285D01*
X191884285Y-92360761D01*
X191922380Y-92436952D01*
X191960476Y-92475047D01*
X192036666Y-92513142D01*
X192189047Y-92513142D01*
X192265238Y-92475047D01*
X192303333Y-92436952D01*
X192341428Y-92360761D01*
D11*
%TO.C,SW1*%
X161085000Y-102475000D02*
X160635000Y-102025000D01*
X157685000Y-102475000D02*
X158135000Y-102025000D01*
X157685000Y-107075000D02*
X158135000Y-107525000D01*
X161085000Y-107075000D02*
X160635000Y-107525000D01*
X156635000Y-105775000D02*
X156635000Y-103775000D01*
X160635000Y-102025000D02*
X158135000Y-102025000D01*
X162135000Y-105775000D02*
X162135000Y-103775000D01*
X160635000Y-107525000D02*
X158135000Y-107525000D01*
%TO.C,SW2*%
X161085000Y-96125000D02*
X160635000Y-95675000D01*
X157685000Y-96125000D02*
X158135000Y-95675000D01*
X157685000Y-100725000D02*
X158135000Y-101175000D01*
X161085000Y-100725000D02*
X160635000Y-101175000D01*
X156635000Y-99425000D02*
X156635000Y-97425000D01*
X160635000Y-95675000D02*
X158135000Y-95675000D01*
X162135000Y-99425000D02*
X162135000Y-97425000D01*
X160635000Y-101175000D02*
X158135000Y-101175000D01*
%TO.C,U1*%
X189555000Y-106170000D02*
X190485000Y-106170000D01*
X192715000Y-106170000D02*
X191785000Y-106170000D01*
X192715000Y-106170000D02*
X192715000Y-104010000D01*
X189555000Y-106170000D02*
X189555000Y-104710000D01*
%TO.C,J1*%
X203295000Y-106300000D02*
X205195000Y-106300000D01*
X199395000Y-106300000D02*
X201395000Y-106300000D01*
X203295000Y-96900000D02*
X205195000Y-96900000D01*
X199395000Y-96900000D02*
X201395000Y-96900000D01*
X205195000Y-106300000D02*
X205195000Y-96900000D01*
%TO.C,U2*%
X183857113Y-101918198D02*
X184175311Y-101600000D01*
X184175311Y-101600000D02*
X183857113Y-101281802D01*
X179388198Y-106387113D02*
X179070000Y-106705311D01*
X179070000Y-106705311D02*
X178751802Y-106387113D01*
X178751802Y-96812887D02*
X179070000Y-96494689D01*
X179070000Y-96494689D02*
X179388198Y-96812887D01*
X174282887Y-101281802D02*
X173964689Y-101600000D01*
X173964689Y-101600000D02*
X174282887Y-101918198D01*
X174282887Y-101918198D02*
X173370719Y-102830366D01*
%TO.C,Y2*%
X170860000Y-99960000D02*
X170860000Y-98160000D01*
X169460000Y-98110000D02*
X168360000Y-98110000D01*
X169460000Y-100010000D02*
X168360000Y-100010000D01*
%TO.C,Y1*%
X167110000Y-100940000D02*
X167110000Y-106840000D01*
X170710000Y-100940000D02*
X167110000Y-100940000D01*
X170710000Y-106840000D02*
X170710000Y-100940000D01*
%TO.C,D3*%
X189650000Y-102970000D02*
X191935000Y-102970000D01*
X189650000Y-101500000D02*
X189650000Y-102970000D01*
X191935000Y-101500000D02*
X189650000Y-101500000D01*
%TO.C,D2*%
X189650000Y-100430000D02*
X191935000Y-100430000D01*
X189650000Y-98960000D02*
X189650000Y-100430000D01*
X191935000Y-98960000D02*
X189650000Y-98960000D01*
%TO.C,J5*%
X151595000Y-106740000D02*
X151595000Y-96460000D01*
X151595000Y-96460000D02*
X148935000Y-96460000D01*
X148935000Y-96460000D02*
X148935000Y-106740000D01*
X148935000Y-106740000D02*
X151595000Y-106740000D01*
X148935000Y-105790000D02*
X142935000Y-105790000D01*
X142935000Y-105790000D02*
X142935000Y-105030000D01*
X142935000Y-105030000D02*
X148935000Y-105030000D01*
X148935000Y-105730000D02*
X142935000Y-105730000D01*
X148935000Y-105610000D02*
X142935000Y-105610000D01*
X148935000Y-105490000D02*
X142935000Y-105490000D01*
X148935000Y-105370000D02*
X142935000Y-105370000D01*
X148935000Y-105250000D02*
X142935000Y-105250000D01*
X148935000Y-105130000D02*
X142935000Y-105130000D01*
X151925000Y-105790000D02*
X151595000Y-105790000D01*
X151925000Y-105030000D02*
X151595000Y-105030000D01*
X151595000Y-104140000D02*
X148935000Y-104140000D01*
X148935000Y-103250000D02*
X142935000Y-103250000D01*
X142935000Y-103250000D02*
X142935000Y-102490000D01*
X142935000Y-102490000D02*
X148935000Y-102490000D01*
X151992071Y-103250000D02*
X151595000Y-103250000D01*
X151992071Y-102490000D02*
X151595000Y-102490000D01*
X151595000Y-101600000D02*
X148935000Y-101600000D01*
X148935000Y-100710000D02*
X142935000Y-100710000D01*
X142935000Y-100710000D02*
X142935000Y-99950000D01*
X142935000Y-99950000D02*
X148935000Y-99950000D01*
X151992071Y-100710000D02*
X151595000Y-100710000D01*
X151992071Y-99950000D02*
X151595000Y-99950000D01*
X151595000Y-99060000D02*
X148935000Y-99060000D01*
X148935000Y-98170000D02*
X142935000Y-98170000D01*
X142935000Y-98170000D02*
X142935000Y-97410000D01*
X142935000Y-97410000D02*
X148935000Y-97410000D01*
X151992071Y-98170000D02*
X151595000Y-98170000D01*
X151992071Y-97410000D02*
X151595000Y-97410000D01*
X154305000Y-105410000D02*
X154305000Y-106680000D01*
X154305000Y-106680000D02*
X153035000Y-106680000D01*
%TO.C,D1*%
X193310000Y-103215000D02*
X195310000Y-103215000D01*
X195310000Y-103215000D02*
X195310000Y-99315000D01*
X193310000Y-103215000D02*
X193310000Y-99315000D01*
%TO.C,C2*%
X188670000Y-105151422D02*
X188670000Y-105668578D01*
X187250000Y-105151422D02*
X187250000Y-105668578D01*
%TO.C,C1*%
X193600000Y-105668578D02*
X193600000Y-105151422D01*
X195020000Y-105668578D02*
X195020000Y-105151422D01*
%TO.C,SW1*%
D10*
X158318333Y-105098809D02*
X158432619Y-105136904D01*
X158623095Y-105136904D01*
X158699285Y-105098809D01*
X158737380Y-105060714D01*
X158775476Y-104984523D01*
X158775476Y-104908333D01*
X158737380Y-104832142D01*
X158699285Y-104794047D01*
X158623095Y-104755952D01*
X158470714Y-104717857D01*
X158394523Y-104679761D01*
X158356428Y-104641666D01*
X158318333Y-104565476D01*
X158318333Y-104489285D01*
X158356428Y-104413095D01*
X158394523Y-104375000D01*
X158470714Y-104336904D01*
X158661190Y-104336904D01*
X158775476Y-104375000D01*
X159042142Y-104336904D02*
X159232619Y-105136904D01*
X159385000Y-104565476D01*
X159537380Y-105136904D01*
X159727857Y-104336904D01*
X160451666Y-105136904D02*
X159994523Y-105136904D01*
X160223095Y-105136904D02*
X160223095Y-104336904D01*
X160146904Y-104451190D01*
X160070714Y-104527380D01*
X159994523Y-104565476D01*
%TO.C,SW2*%
X158051666Y-98829761D02*
X158194523Y-98877380D01*
X158432619Y-98877380D01*
X158527857Y-98829761D01*
X158575476Y-98782142D01*
X158623095Y-98686904D01*
X158623095Y-98591666D01*
X158575476Y-98496428D01*
X158527857Y-98448809D01*
X158432619Y-98401190D01*
X158242142Y-98353571D01*
X158146904Y-98305952D01*
X158099285Y-98258333D01*
X158051666Y-98163095D01*
X158051666Y-98067857D01*
X158099285Y-97972619D01*
X158146904Y-97925000D01*
X158242142Y-97877380D01*
X158480238Y-97877380D01*
X158623095Y-97925000D01*
X158956428Y-97877380D02*
X159194523Y-98877380D01*
X159385000Y-98163095D01*
X159575476Y-98877380D01*
X159813571Y-97877380D01*
X160146904Y-97972619D02*
X160194523Y-97925000D01*
X160289761Y-97877380D01*
X160527857Y-97877380D01*
X160623095Y-97925000D01*
X160670714Y-97972619D01*
X160718333Y-98067857D01*
X160718333Y-98163095D01*
X160670714Y-98305952D01*
X160099285Y-98877380D01*
X160718333Y-98877380D01*
%TO.C,U1*%
X193087380Y-106171904D02*
X193896904Y-106171904D01*
X193992142Y-106124285D01*
X194039761Y-106076666D01*
X194087380Y-105981428D01*
X194087380Y-105790952D01*
X194039761Y-105695714D01*
X193992142Y-105648095D01*
X193896904Y-105600476D01*
X193087380Y-105600476D01*
X194087380Y-104600476D02*
X194087380Y-105171904D01*
X194087380Y-104886190D02*
X193087380Y-104886190D01*
X193230238Y-104981428D01*
X193325476Y-105076666D01*
X193373095Y-105171904D01*
%TO.C,C12*%
X165992142Y-100337857D02*
X166039761Y-100385476D01*
X166087380Y-100528333D01*
X166087380Y-100623571D01*
X166039761Y-100766428D01*
X165944523Y-100861666D01*
X165849285Y-100909285D01*
X165658809Y-100956904D01*
X165515952Y-100956904D01*
X165325476Y-100909285D01*
X165230238Y-100861666D01*
X165135000Y-100766428D01*
X165087380Y-100623571D01*
X165087380Y-100528333D01*
X165135000Y-100385476D01*
X165182619Y-100337857D01*
X166087380Y-99385476D02*
X166087380Y-99956904D01*
X166087380Y-99671190D02*
X165087380Y-99671190D01*
X165230238Y-99766428D01*
X165325476Y-99861666D01*
X165373095Y-99956904D01*
X165182619Y-99004523D02*
X165135000Y-98956904D01*
X165087380Y-98861666D01*
X165087380Y-98623571D01*
X165135000Y-98528333D01*
X165182619Y-98480714D01*
X165277857Y-98433095D01*
X165373095Y-98433095D01*
X165515952Y-98480714D01*
X166087380Y-99052142D01*
X166087380Y-98433095D01*
%TO.C,R1*%
X191603333Y-96972380D02*
X191270000Y-96496190D01*
X191031904Y-96972380D02*
X191031904Y-95972380D01*
X191412857Y-95972380D01*
X191508095Y-96020000D01*
X191555714Y-96067619D01*
X191603333Y-96162857D01*
X191603333Y-96305714D01*
X191555714Y-96400952D01*
X191508095Y-96448571D01*
X191412857Y-96496190D01*
X191031904Y-96496190D01*
X192555714Y-96972380D02*
X191984285Y-96972380D01*
X192270000Y-96972380D02*
X192270000Y-95972380D01*
X192174761Y-96115238D01*
X192079523Y-96210476D01*
X191984285Y-96258095D01*
%TO.C,J1*%
X202017380Y-101933333D02*
X202731666Y-101933333D01*
X202874523Y-101980952D01*
X202969761Y-102076190D01*
X203017380Y-102219047D01*
X203017380Y-102314285D01*
X203017380Y-100933333D02*
X203017380Y-101504761D01*
X203017380Y-101219047D02*
X202017380Y-101219047D01*
X202160238Y-101314285D01*
X202255476Y-101409523D01*
X202303095Y-101504761D01*
%TO.C,U2*%
X174192646Y-97584643D02*
X174650582Y-98042579D01*
X174731394Y-98069516D01*
X174785269Y-98069516D01*
X174866081Y-98042579D01*
X174973831Y-97934829D01*
X175000768Y-97854017D01*
X175000768Y-97800142D01*
X174973831Y-97719330D01*
X174515895Y-97261394D01*
X174812206Y-97072832D02*
X174812206Y-97018957D01*
X174839144Y-96938145D01*
X174973831Y-96803458D01*
X175054643Y-96776521D01*
X175108518Y-96776521D01*
X175189330Y-96803458D01*
X175243205Y-96857333D01*
X175297079Y-96965083D01*
X175297079Y-97611580D01*
X175647266Y-97261394D01*
%TO.C,C11*%
X167925714Y-99574285D02*
X167963809Y-99612380D01*
X168001904Y-99726666D01*
X168001904Y-99802857D01*
X167963809Y-99917142D01*
X167887619Y-99993333D01*
X167811428Y-100031428D01*
X167659047Y-100069523D01*
X167544761Y-100069523D01*
X167392380Y-100031428D01*
X167316190Y-99993333D01*
X167240000Y-99917142D01*
X167201904Y-99802857D01*
X167201904Y-99726666D01*
X167240000Y-99612380D01*
X167278095Y-99574285D01*
X168001904Y-98812380D02*
X168001904Y-99269523D01*
X168001904Y-99040952D02*
X167201904Y-99040952D01*
X167316190Y-99117142D01*
X167392380Y-99193333D01*
X167430476Y-99269523D01*
X168001904Y-98050476D02*
X168001904Y-98507619D01*
X168001904Y-98279047D02*
X167201904Y-98279047D01*
X167316190Y-98355238D01*
X167392380Y-98431428D01*
X167430476Y-98507619D01*
%TO.C,C10*%
X173005714Y-99574285D02*
X173043809Y-99612380D01*
X173081904Y-99726666D01*
X173081904Y-99802857D01*
X173043809Y-99917142D01*
X172967619Y-99993333D01*
X172891428Y-100031428D01*
X172739047Y-100069523D01*
X172624761Y-100069523D01*
X172472380Y-100031428D01*
X172396190Y-99993333D01*
X172320000Y-99917142D01*
X172281904Y-99802857D01*
X172281904Y-99726666D01*
X172320000Y-99612380D01*
X172358095Y-99574285D01*
X173081904Y-98812380D02*
X173081904Y-99269523D01*
X173081904Y-99040952D02*
X172281904Y-99040952D01*
X172396190Y-99117142D01*
X172472380Y-99193333D01*
X172510476Y-99269523D01*
X172281904Y-98317142D02*
X172281904Y-98240952D01*
X172320000Y-98164761D01*
X172358095Y-98126666D01*
X172434285Y-98088571D01*
X172586666Y-98050476D01*
X172777142Y-98050476D01*
X172929523Y-98088571D01*
X173005714Y-98126666D01*
X173043809Y-98164761D01*
X173081904Y-98240952D01*
X173081904Y-98317142D01*
X173043809Y-98393333D01*
X173005714Y-98431428D01*
X172929523Y-98469523D01*
X172777142Y-98507619D01*
X172586666Y-98507619D01*
X172434285Y-98469523D01*
X172358095Y-98431428D01*
X172320000Y-98393333D01*
X172281904Y-98317142D01*
%TO.C,Y2*%
X167894047Y-97135952D02*
X167894047Y-97516904D01*
X167627380Y-96716904D02*
X167894047Y-97135952D01*
X168160714Y-96716904D01*
X168389285Y-96793095D02*
X168427380Y-96755000D01*
X168503571Y-96716904D01*
X168694047Y-96716904D01*
X168770238Y-96755000D01*
X168808333Y-96793095D01*
X168846428Y-96869285D01*
X168846428Y-96945476D01*
X168808333Y-97059761D01*
X168351190Y-97516904D01*
X168846428Y-97516904D01*
%TO.C,Y1*%
X168529047Y-107803952D02*
X168529047Y-108184904D01*
X168262380Y-107384904D02*
X168529047Y-107803952D01*
X168795714Y-107384904D01*
X169481428Y-108184904D02*
X169024285Y-108184904D01*
X169252857Y-108184904D02*
X169252857Y-107384904D01*
X169176666Y-107499190D01*
X169100476Y-107575380D01*
X169024285Y-107613476D01*
%TO.C,C9*%
X165485714Y-106178333D02*
X165523809Y-106216428D01*
X165561904Y-106330714D01*
X165561904Y-106406904D01*
X165523809Y-106521190D01*
X165447619Y-106597380D01*
X165371428Y-106635476D01*
X165219047Y-106673571D01*
X165104761Y-106673571D01*
X164952380Y-106635476D01*
X164876190Y-106597380D01*
X164800000Y-106521190D01*
X164761904Y-106406904D01*
X164761904Y-106330714D01*
X164800000Y-106216428D01*
X164838095Y-106178333D01*
X165561904Y-105797380D02*
X165561904Y-105645000D01*
X165523809Y-105568809D01*
X165485714Y-105530714D01*
X165371428Y-105454523D01*
X165219047Y-105416428D01*
X164914285Y-105416428D01*
X164838095Y-105454523D01*
X164800000Y-105492619D01*
X164761904Y-105568809D01*
X164761904Y-105721190D01*
X164800000Y-105797380D01*
X164838095Y-105835476D01*
X164914285Y-105873571D01*
X165104761Y-105873571D01*
X165180952Y-105835476D01*
X165219047Y-105797380D01*
X165257142Y-105721190D01*
X165257142Y-105568809D01*
X165219047Y-105492619D01*
X165180952Y-105454523D01*
X165104761Y-105416428D01*
%TO.C,C8*%
X167825714Y-102368333D02*
X167863809Y-102406428D01*
X167901904Y-102520714D01*
X167901904Y-102596904D01*
X167863809Y-102711190D01*
X167787619Y-102787380D01*
X167711428Y-102825476D01*
X167559047Y-102863571D01*
X167444761Y-102863571D01*
X167292380Y-102825476D01*
X167216190Y-102787380D01*
X167140000Y-102711190D01*
X167101904Y-102596904D01*
X167101904Y-102520714D01*
X167140000Y-102406428D01*
X167178095Y-102368333D01*
X167444761Y-101911190D02*
X167406666Y-101987380D01*
X167368571Y-102025476D01*
X167292380Y-102063571D01*
X167254285Y-102063571D01*
X167178095Y-102025476D01*
X167140000Y-101987380D01*
X167101904Y-101911190D01*
X167101904Y-101758809D01*
X167140000Y-101682619D01*
X167178095Y-101644523D01*
X167254285Y-101606428D01*
X167292380Y-101606428D01*
X167368571Y-101644523D01*
X167406666Y-101682619D01*
X167444761Y-101758809D01*
X167444761Y-101911190D01*
X167482857Y-101987380D01*
X167520952Y-102025476D01*
X167597142Y-102063571D01*
X167749523Y-102063571D01*
X167825714Y-102025476D01*
X167863809Y-101987380D01*
X167901904Y-101911190D01*
X167901904Y-101758809D01*
X167863809Y-101682619D01*
X167825714Y-101644523D01*
X167749523Y-101606428D01*
X167597142Y-101606428D01*
X167520952Y-101644523D01*
X167482857Y-101682619D01*
X167444761Y-101758809D01*
%TO.C,R6*%
X194176666Y-96881904D02*
X193910000Y-96500952D01*
X193719523Y-96881904D02*
X193719523Y-96081904D01*
X194024285Y-96081904D01*
X194100476Y-96120000D01*
X194138571Y-96158095D01*
X194176666Y-96234285D01*
X194176666Y-96348571D01*
X194138571Y-96424761D01*
X194100476Y-96462857D01*
X194024285Y-96500952D01*
X193719523Y-96500952D01*
X194862380Y-96081904D02*
X194710000Y-96081904D01*
X194633809Y-96120000D01*
X194595714Y-96158095D01*
X194519523Y-96272380D01*
X194481428Y-96424761D01*
X194481428Y-96729523D01*
X194519523Y-96805714D01*
X194557619Y-96843809D01*
X194633809Y-96881904D01*
X194786190Y-96881904D01*
X194862380Y-96843809D01*
X194900476Y-96805714D01*
X194938571Y-96729523D01*
X194938571Y-96539047D01*
X194900476Y-96462857D01*
X194862380Y-96424761D01*
X194786190Y-96386666D01*
X194633809Y-96386666D01*
X194557619Y-96424761D01*
X194519523Y-96462857D01*
X194481428Y-96539047D01*
%TO.C,R5*%
X190366666Y-102596904D02*
X190100000Y-102215952D01*
X189909523Y-102596904D02*
X189909523Y-101796904D01*
X190214285Y-101796904D01*
X190290476Y-101835000D01*
X190328571Y-101873095D01*
X190366666Y-101949285D01*
X190366666Y-102063571D01*
X190328571Y-102139761D01*
X190290476Y-102177857D01*
X190214285Y-102215952D01*
X189909523Y-102215952D01*
X191090476Y-101796904D02*
X190709523Y-101796904D01*
X190671428Y-102177857D01*
X190709523Y-102139761D01*
X190785714Y-102101666D01*
X190976190Y-102101666D01*
X191052380Y-102139761D01*
X191090476Y-102177857D01*
X191128571Y-102254047D01*
X191128571Y-102444523D01*
X191090476Y-102520714D01*
X191052380Y-102558809D01*
X190976190Y-102596904D01*
X190785714Y-102596904D01*
X190709523Y-102558809D01*
X190671428Y-102520714D01*
%TO.C,R4*%
X186556666Y-100056904D02*
X186290000Y-99675952D01*
X186099523Y-100056904D02*
X186099523Y-99256904D01*
X186404285Y-99256904D01*
X186480476Y-99295000D01*
X186518571Y-99333095D01*
X186556666Y-99409285D01*
X186556666Y-99523571D01*
X186518571Y-99599761D01*
X186480476Y-99637857D01*
X186404285Y-99675952D01*
X186099523Y-99675952D01*
X187242380Y-99523571D02*
X187242380Y-100056904D01*
X187051904Y-99218809D02*
X186861428Y-99790238D01*
X187356666Y-99790238D01*
%TO.C,D3*%
X188004523Y-102596904D02*
X188004523Y-101796904D01*
X188195000Y-101796904D01*
X188309285Y-101835000D01*
X188385476Y-101911190D01*
X188423571Y-101987380D01*
X188461666Y-102139761D01*
X188461666Y-102254047D01*
X188423571Y-102406428D01*
X188385476Y-102482619D01*
X188309285Y-102558809D01*
X188195000Y-102596904D01*
X188004523Y-102596904D01*
X188728333Y-101796904D02*
X189223571Y-101796904D01*
X188956904Y-102101666D01*
X189071190Y-102101666D01*
X189147380Y-102139761D01*
X189185476Y-102177857D01*
X189223571Y-102254047D01*
X189223571Y-102444523D01*
X189185476Y-102520714D01*
X189147380Y-102558809D01*
X189071190Y-102596904D01*
X188842619Y-102596904D01*
X188766428Y-102558809D01*
X188728333Y-102520714D01*
%TO.C,D2*%
X190544523Y-101326904D02*
X190544523Y-100526904D01*
X190735000Y-100526904D01*
X190849285Y-100565000D01*
X190925476Y-100641190D01*
X190963571Y-100717380D01*
X191001666Y-100869761D01*
X191001666Y-100984047D01*
X190963571Y-101136428D01*
X190925476Y-101212619D01*
X190849285Y-101288809D01*
X190735000Y-101326904D01*
X190544523Y-101326904D01*
X191306428Y-100603095D02*
X191344523Y-100565000D01*
X191420714Y-100526904D01*
X191611190Y-100526904D01*
X191687380Y-100565000D01*
X191725476Y-100603095D01*
X191763571Y-100679285D01*
X191763571Y-100755476D01*
X191725476Y-100869761D01*
X191268333Y-101326904D01*
X191763571Y-101326904D01*
%TO.C,C7*%
X165920714Y-103638333D02*
X165958809Y-103676428D01*
X165996904Y-103790714D01*
X165996904Y-103866904D01*
X165958809Y-103981190D01*
X165882619Y-104057380D01*
X165806428Y-104095476D01*
X165654047Y-104133571D01*
X165539761Y-104133571D01*
X165387380Y-104095476D01*
X165311190Y-104057380D01*
X165235000Y-103981190D01*
X165196904Y-103866904D01*
X165196904Y-103790714D01*
X165235000Y-103676428D01*
X165273095Y-103638333D01*
X165196904Y-103371666D02*
X165196904Y-102838333D01*
X165996904Y-103181190D01*
%TO.C,D1*%
X194671904Y-101555476D02*
X193871904Y-101555476D01*
X193871904Y-101365000D01*
X193910000Y-101250714D01*
X193986190Y-101174523D01*
X194062380Y-101136428D01*
X194214761Y-101098333D01*
X194329047Y-101098333D01*
X194481428Y-101136428D01*
X194557619Y-101174523D01*
X194633809Y-101250714D01*
X194671904Y-101365000D01*
X194671904Y-101555476D01*
X194671904Y-100336428D02*
X194671904Y-100793571D01*
X194671904Y-100565000D02*
X193871904Y-100565000D01*
X193986190Y-100641190D01*
X194062380Y-100717380D01*
X194100476Y-100793571D01*
%TO.C,C6*%
X173005714Y-99828333D02*
X173043809Y-99866428D01*
X173081904Y-99980714D01*
X173081904Y-100056904D01*
X173043809Y-100171190D01*
X172967619Y-100247380D01*
X172891428Y-100285476D01*
X172739047Y-100323571D01*
X172624761Y-100323571D01*
X172472380Y-100285476D01*
X172396190Y-100247380D01*
X172320000Y-100171190D01*
X172281904Y-100056904D01*
X172281904Y-99980714D01*
X172320000Y-99866428D01*
X172358095Y-99828333D01*
X172281904Y-99142619D02*
X172281904Y-99295000D01*
X172320000Y-99371190D01*
X172358095Y-99409285D01*
X172472380Y-99485476D01*
X172624761Y-99523571D01*
X172929523Y-99523571D01*
X173005714Y-99485476D01*
X173043809Y-99447380D01*
X173081904Y-99371190D01*
X173081904Y-99218809D01*
X173043809Y-99142619D01*
X173005714Y-99104523D01*
X172929523Y-99066428D01*
X172739047Y-99066428D01*
X172662857Y-99104523D01*
X172624761Y-99142619D01*
X172586666Y-99218809D01*
X172586666Y-99371190D01*
X172624761Y-99447380D01*
X172662857Y-99485476D01*
X172739047Y-99523571D01*
%TO.C,C5*%
X174491666Y-107600714D02*
X174453571Y-107638809D01*
X174339285Y-107676904D01*
X174263095Y-107676904D01*
X174148809Y-107638809D01*
X174072619Y-107562619D01*
X174034523Y-107486428D01*
X173996428Y-107334047D01*
X173996428Y-107219761D01*
X174034523Y-107067380D01*
X174072619Y-106991190D01*
X174148809Y-106915000D01*
X174263095Y-106876904D01*
X174339285Y-106876904D01*
X174453571Y-106915000D01*
X174491666Y-106953095D01*
X175215476Y-106876904D02*
X174834523Y-106876904D01*
X174796428Y-107257857D01*
X174834523Y-107219761D01*
X174910714Y-107181666D01*
X175101190Y-107181666D01*
X175177380Y-107219761D01*
X175215476Y-107257857D01*
X175253571Y-107334047D01*
X175253571Y-107524523D01*
X175215476Y-107600714D01*
X175177380Y-107638809D01*
X175101190Y-107676904D01*
X174910714Y-107676904D01*
X174834523Y-107638809D01*
X174796428Y-107600714D01*
%TO.C,C4*%
X184016666Y-96170714D02*
X183978571Y-96208809D01*
X183864285Y-96246904D01*
X183788095Y-96246904D01*
X183673809Y-96208809D01*
X183597619Y-96132619D01*
X183559523Y-96056428D01*
X183521428Y-95904047D01*
X183521428Y-95789761D01*
X183559523Y-95637380D01*
X183597619Y-95561190D01*
X183673809Y-95485000D01*
X183788095Y-95446904D01*
X183864285Y-95446904D01*
X183978571Y-95485000D01*
X184016666Y-95523095D01*
X184702380Y-95713571D02*
X184702380Y-96246904D01*
X184511904Y-95408809D02*
X184321428Y-95980238D01*
X184816666Y-95980238D01*
%TO.C,C3*%
X186340714Y-99828333D02*
X186378809Y-99866428D01*
X186416904Y-99980714D01*
X186416904Y-100056904D01*
X186378809Y-100171190D01*
X186302619Y-100247380D01*
X186226428Y-100285476D01*
X186074047Y-100323571D01*
X185959761Y-100323571D01*
X185807380Y-100285476D01*
X185731190Y-100247380D01*
X185655000Y-100171190D01*
X185616904Y-100056904D01*
X185616904Y-99980714D01*
X185655000Y-99866428D01*
X185693095Y-99828333D01*
X185616904Y-99561666D02*
X185616904Y-99066428D01*
X185921666Y-99333095D01*
X185921666Y-99218809D01*
X185959761Y-99142619D01*
X185997857Y-99104523D01*
X186074047Y-99066428D01*
X186264523Y-99066428D01*
X186340714Y-99104523D01*
X186378809Y-99142619D01*
X186416904Y-99218809D01*
X186416904Y-99447380D01*
X186378809Y-99523571D01*
X186340714Y-99561666D01*
%TO.C,C2*%
X188245714Y-108083333D02*
X188283809Y-108121428D01*
X188321904Y-108235714D01*
X188321904Y-108311904D01*
X188283809Y-108426190D01*
X188207619Y-108502380D01*
X188131428Y-108540476D01*
X187979047Y-108578571D01*
X187864761Y-108578571D01*
X187712380Y-108540476D01*
X187636190Y-108502380D01*
X187560000Y-108426190D01*
X187521904Y-108311904D01*
X187521904Y-108235714D01*
X187560000Y-108121428D01*
X187598095Y-108083333D01*
X187598095Y-107778571D02*
X187560000Y-107740476D01*
X187521904Y-107664285D01*
X187521904Y-107473809D01*
X187560000Y-107397619D01*
X187598095Y-107359523D01*
X187674285Y-107321428D01*
X187750476Y-107321428D01*
X187864761Y-107359523D01*
X188321904Y-107816666D01*
X188321904Y-107321428D01*
%TO.C,C1*%
X195865714Y-105543333D02*
X195903809Y-105581428D01*
X195941904Y-105695714D01*
X195941904Y-105771904D01*
X195903809Y-105886190D01*
X195827619Y-105962380D01*
X195751428Y-106000476D01*
X195599047Y-106038571D01*
X195484761Y-106038571D01*
X195332380Y-106000476D01*
X195256190Y-105962380D01*
X195180000Y-105886190D01*
X195141904Y-105771904D01*
X195141904Y-105695714D01*
X195180000Y-105581428D01*
X195218095Y-105543333D01*
X195941904Y-104781428D02*
X195941904Y-105238571D01*
X195941904Y-105010000D02*
X195141904Y-105010000D01*
X195256190Y-105086190D01*
X195332380Y-105162380D01*
X195370476Y-105238571D01*
%TD*%
M02*
