%TF.GenerationSoftware,KiCad,Pcbnew,5.1.6+dfsg1-1*%
%TF.CreationDate,2020-07-03T12:17:36+08:00*%
%TF.ProjectId,stm32devmini,73746d33-3264-4657-966d-696e692e6b69,a*%
%TF.SameCoordinates,Original*%
%TF.FileFunction,Legend,Bot*%
%TF.FilePolarity,Positive*%
%FSLAX46Y46*%
G04 Gerber Fmt 4.6, Leading zero omitted, Abs format (unit mm)*
G04 Created by KiCad (PCBNEW 5.1.6+dfsg1-1) date 2020-07-03 12:17:36*
%MOMM*%
%LPD*%
G01*
G04 APERTURE LIST*
%ADD10C,0.150000*%
%ADD11C,0.120000*%
G04 APERTURE END LIST*
D10*
X189585476Y-103701904D02*
X189090238Y-103701904D01*
X189356904Y-104006666D01*
X189242619Y-104006666D01*
X189166428Y-104044761D01*
X189128333Y-104082857D01*
X189090238Y-104159047D01*
X189090238Y-104349523D01*
X189128333Y-104425714D01*
X189166428Y-104463809D01*
X189242619Y-104501904D01*
X189471190Y-104501904D01*
X189547380Y-104463809D01*
X189585476Y-104425714D01*
X188861666Y-103701904D02*
X188595000Y-104501904D01*
X188328333Y-103701904D01*
X188137857Y-103701904D02*
X187642619Y-103701904D01*
X187909285Y-104006666D01*
X187795000Y-104006666D01*
X187718809Y-104044761D01*
X187680714Y-104082857D01*
X187642619Y-104159047D01*
X187642619Y-104349523D01*
X187680714Y-104425714D01*
X187718809Y-104463809D01*
X187795000Y-104501904D01*
X188023571Y-104501904D01*
X188099761Y-104463809D01*
X188137857Y-104425714D01*
X182854523Y-103740000D02*
X182930714Y-103701904D01*
X183045000Y-103701904D01*
X183159285Y-103740000D01*
X183235476Y-103816190D01*
X183273571Y-103892380D01*
X183311666Y-104044761D01*
X183311666Y-104159047D01*
X183273571Y-104311428D01*
X183235476Y-104387619D01*
X183159285Y-104463809D01*
X183045000Y-104501904D01*
X182968809Y-104501904D01*
X182854523Y-104463809D01*
X182816428Y-104425714D01*
X182816428Y-104159047D01*
X182968809Y-104159047D01*
X182473571Y-104501904D02*
X182473571Y-103701904D01*
X182016428Y-104501904D01*
X182016428Y-103701904D01*
X181635476Y-104501904D02*
X181635476Y-103701904D01*
X181445000Y-103701904D01*
X181330714Y-103740000D01*
X181254523Y-103816190D01*
X181216428Y-103892380D01*
X181178333Y-104044761D01*
X181178333Y-104159047D01*
X181216428Y-104311428D01*
X181254523Y-104387619D01*
X181330714Y-104463809D01*
X181445000Y-104501904D01*
X181635476Y-104501904D01*
X187000952Y-105987857D02*
X186886666Y-106025952D01*
X186848571Y-106064047D01*
X186810476Y-106140238D01*
X186810476Y-106254523D01*
X186848571Y-106330714D01*
X186886666Y-106368809D01*
X186962857Y-106406904D01*
X187267619Y-106406904D01*
X187267619Y-105606904D01*
X187000952Y-105606904D01*
X186924761Y-105645000D01*
X186886666Y-105683095D01*
X186848571Y-105759285D01*
X186848571Y-105835476D01*
X186886666Y-105911666D01*
X186924761Y-105949761D01*
X187000952Y-105987857D01*
X187267619Y-105987857D01*
X186353333Y-106406904D02*
X186429523Y-106368809D01*
X186467619Y-106330714D01*
X186505714Y-106254523D01*
X186505714Y-106025952D01*
X186467619Y-105949761D01*
X186429523Y-105911666D01*
X186353333Y-105873571D01*
X186239047Y-105873571D01*
X186162857Y-105911666D01*
X186124761Y-105949761D01*
X186086666Y-106025952D01*
X186086666Y-106254523D01*
X186124761Y-106330714D01*
X186162857Y-106368809D01*
X186239047Y-106406904D01*
X186353333Y-106406904D01*
X185629523Y-106406904D02*
X185705714Y-106368809D01*
X185743809Y-106330714D01*
X185781904Y-106254523D01*
X185781904Y-106025952D01*
X185743809Y-105949761D01*
X185705714Y-105911666D01*
X185629523Y-105873571D01*
X185515238Y-105873571D01*
X185439047Y-105911666D01*
X185400952Y-105949761D01*
X185362857Y-106025952D01*
X185362857Y-106254523D01*
X185400952Y-106330714D01*
X185439047Y-106368809D01*
X185515238Y-106406904D01*
X185629523Y-106406904D01*
X185134285Y-105873571D02*
X184829523Y-105873571D01*
X185020000Y-105606904D02*
X185020000Y-106292619D01*
X184981904Y-106368809D01*
X184905714Y-106406904D01*
X184829523Y-106406904D01*
X183534285Y-106406904D02*
X183991428Y-106406904D01*
X183762857Y-106406904D02*
X183762857Y-105606904D01*
X183839047Y-105721190D01*
X183915238Y-105797380D01*
X183991428Y-105835476D01*
X172838452Y-96081904D02*
X172838452Y-96653333D01*
X172876547Y-96767619D01*
X172952738Y-96843809D01*
X173067023Y-96881904D01*
X173143214Y-96881904D01*
X172076547Y-96881904D02*
X172457500Y-96881904D01*
X172457500Y-96081904D01*
X171352738Y-96805714D02*
X171390833Y-96843809D01*
X171505119Y-96881904D01*
X171581309Y-96881904D01*
X171695595Y-96843809D01*
X171771785Y-96767619D01*
X171809880Y-96691428D01*
X171847976Y-96539047D01*
X171847976Y-96424761D01*
X171809880Y-96272380D01*
X171771785Y-96196190D01*
X171695595Y-96120000D01*
X171581309Y-96081904D01*
X171505119Y-96081904D01*
X171390833Y-96120000D01*
X171352738Y-96158095D01*
X170781309Y-96081904D02*
X170781309Y-96653333D01*
X170819404Y-96767619D01*
X170895595Y-96843809D01*
X171009880Y-96881904D01*
X171086071Y-96881904D01*
X170019404Y-96881904D02*
X170400357Y-96881904D01*
X170400357Y-96081904D01*
X169295595Y-96805714D02*
X169333690Y-96843809D01*
X169447976Y-96881904D01*
X169524166Y-96881904D01*
X169638452Y-96843809D01*
X169714642Y-96767619D01*
X169752738Y-96691428D01*
X169790833Y-96539047D01*
X169790833Y-96424761D01*
X169752738Y-96272380D01*
X169714642Y-96196190D01*
X169638452Y-96120000D01*
X169524166Y-96081904D01*
X169447976Y-96081904D01*
X169333690Y-96120000D01*
X169295595Y-96158095D01*
X168724166Y-96081904D02*
X168724166Y-96653333D01*
X168762261Y-96767619D01*
X168838452Y-96843809D01*
X168952738Y-96881904D01*
X169028928Y-96881904D01*
X167962261Y-96881904D02*
X168343214Y-96881904D01*
X168343214Y-96081904D01*
X167238452Y-96805714D02*
X167276547Y-96843809D01*
X167390833Y-96881904D01*
X167467023Y-96881904D01*
X167581309Y-96843809D01*
X167657500Y-96767619D01*
X167695595Y-96691428D01*
X167733690Y-96539047D01*
X167733690Y-96424761D01*
X167695595Y-96272380D01*
X167657500Y-96196190D01*
X167581309Y-96120000D01*
X167467023Y-96081904D01*
X167390833Y-96081904D01*
X167276547Y-96120000D01*
X167238452Y-96158095D01*
X166667023Y-96081904D02*
X166667023Y-96653333D01*
X166705119Y-96767619D01*
X166781309Y-96843809D01*
X166895595Y-96881904D01*
X166971785Y-96881904D01*
X165905119Y-96881904D02*
X166286071Y-96881904D01*
X166286071Y-96081904D01*
X165181309Y-96805714D02*
X165219404Y-96843809D01*
X165333690Y-96881904D01*
X165409880Y-96881904D01*
X165524166Y-96843809D01*
X165600357Y-96767619D01*
X165638452Y-96691428D01*
X165676547Y-96539047D01*
X165676547Y-96424761D01*
X165638452Y-96272380D01*
X165600357Y-96196190D01*
X165524166Y-96120000D01*
X165409880Y-96081904D01*
X165333690Y-96081904D01*
X165219404Y-96120000D01*
X165181309Y-96158095D01*
X154279523Y-110725000D02*
X154355714Y-110686904D01*
X154470000Y-110686904D01*
X154584285Y-110725000D01*
X154660476Y-110801190D01*
X154698571Y-110877380D01*
X154736666Y-111029761D01*
X154736666Y-111144047D01*
X154698571Y-111296428D01*
X154660476Y-111372619D01*
X154584285Y-111448809D01*
X154470000Y-111486904D01*
X154393809Y-111486904D01*
X154279523Y-111448809D01*
X154241428Y-111410714D01*
X154241428Y-111144047D01*
X154393809Y-111144047D01*
X153898571Y-111486904D02*
X153898571Y-110686904D01*
X153441428Y-111486904D01*
X153441428Y-110686904D01*
X153060476Y-111486904D02*
X153060476Y-110686904D01*
X152870000Y-110686904D01*
X152755714Y-110725000D01*
X152679523Y-110801190D01*
X152641428Y-110877380D01*
X152603333Y-111029761D01*
X152603333Y-111144047D01*
X152641428Y-111296428D01*
X152679523Y-111372619D01*
X152755714Y-111448809D01*
X152870000Y-111486904D01*
X153060476Y-111486904D01*
X156724285Y-111410714D02*
X156762380Y-111448809D01*
X156876666Y-111486904D01*
X156952857Y-111486904D01*
X157067142Y-111448809D01*
X157143333Y-111372619D01*
X157181428Y-111296428D01*
X157219523Y-111144047D01*
X157219523Y-111029761D01*
X157181428Y-110877380D01*
X157143333Y-110801190D01*
X157067142Y-110725000D01*
X156952857Y-110686904D01*
X156876666Y-110686904D01*
X156762380Y-110725000D01*
X156724285Y-110763095D01*
X155962380Y-111486904D02*
X156419523Y-111486904D01*
X156190952Y-111486904D02*
X156190952Y-110686904D01*
X156267142Y-110801190D01*
X156343333Y-110877380D01*
X156419523Y-110915476D01*
X155695714Y-110686904D02*
X155200476Y-110686904D01*
X155467142Y-110991666D01*
X155352857Y-110991666D01*
X155276666Y-111029761D01*
X155238571Y-111067857D01*
X155200476Y-111144047D01*
X155200476Y-111334523D01*
X155238571Y-111410714D01*
X155276666Y-111448809D01*
X155352857Y-111486904D01*
X155581428Y-111486904D01*
X155657619Y-111448809D01*
X155695714Y-111410714D01*
X159264285Y-111410714D02*
X159302380Y-111448809D01*
X159416666Y-111486904D01*
X159492857Y-111486904D01*
X159607142Y-111448809D01*
X159683333Y-111372619D01*
X159721428Y-111296428D01*
X159759523Y-111144047D01*
X159759523Y-111029761D01*
X159721428Y-110877380D01*
X159683333Y-110801190D01*
X159607142Y-110725000D01*
X159492857Y-110686904D01*
X159416666Y-110686904D01*
X159302380Y-110725000D01*
X159264285Y-110763095D01*
X158502380Y-111486904D02*
X158959523Y-111486904D01*
X158730952Y-111486904D02*
X158730952Y-110686904D01*
X158807142Y-110801190D01*
X158883333Y-110877380D01*
X158959523Y-110915476D01*
X157816666Y-110953571D02*
X157816666Y-111486904D01*
X158007142Y-110648809D02*
X158197619Y-111220238D01*
X157702380Y-111220238D01*
X161804285Y-111410714D02*
X161842380Y-111448809D01*
X161956666Y-111486904D01*
X162032857Y-111486904D01*
X162147142Y-111448809D01*
X162223333Y-111372619D01*
X162261428Y-111296428D01*
X162299523Y-111144047D01*
X162299523Y-111029761D01*
X162261428Y-110877380D01*
X162223333Y-110801190D01*
X162147142Y-110725000D01*
X162032857Y-110686904D01*
X161956666Y-110686904D01*
X161842380Y-110725000D01*
X161804285Y-110763095D01*
X161042380Y-111486904D02*
X161499523Y-111486904D01*
X161270952Y-111486904D02*
X161270952Y-110686904D01*
X161347142Y-110801190D01*
X161423333Y-110877380D01*
X161499523Y-110915476D01*
X160318571Y-110686904D02*
X160699523Y-110686904D01*
X160737619Y-111067857D01*
X160699523Y-111029761D01*
X160623333Y-110991666D01*
X160432857Y-110991666D01*
X160356666Y-111029761D01*
X160318571Y-111067857D01*
X160280476Y-111144047D01*
X160280476Y-111334523D01*
X160318571Y-111410714D01*
X160356666Y-111448809D01*
X160432857Y-111486904D01*
X160623333Y-111486904D01*
X160699523Y-111448809D01*
X160737619Y-111410714D01*
X164401428Y-111258333D02*
X164020476Y-111258333D01*
X164477619Y-111486904D02*
X164210952Y-110686904D01*
X163944285Y-111486904D01*
X163525238Y-110686904D02*
X163449047Y-110686904D01*
X163372857Y-110725000D01*
X163334761Y-110763095D01*
X163296666Y-110839285D01*
X163258571Y-110991666D01*
X163258571Y-111182142D01*
X163296666Y-111334523D01*
X163334761Y-111410714D01*
X163372857Y-111448809D01*
X163449047Y-111486904D01*
X163525238Y-111486904D01*
X163601428Y-111448809D01*
X163639523Y-111410714D01*
X163677619Y-111334523D01*
X163715714Y-111182142D01*
X163715714Y-110991666D01*
X163677619Y-110839285D01*
X163639523Y-110763095D01*
X163601428Y-110725000D01*
X163525238Y-110686904D01*
X166941428Y-111258333D02*
X166560476Y-111258333D01*
X167017619Y-111486904D02*
X166750952Y-110686904D01*
X166484285Y-111486904D01*
X165798571Y-111486904D02*
X166255714Y-111486904D01*
X166027142Y-111486904D02*
X166027142Y-110686904D01*
X166103333Y-110801190D01*
X166179523Y-110877380D01*
X166255714Y-110915476D01*
X169481428Y-111258333D02*
X169100476Y-111258333D01*
X169557619Y-111486904D02*
X169290952Y-110686904D01*
X169024285Y-111486904D01*
X168795714Y-110763095D02*
X168757619Y-110725000D01*
X168681428Y-110686904D01*
X168490952Y-110686904D01*
X168414761Y-110725000D01*
X168376666Y-110763095D01*
X168338571Y-110839285D01*
X168338571Y-110915476D01*
X168376666Y-111029761D01*
X168833809Y-111486904D01*
X168338571Y-111486904D01*
X172021428Y-111258333D02*
X171640476Y-111258333D01*
X172097619Y-111486904D02*
X171830952Y-110686904D01*
X171564285Y-111486904D01*
X171373809Y-110686904D02*
X170878571Y-110686904D01*
X171145238Y-110991666D01*
X171030952Y-110991666D01*
X170954761Y-111029761D01*
X170916666Y-111067857D01*
X170878571Y-111144047D01*
X170878571Y-111334523D01*
X170916666Y-111410714D01*
X170954761Y-111448809D01*
X171030952Y-111486904D01*
X171259523Y-111486904D01*
X171335714Y-111448809D01*
X171373809Y-111410714D01*
X174561428Y-111258333D02*
X174180476Y-111258333D01*
X174637619Y-111486904D02*
X174370952Y-110686904D01*
X174104285Y-111486904D01*
X173494761Y-110953571D02*
X173494761Y-111486904D01*
X173685238Y-110648809D02*
X173875714Y-111220238D01*
X173380476Y-111220238D01*
X177101428Y-111258333D02*
X176720476Y-111258333D01*
X177177619Y-111486904D02*
X176910952Y-110686904D01*
X176644285Y-111486904D01*
X175996666Y-110686904D02*
X176377619Y-110686904D01*
X176415714Y-111067857D01*
X176377619Y-111029761D01*
X176301428Y-110991666D01*
X176110952Y-110991666D01*
X176034761Y-111029761D01*
X175996666Y-111067857D01*
X175958571Y-111144047D01*
X175958571Y-111334523D01*
X175996666Y-111410714D01*
X176034761Y-111448809D01*
X176110952Y-111486904D01*
X176301428Y-111486904D01*
X176377619Y-111448809D01*
X176415714Y-111410714D01*
X179641428Y-111258333D02*
X179260476Y-111258333D01*
X179717619Y-111486904D02*
X179450952Y-110686904D01*
X179184285Y-111486904D01*
X178574761Y-110686904D02*
X178727142Y-110686904D01*
X178803333Y-110725000D01*
X178841428Y-110763095D01*
X178917619Y-110877380D01*
X178955714Y-111029761D01*
X178955714Y-111334523D01*
X178917619Y-111410714D01*
X178879523Y-111448809D01*
X178803333Y-111486904D01*
X178650952Y-111486904D01*
X178574761Y-111448809D01*
X178536666Y-111410714D01*
X178498571Y-111334523D01*
X178498571Y-111144047D01*
X178536666Y-111067857D01*
X178574761Y-111029761D01*
X178650952Y-110991666D01*
X178803333Y-110991666D01*
X178879523Y-111029761D01*
X178917619Y-111067857D01*
X178955714Y-111144047D01*
X182181428Y-111258333D02*
X181800476Y-111258333D01*
X182257619Y-111486904D02*
X181990952Y-110686904D01*
X181724285Y-111486904D01*
X181533809Y-110686904D02*
X181000476Y-110686904D01*
X181343333Y-111486904D01*
X184473809Y-111067857D02*
X184359523Y-111105952D01*
X184321428Y-111144047D01*
X184283333Y-111220238D01*
X184283333Y-111334523D01*
X184321428Y-111410714D01*
X184359523Y-111448809D01*
X184435714Y-111486904D01*
X184740476Y-111486904D01*
X184740476Y-110686904D01*
X184473809Y-110686904D01*
X184397619Y-110725000D01*
X184359523Y-110763095D01*
X184321428Y-110839285D01*
X184321428Y-110915476D01*
X184359523Y-110991666D01*
X184397619Y-111029761D01*
X184473809Y-111067857D01*
X184740476Y-111067857D01*
X183788095Y-110686904D02*
X183711904Y-110686904D01*
X183635714Y-110725000D01*
X183597619Y-110763095D01*
X183559523Y-110839285D01*
X183521428Y-110991666D01*
X183521428Y-111182142D01*
X183559523Y-111334523D01*
X183597619Y-111410714D01*
X183635714Y-111448809D01*
X183711904Y-111486904D01*
X183788095Y-111486904D01*
X183864285Y-111448809D01*
X183902380Y-111410714D01*
X183940476Y-111334523D01*
X183978571Y-111182142D01*
X183978571Y-110991666D01*
X183940476Y-110839285D01*
X183902380Y-110763095D01*
X183864285Y-110725000D01*
X183788095Y-110686904D01*
X187013809Y-111067857D02*
X186899523Y-111105952D01*
X186861428Y-111144047D01*
X186823333Y-111220238D01*
X186823333Y-111334523D01*
X186861428Y-111410714D01*
X186899523Y-111448809D01*
X186975714Y-111486904D01*
X187280476Y-111486904D01*
X187280476Y-110686904D01*
X187013809Y-110686904D01*
X186937619Y-110725000D01*
X186899523Y-110763095D01*
X186861428Y-110839285D01*
X186861428Y-110915476D01*
X186899523Y-110991666D01*
X186937619Y-111029761D01*
X187013809Y-111067857D01*
X187280476Y-111067857D01*
X186061428Y-111486904D02*
X186518571Y-111486904D01*
X186290000Y-111486904D02*
X186290000Y-110686904D01*
X186366190Y-110801190D01*
X186442380Y-110877380D01*
X186518571Y-110915476D01*
X189553809Y-111067857D02*
X189439523Y-111105952D01*
X189401428Y-111144047D01*
X189363333Y-111220238D01*
X189363333Y-111334523D01*
X189401428Y-111410714D01*
X189439523Y-111448809D01*
X189515714Y-111486904D01*
X189820476Y-111486904D01*
X189820476Y-110686904D01*
X189553809Y-110686904D01*
X189477619Y-110725000D01*
X189439523Y-110763095D01*
X189401428Y-110839285D01*
X189401428Y-110915476D01*
X189439523Y-110991666D01*
X189477619Y-111029761D01*
X189553809Y-111067857D01*
X189820476Y-111067857D01*
X189058571Y-110763095D02*
X189020476Y-110725000D01*
X188944285Y-110686904D01*
X188753809Y-110686904D01*
X188677619Y-110725000D01*
X188639523Y-110763095D01*
X188601428Y-110839285D01*
X188601428Y-110915476D01*
X188639523Y-111029761D01*
X189096666Y-111486904D01*
X188601428Y-111486904D01*
X192474761Y-111067857D02*
X192360476Y-111105952D01*
X192322380Y-111144047D01*
X192284285Y-111220238D01*
X192284285Y-111334523D01*
X192322380Y-111410714D01*
X192360476Y-111448809D01*
X192436666Y-111486904D01*
X192741428Y-111486904D01*
X192741428Y-110686904D01*
X192474761Y-110686904D01*
X192398571Y-110725000D01*
X192360476Y-110763095D01*
X192322380Y-110839285D01*
X192322380Y-110915476D01*
X192360476Y-110991666D01*
X192398571Y-111029761D01*
X192474761Y-111067857D01*
X192741428Y-111067857D01*
X191522380Y-111486904D02*
X191979523Y-111486904D01*
X191750952Y-111486904D02*
X191750952Y-110686904D01*
X191827142Y-110801190D01*
X191903333Y-110877380D01*
X191979523Y-110915476D01*
X191027142Y-110686904D02*
X190950952Y-110686904D01*
X190874761Y-110725000D01*
X190836666Y-110763095D01*
X190798571Y-110839285D01*
X190760476Y-110991666D01*
X190760476Y-111182142D01*
X190798571Y-111334523D01*
X190836666Y-111410714D01*
X190874761Y-111448809D01*
X190950952Y-111486904D01*
X191027142Y-111486904D01*
X191103333Y-111448809D01*
X191141428Y-111410714D01*
X191179523Y-111334523D01*
X191217619Y-111182142D01*
X191217619Y-110991666D01*
X191179523Y-110839285D01*
X191141428Y-110763095D01*
X191103333Y-110725000D01*
X191027142Y-110686904D01*
X195014761Y-111067857D02*
X194900476Y-111105952D01*
X194862380Y-111144047D01*
X194824285Y-111220238D01*
X194824285Y-111334523D01*
X194862380Y-111410714D01*
X194900476Y-111448809D01*
X194976666Y-111486904D01*
X195281428Y-111486904D01*
X195281428Y-110686904D01*
X195014761Y-110686904D01*
X194938571Y-110725000D01*
X194900476Y-110763095D01*
X194862380Y-110839285D01*
X194862380Y-110915476D01*
X194900476Y-110991666D01*
X194938571Y-111029761D01*
X195014761Y-111067857D01*
X195281428Y-111067857D01*
X194062380Y-111486904D02*
X194519523Y-111486904D01*
X194290952Y-111486904D02*
X194290952Y-110686904D01*
X194367142Y-110801190D01*
X194443333Y-110877380D01*
X194519523Y-110915476D01*
X193300476Y-111486904D02*
X193757619Y-111486904D01*
X193529047Y-111486904D02*
X193529047Y-110686904D01*
X193605238Y-110801190D01*
X193681428Y-110877380D01*
X193757619Y-110915476D01*
X197840476Y-110686904D02*
X197345238Y-110686904D01*
X197611904Y-110991666D01*
X197497619Y-110991666D01*
X197421428Y-111029761D01*
X197383333Y-111067857D01*
X197345238Y-111144047D01*
X197345238Y-111334523D01*
X197383333Y-111410714D01*
X197421428Y-111448809D01*
X197497619Y-111486904D01*
X197726190Y-111486904D01*
X197802380Y-111448809D01*
X197840476Y-111410714D01*
X197116666Y-110686904D02*
X196850000Y-111486904D01*
X196583333Y-110686904D01*
X196392857Y-110686904D02*
X195897619Y-110686904D01*
X196164285Y-110991666D01*
X196050000Y-110991666D01*
X195973809Y-111029761D01*
X195935714Y-111067857D01*
X195897619Y-111144047D01*
X195897619Y-111334523D01*
X195935714Y-111410714D01*
X195973809Y-111448809D01*
X196050000Y-111486904D01*
X196278571Y-111486904D01*
X196354761Y-111448809D01*
X196392857Y-111410714D01*
X199542380Y-110686904D02*
X199923333Y-110686904D01*
X199961428Y-111067857D01*
X199923333Y-111029761D01*
X199847142Y-110991666D01*
X199656666Y-110991666D01*
X199580476Y-111029761D01*
X199542380Y-111067857D01*
X199504285Y-111144047D01*
X199504285Y-111334523D01*
X199542380Y-111410714D01*
X199580476Y-111448809D01*
X199656666Y-111486904D01*
X199847142Y-111486904D01*
X199923333Y-111448809D01*
X199961428Y-111410714D01*
X199275714Y-110686904D02*
X199009047Y-111486904D01*
X198742380Y-110686904D01*
X202539523Y-110725000D02*
X202615714Y-110686904D01*
X202730000Y-110686904D01*
X202844285Y-110725000D01*
X202920476Y-110801190D01*
X202958571Y-110877380D01*
X202996666Y-111029761D01*
X202996666Y-111144047D01*
X202958571Y-111296428D01*
X202920476Y-111372619D01*
X202844285Y-111448809D01*
X202730000Y-111486904D01*
X202653809Y-111486904D01*
X202539523Y-111448809D01*
X202501428Y-111410714D01*
X202501428Y-111144047D01*
X202653809Y-111144047D01*
X202158571Y-111486904D02*
X202158571Y-110686904D01*
X201701428Y-111486904D01*
X201701428Y-110686904D01*
X201320476Y-111486904D02*
X201320476Y-110686904D01*
X201130000Y-110686904D01*
X201015714Y-110725000D01*
X200939523Y-110801190D01*
X200901428Y-110877380D01*
X200863333Y-111029761D01*
X200863333Y-111144047D01*
X200901428Y-111296428D01*
X200939523Y-111372619D01*
X201015714Y-111448809D01*
X201130000Y-111486904D01*
X201320476Y-111486904D01*
X154279523Y-91675000D02*
X154355714Y-91636904D01*
X154470000Y-91636904D01*
X154584285Y-91675000D01*
X154660476Y-91751190D01*
X154698571Y-91827380D01*
X154736666Y-91979761D01*
X154736666Y-92094047D01*
X154698571Y-92246428D01*
X154660476Y-92322619D01*
X154584285Y-92398809D01*
X154470000Y-92436904D01*
X154393809Y-92436904D01*
X154279523Y-92398809D01*
X154241428Y-92360714D01*
X154241428Y-92094047D01*
X154393809Y-92094047D01*
X153898571Y-92436904D02*
X153898571Y-91636904D01*
X153441428Y-92436904D01*
X153441428Y-91636904D01*
X153060476Y-92436904D02*
X153060476Y-91636904D01*
X152870000Y-91636904D01*
X152755714Y-91675000D01*
X152679523Y-91751190D01*
X152641428Y-91827380D01*
X152603333Y-91979761D01*
X152603333Y-92094047D01*
X152641428Y-92246428D01*
X152679523Y-92322619D01*
X152755714Y-92398809D01*
X152870000Y-92436904D01*
X153060476Y-92436904D01*
X156648095Y-92436904D02*
X156914761Y-92055952D01*
X157105238Y-92436904D02*
X157105238Y-91636904D01*
X156800476Y-91636904D01*
X156724285Y-91675000D01*
X156686190Y-91713095D01*
X156648095Y-91789285D01*
X156648095Y-91903571D01*
X156686190Y-91979761D01*
X156724285Y-92017857D01*
X156800476Y-92055952D01*
X157105238Y-92055952D01*
X156343333Y-92398809D02*
X156229047Y-92436904D01*
X156038571Y-92436904D01*
X155962380Y-92398809D01*
X155924285Y-92360714D01*
X155886190Y-92284523D01*
X155886190Y-92208333D01*
X155924285Y-92132142D01*
X155962380Y-92094047D01*
X156038571Y-92055952D01*
X156190952Y-92017857D01*
X156267142Y-91979761D01*
X156305238Y-91941666D01*
X156343333Y-91865476D01*
X156343333Y-91789285D01*
X156305238Y-91713095D01*
X156267142Y-91675000D01*
X156190952Y-91636904D01*
X156000476Y-91636904D01*
X155886190Y-91675000D01*
X155657619Y-91636904D02*
X155200476Y-91636904D01*
X155429047Y-92436904D02*
X155429047Y-91636904D01*
X159492857Y-92017857D02*
X159378571Y-92055952D01*
X159340476Y-92094047D01*
X159302380Y-92170238D01*
X159302380Y-92284523D01*
X159340476Y-92360714D01*
X159378571Y-92398809D01*
X159454761Y-92436904D01*
X159759523Y-92436904D01*
X159759523Y-91636904D01*
X159492857Y-91636904D01*
X159416666Y-91675000D01*
X159378571Y-91713095D01*
X159340476Y-91789285D01*
X159340476Y-91865476D01*
X159378571Y-91941666D01*
X159416666Y-91979761D01*
X159492857Y-92017857D01*
X159759523Y-92017857D01*
X158807142Y-91636904D02*
X158654761Y-91636904D01*
X158578571Y-91675000D01*
X158502380Y-91751190D01*
X158464285Y-91903571D01*
X158464285Y-92170238D01*
X158502380Y-92322619D01*
X158578571Y-92398809D01*
X158654761Y-92436904D01*
X158807142Y-92436904D01*
X158883333Y-92398809D01*
X158959523Y-92322619D01*
X158997619Y-92170238D01*
X158997619Y-91903571D01*
X158959523Y-91751190D01*
X158883333Y-91675000D01*
X158807142Y-91636904D01*
X157969047Y-91636904D02*
X157892857Y-91636904D01*
X157816666Y-91675000D01*
X157778571Y-91713095D01*
X157740476Y-91789285D01*
X157702380Y-91941666D01*
X157702380Y-92132142D01*
X157740476Y-92284523D01*
X157778571Y-92360714D01*
X157816666Y-92398809D01*
X157892857Y-92436904D01*
X157969047Y-92436904D01*
X158045238Y-92398809D01*
X158083333Y-92360714D01*
X158121428Y-92284523D01*
X158159523Y-92132142D01*
X158159523Y-91941666D01*
X158121428Y-91789285D01*
X158083333Y-91713095D01*
X158045238Y-91675000D01*
X157969047Y-91636904D01*
X161613809Y-92017857D02*
X161499523Y-92055952D01*
X161461428Y-92094047D01*
X161423333Y-92170238D01*
X161423333Y-92284523D01*
X161461428Y-92360714D01*
X161499523Y-92398809D01*
X161575714Y-92436904D01*
X161880476Y-92436904D01*
X161880476Y-91636904D01*
X161613809Y-91636904D01*
X161537619Y-91675000D01*
X161499523Y-91713095D01*
X161461428Y-91789285D01*
X161461428Y-91865476D01*
X161499523Y-91941666D01*
X161537619Y-91979761D01*
X161613809Y-92017857D01*
X161880476Y-92017857D01*
X161042380Y-92436904D02*
X160890000Y-92436904D01*
X160813809Y-92398809D01*
X160775714Y-92360714D01*
X160699523Y-92246428D01*
X160661428Y-92094047D01*
X160661428Y-91789285D01*
X160699523Y-91713095D01*
X160737619Y-91675000D01*
X160813809Y-91636904D01*
X160966190Y-91636904D01*
X161042380Y-91675000D01*
X161080476Y-91713095D01*
X161118571Y-91789285D01*
X161118571Y-91979761D01*
X161080476Y-92055952D01*
X161042380Y-92094047D01*
X160966190Y-92132142D01*
X160813809Y-92132142D01*
X160737619Y-92094047D01*
X160699523Y-92055952D01*
X160661428Y-91979761D01*
X164153809Y-92017857D02*
X164039523Y-92055952D01*
X164001428Y-92094047D01*
X163963333Y-92170238D01*
X163963333Y-92284523D01*
X164001428Y-92360714D01*
X164039523Y-92398809D01*
X164115714Y-92436904D01*
X164420476Y-92436904D01*
X164420476Y-91636904D01*
X164153809Y-91636904D01*
X164077619Y-91675000D01*
X164039523Y-91713095D01*
X164001428Y-91789285D01*
X164001428Y-91865476D01*
X164039523Y-91941666D01*
X164077619Y-91979761D01*
X164153809Y-92017857D01*
X164420476Y-92017857D01*
X163506190Y-91979761D02*
X163582380Y-91941666D01*
X163620476Y-91903571D01*
X163658571Y-91827380D01*
X163658571Y-91789285D01*
X163620476Y-91713095D01*
X163582380Y-91675000D01*
X163506190Y-91636904D01*
X163353809Y-91636904D01*
X163277619Y-91675000D01*
X163239523Y-91713095D01*
X163201428Y-91789285D01*
X163201428Y-91827380D01*
X163239523Y-91903571D01*
X163277619Y-91941666D01*
X163353809Y-91979761D01*
X163506190Y-91979761D01*
X163582380Y-92017857D01*
X163620476Y-92055952D01*
X163658571Y-92132142D01*
X163658571Y-92284523D01*
X163620476Y-92360714D01*
X163582380Y-92398809D01*
X163506190Y-92436904D01*
X163353809Y-92436904D01*
X163277619Y-92398809D01*
X163239523Y-92360714D01*
X163201428Y-92284523D01*
X163201428Y-92132142D01*
X163239523Y-92055952D01*
X163277619Y-92017857D01*
X163353809Y-91979761D01*
X166693809Y-92017857D02*
X166579523Y-92055952D01*
X166541428Y-92094047D01*
X166503333Y-92170238D01*
X166503333Y-92284523D01*
X166541428Y-92360714D01*
X166579523Y-92398809D01*
X166655714Y-92436904D01*
X166960476Y-92436904D01*
X166960476Y-91636904D01*
X166693809Y-91636904D01*
X166617619Y-91675000D01*
X166579523Y-91713095D01*
X166541428Y-91789285D01*
X166541428Y-91865476D01*
X166579523Y-91941666D01*
X166617619Y-91979761D01*
X166693809Y-92017857D01*
X166960476Y-92017857D01*
X166236666Y-91636904D02*
X165703333Y-91636904D01*
X166046190Y-92436904D01*
X169233809Y-92017857D02*
X169119523Y-92055952D01*
X169081428Y-92094047D01*
X169043333Y-92170238D01*
X169043333Y-92284523D01*
X169081428Y-92360714D01*
X169119523Y-92398809D01*
X169195714Y-92436904D01*
X169500476Y-92436904D01*
X169500476Y-91636904D01*
X169233809Y-91636904D01*
X169157619Y-91675000D01*
X169119523Y-91713095D01*
X169081428Y-91789285D01*
X169081428Y-91865476D01*
X169119523Y-91941666D01*
X169157619Y-91979761D01*
X169233809Y-92017857D01*
X169500476Y-92017857D01*
X168357619Y-91636904D02*
X168510000Y-91636904D01*
X168586190Y-91675000D01*
X168624285Y-91713095D01*
X168700476Y-91827380D01*
X168738571Y-91979761D01*
X168738571Y-92284523D01*
X168700476Y-92360714D01*
X168662380Y-92398809D01*
X168586190Y-92436904D01*
X168433809Y-92436904D01*
X168357619Y-92398809D01*
X168319523Y-92360714D01*
X168281428Y-92284523D01*
X168281428Y-92094047D01*
X168319523Y-92017857D01*
X168357619Y-91979761D01*
X168433809Y-91941666D01*
X168586190Y-91941666D01*
X168662380Y-91979761D01*
X168700476Y-92017857D01*
X168738571Y-92094047D01*
X171773809Y-92017857D02*
X171659523Y-92055952D01*
X171621428Y-92094047D01*
X171583333Y-92170238D01*
X171583333Y-92284523D01*
X171621428Y-92360714D01*
X171659523Y-92398809D01*
X171735714Y-92436904D01*
X172040476Y-92436904D01*
X172040476Y-91636904D01*
X171773809Y-91636904D01*
X171697619Y-91675000D01*
X171659523Y-91713095D01*
X171621428Y-91789285D01*
X171621428Y-91865476D01*
X171659523Y-91941666D01*
X171697619Y-91979761D01*
X171773809Y-92017857D01*
X172040476Y-92017857D01*
X170859523Y-91636904D02*
X171240476Y-91636904D01*
X171278571Y-92017857D01*
X171240476Y-91979761D01*
X171164285Y-91941666D01*
X170973809Y-91941666D01*
X170897619Y-91979761D01*
X170859523Y-92017857D01*
X170821428Y-92094047D01*
X170821428Y-92284523D01*
X170859523Y-92360714D01*
X170897619Y-92398809D01*
X170973809Y-92436904D01*
X171164285Y-92436904D01*
X171240476Y-92398809D01*
X171278571Y-92360714D01*
X174313809Y-92017857D02*
X174199523Y-92055952D01*
X174161428Y-92094047D01*
X174123333Y-92170238D01*
X174123333Y-92284523D01*
X174161428Y-92360714D01*
X174199523Y-92398809D01*
X174275714Y-92436904D01*
X174580476Y-92436904D01*
X174580476Y-91636904D01*
X174313809Y-91636904D01*
X174237619Y-91675000D01*
X174199523Y-91713095D01*
X174161428Y-91789285D01*
X174161428Y-91865476D01*
X174199523Y-91941666D01*
X174237619Y-91979761D01*
X174313809Y-92017857D01*
X174580476Y-92017857D01*
X173437619Y-91903571D02*
X173437619Y-92436904D01*
X173628095Y-91598809D02*
X173818571Y-92170238D01*
X173323333Y-92170238D01*
X176853809Y-92017857D02*
X176739523Y-92055952D01*
X176701428Y-92094047D01*
X176663333Y-92170238D01*
X176663333Y-92284523D01*
X176701428Y-92360714D01*
X176739523Y-92398809D01*
X176815714Y-92436904D01*
X177120476Y-92436904D01*
X177120476Y-91636904D01*
X176853809Y-91636904D01*
X176777619Y-91675000D01*
X176739523Y-91713095D01*
X176701428Y-91789285D01*
X176701428Y-91865476D01*
X176739523Y-91941666D01*
X176777619Y-91979761D01*
X176853809Y-92017857D01*
X177120476Y-92017857D01*
X176396666Y-91636904D02*
X175901428Y-91636904D01*
X176168095Y-91941666D01*
X176053809Y-91941666D01*
X175977619Y-91979761D01*
X175939523Y-92017857D01*
X175901428Y-92094047D01*
X175901428Y-92284523D01*
X175939523Y-92360714D01*
X175977619Y-92398809D01*
X176053809Y-92436904D01*
X176282380Y-92436904D01*
X176358571Y-92398809D01*
X176396666Y-92360714D01*
X180022380Y-92208333D02*
X179641428Y-92208333D01*
X180098571Y-92436904D02*
X179831904Y-91636904D01*
X179565238Y-92436904D01*
X178879523Y-92436904D02*
X179336666Y-92436904D01*
X179108095Y-92436904D02*
X179108095Y-91636904D01*
X179184285Y-91751190D01*
X179260476Y-91827380D01*
X179336666Y-91865476D01*
X178155714Y-91636904D02*
X178536666Y-91636904D01*
X178574761Y-92017857D01*
X178536666Y-91979761D01*
X178460476Y-91941666D01*
X178270000Y-91941666D01*
X178193809Y-91979761D01*
X178155714Y-92017857D01*
X178117619Y-92094047D01*
X178117619Y-92284523D01*
X178155714Y-92360714D01*
X178193809Y-92398809D01*
X178270000Y-92436904D01*
X178460476Y-92436904D01*
X178536666Y-92398809D01*
X178574761Y-92360714D01*
X182562380Y-92208333D02*
X182181428Y-92208333D01*
X182638571Y-92436904D02*
X182371904Y-91636904D01*
X182105238Y-92436904D01*
X181419523Y-92436904D02*
X181876666Y-92436904D01*
X181648095Y-92436904D02*
X181648095Y-91636904D01*
X181724285Y-91751190D01*
X181800476Y-91827380D01*
X181876666Y-91865476D01*
X181114761Y-91713095D02*
X181076666Y-91675000D01*
X181000476Y-91636904D01*
X180810000Y-91636904D01*
X180733809Y-91675000D01*
X180695714Y-91713095D01*
X180657619Y-91789285D01*
X180657619Y-91865476D01*
X180695714Y-91979761D01*
X181152857Y-92436904D01*
X180657619Y-92436904D01*
X185102380Y-92208333D02*
X184721428Y-92208333D01*
X185178571Y-92436904D02*
X184911904Y-91636904D01*
X184645238Y-92436904D01*
X183959523Y-92436904D02*
X184416666Y-92436904D01*
X184188095Y-92436904D02*
X184188095Y-91636904D01*
X184264285Y-91751190D01*
X184340476Y-91827380D01*
X184416666Y-91865476D01*
X183197619Y-92436904D02*
X183654761Y-92436904D01*
X183426190Y-92436904D02*
X183426190Y-91636904D01*
X183502380Y-91751190D01*
X183578571Y-91827380D01*
X183654761Y-91865476D01*
X187642380Y-92208333D02*
X187261428Y-92208333D01*
X187718571Y-92436904D02*
X187451904Y-91636904D01*
X187185238Y-92436904D01*
X186499523Y-92436904D02*
X186956666Y-92436904D01*
X186728095Y-92436904D02*
X186728095Y-91636904D01*
X186804285Y-91751190D01*
X186880476Y-91827380D01*
X186956666Y-91865476D01*
X186004285Y-91636904D02*
X185928095Y-91636904D01*
X185851904Y-91675000D01*
X185813809Y-91713095D01*
X185775714Y-91789285D01*
X185737619Y-91941666D01*
X185737619Y-92132142D01*
X185775714Y-92284523D01*
X185813809Y-92360714D01*
X185851904Y-92398809D01*
X185928095Y-92436904D01*
X186004285Y-92436904D01*
X186080476Y-92398809D01*
X186118571Y-92360714D01*
X186156666Y-92284523D01*
X186194761Y-92132142D01*
X186194761Y-91941666D01*
X186156666Y-91789285D01*
X186118571Y-91713095D01*
X186080476Y-91675000D01*
X186004285Y-91636904D01*
X189801428Y-92208333D02*
X189420476Y-92208333D01*
X189877619Y-92436904D02*
X189610952Y-91636904D01*
X189344285Y-92436904D01*
X189039523Y-92436904D02*
X188887142Y-92436904D01*
X188810952Y-92398809D01*
X188772857Y-92360714D01*
X188696666Y-92246428D01*
X188658571Y-92094047D01*
X188658571Y-91789285D01*
X188696666Y-91713095D01*
X188734761Y-91675000D01*
X188810952Y-91636904D01*
X188963333Y-91636904D01*
X189039523Y-91675000D01*
X189077619Y-91713095D01*
X189115714Y-91789285D01*
X189115714Y-91979761D01*
X189077619Y-92055952D01*
X189039523Y-92094047D01*
X188963333Y-92132142D01*
X188810952Y-92132142D01*
X188734761Y-92094047D01*
X188696666Y-92055952D01*
X188658571Y-91979761D01*
X192341428Y-92208333D02*
X191960476Y-92208333D01*
X192417619Y-92436904D02*
X192150952Y-91636904D01*
X191884285Y-92436904D01*
X191503333Y-91979761D02*
X191579523Y-91941666D01*
X191617619Y-91903571D01*
X191655714Y-91827380D01*
X191655714Y-91789285D01*
X191617619Y-91713095D01*
X191579523Y-91675000D01*
X191503333Y-91636904D01*
X191350952Y-91636904D01*
X191274761Y-91675000D01*
X191236666Y-91713095D01*
X191198571Y-91789285D01*
X191198571Y-91827380D01*
X191236666Y-91903571D01*
X191274761Y-91941666D01*
X191350952Y-91979761D01*
X191503333Y-91979761D01*
X191579523Y-92017857D01*
X191617619Y-92055952D01*
X191655714Y-92132142D01*
X191655714Y-92284523D01*
X191617619Y-92360714D01*
X191579523Y-92398809D01*
X191503333Y-92436904D01*
X191350952Y-92436904D01*
X191274761Y-92398809D01*
X191236666Y-92360714D01*
X191198571Y-92284523D01*
X191198571Y-92132142D01*
X191236666Y-92055952D01*
X191274761Y-92017857D01*
X191350952Y-91979761D01*
X195014761Y-92017857D02*
X194900476Y-92055952D01*
X194862380Y-92094047D01*
X194824285Y-92170238D01*
X194824285Y-92284523D01*
X194862380Y-92360714D01*
X194900476Y-92398809D01*
X194976666Y-92436904D01*
X195281428Y-92436904D01*
X195281428Y-91636904D01*
X195014761Y-91636904D01*
X194938571Y-91675000D01*
X194900476Y-91713095D01*
X194862380Y-91789285D01*
X194862380Y-91865476D01*
X194900476Y-91941666D01*
X194938571Y-91979761D01*
X195014761Y-92017857D01*
X195281428Y-92017857D01*
X194062380Y-92436904D02*
X194519523Y-92436904D01*
X194290952Y-92436904D02*
X194290952Y-91636904D01*
X194367142Y-91751190D01*
X194443333Y-91827380D01*
X194519523Y-91865476D01*
X193338571Y-91636904D02*
X193719523Y-91636904D01*
X193757619Y-92017857D01*
X193719523Y-91979761D01*
X193643333Y-91941666D01*
X193452857Y-91941666D01*
X193376666Y-91979761D01*
X193338571Y-92017857D01*
X193300476Y-92094047D01*
X193300476Y-92284523D01*
X193338571Y-92360714D01*
X193376666Y-92398809D01*
X193452857Y-92436904D01*
X193643333Y-92436904D01*
X193719523Y-92398809D01*
X193757619Y-92360714D01*
X197554761Y-92017857D02*
X197440476Y-92055952D01*
X197402380Y-92094047D01*
X197364285Y-92170238D01*
X197364285Y-92284523D01*
X197402380Y-92360714D01*
X197440476Y-92398809D01*
X197516666Y-92436904D01*
X197821428Y-92436904D01*
X197821428Y-91636904D01*
X197554761Y-91636904D01*
X197478571Y-91675000D01*
X197440476Y-91713095D01*
X197402380Y-91789285D01*
X197402380Y-91865476D01*
X197440476Y-91941666D01*
X197478571Y-91979761D01*
X197554761Y-92017857D01*
X197821428Y-92017857D01*
X196602380Y-92436904D02*
X197059523Y-92436904D01*
X196830952Y-92436904D02*
X196830952Y-91636904D01*
X196907142Y-91751190D01*
X196983333Y-91827380D01*
X197059523Y-91865476D01*
X195916666Y-91903571D02*
X195916666Y-92436904D01*
X196107142Y-91598809D02*
X196297619Y-92170238D01*
X195802380Y-92170238D01*
X200094761Y-92017857D02*
X199980476Y-92055952D01*
X199942380Y-92094047D01*
X199904285Y-92170238D01*
X199904285Y-92284523D01*
X199942380Y-92360714D01*
X199980476Y-92398809D01*
X200056666Y-92436904D01*
X200361428Y-92436904D01*
X200361428Y-91636904D01*
X200094761Y-91636904D01*
X200018571Y-91675000D01*
X199980476Y-91713095D01*
X199942380Y-91789285D01*
X199942380Y-91865476D01*
X199980476Y-91941666D01*
X200018571Y-91979761D01*
X200094761Y-92017857D01*
X200361428Y-92017857D01*
X199142380Y-92436904D02*
X199599523Y-92436904D01*
X199370952Y-92436904D02*
X199370952Y-91636904D01*
X199447142Y-91751190D01*
X199523333Y-91827380D01*
X199599523Y-91865476D01*
X198875714Y-91636904D02*
X198380476Y-91636904D01*
X198647142Y-91941666D01*
X198532857Y-91941666D01*
X198456666Y-91979761D01*
X198418571Y-92017857D01*
X198380476Y-92094047D01*
X198380476Y-92284523D01*
X198418571Y-92360714D01*
X198456666Y-92398809D01*
X198532857Y-92436904D01*
X198761428Y-92436904D01*
X198837619Y-92398809D01*
X198875714Y-92360714D01*
X202634761Y-92017857D02*
X202520476Y-92055952D01*
X202482380Y-92094047D01*
X202444285Y-92170238D01*
X202444285Y-92284523D01*
X202482380Y-92360714D01*
X202520476Y-92398809D01*
X202596666Y-92436904D01*
X202901428Y-92436904D01*
X202901428Y-91636904D01*
X202634761Y-91636904D01*
X202558571Y-91675000D01*
X202520476Y-91713095D01*
X202482380Y-91789285D01*
X202482380Y-91865476D01*
X202520476Y-91941666D01*
X202558571Y-91979761D01*
X202634761Y-92017857D01*
X202901428Y-92017857D01*
X201682380Y-92436904D02*
X202139523Y-92436904D01*
X201910952Y-92436904D02*
X201910952Y-91636904D01*
X201987142Y-91751190D01*
X202063333Y-91827380D01*
X202139523Y-91865476D01*
X201377619Y-91713095D02*
X201339523Y-91675000D01*
X201263333Y-91636904D01*
X201072857Y-91636904D01*
X200996666Y-91675000D01*
X200958571Y-91713095D01*
X200920476Y-91789285D01*
X200920476Y-91865476D01*
X200958571Y-91979761D01*
X201415714Y-92436904D01*
X200920476Y-92436904D01*
X194872976Y-96040000D02*
X194949166Y-96001904D01*
X195063452Y-96001904D01*
X195177738Y-96040000D01*
X195253928Y-96116190D01*
X195292023Y-96192380D01*
X195330119Y-96344761D01*
X195330119Y-96459047D01*
X195292023Y-96611428D01*
X195253928Y-96687619D01*
X195177738Y-96763809D01*
X195063452Y-96801904D01*
X194987261Y-96801904D01*
X194872976Y-96763809D01*
X194834880Y-96725714D01*
X194834880Y-96459047D01*
X194987261Y-96459047D01*
X194492023Y-96801904D02*
X194492023Y-96268571D01*
X194492023Y-96420952D02*
X194453928Y-96344761D01*
X194415833Y-96306666D01*
X194339642Y-96268571D01*
X194263452Y-96268571D01*
X193692023Y-96763809D02*
X193768214Y-96801904D01*
X193920595Y-96801904D01*
X193996785Y-96763809D01*
X194034880Y-96687619D01*
X194034880Y-96382857D01*
X193996785Y-96306666D01*
X193920595Y-96268571D01*
X193768214Y-96268571D01*
X193692023Y-96306666D01*
X193653928Y-96382857D01*
X193653928Y-96459047D01*
X194034880Y-96535238D01*
X193006309Y-96763809D02*
X193082500Y-96801904D01*
X193234880Y-96801904D01*
X193311071Y-96763809D01*
X193349166Y-96687619D01*
X193349166Y-96382857D01*
X193311071Y-96306666D01*
X193234880Y-96268571D01*
X193082500Y-96268571D01*
X193006309Y-96306666D01*
X192968214Y-96382857D01*
X192968214Y-96459047D01*
X193349166Y-96535238D01*
X192625357Y-96268571D02*
X192625357Y-96801904D01*
X192625357Y-96344761D02*
X192587261Y-96306666D01*
X192511071Y-96268571D01*
X192396785Y-96268571D01*
X192320595Y-96306666D01*
X192282500Y-96382857D01*
X192282500Y-96801904D01*
X191292023Y-96801904D02*
X191292023Y-96001904D01*
X190987261Y-96001904D01*
X190911071Y-96040000D01*
X190872976Y-96078095D01*
X190834880Y-96154285D01*
X190834880Y-96268571D01*
X190872976Y-96344761D01*
X190911071Y-96382857D01*
X190987261Y-96420952D01*
X191292023Y-96420952D01*
X190492023Y-96801904D02*
X190492023Y-96268571D01*
X190492023Y-96001904D02*
X190530119Y-96040000D01*
X190492023Y-96078095D01*
X190453928Y-96040000D01*
X190492023Y-96001904D01*
X190492023Y-96078095D01*
X189996785Y-96801904D02*
X190072976Y-96763809D01*
X190111071Y-96687619D01*
X190111071Y-96001904D01*
X189577738Y-96801904D02*
X189653928Y-96763809D01*
X189692023Y-96687619D01*
X189692023Y-96001904D01*
X188396785Y-96382857D02*
X188282500Y-96420952D01*
X188244404Y-96459047D01*
X188206309Y-96535238D01*
X188206309Y-96649523D01*
X188244404Y-96725714D01*
X188282500Y-96763809D01*
X188358690Y-96801904D01*
X188663452Y-96801904D01*
X188663452Y-96001904D01*
X188396785Y-96001904D01*
X188320595Y-96040000D01*
X188282500Y-96078095D01*
X188244404Y-96154285D01*
X188244404Y-96230476D01*
X188282500Y-96306666D01*
X188320595Y-96344761D01*
X188396785Y-96382857D01*
X188663452Y-96382857D01*
X187863452Y-96801904D02*
X187863452Y-96268571D01*
X187863452Y-96001904D02*
X187901547Y-96040000D01*
X187863452Y-96078095D01*
X187825357Y-96040000D01*
X187863452Y-96001904D01*
X187863452Y-96078095D01*
X187520595Y-96763809D02*
X187444404Y-96801904D01*
X187292023Y-96801904D01*
X187215833Y-96763809D01*
X187177738Y-96687619D01*
X187177738Y-96649523D01*
X187215833Y-96573333D01*
X187292023Y-96535238D01*
X187406309Y-96535238D01*
X187482500Y-96497142D01*
X187520595Y-96420952D01*
X187520595Y-96382857D01*
X187482500Y-96306666D01*
X187406309Y-96268571D01*
X187292023Y-96268571D01*
X187215833Y-96306666D01*
X186796785Y-96763809D02*
X186796785Y-96801904D01*
X186834880Y-96878095D01*
X186872976Y-96916190D01*
X185844404Y-96801904D02*
X185844404Y-96268571D01*
X185844404Y-96420952D02*
X185806309Y-96344761D01*
X185768214Y-96306666D01*
X185692023Y-96268571D01*
X185615833Y-96268571D01*
X185044404Y-96763809D02*
X185120595Y-96801904D01*
X185272976Y-96801904D01*
X185349166Y-96763809D01*
X185387261Y-96687619D01*
X185387261Y-96382857D01*
X185349166Y-96306666D01*
X185272976Y-96268571D01*
X185120595Y-96268571D01*
X185044404Y-96306666D01*
X185006309Y-96382857D01*
X185006309Y-96459047D01*
X185387261Y-96535238D01*
X184739642Y-96268571D02*
X184549166Y-96801904D01*
X184358690Y-96268571D01*
X184053928Y-96725714D02*
X184015833Y-96763809D01*
X184053928Y-96801904D01*
X184092023Y-96763809D01*
X184053928Y-96725714D01*
X184053928Y-96801904D01*
X182720595Y-96801904D02*
X182720595Y-96382857D01*
X182758690Y-96306666D01*
X182834880Y-96268571D01*
X182987261Y-96268571D01*
X183063452Y-96306666D01*
X182720595Y-96763809D02*
X182796785Y-96801904D01*
X182987261Y-96801904D01*
X183063452Y-96763809D01*
X183101547Y-96687619D01*
X183101547Y-96611428D01*
X183063452Y-96535238D01*
X182987261Y-96497142D01*
X182796785Y-96497142D01*
X182720595Y-96459047D01*
X195330119Y-98113809D02*
X195215833Y-98151904D01*
X195025357Y-98151904D01*
X194949166Y-98113809D01*
X194911071Y-98075714D01*
X194872976Y-97999523D01*
X194872976Y-97923333D01*
X194911071Y-97847142D01*
X194949166Y-97809047D01*
X195025357Y-97770952D01*
X195177738Y-97732857D01*
X195253928Y-97694761D01*
X195292023Y-97656666D01*
X195330119Y-97580476D01*
X195330119Y-97504285D01*
X195292023Y-97428095D01*
X195253928Y-97390000D01*
X195177738Y-97351904D01*
X194987261Y-97351904D01*
X194872976Y-97390000D01*
X194644404Y-97351904D02*
X194187261Y-97351904D01*
X194415833Y-98151904D02*
X194415833Y-97351904D01*
X193920595Y-98151904D02*
X193920595Y-97351904D01*
X193653928Y-97923333D01*
X193387261Y-97351904D01*
X193387261Y-98151904D01*
X193082500Y-97351904D02*
X192587261Y-97351904D01*
X192853928Y-97656666D01*
X192739642Y-97656666D01*
X192663452Y-97694761D01*
X192625357Y-97732857D01*
X192587261Y-97809047D01*
X192587261Y-97999523D01*
X192625357Y-98075714D01*
X192663452Y-98113809D01*
X192739642Y-98151904D01*
X192968214Y-98151904D01*
X193044404Y-98113809D01*
X193082500Y-98075714D01*
X192282500Y-97428095D02*
X192244404Y-97390000D01*
X192168214Y-97351904D01*
X191977738Y-97351904D01*
X191901547Y-97390000D01*
X191863452Y-97428095D01*
X191825357Y-97504285D01*
X191825357Y-97580476D01*
X191863452Y-97694761D01*
X192320595Y-98151904D01*
X191825357Y-98151904D01*
X190872976Y-98151904D02*
X190872976Y-97351904D01*
X190682500Y-97351904D01*
X190568214Y-97390000D01*
X190492023Y-97466190D01*
X190453928Y-97542380D01*
X190415833Y-97694761D01*
X190415833Y-97809047D01*
X190453928Y-97961428D01*
X190492023Y-98037619D01*
X190568214Y-98113809D01*
X190682500Y-98151904D01*
X190872976Y-98151904D01*
X189768214Y-98113809D02*
X189844404Y-98151904D01*
X189996785Y-98151904D01*
X190072976Y-98113809D01*
X190111071Y-98037619D01*
X190111071Y-97732857D01*
X190072976Y-97656666D01*
X189996785Y-97618571D01*
X189844404Y-97618571D01*
X189768214Y-97656666D01*
X189730119Y-97732857D01*
X189730119Y-97809047D01*
X190111071Y-97885238D01*
X189463452Y-97618571D02*
X189272976Y-98151904D01*
X189082500Y-97618571D01*
X188472976Y-98113809D02*
X188549166Y-98151904D01*
X188701547Y-98151904D01*
X188777738Y-98113809D01*
X188815833Y-98037619D01*
X188815833Y-97732857D01*
X188777738Y-97656666D01*
X188701547Y-97618571D01*
X188549166Y-97618571D01*
X188472976Y-97656666D01*
X188434880Y-97732857D01*
X188434880Y-97809047D01*
X188815833Y-97885238D01*
X187977738Y-98151904D02*
X188053928Y-98113809D01*
X188092023Y-98037619D01*
X188092023Y-97351904D01*
X187558690Y-98151904D02*
X187634880Y-98113809D01*
X187672976Y-98075714D01*
X187711071Y-97999523D01*
X187711071Y-97770952D01*
X187672976Y-97694761D01*
X187634880Y-97656666D01*
X187558690Y-97618571D01*
X187444404Y-97618571D01*
X187368214Y-97656666D01*
X187330119Y-97694761D01*
X187292023Y-97770952D01*
X187292023Y-97999523D01*
X187330119Y-98075714D01*
X187368214Y-98113809D01*
X187444404Y-98151904D01*
X187558690Y-98151904D01*
X186949166Y-97618571D02*
X186949166Y-98418571D01*
X186949166Y-97656666D02*
X186872976Y-97618571D01*
X186720595Y-97618571D01*
X186644404Y-97656666D01*
X186606309Y-97694761D01*
X186568214Y-97770952D01*
X186568214Y-97999523D01*
X186606309Y-98075714D01*
X186644404Y-98113809D01*
X186720595Y-98151904D01*
X186872976Y-98151904D01*
X186949166Y-98113809D01*
X186225357Y-98151904D02*
X186225357Y-97618571D01*
X186225357Y-97694761D02*
X186187261Y-97656666D01*
X186111071Y-97618571D01*
X185996785Y-97618571D01*
X185920595Y-97656666D01*
X185882500Y-97732857D01*
X185882500Y-98151904D01*
X185882500Y-97732857D02*
X185844404Y-97656666D01*
X185768214Y-97618571D01*
X185653928Y-97618571D01*
X185577738Y-97656666D01*
X185539642Y-97732857D01*
X185539642Y-98151904D01*
X184853928Y-98113809D02*
X184930119Y-98151904D01*
X185082500Y-98151904D01*
X185158690Y-98113809D01*
X185196785Y-98037619D01*
X185196785Y-97732857D01*
X185158690Y-97656666D01*
X185082500Y-97618571D01*
X184930119Y-97618571D01*
X184853928Y-97656666D01*
X184815833Y-97732857D01*
X184815833Y-97809047D01*
X185196785Y-97885238D01*
X184472976Y-97618571D02*
X184472976Y-98151904D01*
X184472976Y-97694761D02*
X184434880Y-97656666D01*
X184358690Y-97618571D01*
X184244404Y-97618571D01*
X184168214Y-97656666D01*
X184130119Y-97732857D01*
X184130119Y-98151904D01*
X183863452Y-97618571D02*
X183558690Y-97618571D01*
X183749166Y-97351904D02*
X183749166Y-98037619D01*
X183711071Y-98113809D01*
X183634880Y-98151904D01*
X183558690Y-98151904D01*
X194644404Y-98892380D02*
X194720595Y-98854285D01*
X194872976Y-98854285D01*
X194949166Y-98892380D01*
X195025357Y-98968571D01*
X195063452Y-99044761D01*
X195063452Y-99197142D01*
X195025357Y-99273333D01*
X194949166Y-99349523D01*
X194872976Y-99387619D01*
X194720595Y-99387619D01*
X194644404Y-99349523D01*
X194796785Y-98587619D02*
X194987261Y-98625714D01*
X195177738Y-98740000D01*
X195292023Y-98930476D01*
X195330119Y-99120952D01*
X195292023Y-99311428D01*
X195177738Y-99501904D01*
X194987261Y-99616190D01*
X194796785Y-99654285D01*
X194606309Y-99616190D01*
X194415833Y-99501904D01*
X194301547Y-99311428D01*
X194263452Y-99120952D01*
X194301547Y-98930476D01*
X194415833Y-98740000D01*
X194606309Y-98625714D01*
X194796785Y-98587619D01*
X193349166Y-98778095D02*
X193311071Y-98740000D01*
X193234880Y-98701904D01*
X193044404Y-98701904D01*
X192968214Y-98740000D01*
X192930119Y-98778095D01*
X192892023Y-98854285D01*
X192892023Y-98930476D01*
X192930119Y-99044761D01*
X193387261Y-99501904D01*
X192892023Y-99501904D01*
X192396785Y-98701904D02*
X192320595Y-98701904D01*
X192244404Y-98740000D01*
X192206309Y-98778095D01*
X192168214Y-98854285D01*
X192130119Y-99006666D01*
X192130119Y-99197142D01*
X192168214Y-99349523D01*
X192206309Y-99425714D01*
X192244404Y-99463809D01*
X192320595Y-99501904D01*
X192396785Y-99501904D01*
X192472976Y-99463809D01*
X192511071Y-99425714D01*
X192549166Y-99349523D01*
X192587261Y-99197142D01*
X192587261Y-99006666D01*
X192549166Y-98854285D01*
X192511071Y-98778095D01*
X192472976Y-98740000D01*
X192396785Y-98701904D01*
X191825357Y-98778095D02*
X191787261Y-98740000D01*
X191711071Y-98701904D01*
X191520595Y-98701904D01*
X191444404Y-98740000D01*
X191406309Y-98778095D01*
X191368214Y-98854285D01*
X191368214Y-98930476D01*
X191406309Y-99044761D01*
X191863452Y-99501904D01*
X191368214Y-99501904D01*
X190872976Y-98701904D02*
X190796785Y-98701904D01*
X190720595Y-98740000D01*
X190682500Y-98778095D01*
X190644404Y-98854285D01*
X190606309Y-99006666D01*
X190606309Y-99197142D01*
X190644404Y-99349523D01*
X190682500Y-99425714D01*
X190720595Y-99463809D01*
X190796785Y-99501904D01*
X190872976Y-99501904D01*
X190949166Y-99463809D01*
X190987261Y-99425714D01*
X191025357Y-99349523D01*
X191063452Y-99197142D01*
X191063452Y-99006666D01*
X191025357Y-98854285D01*
X190987261Y-98778095D01*
X190949166Y-98740000D01*
X190872976Y-98701904D01*
X189272976Y-99501904D02*
X189653928Y-99501904D01*
X189653928Y-98701904D01*
X188663452Y-99501904D02*
X188663452Y-99082857D01*
X188701547Y-99006666D01*
X188777738Y-98968571D01*
X188930119Y-98968571D01*
X189006309Y-99006666D01*
X188663452Y-99463809D02*
X188739642Y-99501904D01*
X188930119Y-99501904D01*
X189006309Y-99463809D01*
X189044404Y-99387619D01*
X189044404Y-99311428D01*
X189006309Y-99235238D01*
X188930119Y-99197142D01*
X188739642Y-99197142D01*
X188663452Y-99159047D01*
X188282500Y-99501904D02*
X188282500Y-98968571D01*
X188282500Y-99120952D02*
X188244404Y-99044761D01*
X188206309Y-99006666D01*
X188130119Y-98968571D01*
X188053928Y-98968571D01*
X187825357Y-99463809D02*
X187749166Y-99501904D01*
X187596785Y-99501904D01*
X187520595Y-99463809D01*
X187482500Y-99387619D01*
X187482500Y-99349523D01*
X187520595Y-99273333D01*
X187596785Y-99235238D01*
X187711071Y-99235238D01*
X187787261Y-99197142D01*
X187825357Y-99120952D01*
X187825357Y-99082857D01*
X187787261Y-99006666D01*
X187711071Y-98968571D01*
X187596785Y-98968571D01*
X187520595Y-99006666D01*
X186263452Y-99082857D02*
X186149166Y-99120952D01*
X186111071Y-99159047D01*
X186072976Y-99235238D01*
X186072976Y-99349523D01*
X186111071Y-99425714D01*
X186149166Y-99463809D01*
X186225357Y-99501904D01*
X186530119Y-99501904D01*
X186530119Y-98701904D01*
X186263452Y-98701904D01*
X186187261Y-98740000D01*
X186149166Y-98778095D01*
X186111071Y-98854285D01*
X186111071Y-98930476D01*
X186149166Y-99006666D01*
X186187261Y-99044761D01*
X186263452Y-99082857D01*
X186530119Y-99082857D01*
X185615833Y-99501904D02*
X185692023Y-99463809D01*
X185730119Y-99425714D01*
X185768214Y-99349523D01*
X185768214Y-99120952D01*
X185730119Y-99044761D01*
X185692023Y-99006666D01*
X185615833Y-98968571D01*
X185501547Y-98968571D01*
X185425357Y-99006666D01*
X185387261Y-99044761D01*
X185349166Y-99120952D01*
X185349166Y-99349523D01*
X185387261Y-99425714D01*
X185425357Y-99463809D01*
X185501547Y-99501904D01*
X185615833Y-99501904D01*
X184701547Y-99463809D02*
X184777738Y-99501904D01*
X184930119Y-99501904D01*
X185006309Y-99463809D01*
X185044404Y-99387619D01*
X185044404Y-99082857D01*
X185006309Y-99006666D01*
X184930119Y-98968571D01*
X184777738Y-98968571D01*
X184701547Y-99006666D01*
X184663452Y-99082857D01*
X184663452Y-99159047D01*
X185044404Y-99235238D01*
X183977738Y-98968571D02*
X183977738Y-99616190D01*
X184015833Y-99692380D01*
X184053928Y-99730476D01*
X184130119Y-99768571D01*
X184244404Y-99768571D01*
X184320595Y-99730476D01*
X183977738Y-99463809D02*
X184053928Y-99501904D01*
X184206309Y-99501904D01*
X184282500Y-99463809D01*
X184320595Y-99425714D01*
X184358690Y-99349523D01*
X184358690Y-99120952D01*
X184320595Y-99044761D01*
X184282500Y-99006666D01*
X184206309Y-98968571D01*
X184053928Y-98968571D01*
X183977738Y-99006666D01*
X183596785Y-99501904D02*
X183596785Y-98968571D01*
X183596785Y-98701904D02*
X183634880Y-98740000D01*
X183596785Y-98778095D01*
X183558690Y-98740000D01*
X183596785Y-98701904D01*
X183596785Y-98778095D01*
X183101547Y-99501904D02*
X183177738Y-99463809D01*
X183215833Y-99387619D01*
X183215833Y-98701904D01*
X182453928Y-99501904D02*
X182453928Y-98701904D01*
X182453928Y-99463809D02*
X182530119Y-99501904D01*
X182682500Y-99501904D01*
X182758690Y-99463809D01*
X182796785Y-99425714D01*
X182834880Y-99349523D01*
X182834880Y-99120952D01*
X182796785Y-99044761D01*
X182758690Y-99006666D01*
X182682500Y-98968571D01*
X182530119Y-98968571D01*
X182453928Y-99006666D01*
X181577738Y-98701904D02*
X181120595Y-98701904D01*
X181349166Y-99501904D02*
X181349166Y-98701904D01*
X180853928Y-99501904D02*
X180853928Y-98701904D01*
X180511071Y-99501904D02*
X180511071Y-99082857D01*
X180549166Y-99006666D01*
X180625357Y-98968571D01*
X180739642Y-98968571D01*
X180815833Y-99006666D01*
X180853928Y-99044761D01*
X180015833Y-99501904D02*
X180092023Y-99463809D01*
X180130119Y-99425714D01*
X180168214Y-99349523D01*
X180168214Y-99120952D01*
X180130119Y-99044761D01*
X180092023Y-99006666D01*
X180015833Y-98968571D01*
X179901547Y-98968571D01*
X179825357Y-99006666D01*
X179787261Y-99044761D01*
X179749166Y-99120952D01*
X179749166Y-99349523D01*
X179787261Y-99425714D01*
X179825357Y-99463809D01*
X179901547Y-99501904D01*
X180015833Y-99501904D01*
X179406309Y-99501904D02*
X179406309Y-98968571D01*
X179406309Y-99044761D02*
X179368214Y-99006666D01*
X179292023Y-98968571D01*
X179177738Y-98968571D01*
X179101547Y-99006666D01*
X179063452Y-99082857D01*
X179063452Y-99501904D01*
X179063452Y-99082857D02*
X179025357Y-99006666D01*
X178949166Y-98968571D01*
X178834880Y-98968571D01*
X178758690Y-99006666D01*
X178720595Y-99082857D01*
X178720595Y-99501904D01*
X178377738Y-99463809D02*
X178301547Y-99501904D01*
X178149166Y-99501904D01*
X178072976Y-99463809D01*
X178034880Y-99387619D01*
X178034880Y-99349523D01*
X178072976Y-99273333D01*
X178149166Y-99235238D01*
X178263452Y-99235238D01*
X178339642Y-99197142D01*
X178377738Y-99120952D01*
X178377738Y-99082857D01*
X178339642Y-99006666D01*
X178263452Y-98968571D01*
X178149166Y-98968571D01*
X178072976Y-99006666D01*
X177387261Y-99463809D02*
X177463452Y-99501904D01*
X177615833Y-99501904D01*
X177692023Y-99463809D01*
X177730119Y-99387619D01*
X177730119Y-99082857D01*
X177692023Y-99006666D01*
X177615833Y-98968571D01*
X177463452Y-98968571D01*
X177387261Y-99006666D01*
X177349166Y-99082857D01*
X177349166Y-99159047D01*
X177730119Y-99235238D01*
X177006309Y-98968571D02*
X177006309Y-99501904D01*
X177006309Y-99044761D02*
X176968214Y-99006666D01*
X176892023Y-98968571D01*
X176777738Y-98968571D01*
X176701547Y-99006666D01*
X176663452Y-99082857D01*
X176663452Y-99501904D01*
D11*
%TO.C,J1*%
X203295000Y-96900000D02*
X205195000Y-96900000D01*
X199395000Y-96900000D02*
X201395000Y-96900000D01*
X203295000Y-106300000D02*
X205195000Y-106300000D01*
X199395000Y-106300000D02*
X201395000Y-106300000D01*
X205195000Y-96900000D02*
X205195000Y-106300000D01*
%TO.C,J3*%
X203260000Y-92650000D02*
X203260000Y-95310000D01*
X154940000Y-92650000D02*
X203260000Y-92650000D01*
X154940000Y-95310000D02*
X203260000Y-95310000D01*
X154940000Y-92650000D02*
X154940000Y-95310000D01*
X153670000Y-92650000D02*
X152340000Y-92650000D01*
X152340000Y-92650000D02*
X152340000Y-93980000D01*
%TO.C,J2*%
X203260000Y-107890000D02*
X203260000Y-110550000D01*
X154940000Y-107890000D02*
X203260000Y-107890000D01*
X154940000Y-110550000D02*
X203260000Y-110550000D01*
X154940000Y-107890000D02*
X154940000Y-110550000D01*
X153670000Y-107890000D02*
X152340000Y-107890000D01*
X152340000Y-107890000D02*
X152340000Y-109220000D01*
%TO.C,J1*%
D10*
X202126904Y-101333333D02*
X202698333Y-101333333D01*
X202812619Y-101295238D01*
X202888809Y-101219047D01*
X202926904Y-101104761D01*
X202926904Y-101028571D01*
X202926904Y-102133333D02*
X202926904Y-101676190D01*
X202926904Y-101904761D02*
X202126904Y-101904761D01*
X202241190Y-101828571D01*
X202317380Y-101752380D01*
X202355476Y-101676190D01*
%TD*%
M02*
