%TF.GenerationSoftware,KiCad,Pcbnew,5.1.6+dfsg1-1*%
%TF.CreationDate,2020-07-01T20:32:58+08:00*%
%TF.ProjectId,stm32devmini,73746d33-3264-4657-966d-696e692e6b69,a*%
%TF.SameCoordinates,Original*%
%TF.FileFunction,Legend,Bot*%
%TF.FilePolarity,Positive*%
%FSLAX46Y46*%
G04 Gerber Fmt 4.6, Leading zero omitted, Abs format (unit mm)*
G04 Created by KiCad (PCBNEW 5.1.6+dfsg1-1) date 2020-07-01 20:32:58*
%MOMM*%
%LPD*%
G01*
G04 APERTURE LIST*
%ADD10C,0.150000*%
%ADD11C,0.120000*%
G04 APERTURE END LIST*
D10*
X189585476Y-103701904D02*
X189090238Y-103701904D01*
X189356904Y-104006666D01*
X189242619Y-104006666D01*
X189166428Y-104044761D01*
X189128333Y-104082857D01*
X189090238Y-104159047D01*
X189090238Y-104349523D01*
X189128333Y-104425714D01*
X189166428Y-104463809D01*
X189242619Y-104501904D01*
X189471190Y-104501904D01*
X189547380Y-104463809D01*
X189585476Y-104425714D01*
X188861666Y-103701904D02*
X188595000Y-104501904D01*
X188328333Y-103701904D01*
X188137857Y-103701904D02*
X187642619Y-103701904D01*
X187909285Y-104006666D01*
X187795000Y-104006666D01*
X187718809Y-104044761D01*
X187680714Y-104082857D01*
X187642619Y-104159047D01*
X187642619Y-104349523D01*
X187680714Y-104425714D01*
X187718809Y-104463809D01*
X187795000Y-104501904D01*
X188023571Y-104501904D01*
X188099761Y-104463809D01*
X188137857Y-104425714D01*
X182854523Y-103740000D02*
X182930714Y-103701904D01*
X183045000Y-103701904D01*
X183159285Y-103740000D01*
X183235476Y-103816190D01*
X183273571Y-103892380D01*
X183311666Y-104044761D01*
X183311666Y-104159047D01*
X183273571Y-104311428D01*
X183235476Y-104387619D01*
X183159285Y-104463809D01*
X183045000Y-104501904D01*
X182968809Y-104501904D01*
X182854523Y-104463809D01*
X182816428Y-104425714D01*
X182816428Y-104159047D01*
X182968809Y-104159047D01*
X182473571Y-104501904D02*
X182473571Y-103701904D01*
X182016428Y-104501904D01*
X182016428Y-103701904D01*
X181635476Y-104501904D02*
X181635476Y-103701904D01*
X181445000Y-103701904D01*
X181330714Y-103740000D01*
X181254523Y-103816190D01*
X181216428Y-103892380D01*
X181178333Y-104044761D01*
X181178333Y-104159047D01*
X181216428Y-104311428D01*
X181254523Y-104387619D01*
X181330714Y-104463809D01*
X181445000Y-104501904D01*
X181635476Y-104501904D01*
X187000952Y-105987857D02*
X186886666Y-106025952D01*
X186848571Y-106064047D01*
X186810476Y-106140238D01*
X186810476Y-106254523D01*
X186848571Y-106330714D01*
X186886666Y-106368809D01*
X186962857Y-106406904D01*
X187267619Y-106406904D01*
X187267619Y-105606904D01*
X187000952Y-105606904D01*
X186924761Y-105645000D01*
X186886666Y-105683095D01*
X186848571Y-105759285D01*
X186848571Y-105835476D01*
X186886666Y-105911666D01*
X186924761Y-105949761D01*
X187000952Y-105987857D01*
X187267619Y-105987857D01*
X186353333Y-106406904D02*
X186429523Y-106368809D01*
X186467619Y-106330714D01*
X186505714Y-106254523D01*
X186505714Y-106025952D01*
X186467619Y-105949761D01*
X186429523Y-105911666D01*
X186353333Y-105873571D01*
X186239047Y-105873571D01*
X186162857Y-105911666D01*
X186124761Y-105949761D01*
X186086666Y-106025952D01*
X186086666Y-106254523D01*
X186124761Y-106330714D01*
X186162857Y-106368809D01*
X186239047Y-106406904D01*
X186353333Y-106406904D01*
X185629523Y-106406904D02*
X185705714Y-106368809D01*
X185743809Y-106330714D01*
X185781904Y-106254523D01*
X185781904Y-106025952D01*
X185743809Y-105949761D01*
X185705714Y-105911666D01*
X185629523Y-105873571D01*
X185515238Y-105873571D01*
X185439047Y-105911666D01*
X185400952Y-105949761D01*
X185362857Y-106025952D01*
X185362857Y-106254523D01*
X185400952Y-106330714D01*
X185439047Y-106368809D01*
X185515238Y-106406904D01*
X185629523Y-106406904D01*
X185134285Y-105873571D02*
X184829523Y-105873571D01*
X185020000Y-105606904D02*
X185020000Y-106292619D01*
X184981904Y-106368809D01*
X184905714Y-106406904D01*
X184829523Y-106406904D01*
X183534285Y-106406904D02*
X183991428Y-106406904D01*
X183762857Y-106406904D02*
X183762857Y-105606904D01*
X183839047Y-105721190D01*
X183915238Y-105797380D01*
X183991428Y-105835476D01*
X194428452Y-106241904D02*
X194428452Y-106813333D01*
X194466547Y-106927619D01*
X194542738Y-107003809D01*
X194657023Y-107041904D01*
X194733214Y-107041904D01*
X193666547Y-107041904D02*
X194047500Y-107041904D01*
X194047500Y-106241904D01*
X192942738Y-106965714D02*
X192980833Y-107003809D01*
X193095119Y-107041904D01*
X193171309Y-107041904D01*
X193285595Y-107003809D01*
X193361785Y-106927619D01*
X193399880Y-106851428D01*
X193437976Y-106699047D01*
X193437976Y-106584761D01*
X193399880Y-106432380D01*
X193361785Y-106356190D01*
X193285595Y-106280000D01*
X193171309Y-106241904D01*
X193095119Y-106241904D01*
X192980833Y-106280000D01*
X192942738Y-106318095D01*
X192371309Y-106241904D02*
X192371309Y-106813333D01*
X192409404Y-106927619D01*
X192485595Y-107003809D01*
X192599880Y-107041904D01*
X192676071Y-107041904D01*
X191609404Y-107041904D02*
X191990357Y-107041904D01*
X191990357Y-106241904D01*
X190885595Y-106965714D02*
X190923690Y-107003809D01*
X191037976Y-107041904D01*
X191114166Y-107041904D01*
X191228452Y-107003809D01*
X191304642Y-106927619D01*
X191342738Y-106851428D01*
X191380833Y-106699047D01*
X191380833Y-106584761D01*
X191342738Y-106432380D01*
X191304642Y-106356190D01*
X191228452Y-106280000D01*
X191114166Y-106241904D01*
X191037976Y-106241904D01*
X190923690Y-106280000D01*
X190885595Y-106318095D01*
X190314166Y-106241904D02*
X190314166Y-106813333D01*
X190352261Y-106927619D01*
X190428452Y-107003809D01*
X190542738Y-107041904D01*
X190618928Y-107041904D01*
X189552261Y-107041904D02*
X189933214Y-107041904D01*
X189933214Y-106241904D01*
X188828452Y-106965714D02*
X188866547Y-107003809D01*
X188980833Y-107041904D01*
X189057023Y-107041904D01*
X189171309Y-107003809D01*
X189247500Y-106927619D01*
X189285595Y-106851428D01*
X189323690Y-106699047D01*
X189323690Y-106584761D01*
X189285595Y-106432380D01*
X189247500Y-106356190D01*
X189171309Y-106280000D01*
X189057023Y-106241904D01*
X188980833Y-106241904D01*
X188866547Y-106280000D01*
X188828452Y-106318095D01*
X188257023Y-106241904D02*
X188257023Y-106813333D01*
X188295119Y-106927619D01*
X188371309Y-107003809D01*
X188485595Y-107041904D01*
X188561785Y-107041904D01*
X187495119Y-107041904D02*
X187876071Y-107041904D01*
X187876071Y-106241904D01*
X186771309Y-106965714D02*
X186809404Y-107003809D01*
X186923690Y-107041904D01*
X186999880Y-107041904D01*
X187114166Y-107003809D01*
X187190357Y-106927619D01*
X187228452Y-106851428D01*
X187266547Y-106699047D01*
X187266547Y-106584761D01*
X187228452Y-106432380D01*
X187190357Y-106356190D01*
X187114166Y-106280000D01*
X186999880Y-106241904D01*
X186923690Y-106241904D01*
X186809404Y-106280000D01*
X186771309Y-106318095D01*
X154336666Y-110686904D02*
X154070000Y-111486904D01*
X153803333Y-110686904D01*
X153270000Y-111067857D02*
X153155714Y-111105952D01*
X153117619Y-111144047D01*
X153079523Y-111220238D01*
X153079523Y-111334523D01*
X153117619Y-111410714D01*
X153155714Y-111448809D01*
X153231904Y-111486904D01*
X153536666Y-111486904D01*
X153536666Y-110686904D01*
X153270000Y-110686904D01*
X153193809Y-110725000D01*
X153155714Y-110763095D01*
X153117619Y-110839285D01*
X153117619Y-110915476D01*
X153155714Y-110991666D01*
X153193809Y-111029761D01*
X153270000Y-111067857D01*
X153536666Y-111067857D01*
X156724285Y-111410714D02*
X156762380Y-111448809D01*
X156876666Y-111486904D01*
X156952857Y-111486904D01*
X157067142Y-111448809D01*
X157143333Y-111372619D01*
X157181428Y-111296428D01*
X157219523Y-111144047D01*
X157219523Y-111029761D01*
X157181428Y-110877380D01*
X157143333Y-110801190D01*
X157067142Y-110725000D01*
X156952857Y-110686904D01*
X156876666Y-110686904D01*
X156762380Y-110725000D01*
X156724285Y-110763095D01*
X155962380Y-111486904D02*
X156419523Y-111486904D01*
X156190952Y-111486904D02*
X156190952Y-110686904D01*
X156267142Y-110801190D01*
X156343333Y-110877380D01*
X156419523Y-110915476D01*
X155695714Y-110686904D02*
X155200476Y-110686904D01*
X155467142Y-110991666D01*
X155352857Y-110991666D01*
X155276666Y-111029761D01*
X155238571Y-111067857D01*
X155200476Y-111144047D01*
X155200476Y-111334523D01*
X155238571Y-111410714D01*
X155276666Y-111448809D01*
X155352857Y-111486904D01*
X155581428Y-111486904D01*
X155657619Y-111448809D01*
X155695714Y-111410714D01*
X159264285Y-111410714D02*
X159302380Y-111448809D01*
X159416666Y-111486904D01*
X159492857Y-111486904D01*
X159607142Y-111448809D01*
X159683333Y-111372619D01*
X159721428Y-111296428D01*
X159759523Y-111144047D01*
X159759523Y-111029761D01*
X159721428Y-110877380D01*
X159683333Y-110801190D01*
X159607142Y-110725000D01*
X159492857Y-110686904D01*
X159416666Y-110686904D01*
X159302380Y-110725000D01*
X159264285Y-110763095D01*
X158502380Y-111486904D02*
X158959523Y-111486904D01*
X158730952Y-111486904D02*
X158730952Y-110686904D01*
X158807142Y-110801190D01*
X158883333Y-110877380D01*
X158959523Y-110915476D01*
X157816666Y-110953571D02*
X157816666Y-111486904D01*
X158007142Y-110648809D02*
X158197619Y-111220238D01*
X157702380Y-111220238D01*
X161804285Y-111410714D02*
X161842380Y-111448809D01*
X161956666Y-111486904D01*
X162032857Y-111486904D01*
X162147142Y-111448809D01*
X162223333Y-111372619D01*
X162261428Y-111296428D01*
X162299523Y-111144047D01*
X162299523Y-111029761D01*
X162261428Y-110877380D01*
X162223333Y-110801190D01*
X162147142Y-110725000D01*
X162032857Y-110686904D01*
X161956666Y-110686904D01*
X161842380Y-110725000D01*
X161804285Y-110763095D01*
X161042380Y-111486904D02*
X161499523Y-111486904D01*
X161270952Y-111486904D02*
X161270952Y-110686904D01*
X161347142Y-110801190D01*
X161423333Y-110877380D01*
X161499523Y-110915476D01*
X160318571Y-110686904D02*
X160699523Y-110686904D01*
X160737619Y-111067857D01*
X160699523Y-111029761D01*
X160623333Y-110991666D01*
X160432857Y-110991666D01*
X160356666Y-111029761D01*
X160318571Y-111067857D01*
X160280476Y-111144047D01*
X160280476Y-111334523D01*
X160318571Y-111410714D01*
X160356666Y-111448809D01*
X160432857Y-111486904D01*
X160623333Y-111486904D01*
X160699523Y-111448809D01*
X160737619Y-111410714D01*
X164401428Y-111258333D02*
X164020476Y-111258333D01*
X164477619Y-111486904D02*
X164210952Y-110686904D01*
X163944285Y-111486904D01*
X163525238Y-110686904D02*
X163449047Y-110686904D01*
X163372857Y-110725000D01*
X163334761Y-110763095D01*
X163296666Y-110839285D01*
X163258571Y-110991666D01*
X163258571Y-111182142D01*
X163296666Y-111334523D01*
X163334761Y-111410714D01*
X163372857Y-111448809D01*
X163449047Y-111486904D01*
X163525238Y-111486904D01*
X163601428Y-111448809D01*
X163639523Y-111410714D01*
X163677619Y-111334523D01*
X163715714Y-111182142D01*
X163715714Y-110991666D01*
X163677619Y-110839285D01*
X163639523Y-110763095D01*
X163601428Y-110725000D01*
X163525238Y-110686904D01*
X166941428Y-111258333D02*
X166560476Y-111258333D01*
X167017619Y-111486904D02*
X166750952Y-110686904D01*
X166484285Y-111486904D01*
X165798571Y-111486904D02*
X166255714Y-111486904D01*
X166027142Y-111486904D02*
X166027142Y-110686904D01*
X166103333Y-110801190D01*
X166179523Y-110877380D01*
X166255714Y-110915476D01*
X169481428Y-111258333D02*
X169100476Y-111258333D01*
X169557619Y-111486904D02*
X169290952Y-110686904D01*
X169024285Y-111486904D01*
X168795714Y-110763095D02*
X168757619Y-110725000D01*
X168681428Y-110686904D01*
X168490952Y-110686904D01*
X168414761Y-110725000D01*
X168376666Y-110763095D01*
X168338571Y-110839285D01*
X168338571Y-110915476D01*
X168376666Y-111029761D01*
X168833809Y-111486904D01*
X168338571Y-111486904D01*
X172021428Y-111258333D02*
X171640476Y-111258333D01*
X172097619Y-111486904D02*
X171830952Y-110686904D01*
X171564285Y-111486904D01*
X171373809Y-110686904D02*
X170878571Y-110686904D01*
X171145238Y-110991666D01*
X171030952Y-110991666D01*
X170954761Y-111029761D01*
X170916666Y-111067857D01*
X170878571Y-111144047D01*
X170878571Y-111334523D01*
X170916666Y-111410714D01*
X170954761Y-111448809D01*
X171030952Y-111486904D01*
X171259523Y-111486904D01*
X171335714Y-111448809D01*
X171373809Y-111410714D01*
X174561428Y-111258333D02*
X174180476Y-111258333D01*
X174637619Y-111486904D02*
X174370952Y-110686904D01*
X174104285Y-111486904D01*
X173494761Y-110953571D02*
X173494761Y-111486904D01*
X173685238Y-110648809D02*
X173875714Y-111220238D01*
X173380476Y-111220238D01*
X177101428Y-111258333D02*
X176720476Y-111258333D01*
X177177619Y-111486904D02*
X176910952Y-110686904D01*
X176644285Y-111486904D01*
X175996666Y-110686904D02*
X176377619Y-110686904D01*
X176415714Y-111067857D01*
X176377619Y-111029761D01*
X176301428Y-110991666D01*
X176110952Y-110991666D01*
X176034761Y-111029761D01*
X175996666Y-111067857D01*
X175958571Y-111144047D01*
X175958571Y-111334523D01*
X175996666Y-111410714D01*
X176034761Y-111448809D01*
X176110952Y-111486904D01*
X176301428Y-111486904D01*
X176377619Y-111448809D01*
X176415714Y-111410714D01*
X179641428Y-111258333D02*
X179260476Y-111258333D01*
X179717619Y-111486904D02*
X179450952Y-110686904D01*
X179184285Y-111486904D01*
X178574761Y-110686904D02*
X178727142Y-110686904D01*
X178803333Y-110725000D01*
X178841428Y-110763095D01*
X178917619Y-110877380D01*
X178955714Y-111029761D01*
X178955714Y-111334523D01*
X178917619Y-111410714D01*
X178879523Y-111448809D01*
X178803333Y-111486904D01*
X178650952Y-111486904D01*
X178574761Y-111448809D01*
X178536666Y-111410714D01*
X178498571Y-111334523D01*
X178498571Y-111144047D01*
X178536666Y-111067857D01*
X178574761Y-111029761D01*
X178650952Y-110991666D01*
X178803333Y-110991666D01*
X178879523Y-111029761D01*
X178917619Y-111067857D01*
X178955714Y-111144047D01*
X182181428Y-111258333D02*
X181800476Y-111258333D01*
X182257619Y-111486904D02*
X181990952Y-110686904D01*
X181724285Y-111486904D01*
X181533809Y-110686904D02*
X181000476Y-110686904D01*
X181343333Y-111486904D01*
X184473809Y-111067857D02*
X184359523Y-111105952D01*
X184321428Y-111144047D01*
X184283333Y-111220238D01*
X184283333Y-111334523D01*
X184321428Y-111410714D01*
X184359523Y-111448809D01*
X184435714Y-111486904D01*
X184740476Y-111486904D01*
X184740476Y-110686904D01*
X184473809Y-110686904D01*
X184397619Y-110725000D01*
X184359523Y-110763095D01*
X184321428Y-110839285D01*
X184321428Y-110915476D01*
X184359523Y-110991666D01*
X184397619Y-111029761D01*
X184473809Y-111067857D01*
X184740476Y-111067857D01*
X183788095Y-110686904D02*
X183711904Y-110686904D01*
X183635714Y-110725000D01*
X183597619Y-110763095D01*
X183559523Y-110839285D01*
X183521428Y-110991666D01*
X183521428Y-111182142D01*
X183559523Y-111334523D01*
X183597619Y-111410714D01*
X183635714Y-111448809D01*
X183711904Y-111486904D01*
X183788095Y-111486904D01*
X183864285Y-111448809D01*
X183902380Y-111410714D01*
X183940476Y-111334523D01*
X183978571Y-111182142D01*
X183978571Y-110991666D01*
X183940476Y-110839285D01*
X183902380Y-110763095D01*
X183864285Y-110725000D01*
X183788095Y-110686904D01*
X187013809Y-111067857D02*
X186899523Y-111105952D01*
X186861428Y-111144047D01*
X186823333Y-111220238D01*
X186823333Y-111334523D01*
X186861428Y-111410714D01*
X186899523Y-111448809D01*
X186975714Y-111486904D01*
X187280476Y-111486904D01*
X187280476Y-110686904D01*
X187013809Y-110686904D01*
X186937619Y-110725000D01*
X186899523Y-110763095D01*
X186861428Y-110839285D01*
X186861428Y-110915476D01*
X186899523Y-110991666D01*
X186937619Y-111029761D01*
X187013809Y-111067857D01*
X187280476Y-111067857D01*
X186061428Y-111486904D02*
X186518571Y-111486904D01*
X186290000Y-111486904D02*
X186290000Y-110686904D01*
X186366190Y-110801190D01*
X186442380Y-110877380D01*
X186518571Y-110915476D01*
X189934761Y-111067857D02*
X189820476Y-111105952D01*
X189782380Y-111144047D01*
X189744285Y-111220238D01*
X189744285Y-111334523D01*
X189782380Y-111410714D01*
X189820476Y-111448809D01*
X189896666Y-111486904D01*
X190201428Y-111486904D01*
X190201428Y-110686904D01*
X189934761Y-110686904D01*
X189858571Y-110725000D01*
X189820476Y-110763095D01*
X189782380Y-110839285D01*
X189782380Y-110915476D01*
X189820476Y-110991666D01*
X189858571Y-111029761D01*
X189934761Y-111067857D01*
X190201428Y-111067857D01*
X188982380Y-111486904D02*
X189439523Y-111486904D01*
X189210952Y-111486904D02*
X189210952Y-110686904D01*
X189287142Y-110801190D01*
X189363333Y-110877380D01*
X189439523Y-110915476D01*
X188487142Y-110686904D02*
X188410952Y-110686904D01*
X188334761Y-110725000D01*
X188296666Y-110763095D01*
X188258571Y-110839285D01*
X188220476Y-110991666D01*
X188220476Y-111182142D01*
X188258571Y-111334523D01*
X188296666Y-111410714D01*
X188334761Y-111448809D01*
X188410952Y-111486904D01*
X188487142Y-111486904D01*
X188563333Y-111448809D01*
X188601428Y-111410714D01*
X188639523Y-111334523D01*
X188677619Y-111182142D01*
X188677619Y-110991666D01*
X188639523Y-110839285D01*
X188601428Y-110763095D01*
X188563333Y-110725000D01*
X188487142Y-110686904D01*
X192474761Y-111067857D02*
X192360476Y-111105952D01*
X192322380Y-111144047D01*
X192284285Y-111220238D01*
X192284285Y-111334523D01*
X192322380Y-111410714D01*
X192360476Y-111448809D01*
X192436666Y-111486904D01*
X192741428Y-111486904D01*
X192741428Y-110686904D01*
X192474761Y-110686904D01*
X192398571Y-110725000D01*
X192360476Y-110763095D01*
X192322380Y-110839285D01*
X192322380Y-110915476D01*
X192360476Y-110991666D01*
X192398571Y-111029761D01*
X192474761Y-111067857D01*
X192741428Y-111067857D01*
X191522380Y-111486904D02*
X191979523Y-111486904D01*
X191750952Y-111486904D02*
X191750952Y-110686904D01*
X191827142Y-110801190D01*
X191903333Y-110877380D01*
X191979523Y-110915476D01*
X190760476Y-111486904D02*
X191217619Y-111486904D01*
X190989047Y-111486904D02*
X190989047Y-110686904D01*
X191065238Y-110801190D01*
X191141428Y-110877380D01*
X191217619Y-110915476D01*
X194748095Y-111486904D02*
X195014761Y-111105952D01*
X195205238Y-111486904D02*
X195205238Y-110686904D01*
X194900476Y-110686904D01*
X194824285Y-110725000D01*
X194786190Y-110763095D01*
X194748095Y-110839285D01*
X194748095Y-110953571D01*
X194786190Y-111029761D01*
X194824285Y-111067857D01*
X194900476Y-111105952D01*
X195205238Y-111105952D01*
X194443333Y-111448809D02*
X194329047Y-111486904D01*
X194138571Y-111486904D01*
X194062380Y-111448809D01*
X194024285Y-111410714D01*
X193986190Y-111334523D01*
X193986190Y-111258333D01*
X194024285Y-111182142D01*
X194062380Y-111144047D01*
X194138571Y-111105952D01*
X194290952Y-111067857D01*
X194367142Y-111029761D01*
X194405238Y-110991666D01*
X194443333Y-110915476D01*
X194443333Y-110839285D01*
X194405238Y-110763095D01*
X194367142Y-110725000D01*
X194290952Y-110686904D01*
X194100476Y-110686904D01*
X193986190Y-110725000D01*
X193757619Y-110686904D02*
X193300476Y-110686904D01*
X193529047Y-111486904D02*
X193529047Y-110686904D01*
X197840476Y-110686904D02*
X197345238Y-110686904D01*
X197611904Y-110991666D01*
X197497619Y-110991666D01*
X197421428Y-111029761D01*
X197383333Y-111067857D01*
X197345238Y-111144047D01*
X197345238Y-111334523D01*
X197383333Y-111410714D01*
X197421428Y-111448809D01*
X197497619Y-111486904D01*
X197726190Y-111486904D01*
X197802380Y-111448809D01*
X197840476Y-111410714D01*
X197116666Y-110686904D02*
X196850000Y-111486904D01*
X196583333Y-110686904D01*
X196392857Y-110686904D02*
X195897619Y-110686904D01*
X196164285Y-110991666D01*
X196050000Y-110991666D01*
X195973809Y-111029761D01*
X195935714Y-111067857D01*
X195897619Y-111144047D01*
X195897619Y-111334523D01*
X195935714Y-111410714D01*
X195973809Y-111448809D01*
X196050000Y-111486904D01*
X196278571Y-111486904D01*
X196354761Y-111448809D01*
X196392857Y-111410714D01*
X199999523Y-110725000D02*
X200075714Y-110686904D01*
X200190000Y-110686904D01*
X200304285Y-110725000D01*
X200380476Y-110801190D01*
X200418571Y-110877380D01*
X200456666Y-111029761D01*
X200456666Y-111144047D01*
X200418571Y-111296428D01*
X200380476Y-111372619D01*
X200304285Y-111448809D01*
X200190000Y-111486904D01*
X200113809Y-111486904D01*
X199999523Y-111448809D01*
X199961428Y-111410714D01*
X199961428Y-111144047D01*
X200113809Y-111144047D01*
X199618571Y-111486904D02*
X199618571Y-110686904D01*
X199161428Y-111486904D01*
X199161428Y-110686904D01*
X198780476Y-111486904D02*
X198780476Y-110686904D01*
X198590000Y-110686904D01*
X198475714Y-110725000D01*
X198399523Y-110801190D01*
X198361428Y-110877380D01*
X198323333Y-111029761D01*
X198323333Y-111144047D01*
X198361428Y-111296428D01*
X198399523Y-111372619D01*
X198475714Y-111448809D01*
X198590000Y-111486904D01*
X198780476Y-111486904D01*
X202539523Y-110725000D02*
X202615714Y-110686904D01*
X202730000Y-110686904D01*
X202844285Y-110725000D01*
X202920476Y-110801190D01*
X202958571Y-110877380D01*
X202996666Y-111029761D01*
X202996666Y-111144047D01*
X202958571Y-111296428D01*
X202920476Y-111372619D01*
X202844285Y-111448809D01*
X202730000Y-111486904D01*
X202653809Y-111486904D01*
X202539523Y-111448809D01*
X202501428Y-111410714D01*
X202501428Y-111144047D01*
X202653809Y-111144047D01*
X202158571Y-111486904D02*
X202158571Y-110686904D01*
X201701428Y-111486904D01*
X201701428Y-110686904D01*
X201320476Y-111486904D02*
X201320476Y-110686904D01*
X201130000Y-110686904D01*
X201015714Y-110725000D01*
X200939523Y-110801190D01*
X200901428Y-110877380D01*
X200863333Y-111029761D01*
X200863333Y-111144047D01*
X200901428Y-111296428D01*
X200939523Y-111372619D01*
X201015714Y-111448809D01*
X201130000Y-111486904D01*
X201320476Y-111486904D01*
X154660476Y-91636904D02*
X154165238Y-91636904D01*
X154431904Y-91941666D01*
X154317619Y-91941666D01*
X154241428Y-91979761D01*
X154203333Y-92017857D01*
X154165238Y-92094047D01*
X154165238Y-92284523D01*
X154203333Y-92360714D01*
X154241428Y-92398809D01*
X154317619Y-92436904D01*
X154546190Y-92436904D01*
X154622380Y-92398809D01*
X154660476Y-92360714D01*
X153936666Y-91636904D02*
X153670000Y-92436904D01*
X153403333Y-91636904D01*
X153212857Y-91636904D02*
X152717619Y-91636904D01*
X152984285Y-91941666D01*
X152870000Y-91941666D01*
X152793809Y-91979761D01*
X152755714Y-92017857D01*
X152717619Y-92094047D01*
X152717619Y-92284523D01*
X152755714Y-92360714D01*
X152793809Y-92398809D01*
X152870000Y-92436904D01*
X153098571Y-92436904D01*
X153174761Y-92398809D01*
X153212857Y-92360714D01*
X156819523Y-91675000D02*
X156895714Y-91636904D01*
X157010000Y-91636904D01*
X157124285Y-91675000D01*
X157200476Y-91751190D01*
X157238571Y-91827380D01*
X157276666Y-91979761D01*
X157276666Y-92094047D01*
X157238571Y-92246428D01*
X157200476Y-92322619D01*
X157124285Y-92398809D01*
X157010000Y-92436904D01*
X156933809Y-92436904D01*
X156819523Y-92398809D01*
X156781428Y-92360714D01*
X156781428Y-92094047D01*
X156933809Y-92094047D01*
X156438571Y-92436904D02*
X156438571Y-91636904D01*
X155981428Y-92436904D01*
X155981428Y-91636904D01*
X155600476Y-92436904D02*
X155600476Y-91636904D01*
X155410000Y-91636904D01*
X155295714Y-91675000D01*
X155219523Y-91751190D01*
X155181428Y-91827380D01*
X155143333Y-91979761D01*
X155143333Y-92094047D01*
X155181428Y-92246428D01*
X155219523Y-92322619D01*
X155295714Y-92398809D01*
X155410000Y-92436904D01*
X155600476Y-92436904D01*
X159416666Y-91636904D02*
X159150000Y-92436904D01*
X158883333Y-91636904D01*
X158350000Y-92017857D02*
X158235714Y-92055952D01*
X158197619Y-92094047D01*
X158159523Y-92170238D01*
X158159523Y-92284523D01*
X158197619Y-92360714D01*
X158235714Y-92398809D01*
X158311904Y-92436904D01*
X158616666Y-92436904D01*
X158616666Y-91636904D01*
X158350000Y-91636904D01*
X158273809Y-91675000D01*
X158235714Y-91713095D01*
X158197619Y-91789285D01*
X158197619Y-91865476D01*
X158235714Y-91941666D01*
X158273809Y-91979761D01*
X158350000Y-92017857D01*
X158616666Y-92017857D01*
X161613809Y-92017857D02*
X161499523Y-92055952D01*
X161461428Y-92094047D01*
X161423333Y-92170238D01*
X161423333Y-92284523D01*
X161461428Y-92360714D01*
X161499523Y-92398809D01*
X161575714Y-92436904D01*
X161880476Y-92436904D01*
X161880476Y-91636904D01*
X161613809Y-91636904D01*
X161537619Y-91675000D01*
X161499523Y-91713095D01*
X161461428Y-91789285D01*
X161461428Y-91865476D01*
X161499523Y-91941666D01*
X161537619Y-91979761D01*
X161613809Y-92017857D01*
X161880476Y-92017857D01*
X161042380Y-92436904D02*
X160890000Y-92436904D01*
X160813809Y-92398809D01*
X160775714Y-92360714D01*
X160699523Y-92246428D01*
X160661428Y-92094047D01*
X160661428Y-91789285D01*
X160699523Y-91713095D01*
X160737619Y-91675000D01*
X160813809Y-91636904D01*
X160966190Y-91636904D01*
X161042380Y-91675000D01*
X161080476Y-91713095D01*
X161118571Y-91789285D01*
X161118571Y-91979761D01*
X161080476Y-92055952D01*
X161042380Y-92094047D01*
X160966190Y-92132142D01*
X160813809Y-92132142D01*
X160737619Y-92094047D01*
X160699523Y-92055952D01*
X160661428Y-91979761D01*
X164153809Y-92017857D02*
X164039523Y-92055952D01*
X164001428Y-92094047D01*
X163963333Y-92170238D01*
X163963333Y-92284523D01*
X164001428Y-92360714D01*
X164039523Y-92398809D01*
X164115714Y-92436904D01*
X164420476Y-92436904D01*
X164420476Y-91636904D01*
X164153809Y-91636904D01*
X164077619Y-91675000D01*
X164039523Y-91713095D01*
X164001428Y-91789285D01*
X164001428Y-91865476D01*
X164039523Y-91941666D01*
X164077619Y-91979761D01*
X164153809Y-92017857D01*
X164420476Y-92017857D01*
X163506190Y-91979761D02*
X163582380Y-91941666D01*
X163620476Y-91903571D01*
X163658571Y-91827380D01*
X163658571Y-91789285D01*
X163620476Y-91713095D01*
X163582380Y-91675000D01*
X163506190Y-91636904D01*
X163353809Y-91636904D01*
X163277619Y-91675000D01*
X163239523Y-91713095D01*
X163201428Y-91789285D01*
X163201428Y-91827380D01*
X163239523Y-91903571D01*
X163277619Y-91941666D01*
X163353809Y-91979761D01*
X163506190Y-91979761D01*
X163582380Y-92017857D01*
X163620476Y-92055952D01*
X163658571Y-92132142D01*
X163658571Y-92284523D01*
X163620476Y-92360714D01*
X163582380Y-92398809D01*
X163506190Y-92436904D01*
X163353809Y-92436904D01*
X163277619Y-92398809D01*
X163239523Y-92360714D01*
X163201428Y-92284523D01*
X163201428Y-92132142D01*
X163239523Y-92055952D01*
X163277619Y-92017857D01*
X163353809Y-91979761D01*
X166693809Y-92017857D02*
X166579523Y-92055952D01*
X166541428Y-92094047D01*
X166503333Y-92170238D01*
X166503333Y-92284523D01*
X166541428Y-92360714D01*
X166579523Y-92398809D01*
X166655714Y-92436904D01*
X166960476Y-92436904D01*
X166960476Y-91636904D01*
X166693809Y-91636904D01*
X166617619Y-91675000D01*
X166579523Y-91713095D01*
X166541428Y-91789285D01*
X166541428Y-91865476D01*
X166579523Y-91941666D01*
X166617619Y-91979761D01*
X166693809Y-92017857D01*
X166960476Y-92017857D01*
X166236666Y-91636904D02*
X165703333Y-91636904D01*
X166046190Y-92436904D01*
X169233809Y-92017857D02*
X169119523Y-92055952D01*
X169081428Y-92094047D01*
X169043333Y-92170238D01*
X169043333Y-92284523D01*
X169081428Y-92360714D01*
X169119523Y-92398809D01*
X169195714Y-92436904D01*
X169500476Y-92436904D01*
X169500476Y-91636904D01*
X169233809Y-91636904D01*
X169157619Y-91675000D01*
X169119523Y-91713095D01*
X169081428Y-91789285D01*
X169081428Y-91865476D01*
X169119523Y-91941666D01*
X169157619Y-91979761D01*
X169233809Y-92017857D01*
X169500476Y-92017857D01*
X168357619Y-91636904D02*
X168510000Y-91636904D01*
X168586190Y-91675000D01*
X168624285Y-91713095D01*
X168700476Y-91827380D01*
X168738571Y-91979761D01*
X168738571Y-92284523D01*
X168700476Y-92360714D01*
X168662380Y-92398809D01*
X168586190Y-92436904D01*
X168433809Y-92436904D01*
X168357619Y-92398809D01*
X168319523Y-92360714D01*
X168281428Y-92284523D01*
X168281428Y-92094047D01*
X168319523Y-92017857D01*
X168357619Y-91979761D01*
X168433809Y-91941666D01*
X168586190Y-91941666D01*
X168662380Y-91979761D01*
X168700476Y-92017857D01*
X168738571Y-92094047D01*
X171773809Y-92017857D02*
X171659523Y-92055952D01*
X171621428Y-92094047D01*
X171583333Y-92170238D01*
X171583333Y-92284523D01*
X171621428Y-92360714D01*
X171659523Y-92398809D01*
X171735714Y-92436904D01*
X172040476Y-92436904D01*
X172040476Y-91636904D01*
X171773809Y-91636904D01*
X171697619Y-91675000D01*
X171659523Y-91713095D01*
X171621428Y-91789285D01*
X171621428Y-91865476D01*
X171659523Y-91941666D01*
X171697619Y-91979761D01*
X171773809Y-92017857D01*
X172040476Y-92017857D01*
X170859523Y-91636904D02*
X171240476Y-91636904D01*
X171278571Y-92017857D01*
X171240476Y-91979761D01*
X171164285Y-91941666D01*
X170973809Y-91941666D01*
X170897619Y-91979761D01*
X170859523Y-92017857D01*
X170821428Y-92094047D01*
X170821428Y-92284523D01*
X170859523Y-92360714D01*
X170897619Y-92398809D01*
X170973809Y-92436904D01*
X171164285Y-92436904D01*
X171240476Y-92398809D01*
X171278571Y-92360714D01*
X174313809Y-92017857D02*
X174199523Y-92055952D01*
X174161428Y-92094047D01*
X174123333Y-92170238D01*
X174123333Y-92284523D01*
X174161428Y-92360714D01*
X174199523Y-92398809D01*
X174275714Y-92436904D01*
X174580476Y-92436904D01*
X174580476Y-91636904D01*
X174313809Y-91636904D01*
X174237619Y-91675000D01*
X174199523Y-91713095D01*
X174161428Y-91789285D01*
X174161428Y-91865476D01*
X174199523Y-91941666D01*
X174237619Y-91979761D01*
X174313809Y-92017857D01*
X174580476Y-92017857D01*
X173437619Y-91903571D02*
X173437619Y-92436904D01*
X173628095Y-91598809D02*
X173818571Y-92170238D01*
X173323333Y-92170238D01*
X176853809Y-92017857D02*
X176739523Y-92055952D01*
X176701428Y-92094047D01*
X176663333Y-92170238D01*
X176663333Y-92284523D01*
X176701428Y-92360714D01*
X176739523Y-92398809D01*
X176815714Y-92436904D01*
X177120476Y-92436904D01*
X177120476Y-91636904D01*
X176853809Y-91636904D01*
X176777619Y-91675000D01*
X176739523Y-91713095D01*
X176701428Y-91789285D01*
X176701428Y-91865476D01*
X176739523Y-91941666D01*
X176777619Y-91979761D01*
X176853809Y-92017857D01*
X177120476Y-92017857D01*
X176396666Y-91636904D02*
X175901428Y-91636904D01*
X176168095Y-91941666D01*
X176053809Y-91941666D01*
X175977619Y-91979761D01*
X175939523Y-92017857D01*
X175901428Y-92094047D01*
X175901428Y-92284523D01*
X175939523Y-92360714D01*
X175977619Y-92398809D01*
X176053809Y-92436904D01*
X176282380Y-92436904D01*
X176358571Y-92398809D01*
X176396666Y-92360714D01*
X180022380Y-92208333D02*
X179641428Y-92208333D01*
X180098571Y-92436904D02*
X179831904Y-91636904D01*
X179565238Y-92436904D01*
X178879523Y-92436904D02*
X179336666Y-92436904D01*
X179108095Y-92436904D02*
X179108095Y-91636904D01*
X179184285Y-91751190D01*
X179260476Y-91827380D01*
X179336666Y-91865476D01*
X178155714Y-91636904D02*
X178536666Y-91636904D01*
X178574761Y-92017857D01*
X178536666Y-91979761D01*
X178460476Y-91941666D01*
X178270000Y-91941666D01*
X178193809Y-91979761D01*
X178155714Y-92017857D01*
X178117619Y-92094047D01*
X178117619Y-92284523D01*
X178155714Y-92360714D01*
X178193809Y-92398809D01*
X178270000Y-92436904D01*
X178460476Y-92436904D01*
X178536666Y-92398809D01*
X178574761Y-92360714D01*
X182562380Y-92208333D02*
X182181428Y-92208333D01*
X182638571Y-92436904D02*
X182371904Y-91636904D01*
X182105238Y-92436904D01*
X181419523Y-92436904D02*
X181876666Y-92436904D01*
X181648095Y-92436904D02*
X181648095Y-91636904D01*
X181724285Y-91751190D01*
X181800476Y-91827380D01*
X181876666Y-91865476D01*
X181114761Y-91713095D02*
X181076666Y-91675000D01*
X181000476Y-91636904D01*
X180810000Y-91636904D01*
X180733809Y-91675000D01*
X180695714Y-91713095D01*
X180657619Y-91789285D01*
X180657619Y-91865476D01*
X180695714Y-91979761D01*
X181152857Y-92436904D01*
X180657619Y-92436904D01*
X185102380Y-92208333D02*
X184721428Y-92208333D01*
X185178571Y-92436904D02*
X184911904Y-91636904D01*
X184645238Y-92436904D01*
X183959523Y-92436904D02*
X184416666Y-92436904D01*
X184188095Y-92436904D02*
X184188095Y-91636904D01*
X184264285Y-91751190D01*
X184340476Y-91827380D01*
X184416666Y-91865476D01*
X183197619Y-92436904D02*
X183654761Y-92436904D01*
X183426190Y-92436904D02*
X183426190Y-91636904D01*
X183502380Y-91751190D01*
X183578571Y-91827380D01*
X183654761Y-91865476D01*
X187642380Y-92208333D02*
X187261428Y-92208333D01*
X187718571Y-92436904D02*
X187451904Y-91636904D01*
X187185238Y-92436904D01*
X186499523Y-92436904D02*
X186956666Y-92436904D01*
X186728095Y-92436904D02*
X186728095Y-91636904D01*
X186804285Y-91751190D01*
X186880476Y-91827380D01*
X186956666Y-91865476D01*
X186004285Y-91636904D02*
X185928095Y-91636904D01*
X185851904Y-91675000D01*
X185813809Y-91713095D01*
X185775714Y-91789285D01*
X185737619Y-91941666D01*
X185737619Y-92132142D01*
X185775714Y-92284523D01*
X185813809Y-92360714D01*
X185851904Y-92398809D01*
X185928095Y-92436904D01*
X186004285Y-92436904D01*
X186080476Y-92398809D01*
X186118571Y-92360714D01*
X186156666Y-92284523D01*
X186194761Y-92132142D01*
X186194761Y-91941666D01*
X186156666Y-91789285D01*
X186118571Y-91713095D01*
X186080476Y-91675000D01*
X186004285Y-91636904D01*
X189801428Y-92208333D02*
X189420476Y-92208333D01*
X189877619Y-92436904D02*
X189610952Y-91636904D01*
X189344285Y-92436904D01*
X189039523Y-92436904D02*
X188887142Y-92436904D01*
X188810952Y-92398809D01*
X188772857Y-92360714D01*
X188696666Y-92246428D01*
X188658571Y-92094047D01*
X188658571Y-91789285D01*
X188696666Y-91713095D01*
X188734761Y-91675000D01*
X188810952Y-91636904D01*
X188963333Y-91636904D01*
X189039523Y-91675000D01*
X189077619Y-91713095D01*
X189115714Y-91789285D01*
X189115714Y-91979761D01*
X189077619Y-92055952D01*
X189039523Y-92094047D01*
X188963333Y-92132142D01*
X188810952Y-92132142D01*
X188734761Y-92094047D01*
X188696666Y-92055952D01*
X188658571Y-91979761D01*
X192341428Y-92208333D02*
X191960476Y-92208333D01*
X192417619Y-92436904D02*
X192150952Y-91636904D01*
X191884285Y-92436904D01*
X191503333Y-91979761D02*
X191579523Y-91941666D01*
X191617619Y-91903571D01*
X191655714Y-91827380D01*
X191655714Y-91789285D01*
X191617619Y-91713095D01*
X191579523Y-91675000D01*
X191503333Y-91636904D01*
X191350952Y-91636904D01*
X191274761Y-91675000D01*
X191236666Y-91713095D01*
X191198571Y-91789285D01*
X191198571Y-91827380D01*
X191236666Y-91903571D01*
X191274761Y-91941666D01*
X191350952Y-91979761D01*
X191503333Y-91979761D01*
X191579523Y-92017857D01*
X191617619Y-92055952D01*
X191655714Y-92132142D01*
X191655714Y-92284523D01*
X191617619Y-92360714D01*
X191579523Y-92398809D01*
X191503333Y-92436904D01*
X191350952Y-92436904D01*
X191274761Y-92398809D01*
X191236666Y-92360714D01*
X191198571Y-92284523D01*
X191198571Y-92132142D01*
X191236666Y-92055952D01*
X191274761Y-92017857D01*
X191350952Y-91979761D01*
X195014761Y-92017857D02*
X194900476Y-92055952D01*
X194862380Y-92094047D01*
X194824285Y-92170238D01*
X194824285Y-92284523D01*
X194862380Y-92360714D01*
X194900476Y-92398809D01*
X194976666Y-92436904D01*
X195281428Y-92436904D01*
X195281428Y-91636904D01*
X195014761Y-91636904D01*
X194938571Y-91675000D01*
X194900476Y-91713095D01*
X194862380Y-91789285D01*
X194862380Y-91865476D01*
X194900476Y-91941666D01*
X194938571Y-91979761D01*
X195014761Y-92017857D01*
X195281428Y-92017857D01*
X194062380Y-92436904D02*
X194519523Y-92436904D01*
X194290952Y-92436904D02*
X194290952Y-91636904D01*
X194367142Y-91751190D01*
X194443333Y-91827380D01*
X194519523Y-91865476D01*
X193338571Y-91636904D02*
X193719523Y-91636904D01*
X193757619Y-92017857D01*
X193719523Y-91979761D01*
X193643333Y-91941666D01*
X193452857Y-91941666D01*
X193376666Y-91979761D01*
X193338571Y-92017857D01*
X193300476Y-92094047D01*
X193300476Y-92284523D01*
X193338571Y-92360714D01*
X193376666Y-92398809D01*
X193452857Y-92436904D01*
X193643333Y-92436904D01*
X193719523Y-92398809D01*
X193757619Y-92360714D01*
X197554761Y-92017857D02*
X197440476Y-92055952D01*
X197402380Y-92094047D01*
X197364285Y-92170238D01*
X197364285Y-92284523D01*
X197402380Y-92360714D01*
X197440476Y-92398809D01*
X197516666Y-92436904D01*
X197821428Y-92436904D01*
X197821428Y-91636904D01*
X197554761Y-91636904D01*
X197478571Y-91675000D01*
X197440476Y-91713095D01*
X197402380Y-91789285D01*
X197402380Y-91865476D01*
X197440476Y-91941666D01*
X197478571Y-91979761D01*
X197554761Y-92017857D01*
X197821428Y-92017857D01*
X196602380Y-92436904D02*
X197059523Y-92436904D01*
X196830952Y-92436904D02*
X196830952Y-91636904D01*
X196907142Y-91751190D01*
X196983333Y-91827380D01*
X197059523Y-91865476D01*
X195916666Y-91903571D02*
X195916666Y-92436904D01*
X196107142Y-91598809D02*
X196297619Y-92170238D01*
X195802380Y-92170238D01*
X200094761Y-92017857D02*
X199980476Y-92055952D01*
X199942380Y-92094047D01*
X199904285Y-92170238D01*
X199904285Y-92284523D01*
X199942380Y-92360714D01*
X199980476Y-92398809D01*
X200056666Y-92436904D01*
X200361428Y-92436904D01*
X200361428Y-91636904D01*
X200094761Y-91636904D01*
X200018571Y-91675000D01*
X199980476Y-91713095D01*
X199942380Y-91789285D01*
X199942380Y-91865476D01*
X199980476Y-91941666D01*
X200018571Y-91979761D01*
X200094761Y-92017857D01*
X200361428Y-92017857D01*
X199142380Y-92436904D02*
X199599523Y-92436904D01*
X199370952Y-92436904D02*
X199370952Y-91636904D01*
X199447142Y-91751190D01*
X199523333Y-91827380D01*
X199599523Y-91865476D01*
X198875714Y-91636904D02*
X198380476Y-91636904D01*
X198647142Y-91941666D01*
X198532857Y-91941666D01*
X198456666Y-91979761D01*
X198418571Y-92017857D01*
X198380476Y-92094047D01*
X198380476Y-92284523D01*
X198418571Y-92360714D01*
X198456666Y-92398809D01*
X198532857Y-92436904D01*
X198761428Y-92436904D01*
X198837619Y-92398809D01*
X198875714Y-92360714D01*
X202634761Y-92017857D02*
X202520476Y-92055952D01*
X202482380Y-92094047D01*
X202444285Y-92170238D01*
X202444285Y-92284523D01*
X202482380Y-92360714D01*
X202520476Y-92398809D01*
X202596666Y-92436904D01*
X202901428Y-92436904D01*
X202901428Y-91636904D01*
X202634761Y-91636904D01*
X202558571Y-91675000D01*
X202520476Y-91713095D01*
X202482380Y-91789285D01*
X202482380Y-91865476D01*
X202520476Y-91941666D01*
X202558571Y-91979761D01*
X202634761Y-92017857D01*
X202901428Y-92017857D01*
X201682380Y-92436904D02*
X202139523Y-92436904D01*
X201910952Y-92436904D02*
X201910952Y-91636904D01*
X201987142Y-91751190D01*
X202063333Y-91827380D01*
X202139523Y-91865476D01*
X201377619Y-91713095D02*
X201339523Y-91675000D01*
X201263333Y-91636904D01*
X201072857Y-91636904D01*
X200996666Y-91675000D01*
X200958571Y-91713095D01*
X200920476Y-91789285D01*
X200920476Y-91865476D01*
X200958571Y-91979761D01*
X201415714Y-92436904D01*
X200920476Y-92436904D01*
X193933214Y-97145000D02*
X194047500Y-97087857D01*
X194218928Y-97087857D01*
X194390357Y-97145000D01*
X194504642Y-97259285D01*
X194561785Y-97373571D01*
X194618928Y-97602142D01*
X194618928Y-97773571D01*
X194561785Y-98002142D01*
X194504642Y-98116428D01*
X194390357Y-98230714D01*
X194218928Y-98287857D01*
X194104642Y-98287857D01*
X193933214Y-98230714D01*
X193876071Y-98173571D01*
X193876071Y-97773571D01*
X194104642Y-97773571D01*
X193361785Y-98287857D02*
X193361785Y-97487857D01*
X193361785Y-97716428D02*
X193304642Y-97602142D01*
X193247500Y-97545000D01*
X193133214Y-97487857D01*
X193018928Y-97487857D01*
X192161785Y-98230714D02*
X192276071Y-98287857D01*
X192504642Y-98287857D01*
X192618928Y-98230714D01*
X192676071Y-98116428D01*
X192676071Y-97659285D01*
X192618928Y-97545000D01*
X192504642Y-97487857D01*
X192276071Y-97487857D01*
X192161785Y-97545000D01*
X192104642Y-97659285D01*
X192104642Y-97773571D01*
X192676071Y-97887857D01*
X191133214Y-98230714D02*
X191247500Y-98287857D01*
X191476071Y-98287857D01*
X191590357Y-98230714D01*
X191647500Y-98116428D01*
X191647500Y-97659285D01*
X191590357Y-97545000D01*
X191476071Y-97487857D01*
X191247500Y-97487857D01*
X191133214Y-97545000D01*
X191076071Y-97659285D01*
X191076071Y-97773571D01*
X191647500Y-97887857D01*
X190561785Y-97487857D02*
X190561785Y-98287857D01*
X190561785Y-97602142D02*
X190504642Y-97545000D01*
X190390357Y-97487857D01*
X190218928Y-97487857D01*
X190104642Y-97545000D01*
X190047500Y-97659285D01*
X190047500Y-98287857D01*
X188561785Y-98287857D02*
X188561785Y-97087857D01*
X188104642Y-97087857D01*
X187990357Y-97145000D01*
X187933214Y-97202142D01*
X187876071Y-97316428D01*
X187876071Y-97487857D01*
X187933214Y-97602142D01*
X187990357Y-97659285D01*
X188104642Y-97716428D01*
X188561785Y-97716428D01*
X187361785Y-98287857D02*
X187361785Y-97487857D01*
X187361785Y-97087857D02*
X187418928Y-97145000D01*
X187361785Y-97202142D01*
X187304642Y-97145000D01*
X187361785Y-97087857D01*
X187361785Y-97202142D01*
X186618928Y-98287857D02*
X186733214Y-98230714D01*
X186790357Y-98116428D01*
X186790357Y-97087857D01*
X185990357Y-98287857D02*
X186104642Y-98230714D01*
X186161785Y-98116428D01*
X186161785Y-97087857D01*
X184218928Y-97659285D02*
X184047500Y-97716428D01*
X183990357Y-97773571D01*
X183933214Y-97887857D01*
X183933214Y-98059285D01*
X183990357Y-98173571D01*
X184047500Y-98230714D01*
X184161785Y-98287857D01*
X184618928Y-98287857D01*
X184618928Y-97087857D01*
X184218928Y-97087857D01*
X184104642Y-97145000D01*
X184047500Y-97202142D01*
X183990357Y-97316428D01*
X183990357Y-97430714D01*
X184047500Y-97545000D01*
X184104642Y-97602142D01*
X184218928Y-97659285D01*
X184618928Y-97659285D01*
X183418928Y-98287857D02*
X183418928Y-97487857D01*
X183418928Y-97087857D02*
X183476071Y-97145000D01*
X183418928Y-97202142D01*
X183361785Y-97145000D01*
X183418928Y-97087857D01*
X183418928Y-97202142D01*
X182904642Y-98230714D02*
X182790357Y-98287857D01*
X182561785Y-98287857D01*
X182447500Y-98230714D01*
X182390357Y-98116428D01*
X182390357Y-98059285D01*
X182447500Y-97945000D01*
X182561785Y-97887857D01*
X182733214Y-97887857D01*
X182847500Y-97830714D01*
X182904642Y-97716428D01*
X182904642Y-97659285D01*
X182847500Y-97545000D01*
X182733214Y-97487857D01*
X182561785Y-97487857D01*
X182447500Y-97545000D01*
X181818928Y-98230714D02*
X181818928Y-98287857D01*
X181876071Y-98402142D01*
X181933214Y-98459285D01*
X180390357Y-98287857D02*
X180390357Y-97487857D01*
X180390357Y-97716428D02*
X180333214Y-97602142D01*
X180276071Y-97545000D01*
X180161785Y-97487857D01*
X180047500Y-97487857D01*
X179190357Y-98230714D02*
X179304642Y-98287857D01*
X179533214Y-98287857D01*
X179647500Y-98230714D01*
X179704642Y-98116428D01*
X179704642Y-97659285D01*
X179647500Y-97545000D01*
X179533214Y-97487857D01*
X179304642Y-97487857D01*
X179190357Y-97545000D01*
X179133214Y-97659285D01*
X179133214Y-97773571D01*
X179704642Y-97887857D01*
X178733214Y-97487857D02*
X178447500Y-98287857D01*
X178161785Y-97487857D01*
X177704642Y-98173571D02*
X177647500Y-98230714D01*
X177704642Y-98287857D01*
X177761785Y-98230714D01*
X177704642Y-98173571D01*
X177704642Y-98287857D01*
X175704642Y-98287857D02*
X175704642Y-97659285D01*
X175761785Y-97545000D01*
X175876071Y-97487857D01*
X176104642Y-97487857D01*
X176218928Y-97545000D01*
X175704642Y-98230714D02*
X175818928Y-98287857D01*
X176104642Y-98287857D01*
X176218928Y-98230714D01*
X176276071Y-98116428D01*
X176276071Y-98002142D01*
X176218928Y-97887857D01*
X176104642Y-97830714D01*
X175818928Y-97830714D01*
X175704642Y-97773571D01*
X194618928Y-100180714D02*
X194447500Y-100237857D01*
X194161785Y-100237857D01*
X194047500Y-100180714D01*
X193990357Y-100123571D01*
X193933214Y-100009285D01*
X193933214Y-99895000D01*
X193990357Y-99780714D01*
X194047500Y-99723571D01*
X194161785Y-99666428D01*
X194390357Y-99609285D01*
X194504642Y-99552142D01*
X194561785Y-99495000D01*
X194618928Y-99380714D01*
X194618928Y-99266428D01*
X194561785Y-99152142D01*
X194504642Y-99095000D01*
X194390357Y-99037857D01*
X194104642Y-99037857D01*
X193933214Y-99095000D01*
X193590357Y-99037857D02*
X192904642Y-99037857D01*
X193247500Y-100237857D02*
X193247500Y-99037857D01*
X192504642Y-100237857D02*
X192504642Y-99037857D01*
X192104642Y-99895000D01*
X191704642Y-99037857D01*
X191704642Y-100237857D01*
X191247500Y-99037857D02*
X190504642Y-99037857D01*
X190904642Y-99495000D01*
X190733214Y-99495000D01*
X190618928Y-99552142D01*
X190561785Y-99609285D01*
X190504642Y-99723571D01*
X190504642Y-100009285D01*
X190561785Y-100123571D01*
X190618928Y-100180714D01*
X190733214Y-100237857D01*
X191076071Y-100237857D01*
X191190357Y-100180714D01*
X191247500Y-100123571D01*
X190047500Y-99152142D02*
X189990357Y-99095000D01*
X189876071Y-99037857D01*
X189590357Y-99037857D01*
X189476071Y-99095000D01*
X189418928Y-99152142D01*
X189361785Y-99266428D01*
X189361785Y-99380714D01*
X189418928Y-99552142D01*
X190104642Y-100237857D01*
X189361785Y-100237857D01*
X187933214Y-100237857D02*
X187933214Y-99037857D01*
X187647500Y-99037857D01*
X187476071Y-99095000D01*
X187361785Y-99209285D01*
X187304642Y-99323571D01*
X187247500Y-99552142D01*
X187247500Y-99723571D01*
X187304642Y-99952142D01*
X187361785Y-100066428D01*
X187476071Y-100180714D01*
X187647500Y-100237857D01*
X187933214Y-100237857D01*
X186276071Y-100180714D02*
X186390357Y-100237857D01*
X186618928Y-100237857D01*
X186733214Y-100180714D01*
X186790357Y-100066428D01*
X186790357Y-99609285D01*
X186733214Y-99495000D01*
X186618928Y-99437857D01*
X186390357Y-99437857D01*
X186276071Y-99495000D01*
X186218928Y-99609285D01*
X186218928Y-99723571D01*
X186790357Y-99837857D01*
X185818928Y-99437857D02*
X185533214Y-100237857D01*
X185247500Y-99437857D01*
X184333214Y-100180714D02*
X184447500Y-100237857D01*
X184676071Y-100237857D01*
X184790357Y-100180714D01*
X184847500Y-100066428D01*
X184847500Y-99609285D01*
X184790357Y-99495000D01*
X184676071Y-99437857D01*
X184447500Y-99437857D01*
X184333214Y-99495000D01*
X184276071Y-99609285D01*
X184276071Y-99723571D01*
X184847500Y-99837857D01*
X183590357Y-100237857D02*
X183704642Y-100180714D01*
X183761785Y-100066428D01*
X183761785Y-99037857D01*
X182961785Y-100237857D02*
X183076071Y-100180714D01*
X183133214Y-100123571D01*
X183190357Y-100009285D01*
X183190357Y-99666428D01*
X183133214Y-99552142D01*
X183076071Y-99495000D01*
X182961785Y-99437857D01*
X182790357Y-99437857D01*
X182676071Y-99495000D01*
X182618928Y-99552142D01*
X182561785Y-99666428D01*
X182561785Y-100009285D01*
X182618928Y-100123571D01*
X182676071Y-100180714D01*
X182790357Y-100237857D01*
X182961785Y-100237857D01*
X182047500Y-99437857D02*
X182047500Y-100637857D01*
X182047500Y-99495000D02*
X181933214Y-99437857D01*
X181704642Y-99437857D01*
X181590357Y-99495000D01*
X181533214Y-99552142D01*
X181476071Y-99666428D01*
X181476071Y-100009285D01*
X181533214Y-100123571D01*
X181590357Y-100180714D01*
X181704642Y-100237857D01*
X181933214Y-100237857D01*
X182047500Y-100180714D01*
X180961785Y-100237857D02*
X180961785Y-99437857D01*
X180961785Y-99552142D02*
X180904642Y-99495000D01*
X180790357Y-99437857D01*
X180618928Y-99437857D01*
X180504642Y-99495000D01*
X180447500Y-99609285D01*
X180447500Y-100237857D01*
X180447500Y-99609285D02*
X180390357Y-99495000D01*
X180276071Y-99437857D01*
X180104642Y-99437857D01*
X179990357Y-99495000D01*
X179933214Y-99609285D01*
X179933214Y-100237857D01*
X178904642Y-100180714D02*
X179018928Y-100237857D01*
X179247500Y-100237857D01*
X179361785Y-100180714D01*
X179418928Y-100066428D01*
X179418928Y-99609285D01*
X179361785Y-99495000D01*
X179247500Y-99437857D01*
X179018928Y-99437857D01*
X178904642Y-99495000D01*
X178847500Y-99609285D01*
X178847500Y-99723571D01*
X179418928Y-99837857D01*
X178333214Y-99437857D02*
X178333214Y-100237857D01*
X178333214Y-99552142D02*
X178276071Y-99495000D01*
X178161785Y-99437857D01*
X177990357Y-99437857D01*
X177876071Y-99495000D01*
X177818928Y-99609285D01*
X177818928Y-100237857D01*
X177418928Y-99437857D02*
X176961785Y-99437857D01*
X177247500Y-99037857D02*
X177247500Y-100066428D01*
X177190357Y-100180714D01*
X177076071Y-100237857D01*
X176961785Y-100237857D01*
X193590357Y-101273571D02*
X193704642Y-101216428D01*
X193933214Y-101216428D01*
X194047500Y-101273571D01*
X194161785Y-101387857D01*
X194218928Y-101502142D01*
X194218928Y-101730714D01*
X194161785Y-101845000D01*
X194047500Y-101959285D01*
X193933214Y-102016428D01*
X193704642Y-102016428D01*
X193590357Y-101959285D01*
X193818928Y-100816428D02*
X194104642Y-100873571D01*
X194390357Y-101045000D01*
X194561785Y-101330714D01*
X194618928Y-101616428D01*
X194561785Y-101902142D01*
X194390357Y-102187857D01*
X194104642Y-102359285D01*
X193818928Y-102416428D01*
X193533214Y-102359285D01*
X193247500Y-102187857D01*
X193076071Y-101902142D01*
X193018928Y-101616428D01*
X193076071Y-101330714D01*
X193247500Y-101045000D01*
X193533214Y-100873571D01*
X193818928Y-100816428D01*
X191647500Y-101102142D02*
X191590357Y-101045000D01*
X191476071Y-100987857D01*
X191190357Y-100987857D01*
X191076071Y-101045000D01*
X191018928Y-101102142D01*
X190961785Y-101216428D01*
X190961785Y-101330714D01*
X191018928Y-101502142D01*
X191704642Y-102187857D01*
X190961785Y-102187857D01*
X190218928Y-100987857D02*
X190104642Y-100987857D01*
X189990357Y-101045000D01*
X189933214Y-101102142D01*
X189876071Y-101216428D01*
X189818928Y-101445000D01*
X189818928Y-101730714D01*
X189876071Y-101959285D01*
X189933214Y-102073571D01*
X189990357Y-102130714D01*
X190104642Y-102187857D01*
X190218928Y-102187857D01*
X190333214Y-102130714D01*
X190390357Y-102073571D01*
X190447500Y-101959285D01*
X190504642Y-101730714D01*
X190504642Y-101445000D01*
X190447500Y-101216428D01*
X190390357Y-101102142D01*
X190333214Y-101045000D01*
X190218928Y-100987857D01*
X189361785Y-101102142D02*
X189304642Y-101045000D01*
X189190357Y-100987857D01*
X188904642Y-100987857D01*
X188790357Y-101045000D01*
X188733214Y-101102142D01*
X188676071Y-101216428D01*
X188676071Y-101330714D01*
X188733214Y-101502142D01*
X189418928Y-102187857D01*
X188676071Y-102187857D01*
X187933214Y-100987857D02*
X187818928Y-100987857D01*
X187704642Y-101045000D01*
X187647500Y-101102142D01*
X187590357Y-101216428D01*
X187533214Y-101445000D01*
X187533214Y-101730714D01*
X187590357Y-101959285D01*
X187647500Y-102073571D01*
X187704642Y-102130714D01*
X187818928Y-102187857D01*
X187933214Y-102187857D01*
X188047500Y-102130714D01*
X188104642Y-102073571D01*
X188161785Y-101959285D01*
X188218928Y-101730714D01*
X188218928Y-101445000D01*
X188161785Y-101216428D01*
X188104642Y-101102142D01*
X188047500Y-101045000D01*
X187933214Y-100987857D01*
X185533214Y-102187857D02*
X186104642Y-102187857D01*
X186104642Y-100987857D01*
X184618928Y-102187857D02*
X184618928Y-101559285D01*
X184676071Y-101445000D01*
X184790357Y-101387857D01*
X185018928Y-101387857D01*
X185133214Y-101445000D01*
X184618928Y-102130714D02*
X184733214Y-102187857D01*
X185018928Y-102187857D01*
X185133214Y-102130714D01*
X185190357Y-102016428D01*
X185190357Y-101902142D01*
X185133214Y-101787857D01*
X185018928Y-101730714D01*
X184733214Y-101730714D01*
X184618928Y-101673571D01*
X184047500Y-102187857D02*
X184047500Y-101387857D01*
X184047500Y-101616428D02*
X183990357Y-101502142D01*
X183933214Y-101445000D01*
X183818928Y-101387857D01*
X183704642Y-101387857D01*
X183361785Y-102130714D02*
X183247500Y-102187857D01*
X183018928Y-102187857D01*
X182904642Y-102130714D01*
X182847500Y-102016428D01*
X182847500Y-101959285D01*
X182904642Y-101845000D01*
X183018928Y-101787857D01*
X183190357Y-101787857D01*
X183304642Y-101730714D01*
X183361785Y-101616428D01*
X183361785Y-101559285D01*
X183304642Y-101445000D01*
X183190357Y-101387857D01*
X183018928Y-101387857D01*
X182904642Y-101445000D01*
X181018928Y-101559285D02*
X180847500Y-101616428D01*
X180790357Y-101673571D01*
X180733214Y-101787857D01*
X180733214Y-101959285D01*
X180790357Y-102073571D01*
X180847500Y-102130714D01*
X180961785Y-102187857D01*
X181418928Y-102187857D01*
X181418928Y-100987857D01*
X181018928Y-100987857D01*
X180904642Y-101045000D01*
X180847500Y-101102142D01*
X180790357Y-101216428D01*
X180790357Y-101330714D01*
X180847500Y-101445000D01*
X180904642Y-101502142D01*
X181018928Y-101559285D01*
X181418928Y-101559285D01*
X180047500Y-102187857D02*
X180161785Y-102130714D01*
X180218928Y-102073571D01*
X180276071Y-101959285D01*
X180276071Y-101616428D01*
X180218928Y-101502142D01*
X180161785Y-101445000D01*
X180047500Y-101387857D01*
X179876071Y-101387857D01*
X179761785Y-101445000D01*
X179704642Y-101502142D01*
X179647500Y-101616428D01*
X179647500Y-101959285D01*
X179704642Y-102073571D01*
X179761785Y-102130714D01*
X179876071Y-102187857D01*
X180047500Y-102187857D01*
X178676071Y-102130714D02*
X178790357Y-102187857D01*
X179018928Y-102187857D01*
X179133214Y-102130714D01*
X179190357Y-102016428D01*
X179190357Y-101559285D01*
X179133214Y-101445000D01*
X179018928Y-101387857D01*
X178790357Y-101387857D01*
X178676071Y-101445000D01*
X178618928Y-101559285D01*
X178618928Y-101673571D01*
X179190357Y-101787857D01*
X177590357Y-101387857D02*
X177590357Y-102359285D01*
X177647500Y-102473571D01*
X177704642Y-102530714D01*
X177818928Y-102587857D01*
X177990357Y-102587857D01*
X178104642Y-102530714D01*
X177590357Y-102130714D02*
X177704642Y-102187857D01*
X177933214Y-102187857D01*
X178047500Y-102130714D01*
X178104642Y-102073571D01*
X178161785Y-101959285D01*
X178161785Y-101616428D01*
X178104642Y-101502142D01*
X178047500Y-101445000D01*
X177933214Y-101387857D01*
X177704642Y-101387857D01*
X177590357Y-101445000D01*
X177018928Y-102187857D02*
X177018928Y-101387857D01*
X177018928Y-100987857D02*
X177076071Y-101045000D01*
X177018928Y-101102142D01*
X176961785Y-101045000D01*
X177018928Y-100987857D01*
X177018928Y-101102142D01*
X176276071Y-102187857D02*
X176390357Y-102130714D01*
X176447500Y-102016428D01*
X176447500Y-100987857D01*
X175304642Y-102187857D02*
X175304642Y-100987857D01*
X175304642Y-102130714D02*
X175418928Y-102187857D01*
X175647500Y-102187857D01*
X175761785Y-102130714D01*
X175818928Y-102073571D01*
X175876071Y-101959285D01*
X175876071Y-101616428D01*
X175818928Y-101502142D01*
X175761785Y-101445000D01*
X175647500Y-101387857D01*
X175418928Y-101387857D01*
X175304642Y-101445000D01*
X173990357Y-100987857D02*
X173304642Y-100987857D01*
X173647500Y-102187857D02*
X173647500Y-100987857D01*
X172904642Y-102187857D02*
X172904642Y-100987857D01*
X172390357Y-102187857D02*
X172390357Y-101559285D01*
X172447500Y-101445000D01*
X172561785Y-101387857D01*
X172733214Y-101387857D01*
X172847500Y-101445000D01*
X172904642Y-101502142D01*
X171647500Y-102187857D02*
X171761785Y-102130714D01*
X171818928Y-102073571D01*
X171876071Y-101959285D01*
X171876071Y-101616428D01*
X171818928Y-101502142D01*
X171761785Y-101445000D01*
X171647500Y-101387857D01*
X171476071Y-101387857D01*
X171361785Y-101445000D01*
X171304642Y-101502142D01*
X171247500Y-101616428D01*
X171247500Y-101959285D01*
X171304642Y-102073571D01*
X171361785Y-102130714D01*
X171476071Y-102187857D01*
X171647500Y-102187857D01*
X170733214Y-102187857D02*
X170733214Y-101387857D01*
X170733214Y-101502142D02*
X170676071Y-101445000D01*
X170561785Y-101387857D01*
X170390357Y-101387857D01*
X170276071Y-101445000D01*
X170218928Y-101559285D01*
X170218928Y-102187857D01*
X170218928Y-101559285D02*
X170161785Y-101445000D01*
X170047500Y-101387857D01*
X169876071Y-101387857D01*
X169761785Y-101445000D01*
X169704642Y-101559285D01*
X169704642Y-102187857D01*
X169190357Y-102130714D02*
X169076071Y-102187857D01*
X168847500Y-102187857D01*
X168733214Y-102130714D01*
X168676071Y-102016428D01*
X168676071Y-101959285D01*
X168733214Y-101845000D01*
X168847500Y-101787857D01*
X169018928Y-101787857D01*
X169133214Y-101730714D01*
X169190357Y-101616428D01*
X169190357Y-101559285D01*
X169133214Y-101445000D01*
X169018928Y-101387857D01*
X168847500Y-101387857D01*
X168733214Y-101445000D01*
X167704642Y-102130714D02*
X167818928Y-102187857D01*
X168047500Y-102187857D01*
X168161785Y-102130714D01*
X168218928Y-102016428D01*
X168218928Y-101559285D01*
X168161785Y-101445000D01*
X168047500Y-101387857D01*
X167818928Y-101387857D01*
X167704642Y-101445000D01*
X167647500Y-101559285D01*
X167647500Y-101673571D01*
X168218928Y-101787857D01*
X167133214Y-101387857D02*
X167133214Y-102187857D01*
X167133214Y-101502142D02*
X167076071Y-101445000D01*
X166961785Y-101387857D01*
X166790357Y-101387857D01*
X166676071Y-101445000D01*
X166618928Y-101559285D01*
X166618928Y-102187857D01*
D11*
%TO.C,JP1*%
X186720000Y-105340000D02*
X186420000Y-105640000D01*
X187020000Y-105640000D02*
X186420000Y-105640000D01*
X186720000Y-105340000D02*
X187020000Y-105640000D01*
X187470000Y-105140000D02*
X187470000Y-103140000D01*
X183370000Y-105140000D02*
X187470000Y-105140000D01*
X183370000Y-103140000D02*
X183370000Y-105140000D01*
X187470000Y-103140000D02*
X183370000Y-103140000D01*
%TO.C,J3*%
X203260000Y-92650000D02*
X203260000Y-95310000D01*
X154940000Y-92650000D02*
X203260000Y-92650000D01*
X154940000Y-95310000D02*
X203260000Y-95310000D01*
X154940000Y-92650000D02*
X154940000Y-95310000D01*
X153670000Y-92650000D02*
X152340000Y-92650000D01*
X152340000Y-92650000D02*
X152340000Y-93980000D01*
%TO.C,J2*%
X203260000Y-107890000D02*
X203260000Y-110550000D01*
X154940000Y-107890000D02*
X203260000Y-107890000D01*
X154940000Y-110550000D02*
X203260000Y-110550000D01*
X154940000Y-107890000D02*
X154940000Y-110550000D01*
X153670000Y-107890000D02*
X152340000Y-107890000D01*
X152340000Y-107890000D02*
X152340000Y-109220000D01*
%TO.C,JP1*%
D10*
X186253333Y-101792380D02*
X186253333Y-102506666D01*
X186300952Y-102649523D01*
X186396190Y-102744761D01*
X186539047Y-102792380D01*
X186634285Y-102792380D01*
X185777142Y-102792380D02*
X185777142Y-101792380D01*
X185396190Y-101792380D01*
X185300952Y-101840000D01*
X185253333Y-101887619D01*
X185205714Y-101982857D01*
X185205714Y-102125714D01*
X185253333Y-102220952D01*
X185300952Y-102268571D01*
X185396190Y-102316190D01*
X185777142Y-102316190D01*
X184253333Y-102792380D02*
X184824761Y-102792380D01*
X184539047Y-102792380D02*
X184539047Y-101792380D01*
X184634285Y-101935238D01*
X184729523Y-102030476D01*
X184824761Y-102078095D01*
%TD*%
M02*
