M48
; DRILL file {KiCad 5.1.6+dfsg1-1} date Tue Jun 23 10:35:06 2020
; FORMAT={-:-/ absolute / inch / decimal}
; #@! TF.CreationDate,2020-06-23T10:35:06+08:00
; #@! TF.GenerationSoftware,Kicad,Pcbnew,5.1.6+dfsg1-1
; #@! TF.FileFunction,Plated,1,2,PTH
FMAT,2
INCH
T1C0.0138
T2C0.0236
T3C0.0335
T4C0.0394
%
G90
G05
T1
X7.5Y-4.0
X7.5Y-4.05
X7.5Y-4.1
X7.55Y-4.0
X7.55Y-4.05
X7.55Y-4.1
X7.6Y-4.0
X7.6Y-4.05
X7.6Y-4.1
X7.7Y-3.975
X7.7Y-4.025
T3
X7.8674Y-3.9016
X7.8674Y-4.0984
T4
X6.175Y-4.075
X6.175Y-4.175
X6.275Y-4.075
X6.275Y-4.175
X6.375Y-4.075
X6.375Y-4.175
X6.05Y-4.3
X6.15Y-4.3
X6.25Y-4.3
X6.35Y-4.3
X6.45Y-4.3
X6.55Y-4.3
X6.65Y-4.3
X6.75Y-4.3
X6.85Y-4.3
X6.95Y-4.3
X7.05Y-4.3
X7.15Y-4.3
X7.25Y-4.3
X7.35Y-4.3
X7.45Y-4.3
X7.55Y-4.3
X7.65Y-4.3
X7.75Y-4.3
X7.85Y-4.3
X7.95Y-4.3
X6.05Y-3.7
X6.15Y-3.7
X6.25Y-3.7
X6.35Y-3.7
X6.45Y-3.7
X6.55Y-3.7
X6.65Y-3.7
X6.75Y-3.7
X6.85Y-3.7
X6.95Y-3.7
X7.05Y-3.7
X7.15Y-3.7
X7.25Y-3.7
X7.35Y-3.7
X7.45Y-3.7
X7.55Y-3.7
X7.65Y-3.7
X7.75Y-3.7
X7.85Y-3.7
X7.95Y-3.7
X6.025Y-3.85
X6.025Y-3.95
X6.025Y-4.05
X6.025Y-4.15
T2
G00X7.9599Y-3.8622
M15
G01X7.9875Y-3.8622
M16
G05
G00X7.9875Y-4.1378
M15
G01X7.9599Y-4.1378
M16
G05
T0
M30
