%TF.GenerationSoftware,KiCad,Pcbnew,5.1.6+dfsg1-1*%
%TF.CreationDate,2020-07-03T14:15:03+08:00*%
%TF.ProjectId,stm32devmini,73746d33-3264-4657-966d-696e692e6b69,a*%
%TF.SameCoordinates,Original*%
%TF.FileFunction,Legend,Top*%
%TF.FilePolarity,Positive*%
%FSLAX46Y46*%
G04 Gerber Fmt 4.6, Leading zero omitted, Abs format (unit mm)*
G04 Created by KiCad (PCBNEW 5.1.6+dfsg1-1) date 2020-07-03 14:15:03*
%MOMM*%
%LPD*%
G01*
G04 APERTURE LIST*
%ADD10C,0.150000*%
%ADD11C,0.120000*%
G04 APERTURE END LIST*
D10*
X154501904Y-106400476D02*
X154501904Y-105905238D01*
X154806666Y-106171904D01*
X154806666Y-106057619D01*
X154844761Y-105981428D01*
X154882857Y-105943333D01*
X154959047Y-105905238D01*
X155149523Y-105905238D01*
X155225714Y-105943333D01*
X155263809Y-105981428D01*
X155301904Y-106057619D01*
X155301904Y-106286190D01*
X155263809Y-106362380D01*
X155225714Y-106400476D01*
X154501904Y-105676666D02*
X155301904Y-105410000D01*
X154501904Y-105143333D01*
X154501904Y-104952857D02*
X154501904Y-104457619D01*
X154806666Y-104724285D01*
X154806666Y-104610000D01*
X154844761Y-104533809D01*
X154882857Y-104495714D01*
X154959047Y-104457619D01*
X155149523Y-104457619D01*
X155225714Y-104495714D01*
X155263809Y-104533809D01*
X155301904Y-104610000D01*
X155301904Y-104838571D01*
X155263809Y-104914761D01*
X155225714Y-104952857D01*
X155301904Y-103289047D02*
X154501904Y-103289047D01*
X154501904Y-102755714D02*
X154501904Y-102603333D01*
X154540000Y-102527142D01*
X154616190Y-102450952D01*
X154768571Y-102412857D01*
X155035238Y-102412857D01*
X155187619Y-102450952D01*
X155263809Y-102527142D01*
X155301904Y-102603333D01*
X155301904Y-102755714D01*
X155263809Y-102831904D01*
X155187619Y-102908095D01*
X155035238Y-102946190D01*
X154768571Y-102946190D01*
X154616190Y-102908095D01*
X154540000Y-102831904D01*
X154501904Y-102755714D01*
X155225714Y-100806190D02*
X155263809Y-100844285D01*
X155301904Y-100958571D01*
X155301904Y-101034761D01*
X155263809Y-101149047D01*
X155187619Y-101225238D01*
X155111428Y-101263333D01*
X154959047Y-101301428D01*
X154844761Y-101301428D01*
X154692380Y-101263333D01*
X154616190Y-101225238D01*
X154540000Y-101149047D01*
X154501904Y-101034761D01*
X154501904Y-100958571D01*
X154540000Y-100844285D01*
X154578095Y-100806190D01*
X155301904Y-100082380D02*
X155301904Y-100463333D01*
X154501904Y-100463333D01*
X155301904Y-99815714D02*
X154501904Y-99815714D01*
X155301904Y-99358571D02*
X154844761Y-99701428D01*
X154501904Y-99358571D02*
X154959047Y-99815714D01*
X154540000Y-98399523D02*
X154501904Y-98475714D01*
X154501904Y-98590000D01*
X154540000Y-98704285D01*
X154616190Y-98780476D01*
X154692380Y-98818571D01*
X154844761Y-98856666D01*
X154959047Y-98856666D01*
X155111428Y-98818571D01*
X155187619Y-98780476D01*
X155263809Y-98704285D01*
X155301904Y-98590000D01*
X155301904Y-98513809D01*
X155263809Y-98399523D01*
X155225714Y-98361428D01*
X154959047Y-98361428D01*
X154959047Y-98513809D01*
X155301904Y-98018571D02*
X154501904Y-98018571D01*
X155301904Y-97561428D01*
X154501904Y-97561428D01*
X155301904Y-97180476D02*
X154501904Y-97180476D01*
X154501904Y-96990000D01*
X154540000Y-96875714D01*
X154616190Y-96799523D01*
X154692380Y-96761428D01*
X154844761Y-96723333D01*
X154959047Y-96723333D01*
X155111428Y-96761428D01*
X155187619Y-96799523D01*
X155263809Y-96875714D01*
X155301904Y-96990000D01*
X155301904Y-97180476D01*
X163556904Y-105213095D02*
X163175952Y-105479761D01*
X163556904Y-105670238D02*
X162756904Y-105670238D01*
X162756904Y-105365476D01*
X162795000Y-105289285D01*
X162833095Y-105251190D01*
X162909285Y-105213095D01*
X163023571Y-105213095D01*
X163099761Y-105251190D01*
X163137857Y-105289285D01*
X163175952Y-105365476D01*
X163175952Y-105670238D01*
X163518809Y-104908333D02*
X163556904Y-104794047D01*
X163556904Y-104603571D01*
X163518809Y-104527380D01*
X163480714Y-104489285D01*
X163404523Y-104451190D01*
X163328333Y-104451190D01*
X163252142Y-104489285D01*
X163214047Y-104527380D01*
X163175952Y-104603571D01*
X163137857Y-104755952D01*
X163099761Y-104832142D01*
X163061666Y-104870238D01*
X162985476Y-104908333D01*
X162909285Y-104908333D01*
X162833095Y-104870238D01*
X162795000Y-104832142D01*
X162756904Y-104755952D01*
X162756904Y-104565476D01*
X162795000Y-104451190D01*
X162756904Y-104222619D02*
X162756904Y-103765476D01*
X163556904Y-103994047D02*
X162756904Y-103994047D01*
X163137857Y-98748809D02*
X163175952Y-98634523D01*
X163214047Y-98596428D01*
X163290238Y-98558333D01*
X163404523Y-98558333D01*
X163480714Y-98596428D01*
X163518809Y-98634523D01*
X163556904Y-98710714D01*
X163556904Y-99015476D01*
X162756904Y-99015476D01*
X162756904Y-98748809D01*
X162795000Y-98672619D01*
X162833095Y-98634523D01*
X162909285Y-98596428D01*
X162985476Y-98596428D01*
X163061666Y-98634523D01*
X163099761Y-98672619D01*
X163137857Y-98748809D01*
X163137857Y-99015476D01*
X162756904Y-98063095D02*
X162756904Y-97986904D01*
X162795000Y-97910714D01*
X162833095Y-97872619D01*
X162909285Y-97834523D01*
X163061666Y-97796428D01*
X163252142Y-97796428D01*
X163404523Y-97834523D01*
X163480714Y-97872619D01*
X163518809Y-97910714D01*
X163556904Y-97986904D01*
X163556904Y-98063095D01*
X163518809Y-98139285D01*
X163480714Y-98177380D01*
X163404523Y-98215476D01*
X163252142Y-98253571D01*
X163061666Y-98253571D01*
X162909285Y-98215476D01*
X162833095Y-98177380D01*
X162795000Y-98139285D01*
X162756904Y-98063095D01*
X153060476Y-92056000D02*
X152984285Y-92017904D01*
X152870000Y-92017904D01*
X152755714Y-92056000D01*
X152679523Y-92132190D01*
X152641428Y-92208380D01*
X152603333Y-92360761D01*
X152603333Y-92475047D01*
X152641428Y-92627428D01*
X152679523Y-92703619D01*
X152755714Y-92779809D01*
X152870000Y-92817904D01*
X152946190Y-92817904D01*
X153060476Y-92779809D01*
X153098571Y-92741714D01*
X153098571Y-92475047D01*
X152946190Y-92475047D01*
X153441428Y-92817904D02*
X153441428Y-92017904D01*
X153898571Y-92817904D01*
X153898571Y-92017904D01*
X154279523Y-92817904D02*
X154279523Y-92017904D01*
X154470000Y-92017904D01*
X154584285Y-92056000D01*
X154660476Y-92132190D01*
X154698571Y-92208380D01*
X154736666Y-92360761D01*
X154736666Y-92475047D01*
X154698571Y-92627428D01*
X154660476Y-92703619D01*
X154584285Y-92779809D01*
X154470000Y-92817904D01*
X154279523Y-92817904D01*
X155771904Y-92817904D02*
X155505238Y-92436952D01*
X155314761Y-92817904D02*
X155314761Y-92017904D01*
X155619523Y-92017904D01*
X155695714Y-92056000D01*
X155733809Y-92094095D01*
X155771904Y-92170285D01*
X155771904Y-92284571D01*
X155733809Y-92360761D01*
X155695714Y-92398857D01*
X155619523Y-92436952D01*
X155314761Y-92436952D01*
X156076666Y-92779809D02*
X156190952Y-92817904D01*
X156381428Y-92817904D01*
X156457619Y-92779809D01*
X156495714Y-92741714D01*
X156533809Y-92665523D01*
X156533809Y-92589333D01*
X156495714Y-92513142D01*
X156457619Y-92475047D01*
X156381428Y-92436952D01*
X156229047Y-92398857D01*
X156152857Y-92360761D01*
X156114761Y-92322666D01*
X156076666Y-92246476D01*
X156076666Y-92170285D01*
X156114761Y-92094095D01*
X156152857Y-92056000D01*
X156229047Y-92017904D01*
X156419523Y-92017904D01*
X156533809Y-92056000D01*
X156762380Y-92017904D02*
X157219523Y-92017904D01*
X156990952Y-92817904D02*
X156990952Y-92017904D01*
X158007142Y-92398857D02*
X158121428Y-92436952D01*
X158159523Y-92475047D01*
X158197619Y-92551238D01*
X158197619Y-92665523D01*
X158159523Y-92741714D01*
X158121428Y-92779809D01*
X158045238Y-92817904D01*
X157740476Y-92817904D01*
X157740476Y-92017904D01*
X158007142Y-92017904D01*
X158083333Y-92056000D01*
X158121428Y-92094095D01*
X158159523Y-92170285D01*
X158159523Y-92246476D01*
X158121428Y-92322666D01*
X158083333Y-92360761D01*
X158007142Y-92398857D01*
X157740476Y-92398857D01*
X158692857Y-92017904D02*
X158845238Y-92017904D01*
X158921428Y-92056000D01*
X158997619Y-92132190D01*
X159035714Y-92284571D01*
X159035714Y-92551238D01*
X158997619Y-92703619D01*
X158921428Y-92779809D01*
X158845238Y-92817904D01*
X158692857Y-92817904D01*
X158616666Y-92779809D01*
X158540476Y-92703619D01*
X158502380Y-92551238D01*
X158502380Y-92284571D01*
X158540476Y-92132190D01*
X158616666Y-92056000D01*
X158692857Y-92017904D01*
X159530952Y-92017904D02*
X159607142Y-92017904D01*
X159683333Y-92056000D01*
X159721428Y-92094095D01*
X159759523Y-92170285D01*
X159797619Y-92322666D01*
X159797619Y-92513142D01*
X159759523Y-92665523D01*
X159721428Y-92741714D01*
X159683333Y-92779809D01*
X159607142Y-92817904D01*
X159530952Y-92817904D01*
X159454761Y-92779809D01*
X159416666Y-92741714D01*
X159378571Y-92665523D01*
X159340476Y-92513142D01*
X159340476Y-92322666D01*
X159378571Y-92170285D01*
X159416666Y-92094095D01*
X159454761Y-92056000D01*
X159530952Y-92017904D01*
X201320476Y-110598000D02*
X201244285Y-110559904D01*
X201130000Y-110559904D01*
X201015714Y-110598000D01*
X200939523Y-110674190D01*
X200901428Y-110750380D01*
X200863333Y-110902761D01*
X200863333Y-111017047D01*
X200901428Y-111169428D01*
X200939523Y-111245619D01*
X201015714Y-111321809D01*
X201130000Y-111359904D01*
X201206190Y-111359904D01*
X201320476Y-111321809D01*
X201358571Y-111283714D01*
X201358571Y-111017047D01*
X201206190Y-111017047D01*
X201701428Y-111359904D02*
X201701428Y-110559904D01*
X202158571Y-111359904D01*
X202158571Y-110559904D01*
X202539523Y-111359904D02*
X202539523Y-110559904D01*
X202730000Y-110559904D01*
X202844285Y-110598000D01*
X202920476Y-110674190D01*
X202958571Y-110750380D01*
X202996666Y-110902761D01*
X202996666Y-111017047D01*
X202958571Y-111169428D01*
X202920476Y-111245619D01*
X202844285Y-111321809D01*
X202730000Y-111359904D01*
X202539523Y-111359904D01*
X199237619Y-110559904D02*
X198856666Y-110559904D01*
X198818571Y-110940857D01*
X198856666Y-110902761D01*
X198932857Y-110864666D01*
X199123333Y-110864666D01*
X199199523Y-110902761D01*
X199237619Y-110940857D01*
X199275714Y-111017047D01*
X199275714Y-111207523D01*
X199237619Y-111283714D01*
X199199523Y-111321809D01*
X199123333Y-111359904D01*
X198932857Y-111359904D01*
X198856666Y-111321809D01*
X198818571Y-111283714D01*
X199504285Y-110559904D02*
X199770952Y-111359904D01*
X200037619Y-110559904D01*
X195859523Y-110559904D02*
X196354761Y-110559904D01*
X196088095Y-110864666D01*
X196202380Y-110864666D01*
X196278571Y-110902761D01*
X196316666Y-110940857D01*
X196354761Y-111017047D01*
X196354761Y-111207523D01*
X196316666Y-111283714D01*
X196278571Y-111321809D01*
X196202380Y-111359904D01*
X195973809Y-111359904D01*
X195897619Y-111321809D01*
X195859523Y-111283714D01*
X196583333Y-110559904D02*
X196850000Y-111359904D01*
X197116666Y-110559904D01*
X197307142Y-110559904D02*
X197802380Y-110559904D01*
X197535714Y-110864666D01*
X197650000Y-110864666D01*
X197726190Y-110902761D01*
X197764285Y-110940857D01*
X197802380Y-111017047D01*
X197802380Y-111207523D01*
X197764285Y-111283714D01*
X197726190Y-111321809D01*
X197650000Y-111359904D01*
X197421428Y-111359904D01*
X197345238Y-111321809D01*
X197307142Y-111283714D01*
X193605238Y-110940857D02*
X193719523Y-110978952D01*
X193757619Y-111017047D01*
X193795714Y-111093238D01*
X193795714Y-111207523D01*
X193757619Y-111283714D01*
X193719523Y-111321809D01*
X193643333Y-111359904D01*
X193338571Y-111359904D01*
X193338571Y-110559904D01*
X193605238Y-110559904D01*
X193681428Y-110598000D01*
X193719523Y-110636095D01*
X193757619Y-110712285D01*
X193757619Y-110788476D01*
X193719523Y-110864666D01*
X193681428Y-110902761D01*
X193605238Y-110940857D01*
X193338571Y-110940857D01*
X194557619Y-111359904D02*
X194100476Y-111359904D01*
X194329047Y-111359904D02*
X194329047Y-110559904D01*
X194252857Y-110674190D01*
X194176666Y-110750380D01*
X194100476Y-110788476D01*
X195319523Y-111359904D02*
X194862380Y-111359904D01*
X195090952Y-111359904D02*
X195090952Y-110559904D01*
X195014761Y-110674190D01*
X194938571Y-110750380D01*
X194862380Y-110788476D01*
X191065238Y-110940857D02*
X191179523Y-110978952D01*
X191217619Y-111017047D01*
X191255714Y-111093238D01*
X191255714Y-111207523D01*
X191217619Y-111283714D01*
X191179523Y-111321809D01*
X191103333Y-111359904D01*
X190798571Y-111359904D01*
X190798571Y-110559904D01*
X191065238Y-110559904D01*
X191141428Y-110598000D01*
X191179523Y-110636095D01*
X191217619Y-110712285D01*
X191217619Y-110788476D01*
X191179523Y-110864666D01*
X191141428Y-110902761D01*
X191065238Y-110940857D01*
X190798571Y-110940857D01*
X192017619Y-111359904D02*
X191560476Y-111359904D01*
X191789047Y-111359904D02*
X191789047Y-110559904D01*
X191712857Y-110674190D01*
X191636666Y-110750380D01*
X191560476Y-110788476D01*
X192512857Y-110559904D02*
X192589047Y-110559904D01*
X192665238Y-110598000D01*
X192703333Y-110636095D01*
X192741428Y-110712285D01*
X192779523Y-110864666D01*
X192779523Y-111055142D01*
X192741428Y-111207523D01*
X192703333Y-111283714D01*
X192665238Y-111321809D01*
X192589047Y-111359904D01*
X192512857Y-111359904D01*
X192436666Y-111321809D01*
X192398571Y-111283714D01*
X192360476Y-111207523D01*
X192322380Y-111055142D01*
X192322380Y-110864666D01*
X192360476Y-110712285D01*
X192398571Y-110636095D01*
X192436666Y-110598000D01*
X192512857Y-110559904D01*
X188906190Y-110940857D02*
X189020476Y-110978952D01*
X189058571Y-111017047D01*
X189096666Y-111093238D01*
X189096666Y-111207523D01*
X189058571Y-111283714D01*
X189020476Y-111321809D01*
X188944285Y-111359904D01*
X188639523Y-111359904D01*
X188639523Y-110559904D01*
X188906190Y-110559904D01*
X188982380Y-110598000D01*
X189020476Y-110636095D01*
X189058571Y-110712285D01*
X189058571Y-110788476D01*
X189020476Y-110864666D01*
X188982380Y-110902761D01*
X188906190Y-110940857D01*
X188639523Y-110940857D01*
X189401428Y-110636095D02*
X189439523Y-110598000D01*
X189515714Y-110559904D01*
X189706190Y-110559904D01*
X189782380Y-110598000D01*
X189820476Y-110636095D01*
X189858571Y-110712285D01*
X189858571Y-110788476D01*
X189820476Y-110902761D01*
X189363333Y-111359904D01*
X189858571Y-111359904D01*
X186366190Y-110940857D02*
X186480476Y-110978952D01*
X186518571Y-111017047D01*
X186556666Y-111093238D01*
X186556666Y-111207523D01*
X186518571Y-111283714D01*
X186480476Y-111321809D01*
X186404285Y-111359904D01*
X186099523Y-111359904D01*
X186099523Y-110559904D01*
X186366190Y-110559904D01*
X186442380Y-110598000D01*
X186480476Y-110636095D01*
X186518571Y-110712285D01*
X186518571Y-110788476D01*
X186480476Y-110864666D01*
X186442380Y-110902761D01*
X186366190Y-110940857D01*
X186099523Y-110940857D01*
X187318571Y-111359904D02*
X186861428Y-111359904D01*
X187090000Y-111359904D02*
X187090000Y-110559904D01*
X187013809Y-110674190D01*
X186937619Y-110750380D01*
X186861428Y-110788476D01*
X183826190Y-110940857D02*
X183940476Y-110978952D01*
X183978571Y-111017047D01*
X184016666Y-111093238D01*
X184016666Y-111207523D01*
X183978571Y-111283714D01*
X183940476Y-111321809D01*
X183864285Y-111359904D01*
X183559523Y-111359904D01*
X183559523Y-110559904D01*
X183826190Y-110559904D01*
X183902380Y-110598000D01*
X183940476Y-110636095D01*
X183978571Y-110712285D01*
X183978571Y-110788476D01*
X183940476Y-110864666D01*
X183902380Y-110902761D01*
X183826190Y-110940857D01*
X183559523Y-110940857D01*
X184511904Y-110559904D02*
X184588095Y-110559904D01*
X184664285Y-110598000D01*
X184702380Y-110636095D01*
X184740476Y-110712285D01*
X184778571Y-110864666D01*
X184778571Y-111055142D01*
X184740476Y-111207523D01*
X184702380Y-111283714D01*
X184664285Y-111321809D01*
X184588095Y-111359904D01*
X184511904Y-111359904D01*
X184435714Y-111321809D01*
X184397619Y-111283714D01*
X184359523Y-111207523D01*
X184321428Y-111055142D01*
X184321428Y-110864666D01*
X184359523Y-110712285D01*
X184397619Y-110636095D01*
X184435714Y-110598000D01*
X184511904Y-110559904D01*
X181038571Y-111131333D02*
X181419523Y-111131333D01*
X180962380Y-111359904D02*
X181229047Y-110559904D01*
X181495714Y-111359904D01*
X181686190Y-110559904D02*
X182219523Y-110559904D01*
X181876666Y-111359904D01*
X178498571Y-111131333D02*
X178879523Y-111131333D01*
X178422380Y-111359904D02*
X178689047Y-110559904D01*
X178955714Y-111359904D01*
X179565238Y-110559904D02*
X179412857Y-110559904D01*
X179336666Y-110598000D01*
X179298571Y-110636095D01*
X179222380Y-110750380D01*
X179184285Y-110902761D01*
X179184285Y-111207523D01*
X179222380Y-111283714D01*
X179260476Y-111321809D01*
X179336666Y-111359904D01*
X179489047Y-111359904D01*
X179565238Y-111321809D01*
X179603333Y-111283714D01*
X179641428Y-111207523D01*
X179641428Y-111017047D01*
X179603333Y-110940857D01*
X179565238Y-110902761D01*
X179489047Y-110864666D01*
X179336666Y-110864666D01*
X179260476Y-110902761D01*
X179222380Y-110940857D01*
X179184285Y-111017047D01*
X175958571Y-111131333D02*
X176339523Y-111131333D01*
X175882380Y-111359904D02*
X176149047Y-110559904D01*
X176415714Y-111359904D01*
X177063333Y-110559904D02*
X176682380Y-110559904D01*
X176644285Y-110940857D01*
X176682380Y-110902761D01*
X176758571Y-110864666D01*
X176949047Y-110864666D01*
X177025238Y-110902761D01*
X177063333Y-110940857D01*
X177101428Y-111017047D01*
X177101428Y-111207523D01*
X177063333Y-111283714D01*
X177025238Y-111321809D01*
X176949047Y-111359904D01*
X176758571Y-111359904D01*
X176682380Y-111321809D01*
X176644285Y-111283714D01*
X173418571Y-111131333D02*
X173799523Y-111131333D01*
X173342380Y-111359904D02*
X173609047Y-110559904D01*
X173875714Y-111359904D01*
X174485238Y-110826571D02*
X174485238Y-111359904D01*
X174294761Y-110521809D02*
X174104285Y-111093238D01*
X174599523Y-111093238D01*
X170878571Y-111131333D02*
X171259523Y-111131333D01*
X170802380Y-111359904D02*
X171069047Y-110559904D01*
X171335714Y-111359904D01*
X171526190Y-110559904D02*
X172021428Y-110559904D01*
X171754761Y-110864666D01*
X171869047Y-110864666D01*
X171945238Y-110902761D01*
X171983333Y-110940857D01*
X172021428Y-111017047D01*
X172021428Y-111207523D01*
X171983333Y-111283714D01*
X171945238Y-111321809D01*
X171869047Y-111359904D01*
X171640476Y-111359904D01*
X171564285Y-111321809D01*
X171526190Y-111283714D01*
X168338571Y-111131333D02*
X168719523Y-111131333D01*
X168262380Y-111359904D02*
X168529047Y-110559904D01*
X168795714Y-111359904D01*
X169024285Y-110636095D02*
X169062380Y-110598000D01*
X169138571Y-110559904D01*
X169329047Y-110559904D01*
X169405238Y-110598000D01*
X169443333Y-110636095D01*
X169481428Y-110712285D01*
X169481428Y-110788476D01*
X169443333Y-110902761D01*
X168986190Y-111359904D01*
X169481428Y-111359904D01*
X165798571Y-111131333D02*
X166179523Y-111131333D01*
X165722380Y-111359904D02*
X165989047Y-110559904D01*
X166255714Y-111359904D01*
X166941428Y-111359904D02*
X166484285Y-111359904D01*
X166712857Y-111359904D02*
X166712857Y-110559904D01*
X166636666Y-110674190D01*
X166560476Y-110750380D01*
X166484285Y-110788476D01*
X163258571Y-111131333D02*
X163639523Y-111131333D01*
X163182380Y-111359904D02*
X163449047Y-110559904D01*
X163715714Y-111359904D01*
X164134761Y-110559904D02*
X164210952Y-110559904D01*
X164287142Y-110598000D01*
X164325238Y-110636095D01*
X164363333Y-110712285D01*
X164401428Y-110864666D01*
X164401428Y-111055142D01*
X164363333Y-111207523D01*
X164325238Y-111283714D01*
X164287142Y-111321809D01*
X164210952Y-111359904D01*
X164134761Y-111359904D01*
X164058571Y-111321809D01*
X164020476Y-111283714D01*
X163982380Y-111207523D01*
X163944285Y-111055142D01*
X163944285Y-110864666D01*
X163982380Y-110712285D01*
X164020476Y-110636095D01*
X164058571Y-110598000D01*
X164134761Y-110559904D01*
X160775714Y-111283714D02*
X160737619Y-111321809D01*
X160623333Y-111359904D01*
X160547142Y-111359904D01*
X160432857Y-111321809D01*
X160356666Y-111245619D01*
X160318571Y-111169428D01*
X160280476Y-111017047D01*
X160280476Y-110902761D01*
X160318571Y-110750380D01*
X160356666Y-110674190D01*
X160432857Y-110598000D01*
X160547142Y-110559904D01*
X160623333Y-110559904D01*
X160737619Y-110598000D01*
X160775714Y-110636095D01*
X161537619Y-111359904D02*
X161080476Y-111359904D01*
X161309047Y-111359904D02*
X161309047Y-110559904D01*
X161232857Y-110674190D01*
X161156666Y-110750380D01*
X161080476Y-110788476D01*
X162261428Y-110559904D02*
X161880476Y-110559904D01*
X161842380Y-110940857D01*
X161880476Y-110902761D01*
X161956666Y-110864666D01*
X162147142Y-110864666D01*
X162223333Y-110902761D01*
X162261428Y-110940857D01*
X162299523Y-111017047D01*
X162299523Y-111207523D01*
X162261428Y-111283714D01*
X162223333Y-111321809D01*
X162147142Y-111359904D01*
X161956666Y-111359904D01*
X161880476Y-111321809D01*
X161842380Y-111283714D01*
X158235714Y-111283714D02*
X158197619Y-111321809D01*
X158083333Y-111359904D01*
X158007142Y-111359904D01*
X157892857Y-111321809D01*
X157816666Y-111245619D01*
X157778571Y-111169428D01*
X157740476Y-111017047D01*
X157740476Y-110902761D01*
X157778571Y-110750380D01*
X157816666Y-110674190D01*
X157892857Y-110598000D01*
X158007142Y-110559904D01*
X158083333Y-110559904D01*
X158197619Y-110598000D01*
X158235714Y-110636095D01*
X158997619Y-111359904D02*
X158540476Y-111359904D01*
X158769047Y-111359904D02*
X158769047Y-110559904D01*
X158692857Y-110674190D01*
X158616666Y-110750380D01*
X158540476Y-110788476D01*
X159683333Y-110826571D02*
X159683333Y-111359904D01*
X159492857Y-110521809D02*
X159302380Y-111093238D01*
X159797619Y-111093238D01*
X155695714Y-111283714D02*
X155657619Y-111321809D01*
X155543333Y-111359904D01*
X155467142Y-111359904D01*
X155352857Y-111321809D01*
X155276666Y-111245619D01*
X155238571Y-111169428D01*
X155200476Y-111017047D01*
X155200476Y-110902761D01*
X155238571Y-110750380D01*
X155276666Y-110674190D01*
X155352857Y-110598000D01*
X155467142Y-110559904D01*
X155543333Y-110559904D01*
X155657619Y-110598000D01*
X155695714Y-110636095D01*
X156457619Y-111359904D02*
X156000476Y-111359904D01*
X156229047Y-111359904D02*
X156229047Y-110559904D01*
X156152857Y-110674190D01*
X156076666Y-110750380D01*
X156000476Y-110788476D01*
X156724285Y-110559904D02*
X157219523Y-110559904D01*
X156952857Y-110864666D01*
X157067142Y-110864666D01*
X157143333Y-110902761D01*
X157181428Y-110940857D01*
X157219523Y-111017047D01*
X157219523Y-111207523D01*
X157181428Y-111283714D01*
X157143333Y-111321809D01*
X157067142Y-111359904D01*
X156838571Y-111359904D01*
X156762380Y-111321809D01*
X156724285Y-111283714D01*
X153060476Y-110598000D02*
X152984285Y-110559904D01*
X152870000Y-110559904D01*
X152755714Y-110598000D01*
X152679523Y-110674190D01*
X152641428Y-110750380D01*
X152603333Y-110902761D01*
X152603333Y-111017047D01*
X152641428Y-111169428D01*
X152679523Y-111245619D01*
X152755714Y-111321809D01*
X152870000Y-111359904D01*
X152946190Y-111359904D01*
X153060476Y-111321809D01*
X153098571Y-111283714D01*
X153098571Y-111017047D01*
X152946190Y-111017047D01*
X153441428Y-111359904D02*
X153441428Y-110559904D01*
X153898571Y-111359904D01*
X153898571Y-110559904D01*
X154279523Y-111359904D02*
X154279523Y-110559904D01*
X154470000Y-110559904D01*
X154584285Y-110598000D01*
X154660476Y-110674190D01*
X154698571Y-110750380D01*
X154736666Y-110902761D01*
X154736666Y-111017047D01*
X154698571Y-111169428D01*
X154660476Y-111245619D01*
X154584285Y-111321809D01*
X154470000Y-111359904D01*
X154279523Y-111359904D01*
X160966190Y-92398857D02*
X161080476Y-92436952D01*
X161118571Y-92475047D01*
X161156666Y-92551238D01*
X161156666Y-92665523D01*
X161118571Y-92741714D01*
X161080476Y-92779809D01*
X161004285Y-92817904D01*
X160699523Y-92817904D01*
X160699523Y-92017904D01*
X160966190Y-92017904D01*
X161042380Y-92056000D01*
X161080476Y-92094095D01*
X161118571Y-92170285D01*
X161118571Y-92246476D01*
X161080476Y-92322666D01*
X161042380Y-92360761D01*
X160966190Y-92398857D01*
X160699523Y-92398857D01*
X161537619Y-92817904D02*
X161690000Y-92817904D01*
X161766190Y-92779809D01*
X161804285Y-92741714D01*
X161880476Y-92627428D01*
X161918571Y-92475047D01*
X161918571Y-92170285D01*
X161880476Y-92094095D01*
X161842380Y-92056000D01*
X161766190Y-92017904D01*
X161613809Y-92017904D01*
X161537619Y-92056000D01*
X161499523Y-92094095D01*
X161461428Y-92170285D01*
X161461428Y-92360761D01*
X161499523Y-92436952D01*
X161537619Y-92475047D01*
X161613809Y-92513142D01*
X161766190Y-92513142D01*
X161842380Y-92475047D01*
X161880476Y-92436952D01*
X161918571Y-92360761D01*
X163506190Y-92398857D02*
X163620476Y-92436952D01*
X163658571Y-92475047D01*
X163696666Y-92551238D01*
X163696666Y-92665523D01*
X163658571Y-92741714D01*
X163620476Y-92779809D01*
X163544285Y-92817904D01*
X163239523Y-92817904D01*
X163239523Y-92017904D01*
X163506190Y-92017904D01*
X163582380Y-92056000D01*
X163620476Y-92094095D01*
X163658571Y-92170285D01*
X163658571Y-92246476D01*
X163620476Y-92322666D01*
X163582380Y-92360761D01*
X163506190Y-92398857D01*
X163239523Y-92398857D01*
X164153809Y-92360761D02*
X164077619Y-92322666D01*
X164039523Y-92284571D01*
X164001428Y-92208380D01*
X164001428Y-92170285D01*
X164039523Y-92094095D01*
X164077619Y-92056000D01*
X164153809Y-92017904D01*
X164306190Y-92017904D01*
X164382380Y-92056000D01*
X164420476Y-92094095D01*
X164458571Y-92170285D01*
X164458571Y-92208380D01*
X164420476Y-92284571D01*
X164382380Y-92322666D01*
X164306190Y-92360761D01*
X164153809Y-92360761D01*
X164077619Y-92398857D01*
X164039523Y-92436952D01*
X164001428Y-92513142D01*
X164001428Y-92665523D01*
X164039523Y-92741714D01*
X164077619Y-92779809D01*
X164153809Y-92817904D01*
X164306190Y-92817904D01*
X164382380Y-92779809D01*
X164420476Y-92741714D01*
X164458571Y-92665523D01*
X164458571Y-92513142D01*
X164420476Y-92436952D01*
X164382380Y-92398857D01*
X164306190Y-92360761D01*
X166046190Y-92398857D02*
X166160476Y-92436952D01*
X166198571Y-92475047D01*
X166236666Y-92551238D01*
X166236666Y-92665523D01*
X166198571Y-92741714D01*
X166160476Y-92779809D01*
X166084285Y-92817904D01*
X165779523Y-92817904D01*
X165779523Y-92017904D01*
X166046190Y-92017904D01*
X166122380Y-92056000D01*
X166160476Y-92094095D01*
X166198571Y-92170285D01*
X166198571Y-92246476D01*
X166160476Y-92322666D01*
X166122380Y-92360761D01*
X166046190Y-92398857D01*
X165779523Y-92398857D01*
X166503333Y-92017904D02*
X167036666Y-92017904D01*
X166693809Y-92817904D01*
X168586190Y-92398857D02*
X168700476Y-92436952D01*
X168738571Y-92475047D01*
X168776666Y-92551238D01*
X168776666Y-92665523D01*
X168738571Y-92741714D01*
X168700476Y-92779809D01*
X168624285Y-92817904D01*
X168319523Y-92817904D01*
X168319523Y-92017904D01*
X168586190Y-92017904D01*
X168662380Y-92056000D01*
X168700476Y-92094095D01*
X168738571Y-92170285D01*
X168738571Y-92246476D01*
X168700476Y-92322666D01*
X168662380Y-92360761D01*
X168586190Y-92398857D01*
X168319523Y-92398857D01*
X169462380Y-92017904D02*
X169310000Y-92017904D01*
X169233809Y-92056000D01*
X169195714Y-92094095D01*
X169119523Y-92208380D01*
X169081428Y-92360761D01*
X169081428Y-92665523D01*
X169119523Y-92741714D01*
X169157619Y-92779809D01*
X169233809Y-92817904D01*
X169386190Y-92817904D01*
X169462380Y-92779809D01*
X169500476Y-92741714D01*
X169538571Y-92665523D01*
X169538571Y-92475047D01*
X169500476Y-92398857D01*
X169462380Y-92360761D01*
X169386190Y-92322666D01*
X169233809Y-92322666D01*
X169157619Y-92360761D01*
X169119523Y-92398857D01*
X169081428Y-92475047D01*
X171126190Y-92398857D02*
X171240476Y-92436952D01*
X171278571Y-92475047D01*
X171316666Y-92551238D01*
X171316666Y-92665523D01*
X171278571Y-92741714D01*
X171240476Y-92779809D01*
X171164285Y-92817904D01*
X170859523Y-92817904D01*
X170859523Y-92017904D01*
X171126190Y-92017904D01*
X171202380Y-92056000D01*
X171240476Y-92094095D01*
X171278571Y-92170285D01*
X171278571Y-92246476D01*
X171240476Y-92322666D01*
X171202380Y-92360761D01*
X171126190Y-92398857D01*
X170859523Y-92398857D01*
X172040476Y-92017904D02*
X171659523Y-92017904D01*
X171621428Y-92398857D01*
X171659523Y-92360761D01*
X171735714Y-92322666D01*
X171926190Y-92322666D01*
X172002380Y-92360761D01*
X172040476Y-92398857D01*
X172078571Y-92475047D01*
X172078571Y-92665523D01*
X172040476Y-92741714D01*
X172002380Y-92779809D01*
X171926190Y-92817904D01*
X171735714Y-92817904D01*
X171659523Y-92779809D01*
X171621428Y-92741714D01*
X173666190Y-92398857D02*
X173780476Y-92436952D01*
X173818571Y-92475047D01*
X173856666Y-92551238D01*
X173856666Y-92665523D01*
X173818571Y-92741714D01*
X173780476Y-92779809D01*
X173704285Y-92817904D01*
X173399523Y-92817904D01*
X173399523Y-92017904D01*
X173666190Y-92017904D01*
X173742380Y-92056000D01*
X173780476Y-92094095D01*
X173818571Y-92170285D01*
X173818571Y-92246476D01*
X173780476Y-92322666D01*
X173742380Y-92360761D01*
X173666190Y-92398857D01*
X173399523Y-92398857D01*
X174542380Y-92284571D02*
X174542380Y-92817904D01*
X174351904Y-91979809D02*
X174161428Y-92551238D01*
X174656666Y-92551238D01*
X176206190Y-92398857D02*
X176320476Y-92436952D01*
X176358571Y-92475047D01*
X176396666Y-92551238D01*
X176396666Y-92665523D01*
X176358571Y-92741714D01*
X176320476Y-92779809D01*
X176244285Y-92817904D01*
X175939523Y-92817904D01*
X175939523Y-92017904D01*
X176206190Y-92017904D01*
X176282380Y-92056000D01*
X176320476Y-92094095D01*
X176358571Y-92170285D01*
X176358571Y-92246476D01*
X176320476Y-92322666D01*
X176282380Y-92360761D01*
X176206190Y-92398857D01*
X175939523Y-92398857D01*
X176663333Y-92017904D02*
X177158571Y-92017904D01*
X176891904Y-92322666D01*
X177006190Y-92322666D01*
X177082380Y-92360761D01*
X177120476Y-92398857D01*
X177158571Y-92475047D01*
X177158571Y-92665523D01*
X177120476Y-92741714D01*
X177082380Y-92779809D01*
X177006190Y-92817904D01*
X176777619Y-92817904D01*
X176701428Y-92779809D01*
X176663333Y-92741714D01*
X178117619Y-92589333D02*
X178498571Y-92589333D01*
X178041428Y-92817904D02*
X178308095Y-92017904D01*
X178574761Y-92817904D01*
X179260476Y-92817904D02*
X178803333Y-92817904D01*
X179031904Y-92817904D02*
X179031904Y-92017904D01*
X178955714Y-92132190D01*
X178879523Y-92208380D01*
X178803333Y-92246476D01*
X179984285Y-92017904D02*
X179603333Y-92017904D01*
X179565238Y-92398857D01*
X179603333Y-92360761D01*
X179679523Y-92322666D01*
X179870000Y-92322666D01*
X179946190Y-92360761D01*
X179984285Y-92398857D01*
X180022380Y-92475047D01*
X180022380Y-92665523D01*
X179984285Y-92741714D01*
X179946190Y-92779809D01*
X179870000Y-92817904D01*
X179679523Y-92817904D01*
X179603333Y-92779809D01*
X179565238Y-92741714D01*
X180657619Y-92589333D02*
X181038571Y-92589333D01*
X180581428Y-92817904D02*
X180848095Y-92017904D01*
X181114761Y-92817904D01*
X181800476Y-92817904D02*
X181343333Y-92817904D01*
X181571904Y-92817904D02*
X181571904Y-92017904D01*
X181495714Y-92132190D01*
X181419523Y-92208380D01*
X181343333Y-92246476D01*
X182105238Y-92094095D02*
X182143333Y-92056000D01*
X182219523Y-92017904D01*
X182410000Y-92017904D01*
X182486190Y-92056000D01*
X182524285Y-92094095D01*
X182562380Y-92170285D01*
X182562380Y-92246476D01*
X182524285Y-92360761D01*
X182067142Y-92817904D01*
X182562380Y-92817904D01*
X183197619Y-92589333D02*
X183578571Y-92589333D01*
X183121428Y-92817904D02*
X183388095Y-92017904D01*
X183654761Y-92817904D01*
X184340476Y-92817904D02*
X183883333Y-92817904D01*
X184111904Y-92817904D02*
X184111904Y-92017904D01*
X184035714Y-92132190D01*
X183959523Y-92208380D01*
X183883333Y-92246476D01*
X185102380Y-92817904D02*
X184645238Y-92817904D01*
X184873809Y-92817904D02*
X184873809Y-92017904D01*
X184797619Y-92132190D01*
X184721428Y-92208380D01*
X184645238Y-92246476D01*
X185737619Y-92589333D02*
X186118571Y-92589333D01*
X185661428Y-92817904D02*
X185928095Y-92017904D01*
X186194761Y-92817904D01*
X186880476Y-92817904D02*
X186423333Y-92817904D01*
X186651904Y-92817904D02*
X186651904Y-92017904D01*
X186575714Y-92132190D01*
X186499523Y-92208380D01*
X186423333Y-92246476D01*
X187375714Y-92017904D02*
X187451904Y-92017904D01*
X187528095Y-92056000D01*
X187566190Y-92094095D01*
X187604285Y-92170285D01*
X187642380Y-92322666D01*
X187642380Y-92513142D01*
X187604285Y-92665523D01*
X187566190Y-92741714D01*
X187528095Y-92779809D01*
X187451904Y-92817904D01*
X187375714Y-92817904D01*
X187299523Y-92779809D01*
X187261428Y-92741714D01*
X187223333Y-92665523D01*
X187185238Y-92513142D01*
X187185238Y-92322666D01*
X187223333Y-92170285D01*
X187261428Y-92094095D01*
X187299523Y-92056000D01*
X187375714Y-92017904D01*
X188658571Y-92589333D02*
X189039523Y-92589333D01*
X188582380Y-92817904D02*
X188849047Y-92017904D01*
X189115714Y-92817904D01*
X189420476Y-92817904D02*
X189572857Y-92817904D01*
X189649047Y-92779809D01*
X189687142Y-92741714D01*
X189763333Y-92627428D01*
X189801428Y-92475047D01*
X189801428Y-92170285D01*
X189763333Y-92094095D01*
X189725238Y-92056000D01*
X189649047Y-92017904D01*
X189496666Y-92017904D01*
X189420476Y-92056000D01*
X189382380Y-92094095D01*
X189344285Y-92170285D01*
X189344285Y-92360761D01*
X189382380Y-92436952D01*
X189420476Y-92475047D01*
X189496666Y-92513142D01*
X189649047Y-92513142D01*
X189725238Y-92475047D01*
X189763333Y-92436952D01*
X189801428Y-92360761D01*
X201225238Y-92398857D02*
X201339523Y-92436952D01*
X201377619Y-92475047D01*
X201415714Y-92551238D01*
X201415714Y-92665523D01*
X201377619Y-92741714D01*
X201339523Y-92779809D01*
X201263333Y-92817904D01*
X200958571Y-92817904D01*
X200958571Y-92017904D01*
X201225238Y-92017904D01*
X201301428Y-92056000D01*
X201339523Y-92094095D01*
X201377619Y-92170285D01*
X201377619Y-92246476D01*
X201339523Y-92322666D01*
X201301428Y-92360761D01*
X201225238Y-92398857D01*
X200958571Y-92398857D01*
X202177619Y-92817904D02*
X201720476Y-92817904D01*
X201949047Y-92817904D02*
X201949047Y-92017904D01*
X201872857Y-92132190D01*
X201796666Y-92208380D01*
X201720476Y-92246476D01*
X202482380Y-92094095D02*
X202520476Y-92056000D01*
X202596666Y-92017904D01*
X202787142Y-92017904D01*
X202863333Y-92056000D01*
X202901428Y-92094095D01*
X202939523Y-92170285D01*
X202939523Y-92246476D01*
X202901428Y-92360761D01*
X202444285Y-92817904D01*
X202939523Y-92817904D01*
X198685238Y-92398857D02*
X198799523Y-92436952D01*
X198837619Y-92475047D01*
X198875714Y-92551238D01*
X198875714Y-92665523D01*
X198837619Y-92741714D01*
X198799523Y-92779809D01*
X198723333Y-92817904D01*
X198418571Y-92817904D01*
X198418571Y-92017904D01*
X198685238Y-92017904D01*
X198761428Y-92056000D01*
X198799523Y-92094095D01*
X198837619Y-92170285D01*
X198837619Y-92246476D01*
X198799523Y-92322666D01*
X198761428Y-92360761D01*
X198685238Y-92398857D01*
X198418571Y-92398857D01*
X199637619Y-92817904D02*
X199180476Y-92817904D01*
X199409047Y-92817904D02*
X199409047Y-92017904D01*
X199332857Y-92132190D01*
X199256666Y-92208380D01*
X199180476Y-92246476D01*
X199904285Y-92017904D02*
X200399523Y-92017904D01*
X200132857Y-92322666D01*
X200247142Y-92322666D01*
X200323333Y-92360761D01*
X200361428Y-92398857D01*
X200399523Y-92475047D01*
X200399523Y-92665523D01*
X200361428Y-92741714D01*
X200323333Y-92779809D01*
X200247142Y-92817904D01*
X200018571Y-92817904D01*
X199942380Y-92779809D01*
X199904285Y-92741714D01*
X196145238Y-92398857D02*
X196259523Y-92436952D01*
X196297619Y-92475047D01*
X196335714Y-92551238D01*
X196335714Y-92665523D01*
X196297619Y-92741714D01*
X196259523Y-92779809D01*
X196183333Y-92817904D01*
X195878571Y-92817904D01*
X195878571Y-92017904D01*
X196145238Y-92017904D01*
X196221428Y-92056000D01*
X196259523Y-92094095D01*
X196297619Y-92170285D01*
X196297619Y-92246476D01*
X196259523Y-92322666D01*
X196221428Y-92360761D01*
X196145238Y-92398857D01*
X195878571Y-92398857D01*
X197097619Y-92817904D02*
X196640476Y-92817904D01*
X196869047Y-92817904D02*
X196869047Y-92017904D01*
X196792857Y-92132190D01*
X196716666Y-92208380D01*
X196640476Y-92246476D01*
X197783333Y-92284571D02*
X197783333Y-92817904D01*
X197592857Y-91979809D02*
X197402380Y-92551238D01*
X197897619Y-92551238D01*
X193605238Y-92398857D02*
X193719523Y-92436952D01*
X193757619Y-92475047D01*
X193795714Y-92551238D01*
X193795714Y-92665523D01*
X193757619Y-92741714D01*
X193719523Y-92779809D01*
X193643333Y-92817904D01*
X193338571Y-92817904D01*
X193338571Y-92017904D01*
X193605238Y-92017904D01*
X193681428Y-92056000D01*
X193719523Y-92094095D01*
X193757619Y-92170285D01*
X193757619Y-92246476D01*
X193719523Y-92322666D01*
X193681428Y-92360761D01*
X193605238Y-92398857D01*
X193338571Y-92398857D01*
X194557619Y-92817904D02*
X194100476Y-92817904D01*
X194329047Y-92817904D02*
X194329047Y-92017904D01*
X194252857Y-92132190D01*
X194176666Y-92208380D01*
X194100476Y-92246476D01*
X195281428Y-92017904D02*
X194900476Y-92017904D01*
X194862380Y-92398857D01*
X194900476Y-92360761D01*
X194976666Y-92322666D01*
X195167142Y-92322666D01*
X195243333Y-92360761D01*
X195281428Y-92398857D01*
X195319523Y-92475047D01*
X195319523Y-92665523D01*
X195281428Y-92741714D01*
X195243333Y-92779809D01*
X195167142Y-92817904D01*
X194976666Y-92817904D01*
X194900476Y-92779809D01*
X194862380Y-92741714D01*
X191198571Y-92589333D02*
X191579523Y-92589333D01*
X191122380Y-92817904D02*
X191389047Y-92017904D01*
X191655714Y-92817904D01*
X191960476Y-92817904D02*
X192112857Y-92817904D01*
X192189047Y-92779809D01*
X192227142Y-92741714D01*
X192303333Y-92627428D01*
X192341428Y-92475047D01*
X192341428Y-92170285D01*
X192303333Y-92094095D01*
X192265238Y-92056000D01*
X192189047Y-92017904D01*
X192036666Y-92017904D01*
X191960476Y-92056000D01*
X191922380Y-92094095D01*
X191884285Y-92170285D01*
X191884285Y-92360761D01*
X191922380Y-92436952D01*
X191960476Y-92475047D01*
X192036666Y-92513142D01*
X192189047Y-92513142D01*
X192265238Y-92475047D01*
X192303333Y-92436952D01*
X192341428Y-92360761D01*
D11*
%TO.C,SW1*%
X161085000Y-102475000D02*
X160635000Y-102025000D01*
X157685000Y-102475000D02*
X158135000Y-102025000D01*
X157685000Y-107075000D02*
X158135000Y-107525000D01*
X161085000Y-107075000D02*
X160635000Y-107525000D01*
X156635000Y-105775000D02*
X156635000Y-103775000D01*
X160635000Y-102025000D02*
X158135000Y-102025000D01*
X162135000Y-105775000D02*
X162135000Y-103775000D01*
X160635000Y-107525000D02*
X158135000Y-107525000D01*
%TO.C,SW2*%
X161085000Y-96125000D02*
X160635000Y-95675000D01*
X157685000Y-96125000D02*
X158135000Y-95675000D01*
X157685000Y-100725000D02*
X158135000Y-101175000D01*
X161085000Y-100725000D02*
X160635000Y-101175000D01*
X156635000Y-99425000D02*
X156635000Y-97425000D01*
X160635000Y-95675000D02*
X158135000Y-95675000D01*
X162135000Y-99425000D02*
X162135000Y-97425000D01*
X160635000Y-101175000D02*
X158135000Y-101175000D01*
%TO.C,U1*%
X189555000Y-106170000D02*
X190485000Y-106170000D01*
X192715000Y-106170000D02*
X191785000Y-106170000D01*
X192715000Y-106170000D02*
X192715000Y-104010000D01*
X189555000Y-106170000D02*
X189555000Y-104710000D01*
%TO.C,U2*%
X183857113Y-101918198D02*
X184175311Y-101600000D01*
X184175311Y-101600000D02*
X183857113Y-101281802D01*
X179388198Y-106387113D02*
X179070000Y-106705311D01*
X179070000Y-106705311D02*
X178751802Y-106387113D01*
X178751802Y-96812887D02*
X179070000Y-96494689D01*
X179070000Y-96494689D02*
X179388198Y-96812887D01*
X174282887Y-101281802D02*
X173964689Y-101600000D01*
X173964689Y-101600000D02*
X174282887Y-101918198D01*
X174282887Y-101918198D02*
X173370719Y-102830366D01*
%TO.C,Y2*%
X170860000Y-99960000D02*
X170860000Y-98160000D01*
X169460000Y-98110000D02*
X168360000Y-98110000D01*
X169460000Y-100010000D02*
X168360000Y-100010000D01*
%TO.C,Y1*%
X167110000Y-100940000D02*
X167110000Y-106840000D01*
X170710000Y-100940000D02*
X167110000Y-100940000D01*
X170710000Y-106840000D02*
X170710000Y-100940000D01*
%TO.C,D3*%
X189650000Y-102970000D02*
X191935000Y-102970000D01*
X189650000Y-101500000D02*
X189650000Y-102970000D01*
X191935000Y-101500000D02*
X189650000Y-101500000D01*
%TO.C,D2*%
X189650000Y-100430000D02*
X191935000Y-100430000D01*
X189650000Y-98960000D02*
X189650000Y-100430000D01*
X191935000Y-98960000D02*
X189650000Y-98960000D01*
%TO.C,J4*%
X151595000Y-106740000D02*
X151595000Y-96460000D01*
X151595000Y-96460000D02*
X148935000Y-96460000D01*
X148935000Y-96460000D02*
X148935000Y-106740000D01*
X148935000Y-106740000D02*
X151595000Y-106740000D01*
X148935000Y-105790000D02*
X142935000Y-105790000D01*
X142935000Y-105790000D02*
X142935000Y-105030000D01*
X142935000Y-105030000D02*
X148935000Y-105030000D01*
X148935000Y-105730000D02*
X142935000Y-105730000D01*
X148935000Y-105610000D02*
X142935000Y-105610000D01*
X148935000Y-105490000D02*
X142935000Y-105490000D01*
X148935000Y-105370000D02*
X142935000Y-105370000D01*
X148935000Y-105250000D02*
X142935000Y-105250000D01*
X148935000Y-105130000D02*
X142935000Y-105130000D01*
X151925000Y-105790000D02*
X151595000Y-105790000D01*
X151925000Y-105030000D02*
X151595000Y-105030000D01*
X151595000Y-104140000D02*
X148935000Y-104140000D01*
X148935000Y-103250000D02*
X142935000Y-103250000D01*
X142935000Y-103250000D02*
X142935000Y-102490000D01*
X142935000Y-102490000D02*
X148935000Y-102490000D01*
X151992071Y-103250000D02*
X151595000Y-103250000D01*
X151992071Y-102490000D02*
X151595000Y-102490000D01*
X151595000Y-101600000D02*
X148935000Y-101600000D01*
X148935000Y-100710000D02*
X142935000Y-100710000D01*
X142935000Y-100710000D02*
X142935000Y-99950000D01*
X142935000Y-99950000D02*
X148935000Y-99950000D01*
X151992071Y-100710000D02*
X151595000Y-100710000D01*
X151992071Y-99950000D02*
X151595000Y-99950000D01*
X151595000Y-99060000D02*
X148935000Y-99060000D01*
X148935000Y-98170000D02*
X142935000Y-98170000D01*
X142935000Y-98170000D02*
X142935000Y-97410000D01*
X142935000Y-97410000D02*
X148935000Y-97410000D01*
X151992071Y-98170000D02*
X151595000Y-98170000D01*
X151992071Y-97410000D02*
X151595000Y-97410000D01*
X154305000Y-105410000D02*
X154305000Y-106680000D01*
X154305000Y-106680000D02*
X153035000Y-106680000D01*
%TO.C,D1*%
X193310000Y-103215000D02*
X195310000Y-103215000D01*
X195310000Y-103215000D02*
X195310000Y-99315000D01*
X193310000Y-103215000D02*
X193310000Y-99315000D01*
%TO.C,C2*%
X188670000Y-105151422D02*
X188670000Y-105668578D01*
X187250000Y-105151422D02*
X187250000Y-105668578D01*
%TO.C,C1*%
X193600000Y-105668578D02*
X193600000Y-105151422D01*
X195020000Y-105668578D02*
X195020000Y-105151422D01*
%TO.C,R3*%
D10*
X202431666Y-103231904D02*
X202165000Y-102850952D01*
X201974523Y-103231904D02*
X201974523Y-102431904D01*
X202279285Y-102431904D01*
X202355476Y-102470000D01*
X202393571Y-102508095D01*
X202431666Y-102584285D01*
X202431666Y-102698571D01*
X202393571Y-102774761D01*
X202355476Y-102812857D01*
X202279285Y-102850952D01*
X201974523Y-102850952D01*
X202698333Y-102431904D02*
X203193571Y-102431904D01*
X202926904Y-102736666D01*
X203041190Y-102736666D01*
X203117380Y-102774761D01*
X203155476Y-102812857D01*
X203193571Y-102889047D01*
X203193571Y-103079523D01*
X203155476Y-103155714D01*
X203117380Y-103193809D01*
X203041190Y-103231904D01*
X202812619Y-103231904D01*
X202736428Y-103193809D01*
X202698333Y-103155714D01*
%TO.C,R2*%
X202431666Y-101961904D02*
X202165000Y-101580952D01*
X201974523Y-101961904D02*
X201974523Y-101161904D01*
X202279285Y-101161904D01*
X202355476Y-101200000D01*
X202393571Y-101238095D01*
X202431666Y-101314285D01*
X202431666Y-101428571D01*
X202393571Y-101504761D01*
X202355476Y-101542857D01*
X202279285Y-101580952D01*
X201974523Y-101580952D01*
X202736428Y-101238095D02*
X202774523Y-101200000D01*
X202850714Y-101161904D01*
X203041190Y-101161904D01*
X203117380Y-101200000D01*
X203155476Y-101238095D01*
X203193571Y-101314285D01*
X203193571Y-101390476D01*
X203155476Y-101504761D01*
X202698333Y-101961904D01*
X203193571Y-101961904D01*
%TO.C,R1*%
X202431666Y-100691904D02*
X202165000Y-100310952D01*
X201974523Y-100691904D02*
X201974523Y-99891904D01*
X202279285Y-99891904D01*
X202355476Y-99930000D01*
X202393571Y-99968095D01*
X202431666Y-100044285D01*
X202431666Y-100158571D01*
X202393571Y-100234761D01*
X202355476Y-100272857D01*
X202279285Y-100310952D01*
X201974523Y-100310952D01*
X203193571Y-100691904D02*
X202736428Y-100691904D01*
X202965000Y-100691904D02*
X202965000Y-99891904D01*
X202888809Y-100006190D01*
X202812619Y-100082380D01*
X202736428Y-100120476D01*
%TO.C,SW1*%
X158318333Y-105098809D02*
X158432619Y-105136904D01*
X158623095Y-105136904D01*
X158699285Y-105098809D01*
X158737380Y-105060714D01*
X158775476Y-104984523D01*
X158775476Y-104908333D01*
X158737380Y-104832142D01*
X158699285Y-104794047D01*
X158623095Y-104755952D01*
X158470714Y-104717857D01*
X158394523Y-104679761D01*
X158356428Y-104641666D01*
X158318333Y-104565476D01*
X158318333Y-104489285D01*
X158356428Y-104413095D01*
X158394523Y-104375000D01*
X158470714Y-104336904D01*
X158661190Y-104336904D01*
X158775476Y-104375000D01*
X159042142Y-104336904D02*
X159232619Y-105136904D01*
X159385000Y-104565476D01*
X159537380Y-105136904D01*
X159727857Y-104336904D01*
X160451666Y-105136904D02*
X159994523Y-105136904D01*
X160223095Y-105136904D02*
X160223095Y-104336904D01*
X160146904Y-104451190D01*
X160070714Y-104527380D01*
X159994523Y-104565476D01*
%TO.C,SW2*%
X158318333Y-98748809D02*
X158432619Y-98786904D01*
X158623095Y-98786904D01*
X158699285Y-98748809D01*
X158737380Y-98710714D01*
X158775476Y-98634523D01*
X158775476Y-98558333D01*
X158737380Y-98482142D01*
X158699285Y-98444047D01*
X158623095Y-98405952D01*
X158470714Y-98367857D01*
X158394523Y-98329761D01*
X158356428Y-98291666D01*
X158318333Y-98215476D01*
X158318333Y-98139285D01*
X158356428Y-98063095D01*
X158394523Y-98025000D01*
X158470714Y-97986904D01*
X158661190Y-97986904D01*
X158775476Y-98025000D01*
X159042142Y-97986904D02*
X159232619Y-98786904D01*
X159385000Y-98215476D01*
X159537380Y-98786904D01*
X159727857Y-97986904D01*
X159994523Y-98063095D02*
X160032619Y-98025000D01*
X160108809Y-97986904D01*
X160299285Y-97986904D01*
X160375476Y-98025000D01*
X160413571Y-98063095D01*
X160451666Y-98139285D01*
X160451666Y-98215476D01*
X160413571Y-98329761D01*
X159956428Y-98786904D01*
X160451666Y-98786904D01*
%TO.C,U1*%
X189426904Y-107924523D02*
X190074523Y-107924523D01*
X190150714Y-107886428D01*
X190188809Y-107848333D01*
X190226904Y-107772142D01*
X190226904Y-107619761D01*
X190188809Y-107543571D01*
X190150714Y-107505476D01*
X190074523Y-107467380D01*
X189426904Y-107467380D01*
X190226904Y-106667380D02*
X190226904Y-107124523D01*
X190226904Y-106895952D02*
X189426904Y-106895952D01*
X189541190Y-106972142D01*
X189617380Y-107048333D01*
X189655476Y-107124523D01*
%TO.C,C4*%
X164750714Y-97288333D02*
X164788809Y-97326428D01*
X164826904Y-97440714D01*
X164826904Y-97516904D01*
X164788809Y-97631190D01*
X164712619Y-97707380D01*
X164636428Y-97745476D01*
X164484047Y-97783571D01*
X164369761Y-97783571D01*
X164217380Y-97745476D01*
X164141190Y-97707380D01*
X164065000Y-97631190D01*
X164026904Y-97516904D01*
X164026904Y-97440714D01*
X164065000Y-97326428D01*
X164103095Y-97288333D01*
X164293571Y-96602619D02*
X164826904Y-96602619D01*
X163988809Y-96793095D02*
X164560238Y-96983571D01*
X164560238Y-96488333D01*
%TO.C,R5*%
X202431666Y-99421904D02*
X202165000Y-99040952D01*
X201974523Y-99421904D02*
X201974523Y-98621904D01*
X202279285Y-98621904D01*
X202355476Y-98660000D01*
X202393571Y-98698095D01*
X202431666Y-98774285D01*
X202431666Y-98888571D01*
X202393571Y-98964761D01*
X202355476Y-99002857D01*
X202279285Y-99040952D01*
X201974523Y-99040952D01*
X203155476Y-98621904D02*
X202774523Y-98621904D01*
X202736428Y-99002857D01*
X202774523Y-98964761D01*
X202850714Y-98926666D01*
X203041190Y-98926666D01*
X203117380Y-98964761D01*
X203155476Y-99002857D01*
X203193571Y-99079047D01*
X203193571Y-99269523D01*
X203155476Y-99345714D01*
X203117380Y-99383809D01*
X203041190Y-99421904D01*
X202850714Y-99421904D01*
X202774523Y-99383809D01*
X202736428Y-99345714D01*
%TO.C,U2*%
X174192646Y-97584643D02*
X174650582Y-98042579D01*
X174731394Y-98069516D01*
X174785269Y-98069516D01*
X174866081Y-98042579D01*
X174973831Y-97934829D01*
X175000768Y-97854017D01*
X175000768Y-97800142D01*
X174973831Y-97719330D01*
X174515895Y-97261394D01*
X174812206Y-97072832D02*
X174812206Y-97018957D01*
X174839144Y-96938145D01*
X174973831Y-96803458D01*
X175054643Y-96776521D01*
X175108518Y-96776521D01*
X175189330Y-96803458D01*
X175243205Y-96857333D01*
X175297079Y-96965083D01*
X175297079Y-97611580D01*
X175647266Y-97261394D01*
%TO.C,C12*%
X166655714Y-97669285D02*
X166693809Y-97707380D01*
X166731904Y-97821666D01*
X166731904Y-97897857D01*
X166693809Y-98012142D01*
X166617619Y-98088333D01*
X166541428Y-98126428D01*
X166389047Y-98164523D01*
X166274761Y-98164523D01*
X166122380Y-98126428D01*
X166046190Y-98088333D01*
X165970000Y-98012142D01*
X165931904Y-97897857D01*
X165931904Y-97821666D01*
X165970000Y-97707380D01*
X166008095Y-97669285D01*
X166731904Y-96907380D02*
X166731904Y-97364523D01*
X166731904Y-97135952D02*
X165931904Y-97135952D01*
X166046190Y-97212142D01*
X166122380Y-97288333D01*
X166160476Y-97364523D01*
X166008095Y-96602619D02*
X165970000Y-96564523D01*
X165931904Y-96488333D01*
X165931904Y-96297857D01*
X165970000Y-96221666D01*
X166008095Y-96183571D01*
X166084285Y-96145476D01*
X166160476Y-96145476D01*
X166274761Y-96183571D01*
X166731904Y-96640714D01*
X166731904Y-96145476D01*
%TO.C,C11*%
X173005714Y-99574285D02*
X173043809Y-99612380D01*
X173081904Y-99726666D01*
X173081904Y-99802857D01*
X173043809Y-99917142D01*
X172967619Y-99993333D01*
X172891428Y-100031428D01*
X172739047Y-100069523D01*
X172624761Y-100069523D01*
X172472380Y-100031428D01*
X172396190Y-99993333D01*
X172320000Y-99917142D01*
X172281904Y-99802857D01*
X172281904Y-99726666D01*
X172320000Y-99612380D01*
X172358095Y-99574285D01*
X173081904Y-98812380D02*
X173081904Y-99269523D01*
X173081904Y-99040952D02*
X172281904Y-99040952D01*
X172396190Y-99117142D01*
X172472380Y-99193333D01*
X172510476Y-99269523D01*
X173081904Y-98050476D02*
X173081904Y-98507619D01*
X173081904Y-98279047D02*
X172281904Y-98279047D01*
X172396190Y-98355238D01*
X172472380Y-98431428D01*
X172510476Y-98507619D01*
%TO.C,Y2*%
X168529047Y-97135952D02*
X168529047Y-97516904D01*
X168262380Y-96716904D02*
X168529047Y-97135952D01*
X168795714Y-96716904D01*
X169024285Y-96793095D02*
X169062380Y-96755000D01*
X169138571Y-96716904D01*
X169329047Y-96716904D01*
X169405238Y-96755000D01*
X169443333Y-96793095D01*
X169481428Y-96869285D01*
X169481428Y-96945476D01*
X169443333Y-97059761D01*
X168986190Y-97516904D01*
X169481428Y-97516904D01*
%TO.C,Y1*%
X168529047Y-107803952D02*
X168529047Y-108184904D01*
X168262380Y-107384904D02*
X168529047Y-107803952D01*
X168795714Y-107384904D01*
X169481428Y-108184904D02*
X169024285Y-108184904D01*
X169252857Y-108184904D02*
X169252857Y-107384904D01*
X169176666Y-107499190D01*
X169100476Y-107575380D01*
X169024285Y-107613476D01*
%TO.C,C7*%
X166655714Y-104273333D02*
X166693809Y-104311428D01*
X166731904Y-104425714D01*
X166731904Y-104501904D01*
X166693809Y-104616190D01*
X166617619Y-104692380D01*
X166541428Y-104730476D01*
X166389047Y-104768571D01*
X166274761Y-104768571D01*
X166122380Y-104730476D01*
X166046190Y-104692380D01*
X165970000Y-104616190D01*
X165931904Y-104501904D01*
X165931904Y-104425714D01*
X165970000Y-104311428D01*
X166008095Y-104273333D01*
X165931904Y-104006666D02*
X165931904Y-103473333D01*
X166731904Y-103816190D01*
%TO.C,C5*%
X165385714Y-101733333D02*
X165423809Y-101771428D01*
X165461904Y-101885714D01*
X165461904Y-101961904D01*
X165423809Y-102076190D01*
X165347619Y-102152380D01*
X165271428Y-102190476D01*
X165119047Y-102228571D01*
X165004761Y-102228571D01*
X164852380Y-102190476D01*
X164776190Y-102152380D01*
X164700000Y-102076190D01*
X164661904Y-101961904D01*
X164661904Y-101885714D01*
X164700000Y-101771428D01*
X164738095Y-101733333D01*
X164661904Y-101009523D02*
X164661904Y-101390476D01*
X165042857Y-101428571D01*
X165004761Y-101390476D01*
X164966666Y-101314285D01*
X164966666Y-101123809D01*
X165004761Y-101047619D01*
X165042857Y-101009523D01*
X165119047Y-100971428D01*
X165309523Y-100971428D01*
X165385714Y-101009523D01*
X165423809Y-101047619D01*
X165461904Y-101123809D01*
X165461904Y-101314285D01*
X165423809Y-101390476D01*
X165385714Y-101428571D01*
%TO.C,R4*%
X202431666Y-104501904D02*
X202165000Y-104120952D01*
X201974523Y-104501904D02*
X201974523Y-103701904D01*
X202279285Y-103701904D01*
X202355476Y-103740000D01*
X202393571Y-103778095D01*
X202431666Y-103854285D01*
X202431666Y-103968571D01*
X202393571Y-104044761D01*
X202355476Y-104082857D01*
X202279285Y-104120952D01*
X201974523Y-104120952D01*
X203117380Y-103968571D02*
X203117380Y-104501904D01*
X202926904Y-103663809D02*
X202736428Y-104235238D01*
X203231666Y-104235238D01*
%TO.C,R7*%
X188461666Y-101326904D02*
X188195000Y-100945952D01*
X188004523Y-101326904D02*
X188004523Y-100526904D01*
X188309285Y-100526904D01*
X188385476Y-100565000D01*
X188423571Y-100603095D01*
X188461666Y-100679285D01*
X188461666Y-100793571D01*
X188423571Y-100869761D01*
X188385476Y-100907857D01*
X188309285Y-100945952D01*
X188004523Y-100945952D01*
X188728333Y-100526904D02*
X189261666Y-100526904D01*
X188918809Y-101326904D01*
%TO.C,R6*%
X188461666Y-98786904D02*
X188195000Y-98405952D01*
X188004523Y-98786904D02*
X188004523Y-97986904D01*
X188309285Y-97986904D01*
X188385476Y-98025000D01*
X188423571Y-98063095D01*
X188461666Y-98139285D01*
X188461666Y-98253571D01*
X188423571Y-98329761D01*
X188385476Y-98367857D01*
X188309285Y-98405952D01*
X188004523Y-98405952D01*
X189147380Y-97986904D02*
X188995000Y-97986904D01*
X188918809Y-98025000D01*
X188880714Y-98063095D01*
X188804523Y-98177380D01*
X188766428Y-98329761D01*
X188766428Y-98634523D01*
X188804523Y-98710714D01*
X188842619Y-98748809D01*
X188918809Y-98786904D01*
X189071190Y-98786904D01*
X189147380Y-98748809D01*
X189185476Y-98710714D01*
X189223571Y-98634523D01*
X189223571Y-98444047D01*
X189185476Y-98367857D01*
X189147380Y-98329761D01*
X189071190Y-98291666D01*
X188918809Y-98291666D01*
X188842619Y-98329761D01*
X188804523Y-98367857D01*
X188766428Y-98444047D01*
%TO.C,D3*%
X190544523Y-101326904D02*
X190544523Y-100526904D01*
X190735000Y-100526904D01*
X190849285Y-100565000D01*
X190925476Y-100641190D01*
X190963571Y-100717380D01*
X191001666Y-100869761D01*
X191001666Y-100984047D01*
X190963571Y-101136428D01*
X190925476Y-101212619D01*
X190849285Y-101288809D01*
X190735000Y-101326904D01*
X190544523Y-101326904D01*
X191268333Y-100526904D02*
X191763571Y-100526904D01*
X191496904Y-100831666D01*
X191611190Y-100831666D01*
X191687380Y-100869761D01*
X191725476Y-100907857D01*
X191763571Y-100984047D01*
X191763571Y-101174523D01*
X191725476Y-101250714D01*
X191687380Y-101288809D01*
X191611190Y-101326904D01*
X191382619Y-101326904D01*
X191306428Y-101288809D01*
X191268333Y-101250714D01*
%TO.C,D2*%
X190544523Y-98786904D02*
X190544523Y-97986904D01*
X190735000Y-97986904D01*
X190849285Y-98025000D01*
X190925476Y-98101190D01*
X190963571Y-98177380D01*
X191001666Y-98329761D01*
X191001666Y-98444047D01*
X190963571Y-98596428D01*
X190925476Y-98672619D01*
X190849285Y-98748809D01*
X190735000Y-98786904D01*
X190544523Y-98786904D01*
X191306428Y-98063095D02*
X191344523Y-98025000D01*
X191420714Y-97986904D01*
X191611190Y-97986904D01*
X191687380Y-98025000D01*
X191725476Y-98063095D01*
X191763571Y-98139285D01*
X191763571Y-98215476D01*
X191725476Y-98329761D01*
X191268333Y-98786904D01*
X191763571Y-98786904D01*
%TO.C,C3*%
X164750714Y-105543333D02*
X164788809Y-105581428D01*
X164826904Y-105695714D01*
X164826904Y-105771904D01*
X164788809Y-105886190D01*
X164712619Y-105962380D01*
X164636428Y-106000476D01*
X164484047Y-106038571D01*
X164369761Y-106038571D01*
X164217380Y-106000476D01*
X164141190Y-105962380D01*
X164065000Y-105886190D01*
X164026904Y-105771904D01*
X164026904Y-105695714D01*
X164065000Y-105581428D01*
X164103095Y-105543333D01*
X164026904Y-105276666D02*
X164026904Y-104781428D01*
X164331666Y-105048095D01*
X164331666Y-104933809D01*
X164369761Y-104857619D01*
X164407857Y-104819523D01*
X164484047Y-104781428D01*
X164674523Y-104781428D01*
X164750714Y-104819523D01*
X164788809Y-104857619D01*
X164826904Y-104933809D01*
X164826904Y-105162380D01*
X164788809Y-105238571D01*
X164750714Y-105276666D01*
%TO.C,D1*%
X194671904Y-98380476D02*
X193871904Y-98380476D01*
X193871904Y-98190000D01*
X193910000Y-98075714D01*
X193986190Y-97999523D01*
X194062380Y-97961428D01*
X194214761Y-97923333D01*
X194329047Y-97923333D01*
X194481428Y-97961428D01*
X194557619Y-97999523D01*
X194633809Y-98075714D01*
X194671904Y-98190000D01*
X194671904Y-98380476D01*
X194671904Y-97161428D02*
X194671904Y-97618571D01*
X194671904Y-97390000D02*
X193871904Y-97390000D01*
X193986190Y-97466190D01*
X194062380Y-97542380D01*
X194100476Y-97618571D01*
%TO.C,C10*%
X173005714Y-104019285D02*
X173043809Y-104057380D01*
X173081904Y-104171666D01*
X173081904Y-104247857D01*
X173043809Y-104362142D01*
X172967619Y-104438333D01*
X172891428Y-104476428D01*
X172739047Y-104514523D01*
X172624761Y-104514523D01*
X172472380Y-104476428D01*
X172396190Y-104438333D01*
X172320000Y-104362142D01*
X172281904Y-104247857D01*
X172281904Y-104171666D01*
X172320000Y-104057380D01*
X172358095Y-104019285D01*
X173081904Y-103257380D02*
X173081904Y-103714523D01*
X173081904Y-103485952D02*
X172281904Y-103485952D01*
X172396190Y-103562142D01*
X172472380Y-103638333D01*
X172510476Y-103714523D01*
X172281904Y-102762142D02*
X172281904Y-102685952D01*
X172320000Y-102609761D01*
X172358095Y-102571666D01*
X172434285Y-102533571D01*
X172586666Y-102495476D01*
X172777142Y-102495476D01*
X172929523Y-102533571D01*
X173005714Y-102571666D01*
X173043809Y-102609761D01*
X173081904Y-102685952D01*
X173081904Y-102762142D01*
X173043809Y-102838333D01*
X173005714Y-102876428D01*
X172929523Y-102914523D01*
X172777142Y-102952619D01*
X172586666Y-102952619D01*
X172434285Y-102914523D01*
X172358095Y-102876428D01*
X172320000Y-102838333D01*
X172281904Y-102762142D01*
%TO.C,C9*%
X174491666Y-107600714D02*
X174453571Y-107638809D01*
X174339285Y-107676904D01*
X174263095Y-107676904D01*
X174148809Y-107638809D01*
X174072619Y-107562619D01*
X174034523Y-107486428D01*
X173996428Y-107334047D01*
X173996428Y-107219761D01*
X174034523Y-107067380D01*
X174072619Y-106991190D01*
X174148809Y-106915000D01*
X174263095Y-106876904D01*
X174339285Y-106876904D01*
X174453571Y-106915000D01*
X174491666Y-106953095D01*
X174872619Y-107676904D02*
X175025000Y-107676904D01*
X175101190Y-107638809D01*
X175139285Y-107600714D01*
X175215476Y-107486428D01*
X175253571Y-107334047D01*
X175253571Y-107029285D01*
X175215476Y-106953095D01*
X175177380Y-106915000D01*
X175101190Y-106876904D01*
X174948809Y-106876904D01*
X174872619Y-106915000D01*
X174834523Y-106953095D01*
X174796428Y-107029285D01*
X174796428Y-107219761D01*
X174834523Y-107295952D01*
X174872619Y-107334047D01*
X174948809Y-107372142D01*
X175101190Y-107372142D01*
X175177380Y-107334047D01*
X175215476Y-107295952D01*
X175253571Y-107219761D01*
%TO.C,C8*%
X184016666Y-96170714D02*
X183978571Y-96208809D01*
X183864285Y-96246904D01*
X183788095Y-96246904D01*
X183673809Y-96208809D01*
X183597619Y-96132619D01*
X183559523Y-96056428D01*
X183521428Y-95904047D01*
X183521428Y-95789761D01*
X183559523Y-95637380D01*
X183597619Y-95561190D01*
X183673809Y-95485000D01*
X183788095Y-95446904D01*
X183864285Y-95446904D01*
X183978571Y-95485000D01*
X184016666Y-95523095D01*
X184473809Y-95789761D02*
X184397619Y-95751666D01*
X184359523Y-95713571D01*
X184321428Y-95637380D01*
X184321428Y-95599285D01*
X184359523Y-95523095D01*
X184397619Y-95485000D01*
X184473809Y-95446904D01*
X184626190Y-95446904D01*
X184702380Y-95485000D01*
X184740476Y-95523095D01*
X184778571Y-95599285D01*
X184778571Y-95637380D01*
X184740476Y-95713571D01*
X184702380Y-95751666D01*
X184626190Y-95789761D01*
X184473809Y-95789761D01*
X184397619Y-95827857D01*
X184359523Y-95865952D01*
X184321428Y-95942142D01*
X184321428Y-96094523D01*
X184359523Y-96170714D01*
X184397619Y-96208809D01*
X184473809Y-96246904D01*
X184626190Y-96246904D01*
X184702380Y-96208809D01*
X184740476Y-96170714D01*
X184778571Y-96094523D01*
X184778571Y-95942142D01*
X184740476Y-95865952D01*
X184702380Y-95827857D01*
X184626190Y-95789761D01*
%TO.C,C6*%
X186340714Y-99828333D02*
X186378809Y-99866428D01*
X186416904Y-99980714D01*
X186416904Y-100056904D01*
X186378809Y-100171190D01*
X186302619Y-100247380D01*
X186226428Y-100285476D01*
X186074047Y-100323571D01*
X185959761Y-100323571D01*
X185807380Y-100285476D01*
X185731190Y-100247380D01*
X185655000Y-100171190D01*
X185616904Y-100056904D01*
X185616904Y-99980714D01*
X185655000Y-99866428D01*
X185693095Y-99828333D01*
X185616904Y-99142619D02*
X185616904Y-99295000D01*
X185655000Y-99371190D01*
X185693095Y-99409285D01*
X185807380Y-99485476D01*
X185959761Y-99523571D01*
X186264523Y-99523571D01*
X186340714Y-99485476D01*
X186378809Y-99447380D01*
X186416904Y-99371190D01*
X186416904Y-99218809D01*
X186378809Y-99142619D01*
X186340714Y-99104523D01*
X186264523Y-99066428D01*
X186074047Y-99066428D01*
X185997857Y-99104523D01*
X185959761Y-99142619D01*
X185921666Y-99218809D01*
X185921666Y-99371190D01*
X185959761Y-99447380D01*
X185997857Y-99485476D01*
X186074047Y-99523571D01*
%TO.C,C2*%
X186975714Y-105543333D02*
X187013809Y-105581428D01*
X187051904Y-105695714D01*
X187051904Y-105771904D01*
X187013809Y-105886190D01*
X186937619Y-105962380D01*
X186861428Y-106000476D01*
X186709047Y-106038571D01*
X186594761Y-106038571D01*
X186442380Y-106000476D01*
X186366190Y-105962380D01*
X186290000Y-105886190D01*
X186251904Y-105771904D01*
X186251904Y-105695714D01*
X186290000Y-105581428D01*
X186328095Y-105543333D01*
X186328095Y-105238571D02*
X186290000Y-105200476D01*
X186251904Y-105124285D01*
X186251904Y-104933809D01*
X186290000Y-104857619D01*
X186328095Y-104819523D01*
X186404285Y-104781428D01*
X186480476Y-104781428D01*
X186594761Y-104819523D01*
X187051904Y-105276666D01*
X187051904Y-104781428D01*
%TO.C,C1*%
X195865714Y-105543333D02*
X195903809Y-105581428D01*
X195941904Y-105695714D01*
X195941904Y-105771904D01*
X195903809Y-105886190D01*
X195827619Y-105962380D01*
X195751428Y-106000476D01*
X195599047Y-106038571D01*
X195484761Y-106038571D01*
X195332380Y-106000476D01*
X195256190Y-105962380D01*
X195180000Y-105886190D01*
X195141904Y-105771904D01*
X195141904Y-105695714D01*
X195180000Y-105581428D01*
X195218095Y-105543333D01*
X195941904Y-104781428D02*
X195941904Y-105238571D01*
X195941904Y-105010000D02*
X195141904Y-105010000D01*
X195256190Y-105086190D01*
X195332380Y-105162380D01*
X195370476Y-105238571D01*
%TD*%
M02*
