%TF.GenerationSoftware,KiCad,Pcbnew,5.1.6+dfsg1-1*%
%TF.CreationDate,2020-06-27T09:06:45+08:00*%
%TF.ProjectId,stm32devmini,73746d33-3264-4657-966d-696e692e6b69,a*%
%TF.SameCoordinates,Original*%
%TF.FileFunction,Soldermask,Top*%
%TF.FilePolarity,Negative*%
%FSLAX46Y46*%
G04 Gerber Fmt 4.6, Leading zero omitted, Abs format (unit mm)*
G04 Created by KiCad (PCBNEW 5.1.6+dfsg1-1) date 2020-06-27 09:06:45*
%MOMM*%
%LPD*%
G01*
G04 APERTURE LIST*
%ADD10R,1.550000X0.700000*%
%ADD11R,1.550000X0.400000*%
%ADD12O,2.200000X1.100000*%
%ADD13C,0.750000*%
%ADD14O,1.700000X1.100000*%
%ADD15R,1.100000X1.900000*%
%ADD16R,2.500000X2.000000*%
%ADD17R,1.800000X1.100000*%
%ADD18R,1.600000X2.100000*%
%ADD19R,3.900000X2.100000*%
%ADD20O,1.800000X1.800000*%
%ADD21R,1.800000X1.800000*%
%ADD22R,1.300000X1.000000*%
G04 APERTURE END LIST*
%TO.C,R1*%
G36*
G01*
X191630000Y-97338500D02*
X191630000Y-97733500D01*
G75*
G02*
X191457500Y-97906000I-172500J0D01*
G01*
X191112500Y-97906000D01*
G75*
G02*
X190940000Y-97733500I0J172500D01*
G01*
X190940000Y-97338500D01*
G75*
G02*
X191112500Y-97166000I172500J0D01*
G01*
X191457500Y-97166000D01*
G75*
G02*
X191630000Y-97338500I0J-172500D01*
G01*
G37*
G36*
G01*
X192600000Y-97338500D02*
X192600000Y-97733500D01*
G75*
G02*
X192427500Y-97906000I-172500J0D01*
G01*
X192082500Y-97906000D01*
G75*
G02*
X191910000Y-97733500I0J172500D01*
G01*
X191910000Y-97338500D01*
G75*
G02*
X192082500Y-97166000I172500J0D01*
G01*
X192427500Y-97166000D01*
G75*
G02*
X192600000Y-97338500I0J-172500D01*
G01*
G37*
%TD*%
D10*
%TO.C,J1*%
X197250000Y-98350000D03*
X197250000Y-99150000D03*
X197250000Y-104050000D03*
X197250000Y-104850000D03*
X197250000Y-104850000D03*
X197250000Y-104050000D03*
X197250000Y-99150000D03*
X197250000Y-98350000D03*
D11*
X197250000Y-103350000D03*
X197250000Y-102850000D03*
X197250000Y-102350000D03*
X197250000Y-101350000D03*
X197250000Y-100850000D03*
X197250000Y-100350000D03*
X197250000Y-99850000D03*
X197250000Y-101850000D03*
D12*
X198165000Y-97280000D03*
X198165000Y-105920000D03*
D13*
X198695000Y-104490000D03*
D14*
X202345000Y-105920000D03*
D13*
X198695000Y-98710000D03*
D14*
X202345000Y-97280000D03*
%TD*%
%TO.C,U2*%
G36*
G01*
X171351839Y-101228769D02*
X170379566Y-100256498D01*
G75*
G02*
X170379566Y-100115076I70711J70711D01*
G01*
X170520988Y-99973654D01*
G75*
G02*
X170662410Y-99973654I70711J-70711D01*
G01*
X171634682Y-100945926D01*
G75*
G02*
X171634682Y-101087348I-70711J-70711D01*
G01*
X171493260Y-101228770D01*
G75*
G02*
X171351838Y-101228770I-70711J70711D01*
G01*
G37*
G36*
G01*
X171705393Y-100875215D02*
X170733120Y-99902944D01*
G75*
G02*
X170733120Y-99761522I70711J70711D01*
G01*
X170874542Y-99620100D01*
G75*
G02*
X171015964Y-99620100I70711J-70711D01*
G01*
X171988236Y-100592372D01*
G75*
G02*
X171988236Y-100733794I-70711J-70711D01*
G01*
X171846814Y-100875216D01*
G75*
G02*
X171705392Y-100875216I-70711J70711D01*
G01*
G37*
G36*
G01*
X172058946Y-100521662D02*
X171086673Y-99549391D01*
G75*
G02*
X171086673Y-99407969I70711J70711D01*
G01*
X171228095Y-99266547D01*
G75*
G02*
X171369517Y-99266547I70711J-70711D01*
G01*
X172341789Y-100238819D01*
G75*
G02*
X172341789Y-100380241I-70711J-70711D01*
G01*
X172200367Y-100521663D01*
G75*
G02*
X172058945Y-100521663I-70711J70711D01*
G01*
G37*
G36*
G01*
X172412500Y-100168108D02*
X171440227Y-99195837D01*
G75*
G02*
X171440227Y-99054415I70711J70711D01*
G01*
X171581649Y-98912993D01*
G75*
G02*
X171723071Y-98912993I70711J-70711D01*
G01*
X172695343Y-99885265D01*
G75*
G02*
X172695343Y-100026687I-70711J-70711D01*
G01*
X172553921Y-100168109D01*
G75*
G02*
X172412499Y-100168109I-70711J70711D01*
G01*
G37*
G36*
G01*
X172766053Y-99814555D02*
X171793780Y-98842284D01*
G75*
G02*
X171793780Y-98700862I70711J70711D01*
G01*
X171935202Y-98559440D01*
G75*
G02*
X172076624Y-98559440I70711J-70711D01*
G01*
X173048896Y-99531712D01*
G75*
G02*
X173048896Y-99673134I-70711J-70711D01*
G01*
X172907474Y-99814556D01*
G75*
G02*
X172766052Y-99814556I-70711J70711D01*
G01*
G37*
G36*
G01*
X173119606Y-99461002D02*
X172147333Y-98488731D01*
G75*
G02*
X172147333Y-98347309I70711J70711D01*
G01*
X172288755Y-98205887D01*
G75*
G02*
X172430177Y-98205887I70711J-70711D01*
G01*
X173402449Y-99178159D01*
G75*
G02*
X173402449Y-99319581I-70711J-70711D01*
G01*
X173261027Y-99461003D01*
G75*
G02*
X173119605Y-99461003I-70711J70711D01*
G01*
G37*
G36*
G01*
X173473160Y-99107448D02*
X172500887Y-98135177D01*
G75*
G02*
X172500887Y-97993755I70711J70711D01*
G01*
X172642309Y-97852333D01*
G75*
G02*
X172783731Y-97852333I70711J-70711D01*
G01*
X173756003Y-98824605D01*
G75*
G02*
X173756003Y-98966027I-70711J-70711D01*
G01*
X173614581Y-99107449D01*
G75*
G02*
X173473159Y-99107449I-70711J70711D01*
G01*
G37*
G36*
G01*
X173826713Y-98753895D02*
X172854440Y-97781624D01*
G75*
G02*
X172854440Y-97640202I70711J70711D01*
G01*
X172995862Y-97498780D01*
G75*
G02*
X173137284Y-97498780I70711J-70711D01*
G01*
X174109556Y-98471052D01*
G75*
G02*
X174109556Y-98612474I-70711J-70711D01*
G01*
X173968134Y-98753896D01*
G75*
G02*
X173826712Y-98753896I-70711J70711D01*
G01*
G37*
G36*
G01*
X174180266Y-98400342D02*
X173207993Y-97428071D01*
G75*
G02*
X173207993Y-97286649I70711J70711D01*
G01*
X173349415Y-97145227D01*
G75*
G02*
X173490837Y-97145227I70711J-70711D01*
G01*
X174463109Y-98117499D01*
G75*
G02*
X174463109Y-98258921I-70711J-70711D01*
G01*
X174321687Y-98400343D01*
G75*
G02*
X174180265Y-98400343I-70711J70711D01*
G01*
G37*
G36*
G01*
X174533820Y-98046788D02*
X173561547Y-97074517D01*
G75*
G02*
X173561547Y-96933095I70711J70711D01*
G01*
X173702969Y-96791673D01*
G75*
G02*
X173844391Y-96791673I70711J-70711D01*
G01*
X174816663Y-97763945D01*
G75*
G02*
X174816663Y-97905367I-70711J-70711D01*
G01*
X174675241Y-98046789D01*
G75*
G02*
X174533819Y-98046789I-70711J70711D01*
G01*
G37*
G36*
G01*
X174887373Y-97693235D02*
X173915100Y-96720964D01*
G75*
G02*
X173915100Y-96579542I70711J70711D01*
G01*
X174056522Y-96438120D01*
G75*
G02*
X174197944Y-96438120I70711J-70711D01*
G01*
X175170216Y-97410392D01*
G75*
G02*
X175170216Y-97551814I-70711J-70711D01*
G01*
X175028794Y-97693236D01*
G75*
G02*
X174887372Y-97693236I-70711J70711D01*
G01*
G37*
G36*
G01*
X175240927Y-97339681D02*
X174268654Y-96367410D01*
G75*
G02*
X174268654Y-96225988I70711J70711D01*
G01*
X174410076Y-96084566D01*
G75*
G02*
X174551498Y-96084566I70711J-70711D01*
G01*
X175523770Y-97056838D01*
G75*
G02*
X175523770Y-97198260I-70711J-70711D01*
G01*
X175382348Y-97339682D01*
G75*
G02*
X175240926Y-97339682I-70711J70711D01*
G01*
G37*
G36*
G01*
X176407652Y-97339681D02*
X176266230Y-97198260D01*
G75*
G02*
X176266230Y-97056838I70711J70711D01*
G01*
X177238502Y-96084566D01*
G75*
G02*
X177379924Y-96084566I70711J-70711D01*
G01*
X177521346Y-96225988D01*
G75*
G02*
X177521346Y-96367410I-70711J-70711D01*
G01*
X176549074Y-97339682D01*
G75*
G02*
X176407652Y-97339682I-70711J70711D01*
G01*
G37*
G36*
G01*
X176761206Y-97693235D02*
X176619784Y-97551814D01*
G75*
G02*
X176619784Y-97410392I70711J70711D01*
G01*
X177592056Y-96438120D01*
G75*
G02*
X177733478Y-96438120I70711J-70711D01*
G01*
X177874900Y-96579542D01*
G75*
G02*
X177874900Y-96720964I-70711J-70711D01*
G01*
X176902628Y-97693236D01*
G75*
G02*
X176761206Y-97693236I-70711J70711D01*
G01*
G37*
G36*
G01*
X177114759Y-98046788D02*
X176973337Y-97905367D01*
G75*
G02*
X176973337Y-97763945I70711J70711D01*
G01*
X177945609Y-96791673D01*
G75*
G02*
X178087031Y-96791673I70711J-70711D01*
G01*
X178228453Y-96933095D01*
G75*
G02*
X178228453Y-97074517I-70711J-70711D01*
G01*
X177256181Y-98046789D01*
G75*
G02*
X177114759Y-98046789I-70711J70711D01*
G01*
G37*
G36*
G01*
X177468313Y-98400342D02*
X177326891Y-98258921D01*
G75*
G02*
X177326891Y-98117499I70711J70711D01*
G01*
X178299163Y-97145227D01*
G75*
G02*
X178440585Y-97145227I70711J-70711D01*
G01*
X178582007Y-97286649D01*
G75*
G02*
X178582007Y-97428071I-70711J-70711D01*
G01*
X177609735Y-98400343D01*
G75*
G02*
X177468313Y-98400343I-70711J70711D01*
G01*
G37*
G36*
G01*
X177821866Y-98753895D02*
X177680444Y-98612474D01*
G75*
G02*
X177680444Y-98471052I70711J70711D01*
G01*
X178652716Y-97498780D01*
G75*
G02*
X178794138Y-97498780I70711J-70711D01*
G01*
X178935560Y-97640202D01*
G75*
G02*
X178935560Y-97781624I-70711J-70711D01*
G01*
X177963288Y-98753896D01*
G75*
G02*
X177821866Y-98753896I-70711J70711D01*
G01*
G37*
G36*
G01*
X178175419Y-99107448D02*
X178033997Y-98966027D01*
G75*
G02*
X178033997Y-98824605I70711J70711D01*
G01*
X179006269Y-97852333D01*
G75*
G02*
X179147691Y-97852333I70711J-70711D01*
G01*
X179289113Y-97993755D01*
G75*
G02*
X179289113Y-98135177I-70711J-70711D01*
G01*
X178316841Y-99107449D01*
G75*
G02*
X178175419Y-99107449I-70711J70711D01*
G01*
G37*
G36*
G01*
X178528973Y-99461002D02*
X178387551Y-99319581D01*
G75*
G02*
X178387551Y-99178159I70711J70711D01*
G01*
X179359823Y-98205887D01*
G75*
G02*
X179501245Y-98205887I70711J-70711D01*
G01*
X179642667Y-98347309D01*
G75*
G02*
X179642667Y-98488731I-70711J-70711D01*
G01*
X178670395Y-99461003D01*
G75*
G02*
X178528973Y-99461003I-70711J70711D01*
G01*
G37*
G36*
G01*
X178882526Y-99814555D02*
X178741104Y-99673134D01*
G75*
G02*
X178741104Y-99531712I70711J70711D01*
G01*
X179713376Y-98559440D01*
G75*
G02*
X179854798Y-98559440I70711J-70711D01*
G01*
X179996220Y-98700862D01*
G75*
G02*
X179996220Y-98842284I-70711J-70711D01*
G01*
X179023948Y-99814556D01*
G75*
G02*
X178882526Y-99814556I-70711J70711D01*
G01*
G37*
G36*
G01*
X179236079Y-100168108D02*
X179094657Y-100026687D01*
G75*
G02*
X179094657Y-99885265I70711J70711D01*
G01*
X180066929Y-98912993D01*
G75*
G02*
X180208351Y-98912993I70711J-70711D01*
G01*
X180349773Y-99054415D01*
G75*
G02*
X180349773Y-99195837I-70711J-70711D01*
G01*
X179377501Y-100168109D01*
G75*
G02*
X179236079Y-100168109I-70711J70711D01*
G01*
G37*
G36*
G01*
X179589633Y-100521662D02*
X179448211Y-100380241D01*
G75*
G02*
X179448211Y-100238819I70711J70711D01*
G01*
X180420483Y-99266547D01*
G75*
G02*
X180561905Y-99266547I70711J-70711D01*
G01*
X180703327Y-99407969D01*
G75*
G02*
X180703327Y-99549391I-70711J-70711D01*
G01*
X179731055Y-100521663D01*
G75*
G02*
X179589633Y-100521663I-70711J70711D01*
G01*
G37*
G36*
G01*
X179943186Y-100875215D02*
X179801764Y-100733794D01*
G75*
G02*
X179801764Y-100592372I70711J70711D01*
G01*
X180774036Y-99620100D01*
G75*
G02*
X180915458Y-99620100I70711J-70711D01*
G01*
X181056880Y-99761522D01*
G75*
G02*
X181056880Y-99902944I-70711J-70711D01*
G01*
X180084608Y-100875216D01*
G75*
G02*
X179943186Y-100875216I-70711J70711D01*
G01*
G37*
G36*
G01*
X180296740Y-101228769D02*
X180155318Y-101087348D01*
G75*
G02*
X180155318Y-100945926I70711J70711D01*
G01*
X181127590Y-99973654D01*
G75*
G02*
X181269012Y-99973654I70711J-70711D01*
G01*
X181410434Y-100115076D01*
G75*
G02*
X181410434Y-100256498I-70711J-70711D01*
G01*
X180438162Y-101228770D01*
G75*
G02*
X180296740Y-101228770I-70711J70711D01*
G01*
G37*
G36*
G01*
X181127591Y-103226345D02*
X180155318Y-102254074D01*
G75*
G02*
X180155318Y-102112652I70711J70711D01*
G01*
X180296740Y-101971230D01*
G75*
G02*
X180438162Y-101971230I70711J-70711D01*
G01*
X181410434Y-102943502D01*
G75*
G02*
X181410434Y-103084924I-70711J-70711D01*
G01*
X181269012Y-103226346D01*
G75*
G02*
X181127590Y-103226346I-70711J70711D01*
G01*
G37*
G36*
G01*
X180774037Y-103579899D02*
X179801764Y-102607628D01*
G75*
G02*
X179801764Y-102466206I70711J70711D01*
G01*
X179943186Y-102324784D01*
G75*
G02*
X180084608Y-102324784I70711J-70711D01*
G01*
X181056880Y-103297056D01*
G75*
G02*
X181056880Y-103438478I-70711J-70711D01*
G01*
X180915458Y-103579900D01*
G75*
G02*
X180774036Y-103579900I-70711J70711D01*
G01*
G37*
G36*
G01*
X180420484Y-103933452D02*
X179448211Y-102961181D01*
G75*
G02*
X179448211Y-102819759I70711J70711D01*
G01*
X179589633Y-102678337D01*
G75*
G02*
X179731055Y-102678337I70711J-70711D01*
G01*
X180703327Y-103650609D01*
G75*
G02*
X180703327Y-103792031I-70711J-70711D01*
G01*
X180561905Y-103933453D01*
G75*
G02*
X180420483Y-103933453I-70711J70711D01*
G01*
G37*
G36*
G01*
X180066930Y-104287006D02*
X179094657Y-103314735D01*
G75*
G02*
X179094657Y-103173313I70711J70711D01*
G01*
X179236079Y-103031891D01*
G75*
G02*
X179377501Y-103031891I70711J-70711D01*
G01*
X180349773Y-104004163D01*
G75*
G02*
X180349773Y-104145585I-70711J-70711D01*
G01*
X180208351Y-104287007D01*
G75*
G02*
X180066929Y-104287007I-70711J70711D01*
G01*
G37*
G36*
G01*
X179713377Y-104640559D02*
X178741104Y-103668288D01*
G75*
G02*
X178741104Y-103526866I70711J70711D01*
G01*
X178882526Y-103385444D01*
G75*
G02*
X179023948Y-103385444I70711J-70711D01*
G01*
X179996220Y-104357716D01*
G75*
G02*
X179996220Y-104499138I-70711J-70711D01*
G01*
X179854798Y-104640560D01*
G75*
G02*
X179713376Y-104640560I-70711J70711D01*
G01*
G37*
G36*
G01*
X179359824Y-104994112D02*
X178387551Y-104021841D01*
G75*
G02*
X178387551Y-103880419I70711J70711D01*
G01*
X178528973Y-103738997D01*
G75*
G02*
X178670395Y-103738997I70711J-70711D01*
G01*
X179642667Y-104711269D01*
G75*
G02*
X179642667Y-104852691I-70711J-70711D01*
G01*
X179501245Y-104994113D01*
G75*
G02*
X179359823Y-104994113I-70711J70711D01*
G01*
G37*
G36*
G01*
X179006270Y-105347666D02*
X178033997Y-104375395D01*
G75*
G02*
X178033997Y-104233973I70711J70711D01*
G01*
X178175419Y-104092551D01*
G75*
G02*
X178316841Y-104092551I70711J-70711D01*
G01*
X179289113Y-105064823D01*
G75*
G02*
X179289113Y-105206245I-70711J-70711D01*
G01*
X179147691Y-105347667D01*
G75*
G02*
X179006269Y-105347667I-70711J70711D01*
G01*
G37*
G36*
G01*
X178652717Y-105701219D02*
X177680444Y-104728948D01*
G75*
G02*
X177680444Y-104587526I70711J70711D01*
G01*
X177821866Y-104446104D01*
G75*
G02*
X177963288Y-104446104I70711J-70711D01*
G01*
X178935560Y-105418376D01*
G75*
G02*
X178935560Y-105559798I-70711J-70711D01*
G01*
X178794138Y-105701220D01*
G75*
G02*
X178652716Y-105701220I-70711J70711D01*
G01*
G37*
G36*
G01*
X178299164Y-106054772D02*
X177326891Y-105082501D01*
G75*
G02*
X177326891Y-104941079I70711J70711D01*
G01*
X177468313Y-104799657D01*
G75*
G02*
X177609735Y-104799657I70711J-70711D01*
G01*
X178582007Y-105771929D01*
G75*
G02*
X178582007Y-105913351I-70711J-70711D01*
G01*
X178440585Y-106054773D01*
G75*
G02*
X178299163Y-106054773I-70711J70711D01*
G01*
G37*
G36*
G01*
X177945610Y-106408326D02*
X176973337Y-105436055D01*
G75*
G02*
X176973337Y-105294633I70711J70711D01*
G01*
X177114759Y-105153211D01*
G75*
G02*
X177256181Y-105153211I70711J-70711D01*
G01*
X178228453Y-106125483D01*
G75*
G02*
X178228453Y-106266905I-70711J-70711D01*
G01*
X178087031Y-106408327D01*
G75*
G02*
X177945609Y-106408327I-70711J70711D01*
G01*
G37*
G36*
G01*
X177592057Y-106761879D02*
X176619784Y-105789608D01*
G75*
G02*
X176619784Y-105648186I70711J70711D01*
G01*
X176761206Y-105506764D01*
G75*
G02*
X176902628Y-105506764I70711J-70711D01*
G01*
X177874900Y-106479036D01*
G75*
G02*
X177874900Y-106620458I-70711J-70711D01*
G01*
X177733478Y-106761880D01*
G75*
G02*
X177592056Y-106761880I-70711J70711D01*
G01*
G37*
G36*
G01*
X177238503Y-107115433D02*
X176266230Y-106143162D01*
G75*
G02*
X176266230Y-106001740I70711J70711D01*
G01*
X176407652Y-105860318D01*
G75*
G02*
X176549074Y-105860318I70711J-70711D01*
G01*
X177521346Y-106832590D01*
G75*
G02*
X177521346Y-106974012I-70711J-70711D01*
G01*
X177379924Y-107115434D01*
G75*
G02*
X177238502Y-107115434I-70711J70711D01*
G01*
G37*
G36*
G01*
X174410076Y-107115433D02*
X174268654Y-106974012D01*
G75*
G02*
X174268654Y-106832590I70711J70711D01*
G01*
X175240926Y-105860318D01*
G75*
G02*
X175382348Y-105860318I70711J-70711D01*
G01*
X175523770Y-106001740D01*
G75*
G02*
X175523770Y-106143162I-70711J-70711D01*
G01*
X174551498Y-107115434D01*
G75*
G02*
X174410076Y-107115434I-70711J70711D01*
G01*
G37*
G36*
G01*
X174056522Y-106761879D02*
X173915100Y-106620458D01*
G75*
G02*
X173915100Y-106479036I70711J70711D01*
G01*
X174887372Y-105506764D01*
G75*
G02*
X175028794Y-105506764I70711J-70711D01*
G01*
X175170216Y-105648186D01*
G75*
G02*
X175170216Y-105789608I-70711J-70711D01*
G01*
X174197944Y-106761880D01*
G75*
G02*
X174056522Y-106761880I-70711J70711D01*
G01*
G37*
G36*
G01*
X173702969Y-106408326D02*
X173561547Y-106266905D01*
G75*
G02*
X173561547Y-106125483I70711J70711D01*
G01*
X174533819Y-105153211D01*
G75*
G02*
X174675241Y-105153211I70711J-70711D01*
G01*
X174816663Y-105294633D01*
G75*
G02*
X174816663Y-105436055I-70711J-70711D01*
G01*
X173844391Y-106408327D01*
G75*
G02*
X173702969Y-106408327I-70711J70711D01*
G01*
G37*
G36*
G01*
X173349415Y-106054772D02*
X173207993Y-105913351D01*
G75*
G02*
X173207993Y-105771929I70711J70711D01*
G01*
X174180265Y-104799657D01*
G75*
G02*
X174321687Y-104799657I70711J-70711D01*
G01*
X174463109Y-104941079D01*
G75*
G02*
X174463109Y-105082501I-70711J-70711D01*
G01*
X173490837Y-106054773D01*
G75*
G02*
X173349415Y-106054773I-70711J70711D01*
G01*
G37*
G36*
G01*
X172995862Y-105701219D02*
X172854440Y-105559798D01*
G75*
G02*
X172854440Y-105418376I70711J70711D01*
G01*
X173826712Y-104446104D01*
G75*
G02*
X173968134Y-104446104I70711J-70711D01*
G01*
X174109556Y-104587526D01*
G75*
G02*
X174109556Y-104728948I-70711J-70711D01*
G01*
X173137284Y-105701220D01*
G75*
G02*
X172995862Y-105701220I-70711J70711D01*
G01*
G37*
G36*
G01*
X172642309Y-105347666D02*
X172500887Y-105206245D01*
G75*
G02*
X172500887Y-105064823I70711J70711D01*
G01*
X173473159Y-104092551D01*
G75*
G02*
X173614581Y-104092551I70711J-70711D01*
G01*
X173756003Y-104233973D01*
G75*
G02*
X173756003Y-104375395I-70711J-70711D01*
G01*
X172783731Y-105347667D01*
G75*
G02*
X172642309Y-105347667I-70711J70711D01*
G01*
G37*
G36*
G01*
X172288755Y-104994112D02*
X172147333Y-104852691D01*
G75*
G02*
X172147333Y-104711269I70711J70711D01*
G01*
X173119605Y-103738997D01*
G75*
G02*
X173261027Y-103738997I70711J-70711D01*
G01*
X173402449Y-103880419D01*
G75*
G02*
X173402449Y-104021841I-70711J-70711D01*
G01*
X172430177Y-104994113D01*
G75*
G02*
X172288755Y-104994113I-70711J70711D01*
G01*
G37*
G36*
G01*
X171935202Y-104640559D02*
X171793780Y-104499138D01*
G75*
G02*
X171793780Y-104357716I70711J70711D01*
G01*
X172766052Y-103385444D01*
G75*
G02*
X172907474Y-103385444I70711J-70711D01*
G01*
X173048896Y-103526866D01*
G75*
G02*
X173048896Y-103668288I-70711J-70711D01*
G01*
X172076624Y-104640560D01*
G75*
G02*
X171935202Y-104640560I-70711J70711D01*
G01*
G37*
G36*
G01*
X171581649Y-104287006D02*
X171440227Y-104145585D01*
G75*
G02*
X171440227Y-104004163I70711J70711D01*
G01*
X172412499Y-103031891D01*
G75*
G02*
X172553921Y-103031891I70711J-70711D01*
G01*
X172695343Y-103173313D01*
G75*
G02*
X172695343Y-103314735I-70711J-70711D01*
G01*
X171723071Y-104287007D01*
G75*
G02*
X171581649Y-104287007I-70711J70711D01*
G01*
G37*
G36*
G01*
X171228095Y-103933452D02*
X171086673Y-103792031D01*
G75*
G02*
X171086673Y-103650609I70711J70711D01*
G01*
X172058945Y-102678337D01*
G75*
G02*
X172200367Y-102678337I70711J-70711D01*
G01*
X172341789Y-102819759D01*
G75*
G02*
X172341789Y-102961181I-70711J-70711D01*
G01*
X171369517Y-103933453D01*
G75*
G02*
X171228095Y-103933453I-70711J70711D01*
G01*
G37*
G36*
G01*
X170874542Y-103579899D02*
X170733120Y-103438478D01*
G75*
G02*
X170733120Y-103297056I70711J70711D01*
G01*
X171705392Y-102324784D01*
G75*
G02*
X171846814Y-102324784I70711J-70711D01*
G01*
X171988236Y-102466206D01*
G75*
G02*
X171988236Y-102607628I-70711J-70711D01*
G01*
X171015964Y-103579900D01*
G75*
G02*
X170874542Y-103579900I-70711J70711D01*
G01*
G37*
G36*
G01*
X170520988Y-103226345D02*
X170379566Y-103084924D01*
G75*
G02*
X170379566Y-102943502I70711J70711D01*
G01*
X171351838Y-101971230D01*
G75*
G02*
X171493260Y-101971230I70711J-70711D01*
G01*
X171634682Y-102112652D01*
G75*
G02*
X171634682Y-102254074I-70711J-70711D01*
G01*
X170662410Y-103226346D01*
G75*
G02*
X170520988Y-103226346I-70711J70711D01*
G01*
G37*
%TD*%
%TO.C,C11*%
G36*
G01*
X164267500Y-101740000D02*
X164662500Y-101740000D01*
G75*
G02*
X164835000Y-101912500I0J-172500D01*
G01*
X164835000Y-102257500D01*
G75*
G02*
X164662500Y-102430000I-172500J0D01*
G01*
X164267500Y-102430000D01*
G75*
G02*
X164095000Y-102257500I0J172500D01*
G01*
X164095000Y-101912500D01*
G75*
G02*
X164267500Y-101740000I172500J0D01*
G01*
G37*
G36*
G01*
X164267500Y-100770000D02*
X164662500Y-100770000D01*
G75*
G02*
X164835000Y-100942500I0J-172500D01*
G01*
X164835000Y-101287500D01*
G75*
G02*
X164662500Y-101460000I-172500J0D01*
G01*
X164267500Y-101460000D01*
G75*
G02*
X164095000Y-101287500I0J172500D01*
G01*
X164095000Y-100942500D01*
G75*
G02*
X164267500Y-100770000I172500J0D01*
G01*
G37*
%TD*%
%TO.C,C10*%
G36*
G01*
X168135000Y-96322500D02*
X168135000Y-96717500D01*
G75*
G02*
X167962500Y-96890000I-172500J0D01*
G01*
X167617500Y-96890000D01*
G75*
G02*
X167445000Y-96717500I0J172500D01*
G01*
X167445000Y-96322500D01*
G75*
G02*
X167617500Y-96150000I172500J0D01*
G01*
X167962500Y-96150000D01*
G75*
G02*
X168135000Y-96322500I0J-172500D01*
G01*
G37*
G36*
G01*
X169105000Y-96322500D02*
X169105000Y-96717500D01*
G75*
G02*
X168932500Y-96890000I-172500J0D01*
G01*
X168587500Y-96890000D01*
G75*
G02*
X168415000Y-96717500I0J172500D01*
G01*
X168415000Y-96322500D01*
G75*
G02*
X168587500Y-96150000I172500J0D01*
G01*
X168932500Y-96150000D01*
G75*
G02*
X169105000Y-96322500I0J-172500D01*
G01*
G37*
%TD*%
D15*
%TO.C,Y2*%
X165755000Y-98425000D03*
X168255000Y-98425000D03*
%TD*%
D16*
%TO.C,Y1*%
X167005000Y-105555000D03*
X167005000Y-101455000D03*
%TD*%
%TO.C,C9*%
G36*
G01*
X164267500Y-106820000D02*
X164662500Y-106820000D01*
G75*
G02*
X164835000Y-106992500I0J-172500D01*
G01*
X164835000Y-107337500D01*
G75*
G02*
X164662500Y-107510000I-172500J0D01*
G01*
X164267500Y-107510000D01*
G75*
G02*
X164095000Y-107337500I0J172500D01*
G01*
X164095000Y-106992500D01*
G75*
G02*
X164267500Y-106820000I172500J0D01*
G01*
G37*
G36*
G01*
X164267500Y-105850000D02*
X164662500Y-105850000D01*
G75*
G02*
X164835000Y-106022500I0J-172500D01*
G01*
X164835000Y-106367500D01*
G75*
G02*
X164662500Y-106540000I-172500J0D01*
G01*
X164267500Y-106540000D01*
G75*
G02*
X164095000Y-106367500I0J172500D01*
G01*
X164095000Y-106022500D01*
G75*
G02*
X164267500Y-105850000I172500J0D01*
G01*
G37*
%TD*%
%TO.C,C8*%
G36*
G01*
X164267500Y-104280000D02*
X164662500Y-104280000D01*
G75*
G02*
X164835000Y-104452500I0J-172500D01*
G01*
X164835000Y-104797500D01*
G75*
G02*
X164662500Y-104970000I-172500J0D01*
G01*
X164267500Y-104970000D01*
G75*
G02*
X164095000Y-104797500I0J172500D01*
G01*
X164095000Y-104452500D01*
G75*
G02*
X164267500Y-104280000I172500J0D01*
G01*
G37*
G36*
G01*
X164267500Y-103310000D02*
X164662500Y-103310000D01*
G75*
G02*
X164835000Y-103482500I0J-172500D01*
G01*
X164835000Y-103827500D01*
G75*
G02*
X164662500Y-104000000I-172500J0D01*
G01*
X164267500Y-104000000D01*
G75*
G02*
X164095000Y-103827500I0J172500D01*
G01*
X164095000Y-103482500D01*
G75*
G02*
X164267500Y-103310000I172500J0D01*
G01*
G37*
%TD*%
%TO.C,R6*%
G36*
G01*
X194170000Y-97338500D02*
X194170000Y-97733500D01*
G75*
G02*
X193997500Y-97906000I-172500J0D01*
G01*
X193652500Y-97906000D01*
G75*
G02*
X193480000Y-97733500I0J172500D01*
G01*
X193480000Y-97338500D01*
G75*
G02*
X193652500Y-97166000I172500J0D01*
G01*
X193997500Y-97166000D01*
G75*
G02*
X194170000Y-97338500I0J-172500D01*
G01*
G37*
G36*
G01*
X195140000Y-97338500D02*
X195140000Y-97733500D01*
G75*
G02*
X194967500Y-97906000I-172500J0D01*
G01*
X194622500Y-97906000D01*
G75*
G02*
X194450000Y-97733500I0J172500D01*
G01*
X194450000Y-97338500D01*
G75*
G02*
X194622500Y-97166000I172500J0D01*
G01*
X194967500Y-97166000D01*
G75*
G02*
X195140000Y-97338500I0J-172500D01*
G01*
G37*
%TD*%
%TO.C,R5*%
G36*
G01*
X183317500Y-101740000D02*
X183712500Y-101740000D01*
G75*
G02*
X183885000Y-101912500I0J-172500D01*
G01*
X183885000Y-102257500D01*
G75*
G02*
X183712500Y-102430000I-172500J0D01*
G01*
X183317500Y-102430000D01*
G75*
G02*
X183145000Y-102257500I0J172500D01*
G01*
X183145000Y-101912500D01*
G75*
G02*
X183317500Y-101740000I172500J0D01*
G01*
G37*
G36*
G01*
X183317500Y-100770000D02*
X183712500Y-100770000D01*
G75*
G02*
X183885000Y-100942500I0J-172500D01*
G01*
X183885000Y-101287500D01*
G75*
G02*
X183712500Y-101460000I-172500J0D01*
G01*
X183317500Y-101460000D01*
G75*
G02*
X183145000Y-101287500I0J172500D01*
G01*
X183145000Y-100942500D01*
G75*
G02*
X183317500Y-100770000I172500J0D01*
G01*
G37*
%TD*%
%TO.C,R4*%
G36*
G01*
X184587500Y-106185000D02*
X184982500Y-106185000D01*
G75*
G02*
X185155000Y-106357500I0J-172500D01*
G01*
X185155000Y-106702500D01*
G75*
G02*
X184982500Y-106875000I-172500J0D01*
G01*
X184587500Y-106875000D01*
G75*
G02*
X184415000Y-106702500I0J172500D01*
G01*
X184415000Y-106357500D01*
G75*
G02*
X184587500Y-106185000I172500J0D01*
G01*
G37*
G36*
G01*
X184587500Y-105215000D02*
X184982500Y-105215000D01*
G75*
G02*
X185155000Y-105387500I0J-172500D01*
G01*
X185155000Y-105732500D01*
G75*
G02*
X184982500Y-105905000I-172500J0D01*
G01*
X184587500Y-105905000D01*
G75*
G02*
X184415000Y-105732500I0J172500D01*
G01*
X184415000Y-105387500D01*
G75*
G02*
X184587500Y-105215000I172500J0D01*
G01*
G37*
%TD*%
%TO.C,D3*%
G36*
G01*
X184503750Y-100630000D02*
X185066250Y-100630000D01*
G75*
G02*
X185310000Y-100873750I0J-243750D01*
G01*
X185310000Y-101361250D01*
G75*
G02*
X185066250Y-101605000I-243750J0D01*
G01*
X184503750Y-101605000D01*
G75*
G02*
X184260000Y-101361250I0J243750D01*
G01*
X184260000Y-100873750D01*
G75*
G02*
X184503750Y-100630000I243750J0D01*
G01*
G37*
G36*
G01*
X184503750Y-99055000D02*
X185066250Y-99055000D01*
G75*
G02*
X185310000Y-99298750I0J-243750D01*
G01*
X185310000Y-99786250D01*
G75*
G02*
X185066250Y-100030000I-243750J0D01*
G01*
X184503750Y-100030000D01*
G75*
G02*
X184260000Y-99786250I0J243750D01*
G01*
X184260000Y-99298750D01*
G75*
G02*
X184503750Y-99055000I243750J0D01*
G01*
G37*
%TD*%
%TO.C,D2*%
G36*
G01*
X185066250Y-103205000D02*
X184503750Y-103205000D01*
G75*
G02*
X184260000Y-102961250I0J243750D01*
G01*
X184260000Y-102473750D01*
G75*
G02*
X184503750Y-102230000I243750J0D01*
G01*
X185066250Y-102230000D01*
G75*
G02*
X185310000Y-102473750I0J-243750D01*
G01*
X185310000Y-102961250D01*
G75*
G02*
X185066250Y-103205000I-243750J0D01*
G01*
G37*
G36*
G01*
X185066250Y-104780000D02*
X184503750Y-104780000D01*
G75*
G02*
X184260000Y-104536250I0J243750D01*
G01*
X184260000Y-104048750D01*
G75*
G02*
X184503750Y-103805000I243750J0D01*
G01*
X185066250Y-103805000D01*
G75*
G02*
X185310000Y-104048750I0J-243750D01*
G01*
X185310000Y-104536250D01*
G75*
G02*
X185066250Y-104780000I-243750J0D01*
G01*
G37*
%TD*%
%TO.C,R3*%
G36*
G01*
X164662500Y-98920000D02*
X164267500Y-98920000D01*
G75*
G02*
X164095000Y-98747500I0J172500D01*
G01*
X164095000Y-98402500D01*
G75*
G02*
X164267500Y-98230000I172500J0D01*
G01*
X164662500Y-98230000D01*
G75*
G02*
X164835000Y-98402500I0J-172500D01*
G01*
X164835000Y-98747500D01*
G75*
G02*
X164662500Y-98920000I-172500J0D01*
G01*
G37*
G36*
G01*
X164662500Y-99890000D02*
X164267500Y-99890000D01*
G75*
G02*
X164095000Y-99717500I0J172500D01*
G01*
X164095000Y-99372500D01*
G75*
G02*
X164267500Y-99200000I172500J0D01*
G01*
X164662500Y-99200000D01*
G75*
G02*
X164835000Y-99372500I0J-172500D01*
G01*
X164835000Y-99717500D01*
G75*
G02*
X164662500Y-99890000I-172500J0D01*
G01*
G37*
%TD*%
%TO.C,C7*%
G36*
G01*
X164662500Y-96380000D02*
X164267500Y-96380000D01*
G75*
G02*
X164095000Y-96207500I0J172500D01*
G01*
X164095000Y-95862500D01*
G75*
G02*
X164267500Y-95690000I172500J0D01*
G01*
X164662500Y-95690000D01*
G75*
G02*
X164835000Y-95862500I0J-172500D01*
G01*
X164835000Y-96207500D01*
G75*
G02*
X164662500Y-96380000I-172500J0D01*
G01*
G37*
G36*
G01*
X164662500Y-97350000D02*
X164267500Y-97350000D01*
G75*
G02*
X164095000Y-97177500I0J172500D01*
G01*
X164095000Y-96832500D01*
G75*
G02*
X164267500Y-96660000I172500J0D01*
G01*
X164662500Y-96660000D01*
G75*
G02*
X164835000Y-96832500I0J-172500D01*
G01*
X164835000Y-97177500D01*
G75*
G02*
X164662500Y-97350000I-172500J0D01*
G01*
G37*
%TD*%
D17*
%TO.C,SW1*%
X162535000Y-100325000D03*
X156235000Y-100325000D03*
X162535000Y-96525000D03*
X156235000Y-96525000D03*
%TD*%
D18*
%TO.C,U1*%
X186930000Y-106020000D03*
X191530000Y-106020000D03*
X189230000Y-106020000D03*
D19*
X189230000Y-99720000D03*
%TD*%
D20*
%TO.C,J5*%
X153035000Y-97790000D03*
X153035000Y-100330000D03*
X153035000Y-102870000D03*
D21*
X153035000Y-105410000D03*
%TD*%
D20*
%TO.C,J4*%
X161925000Y-103505000D03*
X161925000Y-106045000D03*
X159385000Y-103505000D03*
X159385000Y-106045000D03*
X156845000Y-103505000D03*
D21*
X156845000Y-106045000D03*
%TD*%
D20*
%TO.C,J3*%
X201930000Y-93980000D03*
X199390000Y-93980000D03*
X196850000Y-93980000D03*
X194310000Y-93980000D03*
X191770000Y-93980000D03*
X189230000Y-93980000D03*
X186690000Y-93980000D03*
X184150000Y-93980000D03*
X181610000Y-93980000D03*
X179070000Y-93980000D03*
X176530000Y-93980000D03*
X173990000Y-93980000D03*
X171450000Y-93980000D03*
X168910000Y-93980000D03*
X166370000Y-93980000D03*
X163830000Y-93980000D03*
X161290000Y-93980000D03*
X158750000Y-93980000D03*
X156210000Y-93980000D03*
D21*
X153670000Y-93980000D03*
%TD*%
D20*
%TO.C,J2*%
X201930000Y-109220000D03*
X199390000Y-109220000D03*
X196850000Y-109220000D03*
X194310000Y-109220000D03*
X191770000Y-109220000D03*
X189230000Y-109220000D03*
X186690000Y-109220000D03*
X184150000Y-109220000D03*
X181610000Y-109220000D03*
X179070000Y-109220000D03*
X176530000Y-109220000D03*
X173990000Y-109220000D03*
X171450000Y-109220000D03*
X168910000Y-109220000D03*
X166370000Y-109220000D03*
X163830000Y-109220000D03*
X161290000Y-109220000D03*
X158750000Y-109220000D03*
X156210000Y-109220000D03*
D21*
X153670000Y-109220000D03*
%TD*%
D22*
%TO.C,D1*%
X194310000Y-99315000D03*
X194310000Y-102615000D03*
%TD*%
%TO.C,C6*%
G36*
G01*
X170377500Y-98285000D02*
X169982500Y-98285000D01*
G75*
G02*
X169810000Y-98112500I0J172500D01*
G01*
X169810000Y-97767500D01*
G75*
G02*
X169982500Y-97595000I172500J0D01*
G01*
X170377500Y-97595000D01*
G75*
G02*
X170550000Y-97767500I0J-172500D01*
G01*
X170550000Y-98112500D01*
G75*
G02*
X170377500Y-98285000I-172500J0D01*
G01*
G37*
G36*
G01*
X170377500Y-99255000D02*
X169982500Y-99255000D01*
G75*
G02*
X169810000Y-99082500I0J172500D01*
G01*
X169810000Y-98737500D01*
G75*
G02*
X169982500Y-98565000I172500J0D01*
G01*
X170377500Y-98565000D01*
G75*
G02*
X170550000Y-98737500I0J-172500D01*
G01*
X170550000Y-99082500D01*
G75*
G02*
X170377500Y-99255000I-172500J0D01*
G01*
G37*
%TD*%
%TO.C,C5*%
G36*
G01*
X170190000Y-105847500D02*
X170190000Y-106242500D01*
G75*
G02*
X170017500Y-106415000I-172500J0D01*
G01*
X169672500Y-106415000D01*
G75*
G02*
X169500000Y-106242500I0J172500D01*
G01*
X169500000Y-105847500D01*
G75*
G02*
X169672500Y-105675000I172500J0D01*
G01*
X170017500Y-105675000D01*
G75*
G02*
X170190000Y-105847500I0J-172500D01*
G01*
G37*
G36*
G01*
X171160000Y-105847500D02*
X171160000Y-106242500D01*
G75*
G02*
X170987500Y-106415000I-172500J0D01*
G01*
X170642500Y-106415000D01*
G75*
G02*
X170470000Y-106242500I0J172500D01*
G01*
X170470000Y-105847500D01*
G75*
G02*
X170642500Y-105675000I172500J0D01*
G01*
X170987500Y-105675000D01*
G75*
G02*
X171160000Y-105847500I0J-172500D01*
G01*
G37*
%TD*%
%TO.C,C4*%
G36*
G01*
X179060000Y-96082500D02*
X179060000Y-95687500D01*
G75*
G02*
X179232500Y-95515000I172500J0D01*
G01*
X179577500Y-95515000D01*
G75*
G02*
X179750000Y-95687500I0J-172500D01*
G01*
X179750000Y-96082500D01*
G75*
G02*
X179577500Y-96255000I-172500J0D01*
G01*
X179232500Y-96255000D01*
G75*
G02*
X179060000Y-96082500I0J172500D01*
G01*
G37*
G36*
G01*
X178090000Y-96082500D02*
X178090000Y-95687500D01*
G75*
G02*
X178262500Y-95515000I172500J0D01*
G01*
X178607500Y-95515000D01*
G75*
G02*
X178780000Y-95687500I0J-172500D01*
G01*
X178780000Y-96082500D01*
G75*
G02*
X178607500Y-96255000I-172500J0D01*
G01*
X178262500Y-96255000D01*
G75*
G02*
X178090000Y-96082500I0J172500D01*
G01*
G37*
%TD*%
%TO.C,C3*%
G36*
G01*
X182442500Y-101460000D02*
X182047500Y-101460000D01*
G75*
G02*
X181875000Y-101287500I0J172500D01*
G01*
X181875000Y-100942500D01*
G75*
G02*
X182047500Y-100770000I172500J0D01*
G01*
X182442500Y-100770000D01*
G75*
G02*
X182615000Y-100942500I0J-172500D01*
G01*
X182615000Y-101287500D01*
G75*
G02*
X182442500Y-101460000I-172500J0D01*
G01*
G37*
G36*
G01*
X182442500Y-102430000D02*
X182047500Y-102430000D01*
G75*
G02*
X181875000Y-102257500I0J172500D01*
G01*
X181875000Y-101912500D01*
G75*
G02*
X182047500Y-101740000I172500J0D01*
G01*
X182442500Y-101740000D01*
G75*
G02*
X182615000Y-101912500I0J-172500D01*
G01*
X182615000Y-102257500D01*
G75*
G02*
X182442500Y-102430000I-172500J0D01*
G01*
G37*
%TD*%
%TO.C,C2*%
G36*
G01*
X182398750Y-105175000D02*
X183361250Y-105175000D01*
G75*
G02*
X183630000Y-105443750I0J-268750D01*
G01*
X183630000Y-105981250D01*
G75*
G02*
X183361250Y-106250000I-268750J0D01*
G01*
X182398750Y-106250000D01*
G75*
G02*
X182130000Y-105981250I0J268750D01*
G01*
X182130000Y-105443750D01*
G75*
G02*
X182398750Y-105175000I268750J0D01*
G01*
G37*
G36*
G01*
X182398750Y-103300000D02*
X183361250Y-103300000D01*
G75*
G02*
X183630000Y-103568750I0J-268750D01*
G01*
X183630000Y-104106250D01*
G75*
G02*
X183361250Y-104375000I-268750J0D01*
G01*
X182398750Y-104375000D01*
G75*
G02*
X182130000Y-104106250I0J268750D01*
G01*
X182130000Y-103568750D01*
G75*
G02*
X182398750Y-103300000I268750J0D01*
G01*
G37*
%TD*%
%TO.C,C1*%
G36*
G01*
X194791250Y-105010000D02*
X193828750Y-105010000D01*
G75*
G02*
X193560000Y-104741250I0J268750D01*
G01*
X193560000Y-104203750D01*
G75*
G02*
X193828750Y-103935000I268750J0D01*
G01*
X194791250Y-103935000D01*
G75*
G02*
X195060000Y-104203750I0J-268750D01*
G01*
X195060000Y-104741250D01*
G75*
G02*
X194791250Y-105010000I-268750J0D01*
G01*
G37*
G36*
G01*
X194791250Y-106885000D02*
X193828750Y-106885000D01*
G75*
G02*
X193560000Y-106616250I0J268750D01*
G01*
X193560000Y-106078750D01*
G75*
G02*
X193828750Y-105810000I268750J0D01*
G01*
X194791250Y-105810000D01*
G75*
G02*
X195060000Y-106078750I0J-268750D01*
G01*
X195060000Y-106616250D01*
G75*
G02*
X194791250Y-106885000I-268750J0D01*
G01*
G37*
%TD*%
M02*
