%TF.GenerationSoftware,KiCad,Pcbnew,5.1.6+dfsg1-1*%
%TF.CreationDate,2020-06-23T10:35:08+08:00*%
%TF.ProjectId,stm32devmini,73746d33-3264-4657-966d-696e692e6b69,rev?*%
%TF.SameCoordinates,Original*%
%TF.FileFunction,Copper,L2,Bot*%
%TF.FilePolarity,Positive*%
%FSLAX46Y46*%
G04 Gerber Fmt 4.6, Leading zero omitted, Abs format (unit mm)*
G04 Created by KiCad (PCBNEW 5.1.6+dfsg1-1) date 2020-06-23 10:35:08*
%MOMM*%
%LPD*%
G01*
G04 APERTURE LIST*
%TA.AperFunction,ComponentPad*%
%ADD10O,1.700000X1.700000*%
%TD*%
%TA.AperFunction,ComponentPad*%
%ADD11R,1.700000X1.700000*%
%TD*%
%TA.AperFunction,ComponentPad*%
%ADD12O,1.900000X1.200000*%
%TD*%
%TA.AperFunction,ComponentPad*%
%ADD13C,1.450000*%
%TD*%
%TA.AperFunction,ViaPad*%
%ADD14C,0.700000*%
%TD*%
%TA.AperFunction,Conductor*%
%ADD15C,0.152400*%
%TD*%
G04 APERTURE END LIST*
D10*
%TO.P,J5,4*%
%TO.N,GND*%
X153035000Y-97790000D03*
%TO.P,J5,3*%
%TO.N,SWCLK*%
X153035000Y-100330000D03*
%TO.P,J5,2*%
%TO.N,SWDIO*%
X153035000Y-102870000D03*
D11*
%TO.P,J5,1*%
%TO.N,+3V3*%
X153035000Y-105410000D03*
%TD*%
D10*
%TO.P,J4,6*%
%TO.N,GND*%
X161925000Y-103505000D03*
%TO.P,J4,5*%
X161925000Y-106045000D03*
%TO.P,J4,4*%
%TO.N,BO1*%
X159385000Y-103505000D03*
%TO.P,J4,3*%
%TO.N,BO0*%
X159385000Y-106045000D03*
%TO.P,J4,2*%
%TO.N,+3V3*%
X156845000Y-103505000D03*
D11*
%TO.P,J4,1*%
X156845000Y-106045000D03*
%TD*%
D10*
%TO.P,J3,20*%
%TO.N,B12*%
X201930000Y-93980000D03*
%TO.P,J3,19*%
%TO.N,B13*%
X199390000Y-93980000D03*
%TO.P,J3,18*%
%TO.N,B14*%
X196850000Y-93980000D03*
%TO.P,J3,17*%
%TO.N,B15*%
X194310000Y-93980000D03*
%TO.P,J3,16*%
%TO.N,A8*%
X191770000Y-93980000D03*
%TO.P,J3,15*%
%TO.N,A9*%
X189230000Y-93980000D03*
%TO.P,J3,14*%
%TO.N,A10*%
X186690000Y-93980000D03*
%TO.P,J3,13*%
%TO.N,A11*%
X184150000Y-93980000D03*
%TO.P,J3,12*%
%TO.N,A12*%
X181610000Y-93980000D03*
%TO.P,J3,11*%
%TO.N,A15*%
X179070000Y-93980000D03*
%TO.P,J3,10*%
%TO.N,B3*%
X176530000Y-93980000D03*
%TO.P,J3,9*%
%TO.N,B4*%
X173990000Y-93980000D03*
%TO.P,J3,8*%
%TO.N,B5*%
X171450000Y-93980000D03*
%TO.P,J3,7*%
%TO.N,B6*%
X168910000Y-93980000D03*
%TO.P,J3,6*%
%TO.N,B7*%
X166370000Y-93980000D03*
%TO.P,J3,5*%
%TO.N,B8*%
X163830000Y-93980000D03*
%TO.P,J3,4*%
%TO.N,B9*%
X161290000Y-93980000D03*
%TO.P,J3,3*%
%TO.N,Net-(J3-Pad3)*%
X158750000Y-93980000D03*
%TO.P,J3,2*%
%TO.N,Net-(J3-Pad2)*%
X156210000Y-93980000D03*
D11*
%TO.P,J3,1*%
%TO.N,Net-(J3-Pad1)*%
X153670000Y-93980000D03*
%TD*%
D10*
%TO.P,J2,20*%
%TO.N,Net-(J2-Pad20)*%
X201930000Y-109220000D03*
%TO.P,J2,19*%
%TO.N,Net-(J2-Pad19)*%
X199390000Y-109220000D03*
%TO.P,J2,18*%
%TO.N,Net-(J2-Pad18)*%
X196850000Y-109220000D03*
%TO.P,J2,17*%
%TO.N,Net-(J2-Pad17)*%
X194310000Y-109220000D03*
%TO.P,J2,16*%
%TO.N,B11*%
X191770000Y-109220000D03*
%TO.P,J2,15*%
%TO.N,B10*%
X189230000Y-109220000D03*
%TO.P,J2,14*%
%TO.N,B1*%
X186690000Y-109220000D03*
%TO.P,J2,13*%
%TO.N,B0*%
X184150000Y-109220000D03*
%TO.P,J2,12*%
%TO.N,A7*%
X181610000Y-109220000D03*
%TO.P,J2,11*%
%TO.N,A6*%
X179070000Y-109220000D03*
%TO.P,J2,10*%
%TO.N,A5*%
X176530000Y-109220000D03*
%TO.P,J2,9*%
%TO.N,A4*%
X173990000Y-109220000D03*
%TO.P,J2,8*%
%TO.N,A3*%
X171450000Y-109220000D03*
%TO.P,J2,7*%
%TO.N,A2*%
X168910000Y-109220000D03*
%TO.P,J2,6*%
%TO.N,A1*%
X166370000Y-109220000D03*
%TO.P,J2,5*%
%TO.N,A0*%
X163830000Y-109220000D03*
%TO.P,J2,4*%
%TO.N,C15*%
X161290000Y-109220000D03*
%TO.P,J2,3*%
%TO.N,C14*%
X158750000Y-109220000D03*
%TO.P,J2,2*%
%TO.N,C13*%
X156210000Y-109220000D03*
D11*
%TO.P,J2,1*%
%TO.N,Net-(J2-Pad1)*%
X153670000Y-109220000D03*
%TD*%
D12*
%TO.P,J1,6*%
%TO.N,GND*%
X202532500Y-98100000D03*
X202532500Y-105100000D03*
D13*
X199832500Y-99100000D03*
X199832500Y-104100000D03*
%TD*%
D14*
%TO.N,+3V3*%
X191770000Y-102870000D03*
X191770000Y-101600000D03*
X191770000Y-104140000D03*
X190500000Y-104140000D03*
X190500000Y-102870000D03*
X190500000Y-101600000D03*
X193040000Y-101600000D03*
X193040000Y-102870000D03*
X193040000Y-104140000D03*
%TO.N,A12*%
X195580000Y-100965000D03*
%TO.N,A11*%
X195580000Y-102235000D03*
%TD*%
D15*
%TO.N,GND*%
G36*
X203581400Y-97655211D02*
G01*
X203522290Y-97567973D01*
X203406203Y-97453379D01*
X203269991Y-97363634D01*
X203118888Y-97302187D01*
X202958700Y-97271400D01*
X202608700Y-97271400D01*
X202608700Y-98023800D01*
X202628700Y-98023800D01*
X202628700Y-98176200D01*
X202608700Y-98176200D01*
X202608700Y-98928600D01*
X202958700Y-98928600D01*
X203118888Y-98897813D01*
X203269991Y-98836366D01*
X203406203Y-98746621D01*
X203522290Y-98632027D01*
X203581400Y-98544789D01*
X203581401Y-104655211D01*
X203522290Y-104567973D01*
X203406203Y-104453379D01*
X203269991Y-104363634D01*
X203118888Y-104302187D01*
X202958700Y-104271400D01*
X202608700Y-104271400D01*
X202608700Y-105023800D01*
X202628700Y-105023800D01*
X202628700Y-105176200D01*
X202608700Y-105176200D01*
X202608700Y-105928600D01*
X202958700Y-105928600D01*
X203118888Y-105897813D01*
X203269991Y-105836366D01*
X203406203Y-105746621D01*
X203522290Y-105632027D01*
X203581401Y-105544789D01*
X203581401Y-111506400D01*
X152018600Y-111506400D01*
X152018600Y-108370000D01*
X152590294Y-108370000D01*
X152590294Y-110070000D01*
X152594708Y-110114813D01*
X152607779Y-110157905D01*
X152629006Y-110197618D01*
X152657573Y-110232427D01*
X152692382Y-110260994D01*
X152732095Y-110282221D01*
X152775187Y-110295292D01*
X152820000Y-110299706D01*
X154520000Y-110299706D01*
X154564813Y-110295292D01*
X154607905Y-110282221D01*
X154647618Y-110260994D01*
X154682427Y-110232427D01*
X154710994Y-110197618D01*
X154732221Y-110157905D01*
X154745292Y-110114813D01*
X154749706Y-110070000D01*
X154749706Y-109113767D01*
X155131400Y-109113767D01*
X155131400Y-109326233D01*
X155172850Y-109534616D01*
X155254157Y-109730909D01*
X155372197Y-109907567D01*
X155522433Y-110057803D01*
X155699091Y-110175843D01*
X155895384Y-110257150D01*
X156103767Y-110298600D01*
X156316233Y-110298600D01*
X156524616Y-110257150D01*
X156720909Y-110175843D01*
X156897567Y-110057803D01*
X157047803Y-109907567D01*
X157165843Y-109730909D01*
X157247150Y-109534616D01*
X157288600Y-109326233D01*
X157288600Y-109113767D01*
X157671400Y-109113767D01*
X157671400Y-109326233D01*
X157712850Y-109534616D01*
X157794157Y-109730909D01*
X157912197Y-109907567D01*
X158062433Y-110057803D01*
X158239091Y-110175843D01*
X158435384Y-110257150D01*
X158643767Y-110298600D01*
X158856233Y-110298600D01*
X159064616Y-110257150D01*
X159260909Y-110175843D01*
X159437567Y-110057803D01*
X159587803Y-109907567D01*
X159705843Y-109730909D01*
X159787150Y-109534616D01*
X159828600Y-109326233D01*
X159828600Y-109113767D01*
X160211400Y-109113767D01*
X160211400Y-109326233D01*
X160252850Y-109534616D01*
X160334157Y-109730909D01*
X160452197Y-109907567D01*
X160602433Y-110057803D01*
X160779091Y-110175843D01*
X160975384Y-110257150D01*
X161183767Y-110298600D01*
X161396233Y-110298600D01*
X161604616Y-110257150D01*
X161800909Y-110175843D01*
X161977567Y-110057803D01*
X162127803Y-109907567D01*
X162245843Y-109730909D01*
X162327150Y-109534616D01*
X162368600Y-109326233D01*
X162368600Y-109113767D01*
X162751400Y-109113767D01*
X162751400Y-109326233D01*
X162792850Y-109534616D01*
X162874157Y-109730909D01*
X162992197Y-109907567D01*
X163142433Y-110057803D01*
X163319091Y-110175843D01*
X163515384Y-110257150D01*
X163723767Y-110298600D01*
X163936233Y-110298600D01*
X164144616Y-110257150D01*
X164340909Y-110175843D01*
X164517567Y-110057803D01*
X164667803Y-109907567D01*
X164785843Y-109730909D01*
X164867150Y-109534616D01*
X164908600Y-109326233D01*
X164908600Y-109113767D01*
X165291400Y-109113767D01*
X165291400Y-109326233D01*
X165332850Y-109534616D01*
X165414157Y-109730909D01*
X165532197Y-109907567D01*
X165682433Y-110057803D01*
X165859091Y-110175843D01*
X166055384Y-110257150D01*
X166263767Y-110298600D01*
X166476233Y-110298600D01*
X166684616Y-110257150D01*
X166880909Y-110175843D01*
X167057567Y-110057803D01*
X167207803Y-109907567D01*
X167325843Y-109730909D01*
X167407150Y-109534616D01*
X167448600Y-109326233D01*
X167448600Y-109113767D01*
X167831400Y-109113767D01*
X167831400Y-109326233D01*
X167872850Y-109534616D01*
X167954157Y-109730909D01*
X168072197Y-109907567D01*
X168222433Y-110057803D01*
X168399091Y-110175843D01*
X168595384Y-110257150D01*
X168803767Y-110298600D01*
X169016233Y-110298600D01*
X169224616Y-110257150D01*
X169420909Y-110175843D01*
X169597567Y-110057803D01*
X169747803Y-109907567D01*
X169865843Y-109730909D01*
X169947150Y-109534616D01*
X169988600Y-109326233D01*
X169988600Y-109113767D01*
X170371400Y-109113767D01*
X170371400Y-109326233D01*
X170412850Y-109534616D01*
X170494157Y-109730909D01*
X170612197Y-109907567D01*
X170762433Y-110057803D01*
X170939091Y-110175843D01*
X171135384Y-110257150D01*
X171343767Y-110298600D01*
X171556233Y-110298600D01*
X171764616Y-110257150D01*
X171960909Y-110175843D01*
X172137567Y-110057803D01*
X172287803Y-109907567D01*
X172405843Y-109730909D01*
X172487150Y-109534616D01*
X172528600Y-109326233D01*
X172528600Y-109113767D01*
X172911400Y-109113767D01*
X172911400Y-109326233D01*
X172952850Y-109534616D01*
X173034157Y-109730909D01*
X173152197Y-109907567D01*
X173302433Y-110057803D01*
X173479091Y-110175843D01*
X173675384Y-110257150D01*
X173883767Y-110298600D01*
X174096233Y-110298600D01*
X174304616Y-110257150D01*
X174500909Y-110175843D01*
X174677567Y-110057803D01*
X174827803Y-109907567D01*
X174945843Y-109730909D01*
X175027150Y-109534616D01*
X175068600Y-109326233D01*
X175068600Y-109113767D01*
X175451400Y-109113767D01*
X175451400Y-109326233D01*
X175492850Y-109534616D01*
X175574157Y-109730909D01*
X175692197Y-109907567D01*
X175842433Y-110057803D01*
X176019091Y-110175843D01*
X176215384Y-110257150D01*
X176423767Y-110298600D01*
X176636233Y-110298600D01*
X176844616Y-110257150D01*
X177040909Y-110175843D01*
X177217567Y-110057803D01*
X177367803Y-109907567D01*
X177485843Y-109730909D01*
X177567150Y-109534616D01*
X177608600Y-109326233D01*
X177608600Y-109113767D01*
X177991400Y-109113767D01*
X177991400Y-109326233D01*
X178032850Y-109534616D01*
X178114157Y-109730909D01*
X178232197Y-109907567D01*
X178382433Y-110057803D01*
X178559091Y-110175843D01*
X178755384Y-110257150D01*
X178963767Y-110298600D01*
X179176233Y-110298600D01*
X179384616Y-110257150D01*
X179580909Y-110175843D01*
X179757567Y-110057803D01*
X179907803Y-109907567D01*
X180025843Y-109730909D01*
X180107150Y-109534616D01*
X180148600Y-109326233D01*
X180148600Y-109113767D01*
X180531400Y-109113767D01*
X180531400Y-109326233D01*
X180572850Y-109534616D01*
X180654157Y-109730909D01*
X180772197Y-109907567D01*
X180922433Y-110057803D01*
X181099091Y-110175843D01*
X181295384Y-110257150D01*
X181503767Y-110298600D01*
X181716233Y-110298600D01*
X181924616Y-110257150D01*
X182120909Y-110175843D01*
X182297567Y-110057803D01*
X182447803Y-109907567D01*
X182565843Y-109730909D01*
X182647150Y-109534616D01*
X182688600Y-109326233D01*
X182688600Y-109113767D01*
X183071400Y-109113767D01*
X183071400Y-109326233D01*
X183112850Y-109534616D01*
X183194157Y-109730909D01*
X183312197Y-109907567D01*
X183462433Y-110057803D01*
X183639091Y-110175843D01*
X183835384Y-110257150D01*
X184043767Y-110298600D01*
X184256233Y-110298600D01*
X184464616Y-110257150D01*
X184660909Y-110175843D01*
X184837567Y-110057803D01*
X184987803Y-109907567D01*
X185105843Y-109730909D01*
X185187150Y-109534616D01*
X185228600Y-109326233D01*
X185228600Y-109113767D01*
X185611400Y-109113767D01*
X185611400Y-109326233D01*
X185652850Y-109534616D01*
X185734157Y-109730909D01*
X185852197Y-109907567D01*
X186002433Y-110057803D01*
X186179091Y-110175843D01*
X186375384Y-110257150D01*
X186583767Y-110298600D01*
X186796233Y-110298600D01*
X187004616Y-110257150D01*
X187200909Y-110175843D01*
X187377567Y-110057803D01*
X187527803Y-109907567D01*
X187645843Y-109730909D01*
X187727150Y-109534616D01*
X187768600Y-109326233D01*
X187768600Y-109113767D01*
X188151400Y-109113767D01*
X188151400Y-109326233D01*
X188192850Y-109534616D01*
X188274157Y-109730909D01*
X188392197Y-109907567D01*
X188542433Y-110057803D01*
X188719091Y-110175843D01*
X188915384Y-110257150D01*
X189123767Y-110298600D01*
X189336233Y-110298600D01*
X189544616Y-110257150D01*
X189740909Y-110175843D01*
X189917567Y-110057803D01*
X190067803Y-109907567D01*
X190185843Y-109730909D01*
X190267150Y-109534616D01*
X190308600Y-109326233D01*
X190308600Y-109113767D01*
X190691400Y-109113767D01*
X190691400Y-109326233D01*
X190732850Y-109534616D01*
X190814157Y-109730909D01*
X190932197Y-109907567D01*
X191082433Y-110057803D01*
X191259091Y-110175843D01*
X191455384Y-110257150D01*
X191663767Y-110298600D01*
X191876233Y-110298600D01*
X192084616Y-110257150D01*
X192280909Y-110175843D01*
X192457567Y-110057803D01*
X192607803Y-109907567D01*
X192725843Y-109730909D01*
X192807150Y-109534616D01*
X192848600Y-109326233D01*
X192848600Y-109113767D01*
X193231400Y-109113767D01*
X193231400Y-109326233D01*
X193272850Y-109534616D01*
X193354157Y-109730909D01*
X193472197Y-109907567D01*
X193622433Y-110057803D01*
X193799091Y-110175843D01*
X193995384Y-110257150D01*
X194203767Y-110298600D01*
X194416233Y-110298600D01*
X194624616Y-110257150D01*
X194820909Y-110175843D01*
X194997567Y-110057803D01*
X195147803Y-109907567D01*
X195265843Y-109730909D01*
X195347150Y-109534616D01*
X195388600Y-109326233D01*
X195388600Y-109113767D01*
X195771400Y-109113767D01*
X195771400Y-109326233D01*
X195812850Y-109534616D01*
X195894157Y-109730909D01*
X196012197Y-109907567D01*
X196162433Y-110057803D01*
X196339091Y-110175843D01*
X196535384Y-110257150D01*
X196743767Y-110298600D01*
X196956233Y-110298600D01*
X197164616Y-110257150D01*
X197360909Y-110175843D01*
X197537567Y-110057803D01*
X197687803Y-109907567D01*
X197805843Y-109730909D01*
X197887150Y-109534616D01*
X197928600Y-109326233D01*
X197928600Y-109113767D01*
X198311400Y-109113767D01*
X198311400Y-109326233D01*
X198352850Y-109534616D01*
X198434157Y-109730909D01*
X198552197Y-109907567D01*
X198702433Y-110057803D01*
X198879091Y-110175843D01*
X199075384Y-110257150D01*
X199283767Y-110298600D01*
X199496233Y-110298600D01*
X199704616Y-110257150D01*
X199900909Y-110175843D01*
X200077567Y-110057803D01*
X200227803Y-109907567D01*
X200345843Y-109730909D01*
X200427150Y-109534616D01*
X200468600Y-109326233D01*
X200468600Y-109113767D01*
X200851400Y-109113767D01*
X200851400Y-109326233D01*
X200892850Y-109534616D01*
X200974157Y-109730909D01*
X201092197Y-109907567D01*
X201242433Y-110057803D01*
X201419091Y-110175843D01*
X201615384Y-110257150D01*
X201823767Y-110298600D01*
X202036233Y-110298600D01*
X202244616Y-110257150D01*
X202440909Y-110175843D01*
X202617567Y-110057803D01*
X202767803Y-109907567D01*
X202885843Y-109730909D01*
X202967150Y-109534616D01*
X203008600Y-109326233D01*
X203008600Y-109113767D01*
X202967150Y-108905384D01*
X202885843Y-108709091D01*
X202767803Y-108532433D01*
X202617567Y-108382197D01*
X202440909Y-108264157D01*
X202244616Y-108182850D01*
X202036233Y-108141400D01*
X201823767Y-108141400D01*
X201615384Y-108182850D01*
X201419091Y-108264157D01*
X201242433Y-108382197D01*
X201092197Y-108532433D01*
X200974157Y-108709091D01*
X200892850Y-108905384D01*
X200851400Y-109113767D01*
X200468600Y-109113767D01*
X200427150Y-108905384D01*
X200345843Y-108709091D01*
X200227803Y-108532433D01*
X200077567Y-108382197D01*
X199900909Y-108264157D01*
X199704616Y-108182850D01*
X199496233Y-108141400D01*
X199283767Y-108141400D01*
X199075384Y-108182850D01*
X198879091Y-108264157D01*
X198702433Y-108382197D01*
X198552197Y-108532433D01*
X198434157Y-108709091D01*
X198352850Y-108905384D01*
X198311400Y-109113767D01*
X197928600Y-109113767D01*
X197887150Y-108905384D01*
X197805843Y-108709091D01*
X197687803Y-108532433D01*
X197537567Y-108382197D01*
X197360909Y-108264157D01*
X197164616Y-108182850D01*
X196956233Y-108141400D01*
X196743767Y-108141400D01*
X196535384Y-108182850D01*
X196339091Y-108264157D01*
X196162433Y-108382197D01*
X196012197Y-108532433D01*
X195894157Y-108709091D01*
X195812850Y-108905384D01*
X195771400Y-109113767D01*
X195388600Y-109113767D01*
X195347150Y-108905384D01*
X195265843Y-108709091D01*
X195147803Y-108532433D01*
X194997567Y-108382197D01*
X194820909Y-108264157D01*
X194624616Y-108182850D01*
X194416233Y-108141400D01*
X194203767Y-108141400D01*
X193995384Y-108182850D01*
X193799091Y-108264157D01*
X193622433Y-108382197D01*
X193472197Y-108532433D01*
X193354157Y-108709091D01*
X193272850Y-108905384D01*
X193231400Y-109113767D01*
X192848600Y-109113767D01*
X192807150Y-108905384D01*
X192725843Y-108709091D01*
X192607803Y-108532433D01*
X192457567Y-108382197D01*
X192280909Y-108264157D01*
X192084616Y-108182850D01*
X191876233Y-108141400D01*
X191663767Y-108141400D01*
X191455384Y-108182850D01*
X191259091Y-108264157D01*
X191082433Y-108382197D01*
X190932197Y-108532433D01*
X190814157Y-108709091D01*
X190732850Y-108905384D01*
X190691400Y-109113767D01*
X190308600Y-109113767D01*
X190267150Y-108905384D01*
X190185843Y-108709091D01*
X190067803Y-108532433D01*
X189917567Y-108382197D01*
X189740909Y-108264157D01*
X189544616Y-108182850D01*
X189336233Y-108141400D01*
X189123767Y-108141400D01*
X188915384Y-108182850D01*
X188719091Y-108264157D01*
X188542433Y-108382197D01*
X188392197Y-108532433D01*
X188274157Y-108709091D01*
X188192850Y-108905384D01*
X188151400Y-109113767D01*
X187768600Y-109113767D01*
X187727150Y-108905384D01*
X187645843Y-108709091D01*
X187527803Y-108532433D01*
X187377567Y-108382197D01*
X187200909Y-108264157D01*
X187004616Y-108182850D01*
X186796233Y-108141400D01*
X186583767Y-108141400D01*
X186375384Y-108182850D01*
X186179091Y-108264157D01*
X186002433Y-108382197D01*
X185852197Y-108532433D01*
X185734157Y-108709091D01*
X185652850Y-108905384D01*
X185611400Y-109113767D01*
X185228600Y-109113767D01*
X185187150Y-108905384D01*
X185105843Y-108709091D01*
X184987803Y-108532433D01*
X184837567Y-108382197D01*
X184660909Y-108264157D01*
X184464616Y-108182850D01*
X184256233Y-108141400D01*
X184043767Y-108141400D01*
X183835384Y-108182850D01*
X183639091Y-108264157D01*
X183462433Y-108382197D01*
X183312197Y-108532433D01*
X183194157Y-108709091D01*
X183112850Y-108905384D01*
X183071400Y-109113767D01*
X182688600Y-109113767D01*
X182647150Y-108905384D01*
X182565843Y-108709091D01*
X182447803Y-108532433D01*
X182297567Y-108382197D01*
X182120909Y-108264157D01*
X181924616Y-108182850D01*
X181716233Y-108141400D01*
X181503767Y-108141400D01*
X181295384Y-108182850D01*
X181099091Y-108264157D01*
X180922433Y-108382197D01*
X180772197Y-108532433D01*
X180654157Y-108709091D01*
X180572850Y-108905384D01*
X180531400Y-109113767D01*
X180148600Y-109113767D01*
X180107150Y-108905384D01*
X180025843Y-108709091D01*
X179907803Y-108532433D01*
X179757567Y-108382197D01*
X179580909Y-108264157D01*
X179384616Y-108182850D01*
X179176233Y-108141400D01*
X178963767Y-108141400D01*
X178755384Y-108182850D01*
X178559091Y-108264157D01*
X178382433Y-108382197D01*
X178232197Y-108532433D01*
X178114157Y-108709091D01*
X178032850Y-108905384D01*
X177991400Y-109113767D01*
X177608600Y-109113767D01*
X177567150Y-108905384D01*
X177485843Y-108709091D01*
X177367803Y-108532433D01*
X177217567Y-108382197D01*
X177040909Y-108264157D01*
X176844616Y-108182850D01*
X176636233Y-108141400D01*
X176423767Y-108141400D01*
X176215384Y-108182850D01*
X176019091Y-108264157D01*
X175842433Y-108382197D01*
X175692197Y-108532433D01*
X175574157Y-108709091D01*
X175492850Y-108905384D01*
X175451400Y-109113767D01*
X175068600Y-109113767D01*
X175027150Y-108905384D01*
X174945843Y-108709091D01*
X174827803Y-108532433D01*
X174677567Y-108382197D01*
X174500909Y-108264157D01*
X174304616Y-108182850D01*
X174096233Y-108141400D01*
X173883767Y-108141400D01*
X173675384Y-108182850D01*
X173479091Y-108264157D01*
X173302433Y-108382197D01*
X173152197Y-108532433D01*
X173034157Y-108709091D01*
X172952850Y-108905384D01*
X172911400Y-109113767D01*
X172528600Y-109113767D01*
X172487150Y-108905384D01*
X172405843Y-108709091D01*
X172287803Y-108532433D01*
X172137567Y-108382197D01*
X171960909Y-108264157D01*
X171764616Y-108182850D01*
X171556233Y-108141400D01*
X171343767Y-108141400D01*
X171135384Y-108182850D01*
X170939091Y-108264157D01*
X170762433Y-108382197D01*
X170612197Y-108532433D01*
X170494157Y-108709091D01*
X170412850Y-108905384D01*
X170371400Y-109113767D01*
X169988600Y-109113767D01*
X169947150Y-108905384D01*
X169865843Y-108709091D01*
X169747803Y-108532433D01*
X169597567Y-108382197D01*
X169420909Y-108264157D01*
X169224616Y-108182850D01*
X169016233Y-108141400D01*
X168803767Y-108141400D01*
X168595384Y-108182850D01*
X168399091Y-108264157D01*
X168222433Y-108382197D01*
X168072197Y-108532433D01*
X167954157Y-108709091D01*
X167872850Y-108905384D01*
X167831400Y-109113767D01*
X167448600Y-109113767D01*
X167407150Y-108905384D01*
X167325843Y-108709091D01*
X167207803Y-108532433D01*
X167057567Y-108382197D01*
X166880909Y-108264157D01*
X166684616Y-108182850D01*
X166476233Y-108141400D01*
X166263767Y-108141400D01*
X166055384Y-108182850D01*
X165859091Y-108264157D01*
X165682433Y-108382197D01*
X165532197Y-108532433D01*
X165414157Y-108709091D01*
X165332850Y-108905384D01*
X165291400Y-109113767D01*
X164908600Y-109113767D01*
X164867150Y-108905384D01*
X164785843Y-108709091D01*
X164667803Y-108532433D01*
X164517567Y-108382197D01*
X164340909Y-108264157D01*
X164144616Y-108182850D01*
X163936233Y-108141400D01*
X163723767Y-108141400D01*
X163515384Y-108182850D01*
X163319091Y-108264157D01*
X163142433Y-108382197D01*
X162992197Y-108532433D01*
X162874157Y-108709091D01*
X162792850Y-108905384D01*
X162751400Y-109113767D01*
X162368600Y-109113767D01*
X162327150Y-108905384D01*
X162245843Y-108709091D01*
X162127803Y-108532433D01*
X161977567Y-108382197D01*
X161800909Y-108264157D01*
X161604616Y-108182850D01*
X161396233Y-108141400D01*
X161183767Y-108141400D01*
X160975384Y-108182850D01*
X160779091Y-108264157D01*
X160602433Y-108382197D01*
X160452197Y-108532433D01*
X160334157Y-108709091D01*
X160252850Y-108905384D01*
X160211400Y-109113767D01*
X159828600Y-109113767D01*
X159787150Y-108905384D01*
X159705843Y-108709091D01*
X159587803Y-108532433D01*
X159437567Y-108382197D01*
X159260909Y-108264157D01*
X159064616Y-108182850D01*
X158856233Y-108141400D01*
X158643767Y-108141400D01*
X158435384Y-108182850D01*
X158239091Y-108264157D01*
X158062433Y-108382197D01*
X157912197Y-108532433D01*
X157794157Y-108709091D01*
X157712850Y-108905384D01*
X157671400Y-109113767D01*
X157288600Y-109113767D01*
X157247150Y-108905384D01*
X157165843Y-108709091D01*
X157047803Y-108532433D01*
X156897567Y-108382197D01*
X156720909Y-108264157D01*
X156524616Y-108182850D01*
X156316233Y-108141400D01*
X156103767Y-108141400D01*
X155895384Y-108182850D01*
X155699091Y-108264157D01*
X155522433Y-108382197D01*
X155372197Y-108532433D01*
X155254157Y-108709091D01*
X155172850Y-108905384D01*
X155131400Y-109113767D01*
X154749706Y-109113767D01*
X154749706Y-108370000D01*
X154745292Y-108325187D01*
X154732221Y-108282095D01*
X154710994Y-108242382D01*
X154682427Y-108207573D01*
X154647618Y-108179006D01*
X154607905Y-108157779D01*
X154564813Y-108144708D01*
X154520000Y-108140294D01*
X152820000Y-108140294D01*
X152775187Y-108144708D01*
X152732095Y-108157779D01*
X152692382Y-108179006D01*
X152657573Y-108207573D01*
X152629006Y-108242382D01*
X152607779Y-108282095D01*
X152594708Y-108325187D01*
X152590294Y-108370000D01*
X152018600Y-108370000D01*
X152018600Y-106417586D01*
X152022573Y-106422427D01*
X152057382Y-106450994D01*
X152097095Y-106472221D01*
X152140187Y-106485292D01*
X152185000Y-106489706D01*
X153885000Y-106489706D01*
X153929813Y-106485292D01*
X153972905Y-106472221D01*
X154012618Y-106450994D01*
X154047427Y-106422427D01*
X154075994Y-106387618D01*
X154097221Y-106347905D01*
X154110292Y-106304813D01*
X154114706Y-106260000D01*
X154114706Y-105195000D01*
X155765294Y-105195000D01*
X155765294Y-106895000D01*
X155769708Y-106939813D01*
X155782779Y-106982905D01*
X155804006Y-107022618D01*
X155832573Y-107057427D01*
X155867382Y-107085994D01*
X155907095Y-107107221D01*
X155950187Y-107120292D01*
X155995000Y-107124706D01*
X157695000Y-107124706D01*
X157739813Y-107120292D01*
X157782905Y-107107221D01*
X157822618Y-107085994D01*
X157857427Y-107057427D01*
X157885994Y-107022618D01*
X157907221Y-106982905D01*
X157920292Y-106939813D01*
X157924706Y-106895000D01*
X157924706Y-105938767D01*
X158306400Y-105938767D01*
X158306400Y-106151233D01*
X158347850Y-106359616D01*
X158429157Y-106555909D01*
X158547197Y-106732567D01*
X158697433Y-106882803D01*
X158874091Y-107000843D01*
X159070384Y-107082150D01*
X159278767Y-107123600D01*
X159491233Y-107123600D01*
X159699616Y-107082150D01*
X159895909Y-107000843D01*
X160072567Y-106882803D01*
X160222803Y-106732567D01*
X160340843Y-106555909D01*
X160422150Y-106359616D01*
X160436281Y-106288571D01*
X160874258Y-106288571D01*
X160941966Y-106488880D01*
X161047451Y-106672131D01*
X161186660Y-106831282D01*
X161354243Y-106960217D01*
X161543760Y-107053981D01*
X161681430Y-107095739D01*
X161848800Y-107063604D01*
X161848800Y-106121200D01*
X162001200Y-106121200D01*
X162001200Y-107063604D01*
X162168570Y-107095739D01*
X162306240Y-107053981D01*
X162495757Y-106960217D01*
X162663340Y-106831282D01*
X162802549Y-106672131D01*
X162908034Y-106488880D01*
X162975742Y-106288571D01*
X162943759Y-106121200D01*
X162001200Y-106121200D01*
X161848800Y-106121200D01*
X160906241Y-106121200D01*
X160874258Y-106288571D01*
X160436281Y-106288571D01*
X160463600Y-106151233D01*
X160463600Y-105938767D01*
X160436282Y-105801429D01*
X160874258Y-105801429D01*
X160906241Y-105968800D01*
X161848800Y-105968800D01*
X161848800Y-105026396D01*
X162001200Y-105026396D01*
X162001200Y-105968800D01*
X162943759Y-105968800D01*
X162975742Y-105801429D01*
X162908034Y-105601120D01*
X162802549Y-105417869D01*
X162663340Y-105258718D01*
X162495757Y-105129783D01*
X162306240Y-105036019D01*
X162168570Y-104994261D01*
X162001200Y-105026396D01*
X161848800Y-105026396D01*
X161681430Y-104994261D01*
X161543760Y-105036019D01*
X161354243Y-105129783D01*
X161186660Y-105258718D01*
X161047451Y-105417869D01*
X160941966Y-105601120D01*
X160874258Y-105801429D01*
X160436282Y-105801429D01*
X160422150Y-105730384D01*
X160340843Y-105534091D01*
X160222803Y-105357433D01*
X160072567Y-105207197D01*
X159895909Y-105089157D01*
X159699616Y-105007850D01*
X159491233Y-104966400D01*
X159278767Y-104966400D01*
X159070384Y-105007850D01*
X158874091Y-105089157D01*
X158697433Y-105207197D01*
X158547197Y-105357433D01*
X158429157Y-105534091D01*
X158347850Y-105730384D01*
X158306400Y-105938767D01*
X157924706Y-105938767D01*
X157924706Y-105195000D01*
X157920292Y-105150187D01*
X157907221Y-105107095D01*
X157885994Y-105067382D01*
X157857427Y-105032573D01*
X157822618Y-105004006D01*
X157782905Y-104982779D01*
X157739813Y-104969708D01*
X157695000Y-104965294D01*
X155995000Y-104965294D01*
X155950187Y-104969708D01*
X155907095Y-104982779D01*
X155867382Y-105004006D01*
X155832573Y-105032573D01*
X155804006Y-105067382D01*
X155782779Y-105107095D01*
X155769708Y-105150187D01*
X155765294Y-105195000D01*
X154114706Y-105195000D01*
X154114706Y-104560000D01*
X154110292Y-104515187D01*
X154097221Y-104472095D01*
X154075994Y-104432382D01*
X154047427Y-104397573D01*
X154012618Y-104369006D01*
X153972905Y-104347779D01*
X153929813Y-104334708D01*
X153885000Y-104330294D01*
X152185000Y-104330294D01*
X152140187Y-104334708D01*
X152097095Y-104347779D01*
X152057382Y-104369006D01*
X152022573Y-104397573D01*
X152018600Y-104402414D01*
X152018600Y-103234711D01*
X152079157Y-103380909D01*
X152197197Y-103557567D01*
X152347433Y-103707803D01*
X152524091Y-103825843D01*
X152720384Y-103907150D01*
X152928767Y-103948600D01*
X153141233Y-103948600D01*
X153349616Y-103907150D01*
X153545909Y-103825843D01*
X153722567Y-103707803D01*
X153872803Y-103557567D01*
X153978910Y-103398767D01*
X155766400Y-103398767D01*
X155766400Y-103611233D01*
X155807850Y-103819616D01*
X155889157Y-104015909D01*
X156007197Y-104192567D01*
X156157433Y-104342803D01*
X156334091Y-104460843D01*
X156530384Y-104542150D01*
X156738767Y-104583600D01*
X156951233Y-104583600D01*
X157159616Y-104542150D01*
X157355909Y-104460843D01*
X157532567Y-104342803D01*
X157682803Y-104192567D01*
X157800843Y-104015909D01*
X157882150Y-103819616D01*
X157923600Y-103611233D01*
X157923600Y-103398767D01*
X158306400Y-103398767D01*
X158306400Y-103611233D01*
X158347850Y-103819616D01*
X158429157Y-104015909D01*
X158547197Y-104192567D01*
X158697433Y-104342803D01*
X158874091Y-104460843D01*
X159070384Y-104542150D01*
X159278767Y-104583600D01*
X159491233Y-104583600D01*
X159699616Y-104542150D01*
X159895909Y-104460843D01*
X160072567Y-104342803D01*
X160222803Y-104192567D01*
X160340843Y-104015909D01*
X160422150Y-103819616D01*
X160436281Y-103748571D01*
X160874258Y-103748571D01*
X160941966Y-103948880D01*
X161047451Y-104132131D01*
X161186660Y-104291282D01*
X161354243Y-104420217D01*
X161543760Y-104513981D01*
X161681430Y-104555739D01*
X161848800Y-104523604D01*
X161848800Y-103581200D01*
X162001200Y-103581200D01*
X162001200Y-104523604D01*
X162168570Y-104555739D01*
X162306240Y-104513981D01*
X162495757Y-104420217D01*
X162663340Y-104291282D01*
X162802549Y-104132131D01*
X162908034Y-103948880D01*
X162975742Y-103748571D01*
X162943759Y-103581200D01*
X162001200Y-103581200D01*
X161848800Y-103581200D01*
X160906241Y-103581200D01*
X160874258Y-103748571D01*
X160436281Y-103748571D01*
X160463600Y-103611233D01*
X160463600Y-103398767D01*
X160436282Y-103261429D01*
X160874258Y-103261429D01*
X160906241Y-103428800D01*
X161848800Y-103428800D01*
X161848800Y-102486396D01*
X162001200Y-102486396D01*
X162001200Y-103428800D01*
X162943759Y-103428800D01*
X162975742Y-103261429D01*
X162908034Y-103061120D01*
X162802549Y-102877869D01*
X162663340Y-102718718D01*
X162495757Y-102589783D01*
X162306240Y-102496019D01*
X162168570Y-102454261D01*
X162001200Y-102486396D01*
X161848800Y-102486396D01*
X161681430Y-102454261D01*
X161543760Y-102496019D01*
X161354243Y-102589783D01*
X161186660Y-102718718D01*
X161047451Y-102877869D01*
X160941966Y-103061120D01*
X160874258Y-103261429D01*
X160436282Y-103261429D01*
X160422150Y-103190384D01*
X160340843Y-102994091D01*
X160222803Y-102817433D01*
X160072567Y-102667197D01*
X159895909Y-102549157D01*
X159699616Y-102467850D01*
X159491233Y-102426400D01*
X159278767Y-102426400D01*
X159070384Y-102467850D01*
X158874091Y-102549157D01*
X158697433Y-102667197D01*
X158547197Y-102817433D01*
X158429157Y-102994091D01*
X158347850Y-103190384D01*
X158306400Y-103398767D01*
X157923600Y-103398767D01*
X157882150Y-103190384D01*
X157800843Y-102994091D01*
X157682803Y-102817433D01*
X157532567Y-102667197D01*
X157355909Y-102549157D01*
X157159616Y-102467850D01*
X156951233Y-102426400D01*
X156738767Y-102426400D01*
X156530384Y-102467850D01*
X156334091Y-102549157D01*
X156157433Y-102667197D01*
X156007197Y-102817433D01*
X155889157Y-102994091D01*
X155807850Y-103190384D01*
X155766400Y-103398767D01*
X153978910Y-103398767D01*
X153990843Y-103380909D01*
X154072150Y-103184616D01*
X154113600Y-102976233D01*
X154113600Y-102763767D01*
X154072150Y-102555384D01*
X153990843Y-102359091D01*
X153872803Y-102182433D01*
X153722567Y-102032197D01*
X153545909Y-101914157D01*
X153349616Y-101832850D01*
X153141233Y-101791400D01*
X152928767Y-101791400D01*
X152720384Y-101832850D01*
X152524091Y-101914157D01*
X152347433Y-102032197D01*
X152197197Y-102182433D01*
X152079157Y-102359091D01*
X152018600Y-102505289D01*
X152018600Y-100694711D01*
X152079157Y-100840909D01*
X152197197Y-101017567D01*
X152347433Y-101167803D01*
X152524091Y-101285843D01*
X152720384Y-101367150D01*
X152928767Y-101408600D01*
X153141233Y-101408600D01*
X153349616Y-101367150D01*
X153545909Y-101285843D01*
X153722567Y-101167803D01*
X153872803Y-101017567D01*
X153990843Y-100840909D01*
X154072150Y-100644616D01*
X154113600Y-100436233D01*
X154113600Y-100223767D01*
X154072150Y-100015384D01*
X153990843Y-99819091D01*
X153872803Y-99642433D01*
X153722567Y-99492197D01*
X153545909Y-99374157D01*
X153349616Y-99292850D01*
X153141233Y-99251400D01*
X152928767Y-99251400D01*
X152720384Y-99292850D01*
X152524091Y-99374157D01*
X152347433Y-99492197D01*
X152197197Y-99642433D01*
X152079157Y-99819091D01*
X152018600Y-99965289D01*
X152018600Y-98146781D01*
X152026019Y-98171240D01*
X152119783Y-98360757D01*
X152248718Y-98528340D01*
X152407869Y-98667549D01*
X152591120Y-98773034D01*
X152791429Y-98840742D01*
X152958800Y-98808759D01*
X152958800Y-97866200D01*
X153111200Y-97866200D01*
X153111200Y-98808759D01*
X153278571Y-98840742D01*
X153478880Y-98773034D01*
X153662131Y-98667549D01*
X153821282Y-98528340D01*
X153900789Y-98425000D01*
X188366400Y-98425000D01*
X188366400Y-107315000D01*
X188370792Y-107359598D01*
X188383801Y-107402481D01*
X188404926Y-107442003D01*
X188433355Y-107476645D01*
X188467997Y-107505074D01*
X188507519Y-107526199D01*
X188550402Y-107539208D01*
X188595000Y-107543600D01*
X194945000Y-107543600D01*
X194989598Y-107539208D01*
X195032481Y-107526199D01*
X195072003Y-107505074D01*
X195106645Y-107476645D01*
X195135074Y-107442003D01*
X195156199Y-107402481D01*
X195169208Y-107359598D01*
X195173600Y-107315000D01*
X195173600Y-105304334D01*
X201379490Y-105304334D01*
X201387813Y-105346691D01*
X201451210Y-105496987D01*
X201542710Y-105632027D01*
X201658797Y-105746621D01*
X201795009Y-105836366D01*
X201946112Y-105897813D01*
X202106300Y-105928600D01*
X202456300Y-105928600D01*
X202456300Y-105176200D01*
X201414823Y-105176200D01*
X201379490Y-105304334D01*
X195173600Y-105304334D01*
X195173600Y-104788747D01*
X199251516Y-104788747D01*
X199332707Y-104917546D01*
X199501805Y-104999342D01*
X199683612Y-105046576D01*
X199871141Y-105057435D01*
X200057185Y-105031499D01*
X200234595Y-104969767D01*
X200332293Y-104917546D01*
X200346085Y-104895666D01*
X201379490Y-104895666D01*
X201414823Y-105023800D01*
X202456300Y-105023800D01*
X202456300Y-104271400D01*
X202106300Y-104271400D01*
X201946112Y-104302187D01*
X201795009Y-104363634D01*
X201658797Y-104453379D01*
X201542710Y-104567973D01*
X201451210Y-104703013D01*
X201387813Y-104853309D01*
X201379490Y-104895666D01*
X200346085Y-104895666D01*
X200413484Y-104788747D01*
X199832500Y-104207763D01*
X199251516Y-104788747D01*
X195173600Y-104788747D01*
X195173600Y-104138641D01*
X198875065Y-104138641D01*
X198901001Y-104324685D01*
X198962733Y-104502095D01*
X199014954Y-104599793D01*
X199143753Y-104680984D01*
X199724737Y-104100000D01*
X199940263Y-104100000D01*
X200521247Y-104680984D01*
X200650046Y-104599793D01*
X200731842Y-104430695D01*
X200779076Y-104248888D01*
X200789935Y-104061359D01*
X200763999Y-103875315D01*
X200702267Y-103697905D01*
X200650046Y-103600207D01*
X200521247Y-103519016D01*
X199940263Y-104100000D01*
X199724737Y-104100000D01*
X199143753Y-103519016D01*
X199014954Y-103600207D01*
X198933158Y-103769305D01*
X198885924Y-103951112D01*
X198875065Y-104138641D01*
X195173600Y-104138641D01*
X195173600Y-103411253D01*
X199251516Y-103411253D01*
X199832500Y-103992237D01*
X200413484Y-103411253D01*
X200332293Y-103282454D01*
X200163195Y-103200658D01*
X199981388Y-103153424D01*
X199793859Y-103142565D01*
X199607815Y-103168501D01*
X199430405Y-103230233D01*
X199332707Y-103282454D01*
X199251516Y-103411253D01*
X195173600Y-103411253D01*
X195173600Y-102646864D01*
X195211164Y-102684428D01*
X195305930Y-102747749D01*
X195411228Y-102791365D01*
X195523013Y-102813600D01*
X195636987Y-102813600D01*
X195748772Y-102791365D01*
X195854070Y-102747749D01*
X195948836Y-102684428D01*
X196029428Y-102603836D01*
X196092749Y-102509070D01*
X196136365Y-102403772D01*
X196158600Y-102291987D01*
X196158600Y-102178013D01*
X196136365Y-102066228D01*
X196092749Y-101960930D01*
X196029428Y-101866164D01*
X195948836Y-101785572D01*
X195854070Y-101722251D01*
X195748772Y-101678635D01*
X195636987Y-101656400D01*
X195523013Y-101656400D01*
X195411228Y-101678635D01*
X195305930Y-101722251D01*
X195211164Y-101785572D01*
X195173600Y-101823136D01*
X195173600Y-101376864D01*
X195211164Y-101414428D01*
X195305930Y-101477749D01*
X195411228Y-101521365D01*
X195523013Y-101543600D01*
X195636987Y-101543600D01*
X195748772Y-101521365D01*
X195854070Y-101477749D01*
X195948836Y-101414428D01*
X196029428Y-101333836D01*
X196092749Y-101239070D01*
X196136365Y-101133772D01*
X196158600Y-101021987D01*
X196158600Y-100908013D01*
X196136365Y-100796228D01*
X196092749Y-100690930D01*
X196029428Y-100596164D01*
X195948836Y-100515572D01*
X195854070Y-100452251D01*
X195748772Y-100408635D01*
X195636987Y-100386400D01*
X195523013Y-100386400D01*
X195411228Y-100408635D01*
X195305930Y-100452251D01*
X195211164Y-100515572D01*
X195173600Y-100553136D01*
X195173600Y-99788747D01*
X199251516Y-99788747D01*
X199332707Y-99917546D01*
X199501805Y-99999342D01*
X199683612Y-100046576D01*
X199871141Y-100057435D01*
X200057185Y-100031499D01*
X200234595Y-99969767D01*
X200332293Y-99917546D01*
X200413484Y-99788747D01*
X199832500Y-99207763D01*
X199251516Y-99788747D01*
X195173600Y-99788747D01*
X195173600Y-99138641D01*
X198875065Y-99138641D01*
X198901001Y-99324685D01*
X198962733Y-99502095D01*
X199014954Y-99599793D01*
X199143753Y-99680984D01*
X199724737Y-99100000D01*
X199940263Y-99100000D01*
X200521247Y-99680984D01*
X200650046Y-99599793D01*
X200731842Y-99430695D01*
X200779076Y-99248888D01*
X200789935Y-99061359D01*
X200763999Y-98875315D01*
X200702267Y-98697905D01*
X200650046Y-98600207D01*
X200521247Y-98519016D01*
X199940263Y-99100000D01*
X199724737Y-99100000D01*
X199143753Y-98519016D01*
X199014954Y-98600207D01*
X198933158Y-98769305D01*
X198885924Y-98951112D01*
X198875065Y-99138641D01*
X195173600Y-99138641D01*
X195173600Y-98425000D01*
X195172247Y-98411253D01*
X199251516Y-98411253D01*
X199832500Y-98992237D01*
X200413484Y-98411253D01*
X200346086Y-98304334D01*
X201379490Y-98304334D01*
X201387813Y-98346691D01*
X201451210Y-98496987D01*
X201542710Y-98632027D01*
X201658797Y-98746621D01*
X201795009Y-98836366D01*
X201946112Y-98897813D01*
X202106300Y-98928600D01*
X202456300Y-98928600D01*
X202456300Y-98176200D01*
X201414823Y-98176200D01*
X201379490Y-98304334D01*
X200346086Y-98304334D01*
X200332293Y-98282454D01*
X200163195Y-98200658D01*
X199981388Y-98153424D01*
X199793859Y-98142565D01*
X199607815Y-98168501D01*
X199430405Y-98230233D01*
X199332707Y-98282454D01*
X199251516Y-98411253D01*
X195172247Y-98411253D01*
X195169208Y-98380402D01*
X195156199Y-98337519D01*
X195135074Y-98297997D01*
X195106645Y-98263355D01*
X195072003Y-98234926D01*
X195032481Y-98213801D01*
X194989598Y-98200792D01*
X194945000Y-98196400D01*
X188595000Y-98196400D01*
X188550402Y-98200792D01*
X188507519Y-98213801D01*
X188467997Y-98234926D01*
X188433355Y-98263355D01*
X188404926Y-98297997D01*
X188383801Y-98337519D01*
X188370792Y-98380402D01*
X188366400Y-98425000D01*
X153900789Y-98425000D01*
X153950217Y-98360757D01*
X154043981Y-98171240D01*
X154085739Y-98033570D01*
X154059262Y-97895666D01*
X201379490Y-97895666D01*
X201414823Y-98023800D01*
X202456300Y-98023800D01*
X202456300Y-97271400D01*
X202106300Y-97271400D01*
X201946112Y-97302187D01*
X201795009Y-97363634D01*
X201658797Y-97453379D01*
X201542710Y-97567973D01*
X201451210Y-97703013D01*
X201387813Y-97853309D01*
X201379490Y-97895666D01*
X154059262Y-97895666D01*
X154053604Y-97866200D01*
X153111200Y-97866200D01*
X152958800Y-97866200D01*
X152938800Y-97866200D01*
X152938800Y-97713800D01*
X152958800Y-97713800D01*
X152958800Y-96771241D01*
X153111200Y-96771241D01*
X153111200Y-97713800D01*
X154053604Y-97713800D01*
X154085739Y-97546430D01*
X154043981Y-97408760D01*
X153950217Y-97219243D01*
X153821282Y-97051660D01*
X153662131Y-96912451D01*
X153478880Y-96806966D01*
X153278571Y-96739258D01*
X153111200Y-96771241D01*
X152958800Y-96771241D01*
X152791429Y-96739258D01*
X152591120Y-96806966D01*
X152407869Y-96912451D01*
X152248718Y-97051660D01*
X152119783Y-97219243D01*
X152026019Y-97408760D01*
X152018600Y-97433219D01*
X152018600Y-93130000D01*
X152590294Y-93130000D01*
X152590294Y-94830000D01*
X152594708Y-94874813D01*
X152607779Y-94917905D01*
X152629006Y-94957618D01*
X152657573Y-94992427D01*
X152692382Y-95020994D01*
X152732095Y-95042221D01*
X152775187Y-95055292D01*
X152820000Y-95059706D01*
X154520000Y-95059706D01*
X154564813Y-95055292D01*
X154607905Y-95042221D01*
X154647618Y-95020994D01*
X154682427Y-94992427D01*
X154710994Y-94957618D01*
X154732221Y-94917905D01*
X154745292Y-94874813D01*
X154749706Y-94830000D01*
X154749706Y-93873767D01*
X155131400Y-93873767D01*
X155131400Y-94086233D01*
X155172850Y-94294616D01*
X155254157Y-94490909D01*
X155372197Y-94667567D01*
X155522433Y-94817803D01*
X155699091Y-94935843D01*
X155895384Y-95017150D01*
X156103767Y-95058600D01*
X156316233Y-95058600D01*
X156524616Y-95017150D01*
X156720909Y-94935843D01*
X156897567Y-94817803D01*
X157047803Y-94667567D01*
X157165843Y-94490909D01*
X157247150Y-94294616D01*
X157288600Y-94086233D01*
X157288600Y-93873767D01*
X157671400Y-93873767D01*
X157671400Y-94086233D01*
X157712850Y-94294616D01*
X157794157Y-94490909D01*
X157912197Y-94667567D01*
X158062433Y-94817803D01*
X158239091Y-94935843D01*
X158435384Y-95017150D01*
X158643767Y-95058600D01*
X158856233Y-95058600D01*
X159064616Y-95017150D01*
X159260909Y-94935843D01*
X159437567Y-94817803D01*
X159587803Y-94667567D01*
X159705843Y-94490909D01*
X159787150Y-94294616D01*
X159828600Y-94086233D01*
X159828600Y-93873767D01*
X160211400Y-93873767D01*
X160211400Y-94086233D01*
X160252850Y-94294616D01*
X160334157Y-94490909D01*
X160452197Y-94667567D01*
X160602433Y-94817803D01*
X160779091Y-94935843D01*
X160975384Y-95017150D01*
X161183767Y-95058600D01*
X161396233Y-95058600D01*
X161604616Y-95017150D01*
X161800909Y-94935843D01*
X161977567Y-94817803D01*
X162127803Y-94667567D01*
X162245843Y-94490909D01*
X162327150Y-94294616D01*
X162368600Y-94086233D01*
X162368600Y-93873767D01*
X162751400Y-93873767D01*
X162751400Y-94086233D01*
X162792850Y-94294616D01*
X162874157Y-94490909D01*
X162992197Y-94667567D01*
X163142433Y-94817803D01*
X163319091Y-94935843D01*
X163515384Y-95017150D01*
X163723767Y-95058600D01*
X163936233Y-95058600D01*
X164144616Y-95017150D01*
X164340909Y-94935843D01*
X164517567Y-94817803D01*
X164667803Y-94667567D01*
X164785843Y-94490909D01*
X164867150Y-94294616D01*
X164908600Y-94086233D01*
X164908600Y-93873767D01*
X165291400Y-93873767D01*
X165291400Y-94086233D01*
X165332850Y-94294616D01*
X165414157Y-94490909D01*
X165532197Y-94667567D01*
X165682433Y-94817803D01*
X165859091Y-94935843D01*
X166055384Y-95017150D01*
X166263767Y-95058600D01*
X166476233Y-95058600D01*
X166684616Y-95017150D01*
X166880909Y-94935843D01*
X167057567Y-94817803D01*
X167207803Y-94667567D01*
X167325843Y-94490909D01*
X167407150Y-94294616D01*
X167448600Y-94086233D01*
X167448600Y-93873767D01*
X167831400Y-93873767D01*
X167831400Y-94086233D01*
X167872850Y-94294616D01*
X167954157Y-94490909D01*
X168072197Y-94667567D01*
X168222433Y-94817803D01*
X168399091Y-94935843D01*
X168595384Y-95017150D01*
X168803767Y-95058600D01*
X169016233Y-95058600D01*
X169224616Y-95017150D01*
X169420909Y-94935843D01*
X169597567Y-94817803D01*
X169747803Y-94667567D01*
X169865843Y-94490909D01*
X169947150Y-94294616D01*
X169988600Y-94086233D01*
X169988600Y-93873767D01*
X170371400Y-93873767D01*
X170371400Y-94086233D01*
X170412850Y-94294616D01*
X170494157Y-94490909D01*
X170612197Y-94667567D01*
X170762433Y-94817803D01*
X170939091Y-94935843D01*
X171135384Y-95017150D01*
X171343767Y-95058600D01*
X171556233Y-95058600D01*
X171764616Y-95017150D01*
X171960909Y-94935843D01*
X172137567Y-94817803D01*
X172287803Y-94667567D01*
X172405843Y-94490909D01*
X172487150Y-94294616D01*
X172528600Y-94086233D01*
X172528600Y-93873767D01*
X172911400Y-93873767D01*
X172911400Y-94086233D01*
X172952850Y-94294616D01*
X173034157Y-94490909D01*
X173152197Y-94667567D01*
X173302433Y-94817803D01*
X173479091Y-94935843D01*
X173675384Y-95017150D01*
X173883767Y-95058600D01*
X174096233Y-95058600D01*
X174304616Y-95017150D01*
X174500909Y-94935843D01*
X174677567Y-94817803D01*
X174827803Y-94667567D01*
X174945843Y-94490909D01*
X175027150Y-94294616D01*
X175068600Y-94086233D01*
X175068600Y-93873767D01*
X175451400Y-93873767D01*
X175451400Y-94086233D01*
X175492850Y-94294616D01*
X175574157Y-94490909D01*
X175692197Y-94667567D01*
X175842433Y-94817803D01*
X176019091Y-94935843D01*
X176215384Y-95017150D01*
X176423767Y-95058600D01*
X176636233Y-95058600D01*
X176844616Y-95017150D01*
X177040909Y-94935843D01*
X177217567Y-94817803D01*
X177367803Y-94667567D01*
X177485843Y-94490909D01*
X177567150Y-94294616D01*
X177608600Y-94086233D01*
X177608600Y-93873767D01*
X177991400Y-93873767D01*
X177991400Y-94086233D01*
X178032850Y-94294616D01*
X178114157Y-94490909D01*
X178232197Y-94667567D01*
X178382433Y-94817803D01*
X178559091Y-94935843D01*
X178755384Y-95017150D01*
X178963767Y-95058600D01*
X179176233Y-95058600D01*
X179384616Y-95017150D01*
X179580909Y-94935843D01*
X179757567Y-94817803D01*
X179907803Y-94667567D01*
X180025843Y-94490909D01*
X180107150Y-94294616D01*
X180148600Y-94086233D01*
X180148600Y-93873767D01*
X180531400Y-93873767D01*
X180531400Y-94086233D01*
X180572850Y-94294616D01*
X180654157Y-94490909D01*
X180772197Y-94667567D01*
X180922433Y-94817803D01*
X181099091Y-94935843D01*
X181295384Y-95017150D01*
X181503767Y-95058600D01*
X181716233Y-95058600D01*
X181924616Y-95017150D01*
X182120909Y-94935843D01*
X182297567Y-94817803D01*
X182447803Y-94667567D01*
X182565843Y-94490909D01*
X182647150Y-94294616D01*
X182688600Y-94086233D01*
X182688600Y-93873767D01*
X183071400Y-93873767D01*
X183071400Y-94086233D01*
X183112850Y-94294616D01*
X183194157Y-94490909D01*
X183312197Y-94667567D01*
X183462433Y-94817803D01*
X183639091Y-94935843D01*
X183835384Y-95017150D01*
X184043767Y-95058600D01*
X184256233Y-95058600D01*
X184464616Y-95017150D01*
X184660909Y-94935843D01*
X184837567Y-94817803D01*
X184987803Y-94667567D01*
X185105843Y-94490909D01*
X185187150Y-94294616D01*
X185228600Y-94086233D01*
X185228600Y-93873767D01*
X185611400Y-93873767D01*
X185611400Y-94086233D01*
X185652850Y-94294616D01*
X185734157Y-94490909D01*
X185852197Y-94667567D01*
X186002433Y-94817803D01*
X186179091Y-94935843D01*
X186375384Y-95017150D01*
X186583767Y-95058600D01*
X186796233Y-95058600D01*
X187004616Y-95017150D01*
X187200909Y-94935843D01*
X187377567Y-94817803D01*
X187527803Y-94667567D01*
X187645843Y-94490909D01*
X187727150Y-94294616D01*
X187768600Y-94086233D01*
X187768600Y-93873767D01*
X188151400Y-93873767D01*
X188151400Y-94086233D01*
X188192850Y-94294616D01*
X188274157Y-94490909D01*
X188392197Y-94667567D01*
X188542433Y-94817803D01*
X188719091Y-94935843D01*
X188915384Y-95017150D01*
X189123767Y-95058600D01*
X189336233Y-95058600D01*
X189544616Y-95017150D01*
X189740909Y-94935843D01*
X189917567Y-94817803D01*
X190067803Y-94667567D01*
X190185843Y-94490909D01*
X190267150Y-94294616D01*
X190308600Y-94086233D01*
X190308600Y-93873767D01*
X190691400Y-93873767D01*
X190691400Y-94086233D01*
X190732850Y-94294616D01*
X190814157Y-94490909D01*
X190932197Y-94667567D01*
X191082433Y-94817803D01*
X191259091Y-94935843D01*
X191455384Y-95017150D01*
X191663767Y-95058600D01*
X191876233Y-95058600D01*
X192084616Y-95017150D01*
X192280909Y-94935843D01*
X192457567Y-94817803D01*
X192607803Y-94667567D01*
X192725843Y-94490909D01*
X192807150Y-94294616D01*
X192848600Y-94086233D01*
X192848600Y-93873767D01*
X193231400Y-93873767D01*
X193231400Y-94086233D01*
X193272850Y-94294616D01*
X193354157Y-94490909D01*
X193472197Y-94667567D01*
X193622433Y-94817803D01*
X193799091Y-94935843D01*
X193995384Y-95017150D01*
X194203767Y-95058600D01*
X194416233Y-95058600D01*
X194624616Y-95017150D01*
X194820909Y-94935843D01*
X194997567Y-94817803D01*
X195147803Y-94667567D01*
X195265843Y-94490909D01*
X195347150Y-94294616D01*
X195388600Y-94086233D01*
X195388600Y-93873767D01*
X195771400Y-93873767D01*
X195771400Y-94086233D01*
X195812850Y-94294616D01*
X195894157Y-94490909D01*
X196012197Y-94667567D01*
X196162433Y-94817803D01*
X196339091Y-94935843D01*
X196535384Y-95017150D01*
X196743767Y-95058600D01*
X196956233Y-95058600D01*
X197164616Y-95017150D01*
X197360909Y-94935843D01*
X197537567Y-94817803D01*
X197687803Y-94667567D01*
X197805843Y-94490909D01*
X197887150Y-94294616D01*
X197928600Y-94086233D01*
X197928600Y-93873767D01*
X198311400Y-93873767D01*
X198311400Y-94086233D01*
X198352850Y-94294616D01*
X198434157Y-94490909D01*
X198552197Y-94667567D01*
X198702433Y-94817803D01*
X198879091Y-94935843D01*
X199075384Y-95017150D01*
X199283767Y-95058600D01*
X199496233Y-95058600D01*
X199704616Y-95017150D01*
X199900909Y-94935843D01*
X200077567Y-94817803D01*
X200227803Y-94667567D01*
X200345843Y-94490909D01*
X200427150Y-94294616D01*
X200468600Y-94086233D01*
X200468600Y-93873767D01*
X200851400Y-93873767D01*
X200851400Y-94086233D01*
X200892850Y-94294616D01*
X200974157Y-94490909D01*
X201092197Y-94667567D01*
X201242433Y-94817803D01*
X201419091Y-94935843D01*
X201615384Y-95017150D01*
X201823767Y-95058600D01*
X202036233Y-95058600D01*
X202244616Y-95017150D01*
X202440909Y-94935843D01*
X202617567Y-94817803D01*
X202767803Y-94667567D01*
X202885843Y-94490909D01*
X202967150Y-94294616D01*
X203008600Y-94086233D01*
X203008600Y-93873767D01*
X202967150Y-93665384D01*
X202885843Y-93469091D01*
X202767803Y-93292433D01*
X202617567Y-93142197D01*
X202440909Y-93024157D01*
X202244616Y-92942850D01*
X202036233Y-92901400D01*
X201823767Y-92901400D01*
X201615384Y-92942850D01*
X201419091Y-93024157D01*
X201242433Y-93142197D01*
X201092197Y-93292433D01*
X200974157Y-93469091D01*
X200892850Y-93665384D01*
X200851400Y-93873767D01*
X200468600Y-93873767D01*
X200427150Y-93665384D01*
X200345843Y-93469091D01*
X200227803Y-93292433D01*
X200077567Y-93142197D01*
X199900909Y-93024157D01*
X199704616Y-92942850D01*
X199496233Y-92901400D01*
X199283767Y-92901400D01*
X199075384Y-92942850D01*
X198879091Y-93024157D01*
X198702433Y-93142197D01*
X198552197Y-93292433D01*
X198434157Y-93469091D01*
X198352850Y-93665384D01*
X198311400Y-93873767D01*
X197928600Y-93873767D01*
X197887150Y-93665384D01*
X197805843Y-93469091D01*
X197687803Y-93292433D01*
X197537567Y-93142197D01*
X197360909Y-93024157D01*
X197164616Y-92942850D01*
X196956233Y-92901400D01*
X196743767Y-92901400D01*
X196535384Y-92942850D01*
X196339091Y-93024157D01*
X196162433Y-93142197D01*
X196012197Y-93292433D01*
X195894157Y-93469091D01*
X195812850Y-93665384D01*
X195771400Y-93873767D01*
X195388600Y-93873767D01*
X195347150Y-93665384D01*
X195265843Y-93469091D01*
X195147803Y-93292433D01*
X194997567Y-93142197D01*
X194820909Y-93024157D01*
X194624616Y-92942850D01*
X194416233Y-92901400D01*
X194203767Y-92901400D01*
X193995384Y-92942850D01*
X193799091Y-93024157D01*
X193622433Y-93142197D01*
X193472197Y-93292433D01*
X193354157Y-93469091D01*
X193272850Y-93665384D01*
X193231400Y-93873767D01*
X192848600Y-93873767D01*
X192807150Y-93665384D01*
X192725843Y-93469091D01*
X192607803Y-93292433D01*
X192457567Y-93142197D01*
X192280909Y-93024157D01*
X192084616Y-92942850D01*
X191876233Y-92901400D01*
X191663767Y-92901400D01*
X191455384Y-92942850D01*
X191259091Y-93024157D01*
X191082433Y-93142197D01*
X190932197Y-93292433D01*
X190814157Y-93469091D01*
X190732850Y-93665384D01*
X190691400Y-93873767D01*
X190308600Y-93873767D01*
X190267150Y-93665384D01*
X190185843Y-93469091D01*
X190067803Y-93292433D01*
X189917567Y-93142197D01*
X189740909Y-93024157D01*
X189544616Y-92942850D01*
X189336233Y-92901400D01*
X189123767Y-92901400D01*
X188915384Y-92942850D01*
X188719091Y-93024157D01*
X188542433Y-93142197D01*
X188392197Y-93292433D01*
X188274157Y-93469091D01*
X188192850Y-93665384D01*
X188151400Y-93873767D01*
X187768600Y-93873767D01*
X187727150Y-93665384D01*
X187645843Y-93469091D01*
X187527803Y-93292433D01*
X187377567Y-93142197D01*
X187200909Y-93024157D01*
X187004616Y-92942850D01*
X186796233Y-92901400D01*
X186583767Y-92901400D01*
X186375384Y-92942850D01*
X186179091Y-93024157D01*
X186002433Y-93142197D01*
X185852197Y-93292433D01*
X185734157Y-93469091D01*
X185652850Y-93665384D01*
X185611400Y-93873767D01*
X185228600Y-93873767D01*
X185187150Y-93665384D01*
X185105843Y-93469091D01*
X184987803Y-93292433D01*
X184837567Y-93142197D01*
X184660909Y-93024157D01*
X184464616Y-92942850D01*
X184256233Y-92901400D01*
X184043767Y-92901400D01*
X183835384Y-92942850D01*
X183639091Y-93024157D01*
X183462433Y-93142197D01*
X183312197Y-93292433D01*
X183194157Y-93469091D01*
X183112850Y-93665384D01*
X183071400Y-93873767D01*
X182688600Y-93873767D01*
X182647150Y-93665384D01*
X182565843Y-93469091D01*
X182447803Y-93292433D01*
X182297567Y-93142197D01*
X182120909Y-93024157D01*
X181924616Y-92942850D01*
X181716233Y-92901400D01*
X181503767Y-92901400D01*
X181295384Y-92942850D01*
X181099091Y-93024157D01*
X180922433Y-93142197D01*
X180772197Y-93292433D01*
X180654157Y-93469091D01*
X180572850Y-93665384D01*
X180531400Y-93873767D01*
X180148600Y-93873767D01*
X180107150Y-93665384D01*
X180025843Y-93469091D01*
X179907803Y-93292433D01*
X179757567Y-93142197D01*
X179580909Y-93024157D01*
X179384616Y-92942850D01*
X179176233Y-92901400D01*
X178963767Y-92901400D01*
X178755384Y-92942850D01*
X178559091Y-93024157D01*
X178382433Y-93142197D01*
X178232197Y-93292433D01*
X178114157Y-93469091D01*
X178032850Y-93665384D01*
X177991400Y-93873767D01*
X177608600Y-93873767D01*
X177567150Y-93665384D01*
X177485843Y-93469091D01*
X177367803Y-93292433D01*
X177217567Y-93142197D01*
X177040909Y-93024157D01*
X176844616Y-92942850D01*
X176636233Y-92901400D01*
X176423767Y-92901400D01*
X176215384Y-92942850D01*
X176019091Y-93024157D01*
X175842433Y-93142197D01*
X175692197Y-93292433D01*
X175574157Y-93469091D01*
X175492850Y-93665384D01*
X175451400Y-93873767D01*
X175068600Y-93873767D01*
X175027150Y-93665384D01*
X174945843Y-93469091D01*
X174827803Y-93292433D01*
X174677567Y-93142197D01*
X174500909Y-93024157D01*
X174304616Y-92942850D01*
X174096233Y-92901400D01*
X173883767Y-92901400D01*
X173675384Y-92942850D01*
X173479091Y-93024157D01*
X173302433Y-93142197D01*
X173152197Y-93292433D01*
X173034157Y-93469091D01*
X172952850Y-93665384D01*
X172911400Y-93873767D01*
X172528600Y-93873767D01*
X172487150Y-93665384D01*
X172405843Y-93469091D01*
X172287803Y-93292433D01*
X172137567Y-93142197D01*
X171960909Y-93024157D01*
X171764616Y-92942850D01*
X171556233Y-92901400D01*
X171343767Y-92901400D01*
X171135384Y-92942850D01*
X170939091Y-93024157D01*
X170762433Y-93142197D01*
X170612197Y-93292433D01*
X170494157Y-93469091D01*
X170412850Y-93665384D01*
X170371400Y-93873767D01*
X169988600Y-93873767D01*
X169947150Y-93665384D01*
X169865843Y-93469091D01*
X169747803Y-93292433D01*
X169597567Y-93142197D01*
X169420909Y-93024157D01*
X169224616Y-92942850D01*
X169016233Y-92901400D01*
X168803767Y-92901400D01*
X168595384Y-92942850D01*
X168399091Y-93024157D01*
X168222433Y-93142197D01*
X168072197Y-93292433D01*
X167954157Y-93469091D01*
X167872850Y-93665384D01*
X167831400Y-93873767D01*
X167448600Y-93873767D01*
X167407150Y-93665384D01*
X167325843Y-93469091D01*
X167207803Y-93292433D01*
X167057567Y-93142197D01*
X166880909Y-93024157D01*
X166684616Y-92942850D01*
X166476233Y-92901400D01*
X166263767Y-92901400D01*
X166055384Y-92942850D01*
X165859091Y-93024157D01*
X165682433Y-93142197D01*
X165532197Y-93292433D01*
X165414157Y-93469091D01*
X165332850Y-93665384D01*
X165291400Y-93873767D01*
X164908600Y-93873767D01*
X164867150Y-93665384D01*
X164785843Y-93469091D01*
X164667803Y-93292433D01*
X164517567Y-93142197D01*
X164340909Y-93024157D01*
X164144616Y-92942850D01*
X163936233Y-92901400D01*
X163723767Y-92901400D01*
X163515384Y-92942850D01*
X163319091Y-93024157D01*
X163142433Y-93142197D01*
X162992197Y-93292433D01*
X162874157Y-93469091D01*
X162792850Y-93665384D01*
X162751400Y-93873767D01*
X162368600Y-93873767D01*
X162327150Y-93665384D01*
X162245843Y-93469091D01*
X162127803Y-93292433D01*
X161977567Y-93142197D01*
X161800909Y-93024157D01*
X161604616Y-92942850D01*
X161396233Y-92901400D01*
X161183767Y-92901400D01*
X160975384Y-92942850D01*
X160779091Y-93024157D01*
X160602433Y-93142197D01*
X160452197Y-93292433D01*
X160334157Y-93469091D01*
X160252850Y-93665384D01*
X160211400Y-93873767D01*
X159828600Y-93873767D01*
X159787150Y-93665384D01*
X159705843Y-93469091D01*
X159587803Y-93292433D01*
X159437567Y-93142197D01*
X159260909Y-93024157D01*
X159064616Y-92942850D01*
X158856233Y-92901400D01*
X158643767Y-92901400D01*
X158435384Y-92942850D01*
X158239091Y-93024157D01*
X158062433Y-93142197D01*
X157912197Y-93292433D01*
X157794157Y-93469091D01*
X157712850Y-93665384D01*
X157671400Y-93873767D01*
X157288600Y-93873767D01*
X157247150Y-93665384D01*
X157165843Y-93469091D01*
X157047803Y-93292433D01*
X156897567Y-93142197D01*
X156720909Y-93024157D01*
X156524616Y-92942850D01*
X156316233Y-92901400D01*
X156103767Y-92901400D01*
X155895384Y-92942850D01*
X155699091Y-93024157D01*
X155522433Y-93142197D01*
X155372197Y-93292433D01*
X155254157Y-93469091D01*
X155172850Y-93665384D01*
X155131400Y-93873767D01*
X154749706Y-93873767D01*
X154749706Y-93130000D01*
X154745292Y-93085187D01*
X154732221Y-93042095D01*
X154710994Y-93002382D01*
X154682427Y-92967573D01*
X154647618Y-92939006D01*
X154607905Y-92917779D01*
X154564813Y-92904708D01*
X154520000Y-92900294D01*
X152820000Y-92900294D01*
X152775187Y-92904708D01*
X152732095Y-92917779D01*
X152692382Y-92939006D01*
X152657573Y-92967573D01*
X152629006Y-93002382D01*
X152607779Y-93042095D01*
X152594708Y-93085187D01*
X152590294Y-93130000D01*
X152018600Y-93130000D01*
X152018600Y-91693600D01*
X203581400Y-91693600D01*
X203581400Y-97655211D01*
G37*
X203581400Y-97655211D02*
X203522290Y-97567973D01*
X203406203Y-97453379D01*
X203269991Y-97363634D01*
X203118888Y-97302187D01*
X202958700Y-97271400D01*
X202608700Y-97271400D01*
X202608700Y-98023800D01*
X202628700Y-98023800D01*
X202628700Y-98176200D01*
X202608700Y-98176200D01*
X202608700Y-98928600D01*
X202958700Y-98928600D01*
X203118888Y-98897813D01*
X203269991Y-98836366D01*
X203406203Y-98746621D01*
X203522290Y-98632027D01*
X203581400Y-98544789D01*
X203581401Y-104655211D01*
X203522290Y-104567973D01*
X203406203Y-104453379D01*
X203269991Y-104363634D01*
X203118888Y-104302187D01*
X202958700Y-104271400D01*
X202608700Y-104271400D01*
X202608700Y-105023800D01*
X202628700Y-105023800D01*
X202628700Y-105176200D01*
X202608700Y-105176200D01*
X202608700Y-105928600D01*
X202958700Y-105928600D01*
X203118888Y-105897813D01*
X203269991Y-105836366D01*
X203406203Y-105746621D01*
X203522290Y-105632027D01*
X203581401Y-105544789D01*
X203581401Y-111506400D01*
X152018600Y-111506400D01*
X152018600Y-108370000D01*
X152590294Y-108370000D01*
X152590294Y-110070000D01*
X152594708Y-110114813D01*
X152607779Y-110157905D01*
X152629006Y-110197618D01*
X152657573Y-110232427D01*
X152692382Y-110260994D01*
X152732095Y-110282221D01*
X152775187Y-110295292D01*
X152820000Y-110299706D01*
X154520000Y-110299706D01*
X154564813Y-110295292D01*
X154607905Y-110282221D01*
X154647618Y-110260994D01*
X154682427Y-110232427D01*
X154710994Y-110197618D01*
X154732221Y-110157905D01*
X154745292Y-110114813D01*
X154749706Y-110070000D01*
X154749706Y-109113767D01*
X155131400Y-109113767D01*
X155131400Y-109326233D01*
X155172850Y-109534616D01*
X155254157Y-109730909D01*
X155372197Y-109907567D01*
X155522433Y-110057803D01*
X155699091Y-110175843D01*
X155895384Y-110257150D01*
X156103767Y-110298600D01*
X156316233Y-110298600D01*
X156524616Y-110257150D01*
X156720909Y-110175843D01*
X156897567Y-110057803D01*
X157047803Y-109907567D01*
X157165843Y-109730909D01*
X157247150Y-109534616D01*
X157288600Y-109326233D01*
X157288600Y-109113767D01*
X157671400Y-109113767D01*
X157671400Y-109326233D01*
X157712850Y-109534616D01*
X157794157Y-109730909D01*
X157912197Y-109907567D01*
X158062433Y-110057803D01*
X158239091Y-110175843D01*
X158435384Y-110257150D01*
X158643767Y-110298600D01*
X158856233Y-110298600D01*
X159064616Y-110257150D01*
X159260909Y-110175843D01*
X159437567Y-110057803D01*
X159587803Y-109907567D01*
X159705843Y-109730909D01*
X159787150Y-109534616D01*
X159828600Y-109326233D01*
X159828600Y-109113767D01*
X160211400Y-109113767D01*
X160211400Y-109326233D01*
X160252850Y-109534616D01*
X160334157Y-109730909D01*
X160452197Y-109907567D01*
X160602433Y-110057803D01*
X160779091Y-110175843D01*
X160975384Y-110257150D01*
X161183767Y-110298600D01*
X161396233Y-110298600D01*
X161604616Y-110257150D01*
X161800909Y-110175843D01*
X161977567Y-110057803D01*
X162127803Y-109907567D01*
X162245843Y-109730909D01*
X162327150Y-109534616D01*
X162368600Y-109326233D01*
X162368600Y-109113767D01*
X162751400Y-109113767D01*
X162751400Y-109326233D01*
X162792850Y-109534616D01*
X162874157Y-109730909D01*
X162992197Y-109907567D01*
X163142433Y-110057803D01*
X163319091Y-110175843D01*
X163515384Y-110257150D01*
X163723767Y-110298600D01*
X163936233Y-110298600D01*
X164144616Y-110257150D01*
X164340909Y-110175843D01*
X164517567Y-110057803D01*
X164667803Y-109907567D01*
X164785843Y-109730909D01*
X164867150Y-109534616D01*
X164908600Y-109326233D01*
X164908600Y-109113767D01*
X165291400Y-109113767D01*
X165291400Y-109326233D01*
X165332850Y-109534616D01*
X165414157Y-109730909D01*
X165532197Y-109907567D01*
X165682433Y-110057803D01*
X165859091Y-110175843D01*
X166055384Y-110257150D01*
X166263767Y-110298600D01*
X166476233Y-110298600D01*
X166684616Y-110257150D01*
X166880909Y-110175843D01*
X167057567Y-110057803D01*
X167207803Y-109907567D01*
X167325843Y-109730909D01*
X167407150Y-109534616D01*
X167448600Y-109326233D01*
X167448600Y-109113767D01*
X167831400Y-109113767D01*
X167831400Y-109326233D01*
X167872850Y-109534616D01*
X167954157Y-109730909D01*
X168072197Y-109907567D01*
X168222433Y-110057803D01*
X168399091Y-110175843D01*
X168595384Y-110257150D01*
X168803767Y-110298600D01*
X169016233Y-110298600D01*
X169224616Y-110257150D01*
X169420909Y-110175843D01*
X169597567Y-110057803D01*
X169747803Y-109907567D01*
X169865843Y-109730909D01*
X169947150Y-109534616D01*
X169988600Y-109326233D01*
X169988600Y-109113767D01*
X170371400Y-109113767D01*
X170371400Y-109326233D01*
X170412850Y-109534616D01*
X170494157Y-109730909D01*
X170612197Y-109907567D01*
X170762433Y-110057803D01*
X170939091Y-110175843D01*
X171135384Y-110257150D01*
X171343767Y-110298600D01*
X171556233Y-110298600D01*
X171764616Y-110257150D01*
X171960909Y-110175843D01*
X172137567Y-110057803D01*
X172287803Y-109907567D01*
X172405843Y-109730909D01*
X172487150Y-109534616D01*
X172528600Y-109326233D01*
X172528600Y-109113767D01*
X172911400Y-109113767D01*
X172911400Y-109326233D01*
X172952850Y-109534616D01*
X173034157Y-109730909D01*
X173152197Y-109907567D01*
X173302433Y-110057803D01*
X173479091Y-110175843D01*
X173675384Y-110257150D01*
X173883767Y-110298600D01*
X174096233Y-110298600D01*
X174304616Y-110257150D01*
X174500909Y-110175843D01*
X174677567Y-110057803D01*
X174827803Y-109907567D01*
X174945843Y-109730909D01*
X175027150Y-109534616D01*
X175068600Y-109326233D01*
X175068600Y-109113767D01*
X175451400Y-109113767D01*
X175451400Y-109326233D01*
X175492850Y-109534616D01*
X175574157Y-109730909D01*
X175692197Y-109907567D01*
X175842433Y-110057803D01*
X176019091Y-110175843D01*
X176215384Y-110257150D01*
X176423767Y-110298600D01*
X176636233Y-110298600D01*
X176844616Y-110257150D01*
X177040909Y-110175843D01*
X177217567Y-110057803D01*
X177367803Y-109907567D01*
X177485843Y-109730909D01*
X177567150Y-109534616D01*
X177608600Y-109326233D01*
X177608600Y-109113767D01*
X177991400Y-109113767D01*
X177991400Y-109326233D01*
X178032850Y-109534616D01*
X178114157Y-109730909D01*
X178232197Y-109907567D01*
X178382433Y-110057803D01*
X178559091Y-110175843D01*
X178755384Y-110257150D01*
X178963767Y-110298600D01*
X179176233Y-110298600D01*
X179384616Y-110257150D01*
X179580909Y-110175843D01*
X179757567Y-110057803D01*
X179907803Y-109907567D01*
X180025843Y-109730909D01*
X180107150Y-109534616D01*
X180148600Y-109326233D01*
X180148600Y-109113767D01*
X180531400Y-109113767D01*
X180531400Y-109326233D01*
X180572850Y-109534616D01*
X180654157Y-109730909D01*
X180772197Y-109907567D01*
X180922433Y-110057803D01*
X181099091Y-110175843D01*
X181295384Y-110257150D01*
X181503767Y-110298600D01*
X181716233Y-110298600D01*
X181924616Y-110257150D01*
X182120909Y-110175843D01*
X182297567Y-110057803D01*
X182447803Y-109907567D01*
X182565843Y-109730909D01*
X182647150Y-109534616D01*
X182688600Y-109326233D01*
X182688600Y-109113767D01*
X183071400Y-109113767D01*
X183071400Y-109326233D01*
X183112850Y-109534616D01*
X183194157Y-109730909D01*
X183312197Y-109907567D01*
X183462433Y-110057803D01*
X183639091Y-110175843D01*
X183835384Y-110257150D01*
X184043767Y-110298600D01*
X184256233Y-110298600D01*
X184464616Y-110257150D01*
X184660909Y-110175843D01*
X184837567Y-110057803D01*
X184987803Y-109907567D01*
X185105843Y-109730909D01*
X185187150Y-109534616D01*
X185228600Y-109326233D01*
X185228600Y-109113767D01*
X185611400Y-109113767D01*
X185611400Y-109326233D01*
X185652850Y-109534616D01*
X185734157Y-109730909D01*
X185852197Y-109907567D01*
X186002433Y-110057803D01*
X186179091Y-110175843D01*
X186375384Y-110257150D01*
X186583767Y-110298600D01*
X186796233Y-110298600D01*
X187004616Y-110257150D01*
X187200909Y-110175843D01*
X187377567Y-110057803D01*
X187527803Y-109907567D01*
X187645843Y-109730909D01*
X187727150Y-109534616D01*
X187768600Y-109326233D01*
X187768600Y-109113767D01*
X188151400Y-109113767D01*
X188151400Y-109326233D01*
X188192850Y-109534616D01*
X188274157Y-109730909D01*
X188392197Y-109907567D01*
X188542433Y-110057803D01*
X188719091Y-110175843D01*
X188915384Y-110257150D01*
X189123767Y-110298600D01*
X189336233Y-110298600D01*
X189544616Y-110257150D01*
X189740909Y-110175843D01*
X189917567Y-110057803D01*
X190067803Y-109907567D01*
X190185843Y-109730909D01*
X190267150Y-109534616D01*
X190308600Y-109326233D01*
X190308600Y-109113767D01*
X190691400Y-109113767D01*
X190691400Y-109326233D01*
X190732850Y-109534616D01*
X190814157Y-109730909D01*
X190932197Y-109907567D01*
X191082433Y-110057803D01*
X191259091Y-110175843D01*
X191455384Y-110257150D01*
X191663767Y-110298600D01*
X191876233Y-110298600D01*
X192084616Y-110257150D01*
X192280909Y-110175843D01*
X192457567Y-110057803D01*
X192607803Y-109907567D01*
X192725843Y-109730909D01*
X192807150Y-109534616D01*
X192848600Y-109326233D01*
X192848600Y-109113767D01*
X193231400Y-109113767D01*
X193231400Y-109326233D01*
X193272850Y-109534616D01*
X193354157Y-109730909D01*
X193472197Y-109907567D01*
X193622433Y-110057803D01*
X193799091Y-110175843D01*
X193995384Y-110257150D01*
X194203767Y-110298600D01*
X194416233Y-110298600D01*
X194624616Y-110257150D01*
X194820909Y-110175843D01*
X194997567Y-110057803D01*
X195147803Y-109907567D01*
X195265843Y-109730909D01*
X195347150Y-109534616D01*
X195388600Y-109326233D01*
X195388600Y-109113767D01*
X195771400Y-109113767D01*
X195771400Y-109326233D01*
X195812850Y-109534616D01*
X195894157Y-109730909D01*
X196012197Y-109907567D01*
X196162433Y-110057803D01*
X196339091Y-110175843D01*
X196535384Y-110257150D01*
X196743767Y-110298600D01*
X196956233Y-110298600D01*
X197164616Y-110257150D01*
X197360909Y-110175843D01*
X197537567Y-110057803D01*
X197687803Y-109907567D01*
X197805843Y-109730909D01*
X197887150Y-109534616D01*
X197928600Y-109326233D01*
X197928600Y-109113767D01*
X198311400Y-109113767D01*
X198311400Y-109326233D01*
X198352850Y-109534616D01*
X198434157Y-109730909D01*
X198552197Y-109907567D01*
X198702433Y-110057803D01*
X198879091Y-110175843D01*
X199075384Y-110257150D01*
X199283767Y-110298600D01*
X199496233Y-110298600D01*
X199704616Y-110257150D01*
X199900909Y-110175843D01*
X200077567Y-110057803D01*
X200227803Y-109907567D01*
X200345843Y-109730909D01*
X200427150Y-109534616D01*
X200468600Y-109326233D01*
X200468600Y-109113767D01*
X200851400Y-109113767D01*
X200851400Y-109326233D01*
X200892850Y-109534616D01*
X200974157Y-109730909D01*
X201092197Y-109907567D01*
X201242433Y-110057803D01*
X201419091Y-110175843D01*
X201615384Y-110257150D01*
X201823767Y-110298600D01*
X202036233Y-110298600D01*
X202244616Y-110257150D01*
X202440909Y-110175843D01*
X202617567Y-110057803D01*
X202767803Y-109907567D01*
X202885843Y-109730909D01*
X202967150Y-109534616D01*
X203008600Y-109326233D01*
X203008600Y-109113767D01*
X202967150Y-108905384D01*
X202885843Y-108709091D01*
X202767803Y-108532433D01*
X202617567Y-108382197D01*
X202440909Y-108264157D01*
X202244616Y-108182850D01*
X202036233Y-108141400D01*
X201823767Y-108141400D01*
X201615384Y-108182850D01*
X201419091Y-108264157D01*
X201242433Y-108382197D01*
X201092197Y-108532433D01*
X200974157Y-108709091D01*
X200892850Y-108905384D01*
X200851400Y-109113767D01*
X200468600Y-109113767D01*
X200427150Y-108905384D01*
X200345843Y-108709091D01*
X200227803Y-108532433D01*
X200077567Y-108382197D01*
X199900909Y-108264157D01*
X199704616Y-108182850D01*
X199496233Y-108141400D01*
X199283767Y-108141400D01*
X199075384Y-108182850D01*
X198879091Y-108264157D01*
X198702433Y-108382197D01*
X198552197Y-108532433D01*
X198434157Y-108709091D01*
X198352850Y-108905384D01*
X198311400Y-109113767D01*
X197928600Y-109113767D01*
X197887150Y-108905384D01*
X197805843Y-108709091D01*
X197687803Y-108532433D01*
X197537567Y-108382197D01*
X197360909Y-108264157D01*
X197164616Y-108182850D01*
X196956233Y-108141400D01*
X196743767Y-108141400D01*
X196535384Y-108182850D01*
X196339091Y-108264157D01*
X196162433Y-108382197D01*
X196012197Y-108532433D01*
X195894157Y-108709091D01*
X195812850Y-108905384D01*
X195771400Y-109113767D01*
X195388600Y-109113767D01*
X195347150Y-108905384D01*
X195265843Y-108709091D01*
X195147803Y-108532433D01*
X194997567Y-108382197D01*
X194820909Y-108264157D01*
X194624616Y-108182850D01*
X194416233Y-108141400D01*
X194203767Y-108141400D01*
X193995384Y-108182850D01*
X193799091Y-108264157D01*
X193622433Y-108382197D01*
X193472197Y-108532433D01*
X193354157Y-108709091D01*
X193272850Y-108905384D01*
X193231400Y-109113767D01*
X192848600Y-109113767D01*
X192807150Y-108905384D01*
X192725843Y-108709091D01*
X192607803Y-108532433D01*
X192457567Y-108382197D01*
X192280909Y-108264157D01*
X192084616Y-108182850D01*
X191876233Y-108141400D01*
X191663767Y-108141400D01*
X191455384Y-108182850D01*
X191259091Y-108264157D01*
X191082433Y-108382197D01*
X190932197Y-108532433D01*
X190814157Y-108709091D01*
X190732850Y-108905384D01*
X190691400Y-109113767D01*
X190308600Y-109113767D01*
X190267150Y-108905384D01*
X190185843Y-108709091D01*
X190067803Y-108532433D01*
X189917567Y-108382197D01*
X189740909Y-108264157D01*
X189544616Y-108182850D01*
X189336233Y-108141400D01*
X189123767Y-108141400D01*
X188915384Y-108182850D01*
X188719091Y-108264157D01*
X188542433Y-108382197D01*
X188392197Y-108532433D01*
X188274157Y-108709091D01*
X188192850Y-108905384D01*
X188151400Y-109113767D01*
X187768600Y-109113767D01*
X187727150Y-108905384D01*
X187645843Y-108709091D01*
X187527803Y-108532433D01*
X187377567Y-108382197D01*
X187200909Y-108264157D01*
X187004616Y-108182850D01*
X186796233Y-108141400D01*
X186583767Y-108141400D01*
X186375384Y-108182850D01*
X186179091Y-108264157D01*
X186002433Y-108382197D01*
X185852197Y-108532433D01*
X185734157Y-108709091D01*
X185652850Y-108905384D01*
X185611400Y-109113767D01*
X185228600Y-109113767D01*
X185187150Y-108905384D01*
X185105843Y-108709091D01*
X184987803Y-108532433D01*
X184837567Y-108382197D01*
X184660909Y-108264157D01*
X184464616Y-108182850D01*
X184256233Y-108141400D01*
X184043767Y-108141400D01*
X183835384Y-108182850D01*
X183639091Y-108264157D01*
X183462433Y-108382197D01*
X183312197Y-108532433D01*
X183194157Y-108709091D01*
X183112850Y-108905384D01*
X183071400Y-109113767D01*
X182688600Y-109113767D01*
X182647150Y-108905384D01*
X182565843Y-108709091D01*
X182447803Y-108532433D01*
X182297567Y-108382197D01*
X182120909Y-108264157D01*
X181924616Y-108182850D01*
X181716233Y-108141400D01*
X181503767Y-108141400D01*
X181295384Y-108182850D01*
X181099091Y-108264157D01*
X180922433Y-108382197D01*
X180772197Y-108532433D01*
X180654157Y-108709091D01*
X180572850Y-108905384D01*
X180531400Y-109113767D01*
X180148600Y-109113767D01*
X180107150Y-108905384D01*
X180025843Y-108709091D01*
X179907803Y-108532433D01*
X179757567Y-108382197D01*
X179580909Y-108264157D01*
X179384616Y-108182850D01*
X179176233Y-108141400D01*
X178963767Y-108141400D01*
X178755384Y-108182850D01*
X178559091Y-108264157D01*
X178382433Y-108382197D01*
X178232197Y-108532433D01*
X178114157Y-108709091D01*
X178032850Y-108905384D01*
X177991400Y-109113767D01*
X177608600Y-109113767D01*
X177567150Y-108905384D01*
X177485843Y-108709091D01*
X177367803Y-108532433D01*
X177217567Y-108382197D01*
X177040909Y-108264157D01*
X176844616Y-108182850D01*
X176636233Y-108141400D01*
X176423767Y-108141400D01*
X176215384Y-108182850D01*
X176019091Y-108264157D01*
X175842433Y-108382197D01*
X175692197Y-108532433D01*
X175574157Y-108709091D01*
X175492850Y-108905384D01*
X175451400Y-109113767D01*
X175068600Y-109113767D01*
X175027150Y-108905384D01*
X174945843Y-108709091D01*
X174827803Y-108532433D01*
X174677567Y-108382197D01*
X174500909Y-108264157D01*
X174304616Y-108182850D01*
X174096233Y-108141400D01*
X173883767Y-108141400D01*
X173675384Y-108182850D01*
X173479091Y-108264157D01*
X173302433Y-108382197D01*
X173152197Y-108532433D01*
X173034157Y-108709091D01*
X172952850Y-108905384D01*
X172911400Y-109113767D01*
X172528600Y-109113767D01*
X172487150Y-108905384D01*
X172405843Y-108709091D01*
X172287803Y-108532433D01*
X172137567Y-108382197D01*
X171960909Y-108264157D01*
X171764616Y-108182850D01*
X171556233Y-108141400D01*
X171343767Y-108141400D01*
X171135384Y-108182850D01*
X170939091Y-108264157D01*
X170762433Y-108382197D01*
X170612197Y-108532433D01*
X170494157Y-108709091D01*
X170412850Y-108905384D01*
X170371400Y-109113767D01*
X169988600Y-109113767D01*
X169947150Y-108905384D01*
X169865843Y-108709091D01*
X169747803Y-108532433D01*
X169597567Y-108382197D01*
X169420909Y-108264157D01*
X169224616Y-108182850D01*
X169016233Y-108141400D01*
X168803767Y-108141400D01*
X168595384Y-108182850D01*
X168399091Y-108264157D01*
X168222433Y-108382197D01*
X168072197Y-108532433D01*
X167954157Y-108709091D01*
X167872850Y-108905384D01*
X167831400Y-109113767D01*
X167448600Y-109113767D01*
X167407150Y-108905384D01*
X167325843Y-108709091D01*
X167207803Y-108532433D01*
X167057567Y-108382197D01*
X166880909Y-108264157D01*
X166684616Y-108182850D01*
X166476233Y-108141400D01*
X166263767Y-108141400D01*
X166055384Y-108182850D01*
X165859091Y-108264157D01*
X165682433Y-108382197D01*
X165532197Y-108532433D01*
X165414157Y-108709091D01*
X165332850Y-108905384D01*
X165291400Y-109113767D01*
X164908600Y-109113767D01*
X164867150Y-108905384D01*
X164785843Y-108709091D01*
X164667803Y-108532433D01*
X164517567Y-108382197D01*
X164340909Y-108264157D01*
X164144616Y-108182850D01*
X163936233Y-108141400D01*
X163723767Y-108141400D01*
X163515384Y-108182850D01*
X163319091Y-108264157D01*
X163142433Y-108382197D01*
X162992197Y-108532433D01*
X162874157Y-108709091D01*
X162792850Y-108905384D01*
X162751400Y-109113767D01*
X162368600Y-109113767D01*
X162327150Y-108905384D01*
X162245843Y-108709091D01*
X162127803Y-108532433D01*
X161977567Y-108382197D01*
X161800909Y-108264157D01*
X161604616Y-108182850D01*
X161396233Y-108141400D01*
X161183767Y-108141400D01*
X160975384Y-108182850D01*
X160779091Y-108264157D01*
X160602433Y-108382197D01*
X160452197Y-108532433D01*
X160334157Y-108709091D01*
X160252850Y-108905384D01*
X160211400Y-109113767D01*
X159828600Y-109113767D01*
X159787150Y-108905384D01*
X159705843Y-108709091D01*
X159587803Y-108532433D01*
X159437567Y-108382197D01*
X159260909Y-108264157D01*
X159064616Y-108182850D01*
X158856233Y-108141400D01*
X158643767Y-108141400D01*
X158435384Y-108182850D01*
X158239091Y-108264157D01*
X158062433Y-108382197D01*
X157912197Y-108532433D01*
X157794157Y-108709091D01*
X157712850Y-108905384D01*
X157671400Y-109113767D01*
X157288600Y-109113767D01*
X157247150Y-108905384D01*
X157165843Y-108709091D01*
X157047803Y-108532433D01*
X156897567Y-108382197D01*
X156720909Y-108264157D01*
X156524616Y-108182850D01*
X156316233Y-108141400D01*
X156103767Y-108141400D01*
X155895384Y-108182850D01*
X155699091Y-108264157D01*
X155522433Y-108382197D01*
X155372197Y-108532433D01*
X155254157Y-108709091D01*
X155172850Y-108905384D01*
X155131400Y-109113767D01*
X154749706Y-109113767D01*
X154749706Y-108370000D01*
X154745292Y-108325187D01*
X154732221Y-108282095D01*
X154710994Y-108242382D01*
X154682427Y-108207573D01*
X154647618Y-108179006D01*
X154607905Y-108157779D01*
X154564813Y-108144708D01*
X154520000Y-108140294D01*
X152820000Y-108140294D01*
X152775187Y-108144708D01*
X152732095Y-108157779D01*
X152692382Y-108179006D01*
X152657573Y-108207573D01*
X152629006Y-108242382D01*
X152607779Y-108282095D01*
X152594708Y-108325187D01*
X152590294Y-108370000D01*
X152018600Y-108370000D01*
X152018600Y-106417586D01*
X152022573Y-106422427D01*
X152057382Y-106450994D01*
X152097095Y-106472221D01*
X152140187Y-106485292D01*
X152185000Y-106489706D01*
X153885000Y-106489706D01*
X153929813Y-106485292D01*
X153972905Y-106472221D01*
X154012618Y-106450994D01*
X154047427Y-106422427D01*
X154075994Y-106387618D01*
X154097221Y-106347905D01*
X154110292Y-106304813D01*
X154114706Y-106260000D01*
X154114706Y-105195000D01*
X155765294Y-105195000D01*
X155765294Y-106895000D01*
X155769708Y-106939813D01*
X155782779Y-106982905D01*
X155804006Y-107022618D01*
X155832573Y-107057427D01*
X155867382Y-107085994D01*
X155907095Y-107107221D01*
X155950187Y-107120292D01*
X155995000Y-107124706D01*
X157695000Y-107124706D01*
X157739813Y-107120292D01*
X157782905Y-107107221D01*
X157822618Y-107085994D01*
X157857427Y-107057427D01*
X157885994Y-107022618D01*
X157907221Y-106982905D01*
X157920292Y-106939813D01*
X157924706Y-106895000D01*
X157924706Y-105938767D01*
X158306400Y-105938767D01*
X158306400Y-106151233D01*
X158347850Y-106359616D01*
X158429157Y-106555909D01*
X158547197Y-106732567D01*
X158697433Y-106882803D01*
X158874091Y-107000843D01*
X159070384Y-107082150D01*
X159278767Y-107123600D01*
X159491233Y-107123600D01*
X159699616Y-107082150D01*
X159895909Y-107000843D01*
X160072567Y-106882803D01*
X160222803Y-106732567D01*
X160340843Y-106555909D01*
X160422150Y-106359616D01*
X160436281Y-106288571D01*
X160874258Y-106288571D01*
X160941966Y-106488880D01*
X161047451Y-106672131D01*
X161186660Y-106831282D01*
X161354243Y-106960217D01*
X161543760Y-107053981D01*
X161681430Y-107095739D01*
X161848800Y-107063604D01*
X161848800Y-106121200D01*
X162001200Y-106121200D01*
X162001200Y-107063604D01*
X162168570Y-107095739D01*
X162306240Y-107053981D01*
X162495757Y-106960217D01*
X162663340Y-106831282D01*
X162802549Y-106672131D01*
X162908034Y-106488880D01*
X162975742Y-106288571D01*
X162943759Y-106121200D01*
X162001200Y-106121200D01*
X161848800Y-106121200D01*
X160906241Y-106121200D01*
X160874258Y-106288571D01*
X160436281Y-106288571D01*
X160463600Y-106151233D01*
X160463600Y-105938767D01*
X160436282Y-105801429D01*
X160874258Y-105801429D01*
X160906241Y-105968800D01*
X161848800Y-105968800D01*
X161848800Y-105026396D01*
X162001200Y-105026396D01*
X162001200Y-105968800D01*
X162943759Y-105968800D01*
X162975742Y-105801429D01*
X162908034Y-105601120D01*
X162802549Y-105417869D01*
X162663340Y-105258718D01*
X162495757Y-105129783D01*
X162306240Y-105036019D01*
X162168570Y-104994261D01*
X162001200Y-105026396D01*
X161848800Y-105026396D01*
X161681430Y-104994261D01*
X161543760Y-105036019D01*
X161354243Y-105129783D01*
X161186660Y-105258718D01*
X161047451Y-105417869D01*
X160941966Y-105601120D01*
X160874258Y-105801429D01*
X160436282Y-105801429D01*
X160422150Y-105730384D01*
X160340843Y-105534091D01*
X160222803Y-105357433D01*
X160072567Y-105207197D01*
X159895909Y-105089157D01*
X159699616Y-105007850D01*
X159491233Y-104966400D01*
X159278767Y-104966400D01*
X159070384Y-105007850D01*
X158874091Y-105089157D01*
X158697433Y-105207197D01*
X158547197Y-105357433D01*
X158429157Y-105534091D01*
X158347850Y-105730384D01*
X158306400Y-105938767D01*
X157924706Y-105938767D01*
X157924706Y-105195000D01*
X157920292Y-105150187D01*
X157907221Y-105107095D01*
X157885994Y-105067382D01*
X157857427Y-105032573D01*
X157822618Y-105004006D01*
X157782905Y-104982779D01*
X157739813Y-104969708D01*
X157695000Y-104965294D01*
X155995000Y-104965294D01*
X155950187Y-104969708D01*
X155907095Y-104982779D01*
X155867382Y-105004006D01*
X155832573Y-105032573D01*
X155804006Y-105067382D01*
X155782779Y-105107095D01*
X155769708Y-105150187D01*
X155765294Y-105195000D01*
X154114706Y-105195000D01*
X154114706Y-104560000D01*
X154110292Y-104515187D01*
X154097221Y-104472095D01*
X154075994Y-104432382D01*
X154047427Y-104397573D01*
X154012618Y-104369006D01*
X153972905Y-104347779D01*
X153929813Y-104334708D01*
X153885000Y-104330294D01*
X152185000Y-104330294D01*
X152140187Y-104334708D01*
X152097095Y-104347779D01*
X152057382Y-104369006D01*
X152022573Y-104397573D01*
X152018600Y-104402414D01*
X152018600Y-103234711D01*
X152079157Y-103380909D01*
X152197197Y-103557567D01*
X152347433Y-103707803D01*
X152524091Y-103825843D01*
X152720384Y-103907150D01*
X152928767Y-103948600D01*
X153141233Y-103948600D01*
X153349616Y-103907150D01*
X153545909Y-103825843D01*
X153722567Y-103707803D01*
X153872803Y-103557567D01*
X153978910Y-103398767D01*
X155766400Y-103398767D01*
X155766400Y-103611233D01*
X155807850Y-103819616D01*
X155889157Y-104015909D01*
X156007197Y-104192567D01*
X156157433Y-104342803D01*
X156334091Y-104460843D01*
X156530384Y-104542150D01*
X156738767Y-104583600D01*
X156951233Y-104583600D01*
X157159616Y-104542150D01*
X157355909Y-104460843D01*
X157532567Y-104342803D01*
X157682803Y-104192567D01*
X157800843Y-104015909D01*
X157882150Y-103819616D01*
X157923600Y-103611233D01*
X157923600Y-103398767D01*
X158306400Y-103398767D01*
X158306400Y-103611233D01*
X158347850Y-103819616D01*
X158429157Y-104015909D01*
X158547197Y-104192567D01*
X158697433Y-104342803D01*
X158874091Y-104460843D01*
X159070384Y-104542150D01*
X159278767Y-104583600D01*
X159491233Y-104583600D01*
X159699616Y-104542150D01*
X159895909Y-104460843D01*
X160072567Y-104342803D01*
X160222803Y-104192567D01*
X160340843Y-104015909D01*
X160422150Y-103819616D01*
X160436281Y-103748571D01*
X160874258Y-103748571D01*
X160941966Y-103948880D01*
X161047451Y-104132131D01*
X161186660Y-104291282D01*
X161354243Y-104420217D01*
X161543760Y-104513981D01*
X161681430Y-104555739D01*
X161848800Y-104523604D01*
X161848800Y-103581200D01*
X162001200Y-103581200D01*
X162001200Y-104523604D01*
X162168570Y-104555739D01*
X162306240Y-104513981D01*
X162495757Y-104420217D01*
X162663340Y-104291282D01*
X162802549Y-104132131D01*
X162908034Y-103948880D01*
X162975742Y-103748571D01*
X162943759Y-103581200D01*
X162001200Y-103581200D01*
X161848800Y-103581200D01*
X160906241Y-103581200D01*
X160874258Y-103748571D01*
X160436281Y-103748571D01*
X160463600Y-103611233D01*
X160463600Y-103398767D01*
X160436282Y-103261429D01*
X160874258Y-103261429D01*
X160906241Y-103428800D01*
X161848800Y-103428800D01*
X161848800Y-102486396D01*
X162001200Y-102486396D01*
X162001200Y-103428800D01*
X162943759Y-103428800D01*
X162975742Y-103261429D01*
X162908034Y-103061120D01*
X162802549Y-102877869D01*
X162663340Y-102718718D01*
X162495757Y-102589783D01*
X162306240Y-102496019D01*
X162168570Y-102454261D01*
X162001200Y-102486396D01*
X161848800Y-102486396D01*
X161681430Y-102454261D01*
X161543760Y-102496019D01*
X161354243Y-102589783D01*
X161186660Y-102718718D01*
X161047451Y-102877869D01*
X160941966Y-103061120D01*
X160874258Y-103261429D01*
X160436282Y-103261429D01*
X160422150Y-103190384D01*
X160340843Y-102994091D01*
X160222803Y-102817433D01*
X160072567Y-102667197D01*
X159895909Y-102549157D01*
X159699616Y-102467850D01*
X159491233Y-102426400D01*
X159278767Y-102426400D01*
X159070384Y-102467850D01*
X158874091Y-102549157D01*
X158697433Y-102667197D01*
X158547197Y-102817433D01*
X158429157Y-102994091D01*
X158347850Y-103190384D01*
X158306400Y-103398767D01*
X157923600Y-103398767D01*
X157882150Y-103190384D01*
X157800843Y-102994091D01*
X157682803Y-102817433D01*
X157532567Y-102667197D01*
X157355909Y-102549157D01*
X157159616Y-102467850D01*
X156951233Y-102426400D01*
X156738767Y-102426400D01*
X156530384Y-102467850D01*
X156334091Y-102549157D01*
X156157433Y-102667197D01*
X156007197Y-102817433D01*
X155889157Y-102994091D01*
X155807850Y-103190384D01*
X155766400Y-103398767D01*
X153978910Y-103398767D01*
X153990843Y-103380909D01*
X154072150Y-103184616D01*
X154113600Y-102976233D01*
X154113600Y-102763767D01*
X154072150Y-102555384D01*
X153990843Y-102359091D01*
X153872803Y-102182433D01*
X153722567Y-102032197D01*
X153545909Y-101914157D01*
X153349616Y-101832850D01*
X153141233Y-101791400D01*
X152928767Y-101791400D01*
X152720384Y-101832850D01*
X152524091Y-101914157D01*
X152347433Y-102032197D01*
X152197197Y-102182433D01*
X152079157Y-102359091D01*
X152018600Y-102505289D01*
X152018600Y-100694711D01*
X152079157Y-100840909D01*
X152197197Y-101017567D01*
X152347433Y-101167803D01*
X152524091Y-101285843D01*
X152720384Y-101367150D01*
X152928767Y-101408600D01*
X153141233Y-101408600D01*
X153349616Y-101367150D01*
X153545909Y-101285843D01*
X153722567Y-101167803D01*
X153872803Y-101017567D01*
X153990843Y-100840909D01*
X154072150Y-100644616D01*
X154113600Y-100436233D01*
X154113600Y-100223767D01*
X154072150Y-100015384D01*
X153990843Y-99819091D01*
X153872803Y-99642433D01*
X153722567Y-99492197D01*
X153545909Y-99374157D01*
X153349616Y-99292850D01*
X153141233Y-99251400D01*
X152928767Y-99251400D01*
X152720384Y-99292850D01*
X152524091Y-99374157D01*
X152347433Y-99492197D01*
X152197197Y-99642433D01*
X152079157Y-99819091D01*
X152018600Y-99965289D01*
X152018600Y-98146781D01*
X152026019Y-98171240D01*
X152119783Y-98360757D01*
X152248718Y-98528340D01*
X152407869Y-98667549D01*
X152591120Y-98773034D01*
X152791429Y-98840742D01*
X152958800Y-98808759D01*
X152958800Y-97866200D01*
X153111200Y-97866200D01*
X153111200Y-98808759D01*
X153278571Y-98840742D01*
X153478880Y-98773034D01*
X153662131Y-98667549D01*
X153821282Y-98528340D01*
X153900789Y-98425000D01*
X188366400Y-98425000D01*
X188366400Y-107315000D01*
X188370792Y-107359598D01*
X188383801Y-107402481D01*
X188404926Y-107442003D01*
X188433355Y-107476645D01*
X188467997Y-107505074D01*
X188507519Y-107526199D01*
X188550402Y-107539208D01*
X188595000Y-107543600D01*
X194945000Y-107543600D01*
X194989598Y-107539208D01*
X195032481Y-107526199D01*
X195072003Y-107505074D01*
X195106645Y-107476645D01*
X195135074Y-107442003D01*
X195156199Y-107402481D01*
X195169208Y-107359598D01*
X195173600Y-107315000D01*
X195173600Y-105304334D01*
X201379490Y-105304334D01*
X201387813Y-105346691D01*
X201451210Y-105496987D01*
X201542710Y-105632027D01*
X201658797Y-105746621D01*
X201795009Y-105836366D01*
X201946112Y-105897813D01*
X202106300Y-105928600D01*
X202456300Y-105928600D01*
X202456300Y-105176200D01*
X201414823Y-105176200D01*
X201379490Y-105304334D01*
X195173600Y-105304334D01*
X195173600Y-104788747D01*
X199251516Y-104788747D01*
X199332707Y-104917546D01*
X199501805Y-104999342D01*
X199683612Y-105046576D01*
X199871141Y-105057435D01*
X200057185Y-105031499D01*
X200234595Y-104969767D01*
X200332293Y-104917546D01*
X200346085Y-104895666D01*
X201379490Y-104895666D01*
X201414823Y-105023800D01*
X202456300Y-105023800D01*
X202456300Y-104271400D01*
X202106300Y-104271400D01*
X201946112Y-104302187D01*
X201795009Y-104363634D01*
X201658797Y-104453379D01*
X201542710Y-104567973D01*
X201451210Y-104703013D01*
X201387813Y-104853309D01*
X201379490Y-104895666D01*
X200346085Y-104895666D01*
X200413484Y-104788747D01*
X199832500Y-104207763D01*
X199251516Y-104788747D01*
X195173600Y-104788747D01*
X195173600Y-104138641D01*
X198875065Y-104138641D01*
X198901001Y-104324685D01*
X198962733Y-104502095D01*
X199014954Y-104599793D01*
X199143753Y-104680984D01*
X199724737Y-104100000D01*
X199940263Y-104100000D01*
X200521247Y-104680984D01*
X200650046Y-104599793D01*
X200731842Y-104430695D01*
X200779076Y-104248888D01*
X200789935Y-104061359D01*
X200763999Y-103875315D01*
X200702267Y-103697905D01*
X200650046Y-103600207D01*
X200521247Y-103519016D01*
X199940263Y-104100000D01*
X199724737Y-104100000D01*
X199143753Y-103519016D01*
X199014954Y-103600207D01*
X198933158Y-103769305D01*
X198885924Y-103951112D01*
X198875065Y-104138641D01*
X195173600Y-104138641D01*
X195173600Y-103411253D01*
X199251516Y-103411253D01*
X199832500Y-103992237D01*
X200413484Y-103411253D01*
X200332293Y-103282454D01*
X200163195Y-103200658D01*
X199981388Y-103153424D01*
X199793859Y-103142565D01*
X199607815Y-103168501D01*
X199430405Y-103230233D01*
X199332707Y-103282454D01*
X199251516Y-103411253D01*
X195173600Y-103411253D01*
X195173600Y-102646864D01*
X195211164Y-102684428D01*
X195305930Y-102747749D01*
X195411228Y-102791365D01*
X195523013Y-102813600D01*
X195636987Y-102813600D01*
X195748772Y-102791365D01*
X195854070Y-102747749D01*
X195948836Y-102684428D01*
X196029428Y-102603836D01*
X196092749Y-102509070D01*
X196136365Y-102403772D01*
X196158600Y-102291987D01*
X196158600Y-102178013D01*
X196136365Y-102066228D01*
X196092749Y-101960930D01*
X196029428Y-101866164D01*
X195948836Y-101785572D01*
X195854070Y-101722251D01*
X195748772Y-101678635D01*
X195636987Y-101656400D01*
X195523013Y-101656400D01*
X195411228Y-101678635D01*
X195305930Y-101722251D01*
X195211164Y-101785572D01*
X195173600Y-101823136D01*
X195173600Y-101376864D01*
X195211164Y-101414428D01*
X195305930Y-101477749D01*
X195411228Y-101521365D01*
X195523013Y-101543600D01*
X195636987Y-101543600D01*
X195748772Y-101521365D01*
X195854070Y-101477749D01*
X195948836Y-101414428D01*
X196029428Y-101333836D01*
X196092749Y-101239070D01*
X196136365Y-101133772D01*
X196158600Y-101021987D01*
X196158600Y-100908013D01*
X196136365Y-100796228D01*
X196092749Y-100690930D01*
X196029428Y-100596164D01*
X195948836Y-100515572D01*
X195854070Y-100452251D01*
X195748772Y-100408635D01*
X195636987Y-100386400D01*
X195523013Y-100386400D01*
X195411228Y-100408635D01*
X195305930Y-100452251D01*
X195211164Y-100515572D01*
X195173600Y-100553136D01*
X195173600Y-99788747D01*
X199251516Y-99788747D01*
X199332707Y-99917546D01*
X199501805Y-99999342D01*
X199683612Y-100046576D01*
X199871141Y-100057435D01*
X200057185Y-100031499D01*
X200234595Y-99969767D01*
X200332293Y-99917546D01*
X200413484Y-99788747D01*
X199832500Y-99207763D01*
X199251516Y-99788747D01*
X195173600Y-99788747D01*
X195173600Y-99138641D01*
X198875065Y-99138641D01*
X198901001Y-99324685D01*
X198962733Y-99502095D01*
X199014954Y-99599793D01*
X199143753Y-99680984D01*
X199724737Y-99100000D01*
X199940263Y-99100000D01*
X200521247Y-99680984D01*
X200650046Y-99599793D01*
X200731842Y-99430695D01*
X200779076Y-99248888D01*
X200789935Y-99061359D01*
X200763999Y-98875315D01*
X200702267Y-98697905D01*
X200650046Y-98600207D01*
X200521247Y-98519016D01*
X199940263Y-99100000D01*
X199724737Y-99100000D01*
X199143753Y-98519016D01*
X199014954Y-98600207D01*
X198933158Y-98769305D01*
X198885924Y-98951112D01*
X198875065Y-99138641D01*
X195173600Y-99138641D01*
X195173600Y-98425000D01*
X195172247Y-98411253D01*
X199251516Y-98411253D01*
X199832500Y-98992237D01*
X200413484Y-98411253D01*
X200346086Y-98304334D01*
X201379490Y-98304334D01*
X201387813Y-98346691D01*
X201451210Y-98496987D01*
X201542710Y-98632027D01*
X201658797Y-98746621D01*
X201795009Y-98836366D01*
X201946112Y-98897813D01*
X202106300Y-98928600D01*
X202456300Y-98928600D01*
X202456300Y-98176200D01*
X201414823Y-98176200D01*
X201379490Y-98304334D01*
X200346086Y-98304334D01*
X200332293Y-98282454D01*
X200163195Y-98200658D01*
X199981388Y-98153424D01*
X199793859Y-98142565D01*
X199607815Y-98168501D01*
X199430405Y-98230233D01*
X199332707Y-98282454D01*
X199251516Y-98411253D01*
X195172247Y-98411253D01*
X195169208Y-98380402D01*
X195156199Y-98337519D01*
X195135074Y-98297997D01*
X195106645Y-98263355D01*
X195072003Y-98234926D01*
X195032481Y-98213801D01*
X194989598Y-98200792D01*
X194945000Y-98196400D01*
X188595000Y-98196400D01*
X188550402Y-98200792D01*
X188507519Y-98213801D01*
X188467997Y-98234926D01*
X188433355Y-98263355D01*
X188404926Y-98297997D01*
X188383801Y-98337519D01*
X188370792Y-98380402D01*
X188366400Y-98425000D01*
X153900789Y-98425000D01*
X153950217Y-98360757D01*
X154043981Y-98171240D01*
X154085739Y-98033570D01*
X154059262Y-97895666D01*
X201379490Y-97895666D01*
X201414823Y-98023800D01*
X202456300Y-98023800D01*
X202456300Y-97271400D01*
X202106300Y-97271400D01*
X201946112Y-97302187D01*
X201795009Y-97363634D01*
X201658797Y-97453379D01*
X201542710Y-97567973D01*
X201451210Y-97703013D01*
X201387813Y-97853309D01*
X201379490Y-97895666D01*
X154059262Y-97895666D01*
X154053604Y-97866200D01*
X153111200Y-97866200D01*
X152958800Y-97866200D01*
X152938800Y-97866200D01*
X152938800Y-97713800D01*
X152958800Y-97713800D01*
X152958800Y-96771241D01*
X153111200Y-96771241D01*
X153111200Y-97713800D01*
X154053604Y-97713800D01*
X154085739Y-97546430D01*
X154043981Y-97408760D01*
X153950217Y-97219243D01*
X153821282Y-97051660D01*
X153662131Y-96912451D01*
X153478880Y-96806966D01*
X153278571Y-96739258D01*
X153111200Y-96771241D01*
X152958800Y-96771241D01*
X152791429Y-96739258D01*
X152591120Y-96806966D01*
X152407869Y-96912451D01*
X152248718Y-97051660D01*
X152119783Y-97219243D01*
X152026019Y-97408760D01*
X152018600Y-97433219D01*
X152018600Y-93130000D01*
X152590294Y-93130000D01*
X152590294Y-94830000D01*
X152594708Y-94874813D01*
X152607779Y-94917905D01*
X152629006Y-94957618D01*
X152657573Y-94992427D01*
X152692382Y-95020994D01*
X152732095Y-95042221D01*
X152775187Y-95055292D01*
X152820000Y-95059706D01*
X154520000Y-95059706D01*
X154564813Y-95055292D01*
X154607905Y-95042221D01*
X154647618Y-95020994D01*
X154682427Y-94992427D01*
X154710994Y-94957618D01*
X154732221Y-94917905D01*
X154745292Y-94874813D01*
X154749706Y-94830000D01*
X154749706Y-93873767D01*
X155131400Y-93873767D01*
X155131400Y-94086233D01*
X155172850Y-94294616D01*
X155254157Y-94490909D01*
X155372197Y-94667567D01*
X155522433Y-94817803D01*
X155699091Y-94935843D01*
X155895384Y-95017150D01*
X156103767Y-95058600D01*
X156316233Y-95058600D01*
X156524616Y-95017150D01*
X156720909Y-94935843D01*
X156897567Y-94817803D01*
X157047803Y-94667567D01*
X157165843Y-94490909D01*
X157247150Y-94294616D01*
X157288600Y-94086233D01*
X157288600Y-93873767D01*
X157671400Y-93873767D01*
X157671400Y-94086233D01*
X157712850Y-94294616D01*
X157794157Y-94490909D01*
X157912197Y-94667567D01*
X158062433Y-94817803D01*
X158239091Y-94935843D01*
X158435384Y-95017150D01*
X158643767Y-95058600D01*
X158856233Y-95058600D01*
X159064616Y-95017150D01*
X159260909Y-94935843D01*
X159437567Y-94817803D01*
X159587803Y-94667567D01*
X159705843Y-94490909D01*
X159787150Y-94294616D01*
X159828600Y-94086233D01*
X159828600Y-93873767D01*
X160211400Y-93873767D01*
X160211400Y-94086233D01*
X160252850Y-94294616D01*
X160334157Y-94490909D01*
X160452197Y-94667567D01*
X160602433Y-94817803D01*
X160779091Y-94935843D01*
X160975384Y-95017150D01*
X161183767Y-95058600D01*
X161396233Y-95058600D01*
X161604616Y-95017150D01*
X161800909Y-94935843D01*
X161977567Y-94817803D01*
X162127803Y-94667567D01*
X162245843Y-94490909D01*
X162327150Y-94294616D01*
X162368600Y-94086233D01*
X162368600Y-93873767D01*
X162751400Y-93873767D01*
X162751400Y-94086233D01*
X162792850Y-94294616D01*
X162874157Y-94490909D01*
X162992197Y-94667567D01*
X163142433Y-94817803D01*
X163319091Y-94935843D01*
X163515384Y-95017150D01*
X163723767Y-95058600D01*
X163936233Y-95058600D01*
X164144616Y-95017150D01*
X164340909Y-94935843D01*
X164517567Y-94817803D01*
X164667803Y-94667567D01*
X164785843Y-94490909D01*
X164867150Y-94294616D01*
X164908600Y-94086233D01*
X164908600Y-93873767D01*
X165291400Y-93873767D01*
X165291400Y-94086233D01*
X165332850Y-94294616D01*
X165414157Y-94490909D01*
X165532197Y-94667567D01*
X165682433Y-94817803D01*
X165859091Y-94935843D01*
X166055384Y-95017150D01*
X166263767Y-95058600D01*
X166476233Y-95058600D01*
X166684616Y-95017150D01*
X166880909Y-94935843D01*
X167057567Y-94817803D01*
X167207803Y-94667567D01*
X167325843Y-94490909D01*
X167407150Y-94294616D01*
X167448600Y-94086233D01*
X167448600Y-93873767D01*
X167831400Y-93873767D01*
X167831400Y-94086233D01*
X167872850Y-94294616D01*
X167954157Y-94490909D01*
X168072197Y-94667567D01*
X168222433Y-94817803D01*
X168399091Y-94935843D01*
X168595384Y-95017150D01*
X168803767Y-95058600D01*
X169016233Y-95058600D01*
X169224616Y-95017150D01*
X169420909Y-94935843D01*
X169597567Y-94817803D01*
X169747803Y-94667567D01*
X169865843Y-94490909D01*
X169947150Y-94294616D01*
X169988600Y-94086233D01*
X169988600Y-93873767D01*
X170371400Y-93873767D01*
X170371400Y-94086233D01*
X170412850Y-94294616D01*
X170494157Y-94490909D01*
X170612197Y-94667567D01*
X170762433Y-94817803D01*
X170939091Y-94935843D01*
X171135384Y-95017150D01*
X171343767Y-95058600D01*
X171556233Y-95058600D01*
X171764616Y-95017150D01*
X171960909Y-94935843D01*
X172137567Y-94817803D01*
X172287803Y-94667567D01*
X172405843Y-94490909D01*
X172487150Y-94294616D01*
X172528600Y-94086233D01*
X172528600Y-93873767D01*
X172911400Y-93873767D01*
X172911400Y-94086233D01*
X172952850Y-94294616D01*
X173034157Y-94490909D01*
X173152197Y-94667567D01*
X173302433Y-94817803D01*
X173479091Y-94935843D01*
X173675384Y-95017150D01*
X173883767Y-95058600D01*
X174096233Y-95058600D01*
X174304616Y-95017150D01*
X174500909Y-94935843D01*
X174677567Y-94817803D01*
X174827803Y-94667567D01*
X174945843Y-94490909D01*
X175027150Y-94294616D01*
X175068600Y-94086233D01*
X175068600Y-93873767D01*
X175451400Y-93873767D01*
X175451400Y-94086233D01*
X175492850Y-94294616D01*
X175574157Y-94490909D01*
X175692197Y-94667567D01*
X175842433Y-94817803D01*
X176019091Y-94935843D01*
X176215384Y-95017150D01*
X176423767Y-95058600D01*
X176636233Y-95058600D01*
X176844616Y-95017150D01*
X177040909Y-94935843D01*
X177217567Y-94817803D01*
X177367803Y-94667567D01*
X177485843Y-94490909D01*
X177567150Y-94294616D01*
X177608600Y-94086233D01*
X177608600Y-93873767D01*
X177991400Y-93873767D01*
X177991400Y-94086233D01*
X178032850Y-94294616D01*
X178114157Y-94490909D01*
X178232197Y-94667567D01*
X178382433Y-94817803D01*
X178559091Y-94935843D01*
X178755384Y-95017150D01*
X178963767Y-95058600D01*
X179176233Y-95058600D01*
X179384616Y-95017150D01*
X179580909Y-94935843D01*
X179757567Y-94817803D01*
X179907803Y-94667567D01*
X180025843Y-94490909D01*
X180107150Y-94294616D01*
X180148600Y-94086233D01*
X180148600Y-93873767D01*
X180531400Y-93873767D01*
X180531400Y-94086233D01*
X180572850Y-94294616D01*
X180654157Y-94490909D01*
X180772197Y-94667567D01*
X180922433Y-94817803D01*
X181099091Y-94935843D01*
X181295384Y-95017150D01*
X181503767Y-95058600D01*
X181716233Y-95058600D01*
X181924616Y-95017150D01*
X182120909Y-94935843D01*
X182297567Y-94817803D01*
X182447803Y-94667567D01*
X182565843Y-94490909D01*
X182647150Y-94294616D01*
X182688600Y-94086233D01*
X182688600Y-93873767D01*
X183071400Y-93873767D01*
X183071400Y-94086233D01*
X183112850Y-94294616D01*
X183194157Y-94490909D01*
X183312197Y-94667567D01*
X183462433Y-94817803D01*
X183639091Y-94935843D01*
X183835384Y-95017150D01*
X184043767Y-95058600D01*
X184256233Y-95058600D01*
X184464616Y-95017150D01*
X184660909Y-94935843D01*
X184837567Y-94817803D01*
X184987803Y-94667567D01*
X185105843Y-94490909D01*
X185187150Y-94294616D01*
X185228600Y-94086233D01*
X185228600Y-93873767D01*
X185611400Y-93873767D01*
X185611400Y-94086233D01*
X185652850Y-94294616D01*
X185734157Y-94490909D01*
X185852197Y-94667567D01*
X186002433Y-94817803D01*
X186179091Y-94935843D01*
X186375384Y-95017150D01*
X186583767Y-95058600D01*
X186796233Y-95058600D01*
X187004616Y-95017150D01*
X187200909Y-94935843D01*
X187377567Y-94817803D01*
X187527803Y-94667567D01*
X187645843Y-94490909D01*
X187727150Y-94294616D01*
X187768600Y-94086233D01*
X187768600Y-93873767D01*
X188151400Y-93873767D01*
X188151400Y-94086233D01*
X188192850Y-94294616D01*
X188274157Y-94490909D01*
X188392197Y-94667567D01*
X188542433Y-94817803D01*
X188719091Y-94935843D01*
X188915384Y-95017150D01*
X189123767Y-95058600D01*
X189336233Y-95058600D01*
X189544616Y-95017150D01*
X189740909Y-94935843D01*
X189917567Y-94817803D01*
X190067803Y-94667567D01*
X190185843Y-94490909D01*
X190267150Y-94294616D01*
X190308600Y-94086233D01*
X190308600Y-93873767D01*
X190691400Y-93873767D01*
X190691400Y-94086233D01*
X190732850Y-94294616D01*
X190814157Y-94490909D01*
X190932197Y-94667567D01*
X191082433Y-94817803D01*
X191259091Y-94935843D01*
X191455384Y-95017150D01*
X191663767Y-95058600D01*
X191876233Y-95058600D01*
X192084616Y-95017150D01*
X192280909Y-94935843D01*
X192457567Y-94817803D01*
X192607803Y-94667567D01*
X192725843Y-94490909D01*
X192807150Y-94294616D01*
X192848600Y-94086233D01*
X192848600Y-93873767D01*
X193231400Y-93873767D01*
X193231400Y-94086233D01*
X193272850Y-94294616D01*
X193354157Y-94490909D01*
X193472197Y-94667567D01*
X193622433Y-94817803D01*
X193799091Y-94935843D01*
X193995384Y-95017150D01*
X194203767Y-95058600D01*
X194416233Y-95058600D01*
X194624616Y-95017150D01*
X194820909Y-94935843D01*
X194997567Y-94817803D01*
X195147803Y-94667567D01*
X195265843Y-94490909D01*
X195347150Y-94294616D01*
X195388600Y-94086233D01*
X195388600Y-93873767D01*
X195771400Y-93873767D01*
X195771400Y-94086233D01*
X195812850Y-94294616D01*
X195894157Y-94490909D01*
X196012197Y-94667567D01*
X196162433Y-94817803D01*
X196339091Y-94935843D01*
X196535384Y-95017150D01*
X196743767Y-95058600D01*
X196956233Y-95058600D01*
X197164616Y-95017150D01*
X197360909Y-94935843D01*
X197537567Y-94817803D01*
X197687803Y-94667567D01*
X197805843Y-94490909D01*
X197887150Y-94294616D01*
X197928600Y-94086233D01*
X197928600Y-93873767D01*
X198311400Y-93873767D01*
X198311400Y-94086233D01*
X198352850Y-94294616D01*
X198434157Y-94490909D01*
X198552197Y-94667567D01*
X198702433Y-94817803D01*
X198879091Y-94935843D01*
X199075384Y-95017150D01*
X199283767Y-95058600D01*
X199496233Y-95058600D01*
X199704616Y-95017150D01*
X199900909Y-94935843D01*
X200077567Y-94817803D01*
X200227803Y-94667567D01*
X200345843Y-94490909D01*
X200427150Y-94294616D01*
X200468600Y-94086233D01*
X200468600Y-93873767D01*
X200851400Y-93873767D01*
X200851400Y-94086233D01*
X200892850Y-94294616D01*
X200974157Y-94490909D01*
X201092197Y-94667567D01*
X201242433Y-94817803D01*
X201419091Y-94935843D01*
X201615384Y-95017150D01*
X201823767Y-95058600D01*
X202036233Y-95058600D01*
X202244616Y-95017150D01*
X202440909Y-94935843D01*
X202617567Y-94817803D01*
X202767803Y-94667567D01*
X202885843Y-94490909D01*
X202967150Y-94294616D01*
X203008600Y-94086233D01*
X203008600Y-93873767D01*
X202967150Y-93665384D01*
X202885843Y-93469091D01*
X202767803Y-93292433D01*
X202617567Y-93142197D01*
X202440909Y-93024157D01*
X202244616Y-92942850D01*
X202036233Y-92901400D01*
X201823767Y-92901400D01*
X201615384Y-92942850D01*
X201419091Y-93024157D01*
X201242433Y-93142197D01*
X201092197Y-93292433D01*
X200974157Y-93469091D01*
X200892850Y-93665384D01*
X200851400Y-93873767D01*
X200468600Y-93873767D01*
X200427150Y-93665384D01*
X200345843Y-93469091D01*
X200227803Y-93292433D01*
X200077567Y-93142197D01*
X199900909Y-93024157D01*
X199704616Y-92942850D01*
X199496233Y-92901400D01*
X199283767Y-92901400D01*
X199075384Y-92942850D01*
X198879091Y-93024157D01*
X198702433Y-93142197D01*
X198552197Y-93292433D01*
X198434157Y-93469091D01*
X198352850Y-93665384D01*
X198311400Y-93873767D01*
X197928600Y-93873767D01*
X197887150Y-93665384D01*
X197805843Y-93469091D01*
X197687803Y-93292433D01*
X197537567Y-93142197D01*
X197360909Y-93024157D01*
X197164616Y-92942850D01*
X196956233Y-92901400D01*
X196743767Y-92901400D01*
X196535384Y-92942850D01*
X196339091Y-93024157D01*
X196162433Y-93142197D01*
X196012197Y-93292433D01*
X195894157Y-93469091D01*
X195812850Y-93665384D01*
X195771400Y-93873767D01*
X195388600Y-93873767D01*
X195347150Y-93665384D01*
X195265843Y-93469091D01*
X195147803Y-93292433D01*
X194997567Y-93142197D01*
X194820909Y-93024157D01*
X194624616Y-92942850D01*
X194416233Y-92901400D01*
X194203767Y-92901400D01*
X193995384Y-92942850D01*
X193799091Y-93024157D01*
X193622433Y-93142197D01*
X193472197Y-93292433D01*
X193354157Y-93469091D01*
X193272850Y-93665384D01*
X193231400Y-93873767D01*
X192848600Y-93873767D01*
X192807150Y-93665384D01*
X192725843Y-93469091D01*
X192607803Y-93292433D01*
X192457567Y-93142197D01*
X192280909Y-93024157D01*
X192084616Y-92942850D01*
X191876233Y-92901400D01*
X191663767Y-92901400D01*
X191455384Y-92942850D01*
X191259091Y-93024157D01*
X191082433Y-93142197D01*
X190932197Y-93292433D01*
X190814157Y-93469091D01*
X190732850Y-93665384D01*
X190691400Y-93873767D01*
X190308600Y-93873767D01*
X190267150Y-93665384D01*
X190185843Y-93469091D01*
X190067803Y-93292433D01*
X189917567Y-93142197D01*
X189740909Y-93024157D01*
X189544616Y-92942850D01*
X189336233Y-92901400D01*
X189123767Y-92901400D01*
X188915384Y-92942850D01*
X188719091Y-93024157D01*
X188542433Y-93142197D01*
X188392197Y-93292433D01*
X188274157Y-93469091D01*
X188192850Y-93665384D01*
X188151400Y-93873767D01*
X187768600Y-93873767D01*
X187727150Y-93665384D01*
X187645843Y-93469091D01*
X187527803Y-93292433D01*
X187377567Y-93142197D01*
X187200909Y-93024157D01*
X187004616Y-92942850D01*
X186796233Y-92901400D01*
X186583767Y-92901400D01*
X186375384Y-92942850D01*
X186179091Y-93024157D01*
X186002433Y-93142197D01*
X185852197Y-93292433D01*
X185734157Y-93469091D01*
X185652850Y-93665384D01*
X185611400Y-93873767D01*
X185228600Y-93873767D01*
X185187150Y-93665384D01*
X185105843Y-93469091D01*
X184987803Y-93292433D01*
X184837567Y-93142197D01*
X184660909Y-93024157D01*
X184464616Y-92942850D01*
X184256233Y-92901400D01*
X184043767Y-92901400D01*
X183835384Y-92942850D01*
X183639091Y-93024157D01*
X183462433Y-93142197D01*
X183312197Y-93292433D01*
X183194157Y-93469091D01*
X183112850Y-93665384D01*
X183071400Y-93873767D01*
X182688600Y-93873767D01*
X182647150Y-93665384D01*
X182565843Y-93469091D01*
X182447803Y-93292433D01*
X182297567Y-93142197D01*
X182120909Y-93024157D01*
X181924616Y-92942850D01*
X181716233Y-92901400D01*
X181503767Y-92901400D01*
X181295384Y-92942850D01*
X181099091Y-93024157D01*
X180922433Y-93142197D01*
X180772197Y-93292433D01*
X180654157Y-93469091D01*
X180572850Y-93665384D01*
X180531400Y-93873767D01*
X180148600Y-93873767D01*
X180107150Y-93665384D01*
X180025843Y-93469091D01*
X179907803Y-93292433D01*
X179757567Y-93142197D01*
X179580909Y-93024157D01*
X179384616Y-92942850D01*
X179176233Y-92901400D01*
X178963767Y-92901400D01*
X178755384Y-92942850D01*
X178559091Y-93024157D01*
X178382433Y-93142197D01*
X178232197Y-93292433D01*
X178114157Y-93469091D01*
X178032850Y-93665384D01*
X177991400Y-93873767D01*
X177608600Y-93873767D01*
X177567150Y-93665384D01*
X177485843Y-93469091D01*
X177367803Y-93292433D01*
X177217567Y-93142197D01*
X177040909Y-93024157D01*
X176844616Y-92942850D01*
X176636233Y-92901400D01*
X176423767Y-92901400D01*
X176215384Y-92942850D01*
X176019091Y-93024157D01*
X175842433Y-93142197D01*
X175692197Y-93292433D01*
X175574157Y-93469091D01*
X175492850Y-93665384D01*
X175451400Y-93873767D01*
X175068600Y-93873767D01*
X175027150Y-93665384D01*
X174945843Y-93469091D01*
X174827803Y-93292433D01*
X174677567Y-93142197D01*
X174500909Y-93024157D01*
X174304616Y-92942850D01*
X174096233Y-92901400D01*
X173883767Y-92901400D01*
X173675384Y-92942850D01*
X173479091Y-93024157D01*
X173302433Y-93142197D01*
X173152197Y-93292433D01*
X173034157Y-93469091D01*
X172952850Y-93665384D01*
X172911400Y-93873767D01*
X172528600Y-93873767D01*
X172487150Y-93665384D01*
X172405843Y-93469091D01*
X172287803Y-93292433D01*
X172137567Y-93142197D01*
X171960909Y-93024157D01*
X171764616Y-92942850D01*
X171556233Y-92901400D01*
X171343767Y-92901400D01*
X171135384Y-92942850D01*
X170939091Y-93024157D01*
X170762433Y-93142197D01*
X170612197Y-93292433D01*
X170494157Y-93469091D01*
X170412850Y-93665384D01*
X170371400Y-93873767D01*
X169988600Y-93873767D01*
X169947150Y-93665384D01*
X169865843Y-93469091D01*
X169747803Y-93292433D01*
X169597567Y-93142197D01*
X169420909Y-93024157D01*
X169224616Y-92942850D01*
X169016233Y-92901400D01*
X168803767Y-92901400D01*
X168595384Y-92942850D01*
X168399091Y-93024157D01*
X168222433Y-93142197D01*
X168072197Y-93292433D01*
X167954157Y-93469091D01*
X167872850Y-93665384D01*
X167831400Y-93873767D01*
X167448600Y-93873767D01*
X167407150Y-93665384D01*
X167325843Y-93469091D01*
X167207803Y-93292433D01*
X167057567Y-93142197D01*
X166880909Y-93024157D01*
X166684616Y-92942850D01*
X166476233Y-92901400D01*
X166263767Y-92901400D01*
X166055384Y-92942850D01*
X165859091Y-93024157D01*
X165682433Y-93142197D01*
X165532197Y-93292433D01*
X165414157Y-93469091D01*
X165332850Y-93665384D01*
X165291400Y-93873767D01*
X164908600Y-93873767D01*
X164867150Y-93665384D01*
X164785843Y-93469091D01*
X164667803Y-93292433D01*
X164517567Y-93142197D01*
X164340909Y-93024157D01*
X164144616Y-92942850D01*
X163936233Y-92901400D01*
X163723767Y-92901400D01*
X163515384Y-92942850D01*
X163319091Y-93024157D01*
X163142433Y-93142197D01*
X162992197Y-93292433D01*
X162874157Y-93469091D01*
X162792850Y-93665384D01*
X162751400Y-93873767D01*
X162368600Y-93873767D01*
X162327150Y-93665384D01*
X162245843Y-93469091D01*
X162127803Y-93292433D01*
X161977567Y-93142197D01*
X161800909Y-93024157D01*
X161604616Y-92942850D01*
X161396233Y-92901400D01*
X161183767Y-92901400D01*
X160975384Y-92942850D01*
X160779091Y-93024157D01*
X160602433Y-93142197D01*
X160452197Y-93292433D01*
X160334157Y-93469091D01*
X160252850Y-93665384D01*
X160211400Y-93873767D01*
X159828600Y-93873767D01*
X159787150Y-93665384D01*
X159705843Y-93469091D01*
X159587803Y-93292433D01*
X159437567Y-93142197D01*
X159260909Y-93024157D01*
X159064616Y-92942850D01*
X158856233Y-92901400D01*
X158643767Y-92901400D01*
X158435384Y-92942850D01*
X158239091Y-93024157D01*
X158062433Y-93142197D01*
X157912197Y-93292433D01*
X157794157Y-93469091D01*
X157712850Y-93665384D01*
X157671400Y-93873767D01*
X157288600Y-93873767D01*
X157247150Y-93665384D01*
X157165843Y-93469091D01*
X157047803Y-93292433D01*
X156897567Y-93142197D01*
X156720909Y-93024157D01*
X156524616Y-92942850D01*
X156316233Y-92901400D01*
X156103767Y-92901400D01*
X155895384Y-92942850D01*
X155699091Y-93024157D01*
X155522433Y-93142197D01*
X155372197Y-93292433D01*
X155254157Y-93469091D01*
X155172850Y-93665384D01*
X155131400Y-93873767D01*
X154749706Y-93873767D01*
X154749706Y-93130000D01*
X154745292Y-93085187D01*
X154732221Y-93042095D01*
X154710994Y-93002382D01*
X154682427Y-92967573D01*
X154647618Y-92939006D01*
X154607905Y-92917779D01*
X154564813Y-92904708D01*
X154520000Y-92900294D01*
X152820000Y-92900294D01*
X152775187Y-92904708D01*
X152732095Y-92917779D01*
X152692382Y-92939006D01*
X152657573Y-92967573D01*
X152629006Y-93002382D01*
X152607779Y-93042095D01*
X152594708Y-93085187D01*
X152590294Y-93130000D01*
X152018600Y-93130000D01*
X152018600Y-91693600D01*
X203581400Y-91693600D01*
X203581400Y-97655211D01*
%TO.N,+3V3*%
G36*
X194868800Y-107238800D02*
G01*
X188671200Y-107238800D01*
X188671200Y-98501200D01*
X194868800Y-98501200D01*
X194868800Y-107238800D01*
G37*
X194868800Y-107238800D02*
X188671200Y-107238800D01*
X188671200Y-98501200D01*
X194868800Y-98501200D01*
X194868800Y-107238800D01*
%TD*%
M02*
