%TF.GenerationSoftware,KiCad,Pcbnew,5.1.6+dfsg1-1*%
%TF.CreationDate,2020-07-03T12:17:36+08:00*%
%TF.ProjectId,stm32devmini,73746d33-3264-4657-966d-696e692e6b69,a*%
%TF.SameCoordinates,Original*%
%TF.FileFunction,Soldermask,Top*%
%TF.FilePolarity,Negative*%
%FSLAX46Y46*%
G04 Gerber Fmt 4.6, Leading zero omitted, Abs format (unit mm)*
G04 Created by KiCad (PCBNEW 5.1.6+dfsg1-1) date 2020-07-03 12:17:36*
%MOMM*%
%LPD*%
G01*
G04 APERTURE LIST*
%ADD10R,1.800000X1.100000*%
%ADD11R,0.900000X1.000000*%
%ADD12O,2.200000X1.100000*%
%ADD13C,0.750000*%
%ADD14O,1.700000X1.100000*%
%ADD15R,1.100000X1.900000*%
%ADD16R,2.500000X2.000000*%
%ADD17O,1.800000X1.800000*%
%ADD18R,1.800000X1.800000*%
%ADD19R,1.300000X1.000000*%
G04 APERTURE END LIST*
%TO.C,R3*%
G36*
G01*
X200800000Y-103067500D02*
X200800000Y-102672500D01*
G75*
G02*
X200972500Y-102500000I172500J0D01*
G01*
X201317500Y-102500000D01*
G75*
G02*
X201490000Y-102672500I0J-172500D01*
G01*
X201490000Y-103067500D01*
G75*
G02*
X201317500Y-103240000I-172500J0D01*
G01*
X200972500Y-103240000D01*
G75*
G02*
X200800000Y-103067500I0J172500D01*
G01*
G37*
G36*
G01*
X199830000Y-103067500D02*
X199830000Y-102672500D01*
G75*
G02*
X200002500Y-102500000I172500J0D01*
G01*
X200347500Y-102500000D01*
G75*
G02*
X200520000Y-102672500I0J-172500D01*
G01*
X200520000Y-103067500D01*
G75*
G02*
X200347500Y-103240000I-172500J0D01*
G01*
X200002500Y-103240000D01*
G75*
G02*
X199830000Y-103067500I0J172500D01*
G01*
G37*
%TD*%
%TO.C,R2*%
G36*
G01*
X200800000Y-101797500D02*
X200800000Y-101402500D01*
G75*
G02*
X200972500Y-101230000I172500J0D01*
G01*
X201317500Y-101230000D01*
G75*
G02*
X201490000Y-101402500I0J-172500D01*
G01*
X201490000Y-101797500D01*
G75*
G02*
X201317500Y-101970000I-172500J0D01*
G01*
X200972500Y-101970000D01*
G75*
G02*
X200800000Y-101797500I0J172500D01*
G01*
G37*
G36*
G01*
X199830000Y-101797500D02*
X199830000Y-101402500D01*
G75*
G02*
X200002500Y-101230000I172500J0D01*
G01*
X200347500Y-101230000D01*
G75*
G02*
X200520000Y-101402500I0J-172500D01*
G01*
X200520000Y-101797500D01*
G75*
G02*
X200347500Y-101970000I-172500J0D01*
G01*
X200002500Y-101970000D01*
G75*
G02*
X199830000Y-101797500I0J172500D01*
G01*
G37*
%TD*%
%TO.C,R1*%
G36*
G01*
X200800000Y-100527500D02*
X200800000Y-100132500D01*
G75*
G02*
X200972500Y-99960000I172500J0D01*
G01*
X201317500Y-99960000D01*
G75*
G02*
X201490000Y-100132500I0J-172500D01*
G01*
X201490000Y-100527500D01*
G75*
G02*
X201317500Y-100700000I-172500J0D01*
G01*
X200972500Y-100700000D01*
G75*
G02*
X200800000Y-100527500I0J172500D01*
G01*
G37*
G36*
G01*
X199830000Y-100527500D02*
X199830000Y-100132500D01*
G75*
G02*
X200002500Y-99960000I172500J0D01*
G01*
X200347500Y-99960000D01*
G75*
G02*
X200520000Y-100132500I0J-172500D01*
G01*
X200520000Y-100527500D01*
G75*
G02*
X200347500Y-100700000I-172500J0D01*
G01*
X200002500Y-100700000D01*
G75*
G02*
X199830000Y-100527500I0J172500D01*
G01*
G37*
%TD*%
D10*
%TO.C,SW1*%
X156235000Y-102875000D03*
X162535000Y-102875000D03*
X156235000Y-106675000D03*
X162535000Y-106675000D03*
%TD*%
%TO.C,SW2*%
X156235000Y-96525000D03*
X162535000Y-96525000D03*
X156235000Y-100325000D03*
X162535000Y-100325000D03*
%TD*%
D11*
%TO.C,U1*%
X191135000Y-106410000D03*
X190185000Y-104410000D03*
X192085000Y-104410000D03*
%TD*%
%TO.C,C4*%
G36*
G01*
X164267500Y-99835000D02*
X164662500Y-99835000D01*
G75*
G02*
X164835000Y-100007500I0J-172500D01*
G01*
X164835000Y-100352500D01*
G75*
G02*
X164662500Y-100525000I-172500J0D01*
G01*
X164267500Y-100525000D01*
G75*
G02*
X164095000Y-100352500I0J172500D01*
G01*
X164095000Y-100007500D01*
G75*
G02*
X164267500Y-99835000I172500J0D01*
G01*
G37*
G36*
G01*
X164267500Y-98865000D02*
X164662500Y-98865000D01*
G75*
G02*
X164835000Y-99037500I0J-172500D01*
G01*
X164835000Y-99382500D01*
G75*
G02*
X164662500Y-99555000I-172500J0D01*
G01*
X164267500Y-99555000D01*
G75*
G02*
X164095000Y-99382500I0J172500D01*
G01*
X164095000Y-99037500D01*
G75*
G02*
X164267500Y-98865000I172500J0D01*
G01*
G37*
%TD*%
%TO.C,R5*%
G36*
G01*
X200800000Y-99257500D02*
X200800000Y-98862500D01*
G75*
G02*
X200972500Y-98690000I172500J0D01*
G01*
X201317500Y-98690000D01*
G75*
G02*
X201490000Y-98862500I0J-172500D01*
G01*
X201490000Y-99257500D01*
G75*
G02*
X201317500Y-99430000I-172500J0D01*
G01*
X200972500Y-99430000D01*
G75*
G02*
X200800000Y-99257500I0J172500D01*
G01*
G37*
G36*
G01*
X199830000Y-99257500D02*
X199830000Y-98862500D01*
G75*
G02*
X200002500Y-98690000I172500J0D01*
G01*
X200347500Y-98690000D01*
G75*
G02*
X200520000Y-98862500I0J-172500D01*
G01*
X200520000Y-99257500D01*
G75*
G02*
X200347500Y-99430000I-172500J0D01*
G01*
X200002500Y-99430000D01*
G75*
G02*
X199830000Y-99257500I0J172500D01*
G01*
G37*
%TD*%
D12*
%TO.C,J1*%
X198165000Y-105920000D03*
X198165000Y-97280000D03*
D13*
X198695000Y-98710000D03*
D14*
X202345000Y-97280000D03*
D13*
X198695000Y-104490000D03*
D14*
X202345000Y-105920000D03*
%TD*%
%TO.C,U2*%
G36*
G01*
X174526839Y-101228769D02*
X173554566Y-100256498D01*
G75*
G02*
X173554566Y-100115076I70711J70711D01*
G01*
X173695988Y-99973654D01*
G75*
G02*
X173837410Y-99973654I70711J-70711D01*
G01*
X174809682Y-100945926D01*
G75*
G02*
X174809682Y-101087348I-70711J-70711D01*
G01*
X174668260Y-101228770D01*
G75*
G02*
X174526838Y-101228770I-70711J70711D01*
G01*
G37*
G36*
G01*
X174880393Y-100875215D02*
X173908120Y-99902944D01*
G75*
G02*
X173908120Y-99761522I70711J70711D01*
G01*
X174049542Y-99620100D01*
G75*
G02*
X174190964Y-99620100I70711J-70711D01*
G01*
X175163236Y-100592372D01*
G75*
G02*
X175163236Y-100733794I-70711J-70711D01*
G01*
X175021814Y-100875216D01*
G75*
G02*
X174880392Y-100875216I-70711J70711D01*
G01*
G37*
G36*
G01*
X175233946Y-100521662D02*
X174261673Y-99549391D01*
G75*
G02*
X174261673Y-99407969I70711J70711D01*
G01*
X174403095Y-99266547D01*
G75*
G02*
X174544517Y-99266547I70711J-70711D01*
G01*
X175516789Y-100238819D01*
G75*
G02*
X175516789Y-100380241I-70711J-70711D01*
G01*
X175375367Y-100521663D01*
G75*
G02*
X175233945Y-100521663I-70711J70711D01*
G01*
G37*
G36*
G01*
X175587500Y-100168108D02*
X174615227Y-99195837D01*
G75*
G02*
X174615227Y-99054415I70711J70711D01*
G01*
X174756649Y-98912993D01*
G75*
G02*
X174898071Y-98912993I70711J-70711D01*
G01*
X175870343Y-99885265D01*
G75*
G02*
X175870343Y-100026687I-70711J-70711D01*
G01*
X175728921Y-100168109D01*
G75*
G02*
X175587499Y-100168109I-70711J70711D01*
G01*
G37*
G36*
G01*
X175941053Y-99814555D02*
X174968780Y-98842284D01*
G75*
G02*
X174968780Y-98700862I70711J70711D01*
G01*
X175110202Y-98559440D01*
G75*
G02*
X175251624Y-98559440I70711J-70711D01*
G01*
X176223896Y-99531712D01*
G75*
G02*
X176223896Y-99673134I-70711J-70711D01*
G01*
X176082474Y-99814556D01*
G75*
G02*
X175941052Y-99814556I-70711J70711D01*
G01*
G37*
G36*
G01*
X176294606Y-99461002D02*
X175322333Y-98488731D01*
G75*
G02*
X175322333Y-98347309I70711J70711D01*
G01*
X175463755Y-98205887D01*
G75*
G02*
X175605177Y-98205887I70711J-70711D01*
G01*
X176577449Y-99178159D01*
G75*
G02*
X176577449Y-99319581I-70711J-70711D01*
G01*
X176436027Y-99461003D01*
G75*
G02*
X176294605Y-99461003I-70711J70711D01*
G01*
G37*
G36*
G01*
X176648160Y-99107448D02*
X175675887Y-98135177D01*
G75*
G02*
X175675887Y-97993755I70711J70711D01*
G01*
X175817309Y-97852333D01*
G75*
G02*
X175958731Y-97852333I70711J-70711D01*
G01*
X176931003Y-98824605D01*
G75*
G02*
X176931003Y-98966027I-70711J-70711D01*
G01*
X176789581Y-99107449D01*
G75*
G02*
X176648159Y-99107449I-70711J70711D01*
G01*
G37*
G36*
G01*
X177001713Y-98753895D02*
X176029440Y-97781624D01*
G75*
G02*
X176029440Y-97640202I70711J70711D01*
G01*
X176170862Y-97498780D01*
G75*
G02*
X176312284Y-97498780I70711J-70711D01*
G01*
X177284556Y-98471052D01*
G75*
G02*
X177284556Y-98612474I-70711J-70711D01*
G01*
X177143134Y-98753896D01*
G75*
G02*
X177001712Y-98753896I-70711J70711D01*
G01*
G37*
G36*
G01*
X177355266Y-98400342D02*
X176382993Y-97428071D01*
G75*
G02*
X176382993Y-97286649I70711J70711D01*
G01*
X176524415Y-97145227D01*
G75*
G02*
X176665837Y-97145227I70711J-70711D01*
G01*
X177638109Y-98117499D01*
G75*
G02*
X177638109Y-98258921I-70711J-70711D01*
G01*
X177496687Y-98400343D01*
G75*
G02*
X177355265Y-98400343I-70711J70711D01*
G01*
G37*
G36*
G01*
X177708820Y-98046788D02*
X176736547Y-97074517D01*
G75*
G02*
X176736547Y-96933095I70711J70711D01*
G01*
X176877969Y-96791673D01*
G75*
G02*
X177019391Y-96791673I70711J-70711D01*
G01*
X177991663Y-97763945D01*
G75*
G02*
X177991663Y-97905367I-70711J-70711D01*
G01*
X177850241Y-98046789D01*
G75*
G02*
X177708819Y-98046789I-70711J70711D01*
G01*
G37*
G36*
G01*
X178062373Y-97693235D02*
X177090100Y-96720964D01*
G75*
G02*
X177090100Y-96579542I70711J70711D01*
G01*
X177231522Y-96438120D01*
G75*
G02*
X177372944Y-96438120I70711J-70711D01*
G01*
X178345216Y-97410392D01*
G75*
G02*
X178345216Y-97551814I-70711J-70711D01*
G01*
X178203794Y-97693236D01*
G75*
G02*
X178062372Y-97693236I-70711J70711D01*
G01*
G37*
G36*
G01*
X178415927Y-97339681D02*
X177443654Y-96367410D01*
G75*
G02*
X177443654Y-96225988I70711J70711D01*
G01*
X177585076Y-96084566D01*
G75*
G02*
X177726498Y-96084566I70711J-70711D01*
G01*
X178698770Y-97056838D01*
G75*
G02*
X178698770Y-97198260I-70711J-70711D01*
G01*
X178557348Y-97339682D01*
G75*
G02*
X178415926Y-97339682I-70711J70711D01*
G01*
G37*
G36*
G01*
X179582652Y-97339681D02*
X179441230Y-97198260D01*
G75*
G02*
X179441230Y-97056838I70711J70711D01*
G01*
X180413502Y-96084566D01*
G75*
G02*
X180554924Y-96084566I70711J-70711D01*
G01*
X180696346Y-96225988D01*
G75*
G02*
X180696346Y-96367410I-70711J-70711D01*
G01*
X179724074Y-97339682D01*
G75*
G02*
X179582652Y-97339682I-70711J70711D01*
G01*
G37*
G36*
G01*
X179936206Y-97693235D02*
X179794784Y-97551814D01*
G75*
G02*
X179794784Y-97410392I70711J70711D01*
G01*
X180767056Y-96438120D01*
G75*
G02*
X180908478Y-96438120I70711J-70711D01*
G01*
X181049900Y-96579542D01*
G75*
G02*
X181049900Y-96720964I-70711J-70711D01*
G01*
X180077628Y-97693236D01*
G75*
G02*
X179936206Y-97693236I-70711J70711D01*
G01*
G37*
G36*
G01*
X180289759Y-98046788D02*
X180148337Y-97905367D01*
G75*
G02*
X180148337Y-97763945I70711J70711D01*
G01*
X181120609Y-96791673D01*
G75*
G02*
X181262031Y-96791673I70711J-70711D01*
G01*
X181403453Y-96933095D01*
G75*
G02*
X181403453Y-97074517I-70711J-70711D01*
G01*
X180431181Y-98046789D01*
G75*
G02*
X180289759Y-98046789I-70711J70711D01*
G01*
G37*
G36*
G01*
X180643313Y-98400342D02*
X180501891Y-98258921D01*
G75*
G02*
X180501891Y-98117499I70711J70711D01*
G01*
X181474163Y-97145227D01*
G75*
G02*
X181615585Y-97145227I70711J-70711D01*
G01*
X181757007Y-97286649D01*
G75*
G02*
X181757007Y-97428071I-70711J-70711D01*
G01*
X180784735Y-98400343D01*
G75*
G02*
X180643313Y-98400343I-70711J70711D01*
G01*
G37*
G36*
G01*
X180996866Y-98753895D02*
X180855444Y-98612474D01*
G75*
G02*
X180855444Y-98471052I70711J70711D01*
G01*
X181827716Y-97498780D01*
G75*
G02*
X181969138Y-97498780I70711J-70711D01*
G01*
X182110560Y-97640202D01*
G75*
G02*
X182110560Y-97781624I-70711J-70711D01*
G01*
X181138288Y-98753896D01*
G75*
G02*
X180996866Y-98753896I-70711J70711D01*
G01*
G37*
G36*
G01*
X181350419Y-99107448D02*
X181208997Y-98966027D01*
G75*
G02*
X181208997Y-98824605I70711J70711D01*
G01*
X182181269Y-97852333D01*
G75*
G02*
X182322691Y-97852333I70711J-70711D01*
G01*
X182464113Y-97993755D01*
G75*
G02*
X182464113Y-98135177I-70711J-70711D01*
G01*
X181491841Y-99107449D01*
G75*
G02*
X181350419Y-99107449I-70711J70711D01*
G01*
G37*
G36*
G01*
X181703973Y-99461002D02*
X181562551Y-99319581D01*
G75*
G02*
X181562551Y-99178159I70711J70711D01*
G01*
X182534823Y-98205887D01*
G75*
G02*
X182676245Y-98205887I70711J-70711D01*
G01*
X182817667Y-98347309D01*
G75*
G02*
X182817667Y-98488731I-70711J-70711D01*
G01*
X181845395Y-99461003D01*
G75*
G02*
X181703973Y-99461003I-70711J70711D01*
G01*
G37*
G36*
G01*
X182057526Y-99814555D02*
X181916104Y-99673134D01*
G75*
G02*
X181916104Y-99531712I70711J70711D01*
G01*
X182888376Y-98559440D01*
G75*
G02*
X183029798Y-98559440I70711J-70711D01*
G01*
X183171220Y-98700862D01*
G75*
G02*
X183171220Y-98842284I-70711J-70711D01*
G01*
X182198948Y-99814556D01*
G75*
G02*
X182057526Y-99814556I-70711J70711D01*
G01*
G37*
G36*
G01*
X182411079Y-100168108D02*
X182269657Y-100026687D01*
G75*
G02*
X182269657Y-99885265I70711J70711D01*
G01*
X183241929Y-98912993D01*
G75*
G02*
X183383351Y-98912993I70711J-70711D01*
G01*
X183524773Y-99054415D01*
G75*
G02*
X183524773Y-99195837I-70711J-70711D01*
G01*
X182552501Y-100168109D01*
G75*
G02*
X182411079Y-100168109I-70711J70711D01*
G01*
G37*
G36*
G01*
X182764633Y-100521662D02*
X182623211Y-100380241D01*
G75*
G02*
X182623211Y-100238819I70711J70711D01*
G01*
X183595483Y-99266547D01*
G75*
G02*
X183736905Y-99266547I70711J-70711D01*
G01*
X183878327Y-99407969D01*
G75*
G02*
X183878327Y-99549391I-70711J-70711D01*
G01*
X182906055Y-100521663D01*
G75*
G02*
X182764633Y-100521663I-70711J70711D01*
G01*
G37*
G36*
G01*
X183118186Y-100875215D02*
X182976764Y-100733794D01*
G75*
G02*
X182976764Y-100592372I70711J70711D01*
G01*
X183949036Y-99620100D01*
G75*
G02*
X184090458Y-99620100I70711J-70711D01*
G01*
X184231880Y-99761522D01*
G75*
G02*
X184231880Y-99902944I-70711J-70711D01*
G01*
X183259608Y-100875216D01*
G75*
G02*
X183118186Y-100875216I-70711J70711D01*
G01*
G37*
G36*
G01*
X183471740Y-101228769D02*
X183330318Y-101087348D01*
G75*
G02*
X183330318Y-100945926I70711J70711D01*
G01*
X184302590Y-99973654D01*
G75*
G02*
X184444012Y-99973654I70711J-70711D01*
G01*
X184585434Y-100115076D01*
G75*
G02*
X184585434Y-100256498I-70711J-70711D01*
G01*
X183613162Y-101228770D01*
G75*
G02*
X183471740Y-101228770I-70711J70711D01*
G01*
G37*
G36*
G01*
X184302591Y-103226345D02*
X183330318Y-102254074D01*
G75*
G02*
X183330318Y-102112652I70711J70711D01*
G01*
X183471740Y-101971230D01*
G75*
G02*
X183613162Y-101971230I70711J-70711D01*
G01*
X184585434Y-102943502D01*
G75*
G02*
X184585434Y-103084924I-70711J-70711D01*
G01*
X184444012Y-103226346D01*
G75*
G02*
X184302590Y-103226346I-70711J70711D01*
G01*
G37*
G36*
G01*
X183949037Y-103579899D02*
X182976764Y-102607628D01*
G75*
G02*
X182976764Y-102466206I70711J70711D01*
G01*
X183118186Y-102324784D01*
G75*
G02*
X183259608Y-102324784I70711J-70711D01*
G01*
X184231880Y-103297056D01*
G75*
G02*
X184231880Y-103438478I-70711J-70711D01*
G01*
X184090458Y-103579900D01*
G75*
G02*
X183949036Y-103579900I-70711J70711D01*
G01*
G37*
G36*
G01*
X183595484Y-103933452D02*
X182623211Y-102961181D01*
G75*
G02*
X182623211Y-102819759I70711J70711D01*
G01*
X182764633Y-102678337D01*
G75*
G02*
X182906055Y-102678337I70711J-70711D01*
G01*
X183878327Y-103650609D01*
G75*
G02*
X183878327Y-103792031I-70711J-70711D01*
G01*
X183736905Y-103933453D01*
G75*
G02*
X183595483Y-103933453I-70711J70711D01*
G01*
G37*
G36*
G01*
X183241930Y-104287006D02*
X182269657Y-103314735D01*
G75*
G02*
X182269657Y-103173313I70711J70711D01*
G01*
X182411079Y-103031891D01*
G75*
G02*
X182552501Y-103031891I70711J-70711D01*
G01*
X183524773Y-104004163D01*
G75*
G02*
X183524773Y-104145585I-70711J-70711D01*
G01*
X183383351Y-104287007D01*
G75*
G02*
X183241929Y-104287007I-70711J70711D01*
G01*
G37*
G36*
G01*
X182888377Y-104640559D02*
X181916104Y-103668288D01*
G75*
G02*
X181916104Y-103526866I70711J70711D01*
G01*
X182057526Y-103385444D01*
G75*
G02*
X182198948Y-103385444I70711J-70711D01*
G01*
X183171220Y-104357716D01*
G75*
G02*
X183171220Y-104499138I-70711J-70711D01*
G01*
X183029798Y-104640560D01*
G75*
G02*
X182888376Y-104640560I-70711J70711D01*
G01*
G37*
G36*
G01*
X182534824Y-104994112D02*
X181562551Y-104021841D01*
G75*
G02*
X181562551Y-103880419I70711J70711D01*
G01*
X181703973Y-103738997D01*
G75*
G02*
X181845395Y-103738997I70711J-70711D01*
G01*
X182817667Y-104711269D01*
G75*
G02*
X182817667Y-104852691I-70711J-70711D01*
G01*
X182676245Y-104994113D01*
G75*
G02*
X182534823Y-104994113I-70711J70711D01*
G01*
G37*
G36*
G01*
X182181270Y-105347666D02*
X181208997Y-104375395D01*
G75*
G02*
X181208997Y-104233973I70711J70711D01*
G01*
X181350419Y-104092551D01*
G75*
G02*
X181491841Y-104092551I70711J-70711D01*
G01*
X182464113Y-105064823D01*
G75*
G02*
X182464113Y-105206245I-70711J-70711D01*
G01*
X182322691Y-105347667D01*
G75*
G02*
X182181269Y-105347667I-70711J70711D01*
G01*
G37*
G36*
G01*
X181827717Y-105701219D02*
X180855444Y-104728948D01*
G75*
G02*
X180855444Y-104587526I70711J70711D01*
G01*
X180996866Y-104446104D01*
G75*
G02*
X181138288Y-104446104I70711J-70711D01*
G01*
X182110560Y-105418376D01*
G75*
G02*
X182110560Y-105559798I-70711J-70711D01*
G01*
X181969138Y-105701220D01*
G75*
G02*
X181827716Y-105701220I-70711J70711D01*
G01*
G37*
G36*
G01*
X181474164Y-106054772D02*
X180501891Y-105082501D01*
G75*
G02*
X180501891Y-104941079I70711J70711D01*
G01*
X180643313Y-104799657D01*
G75*
G02*
X180784735Y-104799657I70711J-70711D01*
G01*
X181757007Y-105771929D01*
G75*
G02*
X181757007Y-105913351I-70711J-70711D01*
G01*
X181615585Y-106054773D01*
G75*
G02*
X181474163Y-106054773I-70711J70711D01*
G01*
G37*
G36*
G01*
X181120610Y-106408326D02*
X180148337Y-105436055D01*
G75*
G02*
X180148337Y-105294633I70711J70711D01*
G01*
X180289759Y-105153211D01*
G75*
G02*
X180431181Y-105153211I70711J-70711D01*
G01*
X181403453Y-106125483D01*
G75*
G02*
X181403453Y-106266905I-70711J-70711D01*
G01*
X181262031Y-106408327D01*
G75*
G02*
X181120609Y-106408327I-70711J70711D01*
G01*
G37*
G36*
G01*
X180767057Y-106761879D02*
X179794784Y-105789608D01*
G75*
G02*
X179794784Y-105648186I70711J70711D01*
G01*
X179936206Y-105506764D01*
G75*
G02*
X180077628Y-105506764I70711J-70711D01*
G01*
X181049900Y-106479036D01*
G75*
G02*
X181049900Y-106620458I-70711J-70711D01*
G01*
X180908478Y-106761880D01*
G75*
G02*
X180767056Y-106761880I-70711J70711D01*
G01*
G37*
G36*
G01*
X180413503Y-107115433D02*
X179441230Y-106143162D01*
G75*
G02*
X179441230Y-106001740I70711J70711D01*
G01*
X179582652Y-105860318D01*
G75*
G02*
X179724074Y-105860318I70711J-70711D01*
G01*
X180696346Y-106832590D01*
G75*
G02*
X180696346Y-106974012I-70711J-70711D01*
G01*
X180554924Y-107115434D01*
G75*
G02*
X180413502Y-107115434I-70711J70711D01*
G01*
G37*
G36*
G01*
X177585076Y-107115433D02*
X177443654Y-106974012D01*
G75*
G02*
X177443654Y-106832590I70711J70711D01*
G01*
X178415926Y-105860318D01*
G75*
G02*
X178557348Y-105860318I70711J-70711D01*
G01*
X178698770Y-106001740D01*
G75*
G02*
X178698770Y-106143162I-70711J-70711D01*
G01*
X177726498Y-107115434D01*
G75*
G02*
X177585076Y-107115434I-70711J70711D01*
G01*
G37*
G36*
G01*
X177231522Y-106761879D02*
X177090100Y-106620458D01*
G75*
G02*
X177090100Y-106479036I70711J70711D01*
G01*
X178062372Y-105506764D01*
G75*
G02*
X178203794Y-105506764I70711J-70711D01*
G01*
X178345216Y-105648186D01*
G75*
G02*
X178345216Y-105789608I-70711J-70711D01*
G01*
X177372944Y-106761880D01*
G75*
G02*
X177231522Y-106761880I-70711J70711D01*
G01*
G37*
G36*
G01*
X176877969Y-106408326D02*
X176736547Y-106266905D01*
G75*
G02*
X176736547Y-106125483I70711J70711D01*
G01*
X177708819Y-105153211D01*
G75*
G02*
X177850241Y-105153211I70711J-70711D01*
G01*
X177991663Y-105294633D01*
G75*
G02*
X177991663Y-105436055I-70711J-70711D01*
G01*
X177019391Y-106408327D01*
G75*
G02*
X176877969Y-106408327I-70711J70711D01*
G01*
G37*
G36*
G01*
X176524415Y-106054772D02*
X176382993Y-105913351D01*
G75*
G02*
X176382993Y-105771929I70711J70711D01*
G01*
X177355265Y-104799657D01*
G75*
G02*
X177496687Y-104799657I70711J-70711D01*
G01*
X177638109Y-104941079D01*
G75*
G02*
X177638109Y-105082501I-70711J-70711D01*
G01*
X176665837Y-106054773D01*
G75*
G02*
X176524415Y-106054773I-70711J70711D01*
G01*
G37*
G36*
G01*
X176170862Y-105701219D02*
X176029440Y-105559798D01*
G75*
G02*
X176029440Y-105418376I70711J70711D01*
G01*
X177001712Y-104446104D01*
G75*
G02*
X177143134Y-104446104I70711J-70711D01*
G01*
X177284556Y-104587526D01*
G75*
G02*
X177284556Y-104728948I-70711J-70711D01*
G01*
X176312284Y-105701220D01*
G75*
G02*
X176170862Y-105701220I-70711J70711D01*
G01*
G37*
G36*
G01*
X175817309Y-105347666D02*
X175675887Y-105206245D01*
G75*
G02*
X175675887Y-105064823I70711J70711D01*
G01*
X176648159Y-104092551D01*
G75*
G02*
X176789581Y-104092551I70711J-70711D01*
G01*
X176931003Y-104233973D01*
G75*
G02*
X176931003Y-104375395I-70711J-70711D01*
G01*
X175958731Y-105347667D01*
G75*
G02*
X175817309Y-105347667I-70711J70711D01*
G01*
G37*
G36*
G01*
X175463755Y-104994112D02*
X175322333Y-104852691D01*
G75*
G02*
X175322333Y-104711269I70711J70711D01*
G01*
X176294605Y-103738997D01*
G75*
G02*
X176436027Y-103738997I70711J-70711D01*
G01*
X176577449Y-103880419D01*
G75*
G02*
X176577449Y-104021841I-70711J-70711D01*
G01*
X175605177Y-104994113D01*
G75*
G02*
X175463755Y-104994113I-70711J70711D01*
G01*
G37*
G36*
G01*
X175110202Y-104640559D02*
X174968780Y-104499138D01*
G75*
G02*
X174968780Y-104357716I70711J70711D01*
G01*
X175941052Y-103385444D01*
G75*
G02*
X176082474Y-103385444I70711J-70711D01*
G01*
X176223896Y-103526866D01*
G75*
G02*
X176223896Y-103668288I-70711J-70711D01*
G01*
X175251624Y-104640560D01*
G75*
G02*
X175110202Y-104640560I-70711J70711D01*
G01*
G37*
G36*
G01*
X174756649Y-104287006D02*
X174615227Y-104145585D01*
G75*
G02*
X174615227Y-104004163I70711J70711D01*
G01*
X175587499Y-103031891D01*
G75*
G02*
X175728921Y-103031891I70711J-70711D01*
G01*
X175870343Y-103173313D01*
G75*
G02*
X175870343Y-103314735I-70711J-70711D01*
G01*
X174898071Y-104287007D01*
G75*
G02*
X174756649Y-104287007I-70711J70711D01*
G01*
G37*
G36*
G01*
X174403095Y-103933452D02*
X174261673Y-103792031D01*
G75*
G02*
X174261673Y-103650609I70711J70711D01*
G01*
X175233945Y-102678337D01*
G75*
G02*
X175375367Y-102678337I70711J-70711D01*
G01*
X175516789Y-102819759D01*
G75*
G02*
X175516789Y-102961181I-70711J-70711D01*
G01*
X174544517Y-103933453D01*
G75*
G02*
X174403095Y-103933453I-70711J70711D01*
G01*
G37*
G36*
G01*
X174049542Y-103579899D02*
X173908120Y-103438478D01*
G75*
G02*
X173908120Y-103297056I70711J70711D01*
G01*
X174880392Y-102324784D01*
G75*
G02*
X175021814Y-102324784I70711J-70711D01*
G01*
X175163236Y-102466206D01*
G75*
G02*
X175163236Y-102607628I-70711J-70711D01*
G01*
X174190964Y-103579900D01*
G75*
G02*
X174049542Y-103579900I-70711J70711D01*
G01*
G37*
G36*
G01*
X173695988Y-103226345D02*
X173554566Y-103084924D01*
G75*
G02*
X173554566Y-102943502I70711J70711D01*
G01*
X174526838Y-101971230D01*
G75*
G02*
X174668260Y-101971230I70711J-70711D01*
G01*
X174809682Y-102112652D01*
G75*
G02*
X174809682Y-102254074I-70711J-70711D01*
G01*
X173837410Y-103226346D01*
G75*
G02*
X173695988Y-103226346I-70711J70711D01*
G01*
G37*
%TD*%
%TO.C,C12*%
G36*
G01*
X166567500Y-98920000D02*
X166172500Y-98920000D01*
G75*
G02*
X166000000Y-98747500I0J172500D01*
G01*
X166000000Y-98402500D01*
G75*
G02*
X166172500Y-98230000I172500J0D01*
G01*
X166567500Y-98230000D01*
G75*
G02*
X166740000Y-98402500I0J-172500D01*
G01*
X166740000Y-98747500D01*
G75*
G02*
X166567500Y-98920000I-172500J0D01*
G01*
G37*
G36*
G01*
X166567500Y-99890000D02*
X166172500Y-99890000D01*
G75*
G02*
X166000000Y-99717500I0J172500D01*
G01*
X166000000Y-99372500D01*
G75*
G02*
X166172500Y-99200000I172500J0D01*
G01*
X166567500Y-99200000D01*
G75*
G02*
X166740000Y-99372500I0J-172500D01*
G01*
X166740000Y-99717500D01*
G75*
G02*
X166567500Y-99890000I-172500J0D01*
G01*
G37*
%TD*%
%TO.C,C11*%
G36*
G01*
X171647500Y-98920000D02*
X171252500Y-98920000D01*
G75*
G02*
X171080000Y-98747500I0J172500D01*
G01*
X171080000Y-98402500D01*
G75*
G02*
X171252500Y-98230000I172500J0D01*
G01*
X171647500Y-98230000D01*
G75*
G02*
X171820000Y-98402500I0J-172500D01*
G01*
X171820000Y-98747500D01*
G75*
G02*
X171647500Y-98920000I-172500J0D01*
G01*
G37*
G36*
G01*
X171647500Y-99890000D02*
X171252500Y-99890000D01*
G75*
G02*
X171080000Y-99717500I0J172500D01*
G01*
X171080000Y-99372500D01*
G75*
G02*
X171252500Y-99200000I172500J0D01*
G01*
X171647500Y-99200000D01*
G75*
G02*
X171820000Y-99372500I0J-172500D01*
G01*
X171820000Y-99717500D01*
G75*
G02*
X171647500Y-99890000I-172500J0D01*
G01*
G37*
%TD*%
D15*
%TO.C,Y2*%
X167660000Y-99060000D03*
X170160000Y-99060000D03*
%TD*%
D16*
%TO.C,Y1*%
X168910000Y-106190000D03*
X168910000Y-102090000D03*
%TD*%
%TO.C,C7*%
G36*
G01*
X166567500Y-105905000D02*
X166172500Y-105905000D01*
G75*
G02*
X166000000Y-105732500I0J172500D01*
G01*
X166000000Y-105387500D01*
G75*
G02*
X166172500Y-105215000I172500J0D01*
G01*
X166567500Y-105215000D01*
G75*
G02*
X166740000Y-105387500I0J-172500D01*
G01*
X166740000Y-105732500D01*
G75*
G02*
X166567500Y-105905000I-172500J0D01*
G01*
G37*
G36*
G01*
X166567500Y-106875000D02*
X166172500Y-106875000D01*
G75*
G02*
X166000000Y-106702500I0J172500D01*
G01*
X166000000Y-106357500D01*
G75*
G02*
X166172500Y-106185000I172500J0D01*
G01*
X166567500Y-106185000D01*
G75*
G02*
X166740000Y-106357500I0J-172500D01*
G01*
X166740000Y-106702500D01*
G75*
G02*
X166567500Y-106875000I-172500J0D01*
G01*
G37*
%TD*%
%TO.C,C5*%
G36*
G01*
X166172500Y-102375000D02*
X166567500Y-102375000D01*
G75*
G02*
X166740000Y-102547500I0J-172500D01*
G01*
X166740000Y-102892500D01*
G75*
G02*
X166567500Y-103065000I-172500J0D01*
G01*
X166172500Y-103065000D01*
G75*
G02*
X166000000Y-102892500I0J172500D01*
G01*
X166000000Y-102547500D01*
G75*
G02*
X166172500Y-102375000I172500J0D01*
G01*
G37*
G36*
G01*
X166172500Y-101405000D02*
X166567500Y-101405000D01*
G75*
G02*
X166740000Y-101577500I0J-172500D01*
G01*
X166740000Y-101922500D01*
G75*
G02*
X166567500Y-102095000I-172500J0D01*
G01*
X166172500Y-102095000D01*
G75*
G02*
X166000000Y-101922500I0J172500D01*
G01*
X166000000Y-101577500D01*
G75*
G02*
X166172500Y-101405000I172500J0D01*
G01*
G37*
%TD*%
%TO.C,R4*%
G36*
G01*
X200800000Y-104337500D02*
X200800000Y-103942500D01*
G75*
G02*
X200972500Y-103770000I172500J0D01*
G01*
X201317500Y-103770000D01*
G75*
G02*
X201490000Y-103942500I0J-172500D01*
G01*
X201490000Y-104337500D01*
G75*
G02*
X201317500Y-104510000I-172500J0D01*
G01*
X200972500Y-104510000D01*
G75*
G02*
X200800000Y-104337500I0J172500D01*
G01*
G37*
G36*
G01*
X199830000Y-104337500D02*
X199830000Y-103942500D01*
G75*
G02*
X200002500Y-103770000I172500J0D01*
G01*
X200347500Y-103770000D01*
G75*
G02*
X200520000Y-103942500I0J-172500D01*
G01*
X200520000Y-104337500D01*
G75*
G02*
X200347500Y-104510000I-172500J0D01*
G01*
X200002500Y-104510000D01*
G75*
G02*
X199830000Y-104337500I0J172500D01*
G01*
G37*
%TD*%
%TO.C,R7*%
G36*
G01*
X188455000Y-102037500D02*
X188455000Y-102432500D01*
G75*
G02*
X188282500Y-102605000I-172500J0D01*
G01*
X187937500Y-102605000D01*
G75*
G02*
X187765000Y-102432500I0J172500D01*
G01*
X187765000Y-102037500D01*
G75*
G02*
X187937500Y-101865000I172500J0D01*
G01*
X188282500Y-101865000D01*
G75*
G02*
X188455000Y-102037500I0J-172500D01*
G01*
G37*
G36*
G01*
X189425000Y-102037500D02*
X189425000Y-102432500D01*
G75*
G02*
X189252500Y-102605000I-172500J0D01*
G01*
X188907500Y-102605000D01*
G75*
G02*
X188735000Y-102432500I0J172500D01*
G01*
X188735000Y-102037500D01*
G75*
G02*
X188907500Y-101865000I172500J0D01*
G01*
X189252500Y-101865000D01*
G75*
G02*
X189425000Y-102037500I0J-172500D01*
G01*
G37*
%TD*%
%TO.C,R6*%
G36*
G01*
X188455000Y-99497500D02*
X188455000Y-99892500D01*
G75*
G02*
X188282500Y-100065000I-172500J0D01*
G01*
X187937500Y-100065000D01*
G75*
G02*
X187765000Y-99892500I0J172500D01*
G01*
X187765000Y-99497500D01*
G75*
G02*
X187937500Y-99325000I172500J0D01*
G01*
X188282500Y-99325000D01*
G75*
G02*
X188455000Y-99497500I0J-172500D01*
G01*
G37*
G36*
G01*
X189425000Y-99497500D02*
X189425000Y-99892500D01*
G75*
G02*
X189252500Y-100065000I-172500J0D01*
G01*
X188907500Y-100065000D01*
G75*
G02*
X188735000Y-99892500I0J172500D01*
G01*
X188735000Y-99497500D01*
G75*
G02*
X188907500Y-99325000I172500J0D01*
G01*
X189252500Y-99325000D01*
G75*
G02*
X189425000Y-99497500I0J-172500D01*
G01*
G37*
%TD*%
%TO.C,D3*%
G36*
G01*
X191435000Y-102516250D02*
X191435000Y-101953750D01*
G75*
G02*
X191678750Y-101710000I243750J0D01*
G01*
X192166250Y-101710000D01*
G75*
G02*
X192410000Y-101953750I0J-243750D01*
G01*
X192410000Y-102516250D01*
G75*
G02*
X192166250Y-102760000I-243750J0D01*
G01*
X191678750Y-102760000D01*
G75*
G02*
X191435000Y-102516250I0J243750D01*
G01*
G37*
G36*
G01*
X189860000Y-102516250D02*
X189860000Y-101953750D01*
G75*
G02*
X190103750Y-101710000I243750J0D01*
G01*
X190591250Y-101710000D01*
G75*
G02*
X190835000Y-101953750I0J-243750D01*
G01*
X190835000Y-102516250D01*
G75*
G02*
X190591250Y-102760000I-243750J0D01*
G01*
X190103750Y-102760000D01*
G75*
G02*
X189860000Y-102516250I0J243750D01*
G01*
G37*
%TD*%
%TO.C,D2*%
G36*
G01*
X191435000Y-99976250D02*
X191435000Y-99413750D01*
G75*
G02*
X191678750Y-99170000I243750J0D01*
G01*
X192166250Y-99170000D01*
G75*
G02*
X192410000Y-99413750I0J-243750D01*
G01*
X192410000Y-99976250D01*
G75*
G02*
X192166250Y-100220000I-243750J0D01*
G01*
X191678750Y-100220000D01*
G75*
G02*
X191435000Y-99976250I0J243750D01*
G01*
G37*
G36*
G01*
X189860000Y-99976250D02*
X189860000Y-99413750D01*
G75*
G02*
X190103750Y-99170000I243750J0D01*
G01*
X190591250Y-99170000D01*
G75*
G02*
X190835000Y-99413750I0J-243750D01*
G01*
X190835000Y-99976250D01*
G75*
G02*
X190591250Y-100220000I-243750J0D01*
G01*
X190103750Y-100220000D01*
G75*
G02*
X189860000Y-99976250I0J243750D01*
G01*
G37*
%TD*%
%TO.C,C3*%
G36*
G01*
X164267500Y-103645000D02*
X164662500Y-103645000D01*
G75*
G02*
X164835000Y-103817500I0J-172500D01*
G01*
X164835000Y-104162500D01*
G75*
G02*
X164662500Y-104335000I-172500J0D01*
G01*
X164267500Y-104335000D01*
G75*
G02*
X164095000Y-104162500I0J172500D01*
G01*
X164095000Y-103817500D01*
G75*
G02*
X164267500Y-103645000I172500J0D01*
G01*
G37*
G36*
G01*
X164267500Y-102675000D02*
X164662500Y-102675000D01*
G75*
G02*
X164835000Y-102847500I0J-172500D01*
G01*
X164835000Y-103192500D01*
G75*
G02*
X164662500Y-103365000I-172500J0D01*
G01*
X164267500Y-103365000D01*
G75*
G02*
X164095000Y-103192500I0J172500D01*
G01*
X164095000Y-102847500D01*
G75*
G02*
X164267500Y-102675000I172500J0D01*
G01*
G37*
%TD*%
D17*
%TO.C,J4*%
X153035000Y-97790000D03*
X153035000Y-100330000D03*
X153035000Y-102870000D03*
D18*
X153035000Y-105410000D03*
%TD*%
D17*
%TO.C,J3*%
X201930000Y-93980000D03*
X199390000Y-93980000D03*
X196850000Y-93980000D03*
X194310000Y-93980000D03*
X191770000Y-93980000D03*
X189230000Y-93980000D03*
X186690000Y-93980000D03*
X184150000Y-93980000D03*
X181610000Y-93980000D03*
X179070000Y-93980000D03*
X176530000Y-93980000D03*
X173990000Y-93980000D03*
X171450000Y-93980000D03*
X168910000Y-93980000D03*
X166370000Y-93980000D03*
X163830000Y-93980000D03*
X161290000Y-93980000D03*
X158750000Y-93980000D03*
X156210000Y-93980000D03*
D18*
X153670000Y-93980000D03*
%TD*%
D17*
%TO.C,J2*%
X201930000Y-109220000D03*
X199390000Y-109220000D03*
X196850000Y-109220000D03*
X194310000Y-109220000D03*
X191770000Y-109220000D03*
X189230000Y-109220000D03*
X186690000Y-109220000D03*
X184150000Y-109220000D03*
X181610000Y-109220000D03*
X179070000Y-109220000D03*
X176530000Y-109220000D03*
X173990000Y-109220000D03*
X171450000Y-109220000D03*
X168910000Y-109220000D03*
X166370000Y-109220000D03*
X163830000Y-109220000D03*
X161290000Y-109220000D03*
X158750000Y-109220000D03*
X156210000Y-109220000D03*
D18*
X153670000Y-109220000D03*
%TD*%
D19*
%TO.C,D1*%
X194310000Y-99315000D03*
X194310000Y-102615000D03*
%TD*%
%TO.C,C10*%
G36*
G01*
X172917500Y-101460000D02*
X172522500Y-101460000D01*
G75*
G02*
X172350000Y-101287500I0J172500D01*
G01*
X172350000Y-100942500D01*
G75*
G02*
X172522500Y-100770000I172500J0D01*
G01*
X172917500Y-100770000D01*
G75*
G02*
X173090000Y-100942500I0J-172500D01*
G01*
X173090000Y-101287500D01*
G75*
G02*
X172917500Y-101460000I-172500J0D01*
G01*
G37*
G36*
G01*
X172917500Y-102430000D02*
X172522500Y-102430000D01*
G75*
G02*
X172350000Y-102257500I0J172500D01*
G01*
X172350000Y-101912500D01*
G75*
G02*
X172522500Y-101740000I172500J0D01*
G01*
X172917500Y-101740000D01*
G75*
G02*
X173090000Y-101912500I0J-172500D01*
G01*
X173090000Y-102257500D01*
G75*
G02*
X172917500Y-102430000I-172500J0D01*
G01*
G37*
%TD*%
%TO.C,C9*%
G36*
G01*
X174485000Y-105847500D02*
X174485000Y-106242500D01*
G75*
G02*
X174312500Y-106415000I-172500J0D01*
G01*
X173967500Y-106415000D01*
G75*
G02*
X173795000Y-106242500I0J172500D01*
G01*
X173795000Y-105847500D01*
G75*
G02*
X173967500Y-105675000I172500J0D01*
G01*
X174312500Y-105675000D01*
G75*
G02*
X174485000Y-105847500I0J-172500D01*
G01*
G37*
G36*
G01*
X175455000Y-105847500D02*
X175455000Y-106242500D01*
G75*
G02*
X175282500Y-106415000I-172500J0D01*
G01*
X174937500Y-106415000D01*
G75*
G02*
X174765000Y-106242500I0J172500D01*
G01*
X174765000Y-105847500D01*
G75*
G02*
X174937500Y-105675000I172500J0D01*
G01*
X175282500Y-105675000D01*
G75*
G02*
X175455000Y-105847500I0J-172500D01*
G01*
G37*
%TD*%
%TO.C,C8*%
G36*
G01*
X182385000Y-96082500D02*
X182385000Y-95687500D01*
G75*
G02*
X182557500Y-95515000I172500J0D01*
G01*
X182902500Y-95515000D01*
G75*
G02*
X183075000Y-95687500I0J-172500D01*
G01*
X183075000Y-96082500D01*
G75*
G02*
X182902500Y-96255000I-172500J0D01*
G01*
X182557500Y-96255000D01*
G75*
G02*
X182385000Y-96082500I0J172500D01*
G01*
G37*
G36*
G01*
X181415000Y-96082500D02*
X181415000Y-95687500D01*
G75*
G02*
X181587500Y-95515000I172500J0D01*
G01*
X181932500Y-95515000D01*
G75*
G02*
X182105000Y-95687500I0J-172500D01*
G01*
X182105000Y-96082500D01*
G75*
G02*
X181932500Y-96255000I-172500J0D01*
G01*
X181587500Y-96255000D01*
G75*
G02*
X181415000Y-96082500I0J172500D01*
G01*
G37*
%TD*%
%TO.C,C6*%
G36*
G01*
X186252500Y-101460000D02*
X185857500Y-101460000D01*
G75*
G02*
X185685000Y-101287500I0J172500D01*
G01*
X185685000Y-100942500D01*
G75*
G02*
X185857500Y-100770000I172500J0D01*
G01*
X186252500Y-100770000D01*
G75*
G02*
X186425000Y-100942500I0J-172500D01*
G01*
X186425000Y-101287500D01*
G75*
G02*
X186252500Y-101460000I-172500J0D01*
G01*
G37*
G36*
G01*
X186252500Y-102430000D02*
X185857500Y-102430000D01*
G75*
G02*
X185685000Y-102257500I0J172500D01*
G01*
X185685000Y-101912500D01*
G75*
G02*
X185857500Y-101740000I172500J0D01*
G01*
X186252500Y-101740000D01*
G75*
G02*
X186425000Y-101912500I0J-172500D01*
G01*
X186425000Y-102257500D01*
G75*
G02*
X186252500Y-102430000I-172500J0D01*
G01*
G37*
%TD*%
%TO.C,C2*%
G36*
G01*
X187478750Y-105810000D02*
X188441250Y-105810000D01*
G75*
G02*
X188710000Y-106078750I0J-268750D01*
G01*
X188710000Y-106616250D01*
G75*
G02*
X188441250Y-106885000I-268750J0D01*
G01*
X187478750Y-106885000D01*
G75*
G02*
X187210000Y-106616250I0J268750D01*
G01*
X187210000Y-106078750D01*
G75*
G02*
X187478750Y-105810000I268750J0D01*
G01*
G37*
G36*
G01*
X187478750Y-103935000D02*
X188441250Y-103935000D01*
G75*
G02*
X188710000Y-104203750I0J-268750D01*
G01*
X188710000Y-104741250D01*
G75*
G02*
X188441250Y-105010000I-268750J0D01*
G01*
X187478750Y-105010000D01*
G75*
G02*
X187210000Y-104741250I0J268750D01*
G01*
X187210000Y-104203750D01*
G75*
G02*
X187478750Y-103935000I268750J0D01*
G01*
G37*
%TD*%
%TO.C,C1*%
G36*
G01*
X194791250Y-105010000D02*
X193828750Y-105010000D01*
G75*
G02*
X193560000Y-104741250I0J268750D01*
G01*
X193560000Y-104203750D01*
G75*
G02*
X193828750Y-103935000I268750J0D01*
G01*
X194791250Y-103935000D01*
G75*
G02*
X195060000Y-104203750I0J-268750D01*
G01*
X195060000Y-104741250D01*
G75*
G02*
X194791250Y-105010000I-268750J0D01*
G01*
G37*
G36*
G01*
X194791250Y-106885000D02*
X193828750Y-106885000D01*
G75*
G02*
X193560000Y-106616250I0J268750D01*
G01*
X193560000Y-106078750D01*
G75*
G02*
X193828750Y-105810000I268750J0D01*
G01*
X194791250Y-105810000D01*
G75*
G02*
X195060000Y-106078750I0J-268750D01*
G01*
X195060000Y-106616250D01*
G75*
G02*
X194791250Y-106885000I-268750J0D01*
G01*
G37*
%TD*%
M02*
