%TF.GenerationSoftware,KiCad,Pcbnew,5.1.6+dfsg1-1*%
%TF.CreationDate,2020-06-23T10:35:08+08:00*%
%TF.ProjectId,stm32devmini,73746d33-3264-4657-966d-696e692e6b69,rev?*%
%TF.SameCoordinates,Original*%
%TF.FileFunction,Soldermask,Top*%
%TF.FilePolarity,Negative*%
%FSLAX46Y46*%
G04 Gerber Fmt 4.6, Leading zero omitted, Abs format (unit mm)*
G04 Created by KiCad (PCBNEW 5.1.6+dfsg1-1) date 2020-06-23 10:35:08*
%MOMM*%
%LPD*%
G01*
G04 APERTURE LIST*
%ADD10R,1.100000X1.900000*%
%ADD11R,2.500000X2.000000*%
%ADD12R,1.800000X1.100000*%
%ADD13R,1.600000X2.100000*%
%ADD14R,3.900000X2.100000*%
%ADD15O,1.800000X1.800000*%
%ADD16R,1.800000X1.800000*%
%ADD17R,1.000000X1.300000*%
%ADD18R,2.000000X1.300000*%
%ADD19O,2.000000X1.300000*%
%ADD20R,2.000000X1.600000*%
%ADD21C,1.550000*%
%ADD22R,1.450000X0.500000*%
G04 APERTURE END LIST*
%TO.C,C11*%
G36*
G01*
X170955000Y-106242500D02*
X170955000Y-105847500D01*
G75*
G02*
X171127500Y-105675000I172500J0D01*
G01*
X171472500Y-105675000D01*
G75*
G02*
X171645000Y-105847500I0J-172500D01*
G01*
X171645000Y-106242500D01*
G75*
G02*
X171472500Y-106415000I-172500J0D01*
G01*
X171127500Y-106415000D01*
G75*
G02*
X170955000Y-106242500I0J172500D01*
G01*
G37*
G36*
G01*
X169985000Y-106242500D02*
X169985000Y-105847500D01*
G75*
G02*
X170157500Y-105675000I172500J0D01*
G01*
X170502500Y-105675000D01*
G75*
G02*
X170675000Y-105847500I0J-172500D01*
G01*
X170675000Y-106242500D01*
G75*
G02*
X170502500Y-106415000I-172500J0D01*
G01*
X170157500Y-106415000D01*
G75*
G02*
X169985000Y-106242500I0J172500D01*
G01*
G37*
%TD*%
%TO.C,C10*%
G36*
G01*
X164662500Y-106540000D02*
X164267500Y-106540000D01*
G75*
G02*
X164095000Y-106367500I0J172500D01*
G01*
X164095000Y-106022500D01*
G75*
G02*
X164267500Y-105850000I172500J0D01*
G01*
X164662500Y-105850000D01*
G75*
G02*
X164835000Y-106022500I0J-172500D01*
G01*
X164835000Y-106367500D01*
G75*
G02*
X164662500Y-106540000I-172500J0D01*
G01*
G37*
G36*
G01*
X164662500Y-107510000D02*
X164267500Y-107510000D01*
G75*
G02*
X164095000Y-107337500I0J172500D01*
G01*
X164095000Y-106992500D01*
G75*
G02*
X164267500Y-106820000I172500J0D01*
G01*
X164662500Y-106820000D01*
G75*
G02*
X164835000Y-106992500I0J-172500D01*
G01*
X164835000Y-107337500D01*
G75*
G02*
X164662500Y-107510000I-172500J0D01*
G01*
G37*
%TD*%
D10*
%TO.C,Y2*%
X168890000Y-106045000D03*
X166390000Y-106045000D03*
%TD*%
D11*
%TO.C,Y1*%
X167640000Y-103015000D03*
X167640000Y-98915000D03*
%TD*%
%TO.C,C9*%
G36*
G01*
X164267500Y-104280000D02*
X164662500Y-104280000D01*
G75*
G02*
X164835000Y-104452500I0J-172500D01*
G01*
X164835000Y-104797500D01*
G75*
G02*
X164662500Y-104970000I-172500J0D01*
G01*
X164267500Y-104970000D01*
G75*
G02*
X164095000Y-104797500I0J172500D01*
G01*
X164095000Y-104452500D01*
G75*
G02*
X164267500Y-104280000I172500J0D01*
G01*
G37*
G36*
G01*
X164267500Y-103310000D02*
X164662500Y-103310000D01*
G75*
G02*
X164835000Y-103482500I0J-172500D01*
G01*
X164835000Y-103827500D01*
G75*
G02*
X164662500Y-104000000I-172500J0D01*
G01*
X164267500Y-104000000D01*
G75*
G02*
X164095000Y-103827500I0J172500D01*
G01*
X164095000Y-103482500D01*
G75*
G02*
X164267500Y-103310000I172500J0D01*
G01*
G37*
%TD*%
%TO.C,C8*%
G36*
G01*
X164267500Y-101740000D02*
X164662500Y-101740000D01*
G75*
G02*
X164835000Y-101912500I0J-172500D01*
G01*
X164835000Y-102257500D01*
G75*
G02*
X164662500Y-102430000I-172500J0D01*
G01*
X164267500Y-102430000D01*
G75*
G02*
X164095000Y-102257500I0J172500D01*
G01*
X164095000Y-101912500D01*
G75*
G02*
X164267500Y-101740000I172500J0D01*
G01*
G37*
G36*
G01*
X164267500Y-100770000D02*
X164662500Y-100770000D01*
G75*
G02*
X164835000Y-100942500I0J-172500D01*
G01*
X164835000Y-101287500D01*
G75*
G02*
X164662500Y-101460000I-172500J0D01*
G01*
X164267500Y-101460000D01*
G75*
G02*
X164095000Y-101287500I0J172500D01*
G01*
X164095000Y-100942500D01*
G75*
G02*
X164267500Y-100770000I172500J0D01*
G01*
G37*
%TD*%
%TO.C,R6*%
G36*
G01*
X196710000Y-99497500D02*
X196710000Y-99892500D01*
G75*
G02*
X196537500Y-100065000I-172500J0D01*
G01*
X196192500Y-100065000D01*
G75*
G02*
X196020000Y-99892500I0J172500D01*
G01*
X196020000Y-99497500D01*
G75*
G02*
X196192500Y-99325000I172500J0D01*
G01*
X196537500Y-99325000D01*
G75*
G02*
X196710000Y-99497500I0J-172500D01*
G01*
G37*
G36*
G01*
X197680000Y-99497500D02*
X197680000Y-99892500D01*
G75*
G02*
X197507500Y-100065000I-172500J0D01*
G01*
X197162500Y-100065000D01*
G75*
G02*
X196990000Y-99892500I0J172500D01*
G01*
X196990000Y-99497500D01*
G75*
G02*
X197162500Y-99325000I172500J0D01*
G01*
X197507500Y-99325000D01*
G75*
G02*
X197680000Y-99497500I0J-172500D01*
G01*
G37*
%TD*%
%TO.C,R5*%
G36*
G01*
X196710000Y-98227500D02*
X196710000Y-98622500D01*
G75*
G02*
X196537500Y-98795000I-172500J0D01*
G01*
X196192500Y-98795000D01*
G75*
G02*
X196020000Y-98622500I0J172500D01*
G01*
X196020000Y-98227500D01*
G75*
G02*
X196192500Y-98055000I172500J0D01*
G01*
X196537500Y-98055000D01*
G75*
G02*
X196710000Y-98227500I0J-172500D01*
G01*
G37*
G36*
G01*
X197680000Y-98227500D02*
X197680000Y-98622500D01*
G75*
G02*
X197507500Y-98795000I-172500J0D01*
G01*
X197162500Y-98795000D01*
G75*
G02*
X196990000Y-98622500I0J172500D01*
G01*
X196990000Y-98227500D01*
G75*
G02*
X197162500Y-98055000I172500J0D01*
G01*
X197507500Y-98055000D01*
G75*
G02*
X197680000Y-98227500I0J-172500D01*
G01*
G37*
%TD*%
%TO.C,R4*%
G36*
G01*
X202070000Y-96717500D02*
X202070000Y-96322500D01*
G75*
G02*
X202242500Y-96150000I172500J0D01*
G01*
X202587500Y-96150000D01*
G75*
G02*
X202760000Y-96322500I0J-172500D01*
G01*
X202760000Y-96717500D01*
G75*
G02*
X202587500Y-96890000I-172500J0D01*
G01*
X202242500Y-96890000D01*
G75*
G02*
X202070000Y-96717500I0J172500D01*
G01*
G37*
G36*
G01*
X201100000Y-96717500D02*
X201100000Y-96322500D01*
G75*
G02*
X201272500Y-96150000I172500J0D01*
G01*
X201617500Y-96150000D01*
G75*
G02*
X201790000Y-96322500I0J-172500D01*
G01*
X201790000Y-96717500D01*
G75*
G02*
X201617500Y-96890000I-172500J0D01*
G01*
X201272500Y-96890000D01*
G75*
G02*
X201100000Y-96717500I0J172500D01*
G01*
G37*
%TD*%
%TO.C,D3*%
G36*
G01*
X196515000Y-96801250D02*
X196515000Y-96238750D01*
G75*
G02*
X196758750Y-95995000I243750J0D01*
G01*
X197246250Y-95995000D01*
G75*
G02*
X197490000Y-96238750I0J-243750D01*
G01*
X197490000Y-96801250D01*
G75*
G02*
X197246250Y-97045000I-243750J0D01*
G01*
X196758750Y-97045000D01*
G75*
G02*
X196515000Y-96801250I0J243750D01*
G01*
G37*
G36*
G01*
X194940000Y-96801250D02*
X194940000Y-96238750D01*
G75*
G02*
X195183750Y-95995000I243750J0D01*
G01*
X195671250Y-95995000D01*
G75*
G02*
X195915000Y-96238750I0J-243750D01*
G01*
X195915000Y-96801250D01*
G75*
G02*
X195671250Y-97045000I-243750J0D01*
G01*
X195183750Y-97045000D01*
G75*
G02*
X194940000Y-96801250I0J243750D01*
G01*
G37*
%TD*%
%TO.C,D2*%
G36*
G01*
X199090000Y-96238750D02*
X199090000Y-96801250D01*
G75*
G02*
X198846250Y-97045000I-243750J0D01*
G01*
X198358750Y-97045000D01*
G75*
G02*
X198115000Y-96801250I0J243750D01*
G01*
X198115000Y-96238750D01*
G75*
G02*
X198358750Y-95995000I243750J0D01*
G01*
X198846250Y-95995000D01*
G75*
G02*
X199090000Y-96238750I0J-243750D01*
G01*
G37*
G36*
G01*
X200665000Y-96238750D02*
X200665000Y-96801250D01*
G75*
G02*
X200421250Y-97045000I-243750J0D01*
G01*
X199933750Y-97045000D01*
G75*
G02*
X199690000Y-96801250I0J243750D01*
G01*
X199690000Y-96238750D01*
G75*
G02*
X199933750Y-95995000I243750J0D01*
G01*
X200421250Y-95995000D01*
G75*
G02*
X200665000Y-96238750I0J-243750D01*
G01*
G37*
%TD*%
%TO.C,R3*%
G36*
G01*
X164662500Y-98920000D02*
X164267500Y-98920000D01*
G75*
G02*
X164095000Y-98747500I0J172500D01*
G01*
X164095000Y-98402500D01*
G75*
G02*
X164267500Y-98230000I172500J0D01*
G01*
X164662500Y-98230000D01*
G75*
G02*
X164835000Y-98402500I0J-172500D01*
G01*
X164835000Y-98747500D01*
G75*
G02*
X164662500Y-98920000I-172500J0D01*
G01*
G37*
G36*
G01*
X164662500Y-99890000D02*
X164267500Y-99890000D01*
G75*
G02*
X164095000Y-99717500I0J172500D01*
G01*
X164095000Y-99372500D01*
G75*
G02*
X164267500Y-99200000I172500J0D01*
G01*
X164662500Y-99200000D01*
G75*
G02*
X164835000Y-99372500I0J-172500D01*
G01*
X164835000Y-99717500D01*
G75*
G02*
X164662500Y-99890000I-172500J0D01*
G01*
G37*
%TD*%
%TO.C,C7*%
G36*
G01*
X164662500Y-96380000D02*
X164267500Y-96380000D01*
G75*
G02*
X164095000Y-96207500I0J172500D01*
G01*
X164095000Y-95862500D01*
G75*
G02*
X164267500Y-95690000I172500J0D01*
G01*
X164662500Y-95690000D01*
G75*
G02*
X164835000Y-95862500I0J-172500D01*
G01*
X164835000Y-96207500D01*
G75*
G02*
X164662500Y-96380000I-172500J0D01*
G01*
G37*
G36*
G01*
X164662500Y-97350000D02*
X164267500Y-97350000D01*
G75*
G02*
X164095000Y-97177500I0J172500D01*
G01*
X164095000Y-96832500D01*
G75*
G02*
X164267500Y-96660000I172500J0D01*
G01*
X164662500Y-96660000D01*
G75*
G02*
X164835000Y-96832500I0J-172500D01*
G01*
X164835000Y-97177500D01*
G75*
G02*
X164662500Y-97350000I-172500J0D01*
G01*
G37*
%TD*%
D12*
%TO.C,SW1*%
X162535000Y-100325000D03*
X156235000Y-100325000D03*
X162535000Y-96525000D03*
X156235000Y-96525000D03*
%TD*%
D13*
%TO.C,U1*%
X189470000Y-106020000D03*
X194070000Y-106020000D03*
X191770000Y-106020000D03*
D14*
X191770000Y-99720000D03*
%TD*%
%TO.C,R2*%
G36*
G01*
X196710000Y-102037500D02*
X196710000Y-102432500D01*
G75*
G02*
X196537500Y-102605000I-172500J0D01*
G01*
X196192500Y-102605000D01*
G75*
G02*
X196020000Y-102432500I0J172500D01*
G01*
X196020000Y-102037500D01*
G75*
G02*
X196192500Y-101865000I172500J0D01*
G01*
X196537500Y-101865000D01*
G75*
G02*
X196710000Y-102037500I0J-172500D01*
G01*
G37*
G36*
G01*
X197680000Y-102037500D02*
X197680000Y-102432500D01*
G75*
G02*
X197507500Y-102605000I-172500J0D01*
G01*
X197162500Y-102605000D01*
G75*
G02*
X196990000Y-102432500I0J172500D01*
G01*
X196990000Y-102037500D01*
G75*
G02*
X197162500Y-101865000I172500J0D01*
G01*
X197507500Y-101865000D01*
G75*
G02*
X197680000Y-102037500I0J-172500D01*
G01*
G37*
%TD*%
%TO.C,R1*%
G36*
G01*
X196710000Y-100767500D02*
X196710000Y-101162500D01*
G75*
G02*
X196537500Y-101335000I-172500J0D01*
G01*
X196192500Y-101335000D01*
G75*
G02*
X196020000Y-101162500I0J172500D01*
G01*
X196020000Y-100767500D01*
G75*
G02*
X196192500Y-100595000I172500J0D01*
G01*
X196537500Y-100595000D01*
G75*
G02*
X196710000Y-100767500I0J-172500D01*
G01*
G37*
G36*
G01*
X197680000Y-100767500D02*
X197680000Y-101162500D01*
G75*
G02*
X197507500Y-101335000I-172500J0D01*
G01*
X197162500Y-101335000D01*
G75*
G02*
X196990000Y-101162500I0J172500D01*
G01*
X196990000Y-100767500D01*
G75*
G02*
X197162500Y-100595000I172500J0D01*
G01*
X197507500Y-100595000D01*
G75*
G02*
X197680000Y-100767500I0J-172500D01*
G01*
G37*
%TD*%
D15*
%TO.C,J5*%
X153035000Y-97790000D03*
X153035000Y-100330000D03*
X153035000Y-102870000D03*
D16*
X153035000Y-105410000D03*
%TD*%
D15*
%TO.C,J4*%
X161925000Y-103505000D03*
X161925000Y-106045000D03*
X159385000Y-103505000D03*
X159385000Y-106045000D03*
X156845000Y-103505000D03*
D16*
X156845000Y-106045000D03*
%TD*%
D15*
%TO.C,J3*%
X201930000Y-93980000D03*
X199390000Y-93980000D03*
X196850000Y-93980000D03*
X194310000Y-93980000D03*
X191770000Y-93980000D03*
X189230000Y-93980000D03*
X186690000Y-93980000D03*
X184150000Y-93980000D03*
X181610000Y-93980000D03*
X179070000Y-93980000D03*
X176530000Y-93980000D03*
X173990000Y-93980000D03*
X171450000Y-93980000D03*
X168910000Y-93980000D03*
X166370000Y-93980000D03*
X163830000Y-93980000D03*
X161290000Y-93980000D03*
X158750000Y-93980000D03*
X156210000Y-93980000D03*
D16*
X153670000Y-93980000D03*
%TD*%
D15*
%TO.C,J2*%
X201930000Y-109220000D03*
X199390000Y-109220000D03*
X196850000Y-109220000D03*
X194310000Y-109220000D03*
X191770000Y-109220000D03*
X189230000Y-109220000D03*
X186690000Y-109220000D03*
X184150000Y-109220000D03*
X181610000Y-109220000D03*
X179070000Y-109220000D03*
X176530000Y-109220000D03*
X173990000Y-109220000D03*
X171450000Y-109220000D03*
X168910000Y-109220000D03*
X166370000Y-109220000D03*
X163830000Y-109220000D03*
X161290000Y-109220000D03*
X158750000Y-109220000D03*
X156210000Y-109220000D03*
D16*
X153670000Y-109220000D03*
%TD*%
D17*
%TO.C,D1*%
X202310000Y-107315000D03*
X199010000Y-107315000D03*
%TD*%
%TO.C,C6*%
G36*
G01*
X171647500Y-101610000D02*
X171252500Y-101610000D01*
G75*
G02*
X171080000Y-101437500I0J172500D01*
G01*
X171080000Y-101092500D01*
G75*
G02*
X171252500Y-100920000I172500J0D01*
G01*
X171647500Y-100920000D01*
G75*
G02*
X171820000Y-101092500I0J-172500D01*
G01*
X171820000Y-101437500D01*
G75*
G02*
X171647500Y-101610000I-172500J0D01*
G01*
G37*
G36*
G01*
X171647500Y-102580000D02*
X171252500Y-102580000D01*
G75*
G02*
X171080000Y-102407500I0J172500D01*
G01*
X171080000Y-102062500D01*
G75*
G02*
X171252500Y-101890000I172500J0D01*
G01*
X171647500Y-101890000D01*
G75*
G02*
X171820000Y-102062500I0J-172500D01*
G01*
X171820000Y-102407500D01*
G75*
G02*
X171647500Y-102580000I-172500J0D01*
G01*
G37*
%TD*%
%TO.C,C5*%
G36*
G01*
X173215000Y-105847500D02*
X173215000Y-106242500D01*
G75*
G02*
X173042500Y-106415000I-172500J0D01*
G01*
X172697500Y-106415000D01*
G75*
G02*
X172525000Y-106242500I0J172500D01*
G01*
X172525000Y-105847500D01*
G75*
G02*
X172697500Y-105675000I172500J0D01*
G01*
X173042500Y-105675000D01*
G75*
G02*
X173215000Y-105847500I0J-172500D01*
G01*
G37*
G36*
G01*
X174185000Y-105847500D02*
X174185000Y-106242500D01*
G75*
G02*
X174012500Y-106415000I-172500J0D01*
G01*
X173667500Y-106415000D01*
G75*
G02*
X173495000Y-106242500I0J172500D01*
G01*
X173495000Y-105847500D01*
G75*
G02*
X173667500Y-105675000I172500J0D01*
G01*
X174012500Y-105675000D01*
G75*
G02*
X174185000Y-105847500I0J-172500D01*
G01*
G37*
%TD*%
%TO.C,C4*%
G36*
G01*
X181115000Y-96082500D02*
X181115000Y-95687500D01*
G75*
G02*
X181287500Y-95515000I172500J0D01*
G01*
X181632500Y-95515000D01*
G75*
G02*
X181805000Y-95687500I0J-172500D01*
G01*
X181805000Y-96082500D01*
G75*
G02*
X181632500Y-96255000I-172500J0D01*
G01*
X181287500Y-96255000D01*
G75*
G02*
X181115000Y-96082500I0J172500D01*
G01*
G37*
G36*
G01*
X180145000Y-96082500D02*
X180145000Y-95687500D01*
G75*
G02*
X180317500Y-95515000I172500J0D01*
G01*
X180662500Y-95515000D01*
G75*
G02*
X180835000Y-95687500I0J-172500D01*
G01*
X180835000Y-96082500D01*
G75*
G02*
X180662500Y-96255000I-172500J0D01*
G01*
X180317500Y-96255000D01*
G75*
G02*
X180145000Y-96082500I0J172500D01*
G01*
G37*
%TD*%
%TO.C,C3*%
G36*
G01*
X184347500Y-101610000D02*
X183952500Y-101610000D01*
G75*
G02*
X183780000Y-101437500I0J172500D01*
G01*
X183780000Y-101092500D01*
G75*
G02*
X183952500Y-100920000I172500J0D01*
G01*
X184347500Y-100920000D01*
G75*
G02*
X184520000Y-101092500I0J-172500D01*
G01*
X184520000Y-101437500D01*
G75*
G02*
X184347500Y-101610000I-172500J0D01*
G01*
G37*
G36*
G01*
X184347500Y-102580000D02*
X183952500Y-102580000D01*
G75*
G02*
X183780000Y-102407500I0J172500D01*
G01*
X183780000Y-102062500D01*
G75*
G02*
X183952500Y-101890000I172500J0D01*
G01*
X184347500Y-101890000D01*
G75*
G02*
X184520000Y-102062500I0J-172500D01*
G01*
X184520000Y-102407500D01*
G75*
G02*
X184347500Y-102580000I-172500J0D01*
G01*
G37*
%TD*%
%TO.C,C2*%
G36*
G01*
X186208750Y-105810000D02*
X187171250Y-105810000D01*
G75*
G02*
X187440000Y-106078750I0J-268750D01*
G01*
X187440000Y-106616250D01*
G75*
G02*
X187171250Y-106885000I-268750J0D01*
G01*
X186208750Y-106885000D01*
G75*
G02*
X185940000Y-106616250I0J268750D01*
G01*
X185940000Y-106078750D01*
G75*
G02*
X186208750Y-105810000I268750J0D01*
G01*
G37*
G36*
G01*
X186208750Y-103935000D02*
X187171250Y-103935000D01*
G75*
G02*
X187440000Y-104203750I0J-268750D01*
G01*
X187440000Y-104741250D01*
G75*
G02*
X187171250Y-105010000I-268750J0D01*
G01*
X186208750Y-105010000D01*
G75*
G02*
X185940000Y-104741250I0J268750D01*
G01*
X185940000Y-104203750D01*
G75*
G02*
X186208750Y-103935000I268750J0D01*
G01*
G37*
%TD*%
%TO.C,C1*%
G36*
G01*
X197331250Y-105010000D02*
X196368750Y-105010000D01*
G75*
G02*
X196100000Y-104741250I0J268750D01*
G01*
X196100000Y-104203750D01*
G75*
G02*
X196368750Y-103935000I268750J0D01*
G01*
X197331250Y-103935000D01*
G75*
G02*
X197600000Y-104203750I0J-268750D01*
G01*
X197600000Y-104741250D01*
G75*
G02*
X197331250Y-105010000I-268750J0D01*
G01*
G37*
G36*
G01*
X197331250Y-106885000D02*
X196368750Y-106885000D01*
G75*
G02*
X196100000Y-106616250I0J268750D01*
G01*
X196100000Y-106078750D01*
G75*
G02*
X196368750Y-105810000I268750J0D01*
G01*
X197331250Y-105810000D01*
G75*
G02*
X197600000Y-106078750I0J-268750D01*
G01*
X197600000Y-106616250D01*
G75*
G02*
X197331250Y-106885000I-268750J0D01*
G01*
G37*
%TD*%
%TO.C,U2*%
G36*
G01*
X173256839Y-101228769D02*
X172284566Y-100256498D01*
G75*
G02*
X172284566Y-100115076I70711J70711D01*
G01*
X172425988Y-99973654D01*
G75*
G02*
X172567410Y-99973654I70711J-70711D01*
G01*
X173539682Y-100945926D01*
G75*
G02*
X173539682Y-101087348I-70711J-70711D01*
G01*
X173398260Y-101228770D01*
G75*
G02*
X173256838Y-101228770I-70711J70711D01*
G01*
G37*
G36*
G01*
X173610393Y-100875215D02*
X172638120Y-99902944D01*
G75*
G02*
X172638120Y-99761522I70711J70711D01*
G01*
X172779542Y-99620100D01*
G75*
G02*
X172920964Y-99620100I70711J-70711D01*
G01*
X173893236Y-100592372D01*
G75*
G02*
X173893236Y-100733794I-70711J-70711D01*
G01*
X173751814Y-100875216D01*
G75*
G02*
X173610392Y-100875216I-70711J70711D01*
G01*
G37*
G36*
G01*
X173963946Y-100521662D02*
X172991673Y-99549391D01*
G75*
G02*
X172991673Y-99407969I70711J70711D01*
G01*
X173133095Y-99266547D01*
G75*
G02*
X173274517Y-99266547I70711J-70711D01*
G01*
X174246789Y-100238819D01*
G75*
G02*
X174246789Y-100380241I-70711J-70711D01*
G01*
X174105367Y-100521663D01*
G75*
G02*
X173963945Y-100521663I-70711J70711D01*
G01*
G37*
G36*
G01*
X174317500Y-100168108D02*
X173345227Y-99195837D01*
G75*
G02*
X173345227Y-99054415I70711J70711D01*
G01*
X173486649Y-98912993D01*
G75*
G02*
X173628071Y-98912993I70711J-70711D01*
G01*
X174600343Y-99885265D01*
G75*
G02*
X174600343Y-100026687I-70711J-70711D01*
G01*
X174458921Y-100168109D01*
G75*
G02*
X174317499Y-100168109I-70711J70711D01*
G01*
G37*
G36*
G01*
X174671053Y-99814555D02*
X173698780Y-98842284D01*
G75*
G02*
X173698780Y-98700862I70711J70711D01*
G01*
X173840202Y-98559440D01*
G75*
G02*
X173981624Y-98559440I70711J-70711D01*
G01*
X174953896Y-99531712D01*
G75*
G02*
X174953896Y-99673134I-70711J-70711D01*
G01*
X174812474Y-99814556D01*
G75*
G02*
X174671052Y-99814556I-70711J70711D01*
G01*
G37*
G36*
G01*
X175024606Y-99461002D02*
X174052333Y-98488731D01*
G75*
G02*
X174052333Y-98347309I70711J70711D01*
G01*
X174193755Y-98205887D01*
G75*
G02*
X174335177Y-98205887I70711J-70711D01*
G01*
X175307449Y-99178159D01*
G75*
G02*
X175307449Y-99319581I-70711J-70711D01*
G01*
X175166027Y-99461003D01*
G75*
G02*
X175024605Y-99461003I-70711J70711D01*
G01*
G37*
G36*
G01*
X175378160Y-99107448D02*
X174405887Y-98135177D01*
G75*
G02*
X174405887Y-97993755I70711J70711D01*
G01*
X174547309Y-97852333D01*
G75*
G02*
X174688731Y-97852333I70711J-70711D01*
G01*
X175661003Y-98824605D01*
G75*
G02*
X175661003Y-98966027I-70711J-70711D01*
G01*
X175519581Y-99107449D01*
G75*
G02*
X175378159Y-99107449I-70711J70711D01*
G01*
G37*
G36*
G01*
X175731713Y-98753895D02*
X174759440Y-97781624D01*
G75*
G02*
X174759440Y-97640202I70711J70711D01*
G01*
X174900862Y-97498780D01*
G75*
G02*
X175042284Y-97498780I70711J-70711D01*
G01*
X176014556Y-98471052D01*
G75*
G02*
X176014556Y-98612474I-70711J-70711D01*
G01*
X175873134Y-98753896D01*
G75*
G02*
X175731712Y-98753896I-70711J70711D01*
G01*
G37*
G36*
G01*
X176085266Y-98400342D02*
X175112993Y-97428071D01*
G75*
G02*
X175112993Y-97286649I70711J70711D01*
G01*
X175254415Y-97145227D01*
G75*
G02*
X175395837Y-97145227I70711J-70711D01*
G01*
X176368109Y-98117499D01*
G75*
G02*
X176368109Y-98258921I-70711J-70711D01*
G01*
X176226687Y-98400343D01*
G75*
G02*
X176085265Y-98400343I-70711J70711D01*
G01*
G37*
G36*
G01*
X176438820Y-98046788D02*
X175466547Y-97074517D01*
G75*
G02*
X175466547Y-96933095I70711J70711D01*
G01*
X175607969Y-96791673D01*
G75*
G02*
X175749391Y-96791673I70711J-70711D01*
G01*
X176721663Y-97763945D01*
G75*
G02*
X176721663Y-97905367I-70711J-70711D01*
G01*
X176580241Y-98046789D01*
G75*
G02*
X176438819Y-98046789I-70711J70711D01*
G01*
G37*
G36*
G01*
X176792373Y-97693235D02*
X175820100Y-96720964D01*
G75*
G02*
X175820100Y-96579542I70711J70711D01*
G01*
X175961522Y-96438120D01*
G75*
G02*
X176102944Y-96438120I70711J-70711D01*
G01*
X177075216Y-97410392D01*
G75*
G02*
X177075216Y-97551814I-70711J-70711D01*
G01*
X176933794Y-97693236D01*
G75*
G02*
X176792372Y-97693236I-70711J70711D01*
G01*
G37*
G36*
G01*
X177145927Y-97339681D02*
X176173654Y-96367410D01*
G75*
G02*
X176173654Y-96225988I70711J70711D01*
G01*
X176315076Y-96084566D01*
G75*
G02*
X176456498Y-96084566I70711J-70711D01*
G01*
X177428770Y-97056838D01*
G75*
G02*
X177428770Y-97198260I-70711J-70711D01*
G01*
X177287348Y-97339682D01*
G75*
G02*
X177145926Y-97339682I-70711J70711D01*
G01*
G37*
G36*
G01*
X178312652Y-97339681D02*
X178171230Y-97198260D01*
G75*
G02*
X178171230Y-97056838I70711J70711D01*
G01*
X179143502Y-96084566D01*
G75*
G02*
X179284924Y-96084566I70711J-70711D01*
G01*
X179426346Y-96225988D01*
G75*
G02*
X179426346Y-96367410I-70711J-70711D01*
G01*
X178454074Y-97339682D01*
G75*
G02*
X178312652Y-97339682I-70711J70711D01*
G01*
G37*
G36*
G01*
X178666206Y-97693235D02*
X178524784Y-97551814D01*
G75*
G02*
X178524784Y-97410392I70711J70711D01*
G01*
X179497056Y-96438120D01*
G75*
G02*
X179638478Y-96438120I70711J-70711D01*
G01*
X179779900Y-96579542D01*
G75*
G02*
X179779900Y-96720964I-70711J-70711D01*
G01*
X178807628Y-97693236D01*
G75*
G02*
X178666206Y-97693236I-70711J70711D01*
G01*
G37*
G36*
G01*
X179019759Y-98046788D02*
X178878337Y-97905367D01*
G75*
G02*
X178878337Y-97763945I70711J70711D01*
G01*
X179850609Y-96791673D01*
G75*
G02*
X179992031Y-96791673I70711J-70711D01*
G01*
X180133453Y-96933095D01*
G75*
G02*
X180133453Y-97074517I-70711J-70711D01*
G01*
X179161181Y-98046789D01*
G75*
G02*
X179019759Y-98046789I-70711J70711D01*
G01*
G37*
G36*
G01*
X179373313Y-98400342D02*
X179231891Y-98258921D01*
G75*
G02*
X179231891Y-98117499I70711J70711D01*
G01*
X180204163Y-97145227D01*
G75*
G02*
X180345585Y-97145227I70711J-70711D01*
G01*
X180487007Y-97286649D01*
G75*
G02*
X180487007Y-97428071I-70711J-70711D01*
G01*
X179514735Y-98400343D01*
G75*
G02*
X179373313Y-98400343I-70711J70711D01*
G01*
G37*
G36*
G01*
X179726866Y-98753895D02*
X179585444Y-98612474D01*
G75*
G02*
X179585444Y-98471052I70711J70711D01*
G01*
X180557716Y-97498780D01*
G75*
G02*
X180699138Y-97498780I70711J-70711D01*
G01*
X180840560Y-97640202D01*
G75*
G02*
X180840560Y-97781624I-70711J-70711D01*
G01*
X179868288Y-98753896D01*
G75*
G02*
X179726866Y-98753896I-70711J70711D01*
G01*
G37*
G36*
G01*
X180080419Y-99107448D02*
X179938997Y-98966027D01*
G75*
G02*
X179938997Y-98824605I70711J70711D01*
G01*
X180911269Y-97852333D01*
G75*
G02*
X181052691Y-97852333I70711J-70711D01*
G01*
X181194113Y-97993755D01*
G75*
G02*
X181194113Y-98135177I-70711J-70711D01*
G01*
X180221841Y-99107449D01*
G75*
G02*
X180080419Y-99107449I-70711J70711D01*
G01*
G37*
G36*
G01*
X180433973Y-99461002D02*
X180292551Y-99319581D01*
G75*
G02*
X180292551Y-99178159I70711J70711D01*
G01*
X181264823Y-98205887D01*
G75*
G02*
X181406245Y-98205887I70711J-70711D01*
G01*
X181547667Y-98347309D01*
G75*
G02*
X181547667Y-98488731I-70711J-70711D01*
G01*
X180575395Y-99461003D01*
G75*
G02*
X180433973Y-99461003I-70711J70711D01*
G01*
G37*
G36*
G01*
X180787526Y-99814555D02*
X180646104Y-99673134D01*
G75*
G02*
X180646104Y-99531712I70711J70711D01*
G01*
X181618376Y-98559440D01*
G75*
G02*
X181759798Y-98559440I70711J-70711D01*
G01*
X181901220Y-98700862D01*
G75*
G02*
X181901220Y-98842284I-70711J-70711D01*
G01*
X180928948Y-99814556D01*
G75*
G02*
X180787526Y-99814556I-70711J70711D01*
G01*
G37*
G36*
G01*
X181141079Y-100168108D02*
X180999657Y-100026687D01*
G75*
G02*
X180999657Y-99885265I70711J70711D01*
G01*
X181971929Y-98912993D01*
G75*
G02*
X182113351Y-98912993I70711J-70711D01*
G01*
X182254773Y-99054415D01*
G75*
G02*
X182254773Y-99195837I-70711J-70711D01*
G01*
X181282501Y-100168109D01*
G75*
G02*
X181141079Y-100168109I-70711J70711D01*
G01*
G37*
G36*
G01*
X181494633Y-100521662D02*
X181353211Y-100380241D01*
G75*
G02*
X181353211Y-100238819I70711J70711D01*
G01*
X182325483Y-99266547D01*
G75*
G02*
X182466905Y-99266547I70711J-70711D01*
G01*
X182608327Y-99407969D01*
G75*
G02*
X182608327Y-99549391I-70711J-70711D01*
G01*
X181636055Y-100521663D01*
G75*
G02*
X181494633Y-100521663I-70711J70711D01*
G01*
G37*
G36*
G01*
X181848186Y-100875215D02*
X181706764Y-100733794D01*
G75*
G02*
X181706764Y-100592372I70711J70711D01*
G01*
X182679036Y-99620100D01*
G75*
G02*
X182820458Y-99620100I70711J-70711D01*
G01*
X182961880Y-99761522D01*
G75*
G02*
X182961880Y-99902944I-70711J-70711D01*
G01*
X181989608Y-100875216D01*
G75*
G02*
X181848186Y-100875216I-70711J70711D01*
G01*
G37*
G36*
G01*
X182201740Y-101228769D02*
X182060318Y-101087348D01*
G75*
G02*
X182060318Y-100945926I70711J70711D01*
G01*
X183032590Y-99973654D01*
G75*
G02*
X183174012Y-99973654I70711J-70711D01*
G01*
X183315434Y-100115076D01*
G75*
G02*
X183315434Y-100256498I-70711J-70711D01*
G01*
X182343162Y-101228770D01*
G75*
G02*
X182201740Y-101228770I-70711J70711D01*
G01*
G37*
G36*
G01*
X183032591Y-103226345D02*
X182060318Y-102254074D01*
G75*
G02*
X182060318Y-102112652I70711J70711D01*
G01*
X182201740Y-101971230D01*
G75*
G02*
X182343162Y-101971230I70711J-70711D01*
G01*
X183315434Y-102943502D01*
G75*
G02*
X183315434Y-103084924I-70711J-70711D01*
G01*
X183174012Y-103226346D01*
G75*
G02*
X183032590Y-103226346I-70711J70711D01*
G01*
G37*
G36*
G01*
X182679037Y-103579899D02*
X181706764Y-102607628D01*
G75*
G02*
X181706764Y-102466206I70711J70711D01*
G01*
X181848186Y-102324784D01*
G75*
G02*
X181989608Y-102324784I70711J-70711D01*
G01*
X182961880Y-103297056D01*
G75*
G02*
X182961880Y-103438478I-70711J-70711D01*
G01*
X182820458Y-103579900D01*
G75*
G02*
X182679036Y-103579900I-70711J70711D01*
G01*
G37*
G36*
G01*
X182325484Y-103933452D02*
X181353211Y-102961181D01*
G75*
G02*
X181353211Y-102819759I70711J70711D01*
G01*
X181494633Y-102678337D01*
G75*
G02*
X181636055Y-102678337I70711J-70711D01*
G01*
X182608327Y-103650609D01*
G75*
G02*
X182608327Y-103792031I-70711J-70711D01*
G01*
X182466905Y-103933453D01*
G75*
G02*
X182325483Y-103933453I-70711J70711D01*
G01*
G37*
G36*
G01*
X181971930Y-104287006D02*
X180999657Y-103314735D01*
G75*
G02*
X180999657Y-103173313I70711J70711D01*
G01*
X181141079Y-103031891D01*
G75*
G02*
X181282501Y-103031891I70711J-70711D01*
G01*
X182254773Y-104004163D01*
G75*
G02*
X182254773Y-104145585I-70711J-70711D01*
G01*
X182113351Y-104287007D01*
G75*
G02*
X181971929Y-104287007I-70711J70711D01*
G01*
G37*
G36*
G01*
X181618377Y-104640559D02*
X180646104Y-103668288D01*
G75*
G02*
X180646104Y-103526866I70711J70711D01*
G01*
X180787526Y-103385444D01*
G75*
G02*
X180928948Y-103385444I70711J-70711D01*
G01*
X181901220Y-104357716D01*
G75*
G02*
X181901220Y-104499138I-70711J-70711D01*
G01*
X181759798Y-104640560D01*
G75*
G02*
X181618376Y-104640560I-70711J70711D01*
G01*
G37*
G36*
G01*
X181264824Y-104994112D02*
X180292551Y-104021841D01*
G75*
G02*
X180292551Y-103880419I70711J70711D01*
G01*
X180433973Y-103738997D01*
G75*
G02*
X180575395Y-103738997I70711J-70711D01*
G01*
X181547667Y-104711269D01*
G75*
G02*
X181547667Y-104852691I-70711J-70711D01*
G01*
X181406245Y-104994113D01*
G75*
G02*
X181264823Y-104994113I-70711J70711D01*
G01*
G37*
G36*
G01*
X180911270Y-105347666D02*
X179938997Y-104375395D01*
G75*
G02*
X179938997Y-104233973I70711J70711D01*
G01*
X180080419Y-104092551D01*
G75*
G02*
X180221841Y-104092551I70711J-70711D01*
G01*
X181194113Y-105064823D01*
G75*
G02*
X181194113Y-105206245I-70711J-70711D01*
G01*
X181052691Y-105347667D01*
G75*
G02*
X180911269Y-105347667I-70711J70711D01*
G01*
G37*
G36*
G01*
X180557717Y-105701219D02*
X179585444Y-104728948D01*
G75*
G02*
X179585444Y-104587526I70711J70711D01*
G01*
X179726866Y-104446104D01*
G75*
G02*
X179868288Y-104446104I70711J-70711D01*
G01*
X180840560Y-105418376D01*
G75*
G02*
X180840560Y-105559798I-70711J-70711D01*
G01*
X180699138Y-105701220D01*
G75*
G02*
X180557716Y-105701220I-70711J70711D01*
G01*
G37*
G36*
G01*
X180204164Y-106054772D02*
X179231891Y-105082501D01*
G75*
G02*
X179231891Y-104941079I70711J70711D01*
G01*
X179373313Y-104799657D01*
G75*
G02*
X179514735Y-104799657I70711J-70711D01*
G01*
X180487007Y-105771929D01*
G75*
G02*
X180487007Y-105913351I-70711J-70711D01*
G01*
X180345585Y-106054773D01*
G75*
G02*
X180204163Y-106054773I-70711J70711D01*
G01*
G37*
G36*
G01*
X179850610Y-106408326D02*
X178878337Y-105436055D01*
G75*
G02*
X178878337Y-105294633I70711J70711D01*
G01*
X179019759Y-105153211D01*
G75*
G02*
X179161181Y-105153211I70711J-70711D01*
G01*
X180133453Y-106125483D01*
G75*
G02*
X180133453Y-106266905I-70711J-70711D01*
G01*
X179992031Y-106408327D01*
G75*
G02*
X179850609Y-106408327I-70711J70711D01*
G01*
G37*
G36*
G01*
X179497057Y-106761879D02*
X178524784Y-105789608D01*
G75*
G02*
X178524784Y-105648186I70711J70711D01*
G01*
X178666206Y-105506764D01*
G75*
G02*
X178807628Y-105506764I70711J-70711D01*
G01*
X179779900Y-106479036D01*
G75*
G02*
X179779900Y-106620458I-70711J-70711D01*
G01*
X179638478Y-106761880D01*
G75*
G02*
X179497056Y-106761880I-70711J70711D01*
G01*
G37*
G36*
G01*
X179143503Y-107115433D02*
X178171230Y-106143162D01*
G75*
G02*
X178171230Y-106001740I70711J70711D01*
G01*
X178312652Y-105860318D01*
G75*
G02*
X178454074Y-105860318I70711J-70711D01*
G01*
X179426346Y-106832590D01*
G75*
G02*
X179426346Y-106974012I-70711J-70711D01*
G01*
X179284924Y-107115434D01*
G75*
G02*
X179143502Y-107115434I-70711J70711D01*
G01*
G37*
G36*
G01*
X176315076Y-107115433D02*
X176173654Y-106974012D01*
G75*
G02*
X176173654Y-106832590I70711J70711D01*
G01*
X177145926Y-105860318D01*
G75*
G02*
X177287348Y-105860318I70711J-70711D01*
G01*
X177428770Y-106001740D01*
G75*
G02*
X177428770Y-106143162I-70711J-70711D01*
G01*
X176456498Y-107115434D01*
G75*
G02*
X176315076Y-107115434I-70711J70711D01*
G01*
G37*
G36*
G01*
X175961522Y-106761879D02*
X175820100Y-106620458D01*
G75*
G02*
X175820100Y-106479036I70711J70711D01*
G01*
X176792372Y-105506764D01*
G75*
G02*
X176933794Y-105506764I70711J-70711D01*
G01*
X177075216Y-105648186D01*
G75*
G02*
X177075216Y-105789608I-70711J-70711D01*
G01*
X176102944Y-106761880D01*
G75*
G02*
X175961522Y-106761880I-70711J70711D01*
G01*
G37*
G36*
G01*
X175607969Y-106408326D02*
X175466547Y-106266905D01*
G75*
G02*
X175466547Y-106125483I70711J70711D01*
G01*
X176438819Y-105153211D01*
G75*
G02*
X176580241Y-105153211I70711J-70711D01*
G01*
X176721663Y-105294633D01*
G75*
G02*
X176721663Y-105436055I-70711J-70711D01*
G01*
X175749391Y-106408327D01*
G75*
G02*
X175607969Y-106408327I-70711J70711D01*
G01*
G37*
G36*
G01*
X175254415Y-106054772D02*
X175112993Y-105913351D01*
G75*
G02*
X175112993Y-105771929I70711J70711D01*
G01*
X176085265Y-104799657D01*
G75*
G02*
X176226687Y-104799657I70711J-70711D01*
G01*
X176368109Y-104941079D01*
G75*
G02*
X176368109Y-105082501I-70711J-70711D01*
G01*
X175395837Y-106054773D01*
G75*
G02*
X175254415Y-106054773I-70711J70711D01*
G01*
G37*
G36*
G01*
X174900862Y-105701219D02*
X174759440Y-105559798D01*
G75*
G02*
X174759440Y-105418376I70711J70711D01*
G01*
X175731712Y-104446104D01*
G75*
G02*
X175873134Y-104446104I70711J-70711D01*
G01*
X176014556Y-104587526D01*
G75*
G02*
X176014556Y-104728948I-70711J-70711D01*
G01*
X175042284Y-105701220D01*
G75*
G02*
X174900862Y-105701220I-70711J70711D01*
G01*
G37*
G36*
G01*
X174547309Y-105347666D02*
X174405887Y-105206245D01*
G75*
G02*
X174405887Y-105064823I70711J70711D01*
G01*
X175378159Y-104092551D01*
G75*
G02*
X175519581Y-104092551I70711J-70711D01*
G01*
X175661003Y-104233973D01*
G75*
G02*
X175661003Y-104375395I-70711J-70711D01*
G01*
X174688731Y-105347667D01*
G75*
G02*
X174547309Y-105347667I-70711J70711D01*
G01*
G37*
G36*
G01*
X174193755Y-104994112D02*
X174052333Y-104852691D01*
G75*
G02*
X174052333Y-104711269I70711J70711D01*
G01*
X175024605Y-103738997D01*
G75*
G02*
X175166027Y-103738997I70711J-70711D01*
G01*
X175307449Y-103880419D01*
G75*
G02*
X175307449Y-104021841I-70711J-70711D01*
G01*
X174335177Y-104994113D01*
G75*
G02*
X174193755Y-104994113I-70711J70711D01*
G01*
G37*
G36*
G01*
X173840202Y-104640559D02*
X173698780Y-104499138D01*
G75*
G02*
X173698780Y-104357716I70711J70711D01*
G01*
X174671052Y-103385444D01*
G75*
G02*
X174812474Y-103385444I70711J-70711D01*
G01*
X174953896Y-103526866D01*
G75*
G02*
X174953896Y-103668288I-70711J-70711D01*
G01*
X173981624Y-104640560D01*
G75*
G02*
X173840202Y-104640560I-70711J70711D01*
G01*
G37*
G36*
G01*
X173486649Y-104287006D02*
X173345227Y-104145585D01*
G75*
G02*
X173345227Y-104004163I70711J70711D01*
G01*
X174317499Y-103031891D01*
G75*
G02*
X174458921Y-103031891I70711J-70711D01*
G01*
X174600343Y-103173313D01*
G75*
G02*
X174600343Y-103314735I-70711J-70711D01*
G01*
X173628071Y-104287007D01*
G75*
G02*
X173486649Y-104287007I-70711J70711D01*
G01*
G37*
G36*
G01*
X173133095Y-103933452D02*
X172991673Y-103792031D01*
G75*
G02*
X172991673Y-103650609I70711J70711D01*
G01*
X173963945Y-102678337D01*
G75*
G02*
X174105367Y-102678337I70711J-70711D01*
G01*
X174246789Y-102819759D01*
G75*
G02*
X174246789Y-102961181I-70711J-70711D01*
G01*
X173274517Y-103933453D01*
G75*
G02*
X173133095Y-103933453I-70711J70711D01*
G01*
G37*
G36*
G01*
X172779542Y-103579899D02*
X172638120Y-103438478D01*
G75*
G02*
X172638120Y-103297056I70711J70711D01*
G01*
X173610392Y-102324784D01*
G75*
G02*
X173751814Y-102324784I70711J-70711D01*
G01*
X173893236Y-102466206D01*
G75*
G02*
X173893236Y-102607628I-70711J-70711D01*
G01*
X172920964Y-103579900D01*
G75*
G02*
X172779542Y-103579900I-70711J70711D01*
G01*
G37*
G36*
G01*
X172425988Y-103226345D02*
X172284566Y-103084924D01*
G75*
G02*
X172284566Y-102943502I70711J70711D01*
G01*
X173256838Y-101971230D01*
G75*
G02*
X173398260Y-101971230I70711J-70711D01*
G01*
X173539682Y-102112652D01*
G75*
G02*
X173539682Y-102254074I-70711J-70711D01*
G01*
X172567410Y-103226346D01*
G75*
G02*
X172425988Y-103226346I-70711J70711D01*
G01*
G37*
%TD*%
D18*
%TO.C,J1*%
X202532500Y-104500000D03*
X202532500Y-98700000D03*
D19*
X202532500Y-98100000D03*
X202532500Y-105100000D03*
D20*
X202532500Y-102600000D03*
D21*
X199832500Y-99100000D03*
D22*
X199832500Y-101600000D03*
X199832500Y-100950000D03*
X199832500Y-100300000D03*
X199832500Y-102900000D03*
X199832500Y-102250000D03*
D21*
X199832500Y-104100000D03*
D20*
X202532500Y-100600000D03*
%TD*%
M02*
