%TF.GenerationSoftware,KiCad,Pcbnew,5.1.6+dfsg1-1*%
%TF.CreationDate,2020-06-27T09:06:45+08:00*%
%TF.ProjectId,stm32devmini,73746d33-3264-4657-966d-696e692e6b69,a*%
%TF.SameCoordinates,Original*%
%TF.FileFunction,Legend,Bot*%
%TF.FilePolarity,Positive*%
%FSLAX46Y46*%
G04 Gerber Fmt 4.6, Leading zero omitted, Abs format (unit mm)*
G04 Created by KiCad (PCBNEW 5.1.6+dfsg1-1) date 2020-06-27 09:06:45*
%MOMM*%
%LPD*%
G01*
G04 APERTURE LIST*
%ADD10C,0.150000*%
%ADD11C,0.120000*%
G04 APERTURE END LIST*
D10*
X157835476Y-101161904D02*
X157340238Y-101161904D01*
X157606904Y-101466666D01*
X157492619Y-101466666D01*
X157416428Y-101504761D01*
X157378333Y-101542857D01*
X157340238Y-101619047D01*
X157340238Y-101809523D01*
X157378333Y-101885714D01*
X157416428Y-101923809D01*
X157492619Y-101961904D01*
X157721190Y-101961904D01*
X157797380Y-101923809D01*
X157835476Y-101885714D01*
X157111666Y-101161904D02*
X156845000Y-101961904D01*
X156578333Y-101161904D01*
X156387857Y-101161904D02*
X155892619Y-101161904D01*
X156159285Y-101466666D01*
X156045000Y-101466666D01*
X155968809Y-101504761D01*
X155930714Y-101542857D01*
X155892619Y-101619047D01*
X155892619Y-101809523D01*
X155930714Y-101885714D01*
X155968809Y-101923809D01*
X156045000Y-101961904D01*
X156273571Y-101961904D01*
X156349761Y-101923809D01*
X156387857Y-101885714D01*
X162534523Y-101200000D02*
X162610714Y-101161904D01*
X162725000Y-101161904D01*
X162839285Y-101200000D01*
X162915476Y-101276190D01*
X162953571Y-101352380D01*
X162991666Y-101504761D01*
X162991666Y-101619047D01*
X162953571Y-101771428D01*
X162915476Y-101847619D01*
X162839285Y-101923809D01*
X162725000Y-101961904D01*
X162648809Y-101961904D01*
X162534523Y-101923809D01*
X162496428Y-101885714D01*
X162496428Y-101619047D01*
X162648809Y-101619047D01*
X162153571Y-101961904D02*
X162153571Y-101161904D01*
X161696428Y-101961904D01*
X161696428Y-101161904D01*
X161315476Y-101961904D02*
X161315476Y-101161904D01*
X161125000Y-101161904D01*
X161010714Y-101200000D01*
X160934523Y-101276190D01*
X160896428Y-101352380D01*
X160858333Y-101504761D01*
X160858333Y-101619047D01*
X160896428Y-101771428D01*
X160934523Y-101847619D01*
X161010714Y-101923809D01*
X161125000Y-101961904D01*
X161315476Y-101961904D01*
X165207857Y-103447857D02*
X165093571Y-103485952D01*
X165055476Y-103524047D01*
X165017380Y-103600238D01*
X165017380Y-103714523D01*
X165055476Y-103790714D01*
X165093571Y-103828809D01*
X165169761Y-103866904D01*
X165474523Y-103866904D01*
X165474523Y-103066904D01*
X165207857Y-103066904D01*
X165131666Y-103105000D01*
X165093571Y-103143095D01*
X165055476Y-103219285D01*
X165055476Y-103295476D01*
X165093571Y-103371666D01*
X165131666Y-103409761D01*
X165207857Y-103447857D01*
X165474523Y-103447857D01*
X164522142Y-103066904D02*
X164369761Y-103066904D01*
X164293571Y-103105000D01*
X164217380Y-103181190D01*
X164179285Y-103333571D01*
X164179285Y-103600238D01*
X164217380Y-103752619D01*
X164293571Y-103828809D01*
X164369761Y-103866904D01*
X164522142Y-103866904D01*
X164598333Y-103828809D01*
X164674523Y-103752619D01*
X164712619Y-103600238D01*
X164712619Y-103333571D01*
X164674523Y-103181190D01*
X164598333Y-103105000D01*
X164522142Y-103066904D01*
X163417380Y-103866904D02*
X163874523Y-103866904D01*
X163645952Y-103866904D02*
X163645952Y-103066904D01*
X163722142Y-103181190D01*
X163798333Y-103257380D01*
X163874523Y-103295476D01*
X165207857Y-105987857D02*
X165093571Y-106025952D01*
X165055476Y-106064047D01*
X165017380Y-106140238D01*
X165017380Y-106254523D01*
X165055476Y-106330714D01*
X165093571Y-106368809D01*
X165169761Y-106406904D01*
X165474523Y-106406904D01*
X165474523Y-105606904D01*
X165207857Y-105606904D01*
X165131666Y-105645000D01*
X165093571Y-105683095D01*
X165055476Y-105759285D01*
X165055476Y-105835476D01*
X165093571Y-105911666D01*
X165131666Y-105949761D01*
X165207857Y-105987857D01*
X165474523Y-105987857D01*
X164522142Y-105606904D02*
X164369761Y-105606904D01*
X164293571Y-105645000D01*
X164217380Y-105721190D01*
X164179285Y-105873571D01*
X164179285Y-106140238D01*
X164217380Y-106292619D01*
X164293571Y-106368809D01*
X164369761Y-106406904D01*
X164522142Y-106406904D01*
X164598333Y-106368809D01*
X164674523Y-106292619D01*
X164712619Y-106140238D01*
X164712619Y-105873571D01*
X164674523Y-105721190D01*
X164598333Y-105645000D01*
X164522142Y-105606904D01*
X163684047Y-105606904D02*
X163607857Y-105606904D01*
X163531666Y-105645000D01*
X163493571Y-105683095D01*
X163455476Y-105759285D01*
X163417380Y-105911666D01*
X163417380Y-106102142D01*
X163455476Y-106254523D01*
X163493571Y-106330714D01*
X163531666Y-106368809D01*
X163607857Y-106406904D01*
X163684047Y-106406904D01*
X163760238Y-106368809D01*
X163798333Y-106330714D01*
X163836428Y-106254523D01*
X163874523Y-106102142D01*
X163874523Y-105911666D01*
X163836428Y-105759285D01*
X163798333Y-105683095D01*
X163760238Y-105645000D01*
X163684047Y-105606904D01*
X154336666Y-110686904D02*
X154070000Y-111486904D01*
X153803333Y-110686904D01*
X153270000Y-111067857D02*
X153155714Y-111105952D01*
X153117619Y-111144047D01*
X153079523Y-111220238D01*
X153079523Y-111334523D01*
X153117619Y-111410714D01*
X153155714Y-111448809D01*
X153231904Y-111486904D01*
X153536666Y-111486904D01*
X153536666Y-110686904D01*
X153270000Y-110686904D01*
X153193809Y-110725000D01*
X153155714Y-110763095D01*
X153117619Y-110839285D01*
X153117619Y-110915476D01*
X153155714Y-110991666D01*
X153193809Y-111029761D01*
X153270000Y-111067857D01*
X153536666Y-111067857D01*
X156724285Y-111410714D02*
X156762380Y-111448809D01*
X156876666Y-111486904D01*
X156952857Y-111486904D01*
X157067142Y-111448809D01*
X157143333Y-111372619D01*
X157181428Y-111296428D01*
X157219523Y-111144047D01*
X157219523Y-111029761D01*
X157181428Y-110877380D01*
X157143333Y-110801190D01*
X157067142Y-110725000D01*
X156952857Y-110686904D01*
X156876666Y-110686904D01*
X156762380Y-110725000D01*
X156724285Y-110763095D01*
X155962380Y-111486904D02*
X156419523Y-111486904D01*
X156190952Y-111486904D02*
X156190952Y-110686904D01*
X156267142Y-110801190D01*
X156343333Y-110877380D01*
X156419523Y-110915476D01*
X155695714Y-110686904D02*
X155200476Y-110686904D01*
X155467142Y-110991666D01*
X155352857Y-110991666D01*
X155276666Y-111029761D01*
X155238571Y-111067857D01*
X155200476Y-111144047D01*
X155200476Y-111334523D01*
X155238571Y-111410714D01*
X155276666Y-111448809D01*
X155352857Y-111486904D01*
X155581428Y-111486904D01*
X155657619Y-111448809D01*
X155695714Y-111410714D01*
X159264285Y-111410714D02*
X159302380Y-111448809D01*
X159416666Y-111486904D01*
X159492857Y-111486904D01*
X159607142Y-111448809D01*
X159683333Y-111372619D01*
X159721428Y-111296428D01*
X159759523Y-111144047D01*
X159759523Y-111029761D01*
X159721428Y-110877380D01*
X159683333Y-110801190D01*
X159607142Y-110725000D01*
X159492857Y-110686904D01*
X159416666Y-110686904D01*
X159302380Y-110725000D01*
X159264285Y-110763095D01*
X158502380Y-111486904D02*
X158959523Y-111486904D01*
X158730952Y-111486904D02*
X158730952Y-110686904D01*
X158807142Y-110801190D01*
X158883333Y-110877380D01*
X158959523Y-110915476D01*
X157816666Y-110953571D02*
X157816666Y-111486904D01*
X158007142Y-110648809D02*
X158197619Y-111220238D01*
X157702380Y-111220238D01*
X161804285Y-111410714D02*
X161842380Y-111448809D01*
X161956666Y-111486904D01*
X162032857Y-111486904D01*
X162147142Y-111448809D01*
X162223333Y-111372619D01*
X162261428Y-111296428D01*
X162299523Y-111144047D01*
X162299523Y-111029761D01*
X162261428Y-110877380D01*
X162223333Y-110801190D01*
X162147142Y-110725000D01*
X162032857Y-110686904D01*
X161956666Y-110686904D01*
X161842380Y-110725000D01*
X161804285Y-110763095D01*
X161042380Y-111486904D02*
X161499523Y-111486904D01*
X161270952Y-111486904D02*
X161270952Y-110686904D01*
X161347142Y-110801190D01*
X161423333Y-110877380D01*
X161499523Y-110915476D01*
X160318571Y-110686904D02*
X160699523Y-110686904D01*
X160737619Y-111067857D01*
X160699523Y-111029761D01*
X160623333Y-110991666D01*
X160432857Y-110991666D01*
X160356666Y-111029761D01*
X160318571Y-111067857D01*
X160280476Y-111144047D01*
X160280476Y-111334523D01*
X160318571Y-111410714D01*
X160356666Y-111448809D01*
X160432857Y-111486904D01*
X160623333Y-111486904D01*
X160699523Y-111448809D01*
X160737619Y-111410714D01*
X164401428Y-111258333D02*
X164020476Y-111258333D01*
X164477619Y-111486904D02*
X164210952Y-110686904D01*
X163944285Y-111486904D01*
X163525238Y-110686904D02*
X163449047Y-110686904D01*
X163372857Y-110725000D01*
X163334761Y-110763095D01*
X163296666Y-110839285D01*
X163258571Y-110991666D01*
X163258571Y-111182142D01*
X163296666Y-111334523D01*
X163334761Y-111410714D01*
X163372857Y-111448809D01*
X163449047Y-111486904D01*
X163525238Y-111486904D01*
X163601428Y-111448809D01*
X163639523Y-111410714D01*
X163677619Y-111334523D01*
X163715714Y-111182142D01*
X163715714Y-110991666D01*
X163677619Y-110839285D01*
X163639523Y-110763095D01*
X163601428Y-110725000D01*
X163525238Y-110686904D01*
X166941428Y-111258333D02*
X166560476Y-111258333D01*
X167017619Y-111486904D02*
X166750952Y-110686904D01*
X166484285Y-111486904D01*
X165798571Y-111486904D02*
X166255714Y-111486904D01*
X166027142Y-111486904D02*
X166027142Y-110686904D01*
X166103333Y-110801190D01*
X166179523Y-110877380D01*
X166255714Y-110915476D01*
X169481428Y-111258333D02*
X169100476Y-111258333D01*
X169557619Y-111486904D02*
X169290952Y-110686904D01*
X169024285Y-111486904D01*
X168795714Y-110763095D02*
X168757619Y-110725000D01*
X168681428Y-110686904D01*
X168490952Y-110686904D01*
X168414761Y-110725000D01*
X168376666Y-110763095D01*
X168338571Y-110839285D01*
X168338571Y-110915476D01*
X168376666Y-111029761D01*
X168833809Y-111486904D01*
X168338571Y-111486904D01*
X172021428Y-111258333D02*
X171640476Y-111258333D01*
X172097619Y-111486904D02*
X171830952Y-110686904D01*
X171564285Y-111486904D01*
X171373809Y-110686904D02*
X170878571Y-110686904D01*
X171145238Y-110991666D01*
X171030952Y-110991666D01*
X170954761Y-111029761D01*
X170916666Y-111067857D01*
X170878571Y-111144047D01*
X170878571Y-111334523D01*
X170916666Y-111410714D01*
X170954761Y-111448809D01*
X171030952Y-111486904D01*
X171259523Y-111486904D01*
X171335714Y-111448809D01*
X171373809Y-111410714D01*
X174561428Y-111258333D02*
X174180476Y-111258333D01*
X174637619Y-111486904D02*
X174370952Y-110686904D01*
X174104285Y-111486904D01*
X173494761Y-110953571D02*
X173494761Y-111486904D01*
X173685238Y-110648809D02*
X173875714Y-111220238D01*
X173380476Y-111220238D01*
X177101428Y-111258333D02*
X176720476Y-111258333D01*
X177177619Y-111486904D02*
X176910952Y-110686904D01*
X176644285Y-111486904D01*
X175996666Y-110686904D02*
X176377619Y-110686904D01*
X176415714Y-111067857D01*
X176377619Y-111029761D01*
X176301428Y-110991666D01*
X176110952Y-110991666D01*
X176034761Y-111029761D01*
X175996666Y-111067857D01*
X175958571Y-111144047D01*
X175958571Y-111334523D01*
X175996666Y-111410714D01*
X176034761Y-111448809D01*
X176110952Y-111486904D01*
X176301428Y-111486904D01*
X176377619Y-111448809D01*
X176415714Y-111410714D01*
X179641428Y-111258333D02*
X179260476Y-111258333D01*
X179717619Y-111486904D02*
X179450952Y-110686904D01*
X179184285Y-111486904D01*
X178574761Y-110686904D02*
X178727142Y-110686904D01*
X178803333Y-110725000D01*
X178841428Y-110763095D01*
X178917619Y-110877380D01*
X178955714Y-111029761D01*
X178955714Y-111334523D01*
X178917619Y-111410714D01*
X178879523Y-111448809D01*
X178803333Y-111486904D01*
X178650952Y-111486904D01*
X178574761Y-111448809D01*
X178536666Y-111410714D01*
X178498571Y-111334523D01*
X178498571Y-111144047D01*
X178536666Y-111067857D01*
X178574761Y-111029761D01*
X178650952Y-110991666D01*
X178803333Y-110991666D01*
X178879523Y-111029761D01*
X178917619Y-111067857D01*
X178955714Y-111144047D01*
X182181428Y-111258333D02*
X181800476Y-111258333D01*
X182257619Y-111486904D02*
X181990952Y-110686904D01*
X181724285Y-111486904D01*
X181533809Y-110686904D02*
X181000476Y-110686904D01*
X181343333Y-111486904D01*
X184473809Y-111067857D02*
X184359523Y-111105952D01*
X184321428Y-111144047D01*
X184283333Y-111220238D01*
X184283333Y-111334523D01*
X184321428Y-111410714D01*
X184359523Y-111448809D01*
X184435714Y-111486904D01*
X184740476Y-111486904D01*
X184740476Y-110686904D01*
X184473809Y-110686904D01*
X184397619Y-110725000D01*
X184359523Y-110763095D01*
X184321428Y-110839285D01*
X184321428Y-110915476D01*
X184359523Y-110991666D01*
X184397619Y-111029761D01*
X184473809Y-111067857D01*
X184740476Y-111067857D01*
X183788095Y-110686904D02*
X183711904Y-110686904D01*
X183635714Y-110725000D01*
X183597619Y-110763095D01*
X183559523Y-110839285D01*
X183521428Y-110991666D01*
X183521428Y-111182142D01*
X183559523Y-111334523D01*
X183597619Y-111410714D01*
X183635714Y-111448809D01*
X183711904Y-111486904D01*
X183788095Y-111486904D01*
X183864285Y-111448809D01*
X183902380Y-111410714D01*
X183940476Y-111334523D01*
X183978571Y-111182142D01*
X183978571Y-110991666D01*
X183940476Y-110839285D01*
X183902380Y-110763095D01*
X183864285Y-110725000D01*
X183788095Y-110686904D01*
X187013809Y-111067857D02*
X186899523Y-111105952D01*
X186861428Y-111144047D01*
X186823333Y-111220238D01*
X186823333Y-111334523D01*
X186861428Y-111410714D01*
X186899523Y-111448809D01*
X186975714Y-111486904D01*
X187280476Y-111486904D01*
X187280476Y-110686904D01*
X187013809Y-110686904D01*
X186937619Y-110725000D01*
X186899523Y-110763095D01*
X186861428Y-110839285D01*
X186861428Y-110915476D01*
X186899523Y-110991666D01*
X186937619Y-111029761D01*
X187013809Y-111067857D01*
X187280476Y-111067857D01*
X186061428Y-111486904D02*
X186518571Y-111486904D01*
X186290000Y-111486904D02*
X186290000Y-110686904D01*
X186366190Y-110801190D01*
X186442380Y-110877380D01*
X186518571Y-110915476D01*
X189934761Y-111067857D02*
X189820476Y-111105952D01*
X189782380Y-111144047D01*
X189744285Y-111220238D01*
X189744285Y-111334523D01*
X189782380Y-111410714D01*
X189820476Y-111448809D01*
X189896666Y-111486904D01*
X190201428Y-111486904D01*
X190201428Y-110686904D01*
X189934761Y-110686904D01*
X189858571Y-110725000D01*
X189820476Y-110763095D01*
X189782380Y-110839285D01*
X189782380Y-110915476D01*
X189820476Y-110991666D01*
X189858571Y-111029761D01*
X189934761Y-111067857D01*
X190201428Y-111067857D01*
X188982380Y-111486904D02*
X189439523Y-111486904D01*
X189210952Y-111486904D02*
X189210952Y-110686904D01*
X189287142Y-110801190D01*
X189363333Y-110877380D01*
X189439523Y-110915476D01*
X188487142Y-110686904D02*
X188410952Y-110686904D01*
X188334761Y-110725000D01*
X188296666Y-110763095D01*
X188258571Y-110839285D01*
X188220476Y-110991666D01*
X188220476Y-111182142D01*
X188258571Y-111334523D01*
X188296666Y-111410714D01*
X188334761Y-111448809D01*
X188410952Y-111486904D01*
X188487142Y-111486904D01*
X188563333Y-111448809D01*
X188601428Y-111410714D01*
X188639523Y-111334523D01*
X188677619Y-111182142D01*
X188677619Y-110991666D01*
X188639523Y-110839285D01*
X188601428Y-110763095D01*
X188563333Y-110725000D01*
X188487142Y-110686904D01*
X192474761Y-111067857D02*
X192360476Y-111105952D01*
X192322380Y-111144047D01*
X192284285Y-111220238D01*
X192284285Y-111334523D01*
X192322380Y-111410714D01*
X192360476Y-111448809D01*
X192436666Y-111486904D01*
X192741428Y-111486904D01*
X192741428Y-110686904D01*
X192474761Y-110686904D01*
X192398571Y-110725000D01*
X192360476Y-110763095D01*
X192322380Y-110839285D01*
X192322380Y-110915476D01*
X192360476Y-110991666D01*
X192398571Y-111029761D01*
X192474761Y-111067857D01*
X192741428Y-111067857D01*
X191522380Y-111486904D02*
X191979523Y-111486904D01*
X191750952Y-111486904D02*
X191750952Y-110686904D01*
X191827142Y-110801190D01*
X191903333Y-110877380D01*
X191979523Y-110915476D01*
X190760476Y-111486904D02*
X191217619Y-111486904D01*
X190989047Y-111486904D02*
X190989047Y-110686904D01*
X191065238Y-110801190D01*
X191141428Y-110877380D01*
X191217619Y-110915476D01*
X194748095Y-111486904D02*
X195014761Y-111105952D01*
X195205238Y-111486904D02*
X195205238Y-110686904D01*
X194900476Y-110686904D01*
X194824285Y-110725000D01*
X194786190Y-110763095D01*
X194748095Y-110839285D01*
X194748095Y-110953571D01*
X194786190Y-111029761D01*
X194824285Y-111067857D01*
X194900476Y-111105952D01*
X195205238Y-111105952D01*
X194443333Y-111448809D02*
X194329047Y-111486904D01*
X194138571Y-111486904D01*
X194062380Y-111448809D01*
X194024285Y-111410714D01*
X193986190Y-111334523D01*
X193986190Y-111258333D01*
X194024285Y-111182142D01*
X194062380Y-111144047D01*
X194138571Y-111105952D01*
X194290952Y-111067857D01*
X194367142Y-111029761D01*
X194405238Y-110991666D01*
X194443333Y-110915476D01*
X194443333Y-110839285D01*
X194405238Y-110763095D01*
X194367142Y-110725000D01*
X194290952Y-110686904D01*
X194100476Y-110686904D01*
X193986190Y-110725000D01*
X193757619Y-110686904D02*
X193300476Y-110686904D01*
X193529047Y-111486904D02*
X193529047Y-110686904D01*
X197840476Y-110686904D02*
X197345238Y-110686904D01*
X197611904Y-110991666D01*
X197497619Y-110991666D01*
X197421428Y-111029761D01*
X197383333Y-111067857D01*
X197345238Y-111144047D01*
X197345238Y-111334523D01*
X197383333Y-111410714D01*
X197421428Y-111448809D01*
X197497619Y-111486904D01*
X197726190Y-111486904D01*
X197802380Y-111448809D01*
X197840476Y-111410714D01*
X197116666Y-110686904D02*
X196850000Y-111486904D01*
X196583333Y-110686904D01*
X196392857Y-110686904D02*
X195897619Y-110686904D01*
X196164285Y-110991666D01*
X196050000Y-110991666D01*
X195973809Y-111029761D01*
X195935714Y-111067857D01*
X195897619Y-111144047D01*
X195897619Y-111334523D01*
X195935714Y-111410714D01*
X195973809Y-111448809D01*
X196050000Y-111486904D01*
X196278571Y-111486904D01*
X196354761Y-111448809D01*
X196392857Y-111410714D01*
X199999523Y-110725000D02*
X200075714Y-110686904D01*
X200190000Y-110686904D01*
X200304285Y-110725000D01*
X200380476Y-110801190D01*
X200418571Y-110877380D01*
X200456666Y-111029761D01*
X200456666Y-111144047D01*
X200418571Y-111296428D01*
X200380476Y-111372619D01*
X200304285Y-111448809D01*
X200190000Y-111486904D01*
X200113809Y-111486904D01*
X199999523Y-111448809D01*
X199961428Y-111410714D01*
X199961428Y-111144047D01*
X200113809Y-111144047D01*
X199618571Y-111486904D02*
X199618571Y-110686904D01*
X199161428Y-111486904D01*
X199161428Y-110686904D01*
X198780476Y-111486904D02*
X198780476Y-110686904D01*
X198590000Y-110686904D01*
X198475714Y-110725000D01*
X198399523Y-110801190D01*
X198361428Y-110877380D01*
X198323333Y-111029761D01*
X198323333Y-111144047D01*
X198361428Y-111296428D01*
X198399523Y-111372619D01*
X198475714Y-111448809D01*
X198590000Y-111486904D01*
X198780476Y-111486904D01*
X202539523Y-110725000D02*
X202615714Y-110686904D01*
X202730000Y-110686904D01*
X202844285Y-110725000D01*
X202920476Y-110801190D01*
X202958571Y-110877380D01*
X202996666Y-111029761D01*
X202996666Y-111144047D01*
X202958571Y-111296428D01*
X202920476Y-111372619D01*
X202844285Y-111448809D01*
X202730000Y-111486904D01*
X202653809Y-111486904D01*
X202539523Y-111448809D01*
X202501428Y-111410714D01*
X202501428Y-111144047D01*
X202653809Y-111144047D01*
X202158571Y-111486904D02*
X202158571Y-110686904D01*
X201701428Y-111486904D01*
X201701428Y-110686904D01*
X201320476Y-111486904D02*
X201320476Y-110686904D01*
X201130000Y-110686904D01*
X201015714Y-110725000D01*
X200939523Y-110801190D01*
X200901428Y-110877380D01*
X200863333Y-111029761D01*
X200863333Y-111144047D01*
X200901428Y-111296428D01*
X200939523Y-111372619D01*
X201015714Y-111448809D01*
X201130000Y-111486904D01*
X201320476Y-111486904D01*
X154660476Y-91636904D02*
X154165238Y-91636904D01*
X154431904Y-91941666D01*
X154317619Y-91941666D01*
X154241428Y-91979761D01*
X154203333Y-92017857D01*
X154165238Y-92094047D01*
X154165238Y-92284523D01*
X154203333Y-92360714D01*
X154241428Y-92398809D01*
X154317619Y-92436904D01*
X154546190Y-92436904D01*
X154622380Y-92398809D01*
X154660476Y-92360714D01*
X153936666Y-91636904D02*
X153670000Y-92436904D01*
X153403333Y-91636904D01*
X153212857Y-91636904D02*
X152717619Y-91636904D01*
X152984285Y-91941666D01*
X152870000Y-91941666D01*
X152793809Y-91979761D01*
X152755714Y-92017857D01*
X152717619Y-92094047D01*
X152717619Y-92284523D01*
X152755714Y-92360714D01*
X152793809Y-92398809D01*
X152870000Y-92436904D01*
X153098571Y-92436904D01*
X153174761Y-92398809D01*
X153212857Y-92360714D01*
X156819523Y-91675000D02*
X156895714Y-91636904D01*
X157010000Y-91636904D01*
X157124285Y-91675000D01*
X157200476Y-91751190D01*
X157238571Y-91827380D01*
X157276666Y-91979761D01*
X157276666Y-92094047D01*
X157238571Y-92246428D01*
X157200476Y-92322619D01*
X157124285Y-92398809D01*
X157010000Y-92436904D01*
X156933809Y-92436904D01*
X156819523Y-92398809D01*
X156781428Y-92360714D01*
X156781428Y-92094047D01*
X156933809Y-92094047D01*
X156438571Y-92436904D02*
X156438571Y-91636904D01*
X155981428Y-92436904D01*
X155981428Y-91636904D01*
X155600476Y-92436904D02*
X155600476Y-91636904D01*
X155410000Y-91636904D01*
X155295714Y-91675000D01*
X155219523Y-91751190D01*
X155181428Y-91827380D01*
X155143333Y-91979761D01*
X155143333Y-92094047D01*
X155181428Y-92246428D01*
X155219523Y-92322619D01*
X155295714Y-92398809D01*
X155410000Y-92436904D01*
X155600476Y-92436904D01*
X159416666Y-91636904D02*
X159150000Y-92436904D01*
X158883333Y-91636904D01*
X158350000Y-92017857D02*
X158235714Y-92055952D01*
X158197619Y-92094047D01*
X158159523Y-92170238D01*
X158159523Y-92284523D01*
X158197619Y-92360714D01*
X158235714Y-92398809D01*
X158311904Y-92436904D01*
X158616666Y-92436904D01*
X158616666Y-91636904D01*
X158350000Y-91636904D01*
X158273809Y-91675000D01*
X158235714Y-91713095D01*
X158197619Y-91789285D01*
X158197619Y-91865476D01*
X158235714Y-91941666D01*
X158273809Y-91979761D01*
X158350000Y-92017857D01*
X158616666Y-92017857D01*
X161613809Y-92017857D02*
X161499523Y-92055952D01*
X161461428Y-92094047D01*
X161423333Y-92170238D01*
X161423333Y-92284523D01*
X161461428Y-92360714D01*
X161499523Y-92398809D01*
X161575714Y-92436904D01*
X161880476Y-92436904D01*
X161880476Y-91636904D01*
X161613809Y-91636904D01*
X161537619Y-91675000D01*
X161499523Y-91713095D01*
X161461428Y-91789285D01*
X161461428Y-91865476D01*
X161499523Y-91941666D01*
X161537619Y-91979761D01*
X161613809Y-92017857D01*
X161880476Y-92017857D01*
X161042380Y-92436904D02*
X160890000Y-92436904D01*
X160813809Y-92398809D01*
X160775714Y-92360714D01*
X160699523Y-92246428D01*
X160661428Y-92094047D01*
X160661428Y-91789285D01*
X160699523Y-91713095D01*
X160737619Y-91675000D01*
X160813809Y-91636904D01*
X160966190Y-91636904D01*
X161042380Y-91675000D01*
X161080476Y-91713095D01*
X161118571Y-91789285D01*
X161118571Y-91979761D01*
X161080476Y-92055952D01*
X161042380Y-92094047D01*
X160966190Y-92132142D01*
X160813809Y-92132142D01*
X160737619Y-92094047D01*
X160699523Y-92055952D01*
X160661428Y-91979761D01*
X164153809Y-92017857D02*
X164039523Y-92055952D01*
X164001428Y-92094047D01*
X163963333Y-92170238D01*
X163963333Y-92284523D01*
X164001428Y-92360714D01*
X164039523Y-92398809D01*
X164115714Y-92436904D01*
X164420476Y-92436904D01*
X164420476Y-91636904D01*
X164153809Y-91636904D01*
X164077619Y-91675000D01*
X164039523Y-91713095D01*
X164001428Y-91789285D01*
X164001428Y-91865476D01*
X164039523Y-91941666D01*
X164077619Y-91979761D01*
X164153809Y-92017857D01*
X164420476Y-92017857D01*
X163506190Y-91979761D02*
X163582380Y-91941666D01*
X163620476Y-91903571D01*
X163658571Y-91827380D01*
X163658571Y-91789285D01*
X163620476Y-91713095D01*
X163582380Y-91675000D01*
X163506190Y-91636904D01*
X163353809Y-91636904D01*
X163277619Y-91675000D01*
X163239523Y-91713095D01*
X163201428Y-91789285D01*
X163201428Y-91827380D01*
X163239523Y-91903571D01*
X163277619Y-91941666D01*
X163353809Y-91979761D01*
X163506190Y-91979761D01*
X163582380Y-92017857D01*
X163620476Y-92055952D01*
X163658571Y-92132142D01*
X163658571Y-92284523D01*
X163620476Y-92360714D01*
X163582380Y-92398809D01*
X163506190Y-92436904D01*
X163353809Y-92436904D01*
X163277619Y-92398809D01*
X163239523Y-92360714D01*
X163201428Y-92284523D01*
X163201428Y-92132142D01*
X163239523Y-92055952D01*
X163277619Y-92017857D01*
X163353809Y-91979761D01*
X166693809Y-92017857D02*
X166579523Y-92055952D01*
X166541428Y-92094047D01*
X166503333Y-92170238D01*
X166503333Y-92284523D01*
X166541428Y-92360714D01*
X166579523Y-92398809D01*
X166655714Y-92436904D01*
X166960476Y-92436904D01*
X166960476Y-91636904D01*
X166693809Y-91636904D01*
X166617619Y-91675000D01*
X166579523Y-91713095D01*
X166541428Y-91789285D01*
X166541428Y-91865476D01*
X166579523Y-91941666D01*
X166617619Y-91979761D01*
X166693809Y-92017857D01*
X166960476Y-92017857D01*
X166236666Y-91636904D02*
X165703333Y-91636904D01*
X166046190Y-92436904D01*
X169233809Y-92017857D02*
X169119523Y-92055952D01*
X169081428Y-92094047D01*
X169043333Y-92170238D01*
X169043333Y-92284523D01*
X169081428Y-92360714D01*
X169119523Y-92398809D01*
X169195714Y-92436904D01*
X169500476Y-92436904D01*
X169500476Y-91636904D01*
X169233809Y-91636904D01*
X169157619Y-91675000D01*
X169119523Y-91713095D01*
X169081428Y-91789285D01*
X169081428Y-91865476D01*
X169119523Y-91941666D01*
X169157619Y-91979761D01*
X169233809Y-92017857D01*
X169500476Y-92017857D01*
X168357619Y-91636904D02*
X168510000Y-91636904D01*
X168586190Y-91675000D01*
X168624285Y-91713095D01*
X168700476Y-91827380D01*
X168738571Y-91979761D01*
X168738571Y-92284523D01*
X168700476Y-92360714D01*
X168662380Y-92398809D01*
X168586190Y-92436904D01*
X168433809Y-92436904D01*
X168357619Y-92398809D01*
X168319523Y-92360714D01*
X168281428Y-92284523D01*
X168281428Y-92094047D01*
X168319523Y-92017857D01*
X168357619Y-91979761D01*
X168433809Y-91941666D01*
X168586190Y-91941666D01*
X168662380Y-91979761D01*
X168700476Y-92017857D01*
X168738571Y-92094047D01*
X171773809Y-92017857D02*
X171659523Y-92055952D01*
X171621428Y-92094047D01*
X171583333Y-92170238D01*
X171583333Y-92284523D01*
X171621428Y-92360714D01*
X171659523Y-92398809D01*
X171735714Y-92436904D01*
X172040476Y-92436904D01*
X172040476Y-91636904D01*
X171773809Y-91636904D01*
X171697619Y-91675000D01*
X171659523Y-91713095D01*
X171621428Y-91789285D01*
X171621428Y-91865476D01*
X171659523Y-91941666D01*
X171697619Y-91979761D01*
X171773809Y-92017857D01*
X172040476Y-92017857D01*
X170859523Y-91636904D02*
X171240476Y-91636904D01*
X171278571Y-92017857D01*
X171240476Y-91979761D01*
X171164285Y-91941666D01*
X170973809Y-91941666D01*
X170897619Y-91979761D01*
X170859523Y-92017857D01*
X170821428Y-92094047D01*
X170821428Y-92284523D01*
X170859523Y-92360714D01*
X170897619Y-92398809D01*
X170973809Y-92436904D01*
X171164285Y-92436904D01*
X171240476Y-92398809D01*
X171278571Y-92360714D01*
X174313809Y-92017857D02*
X174199523Y-92055952D01*
X174161428Y-92094047D01*
X174123333Y-92170238D01*
X174123333Y-92284523D01*
X174161428Y-92360714D01*
X174199523Y-92398809D01*
X174275714Y-92436904D01*
X174580476Y-92436904D01*
X174580476Y-91636904D01*
X174313809Y-91636904D01*
X174237619Y-91675000D01*
X174199523Y-91713095D01*
X174161428Y-91789285D01*
X174161428Y-91865476D01*
X174199523Y-91941666D01*
X174237619Y-91979761D01*
X174313809Y-92017857D01*
X174580476Y-92017857D01*
X173437619Y-91903571D02*
X173437619Y-92436904D01*
X173628095Y-91598809D02*
X173818571Y-92170238D01*
X173323333Y-92170238D01*
X176853809Y-92017857D02*
X176739523Y-92055952D01*
X176701428Y-92094047D01*
X176663333Y-92170238D01*
X176663333Y-92284523D01*
X176701428Y-92360714D01*
X176739523Y-92398809D01*
X176815714Y-92436904D01*
X177120476Y-92436904D01*
X177120476Y-91636904D01*
X176853809Y-91636904D01*
X176777619Y-91675000D01*
X176739523Y-91713095D01*
X176701428Y-91789285D01*
X176701428Y-91865476D01*
X176739523Y-91941666D01*
X176777619Y-91979761D01*
X176853809Y-92017857D01*
X177120476Y-92017857D01*
X176396666Y-91636904D02*
X175901428Y-91636904D01*
X176168095Y-91941666D01*
X176053809Y-91941666D01*
X175977619Y-91979761D01*
X175939523Y-92017857D01*
X175901428Y-92094047D01*
X175901428Y-92284523D01*
X175939523Y-92360714D01*
X175977619Y-92398809D01*
X176053809Y-92436904D01*
X176282380Y-92436904D01*
X176358571Y-92398809D01*
X176396666Y-92360714D01*
X180022380Y-92208333D02*
X179641428Y-92208333D01*
X180098571Y-92436904D02*
X179831904Y-91636904D01*
X179565238Y-92436904D01*
X178879523Y-92436904D02*
X179336666Y-92436904D01*
X179108095Y-92436904D02*
X179108095Y-91636904D01*
X179184285Y-91751190D01*
X179260476Y-91827380D01*
X179336666Y-91865476D01*
X178155714Y-91636904D02*
X178536666Y-91636904D01*
X178574761Y-92017857D01*
X178536666Y-91979761D01*
X178460476Y-91941666D01*
X178270000Y-91941666D01*
X178193809Y-91979761D01*
X178155714Y-92017857D01*
X178117619Y-92094047D01*
X178117619Y-92284523D01*
X178155714Y-92360714D01*
X178193809Y-92398809D01*
X178270000Y-92436904D01*
X178460476Y-92436904D01*
X178536666Y-92398809D01*
X178574761Y-92360714D01*
X182562380Y-92208333D02*
X182181428Y-92208333D01*
X182638571Y-92436904D02*
X182371904Y-91636904D01*
X182105238Y-92436904D01*
X181419523Y-92436904D02*
X181876666Y-92436904D01*
X181648095Y-92436904D02*
X181648095Y-91636904D01*
X181724285Y-91751190D01*
X181800476Y-91827380D01*
X181876666Y-91865476D01*
X181114761Y-91713095D02*
X181076666Y-91675000D01*
X181000476Y-91636904D01*
X180810000Y-91636904D01*
X180733809Y-91675000D01*
X180695714Y-91713095D01*
X180657619Y-91789285D01*
X180657619Y-91865476D01*
X180695714Y-91979761D01*
X181152857Y-92436904D01*
X180657619Y-92436904D01*
X185102380Y-92208333D02*
X184721428Y-92208333D01*
X185178571Y-92436904D02*
X184911904Y-91636904D01*
X184645238Y-92436904D01*
X183959523Y-92436904D02*
X184416666Y-92436904D01*
X184188095Y-92436904D02*
X184188095Y-91636904D01*
X184264285Y-91751190D01*
X184340476Y-91827380D01*
X184416666Y-91865476D01*
X183197619Y-92436904D02*
X183654761Y-92436904D01*
X183426190Y-92436904D02*
X183426190Y-91636904D01*
X183502380Y-91751190D01*
X183578571Y-91827380D01*
X183654761Y-91865476D01*
X187642380Y-92208333D02*
X187261428Y-92208333D01*
X187718571Y-92436904D02*
X187451904Y-91636904D01*
X187185238Y-92436904D01*
X186499523Y-92436904D02*
X186956666Y-92436904D01*
X186728095Y-92436904D02*
X186728095Y-91636904D01*
X186804285Y-91751190D01*
X186880476Y-91827380D01*
X186956666Y-91865476D01*
X186004285Y-91636904D02*
X185928095Y-91636904D01*
X185851904Y-91675000D01*
X185813809Y-91713095D01*
X185775714Y-91789285D01*
X185737619Y-91941666D01*
X185737619Y-92132142D01*
X185775714Y-92284523D01*
X185813809Y-92360714D01*
X185851904Y-92398809D01*
X185928095Y-92436904D01*
X186004285Y-92436904D01*
X186080476Y-92398809D01*
X186118571Y-92360714D01*
X186156666Y-92284523D01*
X186194761Y-92132142D01*
X186194761Y-91941666D01*
X186156666Y-91789285D01*
X186118571Y-91713095D01*
X186080476Y-91675000D01*
X186004285Y-91636904D01*
X189801428Y-92208333D02*
X189420476Y-92208333D01*
X189877619Y-92436904D02*
X189610952Y-91636904D01*
X189344285Y-92436904D01*
X189039523Y-92436904D02*
X188887142Y-92436904D01*
X188810952Y-92398809D01*
X188772857Y-92360714D01*
X188696666Y-92246428D01*
X188658571Y-92094047D01*
X188658571Y-91789285D01*
X188696666Y-91713095D01*
X188734761Y-91675000D01*
X188810952Y-91636904D01*
X188963333Y-91636904D01*
X189039523Y-91675000D01*
X189077619Y-91713095D01*
X189115714Y-91789285D01*
X189115714Y-91979761D01*
X189077619Y-92055952D01*
X189039523Y-92094047D01*
X188963333Y-92132142D01*
X188810952Y-92132142D01*
X188734761Y-92094047D01*
X188696666Y-92055952D01*
X188658571Y-91979761D01*
X192341428Y-92208333D02*
X191960476Y-92208333D01*
X192417619Y-92436904D02*
X192150952Y-91636904D01*
X191884285Y-92436904D01*
X191503333Y-91979761D02*
X191579523Y-91941666D01*
X191617619Y-91903571D01*
X191655714Y-91827380D01*
X191655714Y-91789285D01*
X191617619Y-91713095D01*
X191579523Y-91675000D01*
X191503333Y-91636904D01*
X191350952Y-91636904D01*
X191274761Y-91675000D01*
X191236666Y-91713095D01*
X191198571Y-91789285D01*
X191198571Y-91827380D01*
X191236666Y-91903571D01*
X191274761Y-91941666D01*
X191350952Y-91979761D01*
X191503333Y-91979761D01*
X191579523Y-92017857D01*
X191617619Y-92055952D01*
X191655714Y-92132142D01*
X191655714Y-92284523D01*
X191617619Y-92360714D01*
X191579523Y-92398809D01*
X191503333Y-92436904D01*
X191350952Y-92436904D01*
X191274761Y-92398809D01*
X191236666Y-92360714D01*
X191198571Y-92284523D01*
X191198571Y-92132142D01*
X191236666Y-92055952D01*
X191274761Y-92017857D01*
X191350952Y-91979761D01*
X195014761Y-92017857D02*
X194900476Y-92055952D01*
X194862380Y-92094047D01*
X194824285Y-92170238D01*
X194824285Y-92284523D01*
X194862380Y-92360714D01*
X194900476Y-92398809D01*
X194976666Y-92436904D01*
X195281428Y-92436904D01*
X195281428Y-91636904D01*
X195014761Y-91636904D01*
X194938571Y-91675000D01*
X194900476Y-91713095D01*
X194862380Y-91789285D01*
X194862380Y-91865476D01*
X194900476Y-91941666D01*
X194938571Y-91979761D01*
X195014761Y-92017857D01*
X195281428Y-92017857D01*
X194062380Y-92436904D02*
X194519523Y-92436904D01*
X194290952Y-92436904D02*
X194290952Y-91636904D01*
X194367142Y-91751190D01*
X194443333Y-91827380D01*
X194519523Y-91865476D01*
X193338571Y-91636904D02*
X193719523Y-91636904D01*
X193757619Y-92017857D01*
X193719523Y-91979761D01*
X193643333Y-91941666D01*
X193452857Y-91941666D01*
X193376666Y-91979761D01*
X193338571Y-92017857D01*
X193300476Y-92094047D01*
X193300476Y-92284523D01*
X193338571Y-92360714D01*
X193376666Y-92398809D01*
X193452857Y-92436904D01*
X193643333Y-92436904D01*
X193719523Y-92398809D01*
X193757619Y-92360714D01*
X197554761Y-92017857D02*
X197440476Y-92055952D01*
X197402380Y-92094047D01*
X197364285Y-92170238D01*
X197364285Y-92284523D01*
X197402380Y-92360714D01*
X197440476Y-92398809D01*
X197516666Y-92436904D01*
X197821428Y-92436904D01*
X197821428Y-91636904D01*
X197554761Y-91636904D01*
X197478571Y-91675000D01*
X197440476Y-91713095D01*
X197402380Y-91789285D01*
X197402380Y-91865476D01*
X197440476Y-91941666D01*
X197478571Y-91979761D01*
X197554761Y-92017857D01*
X197821428Y-92017857D01*
X196602380Y-92436904D02*
X197059523Y-92436904D01*
X196830952Y-92436904D02*
X196830952Y-91636904D01*
X196907142Y-91751190D01*
X196983333Y-91827380D01*
X197059523Y-91865476D01*
X195916666Y-91903571D02*
X195916666Y-92436904D01*
X196107142Y-91598809D02*
X196297619Y-92170238D01*
X195802380Y-92170238D01*
X200094761Y-92017857D02*
X199980476Y-92055952D01*
X199942380Y-92094047D01*
X199904285Y-92170238D01*
X199904285Y-92284523D01*
X199942380Y-92360714D01*
X199980476Y-92398809D01*
X200056666Y-92436904D01*
X200361428Y-92436904D01*
X200361428Y-91636904D01*
X200094761Y-91636904D01*
X200018571Y-91675000D01*
X199980476Y-91713095D01*
X199942380Y-91789285D01*
X199942380Y-91865476D01*
X199980476Y-91941666D01*
X200018571Y-91979761D01*
X200094761Y-92017857D01*
X200361428Y-92017857D01*
X199142380Y-92436904D02*
X199599523Y-92436904D01*
X199370952Y-92436904D02*
X199370952Y-91636904D01*
X199447142Y-91751190D01*
X199523333Y-91827380D01*
X199599523Y-91865476D01*
X198875714Y-91636904D02*
X198380476Y-91636904D01*
X198647142Y-91941666D01*
X198532857Y-91941666D01*
X198456666Y-91979761D01*
X198418571Y-92017857D01*
X198380476Y-92094047D01*
X198380476Y-92284523D01*
X198418571Y-92360714D01*
X198456666Y-92398809D01*
X198532857Y-92436904D01*
X198761428Y-92436904D01*
X198837619Y-92398809D01*
X198875714Y-92360714D01*
X202634761Y-92017857D02*
X202520476Y-92055952D01*
X202482380Y-92094047D01*
X202444285Y-92170238D01*
X202444285Y-92284523D01*
X202482380Y-92360714D01*
X202520476Y-92398809D01*
X202596666Y-92436904D01*
X202901428Y-92436904D01*
X202901428Y-91636904D01*
X202634761Y-91636904D01*
X202558571Y-91675000D01*
X202520476Y-91713095D01*
X202482380Y-91789285D01*
X202482380Y-91865476D01*
X202520476Y-91941666D01*
X202558571Y-91979761D01*
X202634761Y-92017857D01*
X202901428Y-92017857D01*
X201682380Y-92436904D02*
X202139523Y-92436904D01*
X201910952Y-92436904D02*
X201910952Y-91636904D01*
X201987142Y-91751190D01*
X202063333Y-91827380D01*
X202139523Y-91865476D01*
X201377619Y-91713095D02*
X201339523Y-91675000D01*
X201263333Y-91636904D01*
X201072857Y-91636904D01*
X200996666Y-91675000D01*
X200958571Y-91713095D01*
X200920476Y-91789285D01*
X200920476Y-91865476D01*
X200958571Y-91979761D01*
X201415714Y-92436904D01*
X200920476Y-92436904D01*
X192485357Y-96422857D02*
X192371071Y-96460952D01*
X192332976Y-96499047D01*
X192294880Y-96575238D01*
X192294880Y-96689523D01*
X192332976Y-96765714D01*
X192371071Y-96803809D01*
X192447261Y-96841904D01*
X192752023Y-96841904D01*
X192752023Y-96041904D01*
X192485357Y-96041904D01*
X192409166Y-96080000D01*
X192371071Y-96118095D01*
X192332976Y-96194285D01*
X192332976Y-96270476D01*
X192371071Y-96346666D01*
X192409166Y-96384761D01*
X192485357Y-96422857D01*
X192752023Y-96422857D01*
X191837738Y-96841904D02*
X191913928Y-96803809D01*
X191952023Y-96727619D01*
X191952023Y-96041904D01*
X191190119Y-96841904D02*
X191190119Y-96422857D01*
X191228214Y-96346666D01*
X191304404Y-96308571D01*
X191456785Y-96308571D01*
X191532976Y-96346666D01*
X191190119Y-96803809D02*
X191266309Y-96841904D01*
X191456785Y-96841904D01*
X191532976Y-96803809D01*
X191571071Y-96727619D01*
X191571071Y-96651428D01*
X191532976Y-96575238D01*
X191456785Y-96537142D01*
X191266309Y-96537142D01*
X191190119Y-96499047D01*
X190466309Y-96803809D02*
X190542500Y-96841904D01*
X190694880Y-96841904D01*
X190771071Y-96803809D01*
X190809166Y-96765714D01*
X190847261Y-96689523D01*
X190847261Y-96460952D01*
X190809166Y-96384761D01*
X190771071Y-96346666D01*
X190694880Y-96308571D01*
X190542500Y-96308571D01*
X190466309Y-96346666D01*
X190123452Y-96841904D02*
X190123452Y-96041904D01*
X190047261Y-96537142D02*
X189818690Y-96841904D01*
X189818690Y-96308571D02*
X190123452Y-96613333D01*
X188866309Y-96841904D02*
X188866309Y-96041904D01*
X188561547Y-96041904D01*
X188485357Y-96080000D01*
X188447261Y-96118095D01*
X188409166Y-96194285D01*
X188409166Y-96308571D01*
X188447261Y-96384761D01*
X188485357Y-96422857D01*
X188561547Y-96460952D01*
X188866309Y-96460952D01*
X188066309Y-96841904D02*
X188066309Y-96308571D01*
X188066309Y-96041904D02*
X188104404Y-96080000D01*
X188066309Y-96118095D01*
X188028214Y-96080000D01*
X188066309Y-96041904D01*
X188066309Y-96118095D01*
X187571071Y-96841904D02*
X187647261Y-96803809D01*
X187685357Y-96727619D01*
X187685357Y-96041904D01*
X187152023Y-96841904D02*
X187228214Y-96803809D01*
X187266309Y-96727619D01*
X187266309Y-96041904D01*
X185971071Y-96422857D02*
X185856785Y-96460952D01*
X185818690Y-96499047D01*
X185780595Y-96575238D01*
X185780595Y-96689523D01*
X185818690Y-96765714D01*
X185856785Y-96803809D01*
X185932976Y-96841904D01*
X186237738Y-96841904D01*
X186237738Y-96041904D01*
X185971071Y-96041904D01*
X185894880Y-96080000D01*
X185856785Y-96118095D01*
X185818690Y-96194285D01*
X185818690Y-96270476D01*
X185856785Y-96346666D01*
X185894880Y-96384761D01*
X185971071Y-96422857D01*
X186237738Y-96422857D01*
X185437738Y-96841904D02*
X185437738Y-96308571D01*
X185437738Y-96041904D02*
X185475833Y-96080000D01*
X185437738Y-96118095D01*
X185399642Y-96080000D01*
X185437738Y-96041904D01*
X185437738Y-96118095D01*
X185094880Y-96803809D02*
X185018690Y-96841904D01*
X184866309Y-96841904D01*
X184790119Y-96803809D01*
X184752023Y-96727619D01*
X184752023Y-96689523D01*
X184790119Y-96613333D01*
X184866309Y-96575238D01*
X184980595Y-96575238D01*
X185056785Y-96537142D01*
X185094880Y-96460952D01*
X185094880Y-96422857D01*
X185056785Y-96346666D01*
X184980595Y-96308571D01*
X184866309Y-96308571D01*
X184790119Y-96346666D01*
X192752023Y-98191904D02*
X192752023Y-97658571D01*
X192752023Y-97810952D02*
X192713928Y-97734761D01*
X192675833Y-97696666D01*
X192599642Y-97658571D01*
X192523452Y-97658571D01*
X191952023Y-98153809D02*
X192028214Y-98191904D01*
X192180595Y-98191904D01*
X192256785Y-98153809D01*
X192294880Y-98077619D01*
X192294880Y-97772857D01*
X192256785Y-97696666D01*
X192180595Y-97658571D01*
X192028214Y-97658571D01*
X191952023Y-97696666D01*
X191913928Y-97772857D01*
X191913928Y-97849047D01*
X192294880Y-97925238D01*
X191647261Y-97658571D02*
X191456785Y-98191904D01*
X191266309Y-97658571D01*
X190961547Y-98115714D02*
X190923452Y-98153809D01*
X190961547Y-98191904D01*
X190999642Y-98153809D01*
X190961547Y-98115714D01*
X190961547Y-98191904D01*
X189628214Y-98191904D02*
X189628214Y-97772857D01*
X189666309Y-97696666D01*
X189742500Y-97658571D01*
X189894880Y-97658571D01*
X189971071Y-97696666D01*
X189628214Y-98153809D02*
X189704404Y-98191904D01*
X189894880Y-98191904D01*
X189971071Y-98153809D01*
X190009166Y-98077619D01*
X190009166Y-98001428D01*
X189971071Y-97925238D01*
X189894880Y-97887142D01*
X189704404Y-97887142D01*
X189628214Y-97849047D01*
D11*
%TO.C,J3*%
X203260000Y-92650000D02*
X203260000Y-95310000D01*
X154940000Y-92650000D02*
X203260000Y-92650000D01*
X154940000Y-95310000D02*
X203260000Y-95310000D01*
X154940000Y-92650000D02*
X154940000Y-95310000D01*
X153670000Y-92650000D02*
X152340000Y-92650000D01*
X152340000Y-92650000D02*
X152340000Y-93980000D01*
%TO.C,J2*%
X203260000Y-107890000D02*
X203260000Y-110550000D01*
X154940000Y-107890000D02*
X203260000Y-107890000D01*
X154940000Y-110550000D02*
X203260000Y-110550000D01*
X154940000Y-107890000D02*
X154940000Y-110550000D01*
X153670000Y-107890000D02*
X152340000Y-107890000D01*
X152340000Y-107890000D02*
X152340000Y-109220000D01*
%TD*%
M02*
