%TF.GenerationSoftware,KiCad,Pcbnew,5.1.6+dfsg1-1*%
%TF.CreationDate,2020-06-27T09:06:45+08:00*%
%TF.ProjectId,stm32devmini,73746d33-3264-4657-966d-696e692e6b69,a*%
%TF.SameCoordinates,Original*%
%TF.FileFunction,Legend,Top*%
%TF.FilePolarity,Positive*%
%FSLAX46Y46*%
G04 Gerber Fmt 4.6, Leading zero omitted, Abs format (unit mm)*
G04 Created by KiCad (PCBNEW 5.1.6+dfsg1-1) date 2020-06-27 09:06:45*
%MOMM*%
%LPD*%
G01*
G04 APERTURE LIST*
%ADD10C,0.150000*%
%ADD11C,0.120000*%
G04 APERTURE END LIST*
D10*
X152679523Y-92017904D02*
X153174761Y-92017904D01*
X152908095Y-92322666D01*
X153022380Y-92322666D01*
X153098571Y-92360761D01*
X153136666Y-92398857D01*
X153174761Y-92475047D01*
X153174761Y-92665523D01*
X153136666Y-92741714D01*
X153098571Y-92779809D01*
X153022380Y-92817904D01*
X152793809Y-92817904D01*
X152717619Y-92779809D01*
X152679523Y-92741714D01*
X153403333Y-92017904D02*
X153670000Y-92817904D01*
X153936666Y-92017904D01*
X154127142Y-92017904D02*
X154622380Y-92017904D01*
X154355714Y-92322666D01*
X154470000Y-92322666D01*
X154546190Y-92360761D01*
X154584285Y-92398857D01*
X154622380Y-92475047D01*
X154622380Y-92665523D01*
X154584285Y-92741714D01*
X154546190Y-92779809D01*
X154470000Y-92817904D01*
X154241428Y-92817904D01*
X154165238Y-92779809D01*
X154127142Y-92741714D01*
X155600476Y-92056000D02*
X155524285Y-92017904D01*
X155410000Y-92017904D01*
X155295714Y-92056000D01*
X155219523Y-92132190D01*
X155181428Y-92208380D01*
X155143333Y-92360761D01*
X155143333Y-92475047D01*
X155181428Y-92627428D01*
X155219523Y-92703619D01*
X155295714Y-92779809D01*
X155410000Y-92817904D01*
X155486190Y-92817904D01*
X155600476Y-92779809D01*
X155638571Y-92741714D01*
X155638571Y-92475047D01*
X155486190Y-92475047D01*
X155981428Y-92817904D02*
X155981428Y-92017904D01*
X156438571Y-92817904D01*
X156438571Y-92017904D01*
X156819523Y-92817904D02*
X156819523Y-92017904D01*
X157010000Y-92017904D01*
X157124285Y-92056000D01*
X157200476Y-92132190D01*
X157238571Y-92208380D01*
X157276666Y-92360761D01*
X157276666Y-92475047D01*
X157238571Y-92627428D01*
X157200476Y-92703619D01*
X157124285Y-92779809D01*
X157010000Y-92817904D01*
X156819523Y-92817904D01*
X158083333Y-92017904D02*
X158350000Y-92817904D01*
X158616666Y-92017904D01*
X159150000Y-92398857D02*
X159264285Y-92436952D01*
X159302380Y-92475047D01*
X159340476Y-92551238D01*
X159340476Y-92665523D01*
X159302380Y-92741714D01*
X159264285Y-92779809D01*
X159188095Y-92817904D01*
X158883333Y-92817904D01*
X158883333Y-92017904D01*
X159150000Y-92017904D01*
X159226190Y-92056000D01*
X159264285Y-92094095D01*
X159302380Y-92170285D01*
X159302380Y-92246476D01*
X159264285Y-92322666D01*
X159226190Y-92360761D01*
X159150000Y-92398857D01*
X158883333Y-92398857D01*
X201320476Y-110598000D02*
X201244285Y-110559904D01*
X201130000Y-110559904D01*
X201015714Y-110598000D01*
X200939523Y-110674190D01*
X200901428Y-110750380D01*
X200863333Y-110902761D01*
X200863333Y-111017047D01*
X200901428Y-111169428D01*
X200939523Y-111245619D01*
X201015714Y-111321809D01*
X201130000Y-111359904D01*
X201206190Y-111359904D01*
X201320476Y-111321809D01*
X201358571Y-111283714D01*
X201358571Y-111017047D01*
X201206190Y-111017047D01*
X201701428Y-111359904D02*
X201701428Y-110559904D01*
X202158571Y-111359904D01*
X202158571Y-110559904D01*
X202539523Y-111359904D02*
X202539523Y-110559904D01*
X202730000Y-110559904D01*
X202844285Y-110598000D01*
X202920476Y-110674190D01*
X202958571Y-110750380D01*
X202996666Y-110902761D01*
X202996666Y-111017047D01*
X202958571Y-111169428D01*
X202920476Y-111245619D01*
X202844285Y-111321809D01*
X202730000Y-111359904D01*
X202539523Y-111359904D01*
X198780476Y-110598000D02*
X198704285Y-110559904D01*
X198590000Y-110559904D01*
X198475714Y-110598000D01*
X198399523Y-110674190D01*
X198361428Y-110750380D01*
X198323333Y-110902761D01*
X198323333Y-111017047D01*
X198361428Y-111169428D01*
X198399523Y-111245619D01*
X198475714Y-111321809D01*
X198590000Y-111359904D01*
X198666190Y-111359904D01*
X198780476Y-111321809D01*
X198818571Y-111283714D01*
X198818571Y-111017047D01*
X198666190Y-111017047D01*
X199161428Y-111359904D02*
X199161428Y-110559904D01*
X199618571Y-111359904D01*
X199618571Y-110559904D01*
X199999523Y-111359904D02*
X199999523Y-110559904D01*
X200190000Y-110559904D01*
X200304285Y-110598000D01*
X200380476Y-110674190D01*
X200418571Y-110750380D01*
X200456666Y-110902761D01*
X200456666Y-111017047D01*
X200418571Y-111169428D01*
X200380476Y-111245619D01*
X200304285Y-111321809D01*
X200190000Y-111359904D01*
X199999523Y-111359904D01*
X195859523Y-110559904D02*
X196354761Y-110559904D01*
X196088095Y-110864666D01*
X196202380Y-110864666D01*
X196278571Y-110902761D01*
X196316666Y-110940857D01*
X196354761Y-111017047D01*
X196354761Y-111207523D01*
X196316666Y-111283714D01*
X196278571Y-111321809D01*
X196202380Y-111359904D01*
X195973809Y-111359904D01*
X195897619Y-111321809D01*
X195859523Y-111283714D01*
X196583333Y-110559904D02*
X196850000Y-111359904D01*
X197116666Y-110559904D01*
X197307142Y-110559904D02*
X197802380Y-110559904D01*
X197535714Y-110864666D01*
X197650000Y-110864666D01*
X197726190Y-110902761D01*
X197764285Y-110940857D01*
X197802380Y-111017047D01*
X197802380Y-111207523D01*
X197764285Y-111283714D01*
X197726190Y-111321809D01*
X197650000Y-111359904D01*
X197421428Y-111359904D01*
X197345238Y-111321809D01*
X197307142Y-111283714D01*
X193871904Y-111359904D02*
X193605238Y-110978952D01*
X193414761Y-111359904D02*
X193414761Y-110559904D01*
X193719523Y-110559904D01*
X193795714Y-110598000D01*
X193833809Y-110636095D01*
X193871904Y-110712285D01*
X193871904Y-110826571D01*
X193833809Y-110902761D01*
X193795714Y-110940857D01*
X193719523Y-110978952D01*
X193414761Y-110978952D01*
X194176666Y-111321809D02*
X194290952Y-111359904D01*
X194481428Y-111359904D01*
X194557619Y-111321809D01*
X194595714Y-111283714D01*
X194633809Y-111207523D01*
X194633809Y-111131333D01*
X194595714Y-111055142D01*
X194557619Y-111017047D01*
X194481428Y-110978952D01*
X194329047Y-110940857D01*
X194252857Y-110902761D01*
X194214761Y-110864666D01*
X194176666Y-110788476D01*
X194176666Y-110712285D01*
X194214761Y-110636095D01*
X194252857Y-110598000D01*
X194329047Y-110559904D01*
X194519523Y-110559904D01*
X194633809Y-110598000D01*
X194862380Y-110559904D02*
X195319523Y-110559904D01*
X195090952Y-111359904D02*
X195090952Y-110559904D01*
X191065238Y-110940857D02*
X191179523Y-110978952D01*
X191217619Y-111017047D01*
X191255714Y-111093238D01*
X191255714Y-111207523D01*
X191217619Y-111283714D01*
X191179523Y-111321809D01*
X191103333Y-111359904D01*
X190798571Y-111359904D01*
X190798571Y-110559904D01*
X191065238Y-110559904D01*
X191141428Y-110598000D01*
X191179523Y-110636095D01*
X191217619Y-110712285D01*
X191217619Y-110788476D01*
X191179523Y-110864666D01*
X191141428Y-110902761D01*
X191065238Y-110940857D01*
X190798571Y-110940857D01*
X192017619Y-111359904D02*
X191560476Y-111359904D01*
X191789047Y-111359904D02*
X191789047Y-110559904D01*
X191712857Y-110674190D01*
X191636666Y-110750380D01*
X191560476Y-110788476D01*
X192779523Y-111359904D02*
X192322380Y-111359904D01*
X192550952Y-111359904D02*
X192550952Y-110559904D01*
X192474761Y-110674190D01*
X192398571Y-110750380D01*
X192322380Y-110788476D01*
X188525238Y-110940857D02*
X188639523Y-110978952D01*
X188677619Y-111017047D01*
X188715714Y-111093238D01*
X188715714Y-111207523D01*
X188677619Y-111283714D01*
X188639523Y-111321809D01*
X188563333Y-111359904D01*
X188258571Y-111359904D01*
X188258571Y-110559904D01*
X188525238Y-110559904D01*
X188601428Y-110598000D01*
X188639523Y-110636095D01*
X188677619Y-110712285D01*
X188677619Y-110788476D01*
X188639523Y-110864666D01*
X188601428Y-110902761D01*
X188525238Y-110940857D01*
X188258571Y-110940857D01*
X189477619Y-111359904D02*
X189020476Y-111359904D01*
X189249047Y-111359904D02*
X189249047Y-110559904D01*
X189172857Y-110674190D01*
X189096666Y-110750380D01*
X189020476Y-110788476D01*
X189972857Y-110559904D02*
X190049047Y-110559904D01*
X190125238Y-110598000D01*
X190163333Y-110636095D01*
X190201428Y-110712285D01*
X190239523Y-110864666D01*
X190239523Y-111055142D01*
X190201428Y-111207523D01*
X190163333Y-111283714D01*
X190125238Y-111321809D01*
X190049047Y-111359904D01*
X189972857Y-111359904D01*
X189896666Y-111321809D01*
X189858571Y-111283714D01*
X189820476Y-111207523D01*
X189782380Y-111055142D01*
X189782380Y-110864666D01*
X189820476Y-110712285D01*
X189858571Y-110636095D01*
X189896666Y-110598000D01*
X189972857Y-110559904D01*
X186366190Y-110940857D02*
X186480476Y-110978952D01*
X186518571Y-111017047D01*
X186556666Y-111093238D01*
X186556666Y-111207523D01*
X186518571Y-111283714D01*
X186480476Y-111321809D01*
X186404285Y-111359904D01*
X186099523Y-111359904D01*
X186099523Y-110559904D01*
X186366190Y-110559904D01*
X186442380Y-110598000D01*
X186480476Y-110636095D01*
X186518571Y-110712285D01*
X186518571Y-110788476D01*
X186480476Y-110864666D01*
X186442380Y-110902761D01*
X186366190Y-110940857D01*
X186099523Y-110940857D01*
X187318571Y-111359904D02*
X186861428Y-111359904D01*
X187090000Y-111359904D02*
X187090000Y-110559904D01*
X187013809Y-110674190D01*
X186937619Y-110750380D01*
X186861428Y-110788476D01*
X183826190Y-110940857D02*
X183940476Y-110978952D01*
X183978571Y-111017047D01*
X184016666Y-111093238D01*
X184016666Y-111207523D01*
X183978571Y-111283714D01*
X183940476Y-111321809D01*
X183864285Y-111359904D01*
X183559523Y-111359904D01*
X183559523Y-110559904D01*
X183826190Y-110559904D01*
X183902380Y-110598000D01*
X183940476Y-110636095D01*
X183978571Y-110712285D01*
X183978571Y-110788476D01*
X183940476Y-110864666D01*
X183902380Y-110902761D01*
X183826190Y-110940857D01*
X183559523Y-110940857D01*
X184511904Y-110559904D02*
X184588095Y-110559904D01*
X184664285Y-110598000D01*
X184702380Y-110636095D01*
X184740476Y-110712285D01*
X184778571Y-110864666D01*
X184778571Y-111055142D01*
X184740476Y-111207523D01*
X184702380Y-111283714D01*
X184664285Y-111321809D01*
X184588095Y-111359904D01*
X184511904Y-111359904D01*
X184435714Y-111321809D01*
X184397619Y-111283714D01*
X184359523Y-111207523D01*
X184321428Y-111055142D01*
X184321428Y-110864666D01*
X184359523Y-110712285D01*
X184397619Y-110636095D01*
X184435714Y-110598000D01*
X184511904Y-110559904D01*
X181038571Y-111131333D02*
X181419523Y-111131333D01*
X180962380Y-111359904D02*
X181229047Y-110559904D01*
X181495714Y-111359904D01*
X181686190Y-110559904D02*
X182219523Y-110559904D01*
X181876666Y-111359904D01*
X178498571Y-111131333D02*
X178879523Y-111131333D01*
X178422380Y-111359904D02*
X178689047Y-110559904D01*
X178955714Y-111359904D01*
X179565238Y-110559904D02*
X179412857Y-110559904D01*
X179336666Y-110598000D01*
X179298571Y-110636095D01*
X179222380Y-110750380D01*
X179184285Y-110902761D01*
X179184285Y-111207523D01*
X179222380Y-111283714D01*
X179260476Y-111321809D01*
X179336666Y-111359904D01*
X179489047Y-111359904D01*
X179565238Y-111321809D01*
X179603333Y-111283714D01*
X179641428Y-111207523D01*
X179641428Y-111017047D01*
X179603333Y-110940857D01*
X179565238Y-110902761D01*
X179489047Y-110864666D01*
X179336666Y-110864666D01*
X179260476Y-110902761D01*
X179222380Y-110940857D01*
X179184285Y-111017047D01*
X175958571Y-111131333D02*
X176339523Y-111131333D01*
X175882380Y-111359904D02*
X176149047Y-110559904D01*
X176415714Y-111359904D01*
X177063333Y-110559904D02*
X176682380Y-110559904D01*
X176644285Y-110940857D01*
X176682380Y-110902761D01*
X176758571Y-110864666D01*
X176949047Y-110864666D01*
X177025238Y-110902761D01*
X177063333Y-110940857D01*
X177101428Y-111017047D01*
X177101428Y-111207523D01*
X177063333Y-111283714D01*
X177025238Y-111321809D01*
X176949047Y-111359904D01*
X176758571Y-111359904D01*
X176682380Y-111321809D01*
X176644285Y-111283714D01*
X173418571Y-111131333D02*
X173799523Y-111131333D01*
X173342380Y-111359904D02*
X173609047Y-110559904D01*
X173875714Y-111359904D01*
X174485238Y-110826571D02*
X174485238Y-111359904D01*
X174294761Y-110521809D02*
X174104285Y-111093238D01*
X174599523Y-111093238D01*
X170878571Y-111131333D02*
X171259523Y-111131333D01*
X170802380Y-111359904D02*
X171069047Y-110559904D01*
X171335714Y-111359904D01*
X171526190Y-110559904D02*
X172021428Y-110559904D01*
X171754761Y-110864666D01*
X171869047Y-110864666D01*
X171945238Y-110902761D01*
X171983333Y-110940857D01*
X172021428Y-111017047D01*
X172021428Y-111207523D01*
X171983333Y-111283714D01*
X171945238Y-111321809D01*
X171869047Y-111359904D01*
X171640476Y-111359904D01*
X171564285Y-111321809D01*
X171526190Y-111283714D01*
X168338571Y-111131333D02*
X168719523Y-111131333D01*
X168262380Y-111359904D02*
X168529047Y-110559904D01*
X168795714Y-111359904D01*
X169024285Y-110636095D02*
X169062380Y-110598000D01*
X169138571Y-110559904D01*
X169329047Y-110559904D01*
X169405238Y-110598000D01*
X169443333Y-110636095D01*
X169481428Y-110712285D01*
X169481428Y-110788476D01*
X169443333Y-110902761D01*
X168986190Y-111359904D01*
X169481428Y-111359904D01*
X165798571Y-111131333D02*
X166179523Y-111131333D01*
X165722380Y-111359904D02*
X165989047Y-110559904D01*
X166255714Y-111359904D01*
X166941428Y-111359904D02*
X166484285Y-111359904D01*
X166712857Y-111359904D02*
X166712857Y-110559904D01*
X166636666Y-110674190D01*
X166560476Y-110750380D01*
X166484285Y-110788476D01*
X163258571Y-111131333D02*
X163639523Y-111131333D01*
X163182380Y-111359904D02*
X163449047Y-110559904D01*
X163715714Y-111359904D01*
X164134761Y-110559904D02*
X164210952Y-110559904D01*
X164287142Y-110598000D01*
X164325238Y-110636095D01*
X164363333Y-110712285D01*
X164401428Y-110864666D01*
X164401428Y-111055142D01*
X164363333Y-111207523D01*
X164325238Y-111283714D01*
X164287142Y-111321809D01*
X164210952Y-111359904D01*
X164134761Y-111359904D01*
X164058571Y-111321809D01*
X164020476Y-111283714D01*
X163982380Y-111207523D01*
X163944285Y-111055142D01*
X163944285Y-110864666D01*
X163982380Y-110712285D01*
X164020476Y-110636095D01*
X164058571Y-110598000D01*
X164134761Y-110559904D01*
X160775714Y-111283714D02*
X160737619Y-111321809D01*
X160623333Y-111359904D01*
X160547142Y-111359904D01*
X160432857Y-111321809D01*
X160356666Y-111245619D01*
X160318571Y-111169428D01*
X160280476Y-111017047D01*
X160280476Y-110902761D01*
X160318571Y-110750380D01*
X160356666Y-110674190D01*
X160432857Y-110598000D01*
X160547142Y-110559904D01*
X160623333Y-110559904D01*
X160737619Y-110598000D01*
X160775714Y-110636095D01*
X161537619Y-111359904D02*
X161080476Y-111359904D01*
X161309047Y-111359904D02*
X161309047Y-110559904D01*
X161232857Y-110674190D01*
X161156666Y-110750380D01*
X161080476Y-110788476D01*
X162261428Y-110559904D02*
X161880476Y-110559904D01*
X161842380Y-110940857D01*
X161880476Y-110902761D01*
X161956666Y-110864666D01*
X162147142Y-110864666D01*
X162223333Y-110902761D01*
X162261428Y-110940857D01*
X162299523Y-111017047D01*
X162299523Y-111207523D01*
X162261428Y-111283714D01*
X162223333Y-111321809D01*
X162147142Y-111359904D01*
X161956666Y-111359904D01*
X161880476Y-111321809D01*
X161842380Y-111283714D01*
X158235714Y-111283714D02*
X158197619Y-111321809D01*
X158083333Y-111359904D01*
X158007142Y-111359904D01*
X157892857Y-111321809D01*
X157816666Y-111245619D01*
X157778571Y-111169428D01*
X157740476Y-111017047D01*
X157740476Y-110902761D01*
X157778571Y-110750380D01*
X157816666Y-110674190D01*
X157892857Y-110598000D01*
X158007142Y-110559904D01*
X158083333Y-110559904D01*
X158197619Y-110598000D01*
X158235714Y-110636095D01*
X158997619Y-111359904D02*
X158540476Y-111359904D01*
X158769047Y-111359904D02*
X158769047Y-110559904D01*
X158692857Y-110674190D01*
X158616666Y-110750380D01*
X158540476Y-110788476D01*
X159683333Y-110826571D02*
X159683333Y-111359904D01*
X159492857Y-110521809D02*
X159302380Y-111093238D01*
X159797619Y-111093238D01*
X155695714Y-111283714D02*
X155657619Y-111321809D01*
X155543333Y-111359904D01*
X155467142Y-111359904D01*
X155352857Y-111321809D01*
X155276666Y-111245619D01*
X155238571Y-111169428D01*
X155200476Y-111017047D01*
X155200476Y-110902761D01*
X155238571Y-110750380D01*
X155276666Y-110674190D01*
X155352857Y-110598000D01*
X155467142Y-110559904D01*
X155543333Y-110559904D01*
X155657619Y-110598000D01*
X155695714Y-110636095D01*
X156457619Y-111359904D02*
X156000476Y-111359904D01*
X156229047Y-111359904D02*
X156229047Y-110559904D01*
X156152857Y-110674190D01*
X156076666Y-110750380D01*
X156000476Y-110788476D01*
X156724285Y-110559904D02*
X157219523Y-110559904D01*
X156952857Y-110864666D01*
X157067142Y-110864666D01*
X157143333Y-110902761D01*
X157181428Y-110940857D01*
X157219523Y-111017047D01*
X157219523Y-111207523D01*
X157181428Y-111283714D01*
X157143333Y-111321809D01*
X157067142Y-111359904D01*
X156838571Y-111359904D01*
X156762380Y-111321809D01*
X156724285Y-111283714D01*
X153003333Y-110559904D02*
X153270000Y-111359904D01*
X153536666Y-110559904D01*
X154070000Y-110940857D02*
X154184285Y-110978952D01*
X154222380Y-111017047D01*
X154260476Y-111093238D01*
X154260476Y-111207523D01*
X154222380Y-111283714D01*
X154184285Y-111321809D01*
X154108095Y-111359904D01*
X153803333Y-111359904D01*
X153803333Y-110559904D01*
X154070000Y-110559904D01*
X154146190Y-110598000D01*
X154184285Y-110636095D01*
X154222380Y-110712285D01*
X154222380Y-110788476D01*
X154184285Y-110864666D01*
X154146190Y-110902761D01*
X154070000Y-110940857D01*
X153803333Y-110940857D01*
X160966190Y-92398857D02*
X161080476Y-92436952D01*
X161118571Y-92475047D01*
X161156666Y-92551238D01*
X161156666Y-92665523D01*
X161118571Y-92741714D01*
X161080476Y-92779809D01*
X161004285Y-92817904D01*
X160699523Y-92817904D01*
X160699523Y-92017904D01*
X160966190Y-92017904D01*
X161042380Y-92056000D01*
X161080476Y-92094095D01*
X161118571Y-92170285D01*
X161118571Y-92246476D01*
X161080476Y-92322666D01*
X161042380Y-92360761D01*
X160966190Y-92398857D01*
X160699523Y-92398857D01*
X161537619Y-92817904D02*
X161690000Y-92817904D01*
X161766190Y-92779809D01*
X161804285Y-92741714D01*
X161880476Y-92627428D01*
X161918571Y-92475047D01*
X161918571Y-92170285D01*
X161880476Y-92094095D01*
X161842380Y-92056000D01*
X161766190Y-92017904D01*
X161613809Y-92017904D01*
X161537619Y-92056000D01*
X161499523Y-92094095D01*
X161461428Y-92170285D01*
X161461428Y-92360761D01*
X161499523Y-92436952D01*
X161537619Y-92475047D01*
X161613809Y-92513142D01*
X161766190Y-92513142D01*
X161842380Y-92475047D01*
X161880476Y-92436952D01*
X161918571Y-92360761D01*
X163506190Y-92398857D02*
X163620476Y-92436952D01*
X163658571Y-92475047D01*
X163696666Y-92551238D01*
X163696666Y-92665523D01*
X163658571Y-92741714D01*
X163620476Y-92779809D01*
X163544285Y-92817904D01*
X163239523Y-92817904D01*
X163239523Y-92017904D01*
X163506190Y-92017904D01*
X163582380Y-92056000D01*
X163620476Y-92094095D01*
X163658571Y-92170285D01*
X163658571Y-92246476D01*
X163620476Y-92322666D01*
X163582380Y-92360761D01*
X163506190Y-92398857D01*
X163239523Y-92398857D01*
X164153809Y-92360761D02*
X164077619Y-92322666D01*
X164039523Y-92284571D01*
X164001428Y-92208380D01*
X164001428Y-92170285D01*
X164039523Y-92094095D01*
X164077619Y-92056000D01*
X164153809Y-92017904D01*
X164306190Y-92017904D01*
X164382380Y-92056000D01*
X164420476Y-92094095D01*
X164458571Y-92170285D01*
X164458571Y-92208380D01*
X164420476Y-92284571D01*
X164382380Y-92322666D01*
X164306190Y-92360761D01*
X164153809Y-92360761D01*
X164077619Y-92398857D01*
X164039523Y-92436952D01*
X164001428Y-92513142D01*
X164001428Y-92665523D01*
X164039523Y-92741714D01*
X164077619Y-92779809D01*
X164153809Y-92817904D01*
X164306190Y-92817904D01*
X164382380Y-92779809D01*
X164420476Y-92741714D01*
X164458571Y-92665523D01*
X164458571Y-92513142D01*
X164420476Y-92436952D01*
X164382380Y-92398857D01*
X164306190Y-92360761D01*
X166046190Y-92398857D02*
X166160476Y-92436952D01*
X166198571Y-92475047D01*
X166236666Y-92551238D01*
X166236666Y-92665523D01*
X166198571Y-92741714D01*
X166160476Y-92779809D01*
X166084285Y-92817904D01*
X165779523Y-92817904D01*
X165779523Y-92017904D01*
X166046190Y-92017904D01*
X166122380Y-92056000D01*
X166160476Y-92094095D01*
X166198571Y-92170285D01*
X166198571Y-92246476D01*
X166160476Y-92322666D01*
X166122380Y-92360761D01*
X166046190Y-92398857D01*
X165779523Y-92398857D01*
X166503333Y-92017904D02*
X167036666Y-92017904D01*
X166693809Y-92817904D01*
X168586190Y-92398857D02*
X168700476Y-92436952D01*
X168738571Y-92475047D01*
X168776666Y-92551238D01*
X168776666Y-92665523D01*
X168738571Y-92741714D01*
X168700476Y-92779809D01*
X168624285Y-92817904D01*
X168319523Y-92817904D01*
X168319523Y-92017904D01*
X168586190Y-92017904D01*
X168662380Y-92056000D01*
X168700476Y-92094095D01*
X168738571Y-92170285D01*
X168738571Y-92246476D01*
X168700476Y-92322666D01*
X168662380Y-92360761D01*
X168586190Y-92398857D01*
X168319523Y-92398857D01*
X169462380Y-92017904D02*
X169310000Y-92017904D01*
X169233809Y-92056000D01*
X169195714Y-92094095D01*
X169119523Y-92208380D01*
X169081428Y-92360761D01*
X169081428Y-92665523D01*
X169119523Y-92741714D01*
X169157619Y-92779809D01*
X169233809Y-92817904D01*
X169386190Y-92817904D01*
X169462380Y-92779809D01*
X169500476Y-92741714D01*
X169538571Y-92665523D01*
X169538571Y-92475047D01*
X169500476Y-92398857D01*
X169462380Y-92360761D01*
X169386190Y-92322666D01*
X169233809Y-92322666D01*
X169157619Y-92360761D01*
X169119523Y-92398857D01*
X169081428Y-92475047D01*
X171126190Y-92398857D02*
X171240476Y-92436952D01*
X171278571Y-92475047D01*
X171316666Y-92551238D01*
X171316666Y-92665523D01*
X171278571Y-92741714D01*
X171240476Y-92779809D01*
X171164285Y-92817904D01*
X170859523Y-92817904D01*
X170859523Y-92017904D01*
X171126190Y-92017904D01*
X171202380Y-92056000D01*
X171240476Y-92094095D01*
X171278571Y-92170285D01*
X171278571Y-92246476D01*
X171240476Y-92322666D01*
X171202380Y-92360761D01*
X171126190Y-92398857D01*
X170859523Y-92398857D01*
X172040476Y-92017904D02*
X171659523Y-92017904D01*
X171621428Y-92398857D01*
X171659523Y-92360761D01*
X171735714Y-92322666D01*
X171926190Y-92322666D01*
X172002380Y-92360761D01*
X172040476Y-92398857D01*
X172078571Y-92475047D01*
X172078571Y-92665523D01*
X172040476Y-92741714D01*
X172002380Y-92779809D01*
X171926190Y-92817904D01*
X171735714Y-92817904D01*
X171659523Y-92779809D01*
X171621428Y-92741714D01*
X173666190Y-92398857D02*
X173780476Y-92436952D01*
X173818571Y-92475047D01*
X173856666Y-92551238D01*
X173856666Y-92665523D01*
X173818571Y-92741714D01*
X173780476Y-92779809D01*
X173704285Y-92817904D01*
X173399523Y-92817904D01*
X173399523Y-92017904D01*
X173666190Y-92017904D01*
X173742380Y-92056000D01*
X173780476Y-92094095D01*
X173818571Y-92170285D01*
X173818571Y-92246476D01*
X173780476Y-92322666D01*
X173742380Y-92360761D01*
X173666190Y-92398857D01*
X173399523Y-92398857D01*
X174542380Y-92284571D02*
X174542380Y-92817904D01*
X174351904Y-91979809D02*
X174161428Y-92551238D01*
X174656666Y-92551238D01*
X176206190Y-92398857D02*
X176320476Y-92436952D01*
X176358571Y-92475047D01*
X176396666Y-92551238D01*
X176396666Y-92665523D01*
X176358571Y-92741714D01*
X176320476Y-92779809D01*
X176244285Y-92817904D01*
X175939523Y-92817904D01*
X175939523Y-92017904D01*
X176206190Y-92017904D01*
X176282380Y-92056000D01*
X176320476Y-92094095D01*
X176358571Y-92170285D01*
X176358571Y-92246476D01*
X176320476Y-92322666D01*
X176282380Y-92360761D01*
X176206190Y-92398857D01*
X175939523Y-92398857D01*
X176663333Y-92017904D02*
X177158571Y-92017904D01*
X176891904Y-92322666D01*
X177006190Y-92322666D01*
X177082380Y-92360761D01*
X177120476Y-92398857D01*
X177158571Y-92475047D01*
X177158571Y-92665523D01*
X177120476Y-92741714D01*
X177082380Y-92779809D01*
X177006190Y-92817904D01*
X176777619Y-92817904D01*
X176701428Y-92779809D01*
X176663333Y-92741714D01*
X178117619Y-92589333D02*
X178498571Y-92589333D01*
X178041428Y-92817904D02*
X178308095Y-92017904D01*
X178574761Y-92817904D01*
X179260476Y-92817904D02*
X178803333Y-92817904D01*
X179031904Y-92817904D02*
X179031904Y-92017904D01*
X178955714Y-92132190D01*
X178879523Y-92208380D01*
X178803333Y-92246476D01*
X179984285Y-92017904D02*
X179603333Y-92017904D01*
X179565238Y-92398857D01*
X179603333Y-92360761D01*
X179679523Y-92322666D01*
X179870000Y-92322666D01*
X179946190Y-92360761D01*
X179984285Y-92398857D01*
X180022380Y-92475047D01*
X180022380Y-92665523D01*
X179984285Y-92741714D01*
X179946190Y-92779809D01*
X179870000Y-92817904D01*
X179679523Y-92817904D01*
X179603333Y-92779809D01*
X179565238Y-92741714D01*
X180657619Y-92589333D02*
X181038571Y-92589333D01*
X180581428Y-92817904D02*
X180848095Y-92017904D01*
X181114761Y-92817904D01*
X181800476Y-92817904D02*
X181343333Y-92817904D01*
X181571904Y-92817904D02*
X181571904Y-92017904D01*
X181495714Y-92132190D01*
X181419523Y-92208380D01*
X181343333Y-92246476D01*
X182105238Y-92094095D02*
X182143333Y-92056000D01*
X182219523Y-92017904D01*
X182410000Y-92017904D01*
X182486190Y-92056000D01*
X182524285Y-92094095D01*
X182562380Y-92170285D01*
X182562380Y-92246476D01*
X182524285Y-92360761D01*
X182067142Y-92817904D01*
X182562380Y-92817904D01*
X183197619Y-92589333D02*
X183578571Y-92589333D01*
X183121428Y-92817904D02*
X183388095Y-92017904D01*
X183654761Y-92817904D01*
X184340476Y-92817904D02*
X183883333Y-92817904D01*
X184111904Y-92817904D02*
X184111904Y-92017904D01*
X184035714Y-92132190D01*
X183959523Y-92208380D01*
X183883333Y-92246476D01*
X185102380Y-92817904D02*
X184645238Y-92817904D01*
X184873809Y-92817904D02*
X184873809Y-92017904D01*
X184797619Y-92132190D01*
X184721428Y-92208380D01*
X184645238Y-92246476D01*
X185737619Y-92589333D02*
X186118571Y-92589333D01*
X185661428Y-92817904D02*
X185928095Y-92017904D01*
X186194761Y-92817904D01*
X186880476Y-92817904D02*
X186423333Y-92817904D01*
X186651904Y-92817904D02*
X186651904Y-92017904D01*
X186575714Y-92132190D01*
X186499523Y-92208380D01*
X186423333Y-92246476D01*
X187375714Y-92017904D02*
X187451904Y-92017904D01*
X187528095Y-92056000D01*
X187566190Y-92094095D01*
X187604285Y-92170285D01*
X187642380Y-92322666D01*
X187642380Y-92513142D01*
X187604285Y-92665523D01*
X187566190Y-92741714D01*
X187528095Y-92779809D01*
X187451904Y-92817904D01*
X187375714Y-92817904D01*
X187299523Y-92779809D01*
X187261428Y-92741714D01*
X187223333Y-92665523D01*
X187185238Y-92513142D01*
X187185238Y-92322666D01*
X187223333Y-92170285D01*
X187261428Y-92094095D01*
X187299523Y-92056000D01*
X187375714Y-92017904D01*
X188658571Y-92589333D02*
X189039523Y-92589333D01*
X188582380Y-92817904D02*
X188849047Y-92017904D01*
X189115714Y-92817904D01*
X189420476Y-92817904D02*
X189572857Y-92817904D01*
X189649047Y-92779809D01*
X189687142Y-92741714D01*
X189763333Y-92627428D01*
X189801428Y-92475047D01*
X189801428Y-92170285D01*
X189763333Y-92094095D01*
X189725238Y-92056000D01*
X189649047Y-92017904D01*
X189496666Y-92017904D01*
X189420476Y-92056000D01*
X189382380Y-92094095D01*
X189344285Y-92170285D01*
X189344285Y-92360761D01*
X189382380Y-92436952D01*
X189420476Y-92475047D01*
X189496666Y-92513142D01*
X189649047Y-92513142D01*
X189725238Y-92475047D01*
X189763333Y-92436952D01*
X189801428Y-92360761D01*
X201225238Y-92398857D02*
X201339523Y-92436952D01*
X201377619Y-92475047D01*
X201415714Y-92551238D01*
X201415714Y-92665523D01*
X201377619Y-92741714D01*
X201339523Y-92779809D01*
X201263333Y-92817904D01*
X200958571Y-92817904D01*
X200958571Y-92017904D01*
X201225238Y-92017904D01*
X201301428Y-92056000D01*
X201339523Y-92094095D01*
X201377619Y-92170285D01*
X201377619Y-92246476D01*
X201339523Y-92322666D01*
X201301428Y-92360761D01*
X201225238Y-92398857D01*
X200958571Y-92398857D01*
X202177619Y-92817904D02*
X201720476Y-92817904D01*
X201949047Y-92817904D02*
X201949047Y-92017904D01*
X201872857Y-92132190D01*
X201796666Y-92208380D01*
X201720476Y-92246476D01*
X202482380Y-92094095D02*
X202520476Y-92056000D01*
X202596666Y-92017904D01*
X202787142Y-92017904D01*
X202863333Y-92056000D01*
X202901428Y-92094095D01*
X202939523Y-92170285D01*
X202939523Y-92246476D01*
X202901428Y-92360761D01*
X202444285Y-92817904D01*
X202939523Y-92817904D01*
X198685238Y-92398857D02*
X198799523Y-92436952D01*
X198837619Y-92475047D01*
X198875714Y-92551238D01*
X198875714Y-92665523D01*
X198837619Y-92741714D01*
X198799523Y-92779809D01*
X198723333Y-92817904D01*
X198418571Y-92817904D01*
X198418571Y-92017904D01*
X198685238Y-92017904D01*
X198761428Y-92056000D01*
X198799523Y-92094095D01*
X198837619Y-92170285D01*
X198837619Y-92246476D01*
X198799523Y-92322666D01*
X198761428Y-92360761D01*
X198685238Y-92398857D01*
X198418571Y-92398857D01*
X199637619Y-92817904D02*
X199180476Y-92817904D01*
X199409047Y-92817904D02*
X199409047Y-92017904D01*
X199332857Y-92132190D01*
X199256666Y-92208380D01*
X199180476Y-92246476D01*
X199904285Y-92017904D02*
X200399523Y-92017904D01*
X200132857Y-92322666D01*
X200247142Y-92322666D01*
X200323333Y-92360761D01*
X200361428Y-92398857D01*
X200399523Y-92475047D01*
X200399523Y-92665523D01*
X200361428Y-92741714D01*
X200323333Y-92779809D01*
X200247142Y-92817904D01*
X200018571Y-92817904D01*
X199942380Y-92779809D01*
X199904285Y-92741714D01*
X196145238Y-92398857D02*
X196259523Y-92436952D01*
X196297619Y-92475047D01*
X196335714Y-92551238D01*
X196335714Y-92665523D01*
X196297619Y-92741714D01*
X196259523Y-92779809D01*
X196183333Y-92817904D01*
X195878571Y-92817904D01*
X195878571Y-92017904D01*
X196145238Y-92017904D01*
X196221428Y-92056000D01*
X196259523Y-92094095D01*
X196297619Y-92170285D01*
X196297619Y-92246476D01*
X196259523Y-92322666D01*
X196221428Y-92360761D01*
X196145238Y-92398857D01*
X195878571Y-92398857D01*
X197097619Y-92817904D02*
X196640476Y-92817904D01*
X196869047Y-92817904D02*
X196869047Y-92017904D01*
X196792857Y-92132190D01*
X196716666Y-92208380D01*
X196640476Y-92246476D01*
X197783333Y-92284571D02*
X197783333Y-92817904D01*
X197592857Y-91979809D02*
X197402380Y-92551238D01*
X197897619Y-92551238D01*
X193605238Y-92398857D02*
X193719523Y-92436952D01*
X193757619Y-92475047D01*
X193795714Y-92551238D01*
X193795714Y-92665523D01*
X193757619Y-92741714D01*
X193719523Y-92779809D01*
X193643333Y-92817904D01*
X193338571Y-92817904D01*
X193338571Y-92017904D01*
X193605238Y-92017904D01*
X193681428Y-92056000D01*
X193719523Y-92094095D01*
X193757619Y-92170285D01*
X193757619Y-92246476D01*
X193719523Y-92322666D01*
X193681428Y-92360761D01*
X193605238Y-92398857D01*
X193338571Y-92398857D01*
X194557619Y-92817904D02*
X194100476Y-92817904D01*
X194329047Y-92817904D02*
X194329047Y-92017904D01*
X194252857Y-92132190D01*
X194176666Y-92208380D01*
X194100476Y-92246476D01*
X195281428Y-92017904D02*
X194900476Y-92017904D01*
X194862380Y-92398857D01*
X194900476Y-92360761D01*
X194976666Y-92322666D01*
X195167142Y-92322666D01*
X195243333Y-92360761D01*
X195281428Y-92398857D01*
X195319523Y-92475047D01*
X195319523Y-92665523D01*
X195281428Y-92741714D01*
X195243333Y-92779809D01*
X195167142Y-92817904D01*
X194976666Y-92817904D01*
X194900476Y-92779809D01*
X194862380Y-92741714D01*
X191198571Y-92589333D02*
X191579523Y-92589333D01*
X191122380Y-92817904D02*
X191389047Y-92017904D01*
X191655714Y-92817904D01*
X191960476Y-92817904D02*
X192112857Y-92817904D01*
X192189047Y-92779809D01*
X192227142Y-92741714D01*
X192303333Y-92627428D01*
X192341428Y-92475047D01*
X192341428Y-92170285D01*
X192303333Y-92094095D01*
X192265238Y-92056000D01*
X192189047Y-92017904D01*
X192036666Y-92017904D01*
X191960476Y-92056000D01*
X191922380Y-92094095D01*
X191884285Y-92170285D01*
X191884285Y-92360761D01*
X191922380Y-92436952D01*
X191960476Y-92475047D01*
X192036666Y-92513142D01*
X192189047Y-92513142D01*
X192265238Y-92475047D01*
X192303333Y-92436952D01*
X192341428Y-92360761D01*
D11*
%TO.C,J1*%
X203295000Y-106300000D02*
X205195000Y-106300000D01*
X199395000Y-106300000D02*
X201395000Y-106300000D01*
X203295000Y-96900000D02*
X205195000Y-96900000D01*
X199395000Y-96900000D02*
X201395000Y-96900000D01*
X205195000Y-106300000D02*
X205195000Y-96900000D01*
%TO.C,U2*%
X180682113Y-101918198D02*
X181000311Y-101600000D01*
X181000311Y-101600000D02*
X180682113Y-101281802D01*
X176213198Y-106387113D02*
X175895000Y-106705311D01*
X175895000Y-106705311D02*
X175576802Y-106387113D01*
X175576802Y-96812887D02*
X175895000Y-96494689D01*
X175895000Y-96494689D02*
X176213198Y-96812887D01*
X171107887Y-101281802D02*
X170789689Y-101600000D01*
X170789689Y-101600000D02*
X171107887Y-101918198D01*
X171107887Y-101918198D02*
X170195719Y-102830366D01*
%TO.C,Y2*%
X168955000Y-99325000D02*
X168955000Y-97525000D01*
X167555000Y-97475000D02*
X166455000Y-97475000D01*
X167555000Y-99375000D02*
X166455000Y-99375000D01*
%TO.C,Y1*%
X165205000Y-100305000D02*
X165205000Y-106205000D01*
X168805000Y-100305000D02*
X165205000Y-100305000D01*
X168805000Y-106205000D02*
X168805000Y-100305000D01*
%TO.C,D3*%
X184050000Y-98845000D02*
X184050000Y-101130000D01*
X185520000Y-98845000D02*
X184050000Y-98845000D01*
X185520000Y-101130000D02*
X185520000Y-98845000D01*
%TO.C,D2*%
X185520000Y-104990000D02*
X185520000Y-102705000D01*
X184050000Y-104990000D02*
X185520000Y-104990000D01*
X184050000Y-102705000D02*
X184050000Y-104990000D01*
%TO.C,SW1*%
X157685000Y-100725000D02*
X158135000Y-101175000D01*
X161085000Y-100725000D02*
X160635000Y-101175000D01*
X161085000Y-96125000D02*
X160635000Y-95675000D01*
X157685000Y-96125000D02*
X158135000Y-95675000D01*
X162135000Y-97425000D02*
X162135000Y-99425000D01*
X158135000Y-101175000D02*
X160635000Y-101175000D01*
X156635000Y-97425000D02*
X156635000Y-99425000D01*
X158135000Y-95675000D02*
X160635000Y-95675000D01*
%TO.C,U1*%
X192640000Y-100960000D02*
X191380000Y-100960000D01*
X185820000Y-100960000D02*
X187080000Y-100960000D01*
X192640000Y-104720000D02*
X192640000Y-100960000D01*
X185820000Y-106970000D02*
X185820000Y-100960000D01*
%TO.C,J5*%
X151595000Y-106740000D02*
X151595000Y-96460000D01*
X151595000Y-96460000D02*
X148935000Y-96460000D01*
X148935000Y-96460000D02*
X148935000Y-106740000D01*
X148935000Y-106740000D02*
X151595000Y-106740000D01*
X148935000Y-105790000D02*
X142935000Y-105790000D01*
X142935000Y-105790000D02*
X142935000Y-105030000D01*
X142935000Y-105030000D02*
X148935000Y-105030000D01*
X148935000Y-105730000D02*
X142935000Y-105730000D01*
X148935000Y-105610000D02*
X142935000Y-105610000D01*
X148935000Y-105490000D02*
X142935000Y-105490000D01*
X148935000Y-105370000D02*
X142935000Y-105370000D01*
X148935000Y-105250000D02*
X142935000Y-105250000D01*
X148935000Y-105130000D02*
X142935000Y-105130000D01*
X151925000Y-105790000D02*
X151595000Y-105790000D01*
X151925000Y-105030000D02*
X151595000Y-105030000D01*
X151595000Y-104140000D02*
X148935000Y-104140000D01*
X148935000Y-103250000D02*
X142935000Y-103250000D01*
X142935000Y-103250000D02*
X142935000Y-102490000D01*
X142935000Y-102490000D02*
X148935000Y-102490000D01*
X151992071Y-103250000D02*
X151595000Y-103250000D01*
X151992071Y-102490000D02*
X151595000Y-102490000D01*
X151595000Y-101600000D02*
X148935000Y-101600000D01*
X148935000Y-100710000D02*
X142935000Y-100710000D01*
X142935000Y-100710000D02*
X142935000Y-99950000D01*
X142935000Y-99950000D02*
X148935000Y-99950000D01*
X151992071Y-100710000D02*
X151595000Y-100710000D01*
X151992071Y-99950000D02*
X151595000Y-99950000D01*
X151595000Y-99060000D02*
X148935000Y-99060000D01*
X148935000Y-98170000D02*
X142935000Y-98170000D01*
X142935000Y-98170000D02*
X142935000Y-97410000D01*
X142935000Y-97410000D02*
X148935000Y-97410000D01*
X151992071Y-98170000D02*
X151595000Y-98170000D01*
X151992071Y-97410000D02*
X151595000Y-97410000D01*
X154305000Y-105410000D02*
X154305000Y-106680000D01*
X154305000Y-106680000D02*
X153035000Y-106680000D01*
%TO.C,J4*%
X163255000Y-107375000D02*
X163255000Y-102175000D01*
X158115000Y-107375000D02*
X163255000Y-107375000D01*
X155515000Y-102175000D02*
X163255000Y-102175000D01*
X158115000Y-107375000D02*
X158115000Y-104775000D01*
X158115000Y-104775000D02*
X155515000Y-104775000D01*
X155515000Y-104775000D02*
X155515000Y-102175000D01*
X156845000Y-107375000D02*
X155515000Y-107375000D01*
X155515000Y-107375000D02*
X155515000Y-106045000D01*
%TO.C,D1*%
X193310000Y-103215000D02*
X195310000Y-103215000D01*
X195310000Y-103215000D02*
X195310000Y-99315000D01*
X193310000Y-103215000D02*
X193310000Y-99315000D01*
%TO.C,C2*%
X183590000Y-104516422D02*
X183590000Y-105033578D01*
X182170000Y-104516422D02*
X182170000Y-105033578D01*
%TO.C,C1*%
X193600000Y-105668578D02*
X193600000Y-105151422D01*
X195020000Y-105668578D02*
X195020000Y-105151422D01*
%TO.C,R1*%
D10*
X191603333Y-96972380D02*
X191270000Y-96496190D01*
X191031904Y-96972380D02*
X191031904Y-95972380D01*
X191412857Y-95972380D01*
X191508095Y-96020000D01*
X191555714Y-96067619D01*
X191603333Y-96162857D01*
X191603333Y-96305714D01*
X191555714Y-96400952D01*
X191508095Y-96448571D01*
X191412857Y-96496190D01*
X191031904Y-96496190D01*
X192555714Y-96972380D02*
X191984285Y-96972380D01*
X192270000Y-96972380D02*
X192270000Y-95972380D01*
X192174761Y-96115238D01*
X192079523Y-96210476D01*
X191984285Y-96258095D01*
%TO.C,J1*%
X195102380Y-101933333D02*
X195816666Y-101933333D01*
X195959523Y-101980952D01*
X196054761Y-102076190D01*
X196102380Y-102219047D01*
X196102380Y-102314285D01*
X196102380Y-100933333D02*
X196102380Y-101504761D01*
X196102380Y-101219047D02*
X195102380Y-101219047D01*
X195245238Y-101314285D01*
X195340476Y-101409523D01*
X195388095Y-101504761D01*
%TO.C,U2*%
X171017646Y-97584643D02*
X171475582Y-98042579D01*
X171556394Y-98069516D01*
X171610269Y-98069516D01*
X171691081Y-98042579D01*
X171798831Y-97934829D01*
X171825768Y-97854017D01*
X171825768Y-97800142D01*
X171798831Y-97719330D01*
X171340895Y-97261394D01*
X171637206Y-97072832D02*
X171637206Y-97018957D01*
X171664144Y-96938145D01*
X171798831Y-96803458D01*
X171879643Y-96776521D01*
X171933518Y-96776521D01*
X172014330Y-96803458D01*
X172068205Y-96857333D01*
X172122079Y-96965083D01*
X172122079Y-97611580D01*
X172472266Y-97261394D01*
%TO.C,C11*%
X163480714Y-102114285D02*
X163518809Y-102152380D01*
X163556904Y-102266666D01*
X163556904Y-102342857D01*
X163518809Y-102457142D01*
X163442619Y-102533333D01*
X163366428Y-102571428D01*
X163214047Y-102609523D01*
X163099761Y-102609523D01*
X162947380Y-102571428D01*
X162871190Y-102533333D01*
X162795000Y-102457142D01*
X162756904Y-102342857D01*
X162756904Y-102266666D01*
X162795000Y-102152380D01*
X162833095Y-102114285D01*
X163556904Y-101352380D02*
X163556904Y-101809523D01*
X163556904Y-101580952D02*
X162756904Y-101580952D01*
X162871190Y-101657142D01*
X162947380Y-101733333D01*
X162985476Y-101809523D01*
X163556904Y-100590476D02*
X163556904Y-101047619D01*
X163556904Y-100819047D02*
X162756904Y-100819047D01*
X162871190Y-100895238D01*
X162947380Y-100971428D01*
X162985476Y-101047619D01*
%TO.C,C10*%
X167760714Y-95535714D02*
X167722619Y-95573809D01*
X167608333Y-95611904D01*
X167532142Y-95611904D01*
X167417857Y-95573809D01*
X167341666Y-95497619D01*
X167303571Y-95421428D01*
X167265476Y-95269047D01*
X167265476Y-95154761D01*
X167303571Y-95002380D01*
X167341666Y-94926190D01*
X167417857Y-94850000D01*
X167532142Y-94811904D01*
X167608333Y-94811904D01*
X167722619Y-94850000D01*
X167760714Y-94888095D01*
X168522619Y-95611904D02*
X168065476Y-95611904D01*
X168294047Y-95611904D02*
X168294047Y-94811904D01*
X168217857Y-94926190D01*
X168141666Y-95002380D01*
X168065476Y-95040476D01*
X169017857Y-94811904D02*
X169094047Y-94811904D01*
X169170238Y-94850000D01*
X169208333Y-94888095D01*
X169246428Y-94964285D01*
X169284523Y-95116666D01*
X169284523Y-95307142D01*
X169246428Y-95459523D01*
X169208333Y-95535714D01*
X169170238Y-95573809D01*
X169094047Y-95611904D01*
X169017857Y-95611904D01*
X168941666Y-95573809D01*
X168903571Y-95535714D01*
X168865476Y-95459523D01*
X168827380Y-95307142D01*
X168827380Y-95116666D01*
X168865476Y-94964285D01*
X168903571Y-94888095D01*
X168941666Y-94850000D01*
X169017857Y-94811904D01*
%TO.C,Y2*%
X166624047Y-96500952D02*
X166624047Y-96881904D01*
X166357380Y-96081904D02*
X166624047Y-96500952D01*
X166890714Y-96081904D01*
X167119285Y-96158095D02*
X167157380Y-96120000D01*
X167233571Y-96081904D01*
X167424047Y-96081904D01*
X167500238Y-96120000D01*
X167538333Y-96158095D01*
X167576428Y-96234285D01*
X167576428Y-96310476D01*
X167538333Y-96424761D01*
X167081190Y-96881904D01*
X167576428Y-96881904D01*
%TO.C,Y1*%
X166624047Y-99675952D02*
X166624047Y-100056904D01*
X166357380Y-99256904D02*
X166624047Y-99675952D01*
X166890714Y-99256904D01*
X167576428Y-100056904D02*
X167119285Y-100056904D01*
X167347857Y-100056904D02*
X167347857Y-99256904D01*
X167271666Y-99371190D01*
X167195476Y-99447380D01*
X167119285Y-99485476D01*
%TO.C,C9*%
X165920714Y-106813333D02*
X165958809Y-106851428D01*
X165996904Y-106965714D01*
X165996904Y-107041904D01*
X165958809Y-107156190D01*
X165882619Y-107232380D01*
X165806428Y-107270476D01*
X165654047Y-107308571D01*
X165539761Y-107308571D01*
X165387380Y-107270476D01*
X165311190Y-107232380D01*
X165235000Y-107156190D01*
X165196904Y-107041904D01*
X165196904Y-106965714D01*
X165235000Y-106851428D01*
X165273095Y-106813333D01*
X165996904Y-106432380D02*
X165996904Y-106280000D01*
X165958809Y-106203809D01*
X165920714Y-106165714D01*
X165806428Y-106089523D01*
X165654047Y-106051428D01*
X165349285Y-106051428D01*
X165273095Y-106089523D01*
X165235000Y-106127619D01*
X165196904Y-106203809D01*
X165196904Y-106356190D01*
X165235000Y-106432380D01*
X165273095Y-106470476D01*
X165349285Y-106508571D01*
X165539761Y-106508571D01*
X165615952Y-106470476D01*
X165654047Y-106432380D01*
X165692142Y-106356190D01*
X165692142Y-106203809D01*
X165654047Y-106127619D01*
X165615952Y-106089523D01*
X165539761Y-106051428D01*
%TO.C,C8*%
X165920714Y-104273333D02*
X165958809Y-104311428D01*
X165996904Y-104425714D01*
X165996904Y-104501904D01*
X165958809Y-104616190D01*
X165882619Y-104692380D01*
X165806428Y-104730476D01*
X165654047Y-104768571D01*
X165539761Y-104768571D01*
X165387380Y-104730476D01*
X165311190Y-104692380D01*
X165235000Y-104616190D01*
X165196904Y-104501904D01*
X165196904Y-104425714D01*
X165235000Y-104311428D01*
X165273095Y-104273333D01*
X165539761Y-103816190D02*
X165501666Y-103892380D01*
X165463571Y-103930476D01*
X165387380Y-103968571D01*
X165349285Y-103968571D01*
X165273095Y-103930476D01*
X165235000Y-103892380D01*
X165196904Y-103816190D01*
X165196904Y-103663809D01*
X165235000Y-103587619D01*
X165273095Y-103549523D01*
X165349285Y-103511428D01*
X165387380Y-103511428D01*
X165463571Y-103549523D01*
X165501666Y-103587619D01*
X165539761Y-103663809D01*
X165539761Y-103816190D01*
X165577857Y-103892380D01*
X165615952Y-103930476D01*
X165692142Y-103968571D01*
X165844523Y-103968571D01*
X165920714Y-103930476D01*
X165958809Y-103892380D01*
X165996904Y-103816190D01*
X165996904Y-103663809D01*
X165958809Y-103587619D01*
X165920714Y-103549523D01*
X165844523Y-103511428D01*
X165692142Y-103511428D01*
X165615952Y-103549523D01*
X165577857Y-103587619D01*
X165539761Y-103663809D01*
%TO.C,R6*%
X194176666Y-96881904D02*
X193910000Y-96500952D01*
X193719523Y-96881904D02*
X193719523Y-96081904D01*
X194024285Y-96081904D01*
X194100476Y-96120000D01*
X194138571Y-96158095D01*
X194176666Y-96234285D01*
X194176666Y-96348571D01*
X194138571Y-96424761D01*
X194100476Y-96462857D01*
X194024285Y-96500952D01*
X193719523Y-96500952D01*
X194862380Y-96081904D02*
X194710000Y-96081904D01*
X194633809Y-96120000D01*
X194595714Y-96158095D01*
X194519523Y-96272380D01*
X194481428Y-96424761D01*
X194481428Y-96729523D01*
X194519523Y-96805714D01*
X194557619Y-96843809D01*
X194633809Y-96881904D01*
X194786190Y-96881904D01*
X194862380Y-96843809D01*
X194900476Y-96805714D01*
X194938571Y-96729523D01*
X194938571Y-96539047D01*
X194900476Y-96462857D01*
X194862380Y-96424761D01*
X194786190Y-96386666D01*
X194633809Y-96386666D01*
X194557619Y-96424761D01*
X194519523Y-96462857D01*
X194481428Y-96539047D01*
%TO.C,R5*%
X183381666Y-100691904D02*
X183115000Y-100310952D01*
X182924523Y-100691904D02*
X182924523Y-99891904D01*
X183229285Y-99891904D01*
X183305476Y-99930000D01*
X183343571Y-99968095D01*
X183381666Y-100044285D01*
X183381666Y-100158571D01*
X183343571Y-100234761D01*
X183305476Y-100272857D01*
X183229285Y-100310952D01*
X182924523Y-100310952D01*
X184105476Y-99891904D02*
X183724523Y-99891904D01*
X183686428Y-100272857D01*
X183724523Y-100234761D01*
X183800714Y-100196666D01*
X183991190Y-100196666D01*
X184067380Y-100234761D01*
X184105476Y-100272857D01*
X184143571Y-100349047D01*
X184143571Y-100539523D01*
X184105476Y-100615714D01*
X184067380Y-100653809D01*
X183991190Y-100691904D01*
X183800714Y-100691904D01*
X183724523Y-100653809D01*
X183686428Y-100615714D01*
%TO.C,R4*%
X186316904Y-106178333D02*
X185935952Y-106445000D01*
X186316904Y-106635476D02*
X185516904Y-106635476D01*
X185516904Y-106330714D01*
X185555000Y-106254523D01*
X185593095Y-106216428D01*
X185669285Y-106178333D01*
X185783571Y-106178333D01*
X185859761Y-106216428D01*
X185897857Y-106254523D01*
X185935952Y-106330714D01*
X185935952Y-106635476D01*
X185783571Y-105492619D02*
X186316904Y-105492619D01*
X185478809Y-105683095D02*
X186050238Y-105873571D01*
X186050238Y-105378333D01*
%TO.C,D3*%
X186416904Y-100920476D02*
X185616904Y-100920476D01*
X185616904Y-100730000D01*
X185655000Y-100615714D01*
X185731190Y-100539523D01*
X185807380Y-100501428D01*
X185959761Y-100463333D01*
X186074047Y-100463333D01*
X186226428Y-100501428D01*
X186302619Y-100539523D01*
X186378809Y-100615714D01*
X186416904Y-100730000D01*
X186416904Y-100920476D01*
X185616904Y-100196666D02*
X185616904Y-99701428D01*
X185921666Y-99968095D01*
X185921666Y-99853809D01*
X185959761Y-99777619D01*
X185997857Y-99739523D01*
X186074047Y-99701428D01*
X186264523Y-99701428D01*
X186340714Y-99739523D01*
X186378809Y-99777619D01*
X186416904Y-99853809D01*
X186416904Y-100082380D01*
X186378809Y-100158571D01*
X186340714Y-100196666D01*
%TO.C,D2*%
X186416904Y-104095476D02*
X185616904Y-104095476D01*
X185616904Y-103905000D01*
X185655000Y-103790714D01*
X185731190Y-103714523D01*
X185807380Y-103676428D01*
X185959761Y-103638333D01*
X186074047Y-103638333D01*
X186226428Y-103676428D01*
X186302619Y-103714523D01*
X186378809Y-103790714D01*
X186416904Y-103905000D01*
X186416904Y-104095476D01*
X185693095Y-103333571D02*
X185655000Y-103295476D01*
X185616904Y-103219285D01*
X185616904Y-103028809D01*
X185655000Y-102952619D01*
X185693095Y-102914523D01*
X185769285Y-102876428D01*
X185845476Y-102876428D01*
X185959761Y-102914523D01*
X186416904Y-103371666D01*
X186416904Y-102876428D01*
%TO.C,R3*%
X163656904Y-99193333D02*
X163275952Y-99460000D01*
X163656904Y-99650476D02*
X162856904Y-99650476D01*
X162856904Y-99345714D01*
X162895000Y-99269523D01*
X162933095Y-99231428D01*
X163009285Y-99193333D01*
X163123571Y-99193333D01*
X163199761Y-99231428D01*
X163237857Y-99269523D01*
X163275952Y-99345714D01*
X163275952Y-99650476D01*
X162856904Y-98926666D02*
X162856904Y-98431428D01*
X163161666Y-98698095D01*
X163161666Y-98583809D01*
X163199761Y-98507619D01*
X163237857Y-98469523D01*
X163314047Y-98431428D01*
X163504523Y-98431428D01*
X163580714Y-98469523D01*
X163618809Y-98507619D01*
X163656904Y-98583809D01*
X163656904Y-98812380D01*
X163618809Y-98888571D01*
X163580714Y-98926666D01*
%TO.C,C7*%
X163580714Y-96653333D02*
X163618809Y-96691428D01*
X163656904Y-96805714D01*
X163656904Y-96881904D01*
X163618809Y-96996190D01*
X163542619Y-97072380D01*
X163466428Y-97110476D01*
X163314047Y-97148571D01*
X163199761Y-97148571D01*
X163047380Y-97110476D01*
X162971190Y-97072380D01*
X162895000Y-96996190D01*
X162856904Y-96881904D01*
X162856904Y-96805714D01*
X162895000Y-96691428D01*
X162933095Y-96653333D01*
X162856904Y-96386666D02*
X162856904Y-95853333D01*
X163656904Y-96196190D01*
%TO.C,SW1*%
X154508333Y-98748809D02*
X154622619Y-98786904D01*
X154813095Y-98786904D01*
X154889285Y-98748809D01*
X154927380Y-98710714D01*
X154965476Y-98634523D01*
X154965476Y-98558333D01*
X154927380Y-98482142D01*
X154889285Y-98444047D01*
X154813095Y-98405952D01*
X154660714Y-98367857D01*
X154584523Y-98329761D01*
X154546428Y-98291666D01*
X154508333Y-98215476D01*
X154508333Y-98139285D01*
X154546428Y-98063095D01*
X154584523Y-98025000D01*
X154660714Y-97986904D01*
X154851190Y-97986904D01*
X154965476Y-98025000D01*
X155232142Y-97986904D02*
X155422619Y-98786904D01*
X155575000Y-98215476D01*
X155727380Y-98786904D01*
X155917857Y-97986904D01*
X156641666Y-98786904D02*
X156184523Y-98786904D01*
X156413095Y-98786904D02*
X156413095Y-97986904D01*
X156336904Y-98101190D01*
X156260714Y-98177380D01*
X156184523Y-98215476D01*
%TO.C,U1*%
X184291904Y-103479523D02*
X184939523Y-103479523D01*
X185015714Y-103441428D01*
X185053809Y-103403333D01*
X185091904Y-103327142D01*
X185091904Y-103174761D01*
X185053809Y-103098571D01*
X185015714Y-103060476D01*
X184939523Y-103022380D01*
X184291904Y-103022380D01*
X185091904Y-102222380D02*
X185091904Y-102679523D01*
X185091904Y-102450952D02*
X184291904Y-102450952D01*
X184406190Y-102527142D01*
X184482380Y-102603333D01*
X184520476Y-102679523D01*
%TO.C,J5*%
X153866904Y-101866666D02*
X154438333Y-101866666D01*
X154552619Y-101904761D01*
X154628809Y-101980952D01*
X154666904Y-102095238D01*
X154666904Y-102171428D01*
X153866904Y-101104761D02*
X153866904Y-101485714D01*
X154247857Y-101523809D01*
X154209761Y-101485714D01*
X154171666Y-101409523D01*
X154171666Y-101219047D01*
X154209761Y-101142857D01*
X154247857Y-101104761D01*
X154324047Y-101066666D01*
X154514523Y-101066666D01*
X154590714Y-101104761D01*
X154628809Y-101142857D01*
X154666904Y-101219047D01*
X154666904Y-101409523D01*
X154628809Y-101485714D01*
X154590714Y-101523809D01*
%TO.C,D1*%
X194671904Y-104730476D02*
X193871904Y-104730476D01*
X193871904Y-104540000D01*
X193910000Y-104425714D01*
X193986190Y-104349523D01*
X194062380Y-104311428D01*
X194214761Y-104273333D01*
X194329047Y-104273333D01*
X194481428Y-104311428D01*
X194557619Y-104349523D01*
X194633809Y-104425714D01*
X194671904Y-104540000D01*
X194671904Y-104730476D01*
X194671904Y-103511428D02*
X194671904Y-103968571D01*
X194671904Y-103740000D02*
X193871904Y-103740000D01*
X193986190Y-103816190D01*
X194062380Y-103892380D01*
X194100476Y-103968571D01*
%TO.C,C6*%
X169295714Y-98558333D02*
X169333809Y-98596428D01*
X169371904Y-98710714D01*
X169371904Y-98786904D01*
X169333809Y-98901190D01*
X169257619Y-98977380D01*
X169181428Y-99015476D01*
X169029047Y-99053571D01*
X168914761Y-99053571D01*
X168762380Y-99015476D01*
X168686190Y-98977380D01*
X168610000Y-98901190D01*
X168571904Y-98786904D01*
X168571904Y-98710714D01*
X168610000Y-98596428D01*
X168648095Y-98558333D01*
X168571904Y-97872619D02*
X168571904Y-98025000D01*
X168610000Y-98101190D01*
X168648095Y-98139285D01*
X168762380Y-98215476D01*
X168914761Y-98253571D01*
X169219523Y-98253571D01*
X169295714Y-98215476D01*
X169333809Y-98177380D01*
X169371904Y-98101190D01*
X169371904Y-97948809D01*
X169333809Y-97872619D01*
X169295714Y-97834523D01*
X169219523Y-97796428D01*
X169029047Y-97796428D01*
X168952857Y-97834523D01*
X168914761Y-97872619D01*
X168876666Y-97948809D01*
X168876666Y-98101190D01*
X168914761Y-98177380D01*
X168952857Y-98215476D01*
X169029047Y-98253571D01*
%TO.C,C5*%
X170196666Y-107600714D02*
X170158571Y-107638809D01*
X170044285Y-107676904D01*
X169968095Y-107676904D01*
X169853809Y-107638809D01*
X169777619Y-107562619D01*
X169739523Y-107486428D01*
X169701428Y-107334047D01*
X169701428Y-107219761D01*
X169739523Y-107067380D01*
X169777619Y-106991190D01*
X169853809Y-106915000D01*
X169968095Y-106876904D01*
X170044285Y-106876904D01*
X170158571Y-106915000D01*
X170196666Y-106953095D01*
X170920476Y-106876904D02*
X170539523Y-106876904D01*
X170501428Y-107257857D01*
X170539523Y-107219761D01*
X170615714Y-107181666D01*
X170806190Y-107181666D01*
X170882380Y-107219761D01*
X170920476Y-107257857D01*
X170958571Y-107334047D01*
X170958571Y-107524523D01*
X170920476Y-107600714D01*
X170882380Y-107638809D01*
X170806190Y-107676904D01*
X170615714Y-107676904D01*
X170539523Y-107638809D01*
X170501428Y-107600714D01*
%TO.C,C4*%
X180691666Y-96170714D02*
X180653571Y-96208809D01*
X180539285Y-96246904D01*
X180463095Y-96246904D01*
X180348809Y-96208809D01*
X180272619Y-96132619D01*
X180234523Y-96056428D01*
X180196428Y-95904047D01*
X180196428Y-95789761D01*
X180234523Y-95637380D01*
X180272619Y-95561190D01*
X180348809Y-95485000D01*
X180463095Y-95446904D01*
X180539285Y-95446904D01*
X180653571Y-95485000D01*
X180691666Y-95523095D01*
X181377380Y-95713571D02*
X181377380Y-96246904D01*
X181186904Y-95408809D02*
X180996428Y-95980238D01*
X181491666Y-95980238D01*
%TO.C,C3*%
X183800714Y-101733333D02*
X183838809Y-101771428D01*
X183876904Y-101885714D01*
X183876904Y-101961904D01*
X183838809Y-102076190D01*
X183762619Y-102152380D01*
X183686428Y-102190476D01*
X183534047Y-102228571D01*
X183419761Y-102228571D01*
X183267380Y-102190476D01*
X183191190Y-102152380D01*
X183115000Y-102076190D01*
X183076904Y-101961904D01*
X183076904Y-101885714D01*
X183115000Y-101771428D01*
X183153095Y-101733333D01*
X183076904Y-101466666D02*
X183076904Y-100971428D01*
X183381666Y-101238095D01*
X183381666Y-101123809D01*
X183419761Y-101047619D01*
X183457857Y-101009523D01*
X183534047Y-100971428D01*
X183724523Y-100971428D01*
X183800714Y-101009523D01*
X183838809Y-101047619D01*
X183876904Y-101123809D01*
X183876904Y-101352380D01*
X183838809Y-101428571D01*
X183800714Y-101466666D01*
%TO.C,C2*%
X181895714Y-104908333D02*
X181933809Y-104946428D01*
X181971904Y-105060714D01*
X181971904Y-105136904D01*
X181933809Y-105251190D01*
X181857619Y-105327380D01*
X181781428Y-105365476D01*
X181629047Y-105403571D01*
X181514761Y-105403571D01*
X181362380Y-105365476D01*
X181286190Y-105327380D01*
X181210000Y-105251190D01*
X181171904Y-105136904D01*
X181171904Y-105060714D01*
X181210000Y-104946428D01*
X181248095Y-104908333D01*
X181248095Y-104603571D02*
X181210000Y-104565476D01*
X181171904Y-104489285D01*
X181171904Y-104298809D01*
X181210000Y-104222619D01*
X181248095Y-104184523D01*
X181324285Y-104146428D01*
X181400476Y-104146428D01*
X181514761Y-104184523D01*
X181971904Y-104641666D01*
X181971904Y-104146428D01*
%TO.C,C1*%
X194176666Y-103790714D02*
X194138571Y-103828809D01*
X194024285Y-103866904D01*
X193948095Y-103866904D01*
X193833809Y-103828809D01*
X193757619Y-103752619D01*
X193719523Y-103676428D01*
X193681428Y-103524047D01*
X193681428Y-103409761D01*
X193719523Y-103257380D01*
X193757619Y-103181190D01*
X193833809Y-103105000D01*
X193948095Y-103066904D01*
X194024285Y-103066904D01*
X194138571Y-103105000D01*
X194176666Y-103143095D01*
X194938571Y-103866904D02*
X194481428Y-103866904D01*
X194710000Y-103866904D02*
X194710000Y-103066904D01*
X194633809Y-103181190D01*
X194557619Y-103257380D01*
X194481428Y-103295476D01*
%TD*%
M02*
