M48
; DRILL file {KiCad 5.1.6+dfsg1-1} date Wed Jul  1 20:33:02 2020
; FORMAT={-:-/ absolute / inch / decimal}
; #@! TF.CreationDate,2020-07-01T20:33:02+08:00
; #@! TF.GenerationSoftware,Kicad,Pcbnew,5.1.6+dfsg1-1
; #@! TF.FileFunction,Plated,1,2,PTH
FMAT,2
INCH
T1C0.0138
T2C0.0236
T3C0.0394
%
G90
G05
T1
X6.6Y-4.1
X6.65Y-3.9
X7.0Y-3.95
X7.0Y-4.05
X7.05Y-4.0
X7.1Y-3.95
X7.1Y-4.05
X7.2Y-3.81
X7.24Y-3.81
X7.475Y-4.15
X7.475Y-4.2
X7.5241Y-4.0741
X7.525Y-4.15
X7.575Y-4.15
X7.575Y-4.2
X7.85Y-3.975
X7.85Y-4.025
T3
X6.025Y-3.85
X6.025Y-3.95
X6.025Y-4.05
X6.025Y-4.15
X6.05Y-4.3
X6.15Y-4.3
X6.25Y-4.3
X6.35Y-4.3
X6.45Y-4.3
X6.55Y-4.3
X6.65Y-4.3
X6.75Y-4.3
X6.85Y-4.3
X6.95Y-4.3
X7.05Y-4.3
X7.15Y-4.3
X7.25Y-4.3
X7.35Y-4.3
X7.45Y-4.3
X7.55Y-4.3
X7.65Y-4.3
X7.75Y-4.3
X7.85Y-4.3
X7.95Y-4.3
X6.05Y-3.7
X6.15Y-3.7
X6.25Y-3.7
X6.35Y-3.7
X6.45Y-3.7
X6.55Y-3.7
X6.65Y-3.7
X6.75Y-3.7
X6.85Y-3.7
X6.95Y-3.7
X7.05Y-3.7
X7.15Y-3.7
X7.25Y-3.7
X7.35Y-3.7
X7.45Y-3.7
X7.55Y-3.7
X7.65Y-3.7
X7.75Y-3.7
X7.85Y-3.7
X7.95Y-3.7
T2
G00X7.7801Y-3.8299
M15
G01X7.8234Y-3.8299
M16
G05
G00X7.7801Y-4.1701
M15
G01X7.8234Y-4.1701
M16
G05
G00X7.9545Y-3.8299
M15
G01X7.9781Y-3.8299
M16
G05
G00X7.9545Y-4.1701
M15
G01X7.9781Y-4.1701
M16
G05
T0
M30
