%TF.GenerationSoftware,KiCad,Pcbnew,5.1.6+dfsg1-1*%
%TF.CreationDate,2020-07-03T14:15:03+08:00*%
%TF.ProjectId,stm32devmini,73746d33-3264-4657-966d-696e692e6b69,a*%
%TF.SameCoordinates,Original*%
%TF.FileFunction,Paste,Top*%
%TF.FilePolarity,Positive*%
%FSLAX46Y46*%
G04 Gerber Fmt 4.6, Leading zero omitted, Abs format (unit mm)*
G04 Created by KiCad (PCBNEW 5.1.6+dfsg1-1) date 2020-07-03 14:15:03*
%MOMM*%
%LPD*%
G01*
G04 APERTURE LIST*
%ADD10R,1.700000X1.000000*%
%ADD11R,0.800000X0.900000*%
%ADD12R,1.000000X1.800000*%
%ADD13R,2.400000X1.900000*%
%ADD14R,1.200000X0.900000*%
G04 APERTURE END LIST*
%TO.C,R3*%
G36*
G01*
X200850000Y-103042500D02*
X200850000Y-102697500D01*
G75*
G02*
X200997500Y-102550000I147500J0D01*
G01*
X201292500Y-102550000D01*
G75*
G02*
X201440000Y-102697500I0J-147500D01*
G01*
X201440000Y-103042500D01*
G75*
G02*
X201292500Y-103190000I-147500J0D01*
G01*
X200997500Y-103190000D01*
G75*
G02*
X200850000Y-103042500I0J147500D01*
G01*
G37*
G36*
G01*
X199880000Y-103042500D02*
X199880000Y-102697500D01*
G75*
G02*
X200027500Y-102550000I147500J0D01*
G01*
X200322500Y-102550000D01*
G75*
G02*
X200470000Y-102697500I0J-147500D01*
G01*
X200470000Y-103042500D01*
G75*
G02*
X200322500Y-103190000I-147500J0D01*
G01*
X200027500Y-103190000D01*
G75*
G02*
X199880000Y-103042500I0J147500D01*
G01*
G37*
%TD*%
%TO.C,R2*%
G36*
G01*
X200850000Y-101772500D02*
X200850000Y-101427500D01*
G75*
G02*
X200997500Y-101280000I147500J0D01*
G01*
X201292500Y-101280000D01*
G75*
G02*
X201440000Y-101427500I0J-147500D01*
G01*
X201440000Y-101772500D01*
G75*
G02*
X201292500Y-101920000I-147500J0D01*
G01*
X200997500Y-101920000D01*
G75*
G02*
X200850000Y-101772500I0J147500D01*
G01*
G37*
G36*
G01*
X199880000Y-101772500D02*
X199880000Y-101427500D01*
G75*
G02*
X200027500Y-101280000I147500J0D01*
G01*
X200322500Y-101280000D01*
G75*
G02*
X200470000Y-101427500I0J-147500D01*
G01*
X200470000Y-101772500D01*
G75*
G02*
X200322500Y-101920000I-147500J0D01*
G01*
X200027500Y-101920000D01*
G75*
G02*
X199880000Y-101772500I0J147500D01*
G01*
G37*
%TD*%
%TO.C,R1*%
G36*
G01*
X200850000Y-100502500D02*
X200850000Y-100157500D01*
G75*
G02*
X200997500Y-100010000I147500J0D01*
G01*
X201292500Y-100010000D01*
G75*
G02*
X201440000Y-100157500I0J-147500D01*
G01*
X201440000Y-100502500D01*
G75*
G02*
X201292500Y-100650000I-147500J0D01*
G01*
X200997500Y-100650000D01*
G75*
G02*
X200850000Y-100502500I0J147500D01*
G01*
G37*
G36*
G01*
X199880000Y-100502500D02*
X199880000Y-100157500D01*
G75*
G02*
X200027500Y-100010000I147500J0D01*
G01*
X200322500Y-100010000D01*
G75*
G02*
X200470000Y-100157500I0J-147500D01*
G01*
X200470000Y-100502500D01*
G75*
G02*
X200322500Y-100650000I-147500J0D01*
G01*
X200027500Y-100650000D01*
G75*
G02*
X199880000Y-100502500I0J147500D01*
G01*
G37*
%TD*%
D10*
%TO.C,SW1*%
X156235000Y-102875000D03*
X162535000Y-102875000D03*
X156235000Y-106675000D03*
X162535000Y-106675000D03*
%TD*%
%TO.C,SW2*%
X156235000Y-96525000D03*
X162535000Y-96525000D03*
X156235000Y-100325000D03*
X162535000Y-100325000D03*
%TD*%
D11*
%TO.C,U1*%
X191135000Y-106410000D03*
X190185000Y-104410000D03*
X192085000Y-104410000D03*
%TD*%
%TO.C,C4*%
G36*
G01*
X164292500Y-99885000D02*
X164637500Y-99885000D01*
G75*
G02*
X164785000Y-100032500I0J-147500D01*
G01*
X164785000Y-100327500D01*
G75*
G02*
X164637500Y-100475000I-147500J0D01*
G01*
X164292500Y-100475000D01*
G75*
G02*
X164145000Y-100327500I0J147500D01*
G01*
X164145000Y-100032500D01*
G75*
G02*
X164292500Y-99885000I147500J0D01*
G01*
G37*
G36*
G01*
X164292500Y-98915000D02*
X164637500Y-98915000D01*
G75*
G02*
X164785000Y-99062500I0J-147500D01*
G01*
X164785000Y-99357500D01*
G75*
G02*
X164637500Y-99505000I-147500J0D01*
G01*
X164292500Y-99505000D01*
G75*
G02*
X164145000Y-99357500I0J147500D01*
G01*
X164145000Y-99062500D01*
G75*
G02*
X164292500Y-98915000I147500J0D01*
G01*
G37*
%TD*%
%TO.C,R5*%
G36*
G01*
X200850000Y-99232500D02*
X200850000Y-98887500D01*
G75*
G02*
X200997500Y-98740000I147500J0D01*
G01*
X201292500Y-98740000D01*
G75*
G02*
X201440000Y-98887500I0J-147500D01*
G01*
X201440000Y-99232500D01*
G75*
G02*
X201292500Y-99380000I-147500J0D01*
G01*
X200997500Y-99380000D01*
G75*
G02*
X200850000Y-99232500I0J147500D01*
G01*
G37*
G36*
G01*
X199880000Y-99232500D02*
X199880000Y-98887500D01*
G75*
G02*
X200027500Y-98740000I147500J0D01*
G01*
X200322500Y-98740000D01*
G75*
G02*
X200470000Y-98887500I0J-147500D01*
G01*
X200470000Y-99232500D01*
G75*
G02*
X200322500Y-99380000I-147500J0D01*
G01*
X200027500Y-99380000D01*
G75*
G02*
X199880000Y-99232500I0J147500D01*
G01*
G37*
%TD*%
%TO.C,U2*%
G36*
G01*
X174544516Y-101175736D02*
X173607600Y-100238820D01*
G75*
G02*
X173607600Y-100132754I53033J53033D01*
G01*
X173713666Y-100026688D01*
G75*
G02*
X173819732Y-100026688I53033J-53033D01*
G01*
X174756648Y-100963604D01*
G75*
G02*
X174756648Y-101069670I-53033J-53033D01*
G01*
X174650582Y-101175736D01*
G75*
G02*
X174544516Y-101175736I-53033J53033D01*
G01*
G37*
G36*
G01*
X174898070Y-100822182D02*
X173961154Y-99885266D01*
G75*
G02*
X173961154Y-99779200I53033J53033D01*
G01*
X174067220Y-99673134D01*
G75*
G02*
X174173286Y-99673134I53033J-53033D01*
G01*
X175110202Y-100610050D01*
G75*
G02*
X175110202Y-100716116I-53033J-53033D01*
G01*
X175004136Y-100822182D01*
G75*
G02*
X174898070Y-100822182I-53033J53033D01*
G01*
G37*
G36*
G01*
X175251623Y-100468629D02*
X174314707Y-99531713D01*
G75*
G02*
X174314707Y-99425647I53033J53033D01*
G01*
X174420773Y-99319581D01*
G75*
G02*
X174526839Y-99319581I53033J-53033D01*
G01*
X175463755Y-100256497D01*
G75*
G02*
X175463755Y-100362563I-53033J-53033D01*
G01*
X175357689Y-100468629D01*
G75*
G02*
X175251623Y-100468629I-53033J53033D01*
G01*
G37*
G36*
G01*
X175605177Y-100115075D02*
X174668261Y-99178159D01*
G75*
G02*
X174668261Y-99072093I53033J53033D01*
G01*
X174774327Y-98966027D01*
G75*
G02*
X174880393Y-98966027I53033J-53033D01*
G01*
X175817309Y-99902943D01*
G75*
G02*
X175817309Y-100009009I-53033J-53033D01*
G01*
X175711243Y-100115075D01*
G75*
G02*
X175605177Y-100115075I-53033J53033D01*
G01*
G37*
G36*
G01*
X175958730Y-99761522D02*
X175021814Y-98824606D01*
G75*
G02*
X175021814Y-98718540I53033J53033D01*
G01*
X175127880Y-98612474D01*
G75*
G02*
X175233946Y-98612474I53033J-53033D01*
G01*
X176170862Y-99549390D01*
G75*
G02*
X176170862Y-99655456I-53033J-53033D01*
G01*
X176064796Y-99761522D01*
G75*
G02*
X175958730Y-99761522I-53033J53033D01*
G01*
G37*
G36*
G01*
X176312283Y-99407969D02*
X175375367Y-98471053D01*
G75*
G02*
X175375367Y-98364987I53033J53033D01*
G01*
X175481433Y-98258921D01*
G75*
G02*
X175587499Y-98258921I53033J-53033D01*
G01*
X176524415Y-99195837D01*
G75*
G02*
X176524415Y-99301903I-53033J-53033D01*
G01*
X176418349Y-99407969D01*
G75*
G02*
X176312283Y-99407969I-53033J53033D01*
G01*
G37*
G36*
G01*
X176665837Y-99054415D02*
X175728921Y-98117499D01*
G75*
G02*
X175728921Y-98011433I53033J53033D01*
G01*
X175834987Y-97905367D01*
G75*
G02*
X175941053Y-97905367I53033J-53033D01*
G01*
X176877969Y-98842283D01*
G75*
G02*
X176877969Y-98948349I-53033J-53033D01*
G01*
X176771903Y-99054415D01*
G75*
G02*
X176665837Y-99054415I-53033J53033D01*
G01*
G37*
G36*
G01*
X177019390Y-98700862D02*
X176082474Y-97763946D01*
G75*
G02*
X176082474Y-97657880I53033J53033D01*
G01*
X176188540Y-97551814D01*
G75*
G02*
X176294606Y-97551814I53033J-53033D01*
G01*
X177231522Y-98488730D01*
G75*
G02*
X177231522Y-98594796I-53033J-53033D01*
G01*
X177125456Y-98700862D01*
G75*
G02*
X177019390Y-98700862I-53033J53033D01*
G01*
G37*
G36*
G01*
X177372943Y-98347309D02*
X176436027Y-97410393D01*
G75*
G02*
X176436027Y-97304327I53033J53033D01*
G01*
X176542093Y-97198261D01*
G75*
G02*
X176648159Y-97198261I53033J-53033D01*
G01*
X177585075Y-98135177D01*
G75*
G02*
X177585075Y-98241243I-53033J-53033D01*
G01*
X177479009Y-98347309D01*
G75*
G02*
X177372943Y-98347309I-53033J53033D01*
G01*
G37*
G36*
G01*
X177726497Y-97993755D02*
X176789581Y-97056839D01*
G75*
G02*
X176789581Y-96950773I53033J53033D01*
G01*
X176895647Y-96844707D01*
G75*
G02*
X177001713Y-96844707I53033J-53033D01*
G01*
X177938629Y-97781623D01*
G75*
G02*
X177938629Y-97887689I-53033J-53033D01*
G01*
X177832563Y-97993755D01*
G75*
G02*
X177726497Y-97993755I-53033J53033D01*
G01*
G37*
G36*
G01*
X178080050Y-97640202D02*
X177143134Y-96703286D01*
G75*
G02*
X177143134Y-96597220I53033J53033D01*
G01*
X177249200Y-96491154D01*
G75*
G02*
X177355266Y-96491154I53033J-53033D01*
G01*
X178292182Y-97428070D01*
G75*
G02*
X178292182Y-97534136I-53033J-53033D01*
G01*
X178186116Y-97640202D01*
G75*
G02*
X178080050Y-97640202I-53033J53033D01*
G01*
G37*
G36*
G01*
X178433604Y-97286648D02*
X177496688Y-96349732D01*
G75*
G02*
X177496688Y-96243666I53033J53033D01*
G01*
X177602754Y-96137600D01*
G75*
G02*
X177708820Y-96137600I53033J-53033D01*
G01*
X178645736Y-97074516D01*
G75*
G02*
X178645736Y-97180582I-53033J-53033D01*
G01*
X178539670Y-97286648D01*
G75*
G02*
X178433604Y-97286648I-53033J53033D01*
G01*
G37*
G36*
G01*
X179600330Y-97286648D02*
X179494264Y-97180582D01*
G75*
G02*
X179494264Y-97074516I53033J53033D01*
G01*
X180431180Y-96137600D01*
G75*
G02*
X180537246Y-96137600I53033J-53033D01*
G01*
X180643312Y-96243666D01*
G75*
G02*
X180643312Y-96349732I-53033J-53033D01*
G01*
X179706396Y-97286648D01*
G75*
G02*
X179600330Y-97286648I-53033J53033D01*
G01*
G37*
G36*
G01*
X179953884Y-97640202D02*
X179847818Y-97534136D01*
G75*
G02*
X179847818Y-97428070I53033J53033D01*
G01*
X180784734Y-96491154D01*
G75*
G02*
X180890800Y-96491154I53033J-53033D01*
G01*
X180996866Y-96597220D01*
G75*
G02*
X180996866Y-96703286I-53033J-53033D01*
G01*
X180059950Y-97640202D01*
G75*
G02*
X179953884Y-97640202I-53033J53033D01*
G01*
G37*
G36*
G01*
X180307437Y-97993755D02*
X180201371Y-97887689D01*
G75*
G02*
X180201371Y-97781623I53033J53033D01*
G01*
X181138287Y-96844707D01*
G75*
G02*
X181244353Y-96844707I53033J-53033D01*
G01*
X181350419Y-96950773D01*
G75*
G02*
X181350419Y-97056839I-53033J-53033D01*
G01*
X180413503Y-97993755D01*
G75*
G02*
X180307437Y-97993755I-53033J53033D01*
G01*
G37*
G36*
G01*
X180660991Y-98347309D02*
X180554925Y-98241243D01*
G75*
G02*
X180554925Y-98135177I53033J53033D01*
G01*
X181491841Y-97198261D01*
G75*
G02*
X181597907Y-97198261I53033J-53033D01*
G01*
X181703973Y-97304327D01*
G75*
G02*
X181703973Y-97410393I-53033J-53033D01*
G01*
X180767057Y-98347309D01*
G75*
G02*
X180660991Y-98347309I-53033J53033D01*
G01*
G37*
G36*
G01*
X181014544Y-98700862D02*
X180908478Y-98594796D01*
G75*
G02*
X180908478Y-98488730I53033J53033D01*
G01*
X181845394Y-97551814D01*
G75*
G02*
X181951460Y-97551814I53033J-53033D01*
G01*
X182057526Y-97657880D01*
G75*
G02*
X182057526Y-97763946I-53033J-53033D01*
G01*
X181120610Y-98700862D01*
G75*
G02*
X181014544Y-98700862I-53033J53033D01*
G01*
G37*
G36*
G01*
X181368097Y-99054415D02*
X181262031Y-98948349D01*
G75*
G02*
X181262031Y-98842283I53033J53033D01*
G01*
X182198947Y-97905367D01*
G75*
G02*
X182305013Y-97905367I53033J-53033D01*
G01*
X182411079Y-98011433D01*
G75*
G02*
X182411079Y-98117499I-53033J-53033D01*
G01*
X181474163Y-99054415D01*
G75*
G02*
X181368097Y-99054415I-53033J53033D01*
G01*
G37*
G36*
G01*
X181721651Y-99407969D02*
X181615585Y-99301903D01*
G75*
G02*
X181615585Y-99195837I53033J53033D01*
G01*
X182552501Y-98258921D01*
G75*
G02*
X182658567Y-98258921I53033J-53033D01*
G01*
X182764633Y-98364987D01*
G75*
G02*
X182764633Y-98471053I-53033J-53033D01*
G01*
X181827717Y-99407969D01*
G75*
G02*
X181721651Y-99407969I-53033J53033D01*
G01*
G37*
G36*
G01*
X182075204Y-99761522D02*
X181969138Y-99655456D01*
G75*
G02*
X181969138Y-99549390I53033J53033D01*
G01*
X182906054Y-98612474D01*
G75*
G02*
X183012120Y-98612474I53033J-53033D01*
G01*
X183118186Y-98718540D01*
G75*
G02*
X183118186Y-98824606I-53033J-53033D01*
G01*
X182181270Y-99761522D01*
G75*
G02*
X182075204Y-99761522I-53033J53033D01*
G01*
G37*
G36*
G01*
X182428757Y-100115075D02*
X182322691Y-100009009D01*
G75*
G02*
X182322691Y-99902943I53033J53033D01*
G01*
X183259607Y-98966027D01*
G75*
G02*
X183365673Y-98966027I53033J-53033D01*
G01*
X183471739Y-99072093D01*
G75*
G02*
X183471739Y-99178159I-53033J-53033D01*
G01*
X182534823Y-100115075D01*
G75*
G02*
X182428757Y-100115075I-53033J53033D01*
G01*
G37*
G36*
G01*
X182782311Y-100468629D02*
X182676245Y-100362563D01*
G75*
G02*
X182676245Y-100256497I53033J53033D01*
G01*
X183613161Y-99319581D01*
G75*
G02*
X183719227Y-99319581I53033J-53033D01*
G01*
X183825293Y-99425647D01*
G75*
G02*
X183825293Y-99531713I-53033J-53033D01*
G01*
X182888377Y-100468629D01*
G75*
G02*
X182782311Y-100468629I-53033J53033D01*
G01*
G37*
G36*
G01*
X183135864Y-100822182D02*
X183029798Y-100716116D01*
G75*
G02*
X183029798Y-100610050I53033J53033D01*
G01*
X183966714Y-99673134D01*
G75*
G02*
X184072780Y-99673134I53033J-53033D01*
G01*
X184178846Y-99779200D01*
G75*
G02*
X184178846Y-99885266I-53033J-53033D01*
G01*
X183241930Y-100822182D01*
G75*
G02*
X183135864Y-100822182I-53033J53033D01*
G01*
G37*
G36*
G01*
X183489418Y-101175736D02*
X183383352Y-101069670D01*
G75*
G02*
X183383352Y-100963604I53033J53033D01*
G01*
X184320268Y-100026688D01*
G75*
G02*
X184426334Y-100026688I53033J-53033D01*
G01*
X184532400Y-100132754D01*
G75*
G02*
X184532400Y-100238820I-53033J-53033D01*
G01*
X183595484Y-101175736D01*
G75*
G02*
X183489418Y-101175736I-53033J53033D01*
G01*
G37*
G36*
G01*
X184320268Y-103173312D02*
X183383352Y-102236396D01*
G75*
G02*
X183383352Y-102130330I53033J53033D01*
G01*
X183489418Y-102024264D01*
G75*
G02*
X183595484Y-102024264I53033J-53033D01*
G01*
X184532400Y-102961180D01*
G75*
G02*
X184532400Y-103067246I-53033J-53033D01*
G01*
X184426334Y-103173312D01*
G75*
G02*
X184320268Y-103173312I-53033J53033D01*
G01*
G37*
G36*
G01*
X183966714Y-103526866D02*
X183029798Y-102589950D01*
G75*
G02*
X183029798Y-102483884I53033J53033D01*
G01*
X183135864Y-102377818D01*
G75*
G02*
X183241930Y-102377818I53033J-53033D01*
G01*
X184178846Y-103314734D01*
G75*
G02*
X184178846Y-103420800I-53033J-53033D01*
G01*
X184072780Y-103526866D01*
G75*
G02*
X183966714Y-103526866I-53033J53033D01*
G01*
G37*
G36*
G01*
X183613161Y-103880419D02*
X182676245Y-102943503D01*
G75*
G02*
X182676245Y-102837437I53033J53033D01*
G01*
X182782311Y-102731371D01*
G75*
G02*
X182888377Y-102731371I53033J-53033D01*
G01*
X183825293Y-103668287D01*
G75*
G02*
X183825293Y-103774353I-53033J-53033D01*
G01*
X183719227Y-103880419D01*
G75*
G02*
X183613161Y-103880419I-53033J53033D01*
G01*
G37*
G36*
G01*
X183259607Y-104233973D02*
X182322691Y-103297057D01*
G75*
G02*
X182322691Y-103190991I53033J53033D01*
G01*
X182428757Y-103084925D01*
G75*
G02*
X182534823Y-103084925I53033J-53033D01*
G01*
X183471739Y-104021841D01*
G75*
G02*
X183471739Y-104127907I-53033J-53033D01*
G01*
X183365673Y-104233973D01*
G75*
G02*
X183259607Y-104233973I-53033J53033D01*
G01*
G37*
G36*
G01*
X182906054Y-104587526D02*
X181969138Y-103650610D01*
G75*
G02*
X181969138Y-103544544I53033J53033D01*
G01*
X182075204Y-103438478D01*
G75*
G02*
X182181270Y-103438478I53033J-53033D01*
G01*
X183118186Y-104375394D01*
G75*
G02*
X183118186Y-104481460I-53033J-53033D01*
G01*
X183012120Y-104587526D01*
G75*
G02*
X182906054Y-104587526I-53033J53033D01*
G01*
G37*
G36*
G01*
X182552501Y-104941079D02*
X181615585Y-104004163D01*
G75*
G02*
X181615585Y-103898097I53033J53033D01*
G01*
X181721651Y-103792031D01*
G75*
G02*
X181827717Y-103792031I53033J-53033D01*
G01*
X182764633Y-104728947D01*
G75*
G02*
X182764633Y-104835013I-53033J-53033D01*
G01*
X182658567Y-104941079D01*
G75*
G02*
X182552501Y-104941079I-53033J53033D01*
G01*
G37*
G36*
G01*
X182198947Y-105294633D02*
X181262031Y-104357717D01*
G75*
G02*
X181262031Y-104251651I53033J53033D01*
G01*
X181368097Y-104145585D01*
G75*
G02*
X181474163Y-104145585I53033J-53033D01*
G01*
X182411079Y-105082501D01*
G75*
G02*
X182411079Y-105188567I-53033J-53033D01*
G01*
X182305013Y-105294633D01*
G75*
G02*
X182198947Y-105294633I-53033J53033D01*
G01*
G37*
G36*
G01*
X181845394Y-105648186D02*
X180908478Y-104711270D01*
G75*
G02*
X180908478Y-104605204I53033J53033D01*
G01*
X181014544Y-104499138D01*
G75*
G02*
X181120610Y-104499138I53033J-53033D01*
G01*
X182057526Y-105436054D01*
G75*
G02*
X182057526Y-105542120I-53033J-53033D01*
G01*
X181951460Y-105648186D01*
G75*
G02*
X181845394Y-105648186I-53033J53033D01*
G01*
G37*
G36*
G01*
X181491841Y-106001739D02*
X180554925Y-105064823D01*
G75*
G02*
X180554925Y-104958757I53033J53033D01*
G01*
X180660991Y-104852691D01*
G75*
G02*
X180767057Y-104852691I53033J-53033D01*
G01*
X181703973Y-105789607D01*
G75*
G02*
X181703973Y-105895673I-53033J-53033D01*
G01*
X181597907Y-106001739D01*
G75*
G02*
X181491841Y-106001739I-53033J53033D01*
G01*
G37*
G36*
G01*
X181138287Y-106355293D02*
X180201371Y-105418377D01*
G75*
G02*
X180201371Y-105312311I53033J53033D01*
G01*
X180307437Y-105206245D01*
G75*
G02*
X180413503Y-105206245I53033J-53033D01*
G01*
X181350419Y-106143161D01*
G75*
G02*
X181350419Y-106249227I-53033J-53033D01*
G01*
X181244353Y-106355293D01*
G75*
G02*
X181138287Y-106355293I-53033J53033D01*
G01*
G37*
G36*
G01*
X180784734Y-106708846D02*
X179847818Y-105771930D01*
G75*
G02*
X179847818Y-105665864I53033J53033D01*
G01*
X179953884Y-105559798D01*
G75*
G02*
X180059950Y-105559798I53033J-53033D01*
G01*
X180996866Y-106496714D01*
G75*
G02*
X180996866Y-106602780I-53033J-53033D01*
G01*
X180890800Y-106708846D01*
G75*
G02*
X180784734Y-106708846I-53033J53033D01*
G01*
G37*
G36*
G01*
X180431180Y-107062400D02*
X179494264Y-106125484D01*
G75*
G02*
X179494264Y-106019418I53033J53033D01*
G01*
X179600330Y-105913352D01*
G75*
G02*
X179706396Y-105913352I53033J-53033D01*
G01*
X180643312Y-106850268D01*
G75*
G02*
X180643312Y-106956334I-53033J-53033D01*
G01*
X180537246Y-107062400D01*
G75*
G02*
X180431180Y-107062400I-53033J53033D01*
G01*
G37*
G36*
G01*
X177602754Y-107062400D02*
X177496688Y-106956334D01*
G75*
G02*
X177496688Y-106850268I53033J53033D01*
G01*
X178433604Y-105913352D01*
G75*
G02*
X178539670Y-105913352I53033J-53033D01*
G01*
X178645736Y-106019418D01*
G75*
G02*
X178645736Y-106125484I-53033J-53033D01*
G01*
X177708820Y-107062400D01*
G75*
G02*
X177602754Y-107062400I-53033J53033D01*
G01*
G37*
G36*
G01*
X177249200Y-106708846D02*
X177143134Y-106602780D01*
G75*
G02*
X177143134Y-106496714I53033J53033D01*
G01*
X178080050Y-105559798D01*
G75*
G02*
X178186116Y-105559798I53033J-53033D01*
G01*
X178292182Y-105665864D01*
G75*
G02*
X178292182Y-105771930I-53033J-53033D01*
G01*
X177355266Y-106708846D01*
G75*
G02*
X177249200Y-106708846I-53033J53033D01*
G01*
G37*
G36*
G01*
X176895647Y-106355293D02*
X176789581Y-106249227D01*
G75*
G02*
X176789581Y-106143161I53033J53033D01*
G01*
X177726497Y-105206245D01*
G75*
G02*
X177832563Y-105206245I53033J-53033D01*
G01*
X177938629Y-105312311D01*
G75*
G02*
X177938629Y-105418377I-53033J-53033D01*
G01*
X177001713Y-106355293D01*
G75*
G02*
X176895647Y-106355293I-53033J53033D01*
G01*
G37*
G36*
G01*
X176542093Y-106001739D02*
X176436027Y-105895673D01*
G75*
G02*
X176436027Y-105789607I53033J53033D01*
G01*
X177372943Y-104852691D01*
G75*
G02*
X177479009Y-104852691I53033J-53033D01*
G01*
X177585075Y-104958757D01*
G75*
G02*
X177585075Y-105064823I-53033J-53033D01*
G01*
X176648159Y-106001739D01*
G75*
G02*
X176542093Y-106001739I-53033J53033D01*
G01*
G37*
G36*
G01*
X176188540Y-105648186D02*
X176082474Y-105542120D01*
G75*
G02*
X176082474Y-105436054I53033J53033D01*
G01*
X177019390Y-104499138D01*
G75*
G02*
X177125456Y-104499138I53033J-53033D01*
G01*
X177231522Y-104605204D01*
G75*
G02*
X177231522Y-104711270I-53033J-53033D01*
G01*
X176294606Y-105648186D01*
G75*
G02*
X176188540Y-105648186I-53033J53033D01*
G01*
G37*
G36*
G01*
X175834987Y-105294633D02*
X175728921Y-105188567D01*
G75*
G02*
X175728921Y-105082501I53033J53033D01*
G01*
X176665837Y-104145585D01*
G75*
G02*
X176771903Y-104145585I53033J-53033D01*
G01*
X176877969Y-104251651D01*
G75*
G02*
X176877969Y-104357717I-53033J-53033D01*
G01*
X175941053Y-105294633D01*
G75*
G02*
X175834987Y-105294633I-53033J53033D01*
G01*
G37*
G36*
G01*
X175481433Y-104941079D02*
X175375367Y-104835013D01*
G75*
G02*
X175375367Y-104728947I53033J53033D01*
G01*
X176312283Y-103792031D01*
G75*
G02*
X176418349Y-103792031I53033J-53033D01*
G01*
X176524415Y-103898097D01*
G75*
G02*
X176524415Y-104004163I-53033J-53033D01*
G01*
X175587499Y-104941079D01*
G75*
G02*
X175481433Y-104941079I-53033J53033D01*
G01*
G37*
G36*
G01*
X175127880Y-104587526D02*
X175021814Y-104481460D01*
G75*
G02*
X175021814Y-104375394I53033J53033D01*
G01*
X175958730Y-103438478D01*
G75*
G02*
X176064796Y-103438478I53033J-53033D01*
G01*
X176170862Y-103544544D01*
G75*
G02*
X176170862Y-103650610I-53033J-53033D01*
G01*
X175233946Y-104587526D01*
G75*
G02*
X175127880Y-104587526I-53033J53033D01*
G01*
G37*
G36*
G01*
X174774327Y-104233973D02*
X174668261Y-104127907D01*
G75*
G02*
X174668261Y-104021841I53033J53033D01*
G01*
X175605177Y-103084925D01*
G75*
G02*
X175711243Y-103084925I53033J-53033D01*
G01*
X175817309Y-103190991D01*
G75*
G02*
X175817309Y-103297057I-53033J-53033D01*
G01*
X174880393Y-104233973D01*
G75*
G02*
X174774327Y-104233973I-53033J53033D01*
G01*
G37*
G36*
G01*
X174420773Y-103880419D02*
X174314707Y-103774353D01*
G75*
G02*
X174314707Y-103668287I53033J53033D01*
G01*
X175251623Y-102731371D01*
G75*
G02*
X175357689Y-102731371I53033J-53033D01*
G01*
X175463755Y-102837437D01*
G75*
G02*
X175463755Y-102943503I-53033J-53033D01*
G01*
X174526839Y-103880419D01*
G75*
G02*
X174420773Y-103880419I-53033J53033D01*
G01*
G37*
G36*
G01*
X174067220Y-103526866D02*
X173961154Y-103420800D01*
G75*
G02*
X173961154Y-103314734I53033J53033D01*
G01*
X174898070Y-102377818D01*
G75*
G02*
X175004136Y-102377818I53033J-53033D01*
G01*
X175110202Y-102483884D01*
G75*
G02*
X175110202Y-102589950I-53033J-53033D01*
G01*
X174173286Y-103526866D01*
G75*
G02*
X174067220Y-103526866I-53033J53033D01*
G01*
G37*
G36*
G01*
X173713666Y-103173312D02*
X173607600Y-103067246D01*
G75*
G02*
X173607600Y-102961180I53033J53033D01*
G01*
X174544516Y-102024264D01*
G75*
G02*
X174650582Y-102024264I53033J-53033D01*
G01*
X174756648Y-102130330D01*
G75*
G02*
X174756648Y-102236396I-53033J-53033D01*
G01*
X173819732Y-103173312D01*
G75*
G02*
X173713666Y-103173312I-53033J53033D01*
G01*
G37*
%TD*%
%TO.C,C12*%
G36*
G01*
X166542500Y-98870000D02*
X166197500Y-98870000D01*
G75*
G02*
X166050000Y-98722500I0J147500D01*
G01*
X166050000Y-98427500D01*
G75*
G02*
X166197500Y-98280000I147500J0D01*
G01*
X166542500Y-98280000D01*
G75*
G02*
X166690000Y-98427500I0J-147500D01*
G01*
X166690000Y-98722500D01*
G75*
G02*
X166542500Y-98870000I-147500J0D01*
G01*
G37*
G36*
G01*
X166542500Y-99840000D02*
X166197500Y-99840000D01*
G75*
G02*
X166050000Y-99692500I0J147500D01*
G01*
X166050000Y-99397500D01*
G75*
G02*
X166197500Y-99250000I147500J0D01*
G01*
X166542500Y-99250000D01*
G75*
G02*
X166690000Y-99397500I0J-147500D01*
G01*
X166690000Y-99692500D01*
G75*
G02*
X166542500Y-99840000I-147500J0D01*
G01*
G37*
%TD*%
%TO.C,C11*%
G36*
G01*
X171622500Y-98870000D02*
X171277500Y-98870000D01*
G75*
G02*
X171130000Y-98722500I0J147500D01*
G01*
X171130000Y-98427500D01*
G75*
G02*
X171277500Y-98280000I147500J0D01*
G01*
X171622500Y-98280000D01*
G75*
G02*
X171770000Y-98427500I0J-147500D01*
G01*
X171770000Y-98722500D01*
G75*
G02*
X171622500Y-98870000I-147500J0D01*
G01*
G37*
G36*
G01*
X171622500Y-99840000D02*
X171277500Y-99840000D01*
G75*
G02*
X171130000Y-99692500I0J147500D01*
G01*
X171130000Y-99397500D01*
G75*
G02*
X171277500Y-99250000I147500J0D01*
G01*
X171622500Y-99250000D01*
G75*
G02*
X171770000Y-99397500I0J-147500D01*
G01*
X171770000Y-99692500D01*
G75*
G02*
X171622500Y-99840000I-147500J0D01*
G01*
G37*
%TD*%
D12*
%TO.C,Y2*%
X167660000Y-99060000D03*
X170160000Y-99060000D03*
%TD*%
D13*
%TO.C,Y1*%
X168910000Y-106190000D03*
X168910000Y-102090000D03*
%TD*%
%TO.C,C7*%
G36*
G01*
X166542500Y-105855000D02*
X166197500Y-105855000D01*
G75*
G02*
X166050000Y-105707500I0J147500D01*
G01*
X166050000Y-105412500D01*
G75*
G02*
X166197500Y-105265000I147500J0D01*
G01*
X166542500Y-105265000D01*
G75*
G02*
X166690000Y-105412500I0J-147500D01*
G01*
X166690000Y-105707500D01*
G75*
G02*
X166542500Y-105855000I-147500J0D01*
G01*
G37*
G36*
G01*
X166542500Y-106825000D02*
X166197500Y-106825000D01*
G75*
G02*
X166050000Y-106677500I0J147500D01*
G01*
X166050000Y-106382500D01*
G75*
G02*
X166197500Y-106235000I147500J0D01*
G01*
X166542500Y-106235000D01*
G75*
G02*
X166690000Y-106382500I0J-147500D01*
G01*
X166690000Y-106677500D01*
G75*
G02*
X166542500Y-106825000I-147500J0D01*
G01*
G37*
%TD*%
%TO.C,C5*%
G36*
G01*
X166197500Y-102425000D02*
X166542500Y-102425000D01*
G75*
G02*
X166690000Y-102572500I0J-147500D01*
G01*
X166690000Y-102867500D01*
G75*
G02*
X166542500Y-103015000I-147500J0D01*
G01*
X166197500Y-103015000D01*
G75*
G02*
X166050000Y-102867500I0J147500D01*
G01*
X166050000Y-102572500D01*
G75*
G02*
X166197500Y-102425000I147500J0D01*
G01*
G37*
G36*
G01*
X166197500Y-101455000D02*
X166542500Y-101455000D01*
G75*
G02*
X166690000Y-101602500I0J-147500D01*
G01*
X166690000Y-101897500D01*
G75*
G02*
X166542500Y-102045000I-147500J0D01*
G01*
X166197500Y-102045000D01*
G75*
G02*
X166050000Y-101897500I0J147500D01*
G01*
X166050000Y-101602500D01*
G75*
G02*
X166197500Y-101455000I147500J0D01*
G01*
G37*
%TD*%
%TO.C,R4*%
G36*
G01*
X200850000Y-104312500D02*
X200850000Y-103967500D01*
G75*
G02*
X200997500Y-103820000I147500J0D01*
G01*
X201292500Y-103820000D01*
G75*
G02*
X201440000Y-103967500I0J-147500D01*
G01*
X201440000Y-104312500D01*
G75*
G02*
X201292500Y-104460000I-147500J0D01*
G01*
X200997500Y-104460000D01*
G75*
G02*
X200850000Y-104312500I0J147500D01*
G01*
G37*
G36*
G01*
X199880000Y-104312500D02*
X199880000Y-103967500D01*
G75*
G02*
X200027500Y-103820000I147500J0D01*
G01*
X200322500Y-103820000D01*
G75*
G02*
X200470000Y-103967500I0J-147500D01*
G01*
X200470000Y-104312500D01*
G75*
G02*
X200322500Y-104460000I-147500J0D01*
G01*
X200027500Y-104460000D01*
G75*
G02*
X199880000Y-104312500I0J147500D01*
G01*
G37*
%TD*%
%TO.C,R7*%
G36*
G01*
X188405000Y-102062500D02*
X188405000Y-102407500D01*
G75*
G02*
X188257500Y-102555000I-147500J0D01*
G01*
X187962500Y-102555000D01*
G75*
G02*
X187815000Y-102407500I0J147500D01*
G01*
X187815000Y-102062500D01*
G75*
G02*
X187962500Y-101915000I147500J0D01*
G01*
X188257500Y-101915000D01*
G75*
G02*
X188405000Y-102062500I0J-147500D01*
G01*
G37*
G36*
G01*
X189375000Y-102062500D02*
X189375000Y-102407500D01*
G75*
G02*
X189227500Y-102555000I-147500J0D01*
G01*
X188932500Y-102555000D01*
G75*
G02*
X188785000Y-102407500I0J147500D01*
G01*
X188785000Y-102062500D01*
G75*
G02*
X188932500Y-101915000I147500J0D01*
G01*
X189227500Y-101915000D01*
G75*
G02*
X189375000Y-102062500I0J-147500D01*
G01*
G37*
%TD*%
%TO.C,R6*%
G36*
G01*
X188405000Y-99522500D02*
X188405000Y-99867500D01*
G75*
G02*
X188257500Y-100015000I-147500J0D01*
G01*
X187962500Y-100015000D01*
G75*
G02*
X187815000Y-99867500I0J147500D01*
G01*
X187815000Y-99522500D01*
G75*
G02*
X187962500Y-99375000I147500J0D01*
G01*
X188257500Y-99375000D01*
G75*
G02*
X188405000Y-99522500I0J-147500D01*
G01*
G37*
G36*
G01*
X189375000Y-99522500D02*
X189375000Y-99867500D01*
G75*
G02*
X189227500Y-100015000I-147500J0D01*
G01*
X188932500Y-100015000D01*
G75*
G02*
X188785000Y-99867500I0J147500D01*
G01*
X188785000Y-99522500D01*
G75*
G02*
X188932500Y-99375000I147500J0D01*
G01*
X189227500Y-99375000D01*
G75*
G02*
X189375000Y-99522500I0J-147500D01*
G01*
G37*
%TD*%
%TO.C,D3*%
G36*
G01*
X191485000Y-102491250D02*
X191485000Y-101978750D01*
G75*
G02*
X191703750Y-101760000I218750J0D01*
G01*
X192141250Y-101760000D01*
G75*
G02*
X192360000Y-101978750I0J-218750D01*
G01*
X192360000Y-102491250D01*
G75*
G02*
X192141250Y-102710000I-218750J0D01*
G01*
X191703750Y-102710000D01*
G75*
G02*
X191485000Y-102491250I0J218750D01*
G01*
G37*
G36*
G01*
X189910000Y-102491250D02*
X189910000Y-101978750D01*
G75*
G02*
X190128750Y-101760000I218750J0D01*
G01*
X190566250Y-101760000D01*
G75*
G02*
X190785000Y-101978750I0J-218750D01*
G01*
X190785000Y-102491250D01*
G75*
G02*
X190566250Y-102710000I-218750J0D01*
G01*
X190128750Y-102710000D01*
G75*
G02*
X189910000Y-102491250I0J218750D01*
G01*
G37*
%TD*%
%TO.C,D2*%
G36*
G01*
X191485000Y-99951250D02*
X191485000Y-99438750D01*
G75*
G02*
X191703750Y-99220000I218750J0D01*
G01*
X192141250Y-99220000D01*
G75*
G02*
X192360000Y-99438750I0J-218750D01*
G01*
X192360000Y-99951250D01*
G75*
G02*
X192141250Y-100170000I-218750J0D01*
G01*
X191703750Y-100170000D01*
G75*
G02*
X191485000Y-99951250I0J218750D01*
G01*
G37*
G36*
G01*
X189910000Y-99951250D02*
X189910000Y-99438750D01*
G75*
G02*
X190128750Y-99220000I218750J0D01*
G01*
X190566250Y-99220000D01*
G75*
G02*
X190785000Y-99438750I0J-218750D01*
G01*
X190785000Y-99951250D01*
G75*
G02*
X190566250Y-100170000I-218750J0D01*
G01*
X190128750Y-100170000D01*
G75*
G02*
X189910000Y-99951250I0J218750D01*
G01*
G37*
%TD*%
%TO.C,C3*%
G36*
G01*
X164292500Y-103695000D02*
X164637500Y-103695000D01*
G75*
G02*
X164785000Y-103842500I0J-147500D01*
G01*
X164785000Y-104137500D01*
G75*
G02*
X164637500Y-104285000I-147500J0D01*
G01*
X164292500Y-104285000D01*
G75*
G02*
X164145000Y-104137500I0J147500D01*
G01*
X164145000Y-103842500D01*
G75*
G02*
X164292500Y-103695000I147500J0D01*
G01*
G37*
G36*
G01*
X164292500Y-102725000D02*
X164637500Y-102725000D01*
G75*
G02*
X164785000Y-102872500I0J-147500D01*
G01*
X164785000Y-103167500D01*
G75*
G02*
X164637500Y-103315000I-147500J0D01*
G01*
X164292500Y-103315000D01*
G75*
G02*
X164145000Y-103167500I0J147500D01*
G01*
X164145000Y-102872500D01*
G75*
G02*
X164292500Y-102725000I147500J0D01*
G01*
G37*
%TD*%
D14*
%TO.C,D1*%
X194310000Y-99315000D03*
X194310000Y-102615000D03*
%TD*%
%TO.C,C10*%
G36*
G01*
X172892500Y-101410000D02*
X172547500Y-101410000D01*
G75*
G02*
X172400000Y-101262500I0J147500D01*
G01*
X172400000Y-100967500D01*
G75*
G02*
X172547500Y-100820000I147500J0D01*
G01*
X172892500Y-100820000D01*
G75*
G02*
X173040000Y-100967500I0J-147500D01*
G01*
X173040000Y-101262500D01*
G75*
G02*
X172892500Y-101410000I-147500J0D01*
G01*
G37*
G36*
G01*
X172892500Y-102380000D02*
X172547500Y-102380000D01*
G75*
G02*
X172400000Y-102232500I0J147500D01*
G01*
X172400000Y-101937500D01*
G75*
G02*
X172547500Y-101790000I147500J0D01*
G01*
X172892500Y-101790000D01*
G75*
G02*
X173040000Y-101937500I0J-147500D01*
G01*
X173040000Y-102232500D01*
G75*
G02*
X172892500Y-102380000I-147500J0D01*
G01*
G37*
%TD*%
%TO.C,C9*%
G36*
G01*
X174435000Y-105872500D02*
X174435000Y-106217500D01*
G75*
G02*
X174287500Y-106365000I-147500J0D01*
G01*
X173992500Y-106365000D01*
G75*
G02*
X173845000Y-106217500I0J147500D01*
G01*
X173845000Y-105872500D01*
G75*
G02*
X173992500Y-105725000I147500J0D01*
G01*
X174287500Y-105725000D01*
G75*
G02*
X174435000Y-105872500I0J-147500D01*
G01*
G37*
G36*
G01*
X175405000Y-105872500D02*
X175405000Y-106217500D01*
G75*
G02*
X175257500Y-106365000I-147500J0D01*
G01*
X174962500Y-106365000D01*
G75*
G02*
X174815000Y-106217500I0J147500D01*
G01*
X174815000Y-105872500D01*
G75*
G02*
X174962500Y-105725000I147500J0D01*
G01*
X175257500Y-105725000D01*
G75*
G02*
X175405000Y-105872500I0J-147500D01*
G01*
G37*
%TD*%
%TO.C,C8*%
G36*
G01*
X182435000Y-96057500D02*
X182435000Y-95712500D01*
G75*
G02*
X182582500Y-95565000I147500J0D01*
G01*
X182877500Y-95565000D01*
G75*
G02*
X183025000Y-95712500I0J-147500D01*
G01*
X183025000Y-96057500D01*
G75*
G02*
X182877500Y-96205000I-147500J0D01*
G01*
X182582500Y-96205000D01*
G75*
G02*
X182435000Y-96057500I0J147500D01*
G01*
G37*
G36*
G01*
X181465000Y-96057500D02*
X181465000Y-95712500D01*
G75*
G02*
X181612500Y-95565000I147500J0D01*
G01*
X181907500Y-95565000D01*
G75*
G02*
X182055000Y-95712500I0J-147500D01*
G01*
X182055000Y-96057500D01*
G75*
G02*
X181907500Y-96205000I-147500J0D01*
G01*
X181612500Y-96205000D01*
G75*
G02*
X181465000Y-96057500I0J147500D01*
G01*
G37*
%TD*%
%TO.C,C6*%
G36*
G01*
X186227500Y-101410000D02*
X185882500Y-101410000D01*
G75*
G02*
X185735000Y-101262500I0J147500D01*
G01*
X185735000Y-100967500D01*
G75*
G02*
X185882500Y-100820000I147500J0D01*
G01*
X186227500Y-100820000D01*
G75*
G02*
X186375000Y-100967500I0J-147500D01*
G01*
X186375000Y-101262500D01*
G75*
G02*
X186227500Y-101410000I-147500J0D01*
G01*
G37*
G36*
G01*
X186227500Y-102380000D02*
X185882500Y-102380000D01*
G75*
G02*
X185735000Y-102232500I0J147500D01*
G01*
X185735000Y-101937500D01*
G75*
G02*
X185882500Y-101790000I147500J0D01*
G01*
X186227500Y-101790000D01*
G75*
G02*
X186375000Y-101937500I0J-147500D01*
G01*
X186375000Y-102232500D01*
G75*
G02*
X186227500Y-102380000I-147500J0D01*
G01*
G37*
%TD*%
%TO.C,C2*%
G36*
G01*
X187503750Y-105860000D02*
X188416250Y-105860000D01*
G75*
G02*
X188660000Y-106103750I0J-243750D01*
G01*
X188660000Y-106591250D01*
G75*
G02*
X188416250Y-106835000I-243750J0D01*
G01*
X187503750Y-106835000D01*
G75*
G02*
X187260000Y-106591250I0J243750D01*
G01*
X187260000Y-106103750D01*
G75*
G02*
X187503750Y-105860000I243750J0D01*
G01*
G37*
G36*
G01*
X187503750Y-103985000D02*
X188416250Y-103985000D01*
G75*
G02*
X188660000Y-104228750I0J-243750D01*
G01*
X188660000Y-104716250D01*
G75*
G02*
X188416250Y-104960000I-243750J0D01*
G01*
X187503750Y-104960000D01*
G75*
G02*
X187260000Y-104716250I0J243750D01*
G01*
X187260000Y-104228750D01*
G75*
G02*
X187503750Y-103985000I243750J0D01*
G01*
G37*
%TD*%
%TO.C,C1*%
G36*
G01*
X194766250Y-104960000D02*
X193853750Y-104960000D01*
G75*
G02*
X193610000Y-104716250I0J243750D01*
G01*
X193610000Y-104228750D01*
G75*
G02*
X193853750Y-103985000I243750J0D01*
G01*
X194766250Y-103985000D01*
G75*
G02*
X195010000Y-104228750I0J-243750D01*
G01*
X195010000Y-104716250D01*
G75*
G02*
X194766250Y-104960000I-243750J0D01*
G01*
G37*
G36*
G01*
X194766250Y-106835000D02*
X193853750Y-106835000D01*
G75*
G02*
X193610000Y-106591250I0J243750D01*
G01*
X193610000Y-106103750D01*
G75*
G02*
X193853750Y-105860000I243750J0D01*
G01*
X194766250Y-105860000D01*
G75*
G02*
X195010000Y-106103750I0J-243750D01*
G01*
X195010000Y-106591250D01*
G75*
G02*
X194766250Y-106835000I-243750J0D01*
G01*
G37*
%TD*%
M02*
