%TF.GenerationSoftware,KiCad,Pcbnew,5.1.6+dfsg1-1*%
%TF.CreationDate,2020-06-23T10:35:08+08:00*%
%TF.ProjectId,stm32devmini,73746d33-3264-4657-966d-696e692e6b69,rev?*%
%TF.SameCoordinates,Original*%
%TF.FileFunction,Legend,Bot*%
%TF.FilePolarity,Positive*%
%FSLAX46Y46*%
G04 Gerber Fmt 4.6, Leading zero omitted, Abs format (unit mm)*
G04 Created by KiCad (PCBNEW 5.1.6+dfsg1-1) date 2020-06-23 10:35:08*
%MOMM*%
%LPD*%
G01*
G04 APERTURE LIST*
%ADD10C,0.120000*%
%ADD11C,0.150000*%
G04 APERTURE END LIST*
D10*
%TO.C,J3*%
X152340000Y-92650000D02*
X152340000Y-93980000D01*
X153670000Y-92650000D02*
X152340000Y-92650000D01*
X154940000Y-92650000D02*
X154940000Y-95310000D01*
X154940000Y-95310000D02*
X203260000Y-95310000D01*
X154940000Y-92650000D02*
X203260000Y-92650000D01*
X203260000Y-92650000D02*
X203260000Y-95310000D01*
%TO.C,J2*%
X152340000Y-107890000D02*
X152340000Y-109220000D01*
X153670000Y-107890000D02*
X152340000Y-107890000D01*
X154940000Y-107890000D02*
X154940000Y-110550000D01*
X154940000Y-110550000D02*
X203260000Y-110550000D01*
X154940000Y-107890000D02*
X203260000Y-107890000D01*
X203260000Y-107890000D02*
X203260000Y-110550000D01*
%TO.C,J3*%
D11*
X150901904Y-93713333D02*
X151473333Y-93713333D01*
X151587619Y-93675238D01*
X151663809Y-93599047D01*
X151701904Y-93484761D01*
X151701904Y-93408571D01*
X150901904Y-94018095D02*
X150901904Y-94513333D01*
X151206666Y-94246666D01*
X151206666Y-94360952D01*
X151244761Y-94437142D01*
X151282857Y-94475238D01*
X151359047Y-94513333D01*
X151549523Y-94513333D01*
X151625714Y-94475238D01*
X151663809Y-94437142D01*
X151701904Y-94360952D01*
X151701904Y-94132380D01*
X151663809Y-94056190D01*
X151625714Y-94018095D01*
%TO.C,J2*%
X150901904Y-108953333D02*
X151473333Y-108953333D01*
X151587619Y-108915238D01*
X151663809Y-108839047D01*
X151701904Y-108724761D01*
X151701904Y-108648571D01*
X150978095Y-109296190D02*
X150940000Y-109334285D01*
X150901904Y-109410476D01*
X150901904Y-109600952D01*
X150940000Y-109677142D01*
X150978095Y-109715238D01*
X151054285Y-109753333D01*
X151130476Y-109753333D01*
X151244761Y-109715238D01*
X151701904Y-109258095D01*
X151701904Y-109753333D01*
%TD*%
M02*
