%TF.GenerationSoftware,KiCad,Pcbnew,5.1.6+dfsg1-1*%
%TF.CreationDate,2020-07-03T12:17:36+08:00*%
%TF.ProjectId,stm32devmini,73746d33-3264-4657-966d-696e692e6b69,a*%
%TF.SameCoordinates,Original*%
%TF.FileFunction,Copper,L2,Bot*%
%TF.FilePolarity,Positive*%
%FSLAX46Y46*%
G04 Gerber Fmt 4.6, Leading zero omitted, Abs format (unit mm)*
G04 Created by KiCad (PCBNEW 5.1.6+dfsg1-1) date 2020-07-03 12:17:36*
%MOMM*%
%LPD*%
G01*
G04 APERTURE LIST*
%TA.AperFunction,SMDPad,CuDef*%
%ADD10R,1.450000X0.600000*%
%TD*%
%TA.AperFunction,SMDPad,CuDef*%
%ADD11R,1.450000X0.300000*%
%TD*%
%TA.AperFunction,ComponentPad*%
%ADD12O,2.100000X1.000000*%
%TD*%
%TA.AperFunction,ComponentPad*%
%ADD13O,1.600000X1.000000*%
%TD*%
%TA.AperFunction,ComponentPad*%
%ADD14O,1.700000X1.700000*%
%TD*%
%TA.AperFunction,ComponentPad*%
%ADD15R,1.700000X1.700000*%
%TD*%
%TA.AperFunction,ViaPad*%
%ADD16C,0.700000*%
%TD*%
%TA.AperFunction,Conductor*%
%ADD17C,0.381000*%
%TD*%
%TA.AperFunction,Conductor*%
%ADD18C,0.304800*%
%TD*%
%TA.AperFunction,Conductor*%
%ADD19C,0.228600*%
%TD*%
%TA.AperFunction,Conductor*%
%ADD20C,0.152400*%
%TD*%
G04 APERTURE END LIST*
D10*
%TO.P,J1,B1*%
%TO.N,GND*%
X197250000Y-104850000D03*
%TO.P,J1,A9*%
%TO.N,VBUS*%
X197250000Y-104050000D03*
%TO.P,J1,B9*%
X197250000Y-99150000D03*
%TO.P,J1,B12*%
%TO.N,GND*%
X197250000Y-98350000D03*
%TO.P,J1,A1*%
X197250000Y-98350000D03*
%TO.P,J1,A4*%
%TO.N,VBUS*%
X197250000Y-99150000D03*
%TO.P,J1,B4*%
X197250000Y-104050000D03*
%TO.P,J1,A12*%
%TO.N,GND*%
X197250000Y-104850000D03*
D11*
%TO.P,J1,B8*%
%TO.N,Net-(J1-PadB8)*%
X197250000Y-99850000D03*
%TO.P,J1,A5*%
%TO.N,Net-(J1-PadA5)*%
X197250000Y-100350000D03*
%TO.P,J1,B7*%
%TO.N,Net-(J1-PadA7)*%
X197250000Y-100850000D03*
%TO.P,J1,A7*%
X197250000Y-101850000D03*
%TO.P,J1,B6*%
%TO.N,Net-(J1-PadA6)*%
X197250000Y-102350000D03*
%TO.P,J1,A8*%
%TO.N,Net-(J1-PadA8)*%
X197250000Y-102850000D03*
%TO.P,J1,B5*%
%TO.N,Net-(J1-PadB5)*%
X197250000Y-103350000D03*
%TO.P,J1,A6*%
%TO.N,Net-(J1-PadA6)*%
X197250000Y-101350000D03*
D12*
%TO.P,J1,S1*%
%TO.N,GND*%
X198165000Y-105920000D03*
X198165000Y-97280000D03*
D13*
X202345000Y-97280000D03*
X202345000Y-105920000D03*
%TD*%
D14*
%TO.P,J4,4*%
%TO.N,GND*%
X153035000Y-97790000D03*
%TO.P,J4,3*%
%TO.N,SWCLK*%
X153035000Y-100330000D03*
%TO.P,J4,2*%
%TO.N,SWDIO*%
X153035000Y-102870000D03*
D15*
%TO.P,J4,1*%
%TO.N,+3V3*%
X153035000Y-105410000D03*
%TD*%
D14*
%TO.P,J3,20*%
%TO.N,B12*%
X201930000Y-93980000D03*
%TO.P,J3,19*%
%TO.N,B13*%
X199390000Y-93980000D03*
%TO.P,J3,18*%
%TO.N,B14*%
X196850000Y-93980000D03*
%TO.P,J3,17*%
%TO.N,B15*%
X194310000Y-93980000D03*
%TO.P,J3,16*%
%TO.N,A8*%
X191770000Y-93980000D03*
%TO.P,J3,15*%
%TO.N,A9*%
X189230000Y-93980000D03*
%TO.P,J3,14*%
%TO.N,A10*%
X186690000Y-93980000D03*
%TO.P,J3,13*%
%TO.N,A11*%
X184150000Y-93980000D03*
%TO.P,J3,12*%
%TO.N,A12*%
X181610000Y-93980000D03*
%TO.P,J3,11*%
%TO.N,A15*%
X179070000Y-93980000D03*
%TO.P,J3,10*%
%TO.N,B3*%
X176530000Y-93980000D03*
%TO.P,J3,9*%
%TO.N,B4*%
X173990000Y-93980000D03*
%TO.P,J3,8*%
%TO.N,B5*%
X171450000Y-93980000D03*
%TO.P,J3,7*%
%TO.N,B6*%
X168910000Y-93980000D03*
%TO.P,J3,6*%
%TO.N,B7*%
X166370000Y-93980000D03*
%TO.P,J3,5*%
%TO.N,B8*%
X163830000Y-93980000D03*
%TO.P,J3,4*%
%TO.N,B9*%
X161290000Y-93980000D03*
%TO.P,J3,3*%
%TO.N,BO0*%
X158750000Y-93980000D03*
%TO.P,J3,2*%
%TO.N,RST*%
X156210000Y-93980000D03*
D15*
%TO.P,J3,1*%
%TO.N,GND*%
X153670000Y-93980000D03*
%TD*%
D14*
%TO.P,J2,20*%
%TO.N,GND*%
X201930000Y-109220000D03*
%TO.P,J2,19*%
%TO.N,+5V*%
X199390000Y-109220000D03*
%TO.P,J2,18*%
%TO.N,+3V3*%
X196850000Y-109220000D03*
%TO.P,J2,17*%
%TO.N,B11*%
X194310000Y-109220000D03*
%TO.P,J2,16*%
%TO.N,B10*%
X191770000Y-109220000D03*
%TO.P,J2,15*%
%TO.N,B2*%
X189230000Y-109220000D03*
%TO.P,J2,14*%
%TO.N,B1*%
X186690000Y-109220000D03*
%TO.P,J2,13*%
%TO.N,B0*%
X184150000Y-109220000D03*
%TO.P,J2,12*%
%TO.N,A7*%
X181610000Y-109220000D03*
%TO.P,J2,11*%
%TO.N,A6*%
X179070000Y-109220000D03*
%TO.P,J2,10*%
%TO.N,A5*%
X176530000Y-109220000D03*
%TO.P,J2,9*%
%TO.N,A4*%
X173990000Y-109220000D03*
%TO.P,J2,8*%
%TO.N,A3*%
X171450000Y-109220000D03*
%TO.P,J2,7*%
%TO.N,A2*%
X168910000Y-109220000D03*
%TO.P,J2,6*%
%TO.N,A1*%
X166370000Y-109220000D03*
%TO.P,J2,5*%
%TO.N,A0*%
X163830000Y-109220000D03*
%TO.P,J2,4*%
%TO.N,C15*%
X161290000Y-109220000D03*
%TO.P,J2,3*%
%TO.N,C14*%
X158750000Y-109220000D03*
%TO.P,J2,2*%
%TO.N,C13*%
X156210000Y-109220000D03*
D15*
%TO.P,J2,1*%
%TO.N,GND*%
X153670000Y-109220000D03*
%TD*%
D16*
%TO.N,GND*%
X192405000Y-105410000D03*
X191135000Y-105410000D03*
X189865000Y-105410000D03*
X192405000Y-106680000D03*
X189865000Y-106680000D03*
X177800000Y-100330000D03*
X180340000Y-102870000D03*
X180340000Y-100330000D03*
X177800000Y-102870000D03*
X167640000Y-104140000D03*
X168910000Y-99060000D03*
X172720000Y-106045000D03*
X172720000Y-99060000D03*
X171450000Y-100965000D03*
X153416000Y-107188000D03*
%TO.N,VBUS*%
X193675000Y-100330000D03*
X194945000Y-100330000D03*
%TO.N,+3V3*%
X179070000Y-101600000D03*
X191112500Y-103482500D03*
X201930000Y-102870000D03*
%TO.N,C13*%
X176530000Y-102235000D03*
X188117290Y-103169935D03*
%TO.N,A12*%
X201930000Y-101600000D03*
X184150000Y-95504000D03*
%TO.N,A11*%
X201930000Y-100330000D03*
X184150000Y-96520000D03*
%TO.N,BO0*%
X173990000Y-97790000D03*
X162560000Y-99060000D03*
X159385000Y-100330000D03*
%TO.N,SWCLK*%
X177800000Y-99060000D03*
%TO.N,SWDIO*%
X180340000Y-99060000D03*
%TO.N,RST*%
X171450000Y-105410000D03*
X162560000Y-104140000D03*
X159385000Y-102235000D03*
%TO.N,Net-(J1-PadA5)*%
X198755000Y-99695000D03*
%TO.N,Net-(J1-PadB5)*%
X198755000Y-103505000D03*
%TO.N,Net-(J1-PadA7)*%
X198755000Y-100965000D03*
%TO.N,Net-(J1-PadA6)*%
X198755000Y-102235000D03*
%TD*%
D17*
%TO.N,VBUS*%
X194855000Y-99150000D02*
X193675000Y-100330000D01*
X197250000Y-99150000D02*
X194855000Y-99150000D01*
X194945000Y-102851000D02*
X194945000Y-100330000D01*
X196144000Y-104050000D02*
X194945000Y-102851000D01*
X197250000Y-104050000D02*
X196144000Y-104050000D01*
D18*
%TO.N,+3V3*%
X179685199Y-102215199D02*
X179070000Y-101600000D01*
X191112500Y-103482500D02*
X189845199Y-102215199D01*
X189845199Y-102215199D02*
X186670199Y-102215199D01*
X186670199Y-102215199D02*
X179685199Y-102215199D01*
D17*
X153035000Y-105410000D02*
X152477099Y-105967901D01*
X189172099Y-105077407D02*
X190767006Y-103482500D01*
X189172099Y-107012593D02*
X189172099Y-105077407D01*
X190186605Y-108027099D02*
X189172099Y-107012593D01*
X195657099Y-108027099D02*
X190186605Y-108027099D01*
X190767006Y-103482500D02*
X191112500Y-103482500D01*
X196850000Y-109220000D02*
X195657099Y-108027099D01*
X194900000Y-111170000D02*
X196850000Y-109220000D01*
X153080000Y-111170000D02*
X194900000Y-111170000D01*
X152400000Y-106680000D02*
X152400000Y-110490000D01*
X153035000Y-106045000D02*
X152400000Y-106680000D01*
X152400000Y-110490000D02*
X153080000Y-111170000D01*
X153035000Y-105410000D02*
X153035000Y-106045000D01*
D19*
X196850000Y-108869291D02*
X196850000Y-109220000D01*
X201930000Y-103789291D02*
X196850000Y-108869291D01*
X201930000Y-102870000D02*
X201930000Y-103789291D01*
D17*
%TO.N,C13*%
X176530000Y-102235000D02*
X176530000Y-103505000D01*
X157402901Y-108027099D02*
X156210000Y-109220000D01*
X172007901Y-108027099D02*
X157402901Y-108027099D01*
X176530000Y-103505000D02*
X172007901Y-108027099D01*
X176530000Y-103505000D02*
X177165000Y-103505000D01*
X177165000Y-103505000D02*
X179705000Y-106045000D01*
X188117290Y-104609932D02*
X188117290Y-103169935D01*
X186682222Y-106045000D02*
X188117290Y-104609932D01*
X179705000Y-106045000D02*
X186682222Y-106045000D01*
D19*
%TO.N,A12*%
X184434991Y-95788991D02*
X184150000Y-95504000D01*
X198912990Y-95788991D02*
X184434991Y-95788991D01*
X202692000Y-99568002D02*
X198912990Y-95788991D01*
X202692000Y-100838000D02*
X202692000Y-99568002D01*
X201930000Y-101600000D02*
X202692000Y-100838000D01*
%TO.N,A11*%
X201930000Y-100330000D02*
X201930000Y-99344830D01*
X201930000Y-99344830D02*
X198755171Y-96170001D01*
X198755171Y-96170001D02*
X184499999Y-96170001D01*
X184499999Y-96170001D02*
X184150000Y-96520000D01*
%TO.N,BO0*%
X163830000Y-97790000D02*
X162560000Y-99060000D01*
X173990000Y-97790000D02*
X163830000Y-97790000D01*
X158750000Y-99695000D02*
X159385000Y-100330000D01*
X158750000Y-93980000D02*
X158750000Y-99695000D01*
%TO.N,SWCLK*%
X177618452Y-99060000D02*
X177800000Y-99060000D01*
X173808452Y-102870000D02*
X177618452Y-99060000D01*
X155575000Y-102870000D02*
X173808452Y-102870000D01*
X153035000Y-100330000D02*
X155575000Y-102870000D01*
%TO.N,SWDIO*%
X180340000Y-99060000D02*
X179723298Y-99676702D01*
X179723298Y-99676702D02*
X177540580Y-99676702D01*
X177540580Y-99676702D02*
X173966273Y-103251009D01*
X173966273Y-103251009D02*
X153416009Y-103251009D01*
X153416009Y-103251009D02*
X153035000Y-102870000D01*
%TO.N,RST*%
X167997282Y-105410000D02*
X166727282Y-104140000D01*
X166727282Y-104140000D02*
X162560000Y-104140000D01*
X171450000Y-105410000D02*
X167997282Y-105410000D01*
X156210000Y-99060000D02*
X159385000Y-102235000D01*
X156210000Y-93980000D02*
X156210000Y-99060000D01*
%TO.N,Net-(J1-PadA5)*%
X198100000Y-100350000D02*
X198755000Y-99695000D01*
X197250000Y-100350000D02*
X198100000Y-100350000D01*
%TO.N,Net-(J1-PadB5)*%
X198600000Y-103350000D02*
X198755000Y-103505000D01*
X197250000Y-103350000D02*
X198600000Y-103350000D01*
%TO.N,Net-(J1-PadA7)*%
X198203600Y-100850000D02*
X197250000Y-100850000D01*
X198241701Y-100888101D02*
X198203600Y-100850000D01*
X198241701Y-101811899D02*
X198241701Y-100888101D01*
X198203600Y-101850000D02*
X198241701Y-101811899D01*
X197250000Y-101850000D02*
X198203600Y-101850000D01*
X198640000Y-100850000D02*
X198755000Y-100965000D01*
X198203600Y-100850000D02*
X198640000Y-100850000D01*
%TO.N,Net-(J1-PadA6)*%
X196296400Y-102350000D02*
X197250000Y-102350000D01*
X196258299Y-102311899D02*
X196296400Y-102350000D01*
X196258299Y-101388101D02*
X196258299Y-102311899D01*
X196296400Y-101350000D02*
X196258299Y-101388101D01*
X197250000Y-101350000D02*
X196296400Y-101350000D01*
X198640000Y-102350000D02*
X198755000Y-102235000D01*
X197250000Y-102350000D02*
X198640000Y-102350000D01*
%TD*%
D20*
%TO.N,GND*%
G36*
X202762186Y-91714151D02*
G01*
X202951854Y-91771415D01*
X203126795Y-91864433D01*
X203280334Y-91989656D01*
X203406626Y-92142317D01*
X203500861Y-92316602D01*
X203559449Y-92505866D01*
X203581400Y-92714721D01*
X203581401Y-110477583D01*
X203560849Y-110687186D01*
X203503584Y-110876856D01*
X203410566Y-111051797D01*
X203285344Y-111205334D01*
X203132683Y-111331626D01*
X202958398Y-111425861D01*
X202769134Y-111484449D01*
X202560279Y-111506400D01*
X195150725Y-111506400D01*
X195197782Y-111467782D01*
X195210907Y-111451789D01*
X196443575Y-110219122D01*
X196535384Y-110257150D01*
X196743767Y-110298600D01*
X196956233Y-110298600D01*
X197164616Y-110257150D01*
X197360909Y-110175843D01*
X197537567Y-110057803D01*
X197687803Y-109907567D01*
X197805843Y-109730909D01*
X197887150Y-109534616D01*
X197928600Y-109326233D01*
X197928600Y-109113767D01*
X198311400Y-109113767D01*
X198311400Y-109326233D01*
X198352850Y-109534616D01*
X198434157Y-109730909D01*
X198552197Y-109907567D01*
X198702433Y-110057803D01*
X198879091Y-110175843D01*
X199075384Y-110257150D01*
X199283767Y-110298600D01*
X199496233Y-110298600D01*
X199704616Y-110257150D01*
X199900909Y-110175843D01*
X200077567Y-110057803D01*
X200227803Y-109907567D01*
X200345843Y-109730909D01*
X200427150Y-109534616D01*
X200441281Y-109463571D01*
X200879258Y-109463571D01*
X200946966Y-109663880D01*
X201052451Y-109847131D01*
X201191660Y-110006282D01*
X201359243Y-110135217D01*
X201548760Y-110228981D01*
X201686430Y-110270739D01*
X201853800Y-110238604D01*
X201853800Y-109296200D01*
X202006200Y-109296200D01*
X202006200Y-110238604D01*
X202173570Y-110270739D01*
X202311240Y-110228981D01*
X202500757Y-110135217D01*
X202668340Y-110006282D01*
X202807549Y-109847131D01*
X202913034Y-109663880D01*
X202980742Y-109463571D01*
X202948759Y-109296200D01*
X202006200Y-109296200D01*
X201853800Y-109296200D01*
X200911241Y-109296200D01*
X200879258Y-109463571D01*
X200441281Y-109463571D01*
X200468600Y-109326233D01*
X200468600Y-109113767D01*
X200441282Y-108976429D01*
X200879258Y-108976429D01*
X200911241Y-109143800D01*
X201853800Y-109143800D01*
X201853800Y-108201396D01*
X202006200Y-108201396D01*
X202006200Y-109143800D01*
X202948759Y-109143800D01*
X202980742Y-108976429D01*
X202913034Y-108776120D01*
X202807549Y-108592869D01*
X202668340Y-108433718D01*
X202500757Y-108304783D01*
X202311240Y-108211019D01*
X202173570Y-108169261D01*
X202006200Y-108201396D01*
X201853800Y-108201396D01*
X201686430Y-108169261D01*
X201548760Y-108211019D01*
X201359243Y-108304783D01*
X201191660Y-108433718D01*
X201052451Y-108592869D01*
X200946966Y-108776120D01*
X200879258Y-108976429D01*
X200441282Y-108976429D01*
X200427150Y-108905384D01*
X200345843Y-108709091D01*
X200227803Y-108532433D01*
X200077567Y-108382197D01*
X199900909Y-108264157D01*
X199704616Y-108182850D01*
X199496233Y-108141400D01*
X199283767Y-108141400D01*
X199075384Y-108182850D01*
X198879091Y-108264157D01*
X198702433Y-108382197D01*
X198552197Y-108532433D01*
X198434157Y-108709091D01*
X198352850Y-108905384D01*
X198311400Y-109113767D01*
X197928600Y-109113767D01*
X197887150Y-108905384D01*
X197805843Y-108709091D01*
X197687803Y-108532433D01*
X197679797Y-108524427D01*
X200095609Y-106108615D01*
X201341237Y-106108615D01*
X201342700Y-106128423D01*
X201396856Y-106261430D01*
X201475920Y-106381316D01*
X201576853Y-106483474D01*
X201695777Y-106563978D01*
X201828121Y-106619734D01*
X201968800Y-106648600D01*
X202268800Y-106648600D01*
X202268800Y-105996200D01*
X202421200Y-105996200D01*
X202421200Y-106648600D01*
X202721200Y-106648600D01*
X202861879Y-106619734D01*
X202994223Y-106563978D01*
X203113147Y-106483474D01*
X203214080Y-106381316D01*
X203293144Y-106261430D01*
X203347300Y-106128423D01*
X203348763Y-106108615D01*
X203312112Y-105996200D01*
X202421200Y-105996200D01*
X202268800Y-105996200D01*
X201377888Y-105996200D01*
X201341237Y-106108615D01*
X200095609Y-106108615D01*
X200472839Y-105731385D01*
X201341237Y-105731385D01*
X201377888Y-105843800D01*
X202268800Y-105843800D01*
X202268800Y-105191400D01*
X202421200Y-105191400D01*
X202421200Y-105843800D01*
X203312112Y-105843800D01*
X203348763Y-105731385D01*
X203347300Y-105711577D01*
X203293144Y-105578570D01*
X203214080Y-105458684D01*
X203113147Y-105356526D01*
X202994223Y-105276022D01*
X202861879Y-105220266D01*
X202721200Y-105191400D01*
X202421200Y-105191400D01*
X202268800Y-105191400D01*
X201968800Y-105191400D01*
X201828121Y-105220266D01*
X201695777Y-105276022D01*
X201576853Y-105356526D01*
X201475920Y-105458684D01*
X201396856Y-105578570D01*
X201342700Y-105711577D01*
X201341237Y-105731385D01*
X200472839Y-105731385D01*
X202160557Y-104043668D01*
X202173640Y-104032931D01*
X202216490Y-103980718D01*
X202248331Y-103921148D01*
X202267938Y-103856511D01*
X202272900Y-103806134D01*
X202274559Y-103789291D01*
X202272900Y-103772448D01*
X202272900Y-103336758D01*
X202298836Y-103319428D01*
X202379428Y-103238836D01*
X202442749Y-103144070D01*
X202486365Y-103038772D01*
X202508600Y-102926987D01*
X202508600Y-102813013D01*
X202486365Y-102701228D01*
X202442749Y-102595930D01*
X202379428Y-102501164D01*
X202298836Y-102420572D01*
X202204070Y-102357251D01*
X202098772Y-102313635D01*
X201986987Y-102291400D01*
X201873013Y-102291400D01*
X201761228Y-102313635D01*
X201655930Y-102357251D01*
X201561164Y-102420572D01*
X201480572Y-102501164D01*
X201417251Y-102595930D01*
X201373635Y-102701228D01*
X201351400Y-102813013D01*
X201351400Y-102926987D01*
X201373635Y-103038772D01*
X201417251Y-103144070D01*
X201480572Y-103238836D01*
X201561164Y-103319428D01*
X201587101Y-103336758D01*
X201587101Y-103647256D01*
X199390559Y-105843798D01*
X199382113Y-105843798D01*
X199418763Y-105731385D01*
X199417300Y-105711577D01*
X199363144Y-105578570D01*
X199284080Y-105458684D01*
X199183147Y-105356526D01*
X199064223Y-105276022D01*
X198931879Y-105220266D01*
X198791200Y-105191400D01*
X198200628Y-105191400D01*
X198204706Y-105150000D01*
X198203600Y-104983350D01*
X198146450Y-104926200D01*
X197326200Y-104926200D01*
X197326200Y-104946200D01*
X197173800Y-104946200D01*
X197173800Y-104926200D01*
X196353550Y-104926200D01*
X196296400Y-104983350D01*
X196295294Y-105150000D01*
X196299708Y-105194813D01*
X196312779Y-105237905D01*
X196334006Y-105277618D01*
X196362573Y-105312427D01*
X196397382Y-105340994D01*
X196437095Y-105362221D01*
X196480187Y-105375292D01*
X196525000Y-105379706D01*
X197116650Y-105378600D01*
X197173798Y-105321452D01*
X197173798Y-105338286D01*
X197146853Y-105356526D01*
X197045920Y-105458684D01*
X196966856Y-105578570D01*
X196912700Y-105711577D01*
X196911237Y-105731385D01*
X196947888Y-105843800D01*
X198088800Y-105843800D01*
X198088800Y-105823800D01*
X198241200Y-105823800D01*
X198241200Y-105843800D01*
X198261200Y-105843800D01*
X198261200Y-105996200D01*
X198241200Y-105996200D01*
X198241200Y-106648600D01*
X198585758Y-106648600D01*
X197070274Y-108164084D01*
X196956233Y-108141400D01*
X196743767Y-108141400D01*
X196535384Y-108182850D01*
X196443575Y-108220878D01*
X195968006Y-107745310D01*
X195954881Y-107729317D01*
X195891065Y-107676945D01*
X195818257Y-107638028D01*
X195739257Y-107614064D01*
X195677679Y-107607999D01*
X195657099Y-107605972D01*
X195636519Y-107607999D01*
X190360202Y-107607999D01*
X189591199Y-106838997D01*
X189591199Y-106108615D01*
X196911237Y-106108615D01*
X196912700Y-106128423D01*
X196966856Y-106261430D01*
X197045920Y-106381316D01*
X197146853Y-106483474D01*
X197265777Y-106563978D01*
X197398121Y-106619734D01*
X197538800Y-106648600D01*
X198088800Y-106648600D01*
X198088800Y-105996200D01*
X196947888Y-105996200D01*
X196911237Y-106108615D01*
X189591199Y-106108615D01*
X189591199Y-105251003D01*
X190844457Y-103997746D01*
X190943728Y-104038865D01*
X191055513Y-104061100D01*
X191169487Y-104061100D01*
X191281272Y-104038865D01*
X191386570Y-103995249D01*
X191481336Y-103931928D01*
X191561928Y-103851336D01*
X191625249Y-103756570D01*
X191668865Y-103651272D01*
X191691100Y-103539487D01*
X191691100Y-103425513D01*
X191668865Y-103313728D01*
X191625249Y-103208430D01*
X191561928Y-103113664D01*
X191481336Y-103033072D01*
X191386570Y-102969751D01*
X191281272Y-102926135D01*
X191169487Y-102903900D01*
X191072715Y-102903900D01*
X190127845Y-101959031D01*
X190115910Y-101944488D01*
X190057895Y-101896877D01*
X189991707Y-101861498D01*
X189919888Y-101839712D01*
X189863912Y-101834199D01*
X189863909Y-101834199D01*
X189845199Y-101832356D01*
X189826489Y-101834199D01*
X179843014Y-101834199D01*
X179648600Y-101639785D01*
X179648600Y-101543013D01*
X179626365Y-101431228D01*
X179582749Y-101325930D01*
X179519428Y-101231164D01*
X179438836Y-101150572D01*
X179344070Y-101087251D01*
X179238772Y-101043635D01*
X179126987Y-101021400D01*
X179013013Y-101021400D01*
X178901228Y-101043635D01*
X178795930Y-101087251D01*
X178701164Y-101150572D01*
X178620572Y-101231164D01*
X178557251Y-101325930D01*
X178513635Y-101431228D01*
X178491400Y-101543013D01*
X178491400Y-101656987D01*
X178513635Y-101768772D01*
X178557251Y-101874070D01*
X178620572Y-101968836D01*
X178701164Y-102049428D01*
X178795930Y-102112749D01*
X178901228Y-102156365D01*
X179013013Y-102178600D01*
X179109785Y-102178600D01*
X179402558Y-102471373D01*
X179414488Y-102485910D01*
X179435709Y-102503325D01*
X179472502Y-102533521D01*
X179538691Y-102568900D01*
X179610510Y-102590686D01*
X179666486Y-102596199D01*
X179666489Y-102596199D01*
X179685199Y-102598042D01*
X179703909Y-102596199D01*
X188035850Y-102596199D01*
X187948518Y-102613570D01*
X187843220Y-102657186D01*
X187748454Y-102720507D01*
X187667862Y-102801099D01*
X187604541Y-102895865D01*
X187560925Y-103001163D01*
X187538690Y-103112948D01*
X187538690Y-103226922D01*
X187560925Y-103338707D01*
X187604541Y-103444005D01*
X187667862Y-103538771D01*
X187698191Y-103569100D01*
X187698190Y-104436336D01*
X186508626Y-105625900D01*
X179878597Y-105625900D01*
X177475907Y-103223211D01*
X177462782Y-103207218D01*
X177398966Y-103154846D01*
X177326158Y-103115929D01*
X177247158Y-103091965D01*
X177185580Y-103085900D01*
X177165000Y-103083873D01*
X177144420Y-103085900D01*
X176949100Y-103085900D01*
X176949100Y-102634164D01*
X176979428Y-102603836D01*
X177042749Y-102509070D01*
X177086365Y-102403772D01*
X177108600Y-102291987D01*
X177108600Y-102178013D01*
X177086365Y-102066228D01*
X177042749Y-101960930D01*
X176979428Y-101866164D01*
X176898836Y-101785572D01*
X176804070Y-101722251D01*
X176698772Y-101678635D01*
X176586987Y-101656400D01*
X176473013Y-101656400D01*
X176361228Y-101678635D01*
X176255930Y-101722251D01*
X176161164Y-101785572D01*
X176080572Y-101866164D01*
X176017251Y-101960930D01*
X175973635Y-102066228D01*
X175951400Y-102178013D01*
X175951400Y-102291987D01*
X175973635Y-102403772D01*
X176017251Y-102509070D01*
X176080572Y-102603836D01*
X176110900Y-102634164D01*
X176110901Y-103331402D01*
X171834305Y-107607999D01*
X157423481Y-107607999D01*
X157402901Y-107605972D01*
X157382321Y-107607999D01*
X157320743Y-107614064D01*
X157241743Y-107638028D01*
X157168935Y-107676945D01*
X157105119Y-107729317D01*
X157092001Y-107745302D01*
X156616425Y-108220878D01*
X156524616Y-108182850D01*
X156316233Y-108141400D01*
X156103767Y-108141400D01*
X155895384Y-108182850D01*
X155699091Y-108264157D01*
X155522433Y-108382197D01*
X155372197Y-108532433D01*
X155254157Y-108709091D01*
X155172850Y-108905384D01*
X155131400Y-109113767D01*
X155131400Y-109326233D01*
X155172850Y-109534616D01*
X155254157Y-109730909D01*
X155372197Y-109907567D01*
X155522433Y-110057803D01*
X155699091Y-110175843D01*
X155895384Y-110257150D01*
X156103767Y-110298600D01*
X156316233Y-110298600D01*
X156524616Y-110257150D01*
X156720909Y-110175843D01*
X156897567Y-110057803D01*
X157047803Y-109907567D01*
X157165843Y-109730909D01*
X157247150Y-109534616D01*
X157288600Y-109326233D01*
X157288600Y-109113767D01*
X157247150Y-108905384D01*
X157209122Y-108813575D01*
X157576498Y-108446199D01*
X157998431Y-108446199D01*
X157912197Y-108532433D01*
X157794157Y-108709091D01*
X157712850Y-108905384D01*
X157671400Y-109113767D01*
X157671400Y-109326233D01*
X157712850Y-109534616D01*
X157794157Y-109730909D01*
X157912197Y-109907567D01*
X158062433Y-110057803D01*
X158239091Y-110175843D01*
X158435384Y-110257150D01*
X158643767Y-110298600D01*
X158856233Y-110298600D01*
X159064616Y-110257150D01*
X159260909Y-110175843D01*
X159437567Y-110057803D01*
X159587803Y-109907567D01*
X159705843Y-109730909D01*
X159787150Y-109534616D01*
X159828600Y-109326233D01*
X159828600Y-109113767D01*
X159787150Y-108905384D01*
X159705843Y-108709091D01*
X159587803Y-108532433D01*
X159501569Y-108446199D01*
X160538431Y-108446199D01*
X160452197Y-108532433D01*
X160334157Y-108709091D01*
X160252850Y-108905384D01*
X160211400Y-109113767D01*
X160211400Y-109326233D01*
X160252850Y-109534616D01*
X160334157Y-109730909D01*
X160452197Y-109907567D01*
X160602433Y-110057803D01*
X160779091Y-110175843D01*
X160975384Y-110257150D01*
X161183767Y-110298600D01*
X161396233Y-110298600D01*
X161604616Y-110257150D01*
X161800909Y-110175843D01*
X161977567Y-110057803D01*
X162127803Y-109907567D01*
X162245843Y-109730909D01*
X162327150Y-109534616D01*
X162368600Y-109326233D01*
X162368600Y-109113767D01*
X162327150Y-108905384D01*
X162245843Y-108709091D01*
X162127803Y-108532433D01*
X162041569Y-108446199D01*
X163078431Y-108446199D01*
X162992197Y-108532433D01*
X162874157Y-108709091D01*
X162792850Y-108905384D01*
X162751400Y-109113767D01*
X162751400Y-109326233D01*
X162792850Y-109534616D01*
X162874157Y-109730909D01*
X162992197Y-109907567D01*
X163142433Y-110057803D01*
X163319091Y-110175843D01*
X163515384Y-110257150D01*
X163723767Y-110298600D01*
X163936233Y-110298600D01*
X164144616Y-110257150D01*
X164340909Y-110175843D01*
X164517567Y-110057803D01*
X164667803Y-109907567D01*
X164785843Y-109730909D01*
X164867150Y-109534616D01*
X164908600Y-109326233D01*
X164908600Y-109113767D01*
X164867150Y-108905384D01*
X164785843Y-108709091D01*
X164667803Y-108532433D01*
X164581569Y-108446199D01*
X165618431Y-108446199D01*
X165532197Y-108532433D01*
X165414157Y-108709091D01*
X165332850Y-108905384D01*
X165291400Y-109113767D01*
X165291400Y-109326233D01*
X165332850Y-109534616D01*
X165414157Y-109730909D01*
X165532197Y-109907567D01*
X165682433Y-110057803D01*
X165859091Y-110175843D01*
X166055384Y-110257150D01*
X166263767Y-110298600D01*
X166476233Y-110298600D01*
X166684616Y-110257150D01*
X166880909Y-110175843D01*
X167057567Y-110057803D01*
X167207803Y-109907567D01*
X167325843Y-109730909D01*
X167407150Y-109534616D01*
X167448600Y-109326233D01*
X167448600Y-109113767D01*
X167407150Y-108905384D01*
X167325843Y-108709091D01*
X167207803Y-108532433D01*
X167121569Y-108446199D01*
X168158431Y-108446199D01*
X168072197Y-108532433D01*
X167954157Y-108709091D01*
X167872850Y-108905384D01*
X167831400Y-109113767D01*
X167831400Y-109326233D01*
X167872850Y-109534616D01*
X167954157Y-109730909D01*
X168072197Y-109907567D01*
X168222433Y-110057803D01*
X168399091Y-110175843D01*
X168595384Y-110257150D01*
X168803767Y-110298600D01*
X169016233Y-110298600D01*
X169224616Y-110257150D01*
X169420909Y-110175843D01*
X169597567Y-110057803D01*
X169747803Y-109907567D01*
X169865843Y-109730909D01*
X169947150Y-109534616D01*
X169988600Y-109326233D01*
X169988600Y-109113767D01*
X169947150Y-108905384D01*
X169865843Y-108709091D01*
X169747803Y-108532433D01*
X169661569Y-108446199D01*
X170698431Y-108446199D01*
X170612197Y-108532433D01*
X170494157Y-108709091D01*
X170412850Y-108905384D01*
X170371400Y-109113767D01*
X170371400Y-109326233D01*
X170412850Y-109534616D01*
X170494157Y-109730909D01*
X170612197Y-109907567D01*
X170762433Y-110057803D01*
X170939091Y-110175843D01*
X171135384Y-110257150D01*
X171343767Y-110298600D01*
X171556233Y-110298600D01*
X171764616Y-110257150D01*
X171960909Y-110175843D01*
X172137567Y-110057803D01*
X172287803Y-109907567D01*
X172405843Y-109730909D01*
X172487150Y-109534616D01*
X172528600Y-109326233D01*
X172528600Y-109113767D01*
X172911400Y-109113767D01*
X172911400Y-109326233D01*
X172952850Y-109534616D01*
X173034157Y-109730909D01*
X173152197Y-109907567D01*
X173302433Y-110057803D01*
X173479091Y-110175843D01*
X173675384Y-110257150D01*
X173883767Y-110298600D01*
X174096233Y-110298600D01*
X174304616Y-110257150D01*
X174500909Y-110175843D01*
X174677567Y-110057803D01*
X174827803Y-109907567D01*
X174945843Y-109730909D01*
X175027150Y-109534616D01*
X175068600Y-109326233D01*
X175068600Y-109113767D01*
X175451400Y-109113767D01*
X175451400Y-109326233D01*
X175492850Y-109534616D01*
X175574157Y-109730909D01*
X175692197Y-109907567D01*
X175842433Y-110057803D01*
X176019091Y-110175843D01*
X176215384Y-110257150D01*
X176423767Y-110298600D01*
X176636233Y-110298600D01*
X176844616Y-110257150D01*
X177040909Y-110175843D01*
X177217567Y-110057803D01*
X177367803Y-109907567D01*
X177485843Y-109730909D01*
X177567150Y-109534616D01*
X177608600Y-109326233D01*
X177608600Y-109113767D01*
X177991400Y-109113767D01*
X177991400Y-109326233D01*
X178032850Y-109534616D01*
X178114157Y-109730909D01*
X178232197Y-109907567D01*
X178382433Y-110057803D01*
X178559091Y-110175843D01*
X178755384Y-110257150D01*
X178963767Y-110298600D01*
X179176233Y-110298600D01*
X179384616Y-110257150D01*
X179580909Y-110175843D01*
X179757567Y-110057803D01*
X179907803Y-109907567D01*
X180025843Y-109730909D01*
X180107150Y-109534616D01*
X180148600Y-109326233D01*
X180148600Y-109113767D01*
X180531400Y-109113767D01*
X180531400Y-109326233D01*
X180572850Y-109534616D01*
X180654157Y-109730909D01*
X180772197Y-109907567D01*
X180922433Y-110057803D01*
X181099091Y-110175843D01*
X181295384Y-110257150D01*
X181503767Y-110298600D01*
X181716233Y-110298600D01*
X181924616Y-110257150D01*
X182120909Y-110175843D01*
X182297567Y-110057803D01*
X182447803Y-109907567D01*
X182565843Y-109730909D01*
X182647150Y-109534616D01*
X182688600Y-109326233D01*
X182688600Y-109113767D01*
X183071400Y-109113767D01*
X183071400Y-109326233D01*
X183112850Y-109534616D01*
X183194157Y-109730909D01*
X183312197Y-109907567D01*
X183462433Y-110057803D01*
X183639091Y-110175843D01*
X183835384Y-110257150D01*
X184043767Y-110298600D01*
X184256233Y-110298600D01*
X184464616Y-110257150D01*
X184660909Y-110175843D01*
X184837567Y-110057803D01*
X184987803Y-109907567D01*
X185105843Y-109730909D01*
X185187150Y-109534616D01*
X185228600Y-109326233D01*
X185228600Y-109113767D01*
X185611400Y-109113767D01*
X185611400Y-109326233D01*
X185652850Y-109534616D01*
X185734157Y-109730909D01*
X185852197Y-109907567D01*
X186002433Y-110057803D01*
X186179091Y-110175843D01*
X186375384Y-110257150D01*
X186583767Y-110298600D01*
X186796233Y-110298600D01*
X187004616Y-110257150D01*
X187200909Y-110175843D01*
X187377567Y-110057803D01*
X187527803Y-109907567D01*
X187645843Y-109730909D01*
X187727150Y-109534616D01*
X187768600Y-109326233D01*
X187768600Y-109113767D01*
X188151400Y-109113767D01*
X188151400Y-109326233D01*
X188192850Y-109534616D01*
X188274157Y-109730909D01*
X188392197Y-109907567D01*
X188542433Y-110057803D01*
X188719091Y-110175843D01*
X188915384Y-110257150D01*
X189123767Y-110298600D01*
X189336233Y-110298600D01*
X189544616Y-110257150D01*
X189740909Y-110175843D01*
X189917567Y-110057803D01*
X190067803Y-109907567D01*
X190185843Y-109730909D01*
X190267150Y-109534616D01*
X190308600Y-109326233D01*
X190308600Y-109113767D01*
X190267150Y-108905384D01*
X190185843Y-108709091D01*
X190067803Y-108532433D01*
X189917567Y-108382197D01*
X189740909Y-108264157D01*
X189544616Y-108182850D01*
X189336233Y-108141400D01*
X189123767Y-108141400D01*
X188915384Y-108182850D01*
X188719091Y-108264157D01*
X188542433Y-108382197D01*
X188392197Y-108532433D01*
X188274157Y-108709091D01*
X188192850Y-108905384D01*
X188151400Y-109113767D01*
X187768600Y-109113767D01*
X187727150Y-108905384D01*
X187645843Y-108709091D01*
X187527803Y-108532433D01*
X187377567Y-108382197D01*
X187200909Y-108264157D01*
X187004616Y-108182850D01*
X186796233Y-108141400D01*
X186583767Y-108141400D01*
X186375384Y-108182850D01*
X186179091Y-108264157D01*
X186002433Y-108382197D01*
X185852197Y-108532433D01*
X185734157Y-108709091D01*
X185652850Y-108905384D01*
X185611400Y-109113767D01*
X185228600Y-109113767D01*
X185187150Y-108905384D01*
X185105843Y-108709091D01*
X184987803Y-108532433D01*
X184837567Y-108382197D01*
X184660909Y-108264157D01*
X184464616Y-108182850D01*
X184256233Y-108141400D01*
X184043767Y-108141400D01*
X183835384Y-108182850D01*
X183639091Y-108264157D01*
X183462433Y-108382197D01*
X183312197Y-108532433D01*
X183194157Y-108709091D01*
X183112850Y-108905384D01*
X183071400Y-109113767D01*
X182688600Y-109113767D01*
X182647150Y-108905384D01*
X182565843Y-108709091D01*
X182447803Y-108532433D01*
X182297567Y-108382197D01*
X182120909Y-108264157D01*
X181924616Y-108182850D01*
X181716233Y-108141400D01*
X181503767Y-108141400D01*
X181295384Y-108182850D01*
X181099091Y-108264157D01*
X180922433Y-108382197D01*
X180772197Y-108532433D01*
X180654157Y-108709091D01*
X180572850Y-108905384D01*
X180531400Y-109113767D01*
X180148600Y-109113767D01*
X180107150Y-108905384D01*
X180025843Y-108709091D01*
X179907803Y-108532433D01*
X179757567Y-108382197D01*
X179580909Y-108264157D01*
X179384616Y-108182850D01*
X179176233Y-108141400D01*
X178963767Y-108141400D01*
X178755384Y-108182850D01*
X178559091Y-108264157D01*
X178382433Y-108382197D01*
X178232197Y-108532433D01*
X178114157Y-108709091D01*
X178032850Y-108905384D01*
X177991400Y-109113767D01*
X177608600Y-109113767D01*
X177567150Y-108905384D01*
X177485843Y-108709091D01*
X177367803Y-108532433D01*
X177217567Y-108382197D01*
X177040909Y-108264157D01*
X176844616Y-108182850D01*
X176636233Y-108141400D01*
X176423767Y-108141400D01*
X176215384Y-108182850D01*
X176019091Y-108264157D01*
X175842433Y-108382197D01*
X175692197Y-108532433D01*
X175574157Y-108709091D01*
X175492850Y-108905384D01*
X175451400Y-109113767D01*
X175068600Y-109113767D01*
X175027150Y-108905384D01*
X174945843Y-108709091D01*
X174827803Y-108532433D01*
X174677567Y-108382197D01*
X174500909Y-108264157D01*
X174304616Y-108182850D01*
X174096233Y-108141400D01*
X173883767Y-108141400D01*
X173675384Y-108182850D01*
X173479091Y-108264157D01*
X173302433Y-108382197D01*
X173152197Y-108532433D01*
X173034157Y-108709091D01*
X172952850Y-108905384D01*
X172911400Y-109113767D01*
X172528600Y-109113767D01*
X172487150Y-108905384D01*
X172405843Y-108709091D01*
X172287803Y-108532433D01*
X172170676Y-108415306D01*
X172241867Y-108377253D01*
X172305683Y-108324881D01*
X172318808Y-108308888D01*
X176703597Y-103924100D01*
X176991404Y-103924100D01*
X179394097Y-106326794D01*
X179407218Y-106342782D01*
X179471034Y-106395154D01*
X179543842Y-106434071D01*
X179622842Y-106458035D01*
X179684420Y-106464100D01*
X179684422Y-106464100D01*
X179704999Y-106466127D01*
X179725577Y-106464100D01*
X186661642Y-106464100D01*
X186682222Y-106466127D01*
X186702802Y-106464100D01*
X186764380Y-106458035D01*
X186843380Y-106434071D01*
X186916188Y-106395154D01*
X186980004Y-106342782D01*
X186993129Y-106326789D01*
X188399080Y-104920838D01*
X188415072Y-104907714D01*
X188467444Y-104843898D01*
X188506361Y-104771090D01*
X188530325Y-104692090D01*
X188536390Y-104630512D01*
X188536390Y-104630511D01*
X188538417Y-104609932D01*
X188536390Y-104589352D01*
X188536390Y-103569099D01*
X188566718Y-103538771D01*
X188630039Y-103444005D01*
X188673655Y-103338707D01*
X188695890Y-103226922D01*
X188695890Y-103112948D01*
X188673655Y-103001163D01*
X188630039Y-102895865D01*
X188566718Y-102801099D01*
X188486126Y-102720507D01*
X188391360Y-102657186D01*
X188286062Y-102613570D01*
X188198730Y-102596199D01*
X189687385Y-102596199D01*
X190373997Y-103282812D01*
X188890305Y-104766505D01*
X188874318Y-104779625D01*
X188861199Y-104795611D01*
X188821945Y-104843442D01*
X188783029Y-104916249D01*
X188759064Y-104995250D01*
X188750972Y-105077407D01*
X188753000Y-105097997D01*
X188752999Y-106992013D01*
X188750972Y-107012593D01*
X188752999Y-107033172D01*
X188759064Y-107094750D01*
X188783028Y-107173750D01*
X188821945Y-107246558D01*
X188874317Y-107310375D01*
X188890310Y-107323500D01*
X189875702Y-108308893D01*
X189888823Y-108324881D01*
X189952639Y-108377253D01*
X190025447Y-108416170D01*
X190104447Y-108440134D01*
X190186604Y-108448226D01*
X190207184Y-108446199D01*
X191018431Y-108446199D01*
X190932197Y-108532433D01*
X190814157Y-108709091D01*
X190732850Y-108905384D01*
X190691400Y-109113767D01*
X190691400Y-109326233D01*
X190732850Y-109534616D01*
X190814157Y-109730909D01*
X190932197Y-109907567D01*
X191082433Y-110057803D01*
X191259091Y-110175843D01*
X191455384Y-110257150D01*
X191663767Y-110298600D01*
X191876233Y-110298600D01*
X192084616Y-110257150D01*
X192280909Y-110175843D01*
X192457567Y-110057803D01*
X192607803Y-109907567D01*
X192725843Y-109730909D01*
X192807150Y-109534616D01*
X192848600Y-109326233D01*
X192848600Y-109113767D01*
X192807150Y-108905384D01*
X192725843Y-108709091D01*
X192607803Y-108532433D01*
X192521569Y-108446199D01*
X193558431Y-108446199D01*
X193472197Y-108532433D01*
X193354157Y-108709091D01*
X193272850Y-108905384D01*
X193231400Y-109113767D01*
X193231400Y-109326233D01*
X193272850Y-109534616D01*
X193354157Y-109730909D01*
X193472197Y-109907567D01*
X193622433Y-110057803D01*
X193799091Y-110175843D01*
X193995384Y-110257150D01*
X194203767Y-110298600D01*
X194416233Y-110298600D01*
X194624616Y-110257150D01*
X194820909Y-110175843D01*
X194997567Y-110057803D01*
X195147803Y-109907567D01*
X195265843Y-109730909D01*
X195347150Y-109534616D01*
X195388600Y-109326233D01*
X195388600Y-109113767D01*
X195347150Y-108905384D01*
X195265843Y-108709091D01*
X195147803Y-108532433D01*
X195061569Y-108446199D01*
X195483503Y-108446199D01*
X195850878Y-108813575D01*
X195812850Y-108905384D01*
X195771400Y-109113767D01*
X195771400Y-109326233D01*
X195812850Y-109534616D01*
X195850878Y-109626425D01*
X194726404Y-110750900D01*
X153253597Y-110750900D01*
X152819100Y-110316404D01*
X152819100Y-110299617D01*
X152820000Y-110299706D01*
X153536650Y-110298600D01*
X153593800Y-110241450D01*
X153593800Y-109296200D01*
X153746200Y-109296200D01*
X153746200Y-110241450D01*
X153803350Y-110298600D01*
X154520000Y-110299706D01*
X154564813Y-110295292D01*
X154607905Y-110282221D01*
X154647618Y-110260994D01*
X154682427Y-110232427D01*
X154710994Y-110197618D01*
X154732221Y-110157905D01*
X154745292Y-110114813D01*
X154749706Y-110070000D01*
X154748600Y-109353350D01*
X154691450Y-109296200D01*
X153746200Y-109296200D01*
X153593800Y-109296200D01*
X153573800Y-109296200D01*
X153573800Y-109143800D01*
X153593800Y-109143800D01*
X153593800Y-108198550D01*
X153746200Y-108198550D01*
X153746200Y-109143800D01*
X154691450Y-109143800D01*
X154748600Y-109086650D01*
X154749706Y-108370000D01*
X154745292Y-108325187D01*
X154732221Y-108282095D01*
X154710994Y-108242382D01*
X154682427Y-108207573D01*
X154647618Y-108179006D01*
X154607905Y-108157779D01*
X154564813Y-108144708D01*
X154520000Y-108140294D01*
X153803350Y-108141400D01*
X153746200Y-108198550D01*
X153593800Y-108198550D01*
X153536650Y-108141400D01*
X152820000Y-108140294D01*
X152819100Y-108140383D01*
X152819100Y-106853596D01*
X153182990Y-106489706D01*
X153885000Y-106489706D01*
X153929813Y-106485292D01*
X153972905Y-106472221D01*
X154012618Y-106450994D01*
X154047427Y-106422427D01*
X154075994Y-106387618D01*
X154097221Y-106347905D01*
X154110292Y-106304813D01*
X154114706Y-106260000D01*
X154114706Y-104560000D01*
X154110292Y-104515187D01*
X154097221Y-104472095D01*
X154075994Y-104432382D01*
X154047427Y-104397573D01*
X154012618Y-104369006D01*
X153972905Y-104347779D01*
X153929813Y-104334708D01*
X153885000Y-104330294D01*
X152185000Y-104330294D01*
X152140187Y-104334708D01*
X152097095Y-104347779D01*
X152057382Y-104369006D01*
X152022573Y-104397573D01*
X152018600Y-104402414D01*
X152018600Y-103234711D01*
X152079157Y-103380909D01*
X152197197Y-103557567D01*
X152347433Y-103707803D01*
X152524091Y-103825843D01*
X152720384Y-103907150D01*
X152928767Y-103948600D01*
X153141233Y-103948600D01*
X153349616Y-103907150D01*
X153545909Y-103825843D01*
X153722567Y-103707803D01*
X153836461Y-103593909D01*
X162366424Y-103593909D01*
X162285930Y-103627251D01*
X162191164Y-103690572D01*
X162110572Y-103771164D01*
X162047251Y-103865930D01*
X162003635Y-103971228D01*
X161981400Y-104083013D01*
X161981400Y-104196987D01*
X162003635Y-104308772D01*
X162047251Y-104414070D01*
X162110572Y-104508836D01*
X162191164Y-104589428D01*
X162285930Y-104652749D01*
X162391228Y-104696365D01*
X162503013Y-104718600D01*
X162616987Y-104718600D01*
X162728772Y-104696365D01*
X162834070Y-104652749D01*
X162928836Y-104589428D01*
X163009428Y-104508836D01*
X163026758Y-104482900D01*
X166585249Y-104482900D01*
X167742905Y-105640557D01*
X167753642Y-105653640D01*
X167805855Y-105696490D01*
X167865425Y-105728331D01*
X167930062Y-105747938D01*
X167980439Y-105752900D01*
X167980446Y-105752900D01*
X167997281Y-105754558D01*
X168014116Y-105752900D01*
X170983242Y-105752900D01*
X171000572Y-105778836D01*
X171081164Y-105859428D01*
X171175930Y-105922749D01*
X171281228Y-105966365D01*
X171393013Y-105988600D01*
X171506987Y-105988600D01*
X171618772Y-105966365D01*
X171724070Y-105922749D01*
X171818836Y-105859428D01*
X171899428Y-105778836D01*
X171962749Y-105684070D01*
X172006365Y-105578772D01*
X172028600Y-105466987D01*
X172028600Y-105353013D01*
X172006365Y-105241228D01*
X171962749Y-105135930D01*
X171899428Y-105041164D01*
X171818836Y-104960572D01*
X171724070Y-104897251D01*
X171618772Y-104853635D01*
X171506987Y-104831400D01*
X171393013Y-104831400D01*
X171281228Y-104853635D01*
X171175930Y-104897251D01*
X171081164Y-104960572D01*
X171000572Y-105041164D01*
X170983242Y-105067100D01*
X168139316Y-105067100D01*
X166981663Y-103909448D01*
X166970922Y-103896360D01*
X166918709Y-103853510D01*
X166859139Y-103821669D01*
X166794502Y-103802062D01*
X166744125Y-103797100D01*
X166744117Y-103797100D01*
X166727282Y-103795442D01*
X166710447Y-103797100D01*
X163026758Y-103797100D01*
X163009428Y-103771164D01*
X162928836Y-103690572D01*
X162834070Y-103627251D01*
X162753576Y-103593909D01*
X173949438Y-103593909D01*
X173966273Y-103595567D01*
X173983108Y-103593909D01*
X173983116Y-103593909D01*
X174033493Y-103588947D01*
X174098130Y-103569340D01*
X174157700Y-103537499D01*
X174209913Y-103494649D01*
X174220654Y-103481561D01*
X177429202Y-100273013D01*
X193096400Y-100273013D01*
X193096400Y-100386987D01*
X193118635Y-100498772D01*
X193162251Y-100604070D01*
X193225572Y-100698836D01*
X193306164Y-100779428D01*
X193400930Y-100842749D01*
X193506228Y-100886365D01*
X193618013Y-100908600D01*
X193731987Y-100908600D01*
X193843772Y-100886365D01*
X193949070Y-100842749D01*
X194043836Y-100779428D01*
X194124428Y-100698836D01*
X194187749Y-100604070D01*
X194231365Y-100498772D01*
X194253600Y-100386987D01*
X194253600Y-100344096D01*
X194376758Y-100220938D01*
X194366400Y-100273013D01*
X194366400Y-100386987D01*
X194388635Y-100498772D01*
X194432251Y-100604070D01*
X194495572Y-100698836D01*
X194525901Y-100729165D01*
X194525900Y-102830420D01*
X194523873Y-102851000D01*
X194528292Y-102895865D01*
X194531965Y-102933157D01*
X194555929Y-103012157D01*
X194594846Y-103084965D01*
X194647218Y-103148782D01*
X194663211Y-103161907D01*
X195833097Y-104331794D01*
X195846218Y-104347782D01*
X195910034Y-104400154D01*
X195982842Y-104439071D01*
X196046335Y-104458331D01*
X196061842Y-104463035D01*
X196143999Y-104471127D01*
X196164579Y-104469100D01*
X196310654Y-104469100D01*
X196299708Y-104505187D01*
X196295294Y-104550000D01*
X196296400Y-104716650D01*
X196353550Y-104773800D01*
X197173800Y-104773800D01*
X197173800Y-104753800D01*
X197326200Y-104753800D01*
X197326200Y-104773800D01*
X198146450Y-104773800D01*
X198193749Y-104726501D01*
X198204406Y-104752228D01*
X198264991Y-104842900D01*
X198342100Y-104920009D01*
X198432772Y-104980594D01*
X198533521Y-105022326D01*
X198640475Y-105043600D01*
X198749525Y-105043600D01*
X198856479Y-105022326D01*
X198957228Y-104980594D01*
X199047900Y-104920009D01*
X199125009Y-104842900D01*
X199185594Y-104752228D01*
X199227326Y-104651479D01*
X199248600Y-104544525D01*
X199248600Y-104435475D01*
X199227326Y-104328521D01*
X199185594Y-104227772D01*
X199125009Y-104137100D01*
X199047900Y-104059991D01*
X199001668Y-104029100D01*
X199029070Y-104017749D01*
X199123836Y-103954428D01*
X199204428Y-103873836D01*
X199267749Y-103779070D01*
X199311365Y-103673772D01*
X199333600Y-103561987D01*
X199333600Y-103448013D01*
X199311365Y-103336228D01*
X199267749Y-103230930D01*
X199204428Y-103136164D01*
X199123836Y-103055572D01*
X199029070Y-102992251D01*
X198923772Y-102948635D01*
X198811987Y-102926400D01*
X198698013Y-102926400D01*
X198586228Y-102948635D01*
X198480930Y-102992251D01*
X198458707Y-103007100D01*
X198204007Y-103007100D01*
X198204706Y-103000000D01*
X198204706Y-102700000D01*
X198204007Y-102692900D01*
X198398843Y-102692900D01*
X198480930Y-102747749D01*
X198586228Y-102791365D01*
X198698013Y-102813600D01*
X198811987Y-102813600D01*
X198923772Y-102791365D01*
X199029070Y-102747749D01*
X199123836Y-102684428D01*
X199204428Y-102603836D01*
X199267749Y-102509070D01*
X199311365Y-102403772D01*
X199333600Y-102291987D01*
X199333600Y-102178013D01*
X199311365Y-102066228D01*
X199267749Y-101960930D01*
X199204428Y-101866164D01*
X199123836Y-101785572D01*
X199029070Y-101722251D01*
X198923772Y-101678635D01*
X198811987Y-101656400D01*
X198698013Y-101656400D01*
X198586228Y-101678635D01*
X198584601Y-101679309D01*
X198584601Y-101520691D01*
X198586228Y-101521365D01*
X198698013Y-101543600D01*
X198811987Y-101543600D01*
X198923772Y-101521365D01*
X199029070Y-101477749D01*
X199123836Y-101414428D01*
X199204428Y-101333836D01*
X199267749Y-101239070D01*
X199311365Y-101133772D01*
X199333600Y-101021987D01*
X199333600Y-100908013D01*
X199311365Y-100796228D01*
X199267749Y-100690930D01*
X199204428Y-100596164D01*
X199123836Y-100515572D01*
X199029070Y-100452251D01*
X198923772Y-100408635D01*
X198811987Y-100386400D01*
X198698013Y-100386400D01*
X198586228Y-100408635D01*
X198483921Y-100451012D01*
X198667419Y-100267515D01*
X198698013Y-100273600D01*
X198811987Y-100273600D01*
X198923772Y-100251365D01*
X199029070Y-100207749D01*
X199123836Y-100144428D01*
X199204428Y-100063836D01*
X199267749Y-99969070D01*
X199311365Y-99863772D01*
X199333600Y-99751987D01*
X199333600Y-99638013D01*
X199311365Y-99526228D01*
X199267749Y-99420930D01*
X199204428Y-99326164D01*
X199123836Y-99245572D01*
X199029070Y-99182251D01*
X199001668Y-99170900D01*
X199047900Y-99140009D01*
X199125009Y-99062900D01*
X199185594Y-98972228D01*
X199227326Y-98871479D01*
X199248600Y-98764525D01*
X199248600Y-98655475D01*
X199227326Y-98548521D01*
X199185594Y-98447772D01*
X199125009Y-98357100D01*
X199047900Y-98279991D01*
X198957228Y-98219406D01*
X198856479Y-98177674D01*
X198749525Y-98156400D01*
X198640475Y-98156400D01*
X198533521Y-98177674D01*
X198432772Y-98219406D01*
X198342100Y-98279991D01*
X198264991Y-98357100D01*
X198204406Y-98447772D01*
X198193749Y-98473499D01*
X198146450Y-98426200D01*
X197326200Y-98426200D01*
X197326200Y-98446200D01*
X197173800Y-98446200D01*
X197173800Y-98426200D01*
X196353550Y-98426200D01*
X196296400Y-98483350D01*
X196295294Y-98650000D01*
X196299708Y-98694813D01*
X196310654Y-98730900D01*
X194875579Y-98730900D01*
X194854999Y-98728873D01*
X194772842Y-98736965D01*
X194693842Y-98760929D01*
X194621034Y-98799846D01*
X194557218Y-98852218D01*
X194544097Y-98868206D01*
X193660904Y-99751400D01*
X193618013Y-99751400D01*
X193506228Y-99773635D01*
X193400930Y-99817251D01*
X193306164Y-99880572D01*
X193225572Y-99961164D01*
X193162251Y-100055930D01*
X193118635Y-100161228D01*
X193096400Y-100273013D01*
X177429202Y-100273013D01*
X177682614Y-100019602D01*
X179706463Y-100019602D01*
X179723298Y-100021260D01*
X179740133Y-100019602D01*
X179740141Y-100019602D01*
X179790518Y-100014640D01*
X179855155Y-99995033D01*
X179914725Y-99963192D01*
X179966938Y-99920342D01*
X179977679Y-99907254D01*
X180252419Y-99632515D01*
X180283013Y-99638600D01*
X180396987Y-99638600D01*
X180508772Y-99616365D01*
X180614070Y-99572749D01*
X180708836Y-99509428D01*
X180789428Y-99428836D01*
X180852749Y-99334070D01*
X180896365Y-99228772D01*
X180918600Y-99116987D01*
X180918600Y-99003013D01*
X180896365Y-98891228D01*
X180852749Y-98785930D01*
X180789428Y-98691164D01*
X180708836Y-98610572D01*
X180614070Y-98547251D01*
X180508772Y-98503635D01*
X180396987Y-98481400D01*
X180283013Y-98481400D01*
X180171228Y-98503635D01*
X180065930Y-98547251D01*
X179971164Y-98610572D01*
X179890572Y-98691164D01*
X179827251Y-98785930D01*
X179783635Y-98891228D01*
X179761400Y-99003013D01*
X179761400Y-99116987D01*
X179767485Y-99147581D01*
X179581265Y-99333802D01*
X178312860Y-99333802D01*
X178356365Y-99228772D01*
X178378600Y-99116987D01*
X178378600Y-99003013D01*
X178356365Y-98891228D01*
X178312749Y-98785930D01*
X178249428Y-98691164D01*
X178168836Y-98610572D01*
X178074070Y-98547251D01*
X177968772Y-98503635D01*
X177856987Y-98481400D01*
X177743013Y-98481400D01*
X177631228Y-98503635D01*
X177525930Y-98547251D01*
X177431164Y-98610572D01*
X177350572Y-98691164D01*
X177287251Y-98785930D01*
X177243635Y-98891228D01*
X177229071Y-98964448D01*
X173666419Y-102527100D01*
X159885702Y-102527100D01*
X159897749Y-102509070D01*
X159941365Y-102403772D01*
X159963600Y-102291987D01*
X159963600Y-102178013D01*
X159941365Y-102066228D01*
X159897749Y-101960930D01*
X159834428Y-101866164D01*
X159753836Y-101785572D01*
X159659070Y-101722251D01*
X159553772Y-101678635D01*
X159441987Y-101656400D01*
X159328013Y-101656400D01*
X159297419Y-101662485D01*
X156552900Y-98917967D01*
X156552900Y-95005434D01*
X156720909Y-94935843D01*
X156897567Y-94817803D01*
X157047803Y-94667567D01*
X157165843Y-94490909D01*
X157247150Y-94294616D01*
X157288600Y-94086233D01*
X157288600Y-93873767D01*
X157671400Y-93873767D01*
X157671400Y-94086233D01*
X157712850Y-94294616D01*
X157794157Y-94490909D01*
X157912197Y-94667567D01*
X158062433Y-94817803D01*
X158239091Y-94935843D01*
X158407100Y-95005434D01*
X158407101Y-99678155D01*
X158405442Y-99695000D01*
X158412062Y-99762219D01*
X158426119Y-99808559D01*
X158431670Y-99826857D01*
X158463511Y-99886427D01*
X158506361Y-99938640D01*
X158519444Y-99949377D01*
X158812486Y-100242419D01*
X158806400Y-100273013D01*
X158806400Y-100386987D01*
X158828635Y-100498772D01*
X158872251Y-100604070D01*
X158935572Y-100698836D01*
X159016164Y-100779428D01*
X159110930Y-100842749D01*
X159216228Y-100886365D01*
X159328013Y-100908600D01*
X159441987Y-100908600D01*
X159553772Y-100886365D01*
X159659070Y-100842749D01*
X159753836Y-100779428D01*
X159834428Y-100698836D01*
X159897749Y-100604070D01*
X159941365Y-100498772D01*
X159963600Y-100386987D01*
X159963600Y-100273013D01*
X159941365Y-100161228D01*
X159897749Y-100055930D01*
X159834428Y-99961164D01*
X159753836Y-99880572D01*
X159659070Y-99817251D01*
X159553772Y-99773635D01*
X159441987Y-99751400D01*
X159328013Y-99751400D01*
X159297419Y-99757486D01*
X159092900Y-99552967D01*
X159092900Y-99003013D01*
X161981400Y-99003013D01*
X161981400Y-99116987D01*
X162003635Y-99228772D01*
X162047251Y-99334070D01*
X162110572Y-99428836D01*
X162191164Y-99509428D01*
X162285930Y-99572749D01*
X162391228Y-99616365D01*
X162503013Y-99638600D01*
X162616987Y-99638600D01*
X162728772Y-99616365D01*
X162834070Y-99572749D01*
X162928836Y-99509428D01*
X163009428Y-99428836D01*
X163072749Y-99334070D01*
X163116365Y-99228772D01*
X163138600Y-99116987D01*
X163138600Y-99003013D01*
X163132515Y-98972419D01*
X163972034Y-98132900D01*
X173523242Y-98132900D01*
X173540572Y-98158836D01*
X173621164Y-98239428D01*
X173715930Y-98302749D01*
X173821228Y-98346365D01*
X173933013Y-98368600D01*
X174046987Y-98368600D01*
X174158772Y-98346365D01*
X174264070Y-98302749D01*
X174358836Y-98239428D01*
X174439428Y-98158836D01*
X174502749Y-98064070D01*
X174546365Y-97958772D01*
X174568600Y-97846987D01*
X174568600Y-97733013D01*
X174546365Y-97621228D01*
X174502749Y-97515930D01*
X174439428Y-97421164D01*
X174358836Y-97340572D01*
X174264070Y-97277251D01*
X174158772Y-97233635D01*
X174046987Y-97211400D01*
X173933013Y-97211400D01*
X173821228Y-97233635D01*
X173715930Y-97277251D01*
X173621164Y-97340572D01*
X173540572Y-97421164D01*
X173523242Y-97447100D01*
X163846834Y-97447100D01*
X163829999Y-97445442D01*
X163813164Y-97447100D01*
X163813157Y-97447100D01*
X163762780Y-97452062D01*
X163698143Y-97471669D01*
X163638573Y-97503510D01*
X163586360Y-97546360D01*
X163575623Y-97559443D01*
X162647581Y-98487485D01*
X162616987Y-98481400D01*
X162503013Y-98481400D01*
X162391228Y-98503635D01*
X162285930Y-98547251D01*
X162191164Y-98610572D01*
X162110572Y-98691164D01*
X162047251Y-98785930D01*
X162003635Y-98891228D01*
X161981400Y-99003013D01*
X159092900Y-99003013D01*
X159092900Y-95005434D01*
X159260909Y-94935843D01*
X159437567Y-94817803D01*
X159587803Y-94667567D01*
X159705843Y-94490909D01*
X159787150Y-94294616D01*
X159828600Y-94086233D01*
X159828600Y-93873767D01*
X160211400Y-93873767D01*
X160211400Y-94086233D01*
X160252850Y-94294616D01*
X160334157Y-94490909D01*
X160452197Y-94667567D01*
X160602433Y-94817803D01*
X160779091Y-94935843D01*
X160975384Y-95017150D01*
X161183767Y-95058600D01*
X161396233Y-95058600D01*
X161604616Y-95017150D01*
X161800909Y-94935843D01*
X161977567Y-94817803D01*
X162127803Y-94667567D01*
X162245843Y-94490909D01*
X162327150Y-94294616D01*
X162368600Y-94086233D01*
X162368600Y-93873767D01*
X162751400Y-93873767D01*
X162751400Y-94086233D01*
X162792850Y-94294616D01*
X162874157Y-94490909D01*
X162992197Y-94667567D01*
X163142433Y-94817803D01*
X163319091Y-94935843D01*
X163515384Y-95017150D01*
X163723767Y-95058600D01*
X163936233Y-95058600D01*
X164144616Y-95017150D01*
X164340909Y-94935843D01*
X164517567Y-94817803D01*
X164667803Y-94667567D01*
X164785843Y-94490909D01*
X164867150Y-94294616D01*
X164908600Y-94086233D01*
X164908600Y-93873767D01*
X165291400Y-93873767D01*
X165291400Y-94086233D01*
X165332850Y-94294616D01*
X165414157Y-94490909D01*
X165532197Y-94667567D01*
X165682433Y-94817803D01*
X165859091Y-94935843D01*
X166055384Y-95017150D01*
X166263767Y-95058600D01*
X166476233Y-95058600D01*
X166684616Y-95017150D01*
X166880909Y-94935843D01*
X167057567Y-94817803D01*
X167207803Y-94667567D01*
X167325843Y-94490909D01*
X167407150Y-94294616D01*
X167448600Y-94086233D01*
X167448600Y-93873767D01*
X167831400Y-93873767D01*
X167831400Y-94086233D01*
X167872850Y-94294616D01*
X167954157Y-94490909D01*
X168072197Y-94667567D01*
X168222433Y-94817803D01*
X168399091Y-94935843D01*
X168595384Y-95017150D01*
X168803767Y-95058600D01*
X169016233Y-95058600D01*
X169224616Y-95017150D01*
X169420909Y-94935843D01*
X169597567Y-94817803D01*
X169747803Y-94667567D01*
X169865843Y-94490909D01*
X169947150Y-94294616D01*
X169988600Y-94086233D01*
X169988600Y-93873767D01*
X170371400Y-93873767D01*
X170371400Y-94086233D01*
X170412850Y-94294616D01*
X170494157Y-94490909D01*
X170612197Y-94667567D01*
X170762433Y-94817803D01*
X170939091Y-94935843D01*
X171135384Y-95017150D01*
X171343767Y-95058600D01*
X171556233Y-95058600D01*
X171764616Y-95017150D01*
X171960909Y-94935843D01*
X172137567Y-94817803D01*
X172287803Y-94667567D01*
X172405843Y-94490909D01*
X172487150Y-94294616D01*
X172528600Y-94086233D01*
X172528600Y-93873767D01*
X172911400Y-93873767D01*
X172911400Y-94086233D01*
X172952850Y-94294616D01*
X173034157Y-94490909D01*
X173152197Y-94667567D01*
X173302433Y-94817803D01*
X173479091Y-94935843D01*
X173675384Y-95017150D01*
X173883767Y-95058600D01*
X174096233Y-95058600D01*
X174304616Y-95017150D01*
X174500909Y-94935843D01*
X174677567Y-94817803D01*
X174827803Y-94667567D01*
X174945843Y-94490909D01*
X175027150Y-94294616D01*
X175068600Y-94086233D01*
X175068600Y-93873767D01*
X175451400Y-93873767D01*
X175451400Y-94086233D01*
X175492850Y-94294616D01*
X175574157Y-94490909D01*
X175692197Y-94667567D01*
X175842433Y-94817803D01*
X176019091Y-94935843D01*
X176215384Y-95017150D01*
X176423767Y-95058600D01*
X176636233Y-95058600D01*
X176844616Y-95017150D01*
X177040909Y-94935843D01*
X177217567Y-94817803D01*
X177367803Y-94667567D01*
X177485843Y-94490909D01*
X177567150Y-94294616D01*
X177608600Y-94086233D01*
X177608600Y-93873767D01*
X177991400Y-93873767D01*
X177991400Y-94086233D01*
X178032850Y-94294616D01*
X178114157Y-94490909D01*
X178232197Y-94667567D01*
X178382433Y-94817803D01*
X178559091Y-94935843D01*
X178755384Y-95017150D01*
X178963767Y-95058600D01*
X179176233Y-95058600D01*
X179384616Y-95017150D01*
X179580909Y-94935843D01*
X179757567Y-94817803D01*
X179907803Y-94667567D01*
X180025843Y-94490909D01*
X180107150Y-94294616D01*
X180148600Y-94086233D01*
X180148600Y-93873767D01*
X180531400Y-93873767D01*
X180531400Y-94086233D01*
X180572850Y-94294616D01*
X180654157Y-94490909D01*
X180772197Y-94667567D01*
X180922433Y-94817803D01*
X181099091Y-94935843D01*
X181295384Y-95017150D01*
X181503767Y-95058600D01*
X181716233Y-95058600D01*
X181924616Y-95017150D01*
X182120909Y-94935843D01*
X182297567Y-94817803D01*
X182447803Y-94667567D01*
X182565843Y-94490909D01*
X182647150Y-94294616D01*
X182688600Y-94086233D01*
X182688600Y-93873767D01*
X183071400Y-93873767D01*
X183071400Y-94086233D01*
X183112850Y-94294616D01*
X183194157Y-94490909D01*
X183312197Y-94667567D01*
X183462433Y-94817803D01*
X183639091Y-94935843D01*
X183835384Y-95017150D01*
X183836760Y-95017424D01*
X183781164Y-95054572D01*
X183700572Y-95135164D01*
X183637251Y-95229930D01*
X183593635Y-95335228D01*
X183571400Y-95447013D01*
X183571400Y-95560987D01*
X183593635Y-95672772D01*
X183637251Y-95778070D01*
X183700572Y-95872836D01*
X183781164Y-95953428D01*
X183868823Y-96012000D01*
X183781164Y-96070572D01*
X183700572Y-96151164D01*
X183637251Y-96245930D01*
X183593635Y-96351228D01*
X183571400Y-96463013D01*
X183571400Y-96576987D01*
X183593635Y-96688772D01*
X183637251Y-96794070D01*
X183700572Y-96888836D01*
X183781164Y-96969428D01*
X183875930Y-97032749D01*
X183981228Y-97076365D01*
X184093013Y-97098600D01*
X184206987Y-97098600D01*
X184243259Y-97091385D01*
X196911237Y-97091385D01*
X196947888Y-97203800D01*
X198088800Y-97203800D01*
X198088800Y-96551400D01*
X197538800Y-96551400D01*
X197398121Y-96580266D01*
X197265777Y-96636022D01*
X197146853Y-96716526D01*
X197045920Y-96818684D01*
X196966856Y-96938570D01*
X196912700Y-97071577D01*
X196911237Y-97091385D01*
X184243259Y-97091385D01*
X184318772Y-97076365D01*
X184424070Y-97032749D01*
X184518836Y-96969428D01*
X184599428Y-96888836D01*
X184662749Y-96794070D01*
X184706365Y-96688772D01*
X184728600Y-96576987D01*
X184728600Y-96512901D01*
X198613138Y-96512901D01*
X198651637Y-96551400D01*
X198241200Y-96551400D01*
X198241200Y-97203800D01*
X198261200Y-97203800D01*
X198261200Y-97356200D01*
X198241200Y-97356200D01*
X198241200Y-97376200D01*
X198088800Y-97376200D01*
X198088800Y-97356200D01*
X196947888Y-97356200D01*
X196911237Y-97468615D01*
X196912700Y-97488423D01*
X196966856Y-97621430D01*
X197045920Y-97741316D01*
X197146853Y-97843474D01*
X197173798Y-97861714D01*
X197173798Y-97878548D01*
X197116650Y-97821400D01*
X196525000Y-97820294D01*
X196480187Y-97824708D01*
X196437095Y-97837779D01*
X196397382Y-97859006D01*
X196362573Y-97887573D01*
X196334006Y-97922382D01*
X196312779Y-97962095D01*
X196299708Y-98005187D01*
X196295294Y-98050000D01*
X196296400Y-98216650D01*
X196353550Y-98273800D01*
X197173800Y-98273800D01*
X197173800Y-98253800D01*
X197326200Y-98253800D01*
X197326200Y-98273800D01*
X198146450Y-98273800D01*
X198203600Y-98216650D01*
X198204706Y-98050000D01*
X198200628Y-98008600D01*
X198791200Y-98008600D01*
X198931879Y-97979734D01*
X199064223Y-97923978D01*
X199183147Y-97843474D01*
X199284080Y-97741316D01*
X199363144Y-97621430D01*
X199417300Y-97488423D01*
X199418763Y-97468615D01*
X199382113Y-97356202D01*
X199443600Y-97356202D01*
X199443600Y-97343363D01*
X201587101Y-99486865D01*
X201587100Y-99863242D01*
X201561164Y-99880572D01*
X201480572Y-99961164D01*
X201417251Y-100055930D01*
X201373635Y-100161228D01*
X201351400Y-100273013D01*
X201351400Y-100386987D01*
X201373635Y-100498772D01*
X201417251Y-100604070D01*
X201480572Y-100698836D01*
X201561164Y-100779428D01*
X201655930Y-100842749D01*
X201761228Y-100886365D01*
X201873013Y-100908600D01*
X201986987Y-100908600D01*
X202098772Y-100886365D01*
X202201079Y-100843988D01*
X202017581Y-101027486D01*
X201986987Y-101021400D01*
X201873013Y-101021400D01*
X201761228Y-101043635D01*
X201655930Y-101087251D01*
X201561164Y-101150572D01*
X201480572Y-101231164D01*
X201417251Y-101325930D01*
X201373635Y-101431228D01*
X201351400Y-101543013D01*
X201351400Y-101656987D01*
X201373635Y-101768772D01*
X201417251Y-101874070D01*
X201480572Y-101968836D01*
X201561164Y-102049428D01*
X201655930Y-102112749D01*
X201761228Y-102156365D01*
X201873013Y-102178600D01*
X201986987Y-102178600D01*
X202098772Y-102156365D01*
X202204070Y-102112749D01*
X202298836Y-102049428D01*
X202379428Y-101968836D01*
X202442749Y-101874070D01*
X202486365Y-101768772D01*
X202508600Y-101656987D01*
X202508600Y-101543013D01*
X202502514Y-101512419D01*
X202922556Y-101092377D01*
X202935639Y-101081640D01*
X202978490Y-101029427D01*
X203010331Y-100969857D01*
X203029938Y-100905220D01*
X203034900Y-100854843D01*
X203034900Y-100854842D01*
X203036559Y-100838000D01*
X203034900Y-100821157D01*
X203034900Y-99584845D01*
X203036559Y-99568002D01*
X203029938Y-99500782D01*
X203010331Y-99436145D01*
X202978490Y-99376575D01*
X202946376Y-99337444D01*
X202935640Y-99324362D01*
X202922557Y-99313625D01*
X201077547Y-97468615D01*
X201341237Y-97468615D01*
X201342700Y-97488423D01*
X201396856Y-97621430D01*
X201475920Y-97741316D01*
X201576853Y-97843474D01*
X201695777Y-97923978D01*
X201828121Y-97979734D01*
X201968800Y-98008600D01*
X202268800Y-98008600D01*
X202268800Y-97356200D01*
X202421200Y-97356200D01*
X202421200Y-98008600D01*
X202721200Y-98008600D01*
X202861879Y-97979734D01*
X202994223Y-97923978D01*
X203113147Y-97843474D01*
X203214080Y-97741316D01*
X203293144Y-97621430D01*
X203347300Y-97488423D01*
X203348763Y-97468615D01*
X203312112Y-97356200D01*
X202421200Y-97356200D01*
X202268800Y-97356200D01*
X201377888Y-97356200D01*
X201341237Y-97468615D01*
X201077547Y-97468615D01*
X200700317Y-97091385D01*
X201341237Y-97091385D01*
X201377888Y-97203800D01*
X202268800Y-97203800D01*
X202268800Y-96551400D01*
X202421200Y-96551400D01*
X202421200Y-97203800D01*
X203312112Y-97203800D01*
X203348763Y-97091385D01*
X203347300Y-97071577D01*
X203293144Y-96938570D01*
X203214080Y-96818684D01*
X203113147Y-96716526D01*
X202994223Y-96636022D01*
X202861879Y-96580266D01*
X202721200Y-96551400D01*
X202421200Y-96551400D01*
X202268800Y-96551400D01*
X201968800Y-96551400D01*
X201828121Y-96580266D01*
X201695777Y-96636022D01*
X201576853Y-96716526D01*
X201475920Y-96818684D01*
X201396856Y-96938570D01*
X201342700Y-97071577D01*
X201341237Y-97091385D01*
X200700317Y-97091385D01*
X199167371Y-95558439D01*
X199156630Y-95545351D01*
X199104417Y-95502501D01*
X199044847Y-95470660D01*
X198980210Y-95451053D01*
X198929833Y-95446091D01*
X198929825Y-95446091D01*
X198912990Y-95444433D01*
X198896155Y-95446091D01*
X184728417Y-95446091D01*
X184706365Y-95335228D01*
X184662749Y-95229930D01*
X184599428Y-95135164D01*
X184518836Y-95054572D01*
X184463240Y-95017424D01*
X184464616Y-95017150D01*
X184660909Y-94935843D01*
X184837567Y-94817803D01*
X184987803Y-94667567D01*
X185105843Y-94490909D01*
X185187150Y-94294616D01*
X185228600Y-94086233D01*
X185228600Y-93873767D01*
X185611400Y-93873767D01*
X185611400Y-94086233D01*
X185652850Y-94294616D01*
X185734157Y-94490909D01*
X185852197Y-94667567D01*
X186002433Y-94817803D01*
X186179091Y-94935843D01*
X186375384Y-95017150D01*
X186583767Y-95058600D01*
X186796233Y-95058600D01*
X187004616Y-95017150D01*
X187200909Y-94935843D01*
X187377567Y-94817803D01*
X187527803Y-94667567D01*
X187645843Y-94490909D01*
X187727150Y-94294616D01*
X187768600Y-94086233D01*
X187768600Y-93873767D01*
X188151400Y-93873767D01*
X188151400Y-94086233D01*
X188192850Y-94294616D01*
X188274157Y-94490909D01*
X188392197Y-94667567D01*
X188542433Y-94817803D01*
X188719091Y-94935843D01*
X188915384Y-95017150D01*
X189123767Y-95058600D01*
X189336233Y-95058600D01*
X189544616Y-95017150D01*
X189740909Y-94935843D01*
X189917567Y-94817803D01*
X190067803Y-94667567D01*
X190185843Y-94490909D01*
X190267150Y-94294616D01*
X190308600Y-94086233D01*
X190308600Y-93873767D01*
X190691400Y-93873767D01*
X190691400Y-94086233D01*
X190732850Y-94294616D01*
X190814157Y-94490909D01*
X190932197Y-94667567D01*
X191082433Y-94817803D01*
X191259091Y-94935843D01*
X191455384Y-95017150D01*
X191663767Y-95058600D01*
X191876233Y-95058600D01*
X192084616Y-95017150D01*
X192280909Y-94935843D01*
X192457567Y-94817803D01*
X192607803Y-94667567D01*
X192725843Y-94490909D01*
X192807150Y-94294616D01*
X192848600Y-94086233D01*
X192848600Y-93873767D01*
X193231400Y-93873767D01*
X193231400Y-94086233D01*
X193272850Y-94294616D01*
X193354157Y-94490909D01*
X193472197Y-94667567D01*
X193622433Y-94817803D01*
X193799091Y-94935843D01*
X193995384Y-95017150D01*
X194203767Y-95058600D01*
X194416233Y-95058600D01*
X194624616Y-95017150D01*
X194820909Y-94935843D01*
X194997567Y-94817803D01*
X195147803Y-94667567D01*
X195265843Y-94490909D01*
X195347150Y-94294616D01*
X195388600Y-94086233D01*
X195388600Y-93873767D01*
X195771400Y-93873767D01*
X195771400Y-94086233D01*
X195812850Y-94294616D01*
X195894157Y-94490909D01*
X196012197Y-94667567D01*
X196162433Y-94817803D01*
X196339091Y-94935843D01*
X196535384Y-95017150D01*
X196743767Y-95058600D01*
X196956233Y-95058600D01*
X197164616Y-95017150D01*
X197360909Y-94935843D01*
X197537567Y-94817803D01*
X197687803Y-94667567D01*
X197805843Y-94490909D01*
X197887150Y-94294616D01*
X197928600Y-94086233D01*
X197928600Y-93873767D01*
X198311400Y-93873767D01*
X198311400Y-94086233D01*
X198352850Y-94294616D01*
X198434157Y-94490909D01*
X198552197Y-94667567D01*
X198702433Y-94817803D01*
X198879091Y-94935843D01*
X199075384Y-95017150D01*
X199283767Y-95058600D01*
X199496233Y-95058600D01*
X199704616Y-95017150D01*
X199900909Y-94935843D01*
X200077567Y-94817803D01*
X200227803Y-94667567D01*
X200345843Y-94490909D01*
X200427150Y-94294616D01*
X200468600Y-94086233D01*
X200468600Y-93873767D01*
X200851400Y-93873767D01*
X200851400Y-94086233D01*
X200892850Y-94294616D01*
X200974157Y-94490909D01*
X201092197Y-94667567D01*
X201242433Y-94817803D01*
X201419091Y-94935843D01*
X201615384Y-95017150D01*
X201823767Y-95058600D01*
X202036233Y-95058600D01*
X202244616Y-95017150D01*
X202440909Y-94935843D01*
X202617567Y-94817803D01*
X202767803Y-94667567D01*
X202885843Y-94490909D01*
X202967150Y-94294616D01*
X203008600Y-94086233D01*
X203008600Y-93873767D01*
X202967150Y-93665384D01*
X202885843Y-93469091D01*
X202767803Y-93292433D01*
X202617567Y-93142197D01*
X202440909Y-93024157D01*
X202244616Y-92942850D01*
X202036233Y-92901400D01*
X201823767Y-92901400D01*
X201615384Y-92942850D01*
X201419091Y-93024157D01*
X201242433Y-93142197D01*
X201092197Y-93292433D01*
X200974157Y-93469091D01*
X200892850Y-93665384D01*
X200851400Y-93873767D01*
X200468600Y-93873767D01*
X200427150Y-93665384D01*
X200345843Y-93469091D01*
X200227803Y-93292433D01*
X200077567Y-93142197D01*
X199900909Y-93024157D01*
X199704616Y-92942850D01*
X199496233Y-92901400D01*
X199283767Y-92901400D01*
X199075384Y-92942850D01*
X198879091Y-93024157D01*
X198702433Y-93142197D01*
X198552197Y-93292433D01*
X198434157Y-93469091D01*
X198352850Y-93665384D01*
X198311400Y-93873767D01*
X197928600Y-93873767D01*
X197887150Y-93665384D01*
X197805843Y-93469091D01*
X197687803Y-93292433D01*
X197537567Y-93142197D01*
X197360909Y-93024157D01*
X197164616Y-92942850D01*
X196956233Y-92901400D01*
X196743767Y-92901400D01*
X196535384Y-92942850D01*
X196339091Y-93024157D01*
X196162433Y-93142197D01*
X196012197Y-93292433D01*
X195894157Y-93469091D01*
X195812850Y-93665384D01*
X195771400Y-93873767D01*
X195388600Y-93873767D01*
X195347150Y-93665384D01*
X195265843Y-93469091D01*
X195147803Y-93292433D01*
X194997567Y-93142197D01*
X194820909Y-93024157D01*
X194624616Y-92942850D01*
X194416233Y-92901400D01*
X194203767Y-92901400D01*
X193995384Y-92942850D01*
X193799091Y-93024157D01*
X193622433Y-93142197D01*
X193472197Y-93292433D01*
X193354157Y-93469091D01*
X193272850Y-93665384D01*
X193231400Y-93873767D01*
X192848600Y-93873767D01*
X192807150Y-93665384D01*
X192725843Y-93469091D01*
X192607803Y-93292433D01*
X192457567Y-93142197D01*
X192280909Y-93024157D01*
X192084616Y-92942850D01*
X191876233Y-92901400D01*
X191663767Y-92901400D01*
X191455384Y-92942850D01*
X191259091Y-93024157D01*
X191082433Y-93142197D01*
X190932197Y-93292433D01*
X190814157Y-93469091D01*
X190732850Y-93665384D01*
X190691400Y-93873767D01*
X190308600Y-93873767D01*
X190267150Y-93665384D01*
X190185843Y-93469091D01*
X190067803Y-93292433D01*
X189917567Y-93142197D01*
X189740909Y-93024157D01*
X189544616Y-92942850D01*
X189336233Y-92901400D01*
X189123767Y-92901400D01*
X188915384Y-92942850D01*
X188719091Y-93024157D01*
X188542433Y-93142197D01*
X188392197Y-93292433D01*
X188274157Y-93469091D01*
X188192850Y-93665384D01*
X188151400Y-93873767D01*
X187768600Y-93873767D01*
X187727150Y-93665384D01*
X187645843Y-93469091D01*
X187527803Y-93292433D01*
X187377567Y-93142197D01*
X187200909Y-93024157D01*
X187004616Y-92942850D01*
X186796233Y-92901400D01*
X186583767Y-92901400D01*
X186375384Y-92942850D01*
X186179091Y-93024157D01*
X186002433Y-93142197D01*
X185852197Y-93292433D01*
X185734157Y-93469091D01*
X185652850Y-93665384D01*
X185611400Y-93873767D01*
X185228600Y-93873767D01*
X185187150Y-93665384D01*
X185105843Y-93469091D01*
X184987803Y-93292433D01*
X184837567Y-93142197D01*
X184660909Y-93024157D01*
X184464616Y-92942850D01*
X184256233Y-92901400D01*
X184043767Y-92901400D01*
X183835384Y-92942850D01*
X183639091Y-93024157D01*
X183462433Y-93142197D01*
X183312197Y-93292433D01*
X183194157Y-93469091D01*
X183112850Y-93665384D01*
X183071400Y-93873767D01*
X182688600Y-93873767D01*
X182647150Y-93665384D01*
X182565843Y-93469091D01*
X182447803Y-93292433D01*
X182297567Y-93142197D01*
X182120909Y-93024157D01*
X181924616Y-92942850D01*
X181716233Y-92901400D01*
X181503767Y-92901400D01*
X181295384Y-92942850D01*
X181099091Y-93024157D01*
X180922433Y-93142197D01*
X180772197Y-93292433D01*
X180654157Y-93469091D01*
X180572850Y-93665384D01*
X180531400Y-93873767D01*
X180148600Y-93873767D01*
X180107150Y-93665384D01*
X180025843Y-93469091D01*
X179907803Y-93292433D01*
X179757567Y-93142197D01*
X179580909Y-93024157D01*
X179384616Y-92942850D01*
X179176233Y-92901400D01*
X178963767Y-92901400D01*
X178755384Y-92942850D01*
X178559091Y-93024157D01*
X178382433Y-93142197D01*
X178232197Y-93292433D01*
X178114157Y-93469091D01*
X178032850Y-93665384D01*
X177991400Y-93873767D01*
X177608600Y-93873767D01*
X177567150Y-93665384D01*
X177485843Y-93469091D01*
X177367803Y-93292433D01*
X177217567Y-93142197D01*
X177040909Y-93024157D01*
X176844616Y-92942850D01*
X176636233Y-92901400D01*
X176423767Y-92901400D01*
X176215384Y-92942850D01*
X176019091Y-93024157D01*
X175842433Y-93142197D01*
X175692197Y-93292433D01*
X175574157Y-93469091D01*
X175492850Y-93665384D01*
X175451400Y-93873767D01*
X175068600Y-93873767D01*
X175027150Y-93665384D01*
X174945843Y-93469091D01*
X174827803Y-93292433D01*
X174677567Y-93142197D01*
X174500909Y-93024157D01*
X174304616Y-92942850D01*
X174096233Y-92901400D01*
X173883767Y-92901400D01*
X173675384Y-92942850D01*
X173479091Y-93024157D01*
X173302433Y-93142197D01*
X173152197Y-93292433D01*
X173034157Y-93469091D01*
X172952850Y-93665384D01*
X172911400Y-93873767D01*
X172528600Y-93873767D01*
X172487150Y-93665384D01*
X172405843Y-93469091D01*
X172287803Y-93292433D01*
X172137567Y-93142197D01*
X171960909Y-93024157D01*
X171764616Y-92942850D01*
X171556233Y-92901400D01*
X171343767Y-92901400D01*
X171135384Y-92942850D01*
X170939091Y-93024157D01*
X170762433Y-93142197D01*
X170612197Y-93292433D01*
X170494157Y-93469091D01*
X170412850Y-93665384D01*
X170371400Y-93873767D01*
X169988600Y-93873767D01*
X169947150Y-93665384D01*
X169865843Y-93469091D01*
X169747803Y-93292433D01*
X169597567Y-93142197D01*
X169420909Y-93024157D01*
X169224616Y-92942850D01*
X169016233Y-92901400D01*
X168803767Y-92901400D01*
X168595384Y-92942850D01*
X168399091Y-93024157D01*
X168222433Y-93142197D01*
X168072197Y-93292433D01*
X167954157Y-93469091D01*
X167872850Y-93665384D01*
X167831400Y-93873767D01*
X167448600Y-93873767D01*
X167407150Y-93665384D01*
X167325843Y-93469091D01*
X167207803Y-93292433D01*
X167057567Y-93142197D01*
X166880909Y-93024157D01*
X166684616Y-92942850D01*
X166476233Y-92901400D01*
X166263767Y-92901400D01*
X166055384Y-92942850D01*
X165859091Y-93024157D01*
X165682433Y-93142197D01*
X165532197Y-93292433D01*
X165414157Y-93469091D01*
X165332850Y-93665384D01*
X165291400Y-93873767D01*
X164908600Y-93873767D01*
X164867150Y-93665384D01*
X164785843Y-93469091D01*
X164667803Y-93292433D01*
X164517567Y-93142197D01*
X164340909Y-93024157D01*
X164144616Y-92942850D01*
X163936233Y-92901400D01*
X163723767Y-92901400D01*
X163515384Y-92942850D01*
X163319091Y-93024157D01*
X163142433Y-93142197D01*
X162992197Y-93292433D01*
X162874157Y-93469091D01*
X162792850Y-93665384D01*
X162751400Y-93873767D01*
X162368600Y-93873767D01*
X162327150Y-93665384D01*
X162245843Y-93469091D01*
X162127803Y-93292433D01*
X161977567Y-93142197D01*
X161800909Y-93024157D01*
X161604616Y-92942850D01*
X161396233Y-92901400D01*
X161183767Y-92901400D01*
X160975384Y-92942850D01*
X160779091Y-93024157D01*
X160602433Y-93142197D01*
X160452197Y-93292433D01*
X160334157Y-93469091D01*
X160252850Y-93665384D01*
X160211400Y-93873767D01*
X159828600Y-93873767D01*
X159787150Y-93665384D01*
X159705843Y-93469091D01*
X159587803Y-93292433D01*
X159437567Y-93142197D01*
X159260909Y-93024157D01*
X159064616Y-92942850D01*
X158856233Y-92901400D01*
X158643767Y-92901400D01*
X158435384Y-92942850D01*
X158239091Y-93024157D01*
X158062433Y-93142197D01*
X157912197Y-93292433D01*
X157794157Y-93469091D01*
X157712850Y-93665384D01*
X157671400Y-93873767D01*
X157288600Y-93873767D01*
X157247150Y-93665384D01*
X157165843Y-93469091D01*
X157047803Y-93292433D01*
X156897567Y-93142197D01*
X156720909Y-93024157D01*
X156524616Y-92942850D01*
X156316233Y-92901400D01*
X156103767Y-92901400D01*
X155895384Y-92942850D01*
X155699091Y-93024157D01*
X155522433Y-93142197D01*
X155372197Y-93292433D01*
X155254157Y-93469091D01*
X155172850Y-93665384D01*
X155131400Y-93873767D01*
X155131400Y-94086233D01*
X155172850Y-94294616D01*
X155254157Y-94490909D01*
X155372197Y-94667567D01*
X155522433Y-94817803D01*
X155699091Y-94935843D01*
X155867100Y-95005435D01*
X155867101Y-99043155D01*
X155865442Y-99060000D01*
X155872062Y-99127219D01*
X155875942Y-99140009D01*
X155891670Y-99191857D01*
X155923511Y-99251427D01*
X155966361Y-99303640D01*
X155979443Y-99314376D01*
X158812485Y-102147419D01*
X158806400Y-102178013D01*
X158806400Y-102291987D01*
X158828635Y-102403772D01*
X158872251Y-102509070D01*
X158884298Y-102527100D01*
X155717034Y-102527100D01*
X154002558Y-100812625D01*
X154072150Y-100644616D01*
X154113600Y-100436233D01*
X154113600Y-100223767D01*
X154072150Y-100015384D01*
X153990843Y-99819091D01*
X153872803Y-99642433D01*
X153722567Y-99492197D01*
X153545909Y-99374157D01*
X153349616Y-99292850D01*
X153141233Y-99251400D01*
X152928767Y-99251400D01*
X152720384Y-99292850D01*
X152524091Y-99374157D01*
X152347433Y-99492197D01*
X152197197Y-99642433D01*
X152079157Y-99819091D01*
X152018600Y-99965289D01*
X152018600Y-98146781D01*
X152026019Y-98171240D01*
X152119783Y-98360757D01*
X152248718Y-98528340D01*
X152407869Y-98667549D01*
X152591120Y-98773034D01*
X152791429Y-98840742D01*
X152958800Y-98808759D01*
X152958800Y-97866200D01*
X153111200Y-97866200D01*
X153111200Y-98808759D01*
X153278571Y-98840742D01*
X153478880Y-98773034D01*
X153662131Y-98667549D01*
X153821282Y-98528340D01*
X153950217Y-98360757D01*
X154043981Y-98171240D01*
X154085739Y-98033570D01*
X154053604Y-97866200D01*
X153111200Y-97866200D01*
X152958800Y-97866200D01*
X152938800Y-97866200D01*
X152938800Y-97713800D01*
X152958800Y-97713800D01*
X152958800Y-96771241D01*
X153111200Y-96771241D01*
X153111200Y-97713800D01*
X154053604Y-97713800D01*
X154085739Y-97546430D01*
X154043981Y-97408760D01*
X153950217Y-97219243D01*
X153821282Y-97051660D01*
X153662131Y-96912451D01*
X153478880Y-96806966D01*
X153278571Y-96739258D01*
X153111200Y-96771241D01*
X152958800Y-96771241D01*
X152791429Y-96739258D01*
X152591120Y-96806966D01*
X152407869Y-96912451D01*
X152248718Y-97051660D01*
X152119783Y-97219243D01*
X152026019Y-97408760D01*
X152018600Y-97433219D01*
X152018600Y-94830000D01*
X152590294Y-94830000D01*
X152594708Y-94874813D01*
X152607779Y-94917905D01*
X152629006Y-94957618D01*
X152657573Y-94992427D01*
X152692382Y-95020994D01*
X152732095Y-95042221D01*
X152775187Y-95055292D01*
X152820000Y-95059706D01*
X153536650Y-95058600D01*
X153593800Y-95001450D01*
X153593800Y-94056200D01*
X153746200Y-94056200D01*
X153746200Y-95001450D01*
X153803350Y-95058600D01*
X154520000Y-95059706D01*
X154564813Y-95055292D01*
X154607905Y-95042221D01*
X154647618Y-95020994D01*
X154682427Y-94992427D01*
X154710994Y-94957618D01*
X154732221Y-94917905D01*
X154745292Y-94874813D01*
X154749706Y-94830000D01*
X154748600Y-94113350D01*
X154691450Y-94056200D01*
X153746200Y-94056200D01*
X153593800Y-94056200D01*
X152648550Y-94056200D01*
X152591400Y-94113350D01*
X152590294Y-94830000D01*
X152018600Y-94830000D01*
X152018600Y-93130000D01*
X152590294Y-93130000D01*
X152591400Y-93846650D01*
X152648550Y-93903800D01*
X153593800Y-93903800D01*
X153593800Y-92958550D01*
X153746200Y-92958550D01*
X153746200Y-93903800D01*
X154691450Y-93903800D01*
X154748600Y-93846650D01*
X154749706Y-93130000D01*
X154745292Y-93085187D01*
X154732221Y-93042095D01*
X154710994Y-93002382D01*
X154682427Y-92967573D01*
X154647618Y-92939006D01*
X154607905Y-92917779D01*
X154564813Y-92904708D01*
X154520000Y-92900294D01*
X153803350Y-92901400D01*
X153746200Y-92958550D01*
X153593800Y-92958550D01*
X153536650Y-92901400D01*
X152820000Y-92900294D01*
X152775187Y-92904708D01*
X152732095Y-92917779D01*
X152692382Y-92939006D01*
X152657573Y-92967573D01*
X152629006Y-93002382D01*
X152607779Y-93042095D01*
X152594708Y-93085187D01*
X152590294Y-93130000D01*
X152018600Y-93130000D01*
X152018600Y-92722406D01*
X152039151Y-92512814D01*
X152096415Y-92323146D01*
X152189433Y-92148205D01*
X152314656Y-91994666D01*
X152467317Y-91868374D01*
X152641602Y-91774139D01*
X152830866Y-91715551D01*
X153039721Y-91693600D01*
X202552594Y-91693600D01*
X202762186Y-91714151D01*
G37*
X202762186Y-91714151D02*
X202951854Y-91771415D01*
X203126795Y-91864433D01*
X203280334Y-91989656D01*
X203406626Y-92142317D01*
X203500861Y-92316602D01*
X203559449Y-92505866D01*
X203581400Y-92714721D01*
X203581401Y-110477583D01*
X203560849Y-110687186D01*
X203503584Y-110876856D01*
X203410566Y-111051797D01*
X203285344Y-111205334D01*
X203132683Y-111331626D01*
X202958398Y-111425861D01*
X202769134Y-111484449D01*
X202560279Y-111506400D01*
X195150725Y-111506400D01*
X195197782Y-111467782D01*
X195210907Y-111451789D01*
X196443575Y-110219122D01*
X196535384Y-110257150D01*
X196743767Y-110298600D01*
X196956233Y-110298600D01*
X197164616Y-110257150D01*
X197360909Y-110175843D01*
X197537567Y-110057803D01*
X197687803Y-109907567D01*
X197805843Y-109730909D01*
X197887150Y-109534616D01*
X197928600Y-109326233D01*
X197928600Y-109113767D01*
X198311400Y-109113767D01*
X198311400Y-109326233D01*
X198352850Y-109534616D01*
X198434157Y-109730909D01*
X198552197Y-109907567D01*
X198702433Y-110057803D01*
X198879091Y-110175843D01*
X199075384Y-110257150D01*
X199283767Y-110298600D01*
X199496233Y-110298600D01*
X199704616Y-110257150D01*
X199900909Y-110175843D01*
X200077567Y-110057803D01*
X200227803Y-109907567D01*
X200345843Y-109730909D01*
X200427150Y-109534616D01*
X200441281Y-109463571D01*
X200879258Y-109463571D01*
X200946966Y-109663880D01*
X201052451Y-109847131D01*
X201191660Y-110006282D01*
X201359243Y-110135217D01*
X201548760Y-110228981D01*
X201686430Y-110270739D01*
X201853800Y-110238604D01*
X201853800Y-109296200D01*
X202006200Y-109296200D01*
X202006200Y-110238604D01*
X202173570Y-110270739D01*
X202311240Y-110228981D01*
X202500757Y-110135217D01*
X202668340Y-110006282D01*
X202807549Y-109847131D01*
X202913034Y-109663880D01*
X202980742Y-109463571D01*
X202948759Y-109296200D01*
X202006200Y-109296200D01*
X201853800Y-109296200D01*
X200911241Y-109296200D01*
X200879258Y-109463571D01*
X200441281Y-109463571D01*
X200468600Y-109326233D01*
X200468600Y-109113767D01*
X200441282Y-108976429D01*
X200879258Y-108976429D01*
X200911241Y-109143800D01*
X201853800Y-109143800D01*
X201853800Y-108201396D01*
X202006200Y-108201396D01*
X202006200Y-109143800D01*
X202948759Y-109143800D01*
X202980742Y-108976429D01*
X202913034Y-108776120D01*
X202807549Y-108592869D01*
X202668340Y-108433718D01*
X202500757Y-108304783D01*
X202311240Y-108211019D01*
X202173570Y-108169261D01*
X202006200Y-108201396D01*
X201853800Y-108201396D01*
X201686430Y-108169261D01*
X201548760Y-108211019D01*
X201359243Y-108304783D01*
X201191660Y-108433718D01*
X201052451Y-108592869D01*
X200946966Y-108776120D01*
X200879258Y-108976429D01*
X200441282Y-108976429D01*
X200427150Y-108905384D01*
X200345843Y-108709091D01*
X200227803Y-108532433D01*
X200077567Y-108382197D01*
X199900909Y-108264157D01*
X199704616Y-108182850D01*
X199496233Y-108141400D01*
X199283767Y-108141400D01*
X199075384Y-108182850D01*
X198879091Y-108264157D01*
X198702433Y-108382197D01*
X198552197Y-108532433D01*
X198434157Y-108709091D01*
X198352850Y-108905384D01*
X198311400Y-109113767D01*
X197928600Y-109113767D01*
X197887150Y-108905384D01*
X197805843Y-108709091D01*
X197687803Y-108532433D01*
X197679797Y-108524427D01*
X200095609Y-106108615D01*
X201341237Y-106108615D01*
X201342700Y-106128423D01*
X201396856Y-106261430D01*
X201475920Y-106381316D01*
X201576853Y-106483474D01*
X201695777Y-106563978D01*
X201828121Y-106619734D01*
X201968800Y-106648600D01*
X202268800Y-106648600D01*
X202268800Y-105996200D01*
X202421200Y-105996200D01*
X202421200Y-106648600D01*
X202721200Y-106648600D01*
X202861879Y-106619734D01*
X202994223Y-106563978D01*
X203113147Y-106483474D01*
X203214080Y-106381316D01*
X203293144Y-106261430D01*
X203347300Y-106128423D01*
X203348763Y-106108615D01*
X203312112Y-105996200D01*
X202421200Y-105996200D01*
X202268800Y-105996200D01*
X201377888Y-105996200D01*
X201341237Y-106108615D01*
X200095609Y-106108615D01*
X200472839Y-105731385D01*
X201341237Y-105731385D01*
X201377888Y-105843800D01*
X202268800Y-105843800D01*
X202268800Y-105191400D01*
X202421200Y-105191400D01*
X202421200Y-105843800D01*
X203312112Y-105843800D01*
X203348763Y-105731385D01*
X203347300Y-105711577D01*
X203293144Y-105578570D01*
X203214080Y-105458684D01*
X203113147Y-105356526D01*
X202994223Y-105276022D01*
X202861879Y-105220266D01*
X202721200Y-105191400D01*
X202421200Y-105191400D01*
X202268800Y-105191400D01*
X201968800Y-105191400D01*
X201828121Y-105220266D01*
X201695777Y-105276022D01*
X201576853Y-105356526D01*
X201475920Y-105458684D01*
X201396856Y-105578570D01*
X201342700Y-105711577D01*
X201341237Y-105731385D01*
X200472839Y-105731385D01*
X202160557Y-104043668D01*
X202173640Y-104032931D01*
X202216490Y-103980718D01*
X202248331Y-103921148D01*
X202267938Y-103856511D01*
X202272900Y-103806134D01*
X202274559Y-103789291D01*
X202272900Y-103772448D01*
X202272900Y-103336758D01*
X202298836Y-103319428D01*
X202379428Y-103238836D01*
X202442749Y-103144070D01*
X202486365Y-103038772D01*
X202508600Y-102926987D01*
X202508600Y-102813013D01*
X202486365Y-102701228D01*
X202442749Y-102595930D01*
X202379428Y-102501164D01*
X202298836Y-102420572D01*
X202204070Y-102357251D01*
X202098772Y-102313635D01*
X201986987Y-102291400D01*
X201873013Y-102291400D01*
X201761228Y-102313635D01*
X201655930Y-102357251D01*
X201561164Y-102420572D01*
X201480572Y-102501164D01*
X201417251Y-102595930D01*
X201373635Y-102701228D01*
X201351400Y-102813013D01*
X201351400Y-102926987D01*
X201373635Y-103038772D01*
X201417251Y-103144070D01*
X201480572Y-103238836D01*
X201561164Y-103319428D01*
X201587101Y-103336758D01*
X201587101Y-103647256D01*
X199390559Y-105843798D01*
X199382113Y-105843798D01*
X199418763Y-105731385D01*
X199417300Y-105711577D01*
X199363144Y-105578570D01*
X199284080Y-105458684D01*
X199183147Y-105356526D01*
X199064223Y-105276022D01*
X198931879Y-105220266D01*
X198791200Y-105191400D01*
X198200628Y-105191400D01*
X198204706Y-105150000D01*
X198203600Y-104983350D01*
X198146450Y-104926200D01*
X197326200Y-104926200D01*
X197326200Y-104946200D01*
X197173800Y-104946200D01*
X197173800Y-104926200D01*
X196353550Y-104926200D01*
X196296400Y-104983350D01*
X196295294Y-105150000D01*
X196299708Y-105194813D01*
X196312779Y-105237905D01*
X196334006Y-105277618D01*
X196362573Y-105312427D01*
X196397382Y-105340994D01*
X196437095Y-105362221D01*
X196480187Y-105375292D01*
X196525000Y-105379706D01*
X197116650Y-105378600D01*
X197173798Y-105321452D01*
X197173798Y-105338286D01*
X197146853Y-105356526D01*
X197045920Y-105458684D01*
X196966856Y-105578570D01*
X196912700Y-105711577D01*
X196911237Y-105731385D01*
X196947888Y-105843800D01*
X198088800Y-105843800D01*
X198088800Y-105823800D01*
X198241200Y-105823800D01*
X198241200Y-105843800D01*
X198261200Y-105843800D01*
X198261200Y-105996200D01*
X198241200Y-105996200D01*
X198241200Y-106648600D01*
X198585758Y-106648600D01*
X197070274Y-108164084D01*
X196956233Y-108141400D01*
X196743767Y-108141400D01*
X196535384Y-108182850D01*
X196443575Y-108220878D01*
X195968006Y-107745310D01*
X195954881Y-107729317D01*
X195891065Y-107676945D01*
X195818257Y-107638028D01*
X195739257Y-107614064D01*
X195677679Y-107607999D01*
X195657099Y-107605972D01*
X195636519Y-107607999D01*
X190360202Y-107607999D01*
X189591199Y-106838997D01*
X189591199Y-106108615D01*
X196911237Y-106108615D01*
X196912700Y-106128423D01*
X196966856Y-106261430D01*
X197045920Y-106381316D01*
X197146853Y-106483474D01*
X197265777Y-106563978D01*
X197398121Y-106619734D01*
X197538800Y-106648600D01*
X198088800Y-106648600D01*
X198088800Y-105996200D01*
X196947888Y-105996200D01*
X196911237Y-106108615D01*
X189591199Y-106108615D01*
X189591199Y-105251003D01*
X190844457Y-103997746D01*
X190943728Y-104038865D01*
X191055513Y-104061100D01*
X191169487Y-104061100D01*
X191281272Y-104038865D01*
X191386570Y-103995249D01*
X191481336Y-103931928D01*
X191561928Y-103851336D01*
X191625249Y-103756570D01*
X191668865Y-103651272D01*
X191691100Y-103539487D01*
X191691100Y-103425513D01*
X191668865Y-103313728D01*
X191625249Y-103208430D01*
X191561928Y-103113664D01*
X191481336Y-103033072D01*
X191386570Y-102969751D01*
X191281272Y-102926135D01*
X191169487Y-102903900D01*
X191072715Y-102903900D01*
X190127845Y-101959031D01*
X190115910Y-101944488D01*
X190057895Y-101896877D01*
X189991707Y-101861498D01*
X189919888Y-101839712D01*
X189863912Y-101834199D01*
X189863909Y-101834199D01*
X189845199Y-101832356D01*
X189826489Y-101834199D01*
X179843014Y-101834199D01*
X179648600Y-101639785D01*
X179648600Y-101543013D01*
X179626365Y-101431228D01*
X179582749Y-101325930D01*
X179519428Y-101231164D01*
X179438836Y-101150572D01*
X179344070Y-101087251D01*
X179238772Y-101043635D01*
X179126987Y-101021400D01*
X179013013Y-101021400D01*
X178901228Y-101043635D01*
X178795930Y-101087251D01*
X178701164Y-101150572D01*
X178620572Y-101231164D01*
X178557251Y-101325930D01*
X178513635Y-101431228D01*
X178491400Y-101543013D01*
X178491400Y-101656987D01*
X178513635Y-101768772D01*
X178557251Y-101874070D01*
X178620572Y-101968836D01*
X178701164Y-102049428D01*
X178795930Y-102112749D01*
X178901228Y-102156365D01*
X179013013Y-102178600D01*
X179109785Y-102178600D01*
X179402558Y-102471373D01*
X179414488Y-102485910D01*
X179435709Y-102503325D01*
X179472502Y-102533521D01*
X179538691Y-102568900D01*
X179610510Y-102590686D01*
X179666486Y-102596199D01*
X179666489Y-102596199D01*
X179685199Y-102598042D01*
X179703909Y-102596199D01*
X188035850Y-102596199D01*
X187948518Y-102613570D01*
X187843220Y-102657186D01*
X187748454Y-102720507D01*
X187667862Y-102801099D01*
X187604541Y-102895865D01*
X187560925Y-103001163D01*
X187538690Y-103112948D01*
X187538690Y-103226922D01*
X187560925Y-103338707D01*
X187604541Y-103444005D01*
X187667862Y-103538771D01*
X187698191Y-103569100D01*
X187698190Y-104436336D01*
X186508626Y-105625900D01*
X179878597Y-105625900D01*
X177475907Y-103223211D01*
X177462782Y-103207218D01*
X177398966Y-103154846D01*
X177326158Y-103115929D01*
X177247158Y-103091965D01*
X177185580Y-103085900D01*
X177165000Y-103083873D01*
X177144420Y-103085900D01*
X176949100Y-103085900D01*
X176949100Y-102634164D01*
X176979428Y-102603836D01*
X177042749Y-102509070D01*
X177086365Y-102403772D01*
X177108600Y-102291987D01*
X177108600Y-102178013D01*
X177086365Y-102066228D01*
X177042749Y-101960930D01*
X176979428Y-101866164D01*
X176898836Y-101785572D01*
X176804070Y-101722251D01*
X176698772Y-101678635D01*
X176586987Y-101656400D01*
X176473013Y-101656400D01*
X176361228Y-101678635D01*
X176255930Y-101722251D01*
X176161164Y-101785572D01*
X176080572Y-101866164D01*
X176017251Y-101960930D01*
X175973635Y-102066228D01*
X175951400Y-102178013D01*
X175951400Y-102291987D01*
X175973635Y-102403772D01*
X176017251Y-102509070D01*
X176080572Y-102603836D01*
X176110900Y-102634164D01*
X176110901Y-103331402D01*
X171834305Y-107607999D01*
X157423481Y-107607999D01*
X157402901Y-107605972D01*
X157382321Y-107607999D01*
X157320743Y-107614064D01*
X157241743Y-107638028D01*
X157168935Y-107676945D01*
X157105119Y-107729317D01*
X157092001Y-107745302D01*
X156616425Y-108220878D01*
X156524616Y-108182850D01*
X156316233Y-108141400D01*
X156103767Y-108141400D01*
X155895384Y-108182850D01*
X155699091Y-108264157D01*
X155522433Y-108382197D01*
X155372197Y-108532433D01*
X155254157Y-108709091D01*
X155172850Y-108905384D01*
X155131400Y-109113767D01*
X155131400Y-109326233D01*
X155172850Y-109534616D01*
X155254157Y-109730909D01*
X155372197Y-109907567D01*
X155522433Y-110057803D01*
X155699091Y-110175843D01*
X155895384Y-110257150D01*
X156103767Y-110298600D01*
X156316233Y-110298600D01*
X156524616Y-110257150D01*
X156720909Y-110175843D01*
X156897567Y-110057803D01*
X157047803Y-109907567D01*
X157165843Y-109730909D01*
X157247150Y-109534616D01*
X157288600Y-109326233D01*
X157288600Y-109113767D01*
X157247150Y-108905384D01*
X157209122Y-108813575D01*
X157576498Y-108446199D01*
X157998431Y-108446199D01*
X157912197Y-108532433D01*
X157794157Y-108709091D01*
X157712850Y-108905384D01*
X157671400Y-109113767D01*
X157671400Y-109326233D01*
X157712850Y-109534616D01*
X157794157Y-109730909D01*
X157912197Y-109907567D01*
X158062433Y-110057803D01*
X158239091Y-110175843D01*
X158435384Y-110257150D01*
X158643767Y-110298600D01*
X158856233Y-110298600D01*
X159064616Y-110257150D01*
X159260909Y-110175843D01*
X159437567Y-110057803D01*
X159587803Y-109907567D01*
X159705843Y-109730909D01*
X159787150Y-109534616D01*
X159828600Y-109326233D01*
X159828600Y-109113767D01*
X159787150Y-108905384D01*
X159705843Y-108709091D01*
X159587803Y-108532433D01*
X159501569Y-108446199D01*
X160538431Y-108446199D01*
X160452197Y-108532433D01*
X160334157Y-108709091D01*
X160252850Y-108905384D01*
X160211400Y-109113767D01*
X160211400Y-109326233D01*
X160252850Y-109534616D01*
X160334157Y-109730909D01*
X160452197Y-109907567D01*
X160602433Y-110057803D01*
X160779091Y-110175843D01*
X160975384Y-110257150D01*
X161183767Y-110298600D01*
X161396233Y-110298600D01*
X161604616Y-110257150D01*
X161800909Y-110175843D01*
X161977567Y-110057803D01*
X162127803Y-109907567D01*
X162245843Y-109730909D01*
X162327150Y-109534616D01*
X162368600Y-109326233D01*
X162368600Y-109113767D01*
X162327150Y-108905384D01*
X162245843Y-108709091D01*
X162127803Y-108532433D01*
X162041569Y-108446199D01*
X163078431Y-108446199D01*
X162992197Y-108532433D01*
X162874157Y-108709091D01*
X162792850Y-108905384D01*
X162751400Y-109113767D01*
X162751400Y-109326233D01*
X162792850Y-109534616D01*
X162874157Y-109730909D01*
X162992197Y-109907567D01*
X163142433Y-110057803D01*
X163319091Y-110175843D01*
X163515384Y-110257150D01*
X163723767Y-110298600D01*
X163936233Y-110298600D01*
X164144616Y-110257150D01*
X164340909Y-110175843D01*
X164517567Y-110057803D01*
X164667803Y-109907567D01*
X164785843Y-109730909D01*
X164867150Y-109534616D01*
X164908600Y-109326233D01*
X164908600Y-109113767D01*
X164867150Y-108905384D01*
X164785843Y-108709091D01*
X164667803Y-108532433D01*
X164581569Y-108446199D01*
X165618431Y-108446199D01*
X165532197Y-108532433D01*
X165414157Y-108709091D01*
X165332850Y-108905384D01*
X165291400Y-109113767D01*
X165291400Y-109326233D01*
X165332850Y-109534616D01*
X165414157Y-109730909D01*
X165532197Y-109907567D01*
X165682433Y-110057803D01*
X165859091Y-110175843D01*
X166055384Y-110257150D01*
X166263767Y-110298600D01*
X166476233Y-110298600D01*
X166684616Y-110257150D01*
X166880909Y-110175843D01*
X167057567Y-110057803D01*
X167207803Y-109907567D01*
X167325843Y-109730909D01*
X167407150Y-109534616D01*
X167448600Y-109326233D01*
X167448600Y-109113767D01*
X167407150Y-108905384D01*
X167325843Y-108709091D01*
X167207803Y-108532433D01*
X167121569Y-108446199D01*
X168158431Y-108446199D01*
X168072197Y-108532433D01*
X167954157Y-108709091D01*
X167872850Y-108905384D01*
X167831400Y-109113767D01*
X167831400Y-109326233D01*
X167872850Y-109534616D01*
X167954157Y-109730909D01*
X168072197Y-109907567D01*
X168222433Y-110057803D01*
X168399091Y-110175843D01*
X168595384Y-110257150D01*
X168803767Y-110298600D01*
X169016233Y-110298600D01*
X169224616Y-110257150D01*
X169420909Y-110175843D01*
X169597567Y-110057803D01*
X169747803Y-109907567D01*
X169865843Y-109730909D01*
X169947150Y-109534616D01*
X169988600Y-109326233D01*
X169988600Y-109113767D01*
X169947150Y-108905384D01*
X169865843Y-108709091D01*
X169747803Y-108532433D01*
X169661569Y-108446199D01*
X170698431Y-108446199D01*
X170612197Y-108532433D01*
X170494157Y-108709091D01*
X170412850Y-108905384D01*
X170371400Y-109113767D01*
X170371400Y-109326233D01*
X170412850Y-109534616D01*
X170494157Y-109730909D01*
X170612197Y-109907567D01*
X170762433Y-110057803D01*
X170939091Y-110175843D01*
X171135384Y-110257150D01*
X171343767Y-110298600D01*
X171556233Y-110298600D01*
X171764616Y-110257150D01*
X171960909Y-110175843D01*
X172137567Y-110057803D01*
X172287803Y-109907567D01*
X172405843Y-109730909D01*
X172487150Y-109534616D01*
X172528600Y-109326233D01*
X172528600Y-109113767D01*
X172911400Y-109113767D01*
X172911400Y-109326233D01*
X172952850Y-109534616D01*
X173034157Y-109730909D01*
X173152197Y-109907567D01*
X173302433Y-110057803D01*
X173479091Y-110175843D01*
X173675384Y-110257150D01*
X173883767Y-110298600D01*
X174096233Y-110298600D01*
X174304616Y-110257150D01*
X174500909Y-110175843D01*
X174677567Y-110057803D01*
X174827803Y-109907567D01*
X174945843Y-109730909D01*
X175027150Y-109534616D01*
X175068600Y-109326233D01*
X175068600Y-109113767D01*
X175451400Y-109113767D01*
X175451400Y-109326233D01*
X175492850Y-109534616D01*
X175574157Y-109730909D01*
X175692197Y-109907567D01*
X175842433Y-110057803D01*
X176019091Y-110175843D01*
X176215384Y-110257150D01*
X176423767Y-110298600D01*
X176636233Y-110298600D01*
X176844616Y-110257150D01*
X177040909Y-110175843D01*
X177217567Y-110057803D01*
X177367803Y-109907567D01*
X177485843Y-109730909D01*
X177567150Y-109534616D01*
X177608600Y-109326233D01*
X177608600Y-109113767D01*
X177991400Y-109113767D01*
X177991400Y-109326233D01*
X178032850Y-109534616D01*
X178114157Y-109730909D01*
X178232197Y-109907567D01*
X178382433Y-110057803D01*
X178559091Y-110175843D01*
X178755384Y-110257150D01*
X178963767Y-110298600D01*
X179176233Y-110298600D01*
X179384616Y-110257150D01*
X179580909Y-110175843D01*
X179757567Y-110057803D01*
X179907803Y-109907567D01*
X180025843Y-109730909D01*
X180107150Y-109534616D01*
X180148600Y-109326233D01*
X180148600Y-109113767D01*
X180531400Y-109113767D01*
X180531400Y-109326233D01*
X180572850Y-109534616D01*
X180654157Y-109730909D01*
X180772197Y-109907567D01*
X180922433Y-110057803D01*
X181099091Y-110175843D01*
X181295384Y-110257150D01*
X181503767Y-110298600D01*
X181716233Y-110298600D01*
X181924616Y-110257150D01*
X182120909Y-110175843D01*
X182297567Y-110057803D01*
X182447803Y-109907567D01*
X182565843Y-109730909D01*
X182647150Y-109534616D01*
X182688600Y-109326233D01*
X182688600Y-109113767D01*
X183071400Y-109113767D01*
X183071400Y-109326233D01*
X183112850Y-109534616D01*
X183194157Y-109730909D01*
X183312197Y-109907567D01*
X183462433Y-110057803D01*
X183639091Y-110175843D01*
X183835384Y-110257150D01*
X184043767Y-110298600D01*
X184256233Y-110298600D01*
X184464616Y-110257150D01*
X184660909Y-110175843D01*
X184837567Y-110057803D01*
X184987803Y-109907567D01*
X185105843Y-109730909D01*
X185187150Y-109534616D01*
X185228600Y-109326233D01*
X185228600Y-109113767D01*
X185611400Y-109113767D01*
X185611400Y-109326233D01*
X185652850Y-109534616D01*
X185734157Y-109730909D01*
X185852197Y-109907567D01*
X186002433Y-110057803D01*
X186179091Y-110175843D01*
X186375384Y-110257150D01*
X186583767Y-110298600D01*
X186796233Y-110298600D01*
X187004616Y-110257150D01*
X187200909Y-110175843D01*
X187377567Y-110057803D01*
X187527803Y-109907567D01*
X187645843Y-109730909D01*
X187727150Y-109534616D01*
X187768600Y-109326233D01*
X187768600Y-109113767D01*
X188151400Y-109113767D01*
X188151400Y-109326233D01*
X188192850Y-109534616D01*
X188274157Y-109730909D01*
X188392197Y-109907567D01*
X188542433Y-110057803D01*
X188719091Y-110175843D01*
X188915384Y-110257150D01*
X189123767Y-110298600D01*
X189336233Y-110298600D01*
X189544616Y-110257150D01*
X189740909Y-110175843D01*
X189917567Y-110057803D01*
X190067803Y-109907567D01*
X190185843Y-109730909D01*
X190267150Y-109534616D01*
X190308600Y-109326233D01*
X190308600Y-109113767D01*
X190267150Y-108905384D01*
X190185843Y-108709091D01*
X190067803Y-108532433D01*
X189917567Y-108382197D01*
X189740909Y-108264157D01*
X189544616Y-108182850D01*
X189336233Y-108141400D01*
X189123767Y-108141400D01*
X188915384Y-108182850D01*
X188719091Y-108264157D01*
X188542433Y-108382197D01*
X188392197Y-108532433D01*
X188274157Y-108709091D01*
X188192850Y-108905384D01*
X188151400Y-109113767D01*
X187768600Y-109113767D01*
X187727150Y-108905384D01*
X187645843Y-108709091D01*
X187527803Y-108532433D01*
X187377567Y-108382197D01*
X187200909Y-108264157D01*
X187004616Y-108182850D01*
X186796233Y-108141400D01*
X186583767Y-108141400D01*
X186375384Y-108182850D01*
X186179091Y-108264157D01*
X186002433Y-108382197D01*
X185852197Y-108532433D01*
X185734157Y-108709091D01*
X185652850Y-108905384D01*
X185611400Y-109113767D01*
X185228600Y-109113767D01*
X185187150Y-108905384D01*
X185105843Y-108709091D01*
X184987803Y-108532433D01*
X184837567Y-108382197D01*
X184660909Y-108264157D01*
X184464616Y-108182850D01*
X184256233Y-108141400D01*
X184043767Y-108141400D01*
X183835384Y-108182850D01*
X183639091Y-108264157D01*
X183462433Y-108382197D01*
X183312197Y-108532433D01*
X183194157Y-108709091D01*
X183112850Y-108905384D01*
X183071400Y-109113767D01*
X182688600Y-109113767D01*
X182647150Y-108905384D01*
X182565843Y-108709091D01*
X182447803Y-108532433D01*
X182297567Y-108382197D01*
X182120909Y-108264157D01*
X181924616Y-108182850D01*
X181716233Y-108141400D01*
X181503767Y-108141400D01*
X181295384Y-108182850D01*
X181099091Y-108264157D01*
X180922433Y-108382197D01*
X180772197Y-108532433D01*
X180654157Y-108709091D01*
X180572850Y-108905384D01*
X180531400Y-109113767D01*
X180148600Y-109113767D01*
X180107150Y-108905384D01*
X180025843Y-108709091D01*
X179907803Y-108532433D01*
X179757567Y-108382197D01*
X179580909Y-108264157D01*
X179384616Y-108182850D01*
X179176233Y-108141400D01*
X178963767Y-108141400D01*
X178755384Y-108182850D01*
X178559091Y-108264157D01*
X178382433Y-108382197D01*
X178232197Y-108532433D01*
X178114157Y-108709091D01*
X178032850Y-108905384D01*
X177991400Y-109113767D01*
X177608600Y-109113767D01*
X177567150Y-108905384D01*
X177485843Y-108709091D01*
X177367803Y-108532433D01*
X177217567Y-108382197D01*
X177040909Y-108264157D01*
X176844616Y-108182850D01*
X176636233Y-108141400D01*
X176423767Y-108141400D01*
X176215384Y-108182850D01*
X176019091Y-108264157D01*
X175842433Y-108382197D01*
X175692197Y-108532433D01*
X175574157Y-108709091D01*
X175492850Y-108905384D01*
X175451400Y-109113767D01*
X175068600Y-109113767D01*
X175027150Y-108905384D01*
X174945843Y-108709091D01*
X174827803Y-108532433D01*
X174677567Y-108382197D01*
X174500909Y-108264157D01*
X174304616Y-108182850D01*
X174096233Y-108141400D01*
X173883767Y-108141400D01*
X173675384Y-108182850D01*
X173479091Y-108264157D01*
X173302433Y-108382197D01*
X173152197Y-108532433D01*
X173034157Y-108709091D01*
X172952850Y-108905384D01*
X172911400Y-109113767D01*
X172528600Y-109113767D01*
X172487150Y-108905384D01*
X172405843Y-108709091D01*
X172287803Y-108532433D01*
X172170676Y-108415306D01*
X172241867Y-108377253D01*
X172305683Y-108324881D01*
X172318808Y-108308888D01*
X176703597Y-103924100D01*
X176991404Y-103924100D01*
X179394097Y-106326794D01*
X179407218Y-106342782D01*
X179471034Y-106395154D01*
X179543842Y-106434071D01*
X179622842Y-106458035D01*
X179684420Y-106464100D01*
X179684422Y-106464100D01*
X179704999Y-106466127D01*
X179725577Y-106464100D01*
X186661642Y-106464100D01*
X186682222Y-106466127D01*
X186702802Y-106464100D01*
X186764380Y-106458035D01*
X186843380Y-106434071D01*
X186916188Y-106395154D01*
X186980004Y-106342782D01*
X186993129Y-106326789D01*
X188399080Y-104920838D01*
X188415072Y-104907714D01*
X188467444Y-104843898D01*
X188506361Y-104771090D01*
X188530325Y-104692090D01*
X188536390Y-104630512D01*
X188536390Y-104630511D01*
X188538417Y-104609932D01*
X188536390Y-104589352D01*
X188536390Y-103569099D01*
X188566718Y-103538771D01*
X188630039Y-103444005D01*
X188673655Y-103338707D01*
X188695890Y-103226922D01*
X188695890Y-103112948D01*
X188673655Y-103001163D01*
X188630039Y-102895865D01*
X188566718Y-102801099D01*
X188486126Y-102720507D01*
X188391360Y-102657186D01*
X188286062Y-102613570D01*
X188198730Y-102596199D01*
X189687385Y-102596199D01*
X190373997Y-103282812D01*
X188890305Y-104766505D01*
X188874318Y-104779625D01*
X188861199Y-104795611D01*
X188821945Y-104843442D01*
X188783029Y-104916249D01*
X188759064Y-104995250D01*
X188750972Y-105077407D01*
X188753000Y-105097997D01*
X188752999Y-106992013D01*
X188750972Y-107012593D01*
X188752999Y-107033172D01*
X188759064Y-107094750D01*
X188783028Y-107173750D01*
X188821945Y-107246558D01*
X188874317Y-107310375D01*
X188890310Y-107323500D01*
X189875702Y-108308893D01*
X189888823Y-108324881D01*
X189952639Y-108377253D01*
X190025447Y-108416170D01*
X190104447Y-108440134D01*
X190186604Y-108448226D01*
X190207184Y-108446199D01*
X191018431Y-108446199D01*
X190932197Y-108532433D01*
X190814157Y-108709091D01*
X190732850Y-108905384D01*
X190691400Y-109113767D01*
X190691400Y-109326233D01*
X190732850Y-109534616D01*
X190814157Y-109730909D01*
X190932197Y-109907567D01*
X191082433Y-110057803D01*
X191259091Y-110175843D01*
X191455384Y-110257150D01*
X191663767Y-110298600D01*
X191876233Y-110298600D01*
X192084616Y-110257150D01*
X192280909Y-110175843D01*
X192457567Y-110057803D01*
X192607803Y-109907567D01*
X192725843Y-109730909D01*
X192807150Y-109534616D01*
X192848600Y-109326233D01*
X192848600Y-109113767D01*
X192807150Y-108905384D01*
X192725843Y-108709091D01*
X192607803Y-108532433D01*
X192521569Y-108446199D01*
X193558431Y-108446199D01*
X193472197Y-108532433D01*
X193354157Y-108709091D01*
X193272850Y-108905384D01*
X193231400Y-109113767D01*
X193231400Y-109326233D01*
X193272850Y-109534616D01*
X193354157Y-109730909D01*
X193472197Y-109907567D01*
X193622433Y-110057803D01*
X193799091Y-110175843D01*
X193995384Y-110257150D01*
X194203767Y-110298600D01*
X194416233Y-110298600D01*
X194624616Y-110257150D01*
X194820909Y-110175843D01*
X194997567Y-110057803D01*
X195147803Y-109907567D01*
X195265843Y-109730909D01*
X195347150Y-109534616D01*
X195388600Y-109326233D01*
X195388600Y-109113767D01*
X195347150Y-108905384D01*
X195265843Y-108709091D01*
X195147803Y-108532433D01*
X195061569Y-108446199D01*
X195483503Y-108446199D01*
X195850878Y-108813575D01*
X195812850Y-108905384D01*
X195771400Y-109113767D01*
X195771400Y-109326233D01*
X195812850Y-109534616D01*
X195850878Y-109626425D01*
X194726404Y-110750900D01*
X153253597Y-110750900D01*
X152819100Y-110316404D01*
X152819100Y-110299617D01*
X152820000Y-110299706D01*
X153536650Y-110298600D01*
X153593800Y-110241450D01*
X153593800Y-109296200D01*
X153746200Y-109296200D01*
X153746200Y-110241450D01*
X153803350Y-110298600D01*
X154520000Y-110299706D01*
X154564813Y-110295292D01*
X154607905Y-110282221D01*
X154647618Y-110260994D01*
X154682427Y-110232427D01*
X154710994Y-110197618D01*
X154732221Y-110157905D01*
X154745292Y-110114813D01*
X154749706Y-110070000D01*
X154748600Y-109353350D01*
X154691450Y-109296200D01*
X153746200Y-109296200D01*
X153593800Y-109296200D01*
X153573800Y-109296200D01*
X153573800Y-109143800D01*
X153593800Y-109143800D01*
X153593800Y-108198550D01*
X153746200Y-108198550D01*
X153746200Y-109143800D01*
X154691450Y-109143800D01*
X154748600Y-109086650D01*
X154749706Y-108370000D01*
X154745292Y-108325187D01*
X154732221Y-108282095D01*
X154710994Y-108242382D01*
X154682427Y-108207573D01*
X154647618Y-108179006D01*
X154607905Y-108157779D01*
X154564813Y-108144708D01*
X154520000Y-108140294D01*
X153803350Y-108141400D01*
X153746200Y-108198550D01*
X153593800Y-108198550D01*
X153536650Y-108141400D01*
X152820000Y-108140294D01*
X152819100Y-108140383D01*
X152819100Y-106853596D01*
X153182990Y-106489706D01*
X153885000Y-106489706D01*
X153929813Y-106485292D01*
X153972905Y-106472221D01*
X154012618Y-106450994D01*
X154047427Y-106422427D01*
X154075994Y-106387618D01*
X154097221Y-106347905D01*
X154110292Y-106304813D01*
X154114706Y-106260000D01*
X154114706Y-104560000D01*
X154110292Y-104515187D01*
X154097221Y-104472095D01*
X154075994Y-104432382D01*
X154047427Y-104397573D01*
X154012618Y-104369006D01*
X153972905Y-104347779D01*
X153929813Y-104334708D01*
X153885000Y-104330294D01*
X152185000Y-104330294D01*
X152140187Y-104334708D01*
X152097095Y-104347779D01*
X152057382Y-104369006D01*
X152022573Y-104397573D01*
X152018600Y-104402414D01*
X152018600Y-103234711D01*
X152079157Y-103380909D01*
X152197197Y-103557567D01*
X152347433Y-103707803D01*
X152524091Y-103825843D01*
X152720384Y-103907150D01*
X152928767Y-103948600D01*
X153141233Y-103948600D01*
X153349616Y-103907150D01*
X153545909Y-103825843D01*
X153722567Y-103707803D01*
X153836461Y-103593909D01*
X162366424Y-103593909D01*
X162285930Y-103627251D01*
X162191164Y-103690572D01*
X162110572Y-103771164D01*
X162047251Y-103865930D01*
X162003635Y-103971228D01*
X161981400Y-104083013D01*
X161981400Y-104196987D01*
X162003635Y-104308772D01*
X162047251Y-104414070D01*
X162110572Y-104508836D01*
X162191164Y-104589428D01*
X162285930Y-104652749D01*
X162391228Y-104696365D01*
X162503013Y-104718600D01*
X162616987Y-104718600D01*
X162728772Y-104696365D01*
X162834070Y-104652749D01*
X162928836Y-104589428D01*
X163009428Y-104508836D01*
X163026758Y-104482900D01*
X166585249Y-104482900D01*
X167742905Y-105640557D01*
X167753642Y-105653640D01*
X167805855Y-105696490D01*
X167865425Y-105728331D01*
X167930062Y-105747938D01*
X167980439Y-105752900D01*
X167980446Y-105752900D01*
X167997281Y-105754558D01*
X168014116Y-105752900D01*
X170983242Y-105752900D01*
X171000572Y-105778836D01*
X171081164Y-105859428D01*
X171175930Y-105922749D01*
X171281228Y-105966365D01*
X171393013Y-105988600D01*
X171506987Y-105988600D01*
X171618772Y-105966365D01*
X171724070Y-105922749D01*
X171818836Y-105859428D01*
X171899428Y-105778836D01*
X171962749Y-105684070D01*
X172006365Y-105578772D01*
X172028600Y-105466987D01*
X172028600Y-105353013D01*
X172006365Y-105241228D01*
X171962749Y-105135930D01*
X171899428Y-105041164D01*
X171818836Y-104960572D01*
X171724070Y-104897251D01*
X171618772Y-104853635D01*
X171506987Y-104831400D01*
X171393013Y-104831400D01*
X171281228Y-104853635D01*
X171175930Y-104897251D01*
X171081164Y-104960572D01*
X171000572Y-105041164D01*
X170983242Y-105067100D01*
X168139316Y-105067100D01*
X166981663Y-103909448D01*
X166970922Y-103896360D01*
X166918709Y-103853510D01*
X166859139Y-103821669D01*
X166794502Y-103802062D01*
X166744125Y-103797100D01*
X166744117Y-103797100D01*
X166727282Y-103795442D01*
X166710447Y-103797100D01*
X163026758Y-103797100D01*
X163009428Y-103771164D01*
X162928836Y-103690572D01*
X162834070Y-103627251D01*
X162753576Y-103593909D01*
X173949438Y-103593909D01*
X173966273Y-103595567D01*
X173983108Y-103593909D01*
X173983116Y-103593909D01*
X174033493Y-103588947D01*
X174098130Y-103569340D01*
X174157700Y-103537499D01*
X174209913Y-103494649D01*
X174220654Y-103481561D01*
X177429202Y-100273013D01*
X193096400Y-100273013D01*
X193096400Y-100386987D01*
X193118635Y-100498772D01*
X193162251Y-100604070D01*
X193225572Y-100698836D01*
X193306164Y-100779428D01*
X193400930Y-100842749D01*
X193506228Y-100886365D01*
X193618013Y-100908600D01*
X193731987Y-100908600D01*
X193843772Y-100886365D01*
X193949070Y-100842749D01*
X194043836Y-100779428D01*
X194124428Y-100698836D01*
X194187749Y-100604070D01*
X194231365Y-100498772D01*
X194253600Y-100386987D01*
X194253600Y-100344096D01*
X194376758Y-100220938D01*
X194366400Y-100273013D01*
X194366400Y-100386987D01*
X194388635Y-100498772D01*
X194432251Y-100604070D01*
X194495572Y-100698836D01*
X194525901Y-100729165D01*
X194525900Y-102830420D01*
X194523873Y-102851000D01*
X194528292Y-102895865D01*
X194531965Y-102933157D01*
X194555929Y-103012157D01*
X194594846Y-103084965D01*
X194647218Y-103148782D01*
X194663211Y-103161907D01*
X195833097Y-104331794D01*
X195846218Y-104347782D01*
X195910034Y-104400154D01*
X195982842Y-104439071D01*
X196046335Y-104458331D01*
X196061842Y-104463035D01*
X196143999Y-104471127D01*
X196164579Y-104469100D01*
X196310654Y-104469100D01*
X196299708Y-104505187D01*
X196295294Y-104550000D01*
X196296400Y-104716650D01*
X196353550Y-104773800D01*
X197173800Y-104773800D01*
X197173800Y-104753800D01*
X197326200Y-104753800D01*
X197326200Y-104773800D01*
X198146450Y-104773800D01*
X198193749Y-104726501D01*
X198204406Y-104752228D01*
X198264991Y-104842900D01*
X198342100Y-104920009D01*
X198432772Y-104980594D01*
X198533521Y-105022326D01*
X198640475Y-105043600D01*
X198749525Y-105043600D01*
X198856479Y-105022326D01*
X198957228Y-104980594D01*
X199047900Y-104920009D01*
X199125009Y-104842900D01*
X199185594Y-104752228D01*
X199227326Y-104651479D01*
X199248600Y-104544525D01*
X199248600Y-104435475D01*
X199227326Y-104328521D01*
X199185594Y-104227772D01*
X199125009Y-104137100D01*
X199047900Y-104059991D01*
X199001668Y-104029100D01*
X199029070Y-104017749D01*
X199123836Y-103954428D01*
X199204428Y-103873836D01*
X199267749Y-103779070D01*
X199311365Y-103673772D01*
X199333600Y-103561987D01*
X199333600Y-103448013D01*
X199311365Y-103336228D01*
X199267749Y-103230930D01*
X199204428Y-103136164D01*
X199123836Y-103055572D01*
X199029070Y-102992251D01*
X198923772Y-102948635D01*
X198811987Y-102926400D01*
X198698013Y-102926400D01*
X198586228Y-102948635D01*
X198480930Y-102992251D01*
X198458707Y-103007100D01*
X198204007Y-103007100D01*
X198204706Y-103000000D01*
X198204706Y-102700000D01*
X198204007Y-102692900D01*
X198398843Y-102692900D01*
X198480930Y-102747749D01*
X198586228Y-102791365D01*
X198698013Y-102813600D01*
X198811987Y-102813600D01*
X198923772Y-102791365D01*
X199029070Y-102747749D01*
X199123836Y-102684428D01*
X199204428Y-102603836D01*
X199267749Y-102509070D01*
X199311365Y-102403772D01*
X199333600Y-102291987D01*
X199333600Y-102178013D01*
X199311365Y-102066228D01*
X199267749Y-101960930D01*
X199204428Y-101866164D01*
X199123836Y-101785572D01*
X199029070Y-101722251D01*
X198923772Y-101678635D01*
X198811987Y-101656400D01*
X198698013Y-101656400D01*
X198586228Y-101678635D01*
X198584601Y-101679309D01*
X198584601Y-101520691D01*
X198586228Y-101521365D01*
X198698013Y-101543600D01*
X198811987Y-101543600D01*
X198923772Y-101521365D01*
X199029070Y-101477749D01*
X199123836Y-101414428D01*
X199204428Y-101333836D01*
X199267749Y-101239070D01*
X199311365Y-101133772D01*
X199333600Y-101021987D01*
X199333600Y-100908013D01*
X199311365Y-100796228D01*
X199267749Y-100690930D01*
X199204428Y-100596164D01*
X199123836Y-100515572D01*
X199029070Y-100452251D01*
X198923772Y-100408635D01*
X198811987Y-100386400D01*
X198698013Y-100386400D01*
X198586228Y-100408635D01*
X198483921Y-100451012D01*
X198667419Y-100267515D01*
X198698013Y-100273600D01*
X198811987Y-100273600D01*
X198923772Y-100251365D01*
X199029070Y-100207749D01*
X199123836Y-100144428D01*
X199204428Y-100063836D01*
X199267749Y-99969070D01*
X199311365Y-99863772D01*
X199333600Y-99751987D01*
X199333600Y-99638013D01*
X199311365Y-99526228D01*
X199267749Y-99420930D01*
X199204428Y-99326164D01*
X199123836Y-99245572D01*
X199029070Y-99182251D01*
X199001668Y-99170900D01*
X199047900Y-99140009D01*
X199125009Y-99062900D01*
X199185594Y-98972228D01*
X199227326Y-98871479D01*
X199248600Y-98764525D01*
X199248600Y-98655475D01*
X199227326Y-98548521D01*
X199185594Y-98447772D01*
X199125009Y-98357100D01*
X199047900Y-98279991D01*
X198957228Y-98219406D01*
X198856479Y-98177674D01*
X198749525Y-98156400D01*
X198640475Y-98156400D01*
X198533521Y-98177674D01*
X198432772Y-98219406D01*
X198342100Y-98279991D01*
X198264991Y-98357100D01*
X198204406Y-98447772D01*
X198193749Y-98473499D01*
X198146450Y-98426200D01*
X197326200Y-98426200D01*
X197326200Y-98446200D01*
X197173800Y-98446200D01*
X197173800Y-98426200D01*
X196353550Y-98426200D01*
X196296400Y-98483350D01*
X196295294Y-98650000D01*
X196299708Y-98694813D01*
X196310654Y-98730900D01*
X194875579Y-98730900D01*
X194854999Y-98728873D01*
X194772842Y-98736965D01*
X194693842Y-98760929D01*
X194621034Y-98799846D01*
X194557218Y-98852218D01*
X194544097Y-98868206D01*
X193660904Y-99751400D01*
X193618013Y-99751400D01*
X193506228Y-99773635D01*
X193400930Y-99817251D01*
X193306164Y-99880572D01*
X193225572Y-99961164D01*
X193162251Y-100055930D01*
X193118635Y-100161228D01*
X193096400Y-100273013D01*
X177429202Y-100273013D01*
X177682614Y-100019602D01*
X179706463Y-100019602D01*
X179723298Y-100021260D01*
X179740133Y-100019602D01*
X179740141Y-100019602D01*
X179790518Y-100014640D01*
X179855155Y-99995033D01*
X179914725Y-99963192D01*
X179966938Y-99920342D01*
X179977679Y-99907254D01*
X180252419Y-99632515D01*
X180283013Y-99638600D01*
X180396987Y-99638600D01*
X180508772Y-99616365D01*
X180614070Y-99572749D01*
X180708836Y-99509428D01*
X180789428Y-99428836D01*
X180852749Y-99334070D01*
X180896365Y-99228772D01*
X180918600Y-99116987D01*
X180918600Y-99003013D01*
X180896365Y-98891228D01*
X180852749Y-98785930D01*
X180789428Y-98691164D01*
X180708836Y-98610572D01*
X180614070Y-98547251D01*
X180508772Y-98503635D01*
X180396987Y-98481400D01*
X180283013Y-98481400D01*
X180171228Y-98503635D01*
X180065930Y-98547251D01*
X179971164Y-98610572D01*
X179890572Y-98691164D01*
X179827251Y-98785930D01*
X179783635Y-98891228D01*
X179761400Y-99003013D01*
X179761400Y-99116987D01*
X179767485Y-99147581D01*
X179581265Y-99333802D01*
X178312860Y-99333802D01*
X178356365Y-99228772D01*
X178378600Y-99116987D01*
X178378600Y-99003013D01*
X178356365Y-98891228D01*
X178312749Y-98785930D01*
X178249428Y-98691164D01*
X178168836Y-98610572D01*
X178074070Y-98547251D01*
X177968772Y-98503635D01*
X177856987Y-98481400D01*
X177743013Y-98481400D01*
X177631228Y-98503635D01*
X177525930Y-98547251D01*
X177431164Y-98610572D01*
X177350572Y-98691164D01*
X177287251Y-98785930D01*
X177243635Y-98891228D01*
X177229071Y-98964448D01*
X173666419Y-102527100D01*
X159885702Y-102527100D01*
X159897749Y-102509070D01*
X159941365Y-102403772D01*
X159963600Y-102291987D01*
X159963600Y-102178013D01*
X159941365Y-102066228D01*
X159897749Y-101960930D01*
X159834428Y-101866164D01*
X159753836Y-101785572D01*
X159659070Y-101722251D01*
X159553772Y-101678635D01*
X159441987Y-101656400D01*
X159328013Y-101656400D01*
X159297419Y-101662485D01*
X156552900Y-98917967D01*
X156552900Y-95005434D01*
X156720909Y-94935843D01*
X156897567Y-94817803D01*
X157047803Y-94667567D01*
X157165843Y-94490909D01*
X157247150Y-94294616D01*
X157288600Y-94086233D01*
X157288600Y-93873767D01*
X157671400Y-93873767D01*
X157671400Y-94086233D01*
X157712850Y-94294616D01*
X157794157Y-94490909D01*
X157912197Y-94667567D01*
X158062433Y-94817803D01*
X158239091Y-94935843D01*
X158407100Y-95005434D01*
X158407101Y-99678155D01*
X158405442Y-99695000D01*
X158412062Y-99762219D01*
X158426119Y-99808559D01*
X158431670Y-99826857D01*
X158463511Y-99886427D01*
X158506361Y-99938640D01*
X158519444Y-99949377D01*
X158812486Y-100242419D01*
X158806400Y-100273013D01*
X158806400Y-100386987D01*
X158828635Y-100498772D01*
X158872251Y-100604070D01*
X158935572Y-100698836D01*
X159016164Y-100779428D01*
X159110930Y-100842749D01*
X159216228Y-100886365D01*
X159328013Y-100908600D01*
X159441987Y-100908600D01*
X159553772Y-100886365D01*
X159659070Y-100842749D01*
X159753836Y-100779428D01*
X159834428Y-100698836D01*
X159897749Y-100604070D01*
X159941365Y-100498772D01*
X159963600Y-100386987D01*
X159963600Y-100273013D01*
X159941365Y-100161228D01*
X159897749Y-100055930D01*
X159834428Y-99961164D01*
X159753836Y-99880572D01*
X159659070Y-99817251D01*
X159553772Y-99773635D01*
X159441987Y-99751400D01*
X159328013Y-99751400D01*
X159297419Y-99757486D01*
X159092900Y-99552967D01*
X159092900Y-99003013D01*
X161981400Y-99003013D01*
X161981400Y-99116987D01*
X162003635Y-99228772D01*
X162047251Y-99334070D01*
X162110572Y-99428836D01*
X162191164Y-99509428D01*
X162285930Y-99572749D01*
X162391228Y-99616365D01*
X162503013Y-99638600D01*
X162616987Y-99638600D01*
X162728772Y-99616365D01*
X162834070Y-99572749D01*
X162928836Y-99509428D01*
X163009428Y-99428836D01*
X163072749Y-99334070D01*
X163116365Y-99228772D01*
X163138600Y-99116987D01*
X163138600Y-99003013D01*
X163132515Y-98972419D01*
X163972034Y-98132900D01*
X173523242Y-98132900D01*
X173540572Y-98158836D01*
X173621164Y-98239428D01*
X173715930Y-98302749D01*
X173821228Y-98346365D01*
X173933013Y-98368600D01*
X174046987Y-98368600D01*
X174158772Y-98346365D01*
X174264070Y-98302749D01*
X174358836Y-98239428D01*
X174439428Y-98158836D01*
X174502749Y-98064070D01*
X174546365Y-97958772D01*
X174568600Y-97846987D01*
X174568600Y-97733013D01*
X174546365Y-97621228D01*
X174502749Y-97515930D01*
X174439428Y-97421164D01*
X174358836Y-97340572D01*
X174264070Y-97277251D01*
X174158772Y-97233635D01*
X174046987Y-97211400D01*
X173933013Y-97211400D01*
X173821228Y-97233635D01*
X173715930Y-97277251D01*
X173621164Y-97340572D01*
X173540572Y-97421164D01*
X173523242Y-97447100D01*
X163846834Y-97447100D01*
X163829999Y-97445442D01*
X163813164Y-97447100D01*
X163813157Y-97447100D01*
X163762780Y-97452062D01*
X163698143Y-97471669D01*
X163638573Y-97503510D01*
X163586360Y-97546360D01*
X163575623Y-97559443D01*
X162647581Y-98487485D01*
X162616987Y-98481400D01*
X162503013Y-98481400D01*
X162391228Y-98503635D01*
X162285930Y-98547251D01*
X162191164Y-98610572D01*
X162110572Y-98691164D01*
X162047251Y-98785930D01*
X162003635Y-98891228D01*
X161981400Y-99003013D01*
X159092900Y-99003013D01*
X159092900Y-95005434D01*
X159260909Y-94935843D01*
X159437567Y-94817803D01*
X159587803Y-94667567D01*
X159705843Y-94490909D01*
X159787150Y-94294616D01*
X159828600Y-94086233D01*
X159828600Y-93873767D01*
X160211400Y-93873767D01*
X160211400Y-94086233D01*
X160252850Y-94294616D01*
X160334157Y-94490909D01*
X160452197Y-94667567D01*
X160602433Y-94817803D01*
X160779091Y-94935843D01*
X160975384Y-95017150D01*
X161183767Y-95058600D01*
X161396233Y-95058600D01*
X161604616Y-95017150D01*
X161800909Y-94935843D01*
X161977567Y-94817803D01*
X162127803Y-94667567D01*
X162245843Y-94490909D01*
X162327150Y-94294616D01*
X162368600Y-94086233D01*
X162368600Y-93873767D01*
X162751400Y-93873767D01*
X162751400Y-94086233D01*
X162792850Y-94294616D01*
X162874157Y-94490909D01*
X162992197Y-94667567D01*
X163142433Y-94817803D01*
X163319091Y-94935843D01*
X163515384Y-95017150D01*
X163723767Y-95058600D01*
X163936233Y-95058600D01*
X164144616Y-95017150D01*
X164340909Y-94935843D01*
X164517567Y-94817803D01*
X164667803Y-94667567D01*
X164785843Y-94490909D01*
X164867150Y-94294616D01*
X164908600Y-94086233D01*
X164908600Y-93873767D01*
X165291400Y-93873767D01*
X165291400Y-94086233D01*
X165332850Y-94294616D01*
X165414157Y-94490909D01*
X165532197Y-94667567D01*
X165682433Y-94817803D01*
X165859091Y-94935843D01*
X166055384Y-95017150D01*
X166263767Y-95058600D01*
X166476233Y-95058600D01*
X166684616Y-95017150D01*
X166880909Y-94935843D01*
X167057567Y-94817803D01*
X167207803Y-94667567D01*
X167325843Y-94490909D01*
X167407150Y-94294616D01*
X167448600Y-94086233D01*
X167448600Y-93873767D01*
X167831400Y-93873767D01*
X167831400Y-94086233D01*
X167872850Y-94294616D01*
X167954157Y-94490909D01*
X168072197Y-94667567D01*
X168222433Y-94817803D01*
X168399091Y-94935843D01*
X168595384Y-95017150D01*
X168803767Y-95058600D01*
X169016233Y-95058600D01*
X169224616Y-95017150D01*
X169420909Y-94935843D01*
X169597567Y-94817803D01*
X169747803Y-94667567D01*
X169865843Y-94490909D01*
X169947150Y-94294616D01*
X169988600Y-94086233D01*
X169988600Y-93873767D01*
X170371400Y-93873767D01*
X170371400Y-94086233D01*
X170412850Y-94294616D01*
X170494157Y-94490909D01*
X170612197Y-94667567D01*
X170762433Y-94817803D01*
X170939091Y-94935843D01*
X171135384Y-95017150D01*
X171343767Y-95058600D01*
X171556233Y-95058600D01*
X171764616Y-95017150D01*
X171960909Y-94935843D01*
X172137567Y-94817803D01*
X172287803Y-94667567D01*
X172405843Y-94490909D01*
X172487150Y-94294616D01*
X172528600Y-94086233D01*
X172528600Y-93873767D01*
X172911400Y-93873767D01*
X172911400Y-94086233D01*
X172952850Y-94294616D01*
X173034157Y-94490909D01*
X173152197Y-94667567D01*
X173302433Y-94817803D01*
X173479091Y-94935843D01*
X173675384Y-95017150D01*
X173883767Y-95058600D01*
X174096233Y-95058600D01*
X174304616Y-95017150D01*
X174500909Y-94935843D01*
X174677567Y-94817803D01*
X174827803Y-94667567D01*
X174945843Y-94490909D01*
X175027150Y-94294616D01*
X175068600Y-94086233D01*
X175068600Y-93873767D01*
X175451400Y-93873767D01*
X175451400Y-94086233D01*
X175492850Y-94294616D01*
X175574157Y-94490909D01*
X175692197Y-94667567D01*
X175842433Y-94817803D01*
X176019091Y-94935843D01*
X176215384Y-95017150D01*
X176423767Y-95058600D01*
X176636233Y-95058600D01*
X176844616Y-95017150D01*
X177040909Y-94935843D01*
X177217567Y-94817803D01*
X177367803Y-94667567D01*
X177485843Y-94490909D01*
X177567150Y-94294616D01*
X177608600Y-94086233D01*
X177608600Y-93873767D01*
X177991400Y-93873767D01*
X177991400Y-94086233D01*
X178032850Y-94294616D01*
X178114157Y-94490909D01*
X178232197Y-94667567D01*
X178382433Y-94817803D01*
X178559091Y-94935843D01*
X178755384Y-95017150D01*
X178963767Y-95058600D01*
X179176233Y-95058600D01*
X179384616Y-95017150D01*
X179580909Y-94935843D01*
X179757567Y-94817803D01*
X179907803Y-94667567D01*
X180025843Y-94490909D01*
X180107150Y-94294616D01*
X180148600Y-94086233D01*
X180148600Y-93873767D01*
X180531400Y-93873767D01*
X180531400Y-94086233D01*
X180572850Y-94294616D01*
X180654157Y-94490909D01*
X180772197Y-94667567D01*
X180922433Y-94817803D01*
X181099091Y-94935843D01*
X181295384Y-95017150D01*
X181503767Y-95058600D01*
X181716233Y-95058600D01*
X181924616Y-95017150D01*
X182120909Y-94935843D01*
X182297567Y-94817803D01*
X182447803Y-94667567D01*
X182565843Y-94490909D01*
X182647150Y-94294616D01*
X182688600Y-94086233D01*
X182688600Y-93873767D01*
X183071400Y-93873767D01*
X183071400Y-94086233D01*
X183112850Y-94294616D01*
X183194157Y-94490909D01*
X183312197Y-94667567D01*
X183462433Y-94817803D01*
X183639091Y-94935843D01*
X183835384Y-95017150D01*
X183836760Y-95017424D01*
X183781164Y-95054572D01*
X183700572Y-95135164D01*
X183637251Y-95229930D01*
X183593635Y-95335228D01*
X183571400Y-95447013D01*
X183571400Y-95560987D01*
X183593635Y-95672772D01*
X183637251Y-95778070D01*
X183700572Y-95872836D01*
X183781164Y-95953428D01*
X183868823Y-96012000D01*
X183781164Y-96070572D01*
X183700572Y-96151164D01*
X183637251Y-96245930D01*
X183593635Y-96351228D01*
X183571400Y-96463013D01*
X183571400Y-96576987D01*
X183593635Y-96688772D01*
X183637251Y-96794070D01*
X183700572Y-96888836D01*
X183781164Y-96969428D01*
X183875930Y-97032749D01*
X183981228Y-97076365D01*
X184093013Y-97098600D01*
X184206987Y-97098600D01*
X184243259Y-97091385D01*
X196911237Y-97091385D01*
X196947888Y-97203800D01*
X198088800Y-97203800D01*
X198088800Y-96551400D01*
X197538800Y-96551400D01*
X197398121Y-96580266D01*
X197265777Y-96636022D01*
X197146853Y-96716526D01*
X197045920Y-96818684D01*
X196966856Y-96938570D01*
X196912700Y-97071577D01*
X196911237Y-97091385D01*
X184243259Y-97091385D01*
X184318772Y-97076365D01*
X184424070Y-97032749D01*
X184518836Y-96969428D01*
X184599428Y-96888836D01*
X184662749Y-96794070D01*
X184706365Y-96688772D01*
X184728600Y-96576987D01*
X184728600Y-96512901D01*
X198613138Y-96512901D01*
X198651637Y-96551400D01*
X198241200Y-96551400D01*
X198241200Y-97203800D01*
X198261200Y-97203800D01*
X198261200Y-97356200D01*
X198241200Y-97356200D01*
X198241200Y-97376200D01*
X198088800Y-97376200D01*
X198088800Y-97356200D01*
X196947888Y-97356200D01*
X196911237Y-97468615D01*
X196912700Y-97488423D01*
X196966856Y-97621430D01*
X197045920Y-97741316D01*
X197146853Y-97843474D01*
X197173798Y-97861714D01*
X197173798Y-97878548D01*
X197116650Y-97821400D01*
X196525000Y-97820294D01*
X196480187Y-97824708D01*
X196437095Y-97837779D01*
X196397382Y-97859006D01*
X196362573Y-97887573D01*
X196334006Y-97922382D01*
X196312779Y-97962095D01*
X196299708Y-98005187D01*
X196295294Y-98050000D01*
X196296400Y-98216650D01*
X196353550Y-98273800D01*
X197173800Y-98273800D01*
X197173800Y-98253800D01*
X197326200Y-98253800D01*
X197326200Y-98273800D01*
X198146450Y-98273800D01*
X198203600Y-98216650D01*
X198204706Y-98050000D01*
X198200628Y-98008600D01*
X198791200Y-98008600D01*
X198931879Y-97979734D01*
X199064223Y-97923978D01*
X199183147Y-97843474D01*
X199284080Y-97741316D01*
X199363144Y-97621430D01*
X199417300Y-97488423D01*
X199418763Y-97468615D01*
X199382113Y-97356202D01*
X199443600Y-97356202D01*
X199443600Y-97343363D01*
X201587101Y-99486865D01*
X201587100Y-99863242D01*
X201561164Y-99880572D01*
X201480572Y-99961164D01*
X201417251Y-100055930D01*
X201373635Y-100161228D01*
X201351400Y-100273013D01*
X201351400Y-100386987D01*
X201373635Y-100498772D01*
X201417251Y-100604070D01*
X201480572Y-100698836D01*
X201561164Y-100779428D01*
X201655930Y-100842749D01*
X201761228Y-100886365D01*
X201873013Y-100908600D01*
X201986987Y-100908600D01*
X202098772Y-100886365D01*
X202201079Y-100843988D01*
X202017581Y-101027486D01*
X201986987Y-101021400D01*
X201873013Y-101021400D01*
X201761228Y-101043635D01*
X201655930Y-101087251D01*
X201561164Y-101150572D01*
X201480572Y-101231164D01*
X201417251Y-101325930D01*
X201373635Y-101431228D01*
X201351400Y-101543013D01*
X201351400Y-101656987D01*
X201373635Y-101768772D01*
X201417251Y-101874070D01*
X201480572Y-101968836D01*
X201561164Y-102049428D01*
X201655930Y-102112749D01*
X201761228Y-102156365D01*
X201873013Y-102178600D01*
X201986987Y-102178600D01*
X202098772Y-102156365D01*
X202204070Y-102112749D01*
X202298836Y-102049428D01*
X202379428Y-101968836D01*
X202442749Y-101874070D01*
X202486365Y-101768772D01*
X202508600Y-101656987D01*
X202508600Y-101543013D01*
X202502514Y-101512419D01*
X202922556Y-101092377D01*
X202935639Y-101081640D01*
X202978490Y-101029427D01*
X203010331Y-100969857D01*
X203029938Y-100905220D01*
X203034900Y-100854843D01*
X203034900Y-100854842D01*
X203036559Y-100838000D01*
X203034900Y-100821157D01*
X203034900Y-99584845D01*
X203036559Y-99568002D01*
X203029938Y-99500782D01*
X203010331Y-99436145D01*
X202978490Y-99376575D01*
X202946376Y-99337444D01*
X202935640Y-99324362D01*
X202922557Y-99313625D01*
X201077547Y-97468615D01*
X201341237Y-97468615D01*
X201342700Y-97488423D01*
X201396856Y-97621430D01*
X201475920Y-97741316D01*
X201576853Y-97843474D01*
X201695777Y-97923978D01*
X201828121Y-97979734D01*
X201968800Y-98008600D01*
X202268800Y-98008600D01*
X202268800Y-97356200D01*
X202421200Y-97356200D01*
X202421200Y-98008600D01*
X202721200Y-98008600D01*
X202861879Y-97979734D01*
X202994223Y-97923978D01*
X203113147Y-97843474D01*
X203214080Y-97741316D01*
X203293144Y-97621430D01*
X203347300Y-97488423D01*
X203348763Y-97468615D01*
X203312112Y-97356200D01*
X202421200Y-97356200D01*
X202268800Y-97356200D01*
X201377888Y-97356200D01*
X201341237Y-97468615D01*
X201077547Y-97468615D01*
X200700317Y-97091385D01*
X201341237Y-97091385D01*
X201377888Y-97203800D01*
X202268800Y-97203800D01*
X202268800Y-96551400D01*
X202421200Y-96551400D01*
X202421200Y-97203800D01*
X203312112Y-97203800D01*
X203348763Y-97091385D01*
X203347300Y-97071577D01*
X203293144Y-96938570D01*
X203214080Y-96818684D01*
X203113147Y-96716526D01*
X202994223Y-96636022D01*
X202861879Y-96580266D01*
X202721200Y-96551400D01*
X202421200Y-96551400D01*
X202268800Y-96551400D01*
X201968800Y-96551400D01*
X201828121Y-96580266D01*
X201695777Y-96636022D01*
X201576853Y-96716526D01*
X201475920Y-96818684D01*
X201396856Y-96938570D01*
X201342700Y-97071577D01*
X201341237Y-97091385D01*
X200700317Y-97091385D01*
X199167371Y-95558439D01*
X199156630Y-95545351D01*
X199104417Y-95502501D01*
X199044847Y-95470660D01*
X198980210Y-95451053D01*
X198929833Y-95446091D01*
X198929825Y-95446091D01*
X198912990Y-95444433D01*
X198896155Y-95446091D01*
X184728417Y-95446091D01*
X184706365Y-95335228D01*
X184662749Y-95229930D01*
X184599428Y-95135164D01*
X184518836Y-95054572D01*
X184463240Y-95017424D01*
X184464616Y-95017150D01*
X184660909Y-94935843D01*
X184837567Y-94817803D01*
X184987803Y-94667567D01*
X185105843Y-94490909D01*
X185187150Y-94294616D01*
X185228600Y-94086233D01*
X185228600Y-93873767D01*
X185611400Y-93873767D01*
X185611400Y-94086233D01*
X185652850Y-94294616D01*
X185734157Y-94490909D01*
X185852197Y-94667567D01*
X186002433Y-94817803D01*
X186179091Y-94935843D01*
X186375384Y-95017150D01*
X186583767Y-95058600D01*
X186796233Y-95058600D01*
X187004616Y-95017150D01*
X187200909Y-94935843D01*
X187377567Y-94817803D01*
X187527803Y-94667567D01*
X187645843Y-94490909D01*
X187727150Y-94294616D01*
X187768600Y-94086233D01*
X187768600Y-93873767D01*
X188151400Y-93873767D01*
X188151400Y-94086233D01*
X188192850Y-94294616D01*
X188274157Y-94490909D01*
X188392197Y-94667567D01*
X188542433Y-94817803D01*
X188719091Y-94935843D01*
X188915384Y-95017150D01*
X189123767Y-95058600D01*
X189336233Y-95058600D01*
X189544616Y-95017150D01*
X189740909Y-94935843D01*
X189917567Y-94817803D01*
X190067803Y-94667567D01*
X190185843Y-94490909D01*
X190267150Y-94294616D01*
X190308600Y-94086233D01*
X190308600Y-93873767D01*
X190691400Y-93873767D01*
X190691400Y-94086233D01*
X190732850Y-94294616D01*
X190814157Y-94490909D01*
X190932197Y-94667567D01*
X191082433Y-94817803D01*
X191259091Y-94935843D01*
X191455384Y-95017150D01*
X191663767Y-95058600D01*
X191876233Y-95058600D01*
X192084616Y-95017150D01*
X192280909Y-94935843D01*
X192457567Y-94817803D01*
X192607803Y-94667567D01*
X192725843Y-94490909D01*
X192807150Y-94294616D01*
X192848600Y-94086233D01*
X192848600Y-93873767D01*
X193231400Y-93873767D01*
X193231400Y-94086233D01*
X193272850Y-94294616D01*
X193354157Y-94490909D01*
X193472197Y-94667567D01*
X193622433Y-94817803D01*
X193799091Y-94935843D01*
X193995384Y-95017150D01*
X194203767Y-95058600D01*
X194416233Y-95058600D01*
X194624616Y-95017150D01*
X194820909Y-94935843D01*
X194997567Y-94817803D01*
X195147803Y-94667567D01*
X195265843Y-94490909D01*
X195347150Y-94294616D01*
X195388600Y-94086233D01*
X195388600Y-93873767D01*
X195771400Y-93873767D01*
X195771400Y-94086233D01*
X195812850Y-94294616D01*
X195894157Y-94490909D01*
X196012197Y-94667567D01*
X196162433Y-94817803D01*
X196339091Y-94935843D01*
X196535384Y-95017150D01*
X196743767Y-95058600D01*
X196956233Y-95058600D01*
X197164616Y-95017150D01*
X197360909Y-94935843D01*
X197537567Y-94817803D01*
X197687803Y-94667567D01*
X197805843Y-94490909D01*
X197887150Y-94294616D01*
X197928600Y-94086233D01*
X197928600Y-93873767D01*
X198311400Y-93873767D01*
X198311400Y-94086233D01*
X198352850Y-94294616D01*
X198434157Y-94490909D01*
X198552197Y-94667567D01*
X198702433Y-94817803D01*
X198879091Y-94935843D01*
X199075384Y-95017150D01*
X199283767Y-95058600D01*
X199496233Y-95058600D01*
X199704616Y-95017150D01*
X199900909Y-94935843D01*
X200077567Y-94817803D01*
X200227803Y-94667567D01*
X200345843Y-94490909D01*
X200427150Y-94294616D01*
X200468600Y-94086233D01*
X200468600Y-93873767D01*
X200851400Y-93873767D01*
X200851400Y-94086233D01*
X200892850Y-94294616D01*
X200974157Y-94490909D01*
X201092197Y-94667567D01*
X201242433Y-94817803D01*
X201419091Y-94935843D01*
X201615384Y-95017150D01*
X201823767Y-95058600D01*
X202036233Y-95058600D01*
X202244616Y-95017150D01*
X202440909Y-94935843D01*
X202617567Y-94817803D01*
X202767803Y-94667567D01*
X202885843Y-94490909D01*
X202967150Y-94294616D01*
X203008600Y-94086233D01*
X203008600Y-93873767D01*
X202967150Y-93665384D01*
X202885843Y-93469091D01*
X202767803Y-93292433D01*
X202617567Y-93142197D01*
X202440909Y-93024157D01*
X202244616Y-92942850D01*
X202036233Y-92901400D01*
X201823767Y-92901400D01*
X201615384Y-92942850D01*
X201419091Y-93024157D01*
X201242433Y-93142197D01*
X201092197Y-93292433D01*
X200974157Y-93469091D01*
X200892850Y-93665384D01*
X200851400Y-93873767D01*
X200468600Y-93873767D01*
X200427150Y-93665384D01*
X200345843Y-93469091D01*
X200227803Y-93292433D01*
X200077567Y-93142197D01*
X199900909Y-93024157D01*
X199704616Y-92942850D01*
X199496233Y-92901400D01*
X199283767Y-92901400D01*
X199075384Y-92942850D01*
X198879091Y-93024157D01*
X198702433Y-93142197D01*
X198552197Y-93292433D01*
X198434157Y-93469091D01*
X198352850Y-93665384D01*
X198311400Y-93873767D01*
X197928600Y-93873767D01*
X197887150Y-93665384D01*
X197805843Y-93469091D01*
X197687803Y-93292433D01*
X197537567Y-93142197D01*
X197360909Y-93024157D01*
X197164616Y-92942850D01*
X196956233Y-92901400D01*
X196743767Y-92901400D01*
X196535384Y-92942850D01*
X196339091Y-93024157D01*
X196162433Y-93142197D01*
X196012197Y-93292433D01*
X195894157Y-93469091D01*
X195812850Y-93665384D01*
X195771400Y-93873767D01*
X195388600Y-93873767D01*
X195347150Y-93665384D01*
X195265843Y-93469091D01*
X195147803Y-93292433D01*
X194997567Y-93142197D01*
X194820909Y-93024157D01*
X194624616Y-92942850D01*
X194416233Y-92901400D01*
X194203767Y-92901400D01*
X193995384Y-92942850D01*
X193799091Y-93024157D01*
X193622433Y-93142197D01*
X193472197Y-93292433D01*
X193354157Y-93469091D01*
X193272850Y-93665384D01*
X193231400Y-93873767D01*
X192848600Y-93873767D01*
X192807150Y-93665384D01*
X192725843Y-93469091D01*
X192607803Y-93292433D01*
X192457567Y-93142197D01*
X192280909Y-93024157D01*
X192084616Y-92942850D01*
X191876233Y-92901400D01*
X191663767Y-92901400D01*
X191455384Y-92942850D01*
X191259091Y-93024157D01*
X191082433Y-93142197D01*
X190932197Y-93292433D01*
X190814157Y-93469091D01*
X190732850Y-93665384D01*
X190691400Y-93873767D01*
X190308600Y-93873767D01*
X190267150Y-93665384D01*
X190185843Y-93469091D01*
X190067803Y-93292433D01*
X189917567Y-93142197D01*
X189740909Y-93024157D01*
X189544616Y-92942850D01*
X189336233Y-92901400D01*
X189123767Y-92901400D01*
X188915384Y-92942850D01*
X188719091Y-93024157D01*
X188542433Y-93142197D01*
X188392197Y-93292433D01*
X188274157Y-93469091D01*
X188192850Y-93665384D01*
X188151400Y-93873767D01*
X187768600Y-93873767D01*
X187727150Y-93665384D01*
X187645843Y-93469091D01*
X187527803Y-93292433D01*
X187377567Y-93142197D01*
X187200909Y-93024157D01*
X187004616Y-92942850D01*
X186796233Y-92901400D01*
X186583767Y-92901400D01*
X186375384Y-92942850D01*
X186179091Y-93024157D01*
X186002433Y-93142197D01*
X185852197Y-93292433D01*
X185734157Y-93469091D01*
X185652850Y-93665384D01*
X185611400Y-93873767D01*
X185228600Y-93873767D01*
X185187150Y-93665384D01*
X185105843Y-93469091D01*
X184987803Y-93292433D01*
X184837567Y-93142197D01*
X184660909Y-93024157D01*
X184464616Y-92942850D01*
X184256233Y-92901400D01*
X184043767Y-92901400D01*
X183835384Y-92942850D01*
X183639091Y-93024157D01*
X183462433Y-93142197D01*
X183312197Y-93292433D01*
X183194157Y-93469091D01*
X183112850Y-93665384D01*
X183071400Y-93873767D01*
X182688600Y-93873767D01*
X182647150Y-93665384D01*
X182565843Y-93469091D01*
X182447803Y-93292433D01*
X182297567Y-93142197D01*
X182120909Y-93024157D01*
X181924616Y-92942850D01*
X181716233Y-92901400D01*
X181503767Y-92901400D01*
X181295384Y-92942850D01*
X181099091Y-93024157D01*
X180922433Y-93142197D01*
X180772197Y-93292433D01*
X180654157Y-93469091D01*
X180572850Y-93665384D01*
X180531400Y-93873767D01*
X180148600Y-93873767D01*
X180107150Y-93665384D01*
X180025843Y-93469091D01*
X179907803Y-93292433D01*
X179757567Y-93142197D01*
X179580909Y-93024157D01*
X179384616Y-92942850D01*
X179176233Y-92901400D01*
X178963767Y-92901400D01*
X178755384Y-92942850D01*
X178559091Y-93024157D01*
X178382433Y-93142197D01*
X178232197Y-93292433D01*
X178114157Y-93469091D01*
X178032850Y-93665384D01*
X177991400Y-93873767D01*
X177608600Y-93873767D01*
X177567150Y-93665384D01*
X177485843Y-93469091D01*
X177367803Y-93292433D01*
X177217567Y-93142197D01*
X177040909Y-93024157D01*
X176844616Y-92942850D01*
X176636233Y-92901400D01*
X176423767Y-92901400D01*
X176215384Y-92942850D01*
X176019091Y-93024157D01*
X175842433Y-93142197D01*
X175692197Y-93292433D01*
X175574157Y-93469091D01*
X175492850Y-93665384D01*
X175451400Y-93873767D01*
X175068600Y-93873767D01*
X175027150Y-93665384D01*
X174945843Y-93469091D01*
X174827803Y-93292433D01*
X174677567Y-93142197D01*
X174500909Y-93024157D01*
X174304616Y-92942850D01*
X174096233Y-92901400D01*
X173883767Y-92901400D01*
X173675384Y-92942850D01*
X173479091Y-93024157D01*
X173302433Y-93142197D01*
X173152197Y-93292433D01*
X173034157Y-93469091D01*
X172952850Y-93665384D01*
X172911400Y-93873767D01*
X172528600Y-93873767D01*
X172487150Y-93665384D01*
X172405843Y-93469091D01*
X172287803Y-93292433D01*
X172137567Y-93142197D01*
X171960909Y-93024157D01*
X171764616Y-92942850D01*
X171556233Y-92901400D01*
X171343767Y-92901400D01*
X171135384Y-92942850D01*
X170939091Y-93024157D01*
X170762433Y-93142197D01*
X170612197Y-93292433D01*
X170494157Y-93469091D01*
X170412850Y-93665384D01*
X170371400Y-93873767D01*
X169988600Y-93873767D01*
X169947150Y-93665384D01*
X169865843Y-93469091D01*
X169747803Y-93292433D01*
X169597567Y-93142197D01*
X169420909Y-93024157D01*
X169224616Y-92942850D01*
X169016233Y-92901400D01*
X168803767Y-92901400D01*
X168595384Y-92942850D01*
X168399091Y-93024157D01*
X168222433Y-93142197D01*
X168072197Y-93292433D01*
X167954157Y-93469091D01*
X167872850Y-93665384D01*
X167831400Y-93873767D01*
X167448600Y-93873767D01*
X167407150Y-93665384D01*
X167325843Y-93469091D01*
X167207803Y-93292433D01*
X167057567Y-93142197D01*
X166880909Y-93024157D01*
X166684616Y-92942850D01*
X166476233Y-92901400D01*
X166263767Y-92901400D01*
X166055384Y-92942850D01*
X165859091Y-93024157D01*
X165682433Y-93142197D01*
X165532197Y-93292433D01*
X165414157Y-93469091D01*
X165332850Y-93665384D01*
X165291400Y-93873767D01*
X164908600Y-93873767D01*
X164867150Y-93665384D01*
X164785843Y-93469091D01*
X164667803Y-93292433D01*
X164517567Y-93142197D01*
X164340909Y-93024157D01*
X164144616Y-92942850D01*
X163936233Y-92901400D01*
X163723767Y-92901400D01*
X163515384Y-92942850D01*
X163319091Y-93024157D01*
X163142433Y-93142197D01*
X162992197Y-93292433D01*
X162874157Y-93469091D01*
X162792850Y-93665384D01*
X162751400Y-93873767D01*
X162368600Y-93873767D01*
X162327150Y-93665384D01*
X162245843Y-93469091D01*
X162127803Y-93292433D01*
X161977567Y-93142197D01*
X161800909Y-93024157D01*
X161604616Y-92942850D01*
X161396233Y-92901400D01*
X161183767Y-92901400D01*
X160975384Y-92942850D01*
X160779091Y-93024157D01*
X160602433Y-93142197D01*
X160452197Y-93292433D01*
X160334157Y-93469091D01*
X160252850Y-93665384D01*
X160211400Y-93873767D01*
X159828600Y-93873767D01*
X159787150Y-93665384D01*
X159705843Y-93469091D01*
X159587803Y-93292433D01*
X159437567Y-93142197D01*
X159260909Y-93024157D01*
X159064616Y-92942850D01*
X158856233Y-92901400D01*
X158643767Y-92901400D01*
X158435384Y-92942850D01*
X158239091Y-93024157D01*
X158062433Y-93142197D01*
X157912197Y-93292433D01*
X157794157Y-93469091D01*
X157712850Y-93665384D01*
X157671400Y-93873767D01*
X157288600Y-93873767D01*
X157247150Y-93665384D01*
X157165843Y-93469091D01*
X157047803Y-93292433D01*
X156897567Y-93142197D01*
X156720909Y-93024157D01*
X156524616Y-92942850D01*
X156316233Y-92901400D01*
X156103767Y-92901400D01*
X155895384Y-92942850D01*
X155699091Y-93024157D01*
X155522433Y-93142197D01*
X155372197Y-93292433D01*
X155254157Y-93469091D01*
X155172850Y-93665384D01*
X155131400Y-93873767D01*
X155131400Y-94086233D01*
X155172850Y-94294616D01*
X155254157Y-94490909D01*
X155372197Y-94667567D01*
X155522433Y-94817803D01*
X155699091Y-94935843D01*
X155867100Y-95005435D01*
X155867101Y-99043155D01*
X155865442Y-99060000D01*
X155872062Y-99127219D01*
X155875942Y-99140009D01*
X155891670Y-99191857D01*
X155923511Y-99251427D01*
X155966361Y-99303640D01*
X155979443Y-99314376D01*
X158812485Y-102147419D01*
X158806400Y-102178013D01*
X158806400Y-102291987D01*
X158828635Y-102403772D01*
X158872251Y-102509070D01*
X158884298Y-102527100D01*
X155717034Y-102527100D01*
X154002558Y-100812625D01*
X154072150Y-100644616D01*
X154113600Y-100436233D01*
X154113600Y-100223767D01*
X154072150Y-100015384D01*
X153990843Y-99819091D01*
X153872803Y-99642433D01*
X153722567Y-99492197D01*
X153545909Y-99374157D01*
X153349616Y-99292850D01*
X153141233Y-99251400D01*
X152928767Y-99251400D01*
X152720384Y-99292850D01*
X152524091Y-99374157D01*
X152347433Y-99492197D01*
X152197197Y-99642433D01*
X152079157Y-99819091D01*
X152018600Y-99965289D01*
X152018600Y-98146781D01*
X152026019Y-98171240D01*
X152119783Y-98360757D01*
X152248718Y-98528340D01*
X152407869Y-98667549D01*
X152591120Y-98773034D01*
X152791429Y-98840742D01*
X152958800Y-98808759D01*
X152958800Y-97866200D01*
X153111200Y-97866200D01*
X153111200Y-98808759D01*
X153278571Y-98840742D01*
X153478880Y-98773034D01*
X153662131Y-98667549D01*
X153821282Y-98528340D01*
X153950217Y-98360757D01*
X154043981Y-98171240D01*
X154085739Y-98033570D01*
X154053604Y-97866200D01*
X153111200Y-97866200D01*
X152958800Y-97866200D01*
X152938800Y-97866200D01*
X152938800Y-97713800D01*
X152958800Y-97713800D01*
X152958800Y-96771241D01*
X153111200Y-96771241D01*
X153111200Y-97713800D01*
X154053604Y-97713800D01*
X154085739Y-97546430D01*
X154043981Y-97408760D01*
X153950217Y-97219243D01*
X153821282Y-97051660D01*
X153662131Y-96912451D01*
X153478880Y-96806966D01*
X153278571Y-96739258D01*
X153111200Y-96771241D01*
X152958800Y-96771241D01*
X152791429Y-96739258D01*
X152591120Y-96806966D01*
X152407869Y-96912451D01*
X152248718Y-97051660D01*
X152119783Y-97219243D01*
X152026019Y-97408760D01*
X152018600Y-97433219D01*
X152018600Y-94830000D01*
X152590294Y-94830000D01*
X152594708Y-94874813D01*
X152607779Y-94917905D01*
X152629006Y-94957618D01*
X152657573Y-94992427D01*
X152692382Y-95020994D01*
X152732095Y-95042221D01*
X152775187Y-95055292D01*
X152820000Y-95059706D01*
X153536650Y-95058600D01*
X153593800Y-95001450D01*
X153593800Y-94056200D01*
X153746200Y-94056200D01*
X153746200Y-95001450D01*
X153803350Y-95058600D01*
X154520000Y-95059706D01*
X154564813Y-95055292D01*
X154607905Y-95042221D01*
X154647618Y-95020994D01*
X154682427Y-94992427D01*
X154710994Y-94957618D01*
X154732221Y-94917905D01*
X154745292Y-94874813D01*
X154749706Y-94830000D01*
X154748600Y-94113350D01*
X154691450Y-94056200D01*
X153746200Y-94056200D01*
X153593800Y-94056200D01*
X152648550Y-94056200D01*
X152591400Y-94113350D01*
X152590294Y-94830000D01*
X152018600Y-94830000D01*
X152018600Y-93130000D01*
X152590294Y-93130000D01*
X152591400Y-93846650D01*
X152648550Y-93903800D01*
X153593800Y-93903800D01*
X153593800Y-92958550D01*
X153746200Y-92958550D01*
X153746200Y-93903800D01*
X154691450Y-93903800D01*
X154748600Y-93846650D01*
X154749706Y-93130000D01*
X154745292Y-93085187D01*
X154732221Y-93042095D01*
X154710994Y-93002382D01*
X154682427Y-92967573D01*
X154647618Y-92939006D01*
X154607905Y-92917779D01*
X154564813Y-92904708D01*
X154520000Y-92900294D01*
X153803350Y-92901400D01*
X153746200Y-92958550D01*
X153593800Y-92958550D01*
X153536650Y-92901400D01*
X152820000Y-92900294D01*
X152775187Y-92904708D01*
X152732095Y-92917779D01*
X152692382Y-92939006D01*
X152657573Y-92967573D01*
X152629006Y-93002382D01*
X152607779Y-93042095D01*
X152594708Y-93085187D01*
X152590294Y-93130000D01*
X152018600Y-93130000D01*
X152018600Y-92722406D01*
X152039151Y-92512814D01*
X152096415Y-92323146D01*
X152189433Y-92148205D01*
X152314656Y-91994666D01*
X152467317Y-91868374D01*
X152641602Y-91774139D01*
X152830866Y-91715551D01*
X153039721Y-91693600D01*
X202552594Y-91693600D01*
X202762186Y-91714151D01*
%TD*%
M02*
