%TF.GenerationSoftware,KiCad,Pcbnew,5.1.6+dfsg1-1*%
%TF.CreationDate,2020-06-23T10:35:08+08:00*%
%TF.ProjectId,stm32devmini,73746d33-3264-4657-966d-696e692e6b69,rev?*%
%TF.SameCoordinates,Original*%
%TF.FileFunction,Paste,Top*%
%TF.FilePolarity,Positive*%
%FSLAX46Y46*%
G04 Gerber Fmt 4.6, Leading zero omitted, Abs format (unit mm)*
G04 Created by KiCad (PCBNEW 5.1.6+dfsg1-1) date 2020-06-23 10:35:08*
%MOMM*%
%LPD*%
G01*
G04 APERTURE LIST*
%ADD10R,1.000000X1.800000*%
%ADD11R,2.400000X1.900000*%
%ADD12R,1.700000X1.000000*%
%ADD13R,1.500000X2.000000*%
%ADD14R,3.800000X2.000000*%
%ADD15R,0.900000X1.200000*%
%ADD16R,1.900000X1.500000*%
%ADD17R,1.350000X0.400000*%
G04 APERTURE END LIST*
%TO.C,C11*%
G36*
G01*
X171005000Y-106217500D02*
X171005000Y-105872500D01*
G75*
G02*
X171152500Y-105725000I147500J0D01*
G01*
X171447500Y-105725000D01*
G75*
G02*
X171595000Y-105872500I0J-147500D01*
G01*
X171595000Y-106217500D01*
G75*
G02*
X171447500Y-106365000I-147500J0D01*
G01*
X171152500Y-106365000D01*
G75*
G02*
X171005000Y-106217500I0J147500D01*
G01*
G37*
G36*
G01*
X170035000Y-106217500D02*
X170035000Y-105872500D01*
G75*
G02*
X170182500Y-105725000I147500J0D01*
G01*
X170477500Y-105725000D01*
G75*
G02*
X170625000Y-105872500I0J-147500D01*
G01*
X170625000Y-106217500D01*
G75*
G02*
X170477500Y-106365000I-147500J0D01*
G01*
X170182500Y-106365000D01*
G75*
G02*
X170035000Y-106217500I0J147500D01*
G01*
G37*
%TD*%
%TO.C,C10*%
G36*
G01*
X164637500Y-106490000D02*
X164292500Y-106490000D01*
G75*
G02*
X164145000Y-106342500I0J147500D01*
G01*
X164145000Y-106047500D01*
G75*
G02*
X164292500Y-105900000I147500J0D01*
G01*
X164637500Y-105900000D01*
G75*
G02*
X164785000Y-106047500I0J-147500D01*
G01*
X164785000Y-106342500D01*
G75*
G02*
X164637500Y-106490000I-147500J0D01*
G01*
G37*
G36*
G01*
X164637500Y-107460000D02*
X164292500Y-107460000D01*
G75*
G02*
X164145000Y-107312500I0J147500D01*
G01*
X164145000Y-107017500D01*
G75*
G02*
X164292500Y-106870000I147500J0D01*
G01*
X164637500Y-106870000D01*
G75*
G02*
X164785000Y-107017500I0J-147500D01*
G01*
X164785000Y-107312500D01*
G75*
G02*
X164637500Y-107460000I-147500J0D01*
G01*
G37*
%TD*%
D10*
%TO.C,Y2*%
X168890000Y-106045000D03*
X166390000Y-106045000D03*
%TD*%
D11*
%TO.C,Y1*%
X167640000Y-103015000D03*
X167640000Y-98915000D03*
%TD*%
%TO.C,C9*%
G36*
G01*
X164292500Y-104330000D02*
X164637500Y-104330000D01*
G75*
G02*
X164785000Y-104477500I0J-147500D01*
G01*
X164785000Y-104772500D01*
G75*
G02*
X164637500Y-104920000I-147500J0D01*
G01*
X164292500Y-104920000D01*
G75*
G02*
X164145000Y-104772500I0J147500D01*
G01*
X164145000Y-104477500D01*
G75*
G02*
X164292500Y-104330000I147500J0D01*
G01*
G37*
G36*
G01*
X164292500Y-103360000D02*
X164637500Y-103360000D01*
G75*
G02*
X164785000Y-103507500I0J-147500D01*
G01*
X164785000Y-103802500D01*
G75*
G02*
X164637500Y-103950000I-147500J0D01*
G01*
X164292500Y-103950000D01*
G75*
G02*
X164145000Y-103802500I0J147500D01*
G01*
X164145000Y-103507500D01*
G75*
G02*
X164292500Y-103360000I147500J0D01*
G01*
G37*
%TD*%
%TO.C,C8*%
G36*
G01*
X164292500Y-101790000D02*
X164637500Y-101790000D01*
G75*
G02*
X164785000Y-101937500I0J-147500D01*
G01*
X164785000Y-102232500D01*
G75*
G02*
X164637500Y-102380000I-147500J0D01*
G01*
X164292500Y-102380000D01*
G75*
G02*
X164145000Y-102232500I0J147500D01*
G01*
X164145000Y-101937500D01*
G75*
G02*
X164292500Y-101790000I147500J0D01*
G01*
G37*
G36*
G01*
X164292500Y-100820000D02*
X164637500Y-100820000D01*
G75*
G02*
X164785000Y-100967500I0J-147500D01*
G01*
X164785000Y-101262500D01*
G75*
G02*
X164637500Y-101410000I-147500J0D01*
G01*
X164292500Y-101410000D01*
G75*
G02*
X164145000Y-101262500I0J147500D01*
G01*
X164145000Y-100967500D01*
G75*
G02*
X164292500Y-100820000I147500J0D01*
G01*
G37*
%TD*%
%TO.C,R6*%
G36*
G01*
X196660000Y-99522500D02*
X196660000Y-99867500D01*
G75*
G02*
X196512500Y-100015000I-147500J0D01*
G01*
X196217500Y-100015000D01*
G75*
G02*
X196070000Y-99867500I0J147500D01*
G01*
X196070000Y-99522500D01*
G75*
G02*
X196217500Y-99375000I147500J0D01*
G01*
X196512500Y-99375000D01*
G75*
G02*
X196660000Y-99522500I0J-147500D01*
G01*
G37*
G36*
G01*
X197630000Y-99522500D02*
X197630000Y-99867500D01*
G75*
G02*
X197482500Y-100015000I-147500J0D01*
G01*
X197187500Y-100015000D01*
G75*
G02*
X197040000Y-99867500I0J147500D01*
G01*
X197040000Y-99522500D01*
G75*
G02*
X197187500Y-99375000I147500J0D01*
G01*
X197482500Y-99375000D01*
G75*
G02*
X197630000Y-99522500I0J-147500D01*
G01*
G37*
%TD*%
%TO.C,R5*%
G36*
G01*
X196660000Y-98252500D02*
X196660000Y-98597500D01*
G75*
G02*
X196512500Y-98745000I-147500J0D01*
G01*
X196217500Y-98745000D01*
G75*
G02*
X196070000Y-98597500I0J147500D01*
G01*
X196070000Y-98252500D01*
G75*
G02*
X196217500Y-98105000I147500J0D01*
G01*
X196512500Y-98105000D01*
G75*
G02*
X196660000Y-98252500I0J-147500D01*
G01*
G37*
G36*
G01*
X197630000Y-98252500D02*
X197630000Y-98597500D01*
G75*
G02*
X197482500Y-98745000I-147500J0D01*
G01*
X197187500Y-98745000D01*
G75*
G02*
X197040000Y-98597500I0J147500D01*
G01*
X197040000Y-98252500D01*
G75*
G02*
X197187500Y-98105000I147500J0D01*
G01*
X197482500Y-98105000D01*
G75*
G02*
X197630000Y-98252500I0J-147500D01*
G01*
G37*
%TD*%
%TO.C,R4*%
G36*
G01*
X202120000Y-96692500D02*
X202120000Y-96347500D01*
G75*
G02*
X202267500Y-96200000I147500J0D01*
G01*
X202562500Y-96200000D01*
G75*
G02*
X202710000Y-96347500I0J-147500D01*
G01*
X202710000Y-96692500D01*
G75*
G02*
X202562500Y-96840000I-147500J0D01*
G01*
X202267500Y-96840000D01*
G75*
G02*
X202120000Y-96692500I0J147500D01*
G01*
G37*
G36*
G01*
X201150000Y-96692500D02*
X201150000Y-96347500D01*
G75*
G02*
X201297500Y-96200000I147500J0D01*
G01*
X201592500Y-96200000D01*
G75*
G02*
X201740000Y-96347500I0J-147500D01*
G01*
X201740000Y-96692500D01*
G75*
G02*
X201592500Y-96840000I-147500J0D01*
G01*
X201297500Y-96840000D01*
G75*
G02*
X201150000Y-96692500I0J147500D01*
G01*
G37*
%TD*%
%TO.C,D3*%
G36*
G01*
X196565000Y-96776250D02*
X196565000Y-96263750D01*
G75*
G02*
X196783750Y-96045000I218750J0D01*
G01*
X197221250Y-96045000D01*
G75*
G02*
X197440000Y-96263750I0J-218750D01*
G01*
X197440000Y-96776250D01*
G75*
G02*
X197221250Y-96995000I-218750J0D01*
G01*
X196783750Y-96995000D01*
G75*
G02*
X196565000Y-96776250I0J218750D01*
G01*
G37*
G36*
G01*
X194990000Y-96776250D02*
X194990000Y-96263750D01*
G75*
G02*
X195208750Y-96045000I218750J0D01*
G01*
X195646250Y-96045000D01*
G75*
G02*
X195865000Y-96263750I0J-218750D01*
G01*
X195865000Y-96776250D01*
G75*
G02*
X195646250Y-96995000I-218750J0D01*
G01*
X195208750Y-96995000D01*
G75*
G02*
X194990000Y-96776250I0J218750D01*
G01*
G37*
%TD*%
%TO.C,D2*%
G36*
G01*
X199040000Y-96263750D02*
X199040000Y-96776250D01*
G75*
G02*
X198821250Y-96995000I-218750J0D01*
G01*
X198383750Y-96995000D01*
G75*
G02*
X198165000Y-96776250I0J218750D01*
G01*
X198165000Y-96263750D01*
G75*
G02*
X198383750Y-96045000I218750J0D01*
G01*
X198821250Y-96045000D01*
G75*
G02*
X199040000Y-96263750I0J-218750D01*
G01*
G37*
G36*
G01*
X200615000Y-96263750D02*
X200615000Y-96776250D01*
G75*
G02*
X200396250Y-96995000I-218750J0D01*
G01*
X199958750Y-96995000D01*
G75*
G02*
X199740000Y-96776250I0J218750D01*
G01*
X199740000Y-96263750D01*
G75*
G02*
X199958750Y-96045000I218750J0D01*
G01*
X200396250Y-96045000D01*
G75*
G02*
X200615000Y-96263750I0J-218750D01*
G01*
G37*
%TD*%
%TO.C,R3*%
G36*
G01*
X164637500Y-98870000D02*
X164292500Y-98870000D01*
G75*
G02*
X164145000Y-98722500I0J147500D01*
G01*
X164145000Y-98427500D01*
G75*
G02*
X164292500Y-98280000I147500J0D01*
G01*
X164637500Y-98280000D01*
G75*
G02*
X164785000Y-98427500I0J-147500D01*
G01*
X164785000Y-98722500D01*
G75*
G02*
X164637500Y-98870000I-147500J0D01*
G01*
G37*
G36*
G01*
X164637500Y-99840000D02*
X164292500Y-99840000D01*
G75*
G02*
X164145000Y-99692500I0J147500D01*
G01*
X164145000Y-99397500D01*
G75*
G02*
X164292500Y-99250000I147500J0D01*
G01*
X164637500Y-99250000D01*
G75*
G02*
X164785000Y-99397500I0J-147500D01*
G01*
X164785000Y-99692500D01*
G75*
G02*
X164637500Y-99840000I-147500J0D01*
G01*
G37*
%TD*%
%TO.C,C7*%
G36*
G01*
X164637500Y-96330000D02*
X164292500Y-96330000D01*
G75*
G02*
X164145000Y-96182500I0J147500D01*
G01*
X164145000Y-95887500D01*
G75*
G02*
X164292500Y-95740000I147500J0D01*
G01*
X164637500Y-95740000D01*
G75*
G02*
X164785000Y-95887500I0J-147500D01*
G01*
X164785000Y-96182500D01*
G75*
G02*
X164637500Y-96330000I-147500J0D01*
G01*
G37*
G36*
G01*
X164637500Y-97300000D02*
X164292500Y-97300000D01*
G75*
G02*
X164145000Y-97152500I0J147500D01*
G01*
X164145000Y-96857500D01*
G75*
G02*
X164292500Y-96710000I147500J0D01*
G01*
X164637500Y-96710000D01*
G75*
G02*
X164785000Y-96857500I0J-147500D01*
G01*
X164785000Y-97152500D01*
G75*
G02*
X164637500Y-97300000I-147500J0D01*
G01*
G37*
%TD*%
D12*
%TO.C,SW1*%
X162535000Y-100325000D03*
X156235000Y-100325000D03*
X162535000Y-96525000D03*
X156235000Y-96525000D03*
%TD*%
D13*
%TO.C,U1*%
X189470000Y-106020000D03*
X194070000Y-106020000D03*
X191770000Y-106020000D03*
D14*
X191770000Y-99720000D03*
%TD*%
%TO.C,R2*%
G36*
G01*
X196660000Y-102062500D02*
X196660000Y-102407500D01*
G75*
G02*
X196512500Y-102555000I-147500J0D01*
G01*
X196217500Y-102555000D01*
G75*
G02*
X196070000Y-102407500I0J147500D01*
G01*
X196070000Y-102062500D01*
G75*
G02*
X196217500Y-101915000I147500J0D01*
G01*
X196512500Y-101915000D01*
G75*
G02*
X196660000Y-102062500I0J-147500D01*
G01*
G37*
G36*
G01*
X197630000Y-102062500D02*
X197630000Y-102407500D01*
G75*
G02*
X197482500Y-102555000I-147500J0D01*
G01*
X197187500Y-102555000D01*
G75*
G02*
X197040000Y-102407500I0J147500D01*
G01*
X197040000Y-102062500D01*
G75*
G02*
X197187500Y-101915000I147500J0D01*
G01*
X197482500Y-101915000D01*
G75*
G02*
X197630000Y-102062500I0J-147500D01*
G01*
G37*
%TD*%
%TO.C,R1*%
G36*
G01*
X196660000Y-100792500D02*
X196660000Y-101137500D01*
G75*
G02*
X196512500Y-101285000I-147500J0D01*
G01*
X196217500Y-101285000D01*
G75*
G02*
X196070000Y-101137500I0J147500D01*
G01*
X196070000Y-100792500D01*
G75*
G02*
X196217500Y-100645000I147500J0D01*
G01*
X196512500Y-100645000D01*
G75*
G02*
X196660000Y-100792500I0J-147500D01*
G01*
G37*
G36*
G01*
X197630000Y-100792500D02*
X197630000Y-101137500D01*
G75*
G02*
X197482500Y-101285000I-147500J0D01*
G01*
X197187500Y-101285000D01*
G75*
G02*
X197040000Y-101137500I0J147500D01*
G01*
X197040000Y-100792500D01*
G75*
G02*
X197187500Y-100645000I147500J0D01*
G01*
X197482500Y-100645000D01*
G75*
G02*
X197630000Y-100792500I0J-147500D01*
G01*
G37*
%TD*%
D15*
%TO.C,D1*%
X202310000Y-107315000D03*
X199010000Y-107315000D03*
%TD*%
%TO.C,C6*%
G36*
G01*
X171622500Y-101560000D02*
X171277500Y-101560000D01*
G75*
G02*
X171130000Y-101412500I0J147500D01*
G01*
X171130000Y-101117500D01*
G75*
G02*
X171277500Y-100970000I147500J0D01*
G01*
X171622500Y-100970000D01*
G75*
G02*
X171770000Y-101117500I0J-147500D01*
G01*
X171770000Y-101412500D01*
G75*
G02*
X171622500Y-101560000I-147500J0D01*
G01*
G37*
G36*
G01*
X171622500Y-102530000D02*
X171277500Y-102530000D01*
G75*
G02*
X171130000Y-102382500I0J147500D01*
G01*
X171130000Y-102087500D01*
G75*
G02*
X171277500Y-101940000I147500J0D01*
G01*
X171622500Y-101940000D01*
G75*
G02*
X171770000Y-102087500I0J-147500D01*
G01*
X171770000Y-102382500D01*
G75*
G02*
X171622500Y-102530000I-147500J0D01*
G01*
G37*
%TD*%
%TO.C,C5*%
G36*
G01*
X173165000Y-105872500D02*
X173165000Y-106217500D01*
G75*
G02*
X173017500Y-106365000I-147500J0D01*
G01*
X172722500Y-106365000D01*
G75*
G02*
X172575000Y-106217500I0J147500D01*
G01*
X172575000Y-105872500D01*
G75*
G02*
X172722500Y-105725000I147500J0D01*
G01*
X173017500Y-105725000D01*
G75*
G02*
X173165000Y-105872500I0J-147500D01*
G01*
G37*
G36*
G01*
X174135000Y-105872500D02*
X174135000Y-106217500D01*
G75*
G02*
X173987500Y-106365000I-147500J0D01*
G01*
X173692500Y-106365000D01*
G75*
G02*
X173545000Y-106217500I0J147500D01*
G01*
X173545000Y-105872500D01*
G75*
G02*
X173692500Y-105725000I147500J0D01*
G01*
X173987500Y-105725000D01*
G75*
G02*
X174135000Y-105872500I0J-147500D01*
G01*
G37*
%TD*%
%TO.C,C4*%
G36*
G01*
X181165000Y-96057500D02*
X181165000Y-95712500D01*
G75*
G02*
X181312500Y-95565000I147500J0D01*
G01*
X181607500Y-95565000D01*
G75*
G02*
X181755000Y-95712500I0J-147500D01*
G01*
X181755000Y-96057500D01*
G75*
G02*
X181607500Y-96205000I-147500J0D01*
G01*
X181312500Y-96205000D01*
G75*
G02*
X181165000Y-96057500I0J147500D01*
G01*
G37*
G36*
G01*
X180195000Y-96057500D02*
X180195000Y-95712500D01*
G75*
G02*
X180342500Y-95565000I147500J0D01*
G01*
X180637500Y-95565000D01*
G75*
G02*
X180785000Y-95712500I0J-147500D01*
G01*
X180785000Y-96057500D01*
G75*
G02*
X180637500Y-96205000I-147500J0D01*
G01*
X180342500Y-96205000D01*
G75*
G02*
X180195000Y-96057500I0J147500D01*
G01*
G37*
%TD*%
%TO.C,C3*%
G36*
G01*
X184322500Y-101560000D02*
X183977500Y-101560000D01*
G75*
G02*
X183830000Y-101412500I0J147500D01*
G01*
X183830000Y-101117500D01*
G75*
G02*
X183977500Y-100970000I147500J0D01*
G01*
X184322500Y-100970000D01*
G75*
G02*
X184470000Y-101117500I0J-147500D01*
G01*
X184470000Y-101412500D01*
G75*
G02*
X184322500Y-101560000I-147500J0D01*
G01*
G37*
G36*
G01*
X184322500Y-102530000D02*
X183977500Y-102530000D01*
G75*
G02*
X183830000Y-102382500I0J147500D01*
G01*
X183830000Y-102087500D01*
G75*
G02*
X183977500Y-101940000I147500J0D01*
G01*
X184322500Y-101940000D01*
G75*
G02*
X184470000Y-102087500I0J-147500D01*
G01*
X184470000Y-102382500D01*
G75*
G02*
X184322500Y-102530000I-147500J0D01*
G01*
G37*
%TD*%
%TO.C,C2*%
G36*
G01*
X186233750Y-105860000D02*
X187146250Y-105860000D01*
G75*
G02*
X187390000Y-106103750I0J-243750D01*
G01*
X187390000Y-106591250D01*
G75*
G02*
X187146250Y-106835000I-243750J0D01*
G01*
X186233750Y-106835000D01*
G75*
G02*
X185990000Y-106591250I0J243750D01*
G01*
X185990000Y-106103750D01*
G75*
G02*
X186233750Y-105860000I243750J0D01*
G01*
G37*
G36*
G01*
X186233750Y-103985000D02*
X187146250Y-103985000D01*
G75*
G02*
X187390000Y-104228750I0J-243750D01*
G01*
X187390000Y-104716250D01*
G75*
G02*
X187146250Y-104960000I-243750J0D01*
G01*
X186233750Y-104960000D01*
G75*
G02*
X185990000Y-104716250I0J243750D01*
G01*
X185990000Y-104228750D01*
G75*
G02*
X186233750Y-103985000I243750J0D01*
G01*
G37*
%TD*%
%TO.C,C1*%
G36*
G01*
X197306250Y-104960000D02*
X196393750Y-104960000D01*
G75*
G02*
X196150000Y-104716250I0J243750D01*
G01*
X196150000Y-104228750D01*
G75*
G02*
X196393750Y-103985000I243750J0D01*
G01*
X197306250Y-103985000D01*
G75*
G02*
X197550000Y-104228750I0J-243750D01*
G01*
X197550000Y-104716250D01*
G75*
G02*
X197306250Y-104960000I-243750J0D01*
G01*
G37*
G36*
G01*
X197306250Y-106835000D02*
X196393750Y-106835000D01*
G75*
G02*
X196150000Y-106591250I0J243750D01*
G01*
X196150000Y-106103750D01*
G75*
G02*
X196393750Y-105860000I243750J0D01*
G01*
X197306250Y-105860000D01*
G75*
G02*
X197550000Y-106103750I0J-243750D01*
G01*
X197550000Y-106591250D01*
G75*
G02*
X197306250Y-106835000I-243750J0D01*
G01*
G37*
%TD*%
%TO.C,U2*%
G36*
G01*
X173274516Y-101175736D02*
X172337600Y-100238820D01*
G75*
G02*
X172337600Y-100132754I53033J53033D01*
G01*
X172443666Y-100026688D01*
G75*
G02*
X172549732Y-100026688I53033J-53033D01*
G01*
X173486648Y-100963604D01*
G75*
G02*
X173486648Y-101069670I-53033J-53033D01*
G01*
X173380582Y-101175736D01*
G75*
G02*
X173274516Y-101175736I-53033J53033D01*
G01*
G37*
G36*
G01*
X173628070Y-100822182D02*
X172691154Y-99885266D01*
G75*
G02*
X172691154Y-99779200I53033J53033D01*
G01*
X172797220Y-99673134D01*
G75*
G02*
X172903286Y-99673134I53033J-53033D01*
G01*
X173840202Y-100610050D01*
G75*
G02*
X173840202Y-100716116I-53033J-53033D01*
G01*
X173734136Y-100822182D01*
G75*
G02*
X173628070Y-100822182I-53033J53033D01*
G01*
G37*
G36*
G01*
X173981623Y-100468629D02*
X173044707Y-99531713D01*
G75*
G02*
X173044707Y-99425647I53033J53033D01*
G01*
X173150773Y-99319581D01*
G75*
G02*
X173256839Y-99319581I53033J-53033D01*
G01*
X174193755Y-100256497D01*
G75*
G02*
X174193755Y-100362563I-53033J-53033D01*
G01*
X174087689Y-100468629D01*
G75*
G02*
X173981623Y-100468629I-53033J53033D01*
G01*
G37*
G36*
G01*
X174335177Y-100115075D02*
X173398261Y-99178159D01*
G75*
G02*
X173398261Y-99072093I53033J53033D01*
G01*
X173504327Y-98966027D01*
G75*
G02*
X173610393Y-98966027I53033J-53033D01*
G01*
X174547309Y-99902943D01*
G75*
G02*
X174547309Y-100009009I-53033J-53033D01*
G01*
X174441243Y-100115075D01*
G75*
G02*
X174335177Y-100115075I-53033J53033D01*
G01*
G37*
G36*
G01*
X174688730Y-99761522D02*
X173751814Y-98824606D01*
G75*
G02*
X173751814Y-98718540I53033J53033D01*
G01*
X173857880Y-98612474D01*
G75*
G02*
X173963946Y-98612474I53033J-53033D01*
G01*
X174900862Y-99549390D01*
G75*
G02*
X174900862Y-99655456I-53033J-53033D01*
G01*
X174794796Y-99761522D01*
G75*
G02*
X174688730Y-99761522I-53033J53033D01*
G01*
G37*
G36*
G01*
X175042283Y-99407969D02*
X174105367Y-98471053D01*
G75*
G02*
X174105367Y-98364987I53033J53033D01*
G01*
X174211433Y-98258921D01*
G75*
G02*
X174317499Y-98258921I53033J-53033D01*
G01*
X175254415Y-99195837D01*
G75*
G02*
X175254415Y-99301903I-53033J-53033D01*
G01*
X175148349Y-99407969D01*
G75*
G02*
X175042283Y-99407969I-53033J53033D01*
G01*
G37*
G36*
G01*
X175395837Y-99054415D02*
X174458921Y-98117499D01*
G75*
G02*
X174458921Y-98011433I53033J53033D01*
G01*
X174564987Y-97905367D01*
G75*
G02*
X174671053Y-97905367I53033J-53033D01*
G01*
X175607969Y-98842283D01*
G75*
G02*
X175607969Y-98948349I-53033J-53033D01*
G01*
X175501903Y-99054415D01*
G75*
G02*
X175395837Y-99054415I-53033J53033D01*
G01*
G37*
G36*
G01*
X175749390Y-98700862D02*
X174812474Y-97763946D01*
G75*
G02*
X174812474Y-97657880I53033J53033D01*
G01*
X174918540Y-97551814D01*
G75*
G02*
X175024606Y-97551814I53033J-53033D01*
G01*
X175961522Y-98488730D01*
G75*
G02*
X175961522Y-98594796I-53033J-53033D01*
G01*
X175855456Y-98700862D01*
G75*
G02*
X175749390Y-98700862I-53033J53033D01*
G01*
G37*
G36*
G01*
X176102943Y-98347309D02*
X175166027Y-97410393D01*
G75*
G02*
X175166027Y-97304327I53033J53033D01*
G01*
X175272093Y-97198261D01*
G75*
G02*
X175378159Y-97198261I53033J-53033D01*
G01*
X176315075Y-98135177D01*
G75*
G02*
X176315075Y-98241243I-53033J-53033D01*
G01*
X176209009Y-98347309D01*
G75*
G02*
X176102943Y-98347309I-53033J53033D01*
G01*
G37*
G36*
G01*
X176456497Y-97993755D02*
X175519581Y-97056839D01*
G75*
G02*
X175519581Y-96950773I53033J53033D01*
G01*
X175625647Y-96844707D01*
G75*
G02*
X175731713Y-96844707I53033J-53033D01*
G01*
X176668629Y-97781623D01*
G75*
G02*
X176668629Y-97887689I-53033J-53033D01*
G01*
X176562563Y-97993755D01*
G75*
G02*
X176456497Y-97993755I-53033J53033D01*
G01*
G37*
G36*
G01*
X176810050Y-97640202D02*
X175873134Y-96703286D01*
G75*
G02*
X175873134Y-96597220I53033J53033D01*
G01*
X175979200Y-96491154D01*
G75*
G02*
X176085266Y-96491154I53033J-53033D01*
G01*
X177022182Y-97428070D01*
G75*
G02*
X177022182Y-97534136I-53033J-53033D01*
G01*
X176916116Y-97640202D01*
G75*
G02*
X176810050Y-97640202I-53033J53033D01*
G01*
G37*
G36*
G01*
X177163604Y-97286648D02*
X176226688Y-96349732D01*
G75*
G02*
X176226688Y-96243666I53033J53033D01*
G01*
X176332754Y-96137600D01*
G75*
G02*
X176438820Y-96137600I53033J-53033D01*
G01*
X177375736Y-97074516D01*
G75*
G02*
X177375736Y-97180582I-53033J-53033D01*
G01*
X177269670Y-97286648D01*
G75*
G02*
X177163604Y-97286648I-53033J53033D01*
G01*
G37*
G36*
G01*
X178330330Y-97286648D02*
X178224264Y-97180582D01*
G75*
G02*
X178224264Y-97074516I53033J53033D01*
G01*
X179161180Y-96137600D01*
G75*
G02*
X179267246Y-96137600I53033J-53033D01*
G01*
X179373312Y-96243666D01*
G75*
G02*
X179373312Y-96349732I-53033J-53033D01*
G01*
X178436396Y-97286648D01*
G75*
G02*
X178330330Y-97286648I-53033J53033D01*
G01*
G37*
G36*
G01*
X178683884Y-97640202D02*
X178577818Y-97534136D01*
G75*
G02*
X178577818Y-97428070I53033J53033D01*
G01*
X179514734Y-96491154D01*
G75*
G02*
X179620800Y-96491154I53033J-53033D01*
G01*
X179726866Y-96597220D01*
G75*
G02*
X179726866Y-96703286I-53033J-53033D01*
G01*
X178789950Y-97640202D01*
G75*
G02*
X178683884Y-97640202I-53033J53033D01*
G01*
G37*
G36*
G01*
X179037437Y-97993755D02*
X178931371Y-97887689D01*
G75*
G02*
X178931371Y-97781623I53033J53033D01*
G01*
X179868287Y-96844707D01*
G75*
G02*
X179974353Y-96844707I53033J-53033D01*
G01*
X180080419Y-96950773D01*
G75*
G02*
X180080419Y-97056839I-53033J-53033D01*
G01*
X179143503Y-97993755D01*
G75*
G02*
X179037437Y-97993755I-53033J53033D01*
G01*
G37*
G36*
G01*
X179390991Y-98347309D02*
X179284925Y-98241243D01*
G75*
G02*
X179284925Y-98135177I53033J53033D01*
G01*
X180221841Y-97198261D01*
G75*
G02*
X180327907Y-97198261I53033J-53033D01*
G01*
X180433973Y-97304327D01*
G75*
G02*
X180433973Y-97410393I-53033J-53033D01*
G01*
X179497057Y-98347309D01*
G75*
G02*
X179390991Y-98347309I-53033J53033D01*
G01*
G37*
G36*
G01*
X179744544Y-98700862D02*
X179638478Y-98594796D01*
G75*
G02*
X179638478Y-98488730I53033J53033D01*
G01*
X180575394Y-97551814D01*
G75*
G02*
X180681460Y-97551814I53033J-53033D01*
G01*
X180787526Y-97657880D01*
G75*
G02*
X180787526Y-97763946I-53033J-53033D01*
G01*
X179850610Y-98700862D01*
G75*
G02*
X179744544Y-98700862I-53033J53033D01*
G01*
G37*
G36*
G01*
X180098097Y-99054415D02*
X179992031Y-98948349D01*
G75*
G02*
X179992031Y-98842283I53033J53033D01*
G01*
X180928947Y-97905367D01*
G75*
G02*
X181035013Y-97905367I53033J-53033D01*
G01*
X181141079Y-98011433D01*
G75*
G02*
X181141079Y-98117499I-53033J-53033D01*
G01*
X180204163Y-99054415D01*
G75*
G02*
X180098097Y-99054415I-53033J53033D01*
G01*
G37*
G36*
G01*
X180451651Y-99407969D02*
X180345585Y-99301903D01*
G75*
G02*
X180345585Y-99195837I53033J53033D01*
G01*
X181282501Y-98258921D01*
G75*
G02*
X181388567Y-98258921I53033J-53033D01*
G01*
X181494633Y-98364987D01*
G75*
G02*
X181494633Y-98471053I-53033J-53033D01*
G01*
X180557717Y-99407969D01*
G75*
G02*
X180451651Y-99407969I-53033J53033D01*
G01*
G37*
G36*
G01*
X180805204Y-99761522D02*
X180699138Y-99655456D01*
G75*
G02*
X180699138Y-99549390I53033J53033D01*
G01*
X181636054Y-98612474D01*
G75*
G02*
X181742120Y-98612474I53033J-53033D01*
G01*
X181848186Y-98718540D01*
G75*
G02*
X181848186Y-98824606I-53033J-53033D01*
G01*
X180911270Y-99761522D01*
G75*
G02*
X180805204Y-99761522I-53033J53033D01*
G01*
G37*
G36*
G01*
X181158757Y-100115075D02*
X181052691Y-100009009D01*
G75*
G02*
X181052691Y-99902943I53033J53033D01*
G01*
X181989607Y-98966027D01*
G75*
G02*
X182095673Y-98966027I53033J-53033D01*
G01*
X182201739Y-99072093D01*
G75*
G02*
X182201739Y-99178159I-53033J-53033D01*
G01*
X181264823Y-100115075D01*
G75*
G02*
X181158757Y-100115075I-53033J53033D01*
G01*
G37*
G36*
G01*
X181512311Y-100468629D02*
X181406245Y-100362563D01*
G75*
G02*
X181406245Y-100256497I53033J53033D01*
G01*
X182343161Y-99319581D01*
G75*
G02*
X182449227Y-99319581I53033J-53033D01*
G01*
X182555293Y-99425647D01*
G75*
G02*
X182555293Y-99531713I-53033J-53033D01*
G01*
X181618377Y-100468629D01*
G75*
G02*
X181512311Y-100468629I-53033J53033D01*
G01*
G37*
G36*
G01*
X181865864Y-100822182D02*
X181759798Y-100716116D01*
G75*
G02*
X181759798Y-100610050I53033J53033D01*
G01*
X182696714Y-99673134D01*
G75*
G02*
X182802780Y-99673134I53033J-53033D01*
G01*
X182908846Y-99779200D01*
G75*
G02*
X182908846Y-99885266I-53033J-53033D01*
G01*
X181971930Y-100822182D01*
G75*
G02*
X181865864Y-100822182I-53033J53033D01*
G01*
G37*
G36*
G01*
X182219418Y-101175736D02*
X182113352Y-101069670D01*
G75*
G02*
X182113352Y-100963604I53033J53033D01*
G01*
X183050268Y-100026688D01*
G75*
G02*
X183156334Y-100026688I53033J-53033D01*
G01*
X183262400Y-100132754D01*
G75*
G02*
X183262400Y-100238820I-53033J-53033D01*
G01*
X182325484Y-101175736D01*
G75*
G02*
X182219418Y-101175736I-53033J53033D01*
G01*
G37*
G36*
G01*
X183050268Y-103173312D02*
X182113352Y-102236396D01*
G75*
G02*
X182113352Y-102130330I53033J53033D01*
G01*
X182219418Y-102024264D01*
G75*
G02*
X182325484Y-102024264I53033J-53033D01*
G01*
X183262400Y-102961180D01*
G75*
G02*
X183262400Y-103067246I-53033J-53033D01*
G01*
X183156334Y-103173312D01*
G75*
G02*
X183050268Y-103173312I-53033J53033D01*
G01*
G37*
G36*
G01*
X182696714Y-103526866D02*
X181759798Y-102589950D01*
G75*
G02*
X181759798Y-102483884I53033J53033D01*
G01*
X181865864Y-102377818D01*
G75*
G02*
X181971930Y-102377818I53033J-53033D01*
G01*
X182908846Y-103314734D01*
G75*
G02*
X182908846Y-103420800I-53033J-53033D01*
G01*
X182802780Y-103526866D01*
G75*
G02*
X182696714Y-103526866I-53033J53033D01*
G01*
G37*
G36*
G01*
X182343161Y-103880419D02*
X181406245Y-102943503D01*
G75*
G02*
X181406245Y-102837437I53033J53033D01*
G01*
X181512311Y-102731371D01*
G75*
G02*
X181618377Y-102731371I53033J-53033D01*
G01*
X182555293Y-103668287D01*
G75*
G02*
X182555293Y-103774353I-53033J-53033D01*
G01*
X182449227Y-103880419D01*
G75*
G02*
X182343161Y-103880419I-53033J53033D01*
G01*
G37*
G36*
G01*
X181989607Y-104233973D02*
X181052691Y-103297057D01*
G75*
G02*
X181052691Y-103190991I53033J53033D01*
G01*
X181158757Y-103084925D01*
G75*
G02*
X181264823Y-103084925I53033J-53033D01*
G01*
X182201739Y-104021841D01*
G75*
G02*
X182201739Y-104127907I-53033J-53033D01*
G01*
X182095673Y-104233973D01*
G75*
G02*
X181989607Y-104233973I-53033J53033D01*
G01*
G37*
G36*
G01*
X181636054Y-104587526D02*
X180699138Y-103650610D01*
G75*
G02*
X180699138Y-103544544I53033J53033D01*
G01*
X180805204Y-103438478D01*
G75*
G02*
X180911270Y-103438478I53033J-53033D01*
G01*
X181848186Y-104375394D01*
G75*
G02*
X181848186Y-104481460I-53033J-53033D01*
G01*
X181742120Y-104587526D01*
G75*
G02*
X181636054Y-104587526I-53033J53033D01*
G01*
G37*
G36*
G01*
X181282501Y-104941079D02*
X180345585Y-104004163D01*
G75*
G02*
X180345585Y-103898097I53033J53033D01*
G01*
X180451651Y-103792031D01*
G75*
G02*
X180557717Y-103792031I53033J-53033D01*
G01*
X181494633Y-104728947D01*
G75*
G02*
X181494633Y-104835013I-53033J-53033D01*
G01*
X181388567Y-104941079D01*
G75*
G02*
X181282501Y-104941079I-53033J53033D01*
G01*
G37*
G36*
G01*
X180928947Y-105294633D02*
X179992031Y-104357717D01*
G75*
G02*
X179992031Y-104251651I53033J53033D01*
G01*
X180098097Y-104145585D01*
G75*
G02*
X180204163Y-104145585I53033J-53033D01*
G01*
X181141079Y-105082501D01*
G75*
G02*
X181141079Y-105188567I-53033J-53033D01*
G01*
X181035013Y-105294633D01*
G75*
G02*
X180928947Y-105294633I-53033J53033D01*
G01*
G37*
G36*
G01*
X180575394Y-105648186D02*
X179638478Y-104711270D01*
G75*
G02*
X179638478Y-104605204I53033J53033D01*
G01*
X179744544Y-104499138D01*
G75*
G02*
X179850610Y-104499138I53033J-53033D01*
G01*
X180787526Y-105436054D01*
G75*
G02*
X180787526Y-105542120I-53033J-53033D01*
G01*
X180681460Y-105648186D01*
G75*
G02*
X180575394Y-105648186I-53033J53033D01*
G01*
G37*
G36*
G01*
X180221841Y-106001739D02*
X179284925Y-105064823D01*
G75*
G02*
X179284925Y-104958757I53033J53033D01*
G01*
X179390991Y-104852691D01*
G75*
G02*
X179497057Y-104852691I53033J-53033D01*
G01*
X180433973Y-105789607D01*
G75*
G02*
X180433973Y-105895673I-53033J-53033D01*
G01*
X180327907Y-106001739D01*
G75*
G02*
X180221841Y-106001739I-53033J53033D01*
G01*
G37*
G36*
G01*
X179868287Y-106355293D02*
X178931371Y-105418377D01*
G75*
G02*
X178931371Y-105312311I53033J53033D01*
G01*
X179037437Y-105206245D01*
G75*
G02*
X179143503Y-105206245I53033J-53033D01*
G01*
X180080419Y-106143161D01*
G75*
G02*
X180080419Y-106249227I-53033J-53033D01*
G01*
X179974353Y-106355293D01*
G75*
G02*
X179868287Y-106355293I-53033J53033D01*
G01*
G37*
G36*
G01*
X179514734Y-106708846D02*
X178577818Y-105771930D01*
G75*
G02*
X178577818Y-105665864I53033J53033D01*
G01*
X178683884Y-105559798D01*
G75*
G02*
X178789950Y-105559798I53033J-53033D01*
G01*
X179726866Y-106496714D01*
G75*
G02*
X179726866Y-106602780I-53033J-53033D01*
G01*
X179620800Y-106708846D01*
G75*
G02*
X179514734Y-106708846I-53033J53033D01*
G01*
G37*
G36*
G01*
X179161180Y-107062400D02*
X178224264Y-106125484D01*
G75*
G02*
X178224264Y-106019418I53033J53033D01*
G01*
X178330330Y-105913352D01*
G75*
G02*
X178436396Y-105913352I53033J-53033D01*
G01*
X179373312Y-106850268D01*
G75*
G02*
X179373312Y-106956334I-53033J-53033D01*
G01*
X179267246Y-107062400D01*
G75*
G02*
X179161180Y-107062400I-53033J53033D01*
G01*
G37*
G36*
G01*
X176332754Y-107062400D02*
X176226688Y-106956334D01*
G75*
G02*
X176226688Y-106850268I53033J53033D01*
G01*
X177163604Y-105913352D01*
G75*
G02*
X177269670Y-105913352I53033J-53033D01*
G01*
X177375736Y-106019418D01*
G75*
G02*
X177375736Y-106125484I-53033J-53033D01*
G01*
X176438820Y-107062400D01*
G75*
G02*
X176332754Y-107062400I-53033J53033D01*
G01*
G37*
G36*
G01*
X175979200Y-106708846D02*
X175873134Y-106602780D01*
G75*
G02*
X175873134Y-106496714I53033J53033D01*
G01*
X176810050Y-105559798D01*
G75*
G02*
X176916116Y-105559798I53033J-53033D01*
G01*
X177022182Y-105665864D01*
G75*
G02*
X177022182Y-105771930I-53033J-53033D01*
G01*
X176085266Y-106708846D01*
G75*
G02*
X175979200Y-106708846I-53033J53033D01*
G01*
G37*
G36*
G01*
X175625647Y-106355293D02*
X175519581Y-106249227D01*
G75*
G02*
X175519581Y-106143161I53033J53033D01*
G01*
X176456497Y-105206245D01*
G75*
G02*
X176562563Y-105206245I53033J-53033D01*
G01*
X176668629Y-105312311D01*
G75*
G02*
X176668629Y-105418377I-53033J-53033D01*
G01*
X175731713Y-106355293D01*
G75*
G02*
X175625647Y-106355293I-53033J53033D01*
G01*
G37*
G36*
G01*
X175272093Y-106001739D02*
X175166027Y-105895673D01*
G75*
G02*
X175166027Y-105789607I53033J53033D01*
G01*
X176102943Y-104852691D01*
G75*
G02*
X176209009Y-104852691I53033J-53033D01*
G01*
X176315075Y-104958757D01*
G75*
G02*
X176315075Y-105064823I-53033J-53033D01*
G01*
X175378159Y-106001739D01*
G75*
G02*
X175272093Y-106001739I-53033J53033D01*
G01*
G37*
G36*
G01*
X174918540Y-105648186D02*
X174812474Y-105542120D01*
G75*
G02*
X174812474Y-105436054I53033J53033D01*
G01*
X175749390Y-104499138D01*
G75*
G02*
X175855456Y-104499138I53033J-53033D01*
G01*
X175961522Y-104605204D01*
G75*
G02*
X175961522Y-104711270I-53033J-53033D01*
G01*
X175024606Y-105648186D01*
G75*
G02*
X174918540Y-105648186I-53033J53033D01*
G01*
G37*
G36*
G01*
X174564987Y-105294633D02*
X174458921Y-105188567D01*
G75*
G02*
X174458921Y-105082501I53033J53033D01*
G01*
X175395837Y-104145585D01*
G75*
G02*
X175501903Y-104145585I53033J-53033D01*
G01*
X175607969Y-104251651D01*
G75*
G02*
X175607969Y-104357717I-53033J-53033D01*
G01*
X174671053Y-105294633D01*
G75*
G02*
X174564987Y-105294633I-53033J53033D01*
G01*
G37*
G36*
G01*
X174211433Y-104941079D02*
X174105367Y-104835013D01*
G75*
G02*
X174105367Y-104728947I53033J53033D01*
G01*
X175042283Y-103792031D01*
G75*
G02*
X175148349Y-103792031I53033J-53033D01*
G01*
X175254415Y-103898097D01*
G75*
G02*
X175254415Y-104004163I-53033J-53033D01*
G01*
X174317499Y-104941079D01*
G75*
G02*
X174211433Y-104941079I-53033J53033D01*
G01*
G37*
G36*
G01*
X173857880Y-104587526D02*
X173751814Y-104481460D01*
G75*
G02*
X173751814Y-104375394I53033J53033D01*
G01*
X174688730Y-103438478D01*
G75*
G02*
X174794796Y-103438478I53033J-53033D01*
G01*
X174900862Y-103544544D01*
G75*
G02*
X174900862Y-103650610I-53033J-53033D01*
G01*
X173963946Y-104587526D01*
G75*
G02*
X173857880Y-104587526I-53033J53033D01*
G01*
G37*
G36*
G01*
X173504327Y-104233973D02*
X173398261Y-104127907D01*
G75*
G02*
X173398261Y-104021841I53033J53033D01*
G01*
X174335177Y-103084925D01*
G75*
G02*
X174441243Y-103084925I53033J-53033D01*
G01*
X174547309Y-103190991D01*
G75*
G02*
X174547309Y-103297057I-53033J-53033D01*
G01*
X173610393Y-104233973D01*
G75*
G02*
X173504327Y-104233973I-53033J53033D01*
G01*
G37*
G36*
G01*
X173150773Y-103880419D02*
X173044707Y-103774353D01*
G75*
G02*
X173044707Y-103668287I53033J53033D01*
G01*
X173981623Y-102731371D01*
G75*
G02*
X174087689Y-102731371I53033J-53033D01*
G01*
X174193755Y-102837437D01*
G75*
G02*
X174193755Y-102943503I-53033J-53033D01*
G01*
X173256839Y-103880419D01*
G75*
G02*
X173150773Y-103880419I-53033J53033D01*
G01*
G37*
G36*
G01*
X172797220Y-103526866D02*
X172691154Y-103420800D01*
G75*
G02*
X172691154Y-103314734I53033J53033D01*
G01*
X173628070Y-102377818D01*
G75*
G02*
X173734136Y-102377818I53033J-53033D01*
G01*
X173840202Y-102483884D01*
G75*
G02*
X173840202Y-102589950I-53033J-53033D01*
G01*
X172903286Y-103526866D01*
G75*
G02*
X172797220Y-103526866I-53033J53033D01*
G01*
G37*
G36*
G01*
X172443666Y-103173312D02*
X172337600Y-103067246D01*
G75*
G02*
X172337600Y-102961180I53033J53033D01*
G01*
X173274516Y-102024264D01*
G75*
G02*
X173380582Y-102024264I53033J-53033D01*
G01*
X173486648Y-102130330D01*
G75*
G02*
X173486648Y-102236396I-53033J-53033D01*
G01*
X172549732Y-103173312D01*
G75*
G02*
X172443666Y-103173312I-53033J53033D01*
G01*
G37*
%TD*%
D16*
%TO.C,J1*%
X202532500Y-102600000D03*
D17*
X199832500Y-101600000D03*
X199832500Y-100950000D03*
X199832500Y-100300000D03*
X199832500Y-102900000D03*
X199832500Y-102250000D03*
D16*
X202532500Y-100600000D03*
%TD*%
M02*
