%TF.GenerationSoftware,KiCad,Pcbnew,5.1.6+dfsg1-1*%
%TF.CreationDate,2020-06-20T08:37:57+08:00*%
%TF.ProjectId,stm32dev,73746d33-3264-4657-962e-6b696361645f,rev?*%
%TF.SameCoordinates,Original*%
%TF.FileFunction,Legend,Bot*%
%TF.FilePolarity,Positive*%
%FSLAX46Y46*%
G04 Gerber Fmt 4.6, Leading zero omitted, Abs format (unit mm)*
G04 Created by KiCad (PCBNEW 5.1.6+dfsg1-1) date 2020-06-20 08:37:57*
%MOMM*%
%LPD*%
G01*
G04 APERTURE LIST*
%ADD10C,0.150000*%
%ADD11C,0.120000*%
G04 APERTURE END LIST*
D10*
X166120119Y-99343809D02*
X166005833Y-99381904D01*
X165815357Y-99381904D01*
X165739166Y-99343809D01*
X165701071Y-99305714D01*
X165662976Y-99229523D01*
X165662976Y-99153333D01*
X165701071Y-99077142D01*
X165739166Y-99039047D01*
X165815357Y-99000952D01*
X165967738Y-98962857D01*
X166043928Y-98924761D01*
X166082023Y-98886666D01*
X166120119Y-98810476D01*
X166120119Y-98734285D01*
X166082023Y-98658095D01*
X166043928Y-98620000D01*
X165967738Y-98581904D01*
X165777261Y-98581904D01*
X165662976Y-98620000D01*
X165434404Y-98581904D02*
X164977261Y-98581904D01*
X165205833Y-99381904D02*
X165205833Y-98581904D01*
X164710595Y-99381904D02*
X164710595Y-98581904D01*
X164443928Y-99153333D01*
X164177261Y-98581904D01*
X164177261Y-99381904D01*
X163872500Y-98581904D02*
X163377261Y-98581904D01*
X163643928Y-98886666D01*
X163529642Y-98886666D01*
X163453452Y-98924761D01*
X163415357Y-98962857D01*
X163377261Y-99039047D01*
X163377261Y-99229523D01*
X163415357Y-99305714D01*
X163453452Y-99343809D01*
X163529642Y-99381904D01*
X163758214Y-99381904D01*
X163834404Y-99343809D01*
X163872500Y-99305714D01*
X163072500Y-98658095D02*
X163034404Y-98620000D01*
X162958214Y-98581904D01*
X162767738Y-98581904D01*
X162691547Y-98620000D01*
X162653452Y-98658095D01*
X162615357Y-98734285D01*
X162615357Y-98810476D01*
X162653452Y-98924761D01*
X163110595Y-99381904D01*
X162615357Y-99381904D01*
X162005833Y-98962857D02*
X162272500Y-98962857D01*
X162272500Y-99381904D02*
X162272500Y-98581904D01*
X161891547Y-98581904D01*
X161205833Y-98581904D02*
X161586785Y-98581904D01*
X161624880Y-98962857D01*
X161586785Y-98924761D01*
X161510595Y-98886666D01*
X161320119Y-98886666D01*
X161243928Y-98924761D01*
X161205833Y-98962857D01*
X161167738Y-99039047D01*
X161167738Y-99229523D01*
X161205833Y-99305714D01*
X161243928Y-99343809D01*
X161320119Y-99381904D01*
X161510595Y-99381904D01*
X161586785Y-99343809D01*
X161624880Y-99305714D01*
X160672500Y-98581904D02*
X160596309Y-98581904D01*
X160520119Y-98620000D01*
X160482023Y-98658095D01*
X160443928Y-98734285D01*
X160405833Y-98886666D01*
X160405833Y-99077142D01*
X160443928Y-99229523D01*
X160482023Y-99305714D01*
X160520119Y-99343809D01*
X160596309Y-99381904D01*
X160672500Y-99381904D01*
X160748690Y-99343809D01*
X160786785Y-99305714D01*
X160824880Y-99229523D01*
X160862976Y-99077142D01*
X160862976Y-98886666D01*
X160824880Y-98734285D01*
X160786785Y-98658095D01*
X160748690Y-98620000D01*
X160672500Y-98581904D01*
X159720119Y-98848571D02*
X159720119Y-99381904D01*
X159910595Y-98543809D02*
X160101071Y-99115238D01*
X159605833Y-99115238D01*
X158691547Y-99381904D02*
X158691547Y-98581904D01*
X158501071Y-98581904D01*
X158386785Y-98620000D01*
X158310595Y-98696190D01*
X158272500Y-98772380D01*
X158234404Y-98924761D01*
X158234404Y-99039047D01*
X158272500Y-99191428D01*
X158310595Y-99267619D01*
X158386785Y-99343809D01*
X158501071Y-99381904D01*
X158691547Y-99381904D01*
X157586785Y-99343809D02*
X157662976Y-99381904D01*
X157815357Y-99381904D01*
X157891547Y-99343809D01*
X157929642Y-99267619D01*
X157929642Y-98962857D01*
X157891547Y-98886666D01*
X157815357Y-98848571D01*
X157662976Y-98848571D01*
X157586785Y-98886666D01*
X157548690Y-98962857D01*
X157548690Y-99039047D01*
X157929642Y-99115238D01*
X157282023Y-98848571D02*
X157091547Y-99381904D01*
X156901071Y-98848571D01*
X155720119Y-98962857D02*
X155605833Y-99000952D01*
X155567738Y-99039047D01*
X155529642Y-99115238D01*
X155529642Y-99229523D01*
X155567738Y-99305714D01*
X155605833Y-99343809D01*
X155682023Y-99381904D01*
X155986785Y-99381904D01*
X155986785Y-98581904D01*
X155720119Y-98581904D01*
X155643928Y-98620000D01*
X155605833Y-98658095D01*
X155567738Y-98734285D01*
X155567738Y-98810476D01*
X155605833Y-98886666D01*
X155643928Y-98924761D01*
X155720119Y-98962857D01*
X155986785Y-98962857D01*
X155072500Y-99381904D02*
X155148690Y-99343809D01*
X155186785Y-99305714D01*
X155224880Y-99229523D01*
X155224880Y-99000952D01*
X155186785Y-98924761D01*
X155148690Y-98886666D01*
X155072500Y-98848571D01*
X154958214Y-98848571D01*
X154882023Y-98886666D01*
X154843928Y-98924761D01*
X154805833Y-99000952D01*
X154805833Y-99229523D01*
X154843928Y-99305714D01*
X154882023Y-99343809D01*
X154958214Y-99381904D01*
X155072500Y-99381904D01*
X154120119Y-99381904D02*
X154120119Y-98962857D01*
X154158214Y-98886666D01*
X154234404Y-98848571D01*
X154386785Y-98848571D01*
X154462976Y-98886666D01*
X154120119Y-99343809D02*
X154196309Y-99381904D01*
X154386785Y-99381904D01*
X154462976Y-99343809D01*
X154501071Y-99267619D01*
X154501071Y-99191428D01*
X154462976Y-99115238D01*
X154386785Y-99077142D01*
X154196309Y-99077142D01*
X154120119Y-99039047D01*
X153739166Y-99381904D02*
X153739166Y-98848571D01*
X153739166Y-99000952D02*
X153701071Y-98924761D01*
X153662976Y-98886666D01*
X153586785Y-98848571D01*
X153510595Y-98848571D01*
X152901071Y-99381904D02*
X152901071Y-98581904D01*
X152901071Y-99343809D02*
X152977261Y-99381904D01*
X153129642Y-99381904D01*
X153205833Y-99343809D01*
X153243928Y-99305714D01*
X153282023Y-99229523D01*
X153282023Y-99000952D01*
X153243928Y-98924761D01*
X153205833Y-98886666D01*
X153129642Y-98848571D01*
X152977261Y-98848571D01*
X152901071Y-98886666D01*
X165624880Y-100731904D02*
X165891547Y-100350952D01*
X166082023Y-100731904D02*
X166082023Y-99931904D01*
X165777261Y-99931904D01*
X165701071Y-99970000D01*
X165662976Y-100008095D01*
X165624880Y-100084285D01*
X165624880Y-100198571D01*
X165662976Y-100274761D01*
X165701071Y-100312857D01*
X165777261Y-100350952D01*
X166082023Y-100350952D01*
X164977261Y-100693809D02*
X165053452Y-100731904D01*
X165205833Y-100731904D01*
X165282023Y-100693809D01*
X165320119Y-100617619D01*
X165320119Y-100312857D01*
X165282023Y-100236666D01*
X165205833Y-100198571D01*
X165053452Y-100198571D01*
X164977261Y-100236666D01*
X164939166Y-100312857D01*
X164939166Y-100389047D01*
X165320119Y-100465238D01*
X164672500Y-100198571D02*
X164482023Y-100731904D01*
X164291547Y-100198571D01*
X163986785Y-100655714D02*
X163948690Y-100693809D01*
X163986785Y-100731904D01*
X164024880Y-100693809D01*
X163986785Y-100655714D01*
X163986785Y-100731904D01*
X162577261Y-100731904D02*
X163034404Y-100731904D01*
X162805833Y-100731904D02*
X162805833Y-99931904D01*
X162882023Y-100046190D01*
X162958214Y-100122380D01*
X163034404Y-100160476D01*
X137560000Y-89556071D02*
X137598095Y-89632261D01*
X137598095Y-89746547D01*
X137560000Y-89860833D01*
X137483809Y-89937023D01*
X137407619Y-89975119D01*
X137255238Y-90013214D01*
X137140952Y-90013214D01*
X136988571Y-89975119D01*
X136912380Y-89937023D01*
X136836190Y-89860833D01*
X136798095Y-89746547D01*
X136798095Y-89670357D01*
X136836190Y-89556071D01*
X136874285Y-89517976D01*
X137140952Y-89517976D01*
X137140952Y-89670357D01*
X136798095Y-89175119D02*
X137598095Y-89175119D01*
X136798095Y-88717976D01*
X137598095Y-88717976D01*
X136798095Y-88337023D02*
X137598095Y-88337023D01*
X137598095Y-88146547D01*
X137560000Y-88032261D01*
X137483809Y-87956071D01*
X137407619Y-87917976D01*
X137255238Y-87879880D01*
X137140952Y-87879880D01*
X136988571Y-87917976D01*
X136912380Y-87956071D01*
X136836190Y-88032261D01*
X136798095Y-88146547D01*
X136798095Y-88337023D01*
X139338095Y-93860833D02*
X140138095Y-93860833D01*
X140138095Y-93556071D01*
X140100000Y-93479880D01*
X140061904Y-93441785D01*
X139985714Y-93403690D01*
X139871428Y-93403690D01*
X139795238Y-93441785D01*
X139757142Y-93479880D01*
X139719047Y-93556071D01*
X139719047Y-93860833D01*
X139757142Y-92794166D02*
X139719047Y-92679880D01*
X139680952Y-92641785D01*
X139604761Y-92603690D01*
X139490476Y-92603690D01*
X139414285Y-92641785D01*
X139376190Y-92679880D01*
X139338095Y-92756071D01*
X139338095Y-93060833D01*
X140138095Y-93060833D01*
X140138095Y-92794166D01*
X140100000Y-92717976D01*
X140061904Y-92679880D01*
X139985714Y-92641785D01*
X139909523Y-92641785D01*
X139833333Y-92679880D01*
X139795238Y-92717976D01*
X139757142Y-92794166D01*
X139757142Y-93060833D01*
X139338095Y-92222738D02*
X139338095Y-92070357D01*
X139376190Y-91994166D01*
X139414285Y-91956071D01*
X139528571Y-91879880D01*
X139680952Y-91841785D01*
X139985714Y-91841785D01*
X140061904Y-91879880D01*
X140100000Y-91917976D01*
X140138095Y-91994166D01*
X140138095Y-92146547D01*
X140100000Y-92222738D01*
X140061904Y-92260833D01*
X139985714Y-92298928D01*
X139795238Y-92298928D01*
X139719047Y-92260833D01*
X139680952Y-92222738D01*
X139642857Y-92146547D01*
X139642857Y-91994166D01*
X139680952Y-91917976D01*
X139719047Y-91879880D01*
X139795238Y-91841785D01*
X140176190Y-90927500D02*
X139147619Y-91613214D01*
X139414285Y-90203690D02*
X139376190Y-90241785D01*
X139338095Y-90356071D01*
X139338095Y-90432261D01*
X139376190Y-90546547D01*
X139452380Y-90622738D01*
X139528571Y-90660833D01*
X139680952Y-90698928D01*
X139795238Y-90698928D01*
X139947619Y-90660833D01*
X140023809Y-90622738D01*
X140100000Y-90546547D01*
X140138095Y-90432261D01*
X140138095Y-90356071D01*
X140100000Y-90241785D01*
X140061904Y-90203690D01*
X139338095Y-89441785D02*
X139338095Y-89898928D01*
X139338095Y-89670357D02*
X140138095Y-89670357D01*
X140023809Y-89746547D01*
X139947619Y-89822738D01*
X139909523Y-89898928D01*
X139338095Y-88641785D02*
X139719047Y-88908452D01*
X139338095Y-89098928D02*
X140138095Y-89098928D01*
X140138095Y-88794166D01*
X140100000Y-88717976D01*
X140061904Y-88679880D01*
X139985714Y-88641785D01*
X139871428Y-88641785D01*
X139795238Y-88679880D01*
X139757142Y-88717976D01*
X139719047Y-88794166D01*
X139719047Y-89098928D01*
X140138095Y-88375119D02*
X139338095Y-87841785D01*
X140138095Y-87841785D02*
X139338095Y-88375119D01*
X141878095Y-93670357D02*
X142678095Y-93670357D01*
X142678095Y-93365595D01*
X142640000Y-93289404D01*
X142601904Y-93251309D01*
X142525714Y-93213214D01*
X142411428Y-93213214D01*
X142335238Y-93251309D01*
X142297142Y-93289404D01*
X142259047Y-93365595D01*
X142259047Y-93670357D01*
X142297142Y-92603690D02*
X142259047Y-92489404D01*
X142220952Y-92451309D01*
X142144761Y-92413214D01*
X142030476Y-92413214D01*
X141954285Y-92451309D01*
X141916190Y-92489404D01*
X141878095Y-92565595D01*
X141878095Y-92870357D01*
X142678095Y-92870357D01*
X142678095Y-92603690D01*
X142640000Y-92527500D01*
X142601904Y-92489404D01*
X142525714Y-92451309D01*
X142449523Y-92451309D01*
X142373333Y-92489404D01*
X142335238Y-92527500D01*
X142297142Y-92603690D01*
X142297142Y-92870357D01*
X142335238Y-91956071D02*
X142373333Y-92032261D01*
X142411428Y-92070357D01*
X142487619Y-92108452D01*
X142525714Y-92108452D01*
X142601904Y-92070357D01*
X142640000Y-92032261D01*
X142678095Y-91956071D01*
X142678095Y-91803690D01*
X142640000Y-91727500D01*
X142601904Y-91689404D01*
X142525714Y-91651309D01*
X142487619Y-91651309D01*
X142411428Y-91689404D01*
X142373333Y-91727500D01*
X142335238Y-91803690D01*
X142335238Y-91956071D01*
X142297142Y-92032261D01*
X142259047Y-92070357D01*
X142182857Y-92108452D01*
X142030476Y-92108452D01*
X141954285Y-92070357D01*
X141916190Y-92032261D01*
X141878095Y-91956071D01*
X141878095Y-91803690D01*
X141916190Y-91727500D01*
X141954285Y-91689404D01*
X142030476Y-91651309D01*
X142182857Y-91651309D01*
X142259047Y-91689404D01*
X142297142Y-91727500D01*
X142335238Y-91803690D01*
X142716190Y-90737023D02*
X141687619Y-91422738D01*
X141954285Y-90013214D02*
X141916190Y-90051309D01*
X141878095Y-90165595D01*
X141878095Y-90241785D01*
X141916190Y-90356071D01*
X141992380Y-90432261D01*
X142068571Y-90470357D01*
X142220952Y-90508452D01*
X142335238Y-90508452D01*
X142487619Y-90470357D01*
X142563809Y-90432261D01*
X142640000Y-90356071D01*
X142678095Y-90241785D01*
X142678095Y-90165595D01*
X142640000Y-90051309D01*
X142601904Y-90013214D01*
X141878095Y-89251309D02*
X141878095Y-89708452D01*
X141878095Y-89479880D02*
X142678095Y-89479880D01*
X142563809Y-89556071D01*
X142487619Y-89632261D01*
X142449523Y-89708452D01*
X142678095Y-89022738D02*
X142678095Y-88565595D01*
X141878095Y-88794166D02*
X142678095Y-88794166D01*
X142678095Y-88375119D02*
X141878095Y-87841785D01*
X142678095Y-87841785D02*
X141878095Y-88375119D01*
X144418095Y-92984642D02*
X145218095Y-92984642D01*
X145218095Y-92679880D01*
X145180000Y-92603690D01*
X145141904Y-92565595D01*
X145065714Y-92527500D01*
X144951428Y-92527500D01*
X144875238Y-92565595D01*
X144837142Y-92603690D01*
X144799047Y-92679880D01*
X144799047Y-92984642D01*
X144837142Y-91917976D02*
X144799047Y-91803690D01*
X144760952Y-91765595D01*
X144684761Y-91727500D01*
X144570476Y-91727500D01*
X144494285Y-91765595D01*
X144456190Y-91803690D01*
X144418095Y-91879880D01*
X144418095Y-92184642D01*
X145218095Y-92184642D01*
X145218095Y-91917976D01*
X145180000Y-91841785D01*
X145141904Y-91803690D01*
X145065714Y-91765595D01*
X144989523Y-91765595D01*
X144913333Y-91803690D01*
X144875238Y-91841785D01*
X144837142Y-91917976D01*
X144837142Y-92184642D01*
X145218095Y-91460833D02*
X145218095Y-90927500D01*
X144418095Y-91270357D01*
X145256190Y-90051309D02*
X144227619Y-90737023D01*
X144456190Y-89822738D02*
X144418095Y-89708452D01*
X144418095Y-89517976D01*
X144456190Y-89441785D01*
X144494285Y-89403690D01*
X144570476Y-89365595D01*
X144646666Y-89365595D01*
X144722857Y-89403690D01*
X144760952Y-89441785D01*
X144799047Y-89517976D01*
X144837142Y-89670357D01*
X144875238Y-89746547D01*
X144913333Y-89784642D01*
X144989523Y-89822738D01*
X145065714Y-89822738D01*
X145141904Y-89784642D01*
X145180000Y-89746547D01*
X145218095Y-89670357D01*
X145218095Y-89479880D01*
X145180000Y-89365595D01*
X144418095Y-89022738D02*
X145218095Y-89022738D01*
X145218095Y-88832261D01*
X145180000Y-88717976D01*
X145103809Y-88641785D01*
X145027619Y-88603690D01*
X144875238Y-88565595D01*
X144760952Y-88565595D01*
X144608571Y-88603690D01*
X144532380Y-88641785D01*
X144456190Y-88717976D01*
X144418095Y-88832261D01*
X144418095Y-89022738D01*
X144646666Y-88260833D02*
X144646666Y-87879880D01*
X144418095Y-88337023D02*
X145218095Y-88070357D01*
X144418095Y-87803690D01*
X146958095Y-92946547D02*
X147758095Y-92946547D01*
X147758095Y-92641785D01*
X147720000Y-92565595D01*
X147681904Y-92527500D01*
X147605714Y-92489404D01*
X147491428Y-92489404D01*
X147415238Y-92527500D01*
X147377142Y-92565595D01*
X147339047Y-92641785D01*
X147339047Y-92946547D01*
X147377142Y-91879880D02*
X147339047Y-91765595D01*
X147300952Y-91727500D01*
X147224761Y-91689404D01*
X147110476Y-91689404D01*
X147034285Y-91727500D01*
X146996190Y-91765595D01*
X146958095Y-91841785D01*
X146958095Y-92146547D01*
X147758095Y-92146547D01*
X147758095Y-91879880D01*
X147720000Y-91803690D01*
X147681904Y-91765595D01*
X147605714Y-91727500D01*
X147529523Y-91727500D01*
X147453333Y-91765595D01*
X147415238Y-91803690D01*
X147377142Y-91879880D01*
X147377142Y-92146547D01*
X147758095Y-91003690D02*
X147758095Y-91156071D01*
X147720000Y-91232261D01*
X147681904Y-91270357D01*
X147567619Y-91346547D01*
X147415238Y-91384642D01*
X147110476Y-91384642D01*
X147034285Y-91346547D01*
X146996190Y-91308452D01*
X146958095Y-91232261D01*
X146958095Y-91079880D01*
X146996190Y-91003690D01*
X147034285Y-90965595D01*
X147110476Y-90927500D01*
X147300952Y-90927500D01*
X147377142Y-90965595D01*
X147415238Y-91003690D01*
X147453333Y-91079880D01*
X147453333Y-91232261D01*
X147415238Y-91308452D01*
X147377142Y-91346547D01*
X147300952Y-91384642D01*
X147796190Y-90013214D02*
X146767619Y-90698928D01*
X146996190Y-89784642D02*
X146958095Y-89670357D01*
X146958095Y-89479880D01*
X146996190Y-89403690D01*
X147034285Y-89365595D01*
X147110476Y-89327500D01*
X147186666Y-89327500D01*
X147262857Y-89365595D01*
X147300952Y-89403690D01*
X147339047Y-89479880D01*
X147377142Y-89632261D01*
X147415238Y-89708452D01*
X147453333Y-89746547D01*
X147529523Y-89784642D01*
X147605714Y-89784642D01*
X147681904Y-89746547D01*
X147720000Y-89708452D01*
X147758095Y-89632261D01*
X147758095Y-89441785D01*
X147720000Y-89327500D01*
X147034285Y-88527500D02*
X146996190Y-88565595D01*
X146958095Y-88679880D01*
X146958095Y-88756071D01*
X146996190Y-88870357D01*
X147072380Y-88946547D01*
X147148571Y-88984642D01*
X147300952Y-89022738D01*
X147415238Y-89022738D01*
X147567619Y-88984642D01*
X147643809Y-88946547D01*
X147720000Y-88870357D01*
X147758095Y-88756071D01*
X147758095Y-88679880D01*
X147720000Y-88565595D01*
X147681904Y-88527500D01*
X146958095Y-87803690D02*
X146958095Y-88184642D01*
X147758095Y-88184642D01*
X149498095Y-93517976D02*
X150298095Y-93517976D01*
X150298095Y-93213214D01*
X150260000Y-93137023D01*
X150221904Y-93098928D01*
X150145714Y-93060833D01*
X150031428Y-93060833D01*
X149955238Y-93098928D01*
X149917142Y-93137023D01*
X149879047Y-93213214D01*
X149879047Y-93517976D01*
X149917142Y-92451309D02*
X149879047Y-92337023D01*
X149840952Y-92298928D01*
X149764761Y-92260833D01*
X149650476Y-92260833D01*
X149574285Y-92298928D01*
X149536190Y-92337023D01*
X149498095Y-92413214D01*
X149498095Y-92717976D01*
X150298095Y-92717976D01*
X150298095Y-92451309D01*
X150260000Y-92375119D01*
X150221904Y-92337023D01*
X150145714Y-92298928D01*
X150069523Y-92298928D01*
X149993333Y-92337023D01*
X149955238Y-92375119D01*
X149917142Y-92451309D01*
X149917142Y-92717976D01*
X150031428Y-91575119D02*
X149498095Y-91575119D01*
X150336190Y-91765595D02*
X149764761Y-91956071D01*
X149764761Y-91460833D01*
X150336190Y-90584642D02*
X149307619Y-91270357D01*
X150298095Y-90089404D02*
X149726666Y-90089404D01*
X149612380Y-90127500D01*
X149536190Y-90203690D01*
X149498095Y-90317976D01*
X149498095Y-90394166D01*
X149498095Y-89251309D02*
X149879047Y-89517976D01*
X149498095Y-89708452D02*
X150298095Y-89708452D01*
X150298095Y-89403690D01*
X150260000Y-89327500D01*
X150221904Y-89289404D01*
X150145714Y-89251309D01*
X150031428Y-89251309D01*
X149955238Y-89289404D01*
X149917142Y-89327500D01*
X149879047Y-89403690D01*
X149879047Y-89708452D01*
X149536190Y-88946547D02*
X149498095Y-88832261D01*
X149498095Y-88641785D01*
X149536190Y-88565595D01*
X149574285Y-88527500D01*
X149650476Y-88489404D01*
X149726666Y-88489404D01*
X149802857Y-88527500D01*
X149840952Y-88565595D01*
X149879047Y-88641785D01*
X149917142Y-88794166D01*
X149955238Y-88870357D01*
X149993333Y-88908452D01*
X150069523Y-88946547D01*
X150145714Y-88946547D01*
X150221904Y-88908452D01*
X150260000Y-88870357D01*
X150298095Y-88794166D01*
X150298095Y-88603690D01*
X150260000Y-88489404D01*
X150298095Y-88260833D02*
X150298095Y-87803690D01*
X149498095Y-88032261D02*
X150298095Y-88032261D01*
X152038095Y-92984642D02*
X152838095Y-92984642D01*
X152838095Y-92679880D01*
X152800000Y-92603690D01*
X152761904Y-92565595D01*
X152685714Y-92527500D01*
X152571428Y-92527500D01*
X152495238Y-92565595D01*
X152457142Y-92603690D01*
X152419047Y-92679880D01*
X152419047Y-92984642D01*
X152457142Y-91917976D02*
X152419047Y-91803690D01*
X152380952Y-91765595D01*
X152304761Y-91727500D01*
X152190476Y-91727500D01*
X152114285Y-91765595D01*
X152076190Y-91803690D01*
X152038095Y-91879880D01*
X152038095Y-92184642D01*
X152838095Y-92184642D01*
X152838095Y-91917976D01*
X152800000Y-91841785D01*
X152761904Y-91803690D01*
X152685714Y-91765595D01*
X152609523Y-91765595D01*
X152533333Y-91803690D01*
X152495238Y-91841785D01*
X152457142Y-91917976D01*
X152457142Y-92184642D01*
X152838095Y-91460833D02*
X152838095Y-90965595D01*
X152533333Y-91232261D01*
X152533333Y-91117976D01*
X152495238Y-91041785D01*
X152457142Y-91003690D01*
X152380952Y-90965595D01*
X152190476Y-90965595D01*
X152114285Y-91003690D01*
X152076190Y-91041785D01*
X152038095Y-91117976D01*
X152038095Y-91346547D01*
X152076190Y-91422738D01*
X152114285Y-91460833D01*
X152876190Y-90051309D02*
X151847619Y-90737023D01*
X152838095Y-89556071D02*
X152266666Y-89556071D01*
X152152380Y-89594166D01*
X152076190Y-89670357D01*
X152038095Y-89784642D01*
X152038095Y-89860833D01*
X152038095Y-89175119D02*
X152838095Y-89175119D01*
X152838095Y-88984642D01*
X152800000Y-88870357D01*
X152723809Y-88794166D01*
X152647619Y-88756071D01*
X152495238Y-88717976D01*
X152380952Y-88717976D01*
X152228571Y-88756071D01*
X152152380Y-88794166D01*
X152076190Y-88870357D01*
X152038095Y-88984642D01*
X152038095Y-89175119D01*
X152838095Y-88222738D02*
X152838095Y-88070357D01*
X152800000Y-87994166D01*
X152723809Y-87917976D01*
X152571428Y-87879880D01*
X152304761Y-87879880D01*
X152152380Y-87917976D01*
X152076190Y-87994166D01*
X152038095Y-88070357D01*
X152038095Y-88222738D01*
X152076190Y-88298928D01*
X152152380Y-88375119D01*
X152304761Y-88413214D01*
X152571428Y-88413214D01*
X152723809Y-88375119D01*
X152800000Y-88298928D01*
X152838095Y-88222738D01*
X154578095Y-93175119D02*
X155378095Y-93175119D01*
X155378095Y-92870357D01*
X155340000Y-92794166D01*
X155301904Y-92756071D01*
X155225714Y-92717976D01*
X155111428Y-92717976D01*
X155035238Y-92756071D01*
X154997142Y-92794166D01*
X154959047Y-92870357D01*
X154959047Y-93175119D01*
X154806666Y-92413214D02*
X154806666Y-92032261D01*
X154578095Y-92489404D02*
X155378095Y-92222738D01*
X154578095Y-91956071D01*
X154578095Y-91270357D02*
X154578095Y-91727500D01*
X154578095Y-91498928D02*
X155378095Y-91498928D01*
X155263809Y-91575119D01*
X155187619Y-91651309D01*
X155149523Y-91727500D01*
X155378095Y-90546547D02*
X155378095Y-90927500D01*
X154997142Y-90965595D01*
X155035238Y-90927500D01*
X155073333Y-90851309D01*
X155073333Y-90660833D01*
X155035238Y-90584642D01*
X154997142Y-90546547D01*
X154920952Y-90508452D01*
X154730476Y-90508452D01*
X154654285Y-90546547D01*
X154616190Y-90584642D01*
X154578095Y-90660833D01*
X154578095Y-90851309D01*
X154616190Y-90927500D01*
X154654285Y-90965595D01*
X155416190Y-89594166D02*
X154387619Y-90279880D01*
X155378095Y-89098928D02*
X154806666Y-89098928D01*
X154692380Y-89137023D01*
X154616190Y-89213214D01*
X154578095Y-89327500D01*
X154578095Y-89403690D01*
X154578095Y-88717976D02*
X155378095Y-88717976D01*
X155378095Y-88527500D01*
X155340000Y-88413214D01*
X155263809Y-88337023D01*
X155187619Y-88298928D01*
X155035238Y-88260833D01*
X154920952Y-88260833D01*
X154768571Y-88298928D01*
X154692380Y-88337023D01*
X154616190Y-88413214D01*
X154578095Y-88527500D01*
X154578095Y-88717976D01*
X154578095Y-87917976D02*
X155378095Y-87917976D01*
X158794285Y-87951904D02*
X158794285Y-87151904D01*
X158489523Y-87151904D01*
X158413333Y-87190000D01*
X158375238Y-87228095D01*
X158337142Y-87304285D01*
X158337142Y-87418571D01*
X158375238Y-87494761D01*
X158413333Y-87532857D01*
X158489523Y-87570952D01*
X158794285Y-87570952D01*
X158032380Y-87723333D02*
X157651428Y-87723333D01*
X158108571Y-87951904D02*
X157841904Y-87151904D01*
X157575238Y-87951904D01*
X156889523Y-87951904D02*
X157346666Y-87951904D01*
X157118095Y-87951904D02*
X157118095Y-87151904D01*
X157194285Y-87266190D01*
X157270476Y-87342380D01*
X157346666Y-87380476D01*
X156203809Y-87418571D02*
X156203809Y-87951904D01*
X156394285Y-87113809D02*
X156584761Y-87685238D01*
X156089523Y-87685238D01*
X158489523Y-88501904D02*
X158489523Y-89073333D01*
X158527619Y-89187619D01*
X158603809Y-89263809D01*
X158718095Y-89301904D01*
X158794285Y-89301904D01*
X157651428Y-89225714D02*
X157689523Y-89263809D01*
X157803809Y-89301904D01*
X157880000Y-89301904D01*
X157994285Y-89263809D01*
X158070476Y-89187619D01*
X158108571Y-89111428D01*
X158146666Y-88959047D01*
X158146666Y-88844761D01*
X158108571Y-88692380D01*
X158070476Y-88616190D01*
X157994285Y-88540000D01*
X157880000Y-88501904D01*
X157803809Y-88501904D01*
X157689523Y-88540000D01*
X157651428Y-88578095D01*
X156927619Y-89301904D02*
X157308571Y-89301904D01*
X157308571Y-88501904D01*
X156660952Y-89301904D02*
X156660952Y-88501904D01*
X156203809Y-89301904D02*
X156546666Y-88844761D01*
X156203809Y-88501904D02*
X156660952Y-88959047D01*
X161334285Y-87951904D02*
X161334285Y-87151904D01*
X161029523Y-87151904D01*
X160953333Y-87190000D01*
X160915238Y-87228095D01*
X160877142Y-87304285D01*
X160877142Y-87418571D01*
X160915238Y-87494761D01*
X160953333Y-87532857D01*
X161029523Y-87570952D01*
X161334285Y-87570952D01*
X160572380Y-87723333D02*
X160191428Y-87723333D01*
X160648571Y-87951904D02*
X160381904Y-87151904D01*
X160115238Y-87951904D01*
X159429523Y-87951904D02*
X159886666Y-87951904D01*
X159658095Y-87951904D02*
X159658095Y-87151904D01*
X159734285Y-87266190D01*
X159810476Y-87342380D01*
X159886666Y-87380476D01*
X159162857Y-87151904D02*
X158667619Y-87151904D01*
X158934285Y-87456666D01*
X158820000Y-87456666D01*
X158743809Y-87494761D01*
X158705714Y-87532857D01*
X158667619Y-87609047D01*
X158667619Y-87799523D01*
X158705714Y-87875714D01*
X158743809Y-87913809D01*
X158820000Y-87951904D01*
X159048571Y-87951904D01*
X159124761Y-87913809D01*
X159162857Y-87875714D01*
X160743809Y-88501904D02*
X160743809Y-89073333D01*
X160781904Y-89187619D01*
X160858095Y-89263809D01*
X160972380Y-89301904D01*
X161048571Y-89301904D01*
X160362857Y-89301904D02*
X160362857Y-88501904D01*
X160096190Y-89073333D01*
X159829523Y-88501904D01*
X159829523Y-89301904D01*
X159486666Y-89263809D02*
X159372380Y-89301904D01*
X159181904Y-89301904D01*
X159105714Y-89263809D01*
X159067619Y-89225714D01*
X159029523Y-89149523D01*
X159029523Y-89073333D01*
X159067619Y-88997142D01*
X159105714Y-88959047D01*
X159181904Y-88920952D01*
X159334285Y-88882857D01*
X159410476Y-88844761D01*
X159448571Y-88806666D01*
X159486666Y-88730476D01*
X159486666Y-88654285D01*
X159448571Y-88578095D01*
X159410476Y-88540000D01*
X159334285Y-88501904D01*
X159143809Y-88501904D01*
X159029523Y-88540000D01*
X162198095Y-89898928D02*
X162998095Y-89898928D01*
X162998095Y-89594166D01*
X162960000Y-89517976D01*
X162921904Y-89479880D01*
X162845714Y-89441785D01*
X162731428Y-89441785D01*
X162655238Y-89479880D01*
X162617142Y-89517976D01*
X162579047Y-89594166D01*
X162579047Y-89898928D01*
X162274285Y-88641785D02*
X162236190Y-88679880D01*
X162198095Y-88794166D01*
X162198095Y-88870357D01*
X162236190Y-88984642D01*
X162312380Y-89060833D01*
X162388571Y-89098928D01*
X162540952Y-89137023D01*
X162655238Y-89137023D01*
X162807619Y-89098928D01*
X162883809Y-89060833D01*
X162960000Y-88984642D01*
X162998095Y-88870357D01*
X162998095Y-88794166D01*
X162960000Y-88679880D01*
X162921904Y-88641785D01*
X162998095Y-88375119D02*
X162998095Y-87841785D01*
X162198095Y-88184642D01*
X164738095Y-89898928D02*
X165538095Y-89898928D01*
X165538095Y-89594166D01*
X165500000Y-89517976D01*
X165461904Y-89479880D01*
X165385714Y-89441785D01*
X165271428Y-89441785D01*
X165195238Y-89479880D01*
X165157142Y-89517976D01*
X165119047Y-89594166D01*
X165119047Y-89898928D01*
X164814285Y-88641785D02*
X164776190Y-88679880D01*
X164738095Y-88794166D01*
X164738095Y-88870357D01*
X164776190Y-88984642D01*
X164852380Y-89060833D01*
X164928571Y-89098928D01*
X165080952Y-89137023D01*
X165195238Y-89137023D01*
X165347619Y-89098928D01*
X165423809Y-89060833D01*
X165500000Y-88984642D01*
X165538095Y-88870357D01*
X165538095Y-88794166D01*
X165500000Y-88679880D01*
X165461904Y-88641785D01*
X165538095Y-87956071D02*
X165538095Y-88108452D01*
X165500000Y-88184642D01*
X165461904Y-88222738D01*
X165347619Y-88298928D01*
X165195238Y-88337023D01*
X164890476Y-88337023D01*
X164814285Y-88298928D01*
X164776190Y-88260833D01*
X164738095Y-88184642D01*
X164738095Y-88032261D01*
X164776190Y-87956071D01*
X164814285Y-87917976D01*
X164890476Y-87879880D01*
X165080952Y-87879880D01*
X165157142Y-87917976D01*
X165195238Y-87956071D01*
X165233333Y-88032261D01*
X165233333Y-88184642D01*
X165195238Y-88260833D01*
X165157142Y-88298928D01*
X165080952Y-88337023D01*
X167278095Y-94432261D02*
X168078095Y-94432261D01*
X168078095Y-94127500D01*
X168040000Y-94051309D01*
X168001904Y-94013214D01*
X167925714Y-93975119D01*
X167811428Y-93975119D01*
X167735238Y-94013214D01*
X167697142Y-94051309D01*
X167659047Y-94127500D01*
X167659047Y-94432261D01*
X167697142Y-93365595D02*
X167659047Y-93251309D01*
X167620952Y-93213214D01*
X167544761Y-93175119D01*
X167430476Y-93175119D01*
X167354285Y-93213214D01*
X167316190Y-93251309D01*
X167278095Y-93327500D01*
X167278095Y-93632261D01*
X168078095Y-93632261D01*
X168078095Y-93365595D01*
X168040000Y-93289404D01*
X168001904Y-93251309D01*
X167925714Y-93213214D01*
X167849523Y-93213214D01*
X167773333Y-93251309D01*
X167735238Y-93289404D01*
X167697142Y-93365595D01*
X167697142Y-93632261D01*
X167278095Y-92413214D02*
X167278095Y-92870357D01*
X167278095Y-92641785D02*
X168078095Y-92641785D01*
X167963809Y-92717976D01*
X167887619Y-92794166D01*
X167849523Y-92870357D01*
X168078095Y-92146547D02*
X168078095Y-91651309D01*
X167773333Y-91917976D01*
X167773333Y-91803690D01*
X167735238Y-91727500D01*
X167697142Y-91689404D01*
X167620952Y-91651309D01*
X167430476Y-91651309D01*
X167354285Y-91689404D01*
X167316190Y-91727500D01*
X167278095Y-91803690D01*
X167278095Y-92032261D01*
X167316190Y-92108452D01*
X167354285Y-92146547D01*
X168116190Y-90737023D02*
X167087619Y-91422738D01*
X167354285Y-90013214D02*
X167316190Y-90051309D01*
X167278095Y-90165595D01*
X167278095Y-90241785D01*
X167316190Y-90356071D01*
X167392380Y-90432261D01*
X167468571Y-90470357D01*
X167620952Y-90508452D01*
X167735238Y-90508452D01*
X167887619Y-90470357D01*
X167963809Y-90432261D01*
X168040000Y-90356071D01*
X168078095Y-90241785D01*
X168078095Y-90165595D01*
X168040000Y-90051309D01*
X168001904Y-90013214D01*
X168001904Y-89708452D02*
X168040000Y-89670357D01*
X168078095Y-89594166D01*
X168078095Y-89403690D01*
X168040000Y-89327500D01*
X168001904Y-89289404D01*
X167925714Y-89251309D01*
X167849523Y-89251309D01*
X167735238Y-89289404D01*
X167278095Y-89746547D01*
X167278095Y-89251309D01*
X168078095Y-89022738D02*
X168078095Y-88565595D01*
X167278095Y-88794166D02*
X168078095Y-88794166D01*
X168078095Y-88375119D02*
X167278095Y-87841785D01*
X168078095Y-87841785D02*
X167278095Y-88375119D01*
X169818095Y-94622738D02*
X170618095Y-94622738D01*
X170618095Y-94317976D01*
X170580000Y-94241785D01*
X170541904Y-94203690D01*
X170465714Y-94165595D01*
X170351428Y-94165595D01*
X170275238Y-94203690D01*
X170237142Y-94241785D01*
X170199047Y-94317976D01*
X170199047Y-94622738D01*
X170237142Y-93556071D02*
X170199047Y-93441785D01*
X170160952Y-93403690D01*
X170084761Y-93365595D01*
X169970476Y-93365595D01*
X169894285Y-93403690D01*
X169856190Y-93441785D01*
X169818095Y-93517976D01*
X169818095Y-93822738D01*
X170618095Y-93822738D01*
X170618095Y-93556071D01*
X170580000Y-93479880D01*
X170541904Y-93441785D01*
X170465714Y-93403690D01*
X170389523Y-93403690D01*
X170313333Y-93441785D01*
X170275238Y-93479880D01*
X170237142Y-93556071D01*
X170237142Y-93822738D01*
X169818095Y-92603690D02*
X169818095Y-93060833D01*
X169818095Y-92832261D02*
X170618095Y-92832261D01*
X170503809Y-92908452D01*
X170427619Y-92984642D01*
X170389523Y-93060833D01*
X170541904Y-92298928D02*
X170580000Y-92260833D01*
X170618095Y-92184642D01*
X170618095Y-91994166D01*
X170580000Y-91917976D01*
X170541904Y-91879880D01*
X170465714Y-91841785D01*
X170389523Y-91841785D01*
X170275238Y-91879880D01*
X169818095Y-92337023D01*
X169818095Y-91841785D01*
X170656190Y-90927500D02*
X169627619Y-91613214D01*
X169894285Y-90203690D02*
X169856190Y-90241785D01*
X169818095Y-90356071D01*
X169818095Y-90432261D01*
X169856190Y-90546547D01*
X169932380Y-90622738D01*
X170008571Y-90660833D01*
X170160952Y-90698928D01*
X170275238Y-90698928D01*
X170427619Y-90660833D01*
X170503809Y-90622738D01*
X170580000Y-90546547D01*
X170618095Y-90432261D01*
X170618095Y-90356071D01*
X170580000Y-90241785D01*
X170541904Y-90203690D01*
X170541904Y-89898928D02*
X170580000Y-89860833D01*
X170618095Y-89784642D01*
X170618095Y-89594166D01*
X170580000Y-89517976D01*
X170541904Y-89479880D01*
X170465714Y-89441785D01*
X170389523Y-89441785D01*
X170275238Y-89479880D01*
X169818095Y-89937023D01*
X169818095Y-89441785D01*
X169818095Y-88641785D02*
X170199047Y-88908452D01*
X169818095Y-89098928D02*
X170618095Y-89098928D01*
X170618095Y-88794166D01*
X170580000Y-88717976D01*
X170541904Y-88679880D01*
X170465714Y-88641785D01*
X170351428Y-88641785D01*
X170275238Y-88679880D01*
X170237142Y-88717976D01*
X170199047Y-88794166D01*
X170199047Y-89098928D01*
X170618095Y-88375119D02*
X169818095Y-87841785D01*
X170618095Y-87841785D02*
X169818095Y-88375119D01*
X173120000Y-89556071D02*
X173158095Y-89632261D01*
X173158095Y-89746547D01*
X173120000Y-89860833D01*
X173043809Y-89937023D01*
X172967619Y-89975119D01*
X172815238Y-90013214D01*
X172700952Y-90013214D01*
X172548571Y-89975119D01*
X172472380Y-89937023D01*
X172396190Y-89860833D01*
X172358095Y-89746547D01*
X172358095Y-89670357D01*
X172396190Y-89556071D01*
X172434285Y-89517976D01*
X172700952Y-89517976D01*
X172700952Y-89670357D01*
X172358095Y-89175119D02*
X173158095Y-89175119D01*
X172358095Y-88717976D01*
X173158095Y-88717976D01*
X172358095Y-88337023D02*
X173158095Y-88337023D01*
X173158095Y-88146547D01*
X173120000Y-88032261D01*
X173043809Y-87956071D01*
X172967619Y-87917976D01*
X172815238Y-87879880D01*
X172700952Y-87879880D01*
X172548571Y-87917976D01*
X172472380Y-87956071D01*
X172396190Y-88032261D01*
X172358095Y-88146547D01*
X172358095Y-88337023D01*
X152038095Y-107662023D02*
X152838095Y-107662023D01*
X152838095Y-107357261D01*
X152800000Y-107281071D01*
X152761904Y-107242976D01*
X152685714Y-107204880D01*
X152571428Y-107204880D01*
X152495238Y-107242976D01*
X152457142Y-107281071D01*
X152419047Y-107357261D01*
X152419047Y-107662023D01*
X152266666Y-106900119D02*
X152266666Y-106519166D01*
X152038095Y-106976309D02*
X152838095Y-106709642D01*
X152038095Y-106442976D01*
X152761904Y-106214404D02*
X152800000Y-106176309D01*
X152838095Y-106100119D01*
X152838095Y-105909642D01*
X152800000Y-105833452D01*
X152761904Y-105795357D01*
X152685714Y-105757261D01*
X152609523Y-105757261D01*
X152495238Y-105795357D01*
X152038095Y-106252500D01*
X152038095Y-105757261D01*
X152876190Y-104842976D02*
X151847619Y-105528690D01*
X152838095Y-104576309D02*
X152190476Y-104576309D01*
X152114285Y-104538214D01*
X152076190Y-104500119D01*
X152038095Y-104423928D01*
X152038095Y-104271547D01*
X152076190Y-104195357D01*
X152114285Y-104157261D01*
X152190476Y-104119166D01*
X152838095Y-104119166D01*
X152761904Y-103776309D02*
X152800000Y-103738214D01*
X152838095Y-103662023D01*
X152838095Y-103471547D01*
X152800000Y-103395357D01*
X152761904Y-103357261D01*
X152685714Y-103319166D01*
X152609523Y-103319166D01*
X152495238Y-103357261D01*
X152038095Y-103814404D01*
X152038095Y-103319166D01*
X152838095Y-103090595D02*
X152838095Y-102633452D01*
X152038095Y-102862023D02*
X152838095Y-102862023D01*
X152838095Y-102442976D02*
X152038095Y-101909642D01*
X152838095Y-101909642D02*
X152038095Y-102442976D01*
X149498095Y-107662023D02*
X150298095Y-107662023D01*
X150298095Y-107357261D01*
X150260000Y-107281071D01*
X150221904Y-107242976D01*
X150145714Y-107204880D01*
X150031428Y-107204880D01*
X149955238Y-107242976D01*
X149917142Y-107281071D01*
X149879047Y-107357261D01*
X149879047Y-107662023D01*
X149726666Y-106900119D02*
X149726666Y-106519166D01*
X149498095Y-106976309D02*
X150298095Y-106709642D01*
X149498095Y-106442976D01*
X149498095Y-105757261D02*
X149498095Y-106214404D01*
X149498095Y-105985833D02*
X150298095Y-105985833D01*
X150183809Y-106062023D01*
X150107619Y-106138214D01*
X150069523Y-106214404D01*
X146958095Y-107662023D02*
X147758095Y-107662023D01*
X147758095Y-107357261D01*
X147720000Y-107281071D01*
X147681904Y-107242976D01*
X147605714Y-107204880D01*
X147491428Y-107204880D01*
X147415238Y-107242976D01*
X147377142Y-107281071D01*
X147339047Y-107357261D01*
X147339047Y-107662023D01*
X147186666Y-106900119D02*
X147186666Y-106519166D01*
X146958095Y-106976309D02*
X147758095Y-106709642D01*
X146958095Y-106442976D01*
X147758095Y-106023928D02*
X147758095Y-105947738D01*
X147720000Y-105871547D01*
X147681904Y-105833452D01*
X147605714Y-105795357D01*
X147453333Y-105757261D01*
X147262857Y-105757261D01*
X147110476Y-105795357D01*
X147034285Y-105833452D01*
X146996190Y-105871547D01*
X146958095Y-105947738D01*
X146958095Y-106023928D01*
X146996190Y-106100119D01*
X147034285Y-106138214D01*
X147110476Y-106176309D01*
X147262857Y-106214404D01*
X147453333Y-106214404D01*
X147605714Y-106176309D01*
X147681904Y-106138214D01*
X147720000Y-106100119D01*
X147758095Y-106023928D01*
X144418095Y-107662023D02*
X145218095Y-107662023D01*
X145218095Y-107357261D01*
X145180000Y-107281071D01*
X145141904Y-107242976D01*
X145065714Y-107204880D01*
X144951428Y-107204880D01*
X144875238Y-107242976D01*
X144837142Y-107281071D01*
X144799047Y-107357261D01*
X144799047Y-107662023D01*
X144837142Y-106595357D02*
X144799047Y-106481071D01*
X144760952Y-106442976D01*
X144684761Y-106404880D01*
X144570476Y-106404880D01*
X144494285Y-106442976D01*
X144456190Y-106481071D01*
X144418095Y-106557261D01*
X144418095Y-106862023D01*
X145218095Y-106862023D01*
X145218095Y-106595357D01*
X145180000Y-106519166D01*
X145141904Y-106481071D01*
X145065714Y-106442976D01*
X144989523Y-106442976D01*
X144913333Y-106481071D01*
X144875238Y-106519166D01*
X144837142Y-106595357D01*
X144837142Y-106862023D01*
X144418095Y-105642976D02*
X144418095Y-106100119D01*
X144418095Y-105871547D02*
X145218095Y-105871547D01*
X145103809Y-105947738D01*
X145027619Y-106023928D01*
X144989523Y-106100119D01*
X145218095Y-105147738D02*
X145218095Y-105071547D01*
X145180000Y-104995357D01*
X145141904Y-104957261D01*
X145065714Y-104919166D01*
X144913333Y-104881071D01*
X144722857Y-104881071D01*
X144570476Y-104919166D01*
X144494285Y-104957261D01*
X144456190Y-104995357D01*
X144418095Y-105071547D01*
X144418095Y-105147738D01*
X144456190Y-105223928D01*
X144494285Y-105262023D01*
X144570476Y-105300119D01*
X144722857Y-105338214D01*
X144913333Y-105338214D01*
X145065714Y-105300119D01*
X145141904Y-105262023D01*
X145180000Y-105223928D01*
X145218095Y-105147738D01*
X145256190Y-103966785D02*
X144227619Y-104652500D01*
X144456190Y-103738214D02*
X144418095Y-103623928D01*
X144418095Y-103433452D01*
X144456190Y-103357261D01*
X144494285Y-103319166D01*
X144570476Y-103281071D01*
X144646666Y-103281071D01*
X144722857Y-103319166D01*
X144760952Y-103357261D01*
X144799047Y-103433452D01*
X144837142Y-103585833D01*
X144875238Y-103662023D01*
X144913333Y-103700119D01*
X144989523Y-103738214D01*
X145065714Y-103738214D01*
X145141904Y-103700119D01*
X145180000Y-103662023D01*
X145218095Y-103585833D01*
X145218095Y-103395357D01*
X145180000Y-103281071D01*
X144494285Y-102481071D02*
X144456190Y-102519166D01*
X144418095Y-102633452D01*
X144418095Y-102709642D01*
X144456190Y-102823928D01*
X144532380Y-102900119D01*
X144608571Y-102938214D01*
X144760952Y-102976309D01*
X144875238Y-102976309D01*
X145027619Y-102938214D01*
X145103809Y-102900119D01*
X145180000Y-102823928D01*
X145218095Y-102709642D01*
X145218095Y-102633452D01*
X145180000Y-102519166D01*
X145141904Y-102481071D01*
X144418095Y-102138214D02*
X145218095Y-102138214D01*
X144418095Y-101681071D02*
X144875238Y-102023928D01*
X145218095Y-101681071D02*
X144760952Y-102138214D01*
X141878095Y-107602023D02*
X142678095Y-107602023D01*
X142678095Y-107297261D01*
X142640000Y-107221071D01*
X142601904Y-107182976D01*
X142525714Y-107144880D01*
X142411428Y-107144880D01*
X142335238Y-107182976D01*
X142297142Y-107221071D01*
X142259047Y-107297261D01*
X142259047Y-107602023D01*
X141954285Y-106344880D02*
X141916190Y-106382976D01*
X141878095Y-106497261D01*
X141878095Y-106573452D01*
X141916190Y-106687738D01*
X141992380Y-106763928D01*
X142068571Y-106802023D01*
X142220952Y-106840119D01*
X142335238Y-106840119D01*
X142487619Y-106802023D01*
X142563809Y-106763928D01*
X142640000Y-106687738D01*
X142678095Y-106573452D01*
X142678095Y-106497261D01*
X142640000Y-106382976D01*
X142601904Y-106344880D01*
X142678095Y-106078214D02*
X142678095Y-105582976D01*
X142373333Y-105849642D01*
X142373333Y-105735357D01*
X142335238Y-105659166D01*
X142297142Y-105621071D01*
X142220952Y-105582976D01*
X142030476Y-105582976D01*
X141954285Y-105621071D01*
X141916190Y-105659166D01*
X141878095Y-105735357D01*
X141878095Y-105963928D01*
X141916190Y-106040119D01*
X141954285Y-106078214D01*
X141801904Y-105430595D02*
X141801904Y-104821071D01*
X141878095Y-104630595D02*
X142678095Y-104630595D01*
X142106666Y-104363928D01*
X142678095Y-104097261D01*
X141878095Y-104097261D01*
X142678095Y-103563928D02*
X142678095Y-103411547D01*
X142640000Y-103335357D01*
X142563809Y-103259166D01*
X142411428Y-103221071D01*
X142144761Y-103221071D01*
X141992380Y-103259166D01*
X141916190Y-103335357D01*
X141878095Y-103411547D01*
X141878095Y-103563928D01*
X141916190Y-103640119D01*
X141992380Y-103716309D01*
X142144761Y-103754404D01*
X142411428Y-103754404D01*
X142563809Y-103716309D01*
X142640000Y-103640119D01*
X142678095Y-103563928D01*
X141916190Y-102916309D02*
X141878095Y-102802023D01*
X141878095Y-102611547D01*
X141916190Y-102535357D01*
X141954285Y-102497261D01*
X142030476Y-102459166D01*
X142106666Y-102459166D01*
X142182857Y-102497261D01*
X142220952Y-102535357D01*
X142259047Y-102611547D01*
X142297142Y-102763928D01*
X142335238Y-102840119D01*
X142373333Y-102878214D01*
X142449523Y-102916309D01*
X142525714Y-102916309D01*
X142601904Y-102878214D01*
X142640000Y-102840119D01*
X142678095Y-102763928D01*
X142678095Y-102573452D01*
X142640000Y-102459166D01*
X141878095Y-102116309D02*
X142678095Y-102116309D01*
X137560000Y-107182976D02*
X137598095Y-107259166D01*
X137598095Y-107373452D01*
X137560000Y-107487738D01*
X137483809Y-107563928D01*
X137407619Y-107602023D01*
X137255238Y-107640119D01*
X137140952Y-107640119D01*
X136988571Y-107602023D01*
X136912380Y-107563928D01*
X136836190Y-107487738D01*
X136798095Y-107373452D01*
X136798095Y-107297261D01*
X136836190Y-107182976D01*
X136874285Y-107144880D01*
X137140952Y-107144880D01*
X137140952Y-107297261D01*
X136798095Y-106802023D02*
X137598095Y-106802023D01*
X136798095Y-106344880D01*
X137598095Y-106344880D01*
X136798095Y-105963928D02*
X137598095Y-105963928D01*
X137598095Y-105773452D01*
X137560000Y-105659166D01*
X137483809Y-105582976D01*
X137407619Y-105544880D01*
X137255238Y-105506785D01*
X137140952Y-105506785D01*
X136988571Y-105544880D01*
X136912380Y-105582976D01*
X136836190Y-105659166D01*
X136798095Y-105773452D01*
X136798095Y-105963928D01*
X139338095Y-107662023D02*
X140138095Y-107662023D01*
X140138095Y-107357261D01*
X140100000Y-107281071D01*
X140061904Y-107242976D01*
X139985714Y-107204880D01*
X139871428Y-107204880D01*
X139795238Y-107242976D01*
X139757142Y-107281071D01*
X139719047Y-107357261D01*
X139719047Y-107662023D01*
X139414285Y-106404880D02*
X139376190Y-106442976D01*
X139338095Y-106557261D01*
X139338095Y-106633452D01*
X139376190Y-106747738D01*
X139452380Y-106823928D01*
X139528571Y-106862023D01*
X139680952Y-106900119D01*
X139795238Y-106900119D01*
X139947619Y-106862023D01*
X140023809Y-106823928D01*
X140100000Y-106747738D01*
X140138095Y-106633452D01*
X140138095Y-106557261D01*
X140100000Y-106442976D01*
X140061904Y-106404880D01*
X140061904Y-106100119D02*
X140100000Y-106062023D01*
X140138095Y-105985833D01*
X140138095Y-105795357D01*
X140100000Y-105719166D01*
X140061904Y-105681071D01*
X139985714Y-105642976D01*
X139909523Y-105642976D01*
X139795238Y-105681071D01*
X139338095Y-106138214D01*
X139338095Y-105642976D01*
X140176190Y-104728690D02*
X139147619Y-105414404D01*
X139338095Y-104462023D02*
X140138095Y-104462023D01*
X139566666Y-104195357D01*
X140138095Y-103928690D01*
X139338095Y-103928690D01*
X139338095Y-103547738D02*
X140138095Y-103547738D01*
X139376190Y-103204880D02*
X139338095Y-103090595D01*
X139338095Y-102900119D01*
X139376190Y-102823928D01*
X139414285Y-102785833D01*
X139490476Y-102747738D01*
X139566666Y-102747738D01*
X139642857Y-102785833D01*
X139680952Y-102823928D01*
X139719047Y-102900119D01*
X139757142Y-103052500D01*
X139795238Y-103128690D01*
X139833333Y-103166785D01*
X139909523Y-103204880D01*
X139985714Y-103204880D01*
X140061904Y-103166785D01*
X140100000Y-103128690D01*
X140138095Y-103052500D01*
X140138095Y-102862023D01*
X140100000Y-102747738D01*
X140138095Y-102252500D02*
X140138095Y-102100119D01*
X140100000Y-102023928D01*
X140023809Y-101947738D01*
X139871428Y-101909642D01*
X139604761Y-101909642D01*
X139452380Y-101947738D01*
X139376190Y-102023928D01*
X139338095Y-102100119D01*
X139338095Y-102252500D01*
X139376190Y-102328690D01*
X139452380Y-102404880D01*
X139604761Y-102442976D01*
X139871428Y-102442976D01*
X140023809Y-102404880D01*
X140100000Y-102328690D01*
X140138095Y-102252500D01*
X154578095Y-107662023D02*
X155378095Y-107662023D01*
X155378095Y-107357261D01*
X155340000Y-107281071D01*
X155301904Y-107242976D01*
X155225714Y-107204880D01*
X155111428Y-107204880D01*
X155035238Y-107242976D01*
X154997142Y-107281071D01*
X154959047Y-107357261D01*
X154959047Y-107662023D01*
X154806666Y-106900119D02*
X154806666Y-106519166D01*
X154578095Y-106976309D02*
X155378095Y-106709642D01*
X154578095Y-106442976D01*
X155378095Y-106252500D02*
X155378095Y-105757261D01*
X155073333Y-106023928D01*
X155073333Y-105909642D01*
X155035238Y-105833452D01*
X154997142Y-105795357D01*
X154920952Y-105757261D01*
X154730476Y-105757261D01*
X154654285Y-105795357D01*
X154616190Y-105833452D01*
X154578095Y-105909642D01*
X154578095Y-106138214D01*
X154616190Y-106214404D01*
X154654285Y-106252500D01*
X155416190Y-104842976D02*
X154387619Y-105528690D01*
X155378095Y-104576309D02*
X154730476Y-104576309D01*
X154654285Y-104538214D01*
X154616190Y-104500119D01*
X154578095Y-104423928D01*
X154578095Y-104271547D01*
X154616190Y-104195357D01*
X154654285Y-104157261D01*
X154730476Y-104119166D01*
X155378095Y-104119166D01*
X155301904Y-103776309D02*
X155340000Y-103738214D01*
X155378095Y-103662023D01*
X155378095Y-103471547D01*
X155340000Y-103395357D01*
X155301904Y-103357261D01*
X155225714Y-103319166D01*
X155149523Y-103319166D01*
X155035238Y-103357261D01*
X154578095Y-103814404D01*
X154578095Y-103319166D01*
X154578095Y-102519166D02*
X154959047Y-102785833D01*
X154578095Y-102976309D02*
X155378095Y-102976309D01*
X155378095Y-102671547D01*
X155340000Y-102595357D01*
X155301904Y-102557261D01*
X155225714Y-102519166D01*
X155111428Y-102519166D01*
X155035238Y-102557261D01*
X154997142Y-102595357D01*
X154959047Y-102671547D01*
X154959047Y-102976309D01*
X155378095Y-102252500D02*
X154578095Y-101719166D01*
X155378095Y-101719166D02*
X154578095Y-102252500D01*
X157118095Y-107662023D02*
X157918095Y-107662023D01*
X157918095Y-107357261D01*
X157880000Y-107281071D01*
X157841904Y-107242976D01*
X157765714Y-107204880D01*
X157651428Y-107204880D01*
X157575238Y-107242976D01*
X157537142Y-107281071D01*
X157499047Y-107357261D01*
X157499047Y-107662023D01*
X157346666Y-106900119D02*
X157346666Y-106519166D01*
X157118095Y-106976309D02*
X157918095Y-106709642D01*
X157118095Y-106442976D01*
X157651428Y-105833452D02*
X157118095Y-105833452D01*
X157956190Y-106023928D02*
X157384761Y-106214404D01*
X157384761Y-105719166D01*
X157956190Y-104842976D02*
X156927619Y-105528690D01*
X157346666Y-104614404D02*
X157346666Y-104233452D01*
X157118095Y-104690595D02*
X157918095Y-104423928D01*
X157118095Y-104157261D01*
X157918095Y-103738214D02*
X157918095Y-103585833D01*
X157880000Y-103509642D01*
X157803809Y-103433452D01*
X157651428Y-103395357D01*
X157384761Y-103395357D01*
X157232380Y-103433452D01*
X157156190Y-103509642D01*
X157118095Y-103585833D01*
X157118095Y-103738214D01*
X157156190Y-103814404D01*
X157232380Y-103890595D01*
X157384761Y-103928690D01*
X157651428Y-103928690D01*
X157803809Y-103890595D01*
X157880000Y-103814404D01*
X157918095Y-103738214D01*
X157918095Y-102900119D02*
X157918095Y-102823928D01*
X157880000Y-102747738D01*
X157841904Y-102709642D01*
X157765714Y-102671547D01*
X157613333Y-102633452D01*
X157422857Y-102633452D01*
X157270476Y-102671547D01*
X157194285Y-102709642D01*
X157156190Y-102747738D01*
X157118095Y-102823928D01*
X157118095Y-102900119D01*
X157156190Y-102976309D01*
X157194285Y-103014404D01*
X157270476Y-103052500D01*
X157422857Y-103090595D01*
X157613333Y-103090595D01*
X157765714Y-103052500D01*
X157841904Y-103014404D01*
X157880000Y-102976309D01*
X157918095Y-102900119D01*
X159658095Y-107662023D02*
X160458095Y-107662023D01*
X160458095Y-107357261D01*
X160420000Y-107281071D01*
X160381904Y-107242976D01*
X160305714Y-107204880D01*
X160191428Y-107204880D01*
X160115238Y-107242976D01*
X160077142Y-107281071D01*
X160039047Y-107357261D01*
X160039047Y-107662023D01*
X159886666Y-106900119D02*
X159886666Y-106519166D01*
X159658095Y-106976309D02*
X160458095Y-106709642D01*
X159658095Y-106442976D01*
X160458095Y-105795357D02*
X160458095Y-106176309D01*
X160077142Y-106214404D01*
X160115238Y-106176309D01*
X160153333Y-106100119D01*
X160153333Y-105909642D01*
X160115238Y-105833452D01*
X160077142Y-105795357D01*
X160000952Y-105757261D01*
X159810476Y-105757261D01*
X159734285Y-105795357D01*
X159696190Y-105833452D01*
X159658095Y-105909642D01*
X159658095Y-106100119D01*
X159696190Y-106176309D01*
X159734285Y-106214404D01*
X160496190Y-104842976D02*
X159467619Y-105528690D01*
X159886666Y-104614404D02*
X159886666Y-104233452D01*
X159658095Y-104690595D02*
X160458095Y-104423928D01*
X159658095Y-104157261D01*
X160458095Y-103738214D02*
X160458095Y-103585833D01*
X160420000Y-103509642D01*
X160343809Y-103433452D01*
X160191428Y-103395357D01*
X159924761Y-103395357D01*
X159772380Y-103433452D01*
X159696190Y-103509642D01*
X159658095Y-103585833D01*
X159658095Y-103738214D01*
X159696190Y-103814404D01*
X159772380Y-103890595D01*
X159924761Y-103928690D01*
X160191428Y-103928690D01*
X160343809Y-103890595D01*
X160420000Y-103814404D01*
X160458095Y-103738214D01*
X159658095Y-102633452D02*
X159658095Y-103090595D01*
X159658095Y-102862023D02*
X160458095Y-102862023D01*
X160343809Y-102938214D01*
X160267619Y-103014404D01*
X160229523Y-103090595D01*
X162198095Y-107662023D02*
X162998095Y-107662023D01*
X162998095Y-107357261D01*
X162960000Y-107281071D01*
X162921904Y-107242976D01*
X162845714Y-107204880D01*
X162731428Y-107204880D01*
X162655238Y-107242976D01*
X162617142Y-107281071D01*
X162579047Y-107357261D01*
X162579047Y-107662023D01*
X162426666Y-106900119D02*
X162426666Y-106519166D01*
X162198095Y-106976309D02*
X162998095Y-106709642D01*
X162198095Y-106442976D01*
X162998095Y-105833452D02*
X162998095Y-105985833D01*
X162960000Y-106062023D01*
X162921904Y-106100119D01*
X162807619Y-106176309D01*
X162655238Y-106214404D01*
X162350476Y-106214404D01*
X162274285Y-106176309D01*
X162236190Y-106138214D01*
X162198095Y-106062023D01*
X162198095Y-105909642D01*
X162236190Y-105833452D01*
X162274285Y-105795357D01*
X162350476Y-105757261D01*
X162540952Y-105757261D01*
X162617142Y-105795357D01*
X162655238Y-105833452D01*
X162693333Y-105909642D01*
X162693333Y-106062023D01*
X162655238Y-106138214D01*
X162617142Y-106176309D01*
X162540952Y-106214404D01*
X163036190Y-104842976D02*
X162007619Y-105528690D01*
X162426666Y-104614404D02*
X162426666Y-104233452D01*
X162198095Y-104690595D02*
X162998095Y-104423928D01*
X162198095Y-104157261D01*
X162198095Y-103890595D02*
X162998095Y-103890595D01*
X162998095Y-103357261D02*
X162998095Y-103281071D01*
X162960000Y-103204880D01*
X162921904Y-103166785D01*
X162845714Y-103128690D01*
X162693333Y-103090595D01*
X162502857Y-103090595D01*
X162350476Y-103128690D01*
X162274285Y-103166785D01*
X162236190Y-103204880D01*
X162198095Y-103281071D01*
X162198095Y-103357261D01*
X162236190Y-103433452D01*
X162274285Y-103471547D01*
X162350476Y-103509642D01*
X162502857Y-103547738D01*
X162693333Y-103547738D01*
X162845714Y-103509642D01*
X162921904Y-103471547D01*
X162960000Y-103433452D01*
X162998095Y-103357261D01*
X164738095Y-107662023D02*
X165538095Y-107662023D01*
X165538095Y-107357261D01*
X165500000Y-107281071D01*
X165461904Y-107242976D01*
X165385714Y-107204880D01*
X165271428Y-107204880D01*
X165195238Y-107242976D01*
X165157142Y-107281071D01*
X165119047Y-107357261D01*
X165119047Y-107662023D01*
X164966666Y-106900119D02*
X164966666Y-106519166D01*
X164738095Y-106976309D02*
X165538095Y-106709642D01*
X164738095Y-106442976D01*
X165538095Y-106252500D02*
X165538095Y-105719166D01*
X164738095Y-106062023D01*
X165576190Y-104842976D02*
X164547619Y-105528690D01*
X164966666Y-104614404D02*
X164966666Y-104233452D01*
X164738095Y-104690595D02*
X165538095Y-104423928D01*
X164738095Y-104157261D01*
X164738095Y-103890595D02*
X165538095Y-103890595D01*
X164738095Y-103090595D02*
X164738095Y-103547738D01*
X164738095Y-103319166D02*
X165538095Y-103319166D01*
X165423809Y-103395357D01*
X165347619Y-103471547D01*
X165309523Y-103547738D01*
X168078095Y-107776309D02*
X167278095Y-107509642D01*
X168078095Y-107242976D01*
X167354285Y-106519166D02*
X167316190Y-106557261D01*
X167278095Y-106671547D01*
X167278095Y-106747738D01*
X167316190Y-106862023D01*
X167392380Y-106938214D01*
X167468571Y-106976309D01*
X167620952Y-107014404D01*
X167735238Y-107014404D01*
X167887619Y-106976309D01*
X167963809Y-106938214D01*
X168040000Y-106862023D01*
X168078095Y-106747738D01*
X168078095Y-106671547D01*
X168040000Y-106557261D01*
X168001904Y-106519166D01*
X167354285Y-105719166D02*
X167316190Y-105757261D01*
X167278095Y-105871547D01*
X167278095Y-105947738D01*
X167316190Y-106062023D01*
X167392380Y-106138214D01*
X167468571Y-106176309D01*
X167620952Y-106214404D01*
X167735238Y-106214404D01*
X167887619Y-106176309D01*
X167963809Y-106138214D01*
X168040000Y-106062023D01*
X168078095Y-105947738D01*
X168078095Y-105871547D01*
X168040000Y-105757261D01*
X168001904Y-105719166D01*
X170618095Y-107776309D02*
X169818095Y-107509642D01*
X170618095Y-107242976D01*
X170237142Y-106709642D02*
X170199047Y-106595357D01*
X170160952Y-106557261D01*
X170084761Y-106519166D01*
X169970476Y-106519166D01*
X169894285Y-106557261D01*
X169856190Y-106595357D01*
X169818095Y-106671547D01*
X169818095Y-106976309D01*
X170618095Y-106976309D01*
X170618095Y-106709642D01*
X170580000Y-106633452D01*
X170541904Y-106595357D01*
X170465714Y-106557261D01*
X170389523Y-106557261D01*
X170313333Y-106595357D01*
X170275238Y-106633452D01*
X170237142Y-106709642D01*
X170237142Y-106976309D01*
X170618095Y-106176309D02*
X169970476Y-106176309D01*
X169894285Y-106138214D01*
X169856190Y-106100119D01*
X169818095Y-106023928D01*
X169818095Y-105871547D01*
X169856190Y-105795357D01*
X169894285Y-105757261D01*
X169970476Y-105719166D01*
X170618095Y-105719166D01*
X169856190Y-105376309D02*
X169818095Y-105262023D01*
X169818095Y-105071547D01*
X169856190Y-104995357D01*
X169894285Y-104957261D01*
X169970476Y-104919166D01*
X170046666Y-104919166D01*
X170122857Y-104957261D01*
X170160952Y-104995357D01*
X170199047Y-105071547D01*
X170237142Y-105223928D01*
X170275238Y-105300119D01*
X170313333Y-105338214D01*
X170389523Y-105376309D01*
X170465714Y-105376309D01*
X170541904Y-105338214D01*
X170580000Y-105300119D01*
X170618095Y-105223928D01*
X170618095Y-105033452D01*
X170580000Y-104919166D01*
X173120000Y-107242976D02*
X173158095Y-107319166D01*
X173158095Y-107433452D01*
X173120000Y-107547738D01*
X173043809Y-107623928D01*
X172967619Y-107662023D01*
X172815238Y-107700119D01*
X172700952Y-107700119D01*
X172548571Y-107662023D01*
X172472380Y-107623928D01*
X172396190Y-107547738D01*
X172358095Y-107433452D01*
X172358095Y-107357261D01*
X172396190Y-107242976D01*
X172434285Y-107204880D01*
X172700952Y-107204880D01*
X172700952Y-107357261D01*
X172358095Y-106862023D02*
X173158095Y-106862023D01*
X172358095Y-106404880D01*
X173158095Y-106404880D01*
X172358095Y-106023928D02*
X173158095Y-106023928D01*
X173158095Y-105833452D01*
X173120000Y-105719166D01*
X173043809Y-105642976D01*
X172967619Y-105604880D01*
X172815238Y-105566785D01*
X172700952Y-105566785D01*
X172548571Y-105604880D01*
X172472380Y-105642976D01*
X172396190Y-105719166D01*
X172358095Y-105833452D01*
X172358095Y-106023928D01*
D11*
%TO.C,J2*%
X148025000Y-90830000D02*
X148025000Y-90720000D01*
X146865000Y-103590000D02*
X148025000Y-103590000D01*
X148025000Y-103590000D02*
X148025000Y-92330000D01*
X148025000Y-90720000D02*
X146215000Y-90720000D01*
X143615000Y-103590000D02*
X138015000Y-103590000D01*
X144315000Y-90720000D02*
X138015000Y-90720000D01*
%TO.C,J4*%
X135830000Y-85030000D02*
X135830000Y-86360000D01*
X137160000Y-85030000D02*
X135830000Y-85030000D01*
X138430000Y-85030000D02*
X138430000Y-87690000D01*
X138430000Y-87690000D02*
X174050000Y-87690000D01*
X138430000Y-85030000D02*
X174050000Y-85030000D01*
X174050000Y-85030000D02*
X174050000Y-87690000D01*
%TO.C,J3*%
X135830000Y-107890000D02*
X135830000Y-109220000D01*
X137160000Y-107890000D02*
X135830000Y-107890000D01*
X138430000Y-107890000D02*
X138430000Y-110550000D01*
X138430000Y-110550000D02*
X174050000Y-110550000D01*
X138430000Y-107890000D02*
X174050000Y-107890000D01*
X174050000Y-107890000D02*
X174050000Y-110550000D01*
%TO.C,J2*%
D10*
X150303095Y-97446666D02*
X149731666Y-97446666D01*
X149617380Y-97484761D01*
X149541190Y-97560952D01*
X149503095Y-97675238D01*
X149503095Y-97751428D01*
X150226904Y-97103809D02*
X150265000Y-97065714D01*
X150303095Y-96989523D01*
X150303095Y-96799047D01*
X150265000Y-96722857D01*
X150226904Y-96684761D01*
X150150714Y-96646666D01*
X150074523Y-96646666D01*
X149960238Y-96684761D01*
X149503095Y-97141904D01*
X149503095Y-96646666D01*
%TD*%
M02*
