%TF.GenerationSoftware,KiCad,Pcbnew,5.1.6+dfsg1-1*%
%TF.CreationDate,2020-06-20T08:37:57+08:00*%
%TF.ProjectId,stm32dev,73746d33-3264-4657-962e-6b696361645f,rev?*%
%TF.SameCoordinates,Original*%
%TF.FileFunction,Legend,Top*%
%TF.FilePolarity,Positive*%
%FSLAX46Y46*%
G04 Gerber Fmt 4.6, Leading zero omitted, Abs format (unit mm)*
G04 Created by KiCad (PCBNEW 5.1.6+dfsg1-1) date 2020-06-20 08:37:57*
%MOMM*%
%LPD*%
G01*
G04 APERTURE LIST*
%ADD10C,0.120000*%
%ADD11C,0.150000*%
G04 APERTURE END LIST*
D10*
%TO.C,D3*%
X169200000Y-89805000D02*
X169200000Y-91805000D01*
X169200000Y-91805000D02*
X173100000Y-91805000D01*
X169200000Y-89805000D02*
X173100000Y-89805000D01*
%TO.C,D1*%
X169454000Y-102632000D02*
X169454000Y-104632000D01*
X169454000Y-104632000D02*
X173354000Y-104632000D01*
X169454000Y-102632000D02*
X173354000Y-102632000D01*
%TO.C,C10*%
X139227779Y-99570000D02*
X138902221Y-99570000D01*
X139227779Y-98550000D02*
X138902221Y-98550000D01*
%TO.C,C6*%
X138902221Y-92200000D02*
X139227779Y-92200000D01*
X138902221Y-93220000D02*
X139227779Y-93220000D01*
%TO.C,C13*%
X156085000Y-90332779D02*
X156085000Y-90007221D01*
X155065000Y-90332779D02*
X155065000Y-90007221D01*
%TO.C,C12*%
X154142221Y-105285000D02*
X154467779Y-105285000D01*
X154142221Y-104265000D02*
X154467779Y-104265000D01*
%TO.C,D2*%
X168485000Y-88425000D02*
X167335000Y-88425000D01*
X168485000Y-95725000D02*
X168485000Y-88425000D01*
X162985000Y-95725000D02*
X162985000Y-88425000D01*
%TO.C,J5*%
X156785000Y-88840000D02*
X158115000Y-88840000D01*
X156785000Y-90170000D02*
X156785000Y-88840000D01*
X159385000Y-88840000D02*
X161985000Y-88840000D01*
X159385000Y-91440000D02*
X159385000Y-88840000D01*
X156785000Y-91440000D02*
X159385000Y-91440000D01*
X161985000Y-88840000D02*
X161985000Y-96580000D01*
X156785000Y-91440000D02*
X156785000Y-96580000D01*
X156785000Y-96580000D02*
X161985000Y-96580000D01*
%TO.C,J1*%
X169137500Y-98855000D02*
X169587500Y-98855000D01*
X169137500Y-98855000D02*
X169137500Y-98405000D01*
X169687500Y-93255000D02*
X169687500Y-93705000D01*
X171537500Y-93255000D02*
X169687500Y-93255000D01*
X174087500Y-101055000D02*
X173837500Y-101055000D01*
X174087500Y-93255000D02*
X173837500Y-93255000D01*
X171537500Y-101055000D02*
X169687500Y-101055000D01*
X169687500Y-101055000D02*
X169687500Y-100605000D01*
%TO.C,U1*%
X161690000Y-106335000D02*
X161690000Y-100325000D01*
X168510000Y-104085000D02*
X168510000Y-100325000D01*
X161690000Y-100325000D02*
X162950000Y-100325000D01*
X168510000Y-100325000D02*
X167250000Y-100325000D01*
%TO.C,C3*%
X160730000Y-101858578D02*
X160730000Y-101341422D01*
X159310000Y-101858578D02*
X159310000Y-101341422D01*
%TO.C,C2*%
X159310000Y-105151422D02*
X159310000Y-105668578D01*
X160730000Y-105151422D02*
X160730000Y-105668578D01*
%TO.C,C1*%
X171191422Y-107390000D02*
X171708578Y-107390000D01*
X171191422Y-105970000D02*
X171708578Y-105970000D01*
%TO.C,Y1*%
X137415000Y-93885000D02*
X137415000Y-97885000D01*
X140715000Y-93885000D02*
X137415000Y-93885000D01*
%TO.C,U2*%
X143055000Y-93505000D02*
X141715000Y-93505000D01*
X143055000Y-92555000D02*
X143055000Y-93505000D01*
X144005000Y-92555000D02*
X143055000Y-92555000D01*
X153275000Y-92555000D02*
X153275000Y-93505000D01*
X152325000Y-92555000D02*
X153275000Y-92555000D01*
X143055000Y-102775000D02*
X143055000Y-101825000D01*
X144005000Y-102775000D02*
X143055000Y-102775000D01*
X153275000Y-102775000D02*
X153275000Y-101825000D01*
X152325000Y-102775000D02*
X153275000Y-102775000D01*
%TO.C,D3*%
D11*
X170711904Y-89257380D02*
X170711904Y-88257380D01*
X170950000Y-88257380D01*
X171092857Y-88305000D01*
X171188095Y-88400238D01*
X171235714Y-88495476D01*
X171283333Y-88685952D01*
X171283333Y-88828809D01*
X171235714Y-89019285D01*
X171188095Y-89114523D01*
X171092857Y-89209761D01*
X170950000Y-89257380D01*
X170711904Y-89257380D01*
X171616666Y-88257380D02*
X172235714Y-88257380D01*
X171902380Y-88638333D01*
X172045238Y-88638333D01*
X172140476Y-88685952D01*
X172188095Y-88733571D01*
X172235714Y-88828809D01*
X172235714Y-89066904D01*
X172188095Y-89162142D01*
X172140476Y-89209761D01*
X172045238Y-89257380D01*
X171759523Y-89257380D01*
X171664285Y-89209761D01*
X171616666Y-89162142D01*
%TO.C,D1*%
X169441904Y-102084380D02*
X169441904Y-101084380D01*
X169680000Y-101084380D01*
X169822857Y-101132000D01*
X169918095Y-101227238D01*
X169965714Y-101322476D01*
X170013333Y-101512952D01*
X170013333Y-101655809D01*
X169965714Y-101846285D01*
X169918095Y-101941523D01*
X169822857Y-102036761D01*
X169680000Y-102084380D01*
X169441904Y-102084380D01*
X170965714Y-102084380D02*
X170394285Y-102084380D01*
X170680000Y-102084380D02*
X170680000Y-101084380D01*
X170584761Y-101227238D01*
X170489523Y-101322476D01*
X170394285Y-101370095D01*
%TO.C,C10*%
X138550714Y-100775714D02*
X138512619Y-100813809D01*
X138398333Y-100851904D01*
X138322142Y-100851904D01*
X138207857Y-100813809D01*
X138131666Y-100737619D01*
X138093571Y-100661428D01*
X138055476Y-100509047D01*
X138055476Y-100394761D01*
X138093571Y-100242380D01*
X138131666Y-100166190D01*
X138207857Y-100090000D01*
X138322142Y-100051904D01*
X138398333Y-100051904D01*
X138512619Y-100090000D01*
X138550714Y-100128095D01*
X139312619Y-100851904D02*
X138855476Y-100851904D01*
X139084047Y-100851904D02*
X139084047Y-100051904D01*
X139007857Y-100166190D01*
X138931666Y-100242380D01*
X138855476Y-100280476D01*
X139807857Y-100051904D02*
X139884047Y-100051904D01*
X139960238Y-100090000D01*
X139998333Y-100128095D01*
X140036428Y-100204285D01*
X140074523Y-100356666D01*
X140074523Y-100547142D01*
X140036428Y-100699523D01*
X139998333Y-100775714D01*
X139960238Y-100813809D01*
X139884047Y-100851904D01*
X139807857Y-100851904D01*
X139731666Y-100813809D01*
X139693571Y-100775714D01*
X139655476Y-100699523D01*
X139617380Y-100547142D01*
X139617380Y-100356666D01*
X139655476Y-100204285D01*
X139693571Y-100128095D01*
X139731666Y-100090000D01*
X139807857Y-100051904D01*
%TO.C,C6*%
X138931666Y-91565714D02*
X138893571Y-91603809D01*
X138779285Y-91641904D01*
X138703095Y-91641904D01*
X138588809Y-91603809D01*
X138512619Y-91527619D01*
X138474523Y-91451428D01*
X138436428Y-91299047D01*
X138436428Y-91184761D01*
X138474523Y-91032380D01*
X138512619Y-90956190D01*
X138588809Y-90880000D01*
X138703095Y-90841904D01*
X138779285Y-90841904D01*
X138893571Y-90880000D01*
X138931666Y-90918095D01*
X139617380Y-90841904D02*
X139465000Y-90841904D01*
X139388809Y-90880000D01*
X139350714Y-90918095D01*
X139274523Y-91032380D01*
X139236428Y-91184761D01*
X139236428Y-91489523D01*
X139274523Y-91565714D01*
X139312619Y-91603809D01*
X139388809Y-91641904D01*
X139541190Y-91641904D01*
X139617380Y-91603809D01*
X139655476Y-91565714D01*
X139693571Y-91489523D01*
X139693571Y-91299047D01*
X139655476Y-91222857D01*
X139617380Y-91184761D01*
X139541190Y-91146666D01*
X139388809Y-91146666D01*
X139312619Y-91184761D01*
X139274523Y-91222857D01*
X139236428Y-91299047D01*
%TO.C,C13*%
X154430714Y-90684285D02*
X154468809Y-90722380D01*
X154506904Y-90836666D01*
X154506904Y-90912857D01*
X154468809Y-91027142D01*
X154392619Y-91103333D01*
X154316428Y-91141428D01*
X154164047Y-91179523D01*
X154049761Y-91179523D01*
X153897380Y-91141428D01*
X153821190Y-91103333D01*
X153745000Y-91027142D01*
X153706904Y-90912857D01*
X153706904Y-90836666D01*
X153745000Y-90722380D01*
X153783095Y-90684285D01*
X154506904Y-89922380D02*
X154506904Y-90379523D01*
X154506904Y-90150952D02*
X153706904Y-90150952D01*
X153821190Y-90227142D01*
X153897380Y-90303333D01*
X153935476Y-90379523D01*
X153706904Y-89655714D02*
X153706904Y-89160476D01*
X154011666Y-89427142D01*
X154011666Y-89312857D01*
X154049761Y-89236666D01*
X154087857Y-89198571D01*
X154164047Y-89160476D01*
X154354523Y-89160476D01*
X154430714Y-89198571D01*
X154468809Y-89236666D01*
X154506904Y-89312857D01*
X154506904Y-89541428D01*
X154468809Y-89617619D01*
X154430714Y-89655714D01*
%TO.C,C12*%
X153790714Y-106330714D02*
X153752619Y-106368809D01*
X153638333Y-106406904D01*
X153562142Y-106406904D01*
X153447857Y-106368809D01*
X153371666Y-106292619D01*
X153333571Y-106216428D01*
X153295476Y-106064047D01*
X153295476Y-105949761D01*
X153333571Y-105797380D01*
X153371666Y-105721190D01*
X153447857Y-105645000D01*
X153562142Y-105606904D01*
X153638333Y-105606904D01*
X153752619Y-105645000D01*
X153790714Y-105683095D01*
X154552619Y-106406904D02*
X154095476Y-106406904D01*
X154324047Y-106406904D02*
X154324047Y-105606904D01*
X154247857Y-105721190D01*
X154171666Y-105797380D01*
X154095476Y-105835476D01*
X154857380Y-105683095D02*
X154895476Y-105645000D01*
X154971666Y-105606904D01*
X155162142Y-105606904D01*
X155238333Y-105645000D01*
X155276428Y-105683095D01*
X155314523Y-105759285D01*
X155314523Y-105835476D01*
X155276428Y-105949761D01*
X154819285Y-106406904D01*
X155314523Y-106406904D01*
%TO.C,C11*%
X142360714Y-90455714D02*
X142322619Y-90493809D01*
X142208333Y-90531904D01*
X142132142Y-90531904D01*
X142017857Y-90493809D01*
X141941666Y-90417619D01*
X141903571Y-90341428D01*
X141865476Y-90189047D01*
X141865476Y-90074761D01*
X141903571Y-89922380D01*
X141941666Y-89846190D01*
X142017857Y-89770000D01*
X142132142Y-89731904D01*
X142208333Y-89731904D01*
X142322619Y-89770000D01*
X142360714Y-89808095D01*
X143122619Y-90531904D02*
X142665476Y-90531904D01*
X142894047Y-90531904D02*
X142894047Y-89731904D01*
X142817857Y-89846190D01*
X142741666Y-89922380D01*
X142665476Y-89960476D01*
X143884523Y-90531904D02*
X143427380Y-90531904D01*
X143655952Y-90531904D02*
X143655952Y-89731904D01*
X143579761Y-89846190D01*
X143503571Y-89922380D01*
X143427380Y-89960476D01*
%TO.C,C9*%
X141155714Y-103003333D02*
X141193809Y-103041428D01*
X141231904Y-103155714D01*
X141231904Y-103231904D01*
X141193809Y-103346190D01*
X141117619Y-103422380D01*
X141041428Y-103460476D01*
X140889047Y-103498571D01*
X140774761Y-103498571D01*
X140622380Y-103460476D01*
X140546190Y-103422380D01*
X140470000Y-103346190D01*
X140431904Y-103231904D01*
X140431904Y-103155714D01*
X140470000Y-103041428D01*
X140508095Y-103003333D01*
X141231904Y-102622380D02*
X141231904Y-102470000D01*
X141193809Y-102393809D01*
X141155714Y-102355714D01*
X141041428Y-102279523D01*
X140889047Y-102241428D01*
X140584285Y-102241428D01*
X140508095Y-102279523D01*
X140470000Y-102317619D01*
X140431904Y-102393809D01*
X140431904Y-102546190D01*
X140470000Y-102622380D01*
X140508095Y-102660476D01*
X140584285Y-102698571D01*
X140774761Y-102698571D01*
X140850952Y-102660476D01*
X140889047Y-102622380D01*
X140927142Y-102546190D01*
X140927142Y-102393809D01*
X140889047Y-102317619D01*
X140850952Y-102279523D01*
X140774761Y-102241428D01*
%TO.C,C8*%
X156711666Y-103155714D02*
X156673571Y-103193809D01*
X156559285Y-103231904D01*
X156483095Y-103231904D01*
X156368809Y-103193809D01*
X156292619Y-103117619D01*
X156254523Y-103041428D01*
X156216428Y-102889047D01*
X156216428Y-102774761D01*
X156254523Y-102622380D01*
X156292619Y-102546190D01*
X156368809Y-102470000D01*
X156483095Y-102431904D01*
X156559285Y-102431904D01*
X156673571Y-102470000D01*
X156711666Y-102508095D01*
X157168809Y-102774761D02*
X157092619Y-102736666D01*
X157054523Y-102698571D01*
X157016428Y-102622380D01*
X157016428Y-102584285D01*
X157054523Y-102508095D01*
X157092619Y-102470000D01*
X157168809Y-102431904D01*
X157321190Y-102431904D01*
X157397380Y-102470000D01*
X157435476Y-102508095D01*
X157473571Y-102584285D01*
X157473571Y-102622380D01*
X157435476Y-102698571D01*
X157397380Y-102736666D01*
X157321190Y-102774761D01*
X157168809Y-102774761D01*
X157092619Y-102812857D01*
X157054523Y-102850952D01*
X157016428Y-102927142D01*
X157016428Y-103079523D01*
X157054523Y-103155714D01*
X157092619Y-103193809D01*
X157168809Y-103231904D01*
X157321190Y-103231904D01*
X157397380Y-103193809D01*
X157435476Y-103155714D01*
X157473571Y-103079523D01*
X157473571Y-102927142D01*
X157435476Y-102850952D01*
X157397380Y-102812857D01*
X157321190Y-102774761D01*
%TO.C,C7*%
X156495714Y-92843333D02*
X156533809Y-92881428D01*
X156571904Y-92995714D01*
X156571904Y-93071904D01*
X156533809Y-93186190D01*
X156457619Y-93262380D01*
X156381428Y-93300476D01*
X156229047Y-93338571D01*
X156114761Y-93338571D01*
X155962380Y-93300476D01*
X155886190Y-93262380D01*
X155810000Y-93186190D01*
X155771904Y-93071904D01*
X155771904Y-92995714D01*
X155810000Y-92881428D01*
X155848095Y-92843333D01*
X155771904Y-92576666D02*
X155771904Y-92043333D01*
X156571904Y-92386190D01*
%TO.C,C5*%
X144646666Y-106865714D02*
X144608571Y-106903809D01*
X144494285Y-106941904D01*
X144418095Y-106941904D01*
X144303809Y-106903809D01*
X144227619Y-106827619D01*
X144189523Y-106751428D01*
X144151428Y-106599047D01*
X144151428Y-106484761D01*
X144189523Y-106332380D01*
X144227619Y-106256190D01*
X144303809Y-106180000D01*
X144418095Y-106141904D01*
X144494285Y-106141904D01*
X144608571Y-106180000D01*
X144646666Y-106218095D01*
X145370476Y-106141904D02*
X144989523Y-106141904D01*
X144951428Y-106522857D01*
X144989523Y-106484761D01*
X145065714Y-106446666D01*
X145256190Y-106446666D01*
X145332380Y-106484761D01*
X145370476Y-106522857D01*
X145408571Y-106599047D01*
X145408571Y-106789523D01*
X145370476Y-106865714D01*
X145332380Y-106903809D01*
X145256190Y-106941904D01*
X145065714Y-106941904D01*
X144989523Y-106903809D01*
X144951428Y-106865714D01*
%TO.C,D2*%
X169906904Y-92030476D02*
X169106904Y-92030476D01*
X169106904Y-91840000D01*
X169145000Y-91725714D01*
X169221190Y-91649523D01*
X169297380Y-91611428D01*
X169449761Y-91573333D01*
X169564047Y-91573333D01*
X169716428Y-91611428D01*
X169792619Y-91649523D01*
X169868809Y-91725714D01*
X169906904Y-91840000D01*
X169906904Y-92030476D01*
X169183095Y-91268571D02*
X169145000Y-91230476D01*
X169106904Y-91154285D01*
X169106904Y-90963809D01*
X169145000Y-90887619D01*
X169183095Y-90849523D01*
X169259285Y-90811428D01*
X169335476Y-90811428D01*
X169449761Y-90849523D01*
X169906904Y-91306666D01*
X169906904Y-90811428D01*
X164587380Y-95939285D02*
X164587380Y-96510714D01*
X164587380Y-96225000D02*
X163587380Y-96225000D01*
X163730238Y-96320238D01*
X163825476Y-96415476D01*
X163873095Y-96510714D01*
%TO.C,J5*%
X159118333Y-87401904D02*
X159118333Y-87973333D01*
X159080238Y-88087619D01*
X159004047Y-88163809D01*
X158889761Y-88201904D01*
X158813571Y-88201904D01*
X159880238Y-87401904D02*
X159499285Y-87401904D01*
X159461190Y-87782857D01*
X159499285Y-87744761D01*
X159575476Y-87706666D01*
X159765952Y-87706666D01*
X159842142Y-87744761D01*
X159880238Y-87782857D01*
X159918333Y-87859047D01*
X159918333Y-88049523D01*
X159880238Y-88125714D01*
X159842142Y-88163809D01*
X159765952Y-88201904D01*
X159575476Y-88201904D01*
X159499285Y-88163809D01*
X159461190Y-88125714D01*
%TO.C,J1*%
X167899404Y-97421666D02*
X168470833Y-97421666D01*
X168585119Y-97459761D01*
X168661309Y-97535952D01*
X168699404Y-97650238D01*
X168699404Y-97726428D01*
X168699404Y-96621666D02*
X168699404Y-97078809D01*
X168699404Y-96850238D02*
X167899404Y-96850238D01*
X168013690Y-96926428D01*
X168089880Y-97002619D01*
X168127976Y-97078809D01*
%TO.C,U1*%
X161613904Y-99669523D02*
X162261523Y-99669523D01*
X162337714Y-99631428D01*
X162375809Y-99593333D01*
X162413904Y-99517142D01*
X162413904Y-99364761D01*
X162375809Y-99288571D01*
X162337714Y-99250476D01*
X162261523Y-99212380D01*
X161613904Y-99212380D01*
X162413904Y-98412380D02*
X162413904Y-98869523D01*
X162413904Y-98640952D02*
X161613904Y-98640952D01*
X161728190Y-98717142D01*
X161804380Y-98793333D01*
X161842476Y-98869523D01*
%TO.C,C4*%
X166871666Y-96805714D02*
X166833571Y-96843809D01*
X166719285Y-96881904D01*
X166643095Y-96881904D01*
X166528809Y-96843809D01*
X166452619Y-96767619D01*
X166414523Y-96691428D01*
X166376428Y-96539047D01*
X166376428Y-96424761D01*
X166414523Y-96272380D01*
X166452619Y-96196190D01*
X166528809Y-96120000D01*
X166643095Y-96081904D01*
X166719285Y-96081904D01*
X166833571Y-96120000D01*
X166871666Y-96158095D01*
X167557380Y-96348571D02*
X167557380Y-96881904D01*
X167366904Y-96043809D02*
X167176428Y-96615238D01*
X167671666Y-96615238D01*
%TO.C,C3*%
X158655714Y-101733333D02*
X158693809Y-101771428D01*
X158731904Y-101885714D01*
X158731904Y-101961904D01*
X158693809Y-102076190D01*
X158617619Y-102152380D01*
X158541428Y-102190476D01*
X158389047Y-102228571D01*
X158274761Y-102228571D01*
X158122380Y-102190476D01*
X158046190Y-102152380D01*
X157970000Y-102076190D01*
X157931904Y-101961904D01*
X157931904Y-101885714D01*
X157970000Y-101771428D01*
X158008095Y-101733333D01*
X157931904Y-101466666D02*
X157931904Y-100971428D01*
X158236666Y-101238095D01*
X158236666Y-101123809D01*
X158274761Y-101047619D01*
X158312857Y-101009523D01*
X158389047Y-100971428D01*
X158579523Y-100971428D01*
X158655714Y-101009523D01*
X158693809Y-101047619D01*
X158731904Y-101123809D01*
X158731904Y-101352380D01*
X158693809Y-101428571D01*
X158655714Y-101466666D01*
%TO.C,C2*%
X158781714Y-105543333D02*
X158819809Y-105581428D01*
X158857904Y-105695714D01*
X158857904Y-105771904D01*
X158819809Y-105886190D01*
X158743619Y-105962380D01*
X158667428Y-106000476D01*
X158515047Y-106038571D01*
X158400761Y-106038571D01*
X158248380Y-106000476D01*
X158172190Y-105962380D01*
X158096000Y-105886190D01*
X158057904Y-105771904D01*
X158057904Y-105695714D01*
X158096000Y-105581428D01*
X158134095Y-105543333D01*
X158134095Y-105238571D02*
X158096000Y-105200476D01*
X158057904Y-105124285D01*
X158057904Y-104933809D01*
X158096000Y-104857619D01*
X158134095Y-104819523D01*
X158210285Y-104781428D01*
X158286476Y-104781428D01*
X158400761Y-104819523D01*
X158857904Y-105276666D01*
X158857904Y-104781428D01*
%TO.C,C1*%
X174275714Y-106813333D02*
X174313809Y-106851428D01*
X174351904Y-106965714D01*
X174351904Y-107041904D01*
X174313809Y-107156190D01*
X174237619Y-107232380D01*
X174161428Y-107270476D01*
X174009047Y-107308571D01*
X173894761Y-107308571D01*
X173742380Y-107270476D01*
X173666190Y-107232380D01*
X173590000Y-107156190D01*
X173551904Y-107041904D01*
X173551904Y-106965714D01*
X173590000Y-106851428D01*
X173628095Y-106813333D01*
X174351904Y-106051428D02*
X174351904Y-106508571D01*
X174351904Y-106280000D02*
X173551904Y-106280000D01*
X173666190Y-106356190D01*
X173742380Y-106432380D01*
X173780476Y-106508571D01*
%TO.C,Y1*%
X136505952Y-96265952D02*
X136886904Y-96265952D01*
X136086904Y-96532619D02*
X136505952Y-96265952D01*
X136086904Y-95999285D01*
X136886904Y-95313571D02*
X136886904Y-95770714D01*
X136886904Y-95542142D02*
X136086904Y-95542142D01*
X136201190Y-95618333D01*
X136277380Y-95694523D01*
X136315476Y-95770714D01*
%TO.C,U2*%
X147555476Y-89826904D02*
X147555476Y-90474523D01*
X147593571Y-90550714D01*
X147631666Y-90588809D01*
X147707857Y-90626904D01*
X147860238Y-90626904D01*
X147936428Y-90588809D01*
X147974523Y-90550714D01*
X148012619Y-90474523D01*
X148012619Y-89826904D01*
X148355476Y-89903095D02*
X148393571Y-89865000D01*
X148469761Y-89826904D01*
X148660238Y-89826904D01*
X148736428Y-89865000D01*
X148774523Y-89903095D01*
X148812619Y-89979285D01*
X148812619Y-90055476D01*
X148774523Y-90169761D01*
X148317380Y-90626904D01*
X148812619Y-90626904D01*
%TD*%
M02*
