%TF.GenerationSoftware,KiCad,Pcbnew,5.1.6+dfsg1-1*%
%TF.CreationDate,2020-06-20T08:37:57+08:00*%
%TF.ProjectId,stm32dev,73746d33-3264-4657-962e-6b696361645f,rev?*%
%TF.SameCoordinates,Original*%
%TF.FileFunction,Copper,L2,Bot*%
%TF.FilePolarity,Positive*%
%FSLAX46Y46*%
G04 Gerber Fmt 4.6, Leading zero omitted, Abs format (unit mm)*
G04 Created by KiCad (PCBNEW 5.1.6+dfsg1-1) date 2020-06-20 08:37:57*
%MOMM*%
%LPD*%
G01*
G04 APERTURE LIST*
%TA.AperFunction,ComponentPad*%
%ADD10O,1.700000X1.700000*%
%TD*%
%TA.AperFunction,ComponentPad*%
%ADD11R,1.700000X1.700000*%
%TD*%
%TA.AperFunction,SMDPad,CuDef*%
%ADD12R,1.550000X1.000000*%
%TD*%
%TA.AperFunction,SMDPad,CuDef*%
%ADD13R,1.500000X1.500000*%
%TD*%
%TA.AperFunction,SMDPad,CuDef*%
%ADD14R,1.750000X0.700000*%
%TD*%
%TA.AperFunction,SMDPad,CuDef*%
%ADD15R,1.400000X0.800000*%
%TD*%
%TA.AperFunction,SMDPad,CuDef*%
%ADD16R,1.000000X1.450000*%
%TD*%
%TA.AperFunction,SMDPad,CuDef*%
%ADD17R,1.500000X0.800000*%
%TD*%
%TA.AperFunction,SMDPad,CuDef*%
%ADD18R,1.500000X1.300000*%
%TD*%
%TA.AperFunction,ComponentPad*%
%ADD19O,1.900000X1.200000*%
%TD*%
%TA.AperFunction,ComponentPad*%
%ADD20C,1.450000*%
%TD*%
%TA.AperFunction,ViaPad*%
%ADD21C,0.700000*%
%TD*%
%TA.AperFunction,Conductor*%
%ADD22C,0.381000*%
%TD*%
%TA.AperFunction,Conductor*%
%ADD23C,0.228600*%
%TD*%
%TA.AperFunction,Conductor*%
%ADD24C,0.152400*%
%TD*%
G04 APERTURE END LIST*
D10*
%TO.P,J5,6*%
%TO.N,0*%
X160655000Y-95250000D03*
%TO.P,J5,5*%
%TO.N,GND*%
X158115000Y-95250000D03*
%TO.P,J5,4*%
%TO.N,RXD*%
X160655000Y-92710000D03*
%TO.P,J5,3*%
%TO.N,TXD*%
X158115000Y-92710000D03*
%TO.P,J5,2*%
%TO.N,Net-(D3-Pad2)*%
X160655000Y-90170000D03*
D11*
%TO.P,J5,1*%
%TO.N,EN*%
X158115000Y-90170000D03*
%TD*%
D12*
%TO.P,J2,10*%
%TO.N,SD_DET*%
X147690000Y-91580000D03*
D13*
%TO.P,J2,11*%
%TO.N,GND*%
X137015000Y-91530000D03*
D14*
%TO.P,J2,1*%
%TO.N,SD_D2*%
X136890000Y-93980000D03*
%TO.P,J2,2*%
%TO.N,SD_D3*%
X136890000Y-95080000D03*
%TO.P,J2,3*%
%TO.N,SD_CMD*%
X136890000Y-96180000D03*
%TO.P,J2,4*%
%TO.N,VCC*%
X136890000Y-97280000D03*
%TO.P,J2,5*%
%TO.N,SD_CLK*%
X136890000Y-98380000D03*
%TO.P,J2,6*%
%TO.N,GND*%
X136890000Y-99480000D03*
%TO.P,J2,7*%
%TO.N,SD_D0*%
X136890000Y-100580000D03*
D15*
%TO.P,J2,11*%
%TO.N,GND*%
X145265000Y-91180000D03*
D16*
%TO.P,J2,9*%
X146115000Y-102805000D03*
D17*
%TO.P,J2,11*%
X144615000Y-103130000D03*
D18*
X137015000Y-102880000D03*
D14*
%TO.P,J2,8*%
%TO.N,SD_D1*%
X136890000Y-101680000D03*
%TD*%
D10*
%TO.P,J4,15*%
%TO.N,GND*%
X172720000Y-86360000D03*
%TO.P,J4,14*%
%TO.N,PB12_CAN2_RX*%
X170180000Y-86360000D03*
%TO.P,J4,13*%
%TO.N,PB13_CAN2_TX*%
X167640000Y-86360000D03*
%TO.P,J4,12*%
%TO.N,PC6*%
X165100000Y-86360000D03*
%TO.P,J4,11*%
%TO.N,PC7*%
X162560000Y-86360000D03*
%TO.P,J4,10*%
%TO.N,PA13_JMS*%
X160020000Y-86360000D03*
%TO.P,J4,9*%
%TO.N,PA14_JCLK*%
X157480000Y-86360000D03*
%TO.P,J4,8*%
%TO.N,PA15_JDI*%
X154940000Y-86360000D03*
%TO.P,J4,7*%
%TO.N,PB3_JDO*%
X152400000Y-86360000D03*
%TO.P,J4,6*%
%TO.N,PB4_JRST*%
X149860000Y-86360000D03*
%TO.P,J4,5*%
%TO.N,PB6_SCL*%
X147320000Y-86360000D03*
%TO.P,J4,4*%
%TO.N,PB7_SDA*%
X144780000Y-86360000D03*
%TO.P,J4,3*%
%TO.N,PB8_CAN1_TX*%
X142240000Y-86360000D03*
%TO.P,J4,2*%
%TO.N,PB9_CAN1_RX*%
X139700000Y-86360000D03*
D11*
%TO.P,J4,1*%
%TO.N,GND*%
X137160000Y-86360000D03*
%TD*%
D10*
%TO.P,J3,15*%
%TO.N,GND*%
X172720000Y-109220000D03*
%TO.P,J3,14*%
%TO.N,VBUS*%
X170180000Y-109220000D03*
%TO.P,J3,13*%
%TO.N,VCC*%
X167640000Y-109220000D03*
%TO.P,J3,12*%
%TO.N,PA7_AI1*%
X165100000Y-109220000D03*
%TO.P,J3,11*%
%TO.N,PA6_AI0*%
X162560000Y-109220000D03*
%TO.P,J3,10*%
%TO.N,PA5_AO1*%
X160020000Y-109220000D03*
%TO.P,J3,9*%
%TO.N,PA4_AO0*%
X157480000Y-109220000D03*
%TO.P,J3,8*%
%TO.N,PA3_U2_RX*%
X154940000Y-109220000D03*
%TO.P,J3,7*%
%TO.N,PA2_U2_TX*%
X152400000Y-109220000D03*
%TO.P,J3,6*%
%TO.N,PA1*%
X149860000Y-109220000D03*
%TO.P,J3,5*%
%TO.N,PA0*%
X147320000Y-109220000D03*
%TO.P,J3,4*%
%TO.N,PB10_SCK*%
X144780000Y-109220000D03*
%TO.P,J3,3*%
%TO.N,PC3_MOSI*%
X142240000Y-109220000D03*
%TO.P,J3,2*%
%TO.N,PC2_MISO*%
X139700000Y-109220000D03*
D11*
%TO.P,J3,1*%
%TO.N,GND*%
X137160000Y-109220000D03*
%TD*%
D19*
%TO.P,J1,6*%
%TO.N,GND*%
X172687500Y-93655000D03*
X172687500Y-100655000D03*
D20*
X169987500Y-94655000D03*
X169987500Y-99655000D03*
%TD*%
D21*
%TO.N,GND*%
X144780000Y-99695000D03*
X157480000Y-104775000D03*
X157480000Y-102235000D03*
X151765000Y-100965000D03*
X149860000Y-98425000D03*
X156845000Y-88265000D03*
X154305000Y-91440000D03*
X143510000Y-104775000D03*
X143510000Y-106045000D03*
X139700000Y-104775000D03*
X139700000Y-106045000D03*
%TO.N,VBUS*%
X171450000Y-90805000D03*
X171450000Y-104775000D03*
%TO.N,VCC*%
X165100000Y-100965000D03*
X163195000Y-100965000D03*
X167005000Y-100965000D03*
X167005000Y-102870000D03*
X165100000Y-102870000D03*
X163195000Y-102870000D03*
X165735000Y-93980000D03*
X144780000Y-97790000D03*
X144780000Y-96170000D03*
%TO.N,0*%
X146400000Y-93310000D03*
%TO.N,RGB*%
X156210000Y-94615000D03*
X164465000Y-91440000D03*
%TO.N,SD_DET*%
X147910000Y-89880000D03*
%TO.N,SD_D2*%
X151703290Y-93387963D03*
%TO.N,SD_D3*%
X151676090Y-94239941D03*
%TO.N,SD_CMD*%
X149327642Y-94988349D03*
%TO.N,SD_CLK*%
X150179986Y-94977721D03*
%TO.N,SD_D0*%
X151111710Y-98440000D03*
%TO.N,SD_D1*%
X151930000Y-97798290D03*
%TO.N,PB12_CAN2_RX*%
X156845000Y-101600000D03*
%TO.N,PB13_CAN2_TX*%
X156845000Y-100330000D03*
%TO.N,PB10_SCK*%
X150410000Y-101880000D03*
%TO.N,Net-(D3-Pad2)*%
X165735000Y-90170000D03*
%TD*%
D22*
%TO.N,VBUS*%
X171100001Y-104425001D02*
X171450000Y-104775000D01*
X171100001Y-91154999D02*
X171100001Y-104425001D01*
X171450000Y-90805000D02*
X171100001Y-91154999D01*
%TO.N,VCC*%
X165100000Y-94615000D02*
X165100000Y-100965000D01*
X165735000Y-93980000D02*
X165100000Y-94615000D01*
D23*
X143635000Y-97280000D02*
X144145000Y-97790000D01*
X136890000Y-97280000D02*
X143635000Y-97280000D01*
X144145000Y-97790000D02*
X144780000Y-97790000D01*
X144780000Y-97790000D02*
X144780000Y-96170000D01*
%TO.N,0*%
X146400000Y-93310000D02*
X147120000Y-92590000D01*
X157578983Y-93826701D02*
X159231701Y-93826701D01*
X159231701Y-93826701D02*
X160655000Y-95250000D01*
X156342282Y-92590000D02*
X157578983Y-93826701D01*
X147120000Y-92590000D02*
X156342282Y-92590000D01*
%TO.N,RGB*%
X156210000Y-95109974D02*
X158255026Y-97155000D01*
X156210000Y-94615000D02*
X156210000Y-95109974D01*
X161771701Y-95786017D02*
X161771701Y-94133299D01*
X161191017Y-96366701D02*
X161771701Y-95786017D01*
X158255026Y-97155000D02*
X159043325Y-96366701D01*
X161771701Y-94133299D02*
X164465000Y-91440000D01*
X159043325Y-96366701D02*
X161191017Y-96366701D01*
%TO.N,SD_DET*%
X147910000Y-91360000D02*
X147690000Y-91580000D01*
X147910000Y-89880000D02*
X147910000Y-91360000D01*
%TO.N,SD_D2*%
X151587157Y-93387963D02*
X151703290Y-93387963D01*
X136890000Y-93980000D02*
X150995120Y-93980000D01*
X150995120Y-93980000D02*
X151587157Y-93387963D01*
%TO.N,SD_D3*%
X148363830Y-95080000D02*
X149082819Y-94361011D01*
X151555020Y-94361011D02*
X151676090Y-94239941D01*
X136890000Y-95080000D02*
X148363830Y-95080000D01*
X149082819Y-94361011D02*
X151555020Y-94361011D01*
%TO.N,SD_CMD*%
X136890000Y-96180000D02*
X143857282Y-96180000D01*
X143857282Y-96180000D02*
X144483983Y-95553299D01*
X144483983Y-95553299D02*
X148762692Y-95553299D01*
X148762692Y-95553299D02*
X149327642Y-94988349D01*
%TO.N,SD_CLK*%
X147245979Y-98406702D02*
X150179986Y-95472695D01*
X136890000Y-98380000D02*
X136916702Y-98406702D01*
X136916702Y-98406702D02*
X147245979Y-98406702D01*
X150179986Y-95472695D02*
X150179986Y-94977721D01*
%TO.N,SD_D0*%
X136890000Y-100580000D02*
X148971710Y-100580000D01*
X148971710Y-100580000D02*
X151111710Y-98440000D01*
%TO.N,SD_D1*%
X151930000Y-98499428D02*
X151930000Y-97798290D01*
X148749428Y-101680000D02*
X151930000Y-98499428D01*
X136890000Y-101680000D02*
X148749428Y-101680000D01*
%TO.N,PB12_CAN2_RX*%
X170180000Y-88265000D02*
X170180000Y-86360000D01*
X162533723Y-95911277D02*
X170180000Y-88265000D01*
X162533723Y-96406251D02*
X162533723Y-95911277D01*
X157339974Y-101600000D02*
X162533723Y-96406251D01*
X156845000Y-101600000D02*
X157339974Y-101600000D01*
%TO.N,PB13_CAN2_TX*%
X167640000Y-90073830D02*
X167640000Y-86360000D01*
X162152712Y-95561118D02*
X167640000Y-90073830D01*
X162152712Y-95943836D02*
X162152712Y-95561118D01*
X157766548Y-100330000D02*
X162152712Y-95943836D01*
X156845000Y-100330000D02*
X157766548Y-100330000D01*
%TO.N,PB10_SCK*%
X150410000Y-103590000D02*
X144780000Y-109220000D01*
X150410000Y-101880000D02*
X150410000Y-103590000D01*
D22*
%TO.N,Net-(D3-Pad2)*%
X160655000Y-90170000D02*
X165735000Y-90170000D01*
%TD*%
D24*
%TO.N,GND*%
G36*
X173552186Y-84729151D02*
G01*
X173741854Y-84786415D01*
X173916795Y-84879433D01*
X174070334Y-85004656D01*
X174196626Y-85157317D01*
X174290861Y-85331602D01*
X174349449Y-85520866D01*
X174371400Y-85729721D01*
X174371401Y-109842583D01*
X174350849Y-110052186D01*
X174293584Y-110241856D01*
X174200566Y-110416797D01*
X174075344Y-110570334D01*
X173922683Y-110696626D01*
X173748398Y-110790861D01*
X173559134Y-110849449D01*
X173350279Y-110871400D01*
X136537406Y-110871400D01*
X136327814Y-110850849D01*
X136138144Y-110793584D01*
X135963203Y-110700566D01*
X135809666Y-110575344D01*
X135683374Y-110422683D01*
X135589139Y-110248398D01*
X135533915Y-110070000D01*
X136080294Y-110070000D01*
X136084708Y-110114813D01*
X136097779Y-110157905D01*
X136119006Y-110197618D01*
X136147573Y-110232427D01*
X136182382Y-110260994D01*
X136222095Y-110282221D01*
X136265187Y-110295292D01*
X136310000Y-110299706D01*
X137026650Y-110298600D01*
X137083800Y-110241450D01*
X137083800Y-109296200D01*
X137236200Y-109296200D01*
X137236200Y-110241450D01*
X137293350Y-110298600D01*
X138010000Y-110299706D01*
X138054813Y-110295292D01*
X138097905Y-110282221D01*
X138137618Y-110260994D01*
X138172427Y-110232427D01*
X138200994Y-110197618D01*
X138222221Y-110157905D01*
X138235292Y-110114813D01*
X138239706Y-110070000D01*
X138238600Y-109353350D01*
X138181450Y-109296200D01*
X137236200Y-109296200D01*
X137083800Y-109296200D01*
X136138550Y-109296200D01*
X136081400Y-109353350D01*
X136080294Y-110070000D01*
X135533915Y-110070000D01*
X135530551Y-110059134D01*
X135508600Y-109850279D01*
X135508600Y-108370000D01*
X136080294Y-108370000D01*
X136081400Y-109086650D01*
X136138550Y-109143800D01*
X137083800Y-109143800D01*
X137083800Y-108198550D01*
X137236200Y-108198550D01*
X137236200Y-109143800D01*
X138181450Y-109143800D01*
X138211483Y-109113767D01*
X138621400Y-109113767D01*
X138621400Y-109326233D01*
X138662850Y-109534616D01*
X138744157Y-109730909D01*
X138862197Y-109907567D01*
X139012433Y-110057803D01*
X139189091Y-110175843D01*
X139385384Y-110257150D01*
X139593767Y-110298600D01*
X139806233Y-110298600D01*
X140014616Y-110257150D01*
X140210909Y-110175843D01*
X140387567Y-110057803D01*
X140537803Y-109907567D01*
X140655843Y-109730909D01*
X140737150Y-109534616D01*
X140778600Y-109326233D01*
X140778600Y-109113767D01*
X141161400Y-109113767D01*
X141161400Y-109326233D01*
X141202850Y-109534616D01*
X141284157Y-109730909D01*
X141402197Y-109907567D01*
X141552433Y-110057803D01*
X141729091Y-110175843D01*
X141925384Y-110257150D01*
X142133767Y-110298600D01*
X142346233Y-110298600D01*
X142554616Y-110257150D01*
X142750909Y-110175843D01*
X142927567Y-110057803D01*
X143077803Y-109907567D01*
X143195843Y-109730909D01*
X143277150Y-109534616D01*
X143318600Y-109326233D01*
X143318600Y-109113767D01*
X143701400Y-109113767D01*
X143701400Y-109326233D01*
X143742850Y-109534616D01*
X143824157Y-109730909D01*
X143942197Y-109907567D01*
X144092433Y-110057803D01*
X144269091Y-110175843D01*
X144465384Y-110257150D01*
X144673767Y-110298600D01*
X144886233Y-110298600D01*
X145094616Y-110257150D01*
X145290909Y-110175843D01*
X145467567Y-110057803D01*
X145617803Y-109907567D01*
X145735843Y-109730909D01*
X145817150Y-109534616D01*
X145858600Y-109326233D01*
X145858600Y-109113767D01*
X146241400Y-109113767D01*
X146241400Y-109326233D01*
X146282850Y-109534616D01*
X146364157Y-109730909D01*
X146482197Y-109907567D01*
X146632433Y-110057803D01*
X146809091Y-110175843D01*
X147005384Y-110257150D01*
X147213767Y-110298600D01*
X147426233Y-110298600D01*
X147634616Y-110257150D01*
X147830909Y-110175843D01*
X148007567Y-110057803D01*
X148157803Y-109907567D01*
X148275843Y-109730909D01*
X148357150Y-109534616D01*
X148398600Y-109326233D01*
X148398600Y-109113767D01*
X148781400Y-109113767D01*
X148781400Y-109326233D01*
X148822850Y-109534616D01*
X148904157Y-109730909D01*
X149022197Y-109907567D01*
X149172433Y-110057803D01*
X149349091Y-110175843D01*
X149545384Y-110257150D01*
X149753767Y-110298600D01*
X149966233Y-110298600D01*
X150174616Y-110257150D01*
X150370909Y-110175843D01*
X150547567Y-110057803D01*
X150697803Y-109907567D01*
X150815843Y-109730909D01*
X150897150Y-109534616D01*
X150938600Y-109326233D01*
X150938600Y-109113767D01*
X151321400Y-109113767D01*
X151321400Y-109326233D01*
X151362850Y-109534616D01*
X151444157Y-109730909D01*
X151562197Y-109907567D01*
X151712433Y-110057803D01*
X151889091Y-110175843D01*
X152085384Y-110257150D01*
X152293767Y-110298600D01*
X152506233Y-110298600D01*
X152714616Y-110257150D01*
X152910909Y-110175843D01*
X153087567Y-110057803D01*
X153237803Y-109907567D01*
X153355843Y-109730909D01*
X153437150Y-109534616D01*
X153478600Y-109326233D01*
X153478600Y-109113767D01*
X153861400Y-109113767D01*
X153861400Y-109326233D01*
X153902850Y-109534616D01*
X153984157Y-109730909D01*
X154102197Y-109907567D01*
X154252433Y-110057803D01*
X154429091Y-110175843D01*
X154625384Y-110257150D01*
X154833767Y-110298600D01*
X155046233Y-110298600D01*
X155254616Y-110257150D01*
X155450909Y-110175843D01*
X155627567Y-110057803D01*
X155777803Y-109907567D01*
X155895843Y-109730909D01*
X155977150Y-109534616D01*
X156018600Y-109326233D01*
X156018600Y-109113767D01*
X156401400Y-109113767D01*
X156401400Y-109326233D01*
X156442850Y-109534616D01*
X156524157Y-109730909D01*
X156642197Y-109907567D01*
X156792433Y-110057803D01*
X156969091Y-110175843D01*
X157165384Y-110257150D01*
X157373767Y-110298600D01*
X157586233Y-110298600D01*
X157794616Y-110257150D01*
X157990909Y-110175843D01*
X158167567Y-110057803D01*
X158317803Y-109907567D01*
X158435843Y-109730909D01*
X158517150Y-109534616D01*
X158558600Y-109326233D01*
X158558600Y-109113767D01*
X158941400Y-109113767D01*
X158941400Y-109326233D01*
X158982850Y-109534616D01*
X159064157Y-109730909D01*
X159182197Y-109907567D01*
X159332433Y-110057803D01*
X159509091Y-110175843D01*
X159705384Y-110257150D01*
X159913767Y-110298600D01*
X160126233Y-110298600D01*
X160334616Y-110257150D01*
X160530909Y-110175843D01*
X160707567Y-110057803D01*
X160857803Y-109907567D01*
X160975843Y-109730909D01*
X161057150Y-109534616D01*
X161098600Y-109326233D01*
X161098600Y-109113767D01*
X161481400Y-109113767D01*
X161481400Y-109326233D01*
X161522850Y-109534616D01*
X161604157Y-109730909D01*
X161722197Y-109907567D01*
X161872433Y-110057803D01*
X162049091Y-110175843D01*
X162245384Y-110257150D01*
X162453767Y-110298600D01*
X162666233Y-110298600D01*
X162874616Y-110257150D01*
X163070909Y-110175843D01*
X163247567Y-110057803D01*
X163397803Y-109907567D01*
X163515843Y-109730909D01*
X163597150Y-109534616D01*
X163638600Y-109326233D01*
X163638600Y-109113767D01*
X164021400Y-109113767D01*
X164021400Y-109326233D01*
X164062850Y-109534616D01*
X164144157Y-109730909D01*
X164262197Y-109907567D01*
X164412433Y-110057803D01*
X164589091Y-110175843D01*
X164785384Y-110257150D01*
X164993767Y-110298600D01*
X165206233Y-110298600D01*
X165414616Y-110257150D01*
X165610909Y-110175843D01*
X165787567Y-110057803D01*
X165937803Y-109907567D01*
X166055843Y-109730909D01*
X166137150Y-109534616D01*
X166178600Y-109326233D01*
X166178600Y-109113767D01*
X166561400Y-109113767D01*
X166561400Y-109326233D01*
X166602850Y-109534616D01*
X166684157Y-109730909D01*
X166802197Y-109907567D01*
X166952433Y-110057803D01*
X167129091Y-110175843D01*
X167325384Y-110257150D01*
X167533767Y-110298600D01*
X167746233Y-110298600D01*
X167954616Y-110257150D01*
X168150909Y-110175843D01*
X168327567Y-110057803D01*
X168477803Y-109907567D01*
X168595843Y-109730909D01*
X168677150Y-109534616D01*
X168718600Y-109326233D01*
X168718600Y-109113767D01*
X169101400Y-109113767D01*
X169101400Y-109326233D01*
X169142850Y-109534616D01*
X169224157Y-109730909D01*
X169342197Y-109907567D01*
X169492433Y-110057803D01*
X169669091Y-110175843D01*
X169865384Y-110257150D01*
X170073767Y-110298600D01*
X170286233Y-110298600D01*
X170494616Y-110257150D01*
X170690909Y-110175843D01*
X170867567Y-110057803D01*
X171017803Y-109907567D01*
X171135843Y-109730909D01*
X171217150Y-109534616D01*
X171231281Y-109463571D01*
X171669258Y-109463571D01*
X171736966Y-109663880D01*
X171842451Y-109847131D01*
X171981660Y-110006282D01*
X172149243Y-110135217D01*
X172338760Y-110228981D01*
X172476430Y-110270739D01*
X172643800Y-110238604D01*
X172643800Y-109296200D01*
X172796200Y-109296200D01*
X172796200Y-110238604D01*
X172963570Y-110270739D01*
X173101240Y-110228981D01*
X173290757Y-110135217D01*
X173458340Y-110006282D01*
X173597549Y-109847131D01*
X173703034Y-109663880D01*
X173770742Y-109463571D01*
X173738759Y-109296200D01*
X172796200Y-109296200D01*
X172643800Y-109296200D01*
X171701241Y-109296200D01*
X171669258Y-109463571D01*
X171231281Y-109463571D01*
X171258600Y-109326233D01*
X171258600Y-109113767D01*
X171231282Y-108976429D01*
X171669258Y-108976429D01*
X171701241Y-109143800D01*
X172643800Y-109143800D01*
X172643800Y-108201396D01*
X172796200Y-108201396D01*
X172796200Y-109143800D01*
X173738759Y-109143800D01*
X173770742Y-108976429D01*
X173703034Y-108776120D01*
X173597549Y-108592869D01*
X173458340Y-108433718D01*
X173290757Y-108304783D01*
X173101240Y-108211019D01*
X172963570Y-108169261D01*
X172796200Y-108201396D01*
X172643800Y-108201396D01*
X172476430Y-108169261D01*
X172338760Y-108211019D01*
X172149243Y-108304783D01*
X171981660Y-108433718D01*
X171842451Y-108592869D01*
X171736966Y-108776120D01*
X171669258Y-108976429D01*
X171231282Y-108976429D01*
X171217150Y-108905384D01*
X171135843Y-108709091D01*
X171017803Y-108532433D01*
X170867567Y-108382197D01*
X170690909Y-108264157D01*
X170494616Y-108182850D01*
X170286233Y-108141400D01*
X170073767Y-108141400D01*
X169865384Y-108182850D01*
X169669091Y-108264157D01*
X169492433Y-108382197D01*
X169342197Y-108532433D01*
X169224157Y-108709091D01*
X169142850Y-108905384D01*
X169101400Y-109113767D01*
X168718600Y-109113767D01*
X168677150Y-108905384D01*
X168595843Y-108709091D01*
X168477803Y-108532433D01*
X168327567Y-108382197D01*
X168150909Y-108264157D01*
X167954616Y-108182850D01*
X167746233Y-108141400D01*
X167533767Y-108141400D01*
X167325384Y-108182850D01*
X167129091Y-108264157D01*
X166952433Y-108382197D01*
X166802197Y-108532433D01*
X166684157Y-108709091D01*
X166602850Y-108905384D01*
X166561400Y-109113767D01*
X166178600Y-109113767D01*
X166137150Y-108905384D01*
X166055843Y-108709091D01*
X165937803Y-108532433D01*
X165787567Y-108382197D01*
X165610909Y-108264157D01*
X165414616Y-108182850D01*
X165206233Y-108141400D01*
X164993767Y-108141400D01*
X164785384Y-108182850D01*
X164589091Y-108264157D01*
X164412433Y-108382197D01*
X164262197Y-108532433D01*
X164144157Y-108709091D01*
X164062850Y-108905384D01*
X164021400Y-109113767D01*
X163638600Y-109113767D01*
X163597150Y-108905384D01*
X163515843Y-108709091D01*
X163397803Y-108532433D01*
X163247567Y-108382197D01*
X163070909Y-108264157D01*
X162874616Y-108182850D01*
X162666233Y-108141400D01*
X162453767Y-108141400D01*
X162245384Y-108182850D01*
X162049091Y-108264157D01*
X161872433Y-108382197D01*
X161722197Y-108532433D01*
X161604157Y-108709091D01*
X161522850Y-108905384D01*
X161481400Y-109113767D01*
X161098600Y-109113767D01*
X161057150Y-108905384D01*
X160975843Y-108709091D01*
X160857803Y-108532433D01*
X160707567Y-108382197D01*
X160530909Y-108264157D01*
X160334616Y-108182850D01*
X160126233Y-108141400D01*
X159913767Y-108141400D01*
X159705384Y-108182850D01*
X159509091Y-108264157D01*
X159332433Y-108382197D01*
X159182197Y-108532433D01*
X159064157Y-108709091D01*
X158982850Y-108905384D01*
X158941400Y-109113767D01*
X158558600Y-109113767D01*
X158517150Y-108905384D01*
X158435843Y-108709091D01*
X158317803Y-108532433D01*
X158167567Y-108382197D01*
X157990909Y-108264157D01*
X157794616Y-108182850D01*
X157586233Y-108141400D01*
X157373767Y-108141400D01*
X157165384Y-108182850D01*
X156969091Y-108264157D01*
X156792433Y-108382197D01*
X156642197Y-108532433D01*
X156524157Y-108709091D01*
X156442850Y-108905384D01*
X156401400Y-109113767D01*
X156018600Y-109113767D01*
X155977150Y-108905384D01*
X155895843Y-108709091D01*
X155777803Y-108532433D01*
X155627567Y-108382197D01*
X155450909Y-108264157D01*
X155254616Y-108182850D01*
X155046233Y-108141400D01*
X154833767Y-108141400D01*
X154625384Y-108182850D01*
X154429091Y-108264157D01*
X154252433Y-108382197D01*
X154102197Y-108532433D01*
X153984157Y-108709091D01*
X153902850Y-108905384D01*
X153861400Y-109113767D01*
X153478600Y-109113767D01*
X153437150Y-108905384D01*
X153355843Y-108709091D01*
X153237803Y-108532433D01*
X153087567Y-108382197D01*
X152910909Y-108264157D01*
X152714616Y-108182850D01*
X152506233Y-108141400D01*
X152293767Y-108141400D01*
X152085384Y-108182850D01*
X151889091Y-108264157D01*
X151712433Y-108382197D01*
X151562197Y-108532433D01*
X151444157Y-108709091D01*
X151362850Y-108905384D01*
X151321400Y-109113767D01*
X150938600Y-109113767D01*
X150897150Y-108905384D01*
X150815843Y-108709091D01*
X150697803Y-108532433D01*
X150547567Y-108382197D01*
X150370909Y-108264157D01*
X150174616Y-108182850D01*
X149966233Y-108141400D01*
X149753767Y-108141400D01*
X149545384Y-108182850D01*
X149349091Y-108264157D01*
X149172433Y-108382197D01*
X149022197Y-108532433D01*
X148904157Y-108709091D01*
X148822850Y-108905384D01*
X148781400Y-109113767D01*
X148398600Y-109113767D01*
X148357150Y-108905384D01*
X148275843Y-108709091D01*
X148157803Y-108532433D01*
X148007567Y-108382197D01*
X147830909Y-108264157D01*
X147634616Y-108182850D01*
X147426233Y-108141400D01*
X147213767Y-108141400D01*
X147005384Y-108182850D01*
X146809091Y-108264157D01*
X146632433Y-108382197D01*
X146482197Y-108532433D01*
X146364157Y-108709091D01*
X146282850Y-108905384D01*
X146241400Y-109113767D01*
X145858600Y-109113767D01*
X145817150Y-108905384D01*
X145747558Y-108737375D01*
X150640557Y-103844377D01*
X150653640Y-103833640D01*
X150696490Y-103781427D01*
X150728331Y-103721857D01*
X150747938Y-103657220D01*
X150752900Y-103606843D01*
X150752900Y-103606836D01*
X150754558Y-103590001D01*
X150752900Y-103573166D01*
X150752900Y-102346758D01*
X150778836Y-102329428D01*
X150859428Y-102248836D01*
X150922749Y-102154070D01*
X150966365Y-102048772D01*
X150988600Y-101936987D01*
X150988600Y-101823013D01*
X150966365Y-101711228D01*
X150922749Y-101605930D01*
X150859428Y-101511164D01*
X150778836Y-101430572D01*
X150684070Y-101367251D01*
X150578772Y-101323635D01*
X150466987Y-101301400D01*
X150353013Y-101301400D01*
X150241228Y-101323635D01*
X150135930Y-101367251D01*
X150041164Y-101430572D01*
X149960572Y-101511164D01*
X149897251Y-101605930D01*
X149853635Y-101711228D01*
X149831400Y-101823013D01*
X149831400Y-101936987D01*
X149853635Y-102048772D01*
X149897251Y-102154070D01*
X149960572Y-102248836D01*
X150041164Y-102329428D01*
X150067100Y-102346758D01*
X150067101Y-103447965D01*
X145262625Y-108252442D01*
X145094616Y-108182850D01*
X144886233Y-108141400D01*
X144673767Y-108141400D01*
X144465384Y-108182850D01*
X144269091Y-108264157D01*
X144092433Y-108382197D01*
X143942197Y-108532433D01*
X143824157Y-108709091D01*
X143742850Y-108905384D01*
X143701400Y-109113767D01*
X143318600Y-109113767D01*
X143277150Y-108905384D01*
X143195843Y-108709091D01*
X143077803Y-108532433D01*
X142927567Y-108382197D01*
X142750909Y-108264157D01*
X142554616Y-108182850D01*
X142346233Y-108141400D01*
X142133767Y-108141400D01*
X141925384Y-108182850D01*
X141729091Y-108264157D01*
X141552433Y-108382197D01*
X141402197Y-108532433D01*
X141284157Y-108709091D01*
X141202850Y-108905384D01*
X141161400Y-109113767D01*
X140778600Y-109113767D01*
X140737150Y-108905384D01*
X140655843Y-108709091D01*
X140537803Y-108532433D01*
X140387567Y-108382197D01*
X140210909Y-108264157D01*
X140014616Y-108182850D01*
X139806233Y-108141400D01*
X139593767Y-108141400D01*
X139385384Y-108182850D01*
X139189091Y-108264157D01*
X139012433Y-108382197D01*
X138862197Y-108532433D01*
X138744157Y-108709091D01*
X138662850Y-108905384D01*
X138621400Y-109113767D01*
X138211483Y-109113767D01*
X138238600Y-109086650D01*
X138239706Y-108370000D01*
X138235292Y-108325187D01*
X138222221Y-108282095D01*
X138200994Y-108242382D01*
X138172427Y-108207573D01*
X138137618Y-108179006D01*
X138097905Y-108157779D01*
X138054813Y-108144708D01*
X138010000Y-108140294D01*
X137293350Y-108141400D01*
X137236200Y-108198550D01*
X137083800Y-108198550D01*
X137026650Y-108141400D01*
X136310000Y-108140294D01*
X136265187Y-108144708D01*
X136222095Y-108157779D01*
X136182382Y-108179006D01*
X136147573Y-108207573D01*
X136119006Y-108242382D01*
X136097779Y-108282095D01*
X136084708Y-108325187D01*
X136080294Y-108370000D01*
X135508600Y-108370000D01*
X135508600Y-103530000D01*
X136035294Y-103530000D01*
X136039708Y-103574813D01*
X136052779Y-103617905D01*
X136074006Y-103657618D01*
X136102573Y-103692427D01*
X136137382Y-103720994D01*
X136177095Y-103742221D01*
X136220187Y-103755292D01*
X136265000Y-103759706D01*
X136881650Y-103758600D01*
X136938800Y-103701450D01*
X136938800Y-102956200D01*
X137091200Y-102956200D01*
X137091200Y-103701450D01*
X137148350Y-103758600D01*
X137765000Y-103759706D01*
X137809813Y-103755292D01*
X137852905Y-103742221D01*
X137892618Y-103720994D01*
X137927427Y-103692427D01*
X137955994Y-103657618D01*
X137977221Y-103617905D01*
X137990292Y-103574813D01*
X137994706Y-103530000D01*
X143635294Y-103530000D01*
X143639708Y-103574813D01*
X143652779Y-103617905D01*
X143674006Y-103657618D01*
X143702573Y-103692427D01*
X143737382Y-103720994D01*
X143777095Y-103742221D01*
X143820187Y-103755292D01*
X143865000Y-103759706D01*
X144481650Y-103758600D01*
X144538800Y-103701450D01*
X144538800Y-103206200D01*
X143693550Y-103206200D01*
X143636400Y-103263350D01*
X143635294Y-103530000D01*
X137994706Y-103530000D01*
X137993600Y-103013350D01*
X137936450Y-102956200D01*
X137091200Y-102956200D01*
X136938800Y-102956200D01*
X136093550Y-102956200D01*
X136036400Y-103013350D01*
X136035294Y-103530000D01*
X135508600Y-103530000D01*
X135508600Y-99830000D01*
X135785294Y-99830000D01*
X135789708Y-99874813D01*
X135802779Y-99917905D01*
X135824006Y-99957618D01*
X135852573Y-99992427D01*
X135887382Y-100020994D01*
X135904231Y-100030000D01*
X135887382Y-100039006D01*
X135852573Y-100067573D01*
X135824006Y-100102382D01*
X135802779Y-100142095D01*
X135789708Y-100185187D01*
X135785294Y-100230000D01*
X135785294Y-100930000D01*
X135789708Y-100974813D01*
X135802779Y-101017905D01*
X135824006Y-101057618D01*
X135852573Y-101092427D01*
X135887382Y-101120994D01*
X135904231Y-101130000D01*
X135887382Y-101139006D01*
X135852573Y-101167573D01*
X135824006Y-101202382D01*
X135802779Y-101242095D01*
X135789708Y-101285187D01*
X135785294Y-101330000D01*
X135785294Y-102030000D01*
X135789708Y-102074813D01*
X135802779Y-102117905D01*
X135824006Y-102157618D01*
X135852573Y-102192427D01*
X135887382Y-102220994D01*
X135927095Y-102242221D01*
X135970187Y-102255292D01*
X136015000Y-102259706D01*
X136035358Y-102259706D01*
X136036400Y-102746650D01*
X136093550Y-102803800D01*
X136938800Y-102803800D01*
X136938800Y-102783800D01*
X137091200Y-102783800D01*
X137091200Y-102803800D01*
X137936450Y-102803800D01*
X137993600Y-102746650D01*
X137993635Y-102730000D01*
X143635294Y-102730000D01*
X143636400Y-102996650D01*
X143693550Y-103053800D01*
X144538800Y-103053800D01*
X144538800Y-102558550D01*
X144481650Y-102501400D01*
X143865000Y-102500294D01*
X143820187Y-102504708D01*
X143777095Y-102517779D01*
X143737382Y-102539006D01*
X143702573Y-102567573D01*
X143674006Y-102602382D01*
X143652779Y-102642095D01*
X143639708Y-102685187D01*
X143635294Y-102730000D01*
X137993635Y-102730000D01*
X137994706Y-102230000D01*
X137990292Y-102185187D01*
X137977221Y-102142095D01*
X137970756Y-102130000D01*
X137977221Y-102117905D01*
X137990292Y-102074813D01*
X137994706Y-102030000D01*
X137994706Y-102022900D01*
X145393435Y-102022900D01*
X145389708Y-102035187D01*
X145385294Y-102080000D01*
X145386084Y-102502371D01*
X145365000Y-102500294D01*
X144748350Y-102501400D01*
X144691200Y-102558550D01*
X144691200Y-103053800D01*
X144711200Y-103053800D01*
X144711200Y-103206200D01*
X144691200Y-103206200D01*
X144691200Y-103701450D01*
X144748350Y-103758600D01*
X145365000Y-103759706D01*
X145409813Y-103755292D01*
X145452905Y-103742221D01*
X145490000Y-103722393D01*
X145527095Y-103742221D01*
X145570187Y-103755292D01*
X145615000Y-103759706D01*
X145981650Y-103758600D01*
X146038800Y-103701450D01*
X146038800Y-102881200D01*
X146191200Y-102881200D01*
X146191200Y-103701450D01*
X146248350Y-103758600D01*
X146615000Y-103759706D01*
X146659813Y-103755292D01*
X146702905Y-103742221D01*
X146742618Y-103720994D01*
X146777427Y-103692427D01*
X146805994Y-103657618D01*
X146827221Y-103617905D01*
X146840292Y-103574813D01*
X146844706Y-103530000D01*
X146843600Y-102938350D01*
X146786450Y-102881200D01*
X146191200Y-102881200D01*
X146038800Y-102881200D01*
X146018800Y-102881200D01*
X146018800Y-102728800D01*
X146038800Y-102728800D01*
X146038800Y-102708800D01*
X146191200Y-102708800D01*
X146191200Y-102728800D01*
X146786450Y-102728800D01*
X146843600Y-102671650D01*
X146844706Y-102080000D01*
X146840292Y-102035187D01*
X146836565Y-102022900D01*
X148732593Y-102022900D01*
X148749428Y-102024558D01*
X148766263Y-102022900D01*
X148766271Y-102022900D01*
X148816648Y-102017938D01*
X148881285Y-101998331D01*
X148940855Y-101966490D01*
X148993068Y-101923640D01*
X149003809Y-101910552D01*
X152160562Y-98753800D01*
X152173639Y-98743068D01*
X152184372Y-98729990D01*
X152184376Y-98729986D01*
X152202071Y-98708424D01*
X152216490Y-98690855D01*
X152248331Y-98631285D01*
X152267938Y-98566648D01*
X152272900Y-98516271D01*
X152272900Y-98516264D01*
X152274558Y-98499429D01*
X152272900Y-98482594D01*
X152272900Y-98265048D01*
X152298836Y-98247718D01*
X152379428Y-98167126D01*
X152442749Y-98072360D01*
X152486365Y-97967062D01*
X152508600Y-97855277D01*
X152508600Y-97741303D01*
X152486365Y-97629518D01*
X152442749Y-97524220D01*
X152379428Y-97429454D01*
X152298836Y-97348862D01*
X152204070Y-97285541D01*
X152098772Y-97241925D01*
X151986987Y-97219690D01*
X151873013Y-97219690D01*
X151761228Y-97241925D01*
X151655930Y-97285541D01*
X151561164Y-97348862D01*
X151480572Y-97429454D01*
X151417251Y-97524220D01*
X151373635Y-97629518D01*
X151351400Y-97741303D01*
X151351400Y-97855277D01*
X151363915Y-97918194D01*
X151280482Y-97883635D01*
X151168697Y-97861400D01*
X151054723Y-97861400D01*
X150942938Y-97883635D01*
X150837640Y-97927251D01*
X150742874Y-97990572D01*
X150662282Y-98071164D01*
X150598961Y-98165930D01*
X150555345Y-98271228D01*
X150533110Y-98383013D01*
X150533110Y-98496987D01*
X150539195Y-98527581D01*
X148829677Y-100237100D01*
X137994706Y-100237100D01*
X137994706Y-100230000D01*
X137990292Y-100185187D01*
X137977221Y-100142095D01*
X137955994Y-100102382D01*
X137927427Y-100067573D01*
X137892618Y-100039006D01*
X137875769Y-100030000D01*
X137892618Y-100020994D01*
X137927427Y-99992427D01*
X137955994Y-99957618D01*
X137977221Y-99917905D01*
X137990292Y-99874813D01*
X137994706Y-99830000D01*
X137993600Y-99613350D01*
X137936450Y-99556200D01*
X136966200Y-99556200D01*
X136966200Y-99576200D01*
X136813800Y-99576200D01*
X136813800Y-99556200D01*
X135843550Y-99556200D01*
X135786400Y-99613350D01*
X135785294Y-99830000D01*
X135508600Y-99830000D01*
X135508600Y-93630000D01*
X135785294Y-93630000D01*
X135785294Y-94330000D01*
X135789708Y-94374813D01*
X135802779Y-94417905D01*
X135824006Y-94457618D01*
X135852573Y-94492427D01*
X135887382Y-94520994D01*
X135904231Y-94530000D01*
X135887382Y-94539006D01*
X135852573Y-94567573D01*
X135824006Y-94602382D01*
X135802779Y-94642095D01*
X135789708Y-94685187D01*
X135785294Y-94730000D01*
X135785294Y-95430000D01*
X135789708Y-95474813D01*
X135802779Y-95517905D01*
X135824006Y-95557618D01*
X135852573Y-95592427D01*
X135887382Y-95620994D01*
X135904231Y-95630000D01*
X135887382Y-95639006D01*
X135852573Y-95667573D01*
X135824006Y-95702382D01*
X135802779Y-95742095D01*
X135789708Y-95785187D01*
X135785294Y-95830000D01*
X135785294Y-96530000D01*
X135789708Y-96574813D01*
X135802779Y-96617905D01*
X135824006Y-96657618D01*
X135852573Y-96692427D01*
X135887382Y-96720994D01*
X135904231Y-96730000D01*
X135887382Y-96739006D01*
X135852573Y-96767573D01*
X135824006Y-96802382D01*
X135802779Y-96842095D01*
X135789708Y-96885187D01*
X135785294Y-96930000D01*
X135785294Y-97630000D01*
X135789708Y-97674813D01*
X135802779Y-97717905D01*
X135824006Y-97757618D01*
X135852573Y-97792427D01*
X135887382Y-97820994D01*
X135904231Y-97830000D01*
X135887382Y-97839006D01*
X135852573Y-97867573D01*
X135824006Y-97902382D01*
X135802779Y-97942095D01*
X135789708Y-97985187D01*
X135785294Y-98030000D01*
X135785294Y-98730000D01*
X135789708Y-98774813D01*
X135802779Y-98817905D01*
X135824006Y-98857618D01*
X135852573Y-98892427D01*
X135887382Y-98920994D01*
X135904231Y-98930000D01*
X135887382Y-98939006D01*
X135852573Y-98967573D01*
X135824006Y-99002382D01*
X135802779Y-99042095D01*
X135789708Y-99085187D01*
X135785294Y-99130000D01*
X135786400Y-99346650D01*
X135843550Y-99403800D01*
X136813800Y-99403800D01*
X136813800Y-99383800D01*
X136966200Y-99383800D01*
X136966200Y-99403800D01*
X137936450Y-99403800D01*
X137993600Y-99346650D01*
X137994706Y-99130000D01*
X137990292Y-99085187D01*
X137977221Y-99042095D01*
X137955994Y-99002382D01*
X137927427Y-98967573D01*
X137892618Y-98939006D01*
X137875769Y-98930000D01*
X137892618Y-98920994D01*
X137927427Y-98892427D01*
X137955994Y-98857618D01*
X137977221Y-98817905D01*
X137990292Y-98774813D01*
X137992775Y-98749602D01*
X147229144Y-98749602D01*
X147245979Y-98751260D01*
X147262814Y-98749602D01*
X147262822Y-98749602D01*
X147313199Y-98744640D01*
X147377836Y-98725033D01*
X147437406Y-98693192D01*
X147489619Y-98650342D01*
X147500360Y-98637254D01*
X150410548Y-95727067D01*
X150423625Y-95716335D01*
X150434358Y-95703257D01*
X150434362Y-95703253D01*
X150452854Y-95680720D01*
X150466476Y-95664122D01*
X150498317Y-95604552D01*
X150516468Y-95544714D01*
X150517924Y-95539916D01*
X150522456Y-95493899D01*
X150522886Y-95489538D01*
X150522886Y-95489531D01*
X150524544Y-95472696D01*
X150522886Y-95455861D01*
X150522886Y-95444479D01*
X150548822Y-95427149D01*
X150629414Y-95346557D01*
X150692735Y-95251791D01*
X150736351Y-95146493D01*
X150758586Y-95034708D01*
X150758586Y-94920734D01*
X150736351Y-94808949D01*
X150692843Y-94703911D01*
X151329018Y-94703911D01*
X151402020Y-94752690D01*
X151507318Y-94796306D01*
X151619103Y-94818541D01*
X151733077Y-94818541D01*
X151844862Y-94796306D01*
X151950160Y-94752690D01*
X152044926Y-94689369D01*
X152125518Y-94608777D01*
X152188839Y-94514011D01*
X152232455Y-94408713D01*
X152254690Y-94296928D01*
X152254690Y-94182954D01*
X152232455Y-94071169D01*
X152188839Y-93965871D01*
X152125518Y-93871105D01*
X152081965Y-93827552D01*
X152152718Y-93756799D01*
X152216039Y-93662033D01*
X152259655Y-93556735D01*
X152281890Y-93444950D01*
X152281890Y-93330976D01*
X152259655Y-93219191D01*
X152216039Y-93113893D01*
X152152718Y-93019127D01*
X152072126Y-92938535D01*
X152063693Y-92932900D01*
X156200249Y-92932900D01*
X157324606Y-94057258D01*
X157335343Y-94070341D01*
X157387556Y-94113191D01*
X157447126Y-94145032D01*
X157511763Y-94164639D01*
X157562140Y-94169601D01*
X157562147Y-94169601D01*
X157578982Y-94171259D01*
X157595817Y-94169601D01*
X159089668Y-94169601D01*
X159687442Y-94767375D01*
X159617850Y-94935384D01*
X159576400Y-95143767D01*
X159576400Y-95356233D01*
X159617850Y-95564616D01*
X159699157Y-95760909D01*
X159817197Y-95937567D01*
X159903431Y-96023801D01*
X159060159Y-96023801D01*
X159043324Y-96022143D01*
X159026489Y-96023801D01*
X159026482Y-96023801D01*
X158976105Y-96028763D01*
X158911468Y-96048370D01*
X158851898Y-96080211D01*
X158799685Y-96123061D01*
X158788948Y-96136144D01*
X158255026Y-96670066D01*
X157883412Y-96298452D01*
X158038800Y-96268759D01*
X158038800Y-95326200D01*
X158191200Y-95326200D01*
X158191200Y-96268759D01*
X158358571Y-96300742D01*
X158558880Y-96233034D01*
X158742131Y-96127549D01*
X158901282Y-95988340D01*
X159030217Y-95820757D01*
X159123981Y-95631240D01*
X159165739Y-95493570D01*
X159133604Y-95326200D01*
X158191200Y-95326200D01*
X158038800Y-95326200D01*
X157096396Y-95326200D01*
X157066559Y-95481600D01*
X156614112Y-95029152D01*
X156636834Y-95006430D01*
X157064261Y-95006430D01*
X157096396Y-95173800D01*
X158038800Y-95173800D01*
X158038800Y-94231241D01*
X158191200Y-94231241D01*
X158191200Y-95173800D01*
X159133604Y-95173800D01*
X159165739Y-95006430D01*
X159123981Y-94868760D01*
X159030217Y-94679243D01*
X158901282Y-94511660D01*
X158742131Y-94372451D01*
X158558880Y-94266966D01*
X158358571Y-94199258D01*
X158191200Y-94231241D01*
X158038800Y-94231241D01*
X157871429Y-94199258D01*
X157671120Y-94266966D01*
X157487869Y-94372451D01*
X157328718Y-94511660D01*
X157199783Y-94679243D01*
X157106019Y-94868760D01*
X157064261Y-95006430D01*
X156636834Y-95006430D01*
X156659428Y-94983836D01*
X156722749Y-94889070D01*
X156766365Y-94783772D01*
X156788600Y-94671987D01*
X156788600Y-94558013D01*
X156766365Y-94446228D01*
X156722749Y-94340930D01*
X156659428Y-94246164D01*
X156578836Y-94165572D01*
X156484070Y-94102251D01*
X156378772Y-94058635D01*
X156266987Y-94036400D01*
X156153013Y-94036400D01*
X156041228Y-94058635D01*
X155935930Y-94102251D01*
X155841164Y-94165572D01*
X155760572Y-94246164D01*
X155697251Y-94340930D01*
X155653635Y-94446228D01*
X155631400Y-94558013D01*
X155631400Y-94671987D01*
X155653635Y-94783772D01*
X155697251Y-94889070D01*
X155760572Y-94983836D01*
X155841164Y-95064428D01*
X155867101Y-95081759D01*
X155867101Y-95093129D01*
X155865442Y-95109974D01*
X155872062Y-95177193D01*
X155884004Y-95216559D01*
X155891670Y-95241831D01*
X155923511Y-95301401D01*
X155966361Y-95353614D01*
X155979443Y-95364350D01*
X158000652Y-97385560D01*
X158011386Y-97398640D01*
X158024466Y-97409374D01*
X158024469Y-97409377D01*
X158063599Y-97441490D01*
X158123169Y-97473331D01*
X158187806Y-97492938D01*
X158255026Y-97499559D01*
X158322246Y-97492938D01*
X158386883Y-97473331D01*
X158446452Y-97441490D01*
X158498666Y-97398640D01*
X158509406Y-97385553D01*
X159185359Y-96709601D01*
X160902014Y-96709601D01*
X157624515Y-99987100D01*
X157311758Y-99987100D01*
X157294428Y-99961164D01*
X157213836Y-99880572D01*
X157119070Y-99817251D01*
X157013772Y-99773635D01*
X156901987Y-99751400D01*
X156788013Y-99751400D01*
X156676228Y-99773635D01*
X156570930Y-99817251D01*
X156476164Y-99880572D01*
X156395572Y-99961164D01*
X156332251Y-100055930D01*
X156288635Y-100161228D01*
X156266400Y-100273013D01*
X156266400Y-100386987D01*
X156288635Y-100498772D01*
X156332251Y-100604070D01*
X156395572Y-100698836D01*
X156476164Y-100779428D01*
X156570930Y-100842749D01*
X156676228Y-100886365D01*
X156788013Y-100908600D01*
X156901987Y-100908600D01*
X157013772Y-100886365D01*
X157119070Y-100842749D01*
X157213836Y-100779428D01*
X157294428Y-100698836D01*
X157311758Y-100672900D01*
X157749713Y-100672900D01*
X157766548Y-100674558D01*
X157782005Y-100673036D01*
X157259152Y-101195888D01*
X157213836Y-101150572D01*
X157119070Y-101087251D01*
X157013772Y-101043635D01*
X156901987Y-101021400D01*
X156788013Y-101021400D01*
X156676228Y-101043635D01*
X156570930Y-101087251D01*
X156476164Y-101150572D01*
X156395572Y-101231164D01*
X156332251Y-101325930D01*
X156288635Y-101431228D01*
X156266400Y-101543013D01*
X156266400Y-101656987D01*
X156288635Y-101768772D01*
X156332251Y-101874070D01*
X156395572Y-101968836D01*
X156476164Y-102049428D01*
X156570930Y-102112749D01*
X156676228Y-102156365D01*
X156788013Y-102178600D01*
X156901987Y-102178600D01*
X157013772Y-102156365D01*
X157119070Y-102112749D01*
X157213836Y-102049428D01*
X157294428Y-101968836D01*
X157311758Y-101942900D01*
X157323139Y-101942900D01*
X157339974Y-101944558D01*
X157356809Y-101942900D01*
X157356817Y-101942900D01*
X157407194Y-101937938D01*
X157471831Y-101918331D01*
X157531401Y-101886490D01*
X157583614Y-101843640D01*
X157594355Y-101830552D01*
X161061400Y-98363508D01*
X161061400Y-106680000D01*
X161065792Y-106724598D01*
X161078801Y-106767481D01*
X161099926Y-106807003D01*
X161128355Y-106841645D01*
X161162997Y-106870074D01*
X161202519Y-106891199D01*
X161245402Y-106904208D01*
X161290000Y-106908600D01*
X168910000Y-106908600D01*
X168954598Y-106904208D01*
X168997481Y-106891199D01*
X169037003Y-106870074D01*
X169071645Y-106841645D01*
X169100074Y-106807003D01*
X169121199Y-106767481D01*
X169134208Y-106724598D01*
X169138600Y-106680000D01*
X169138600Y-100343747D01*
X169406516Y-100343747D01*
X169487707Y-100472546D01*
X169656805Y-100554342D01*
X169838612Y-100601576D01*
X170026141Y-100612435D01*
X170212185Y-100586499D01*
X170389595Y-100524767D01*
X170487293Y-100472546D01*
X170568484Y-100343747D01*
X169987500Y-99762763D01*
X169406516Y-100343747D01*
X169138600Y-100343747D01*
X169138600Y-100096134D01*
X169169954Y-100154793D01*
X169298753Y-100235984D01*
X169879737Y-99655000D01*
X169298753Y-99074016D01*
X169169954Y-99155207D01*
X169138600Y-99220026D01*
X169138600Y-98966253D01*
X169406516Y-98966253D01*
X169987500Y-99547237D01*
X170568484Y-98966253D01*
X170487293Y-98837454D01*
X170318195Y-98755658D01*
X170136388Y-98708424D01*
X169948859Y-98697565D01*
X169762815Y-98723501D01*
X169585405Y-98785233D01*
X169487707Y-98837454D01*
X169406516Y-98966253D01*
X169138600Y-98966253D01*
X169138600Y-97790000D01*
X169134208Y-97745402D01*
X169121199Y-97702519D01*
X169100074Y-97662997D01*
X169071645Y-97628355D01*
X169037003Y-97599926D01*
X168997481Y-97578801D01*
X168954598Y-97565792D01*
X168910000Y-97561400D01*
X165519100Y-97561400D01*
X165519100Y-95343747D01*
X169406516Y-95343747D01*
X169487707Y-95472546D01*
X169656805Y-95554342D01*
X169838612Y-95601576D01*
X170026141Y-95612435D01*
X170212185Y-95586499D01*
X170389595Y-95524767D01*
X170487293Y-95472546D01*
X170568484Y-95343747D01*
X169987500Y-94762763D01*
X169406516Y-95343747D01*
X165519100Y-95343747D01*
X165519100Y-94788596D01*
X165614055Y-94693641D01*
X169030065Y-94693641D01*
X169056001Y-94879685D01*
X169117733Y-95057095D01*
X169169954Y-95154793D01*
X169298753Y-95235984D01*
X169879737Y-94655000D01*
X170095263Y-94655000D01*
X170676247Y-95235984D01*
X170680901Y-95233050D01*
X170680902Y-99076950D01*
X170676247Y-99074016D01*
X170095263Y-99655000D01*
X170676247Y-100235984D01*
X170680902Y-100233050D01*
X170680902Y-104404411D01*
X170678874Y-104425001D01*
X170686966Y-104507158D01*
X170710931Y-104586159D01*
X170749848Y-104658967D01*
X170802220Y-104722783D01*
X170818207Y-104735903D01*
X170871400Y-104789096D01*
X170871400Y-104831987D01*
X170893635Y-104943772D01*
X170937251Y-105049070D01*
X171000572Y-105143836D01*
X171081164Y-105224428D01*
X171175930Y-105287749D01*
X171281228Y-105331365D01*
X171393013Y-105353600D01*
X171506987Y-105353600D01*
X171618772Y-105331365D01*
X171724070Y-105287749D01*
X171818836Y-105224428D01*
X171899428Y-105143836D01*
X171962749Y-105049070D01*
X172006365Y-104943772D01*
X172028600Y-104831987D01*
X172028600Y-104718013D01*
X172006365Y-104606228D01*
X171962749Y-104500930D01*
X171899428Y-104406164D01*
X171818836Y-104325572D01*
X171724070Y-104262251D01*
X171618772Y-104218635D01*
X171519101Y-104198810D01*
X171519101Y-100731202D01*
X171569822Y-100731202D01*
X171534490Y-100859334D01*
X171542813Y-100901691D01*
X171606210Y-101051987D01*
X171697710Y-101187027D01*
X171813797Y-101301621D01*
X171950009Y-101391366D01*
X172101112Y-101452813D01*
X172261300Y-101483600D01*
X172611300Y-101483600D01*
X172611300Y-100731200D01*
X172763700Y-100731200D01*
X172763700Y-101483600D01*
X173113700Y-101483600D01*
X173273888Y-101452813D01*
X173424991Y-101391366D01*
X173561203Y-101301621D01*
X173677290Y-101187027D01*
X173768790Y-101051987D01*
X173832187Y-100901691D01*
X173840510Y-100859334D01*
X173805177Y-100731200D01*
X172763700Y-100731200D01*
X172611300Y-100731200D01*
X172591300Y-100731200D01*
X172591300Y-100578800D01*
X172611300Y-100578800D01*
X172611300Y-99826400D01*
X172763700Y-99826400D01*
X172763700Y-100578800D01*
X173805177Y-100578800D01*
X173840510Y-100450666D01*
X173832187Y-100408309D01*
X173768790Y-100258013D01*
X173677290Y-100122973D01*
X173561203Y-100008379D01*
X173424991Y-99918634D01*
X173273888Y-99857187D01*
X173113700Y-99826400D01*
X172763700Y-99826400D01*
X172611300Y-99826400D01*
X172261300Y-99826400D01*
X172101112Y-99857187D01*
X171950009Y-99918634D01*
X171813797Y-100008379D01*
X171697710Y-100122973D01*
X171606210Y-100258013D01*
X171542813Y-100408309D01*
X171534490Y-100450666D01*
X171569822Y-100578798D01*
X171519101Y-100578798D01*
X171519101Y-93731202D01*
X171569822Y-93731202D01*
X171534490Y-93859334D01*
X171542813Y-93901691D01*
X171606210Y-94051987D01*
X171697710Y-94187027D01*
X171813797Y-94301621D01*
X171950009Y-94391366D01*
X172101112Y-94452813D01*
X172261300Y-94483600D01*
X172611300Y-94483600D01*
X172611300Y-93731200D01*
X172763700Y-93731200D01*
X172763700Y-94483600D01*
X173113700Y-94483600D01*
X173273888Y-94452813D01*
X173424991Y-94391366D01*
X173561203Y-94301621D01*
X173677290Y-94187027D01*
X173768790Y-94051987D01*
X173832187Y-93901691D01*
X173840510Y-93859334D01*
X173805177Y-93731200D01*
X172763700Y-93731200D01*
X172611300Y-93731200D01*
X172591300Y-93731200D01*
X172591300Y-93578800D01*
X172611300Y-93578800D01*
X172611300Y-92826400D01*
X172763700Y-92826400D01*
X172763700Y-93578800D01*
X173805177Y-93578800D01*
X173840510Y-93450666D01*
X173832187Y-93408309D01*
X173768790Y-93258013D01*
X173677290Y-93122973D01*
X173561203Y-93008379D01*
X173424991Y-92918634D01*
X173273888Y-92857187D01*
X173113700Y-92826400D01*
X172763700Y-92826400D01*
X172611300Y-92826400D01*
X172261300Y-92826400D01*
X172101112Y-92857187D01*
X171950009Y-92918634D01*
X171813797Y-93008379D01*
X171697710Y-93122973D01*
X171606210Y-93258013D01*
X171542813Y-93408309D01*
X171534490Y-93450666D01*
X171569822Y-93578798D01*
X171519101Y-93578798D01*
X171519101Y-91381190D01*
X171618772Y-91361365D01*
X171724070Y-91317749D01*
X171818836Y-91254428D01*
X171899428Y-91173836D01*
X171962749Y-91079070D01*
X172006365Y-90973772D01*
X172028600Y-90861987D01*
X172028600Y-90748013D01*
X172006365Y-90636228D01*
X171962749Y-90530930D01*
X171899428Y-90436164D01*
X171818836Y-90355572D01*
X171724070Y-90292251D01*
X171618772Y-90248635D01*
X171506987Y-90226400D01*
X171393013Y-90226400D01*
X171281228Y-90248635D01*
X171175930Y-90292251D01*
X171081164Y-90355572D01*
X171000572Y-90436164D01*
X170937251Y-90530930D01*
X170893635Y-90636228D01*
X170871400Y-90748013D01*
X170871400Y-90790904D01*
X170818212Y-90844092D01*
X170802219Y-90857217D01*
X170749847Y-90921034D01*
X170710930Y-90993842D01*
X170697242Y-91038966D01*
X170686966Y-91072842D01*
X170678874Y-91154999D01*
X170680901Y-91175579D01*
X170680901Y-94076950D01*
X170676247Y-94074016D01*
X170095263Y-94655000D01*
X169879737Y-94655000D01*
X169298753Y-94074016D01*
X169169954Y-94155207D01*
X169088158Y-94324305D01*
X169040924Y-94506112D01*
X169030065Y-94693641D01*
X165614055Y-94693641D01*
X165749096Y-94558600D01*
X165791987Y-94558600D01*
X165903772Y-94536365D01*
X166009070Y-94492749D01*
X166103836Y-94429428D01*
X166184428Y-94348836D01*
X166247749Y-94254070D01*
X166291365Y-94148772D01*
X166313600Y-94036987D01*
X166313600Y-93966253D01*
X169406516Y-93966253D01*
X169987500Y-94547237D01*
X170568484Y-93966253D01*
X170487293Y-93837454D01*
X170318195Y-93755658D01*
X170136388Y-93708424D01*
X169948859Y-93697565D01*
X169762815Y-93723501D01*
X169585405Y-93785233D01*
X169487707Y-93837454D01*
X169406516Y-93966253D01*
X166313600Y-93966253D01*
X166313600Y-93923013D01*
X166291365Y-93811228D01*
X166247749Y-93705930D01*
X166184428Y-93611164D01*
X166103836Y-93530572D01*
X166009070Y-93467251D01*
X165903772Y-93423635D01*
X165791987Y-93401400D01*
X165678013Y-93401400D01*
X165566228Y-93423635D01*
X165463921Y-93466012D01*
X170410556Y-88519377D01*
X170423639Y-88508640D01*
X170466490Y-88456427D01*
X170498331Y-88396857D01*
X170517938Y-88332220D01*
X170522900Y-88281843D01*
X170522900Y-88281842D01*
X170524559Y-88265000D01*
X170522900Y-88248157D01*
X170522900Y-87385434D01*
X170690909Y-87315843D01*
X170867567Y-87197803D01*
X171017803Y-87047567D01*
X171135843Y-86870909D01*
X171217150Y-86674616D01*
X171231281Y-86603571D01*
X171669258Y-86603571D01*
X171736966Y-86803880D01*
X171842451Y-86987131D01*
X171981660Y-87146282D01*
X172149243Y-87275217D01*
X172338760Y-87368981D01*
X172476430Y-87410739D01*
X172643800Y-87378604D01*
X172643800Y-86436200D01*
X172796200Y-86436200D01*
X172796200Y-87378604D01*
X172963570Y-87410739D01*
X173101240Y-87368981D01*
X173290757Y-87275217D01*
X173458340Y-87146282D01*
X173597549Y-86987131D01*
X173703034Y-86803880D01*
X173770742Y-86603571D01*
X173738759Y-86436200D01*
X172796200Y-86436200D01*
X172643800Y-86436200D01*
X171701241Y-86436200D01*
X171669258Y-86603571D01*
X171231281Y-86603571D01*
X171258600Y-86466233D01*
X171258600Y-86253767D01*
X171231282Y-86116429D01*
X171669258Y-86116429D01*
X171701241Y-86283800D01*
X172643800Y-86283800D01*
X172643800Y-85341396D01*
X172796200Y-85341396D01*
X172796200Y-86283800D01*
X173738759Y-86283800D01*
X173770742Y-86116429D01*
X173703034Y-85916120D01*
X173597549Y-85732869D01*
X173458340Y-85573718D01*
X173290757Y-85444783D01*
X173101240Y-85351019D01*
X172963570Y-85309261D01*
X172796200Y-85341396D01*
X172643800Y-85341396D01*
X172476430Y-85309261D01*
X172338760Y-85351019D01*
X172149243Y-85444783D01*
X171981660Y-85573718D01*
X171842451Y-85732869D01*
X171736966Y-85916120D01*
X171669258Y-86116429D01*
X171231282Y-86116429D01*
X171217150Y-86045384D01*
X171135843Y-85849091D01*
X171017803Y-85672433D01*
X170867567Y-85522197D01*
X170690909Y-85404157D01*
X170494616Y-85322850D01*
X170286233Y-85281400D01*
X170073767Y-85281400D01*
X169865384Y-85322850D01*
X169669091Y-85404157D01*
X169492433Y-85522197D01*
X169342197Y-85672433D01*
X169224157Y-85849091D01*
X169142850Y-86045384D01*
X169101400Y-86253767D01*
X169101400Y-86466233D01*
X169142850Y-86674616D01*
X169224157Y-86870909D01*
X169342197Y-87047567D01*
X169492433Y-87197803D01*
X169669091Y-87315843D01*
X169837100Y-87385435D01*
X169837100Y-88122967D01*
X167982900Y-89977167D01*
X167982900Y-87385434D01*
X168150909Y-87315843D01*
X168327567Y-87197803D01*
X168477803Y-87047567D01*
X168595843Y-86870909D01*
X168677150Y-86674616D01*
X168718600Y-86466233D01*
X168718600Y-86253767D01*
X168677150Y-86045384D01*
X168595843Y-85849091D01*
X168477803Y-85672433D01*
X168327567Y-85522197D01*
X168150909Y-85404157D01*
X167954616Y-85322850D01*
X167746233Y-85281400D01*
X167533767Y-85281400D01*
X167325384Y-85322850D01*
X167129091Y-85404157D01*
X166952433Y-85522197D01*
X166802197Y-85672433D01*
X166684157Y-85849091D01*
X166602850Y-86045384D01*
X166561400Y-86253767D01*
X166561400Y-86466233D01*
X166602850Y-86674616D01*
X166684157Y-86870909D01*
X166802197Y-87047567D01*
X166952433Y-87197803D01*
X167129091Y-87315843D01*
X167297101Y-87385435D01*
X167297100Y-89931796D01*
X162114601Y-95114296D01*
X162114601Y-94275332D01*
X164377419Y-92012515D01*
X164408013Y-92018600D01*
X164521987Y-92018600D01*
X164633772Y-91996365D01*
X164739070Y-91952749D01*
X164833836Y-91889428D01*
X164914428Y-91808836D01*
X164977749Y-91714070D01*
X165021365Y-91608772D01*
X165043600Y-91496987D01*
X165043600Y-91383013D01*
X165021365Y-91271228D01*
X164977749Y-91165930D01*
X164914428Y-91071164D01*
X164833836Y-90990572D01*
X164739070Y-90927251D01*
X164633772Y-90883635D01*
X164521987Y-90861400D01*
X164408013Y-90861400D01*
X164296228Y-90883635D01*
X164190930Y-90927251D01*
X164096164Y-90990572D01*
X164015572Y-91071164D01*
X163952251Y-91165930D01*
X163908635Y-91271228D01*
X163886400Y-91383013D01*
X163886400Y-91496987D01*
X163892485Y-91527581D01*
X161541144Y-93878923D01*
X161528062Y-93889659D01*
X161485212Y-93941872D01*
X161456119Y-93996301D01*
X161453371Y-94001442D01*
X161433763Y-94066080D01*
X161427143Y-94133299D01*
X161428802Y-94150144D01*
X161428802Y-94498432D01*
X161342567Y-94412197D01*
X161165909Y-94294157D01*
X160969616Y-94212850D01*
X160761233Y-94171400D01*
X160548767Y-94171400D01*
X160340384Y-94212850D01*
X160172375Y-94282442D01*
X159486082Y-93596149D01*
X159475341Y-93583061D01*
X159423128Y-93540211D01*
X159363558Y-93508370D01*
X159298921Y-93488763D01*
X159248544Y-93483801D01*
X159248536Y-93483801D01*
X159231701Y-93482143D01*
X159214866Y-93483801D01*
X158866569Y-93483801D01*
X158952803Y-93397567D01*
X159070843Y-93220909D01*
X159152150Y-93024616D01*
X159193600Y-92816233D01*
X159193600Y-92603767D01*
X159576400Y-92603767D01*
X159576400Y-92816233D01*
X159617850Y-93024616D01*
X159699157Y-93220909D01*
X159817197Y-93397567D01*
X159967433Y-93547803D01*
X160144091Y-93665843D01*
X160340384Y-93747150D01*
X160548767Y-93788600D01*
X160761233Y-93788600D01*
X160969616Y-93747150D01*
X161165909Y-93665843D01*
X161342567Y-93547803D01*
X161492803Y-93397567D01*
X161610843Y-93220909D01*
X161692150Y-93024616D01*
X161733600Y-92816233D01*
X161733600Y-92603767D01*
X161692150Y-92395384D01*
X161610843Y-92199091D01*
X161492803Y-92022433D01*
X161342567Y-91872197D01*
X161165909Y-91754157D01*
X160969616Y-91672850D01*
X160761233Y-91631400D01*
X160548767Y-91631400D01*
X160340384Y-91672850D01*
X160144091Y-91754157D01*
X159967433Y-91872197D01*
X159817197Y-92022433D01*
X159699157Y-92199091D01*
X159617850Y-92395384D01*
X159576400Y-92603767D01*
X159193600Y-92603767D01*
X159152150Y-92395384D01*
X159070843Y-92199091D01*
X158952803Y-92022433D01*
X158802567Y-91872197D01*
X158625909Y-91754157D01*
X158429616Y-91672850D01*
X158221233Y-91631400D01*
X158008767Y-91631400D01*
X157800384Y-91672850D01*
X157604091Y-91754157D01*
X157427433Y-91872197D01*
X157277197Y-92022433D01*
X157159157Y-92199091D01*
X157077850Y-92395384D01*
X157036400Y-92603767D01*
X157036400Y-92799185D01*
X156596663Y-92359448D01*
X156585922Y-92346360D01*
X156533709Y-92303510D01*
X156474139Y-92271669D01*
X156409502Y-92252062D01*
X156359125Y-92247100D01*
X156359117Y-92247100D01*
X156342282Y-92245442D01*
X156325447Y-92247100D01*
X148621733Y-92247100D01*
X148627427Y-92242427D01*
X148655994Y-92207618D01*
X148677221Y-92167905D01*
X148690292Y-92124813D01*
X148694706Y-92080000D01*
X148694706Y-91080000D01*
X148690292Y-91035187D01*
X148677221Y-90992095D01*
X148655994Y-90952382D01*
X148627427Y-90917573D01*
X148592618Y-90889006D01*
X148552905Y-90867779D01*
X148509813Y-90854708D01*
X148465000Y-90850294D01*
X148252900Y-90850294D01*
X148252900Y-90346758D01*
X148278836Y-90329428D01*
X148359428Y-90248836D01*
X148422749Y-90154070D01*
X148466365Y-90048772D01*
X148488600Y-89936987D01*
X148488600Y-89823013D01*
X148466365Y-89711228D01*
X148422749Y-89605930D01*
X148359428Y-89511164D01*
X148278836Y-89430572D01*
X148184070Y-89367251D01*
X148078772Y-89323635D01*
X148060498Y-89320000D01*
X157035294Y-89320000D01*
X157035294Y-91020000D01*
X157039708Y-91064813D01*
X157052779Y-91107905D01*
X157074006Y-91147618D01*
X157102573Y-91182427D01*
X157137382Y-91210994D01*
X157177095Y-91232221D01*
X157220187Y-91245292D01*
X157265000Y-91249706D01*
X158965000Y-91249706D01*
X159009813Y-91245292D01*
X159052905Y-91232221D01*
X159092618Y-91210994D01*
X159127427Y-91182427D01*
X159155994Y-91147618D01*
X159177221Y-91107905D01*
X159190292Y-91064813D01*
X159194706Y-91020000D01*
X159194706Y-90063767D01*
X159576400Y-90063767D01*
X159576400Y-90276233D01*
X159617850Y-90484616D01*
X159699157Y-90680909D01*
X159817197Y-90857567D01*
X159967433Y-91007803D01*
X160144091Y-91125843D01*
X160340384Y-91207150D01*
X160548767Y-91248600D01*
X160761233Y-91248600D01*
X160969616Y-91207150D01*
X161165909Y-91125843D01*
X161342567Y-91007803D01*
X161492803Y-90857567D01*
X161610843Y-90680909D01*
X161648871Y-90589100D01*
X165335836Y-90589100D01*
X165366164Y-90619428D01*
X165460930Y-90682749D01*
X165566228Y-90726365D01*
X165678013Y-90748600D01*
X165791987Y-90748600D01*
X165903772Y-90726365D01*
X166009070Y-90682749D01*
X166103836Y-90619428D01*
X166184428Y-90538836D01*
X166247749Y-90444070D01*
X166291365Y-90338772D01*
X166313600Y-90226987D01*
X166313600Y-90113013D01*
X166291365Y-90001228D01*
X166247749Y-89895930D01*
X166184428Y-89801164D01*
X166103836Y-89720572D01*
X166009070Y-89657251D01*
X165903772Y-89613635D01*
X165791987Y-89591400D01*
X165678013Y-89591400D01*
X165566228Y-89613635D01*
X165460930Y-89657251D01*
X165366164Y-89720572D01*
X165335836Y-89750900D01*
X161648871Y-89750900D01*
X161610843Y-89659091D01*
X161492803Y-89482433D01*
X161342567Y-89332197D01*
X161165909Y-89214157D01*
X160969616Y-89132850D01*
X160761233Y-89091400D01*
X160548767Y-89091400D01*
X160340384Y-89132850D01*
X160144091Y-89214157D01*
X159967433Y-89332197D01*
X159817197Y-89482433D01*
X159699157Y-89659091D01*
X159617850Y-89855384D01*
X159576400Y-90063767D01*
X159194706Y-90063767D01*
X159194706Y-89320000D01*
X159190292Y-89275187D01*
X159177221Y-89232095D01*
X159155994Y-89192382D01*
X159127427Y-89157573D01*
X159092618Y-89129006D01*
X159052905Y-89107779D01*
X159009813Y-89094708D01*
X158965000Y-89090294D01*
X157265000Y-89090294D01*
X157220187Y-89094708D01*
X157177095Y-89107779D01*
X157137382Y-89129006D01*
X157102573Y-89157573D01*
X157074006Y-89192382D01*
X157052779Y-89232095D01*
X157039708Y-89275187D01*
X157035294Y-89320000D01*
X148060498Y-89320000D01*
X147966987Y-89301400D01*
X147853013Y-89301400D01*
X147741228Y-89323635D01*
X147635930Y-89367251D01*
X147541164Y-89430572D01*
X147460572Y-89511164D01*
X147397251Y-89605930D01*
X147353635Y-89711228D01*
X147331400Y-89823013D01*
X147331400Y-89936987D01*
X147353635Y-90048772D01*
X147397251Y-90154070D01*
X147460572Y-90248836D01*
X147541164Y-90329428D01*
X147567100Y-90346758D01*
X147567101Y-90850294D01*
X146915000Y-90850294D01*
X146870187Y-90854708D01*
X146827095Y-90867779D01*
X146787382Y-90889006D01*
X146752573Y-90917573D01*
X146724006Y-90952382D01*
X146702779Y-90992095D01*
X146689708Y-91035187D01*
X146685294Y-91080000D01*
X146685294Y-92080000D01*
X146689708Y-92124813D01*
X146702779Y-92167905D01*
X146724006Y-92207618D01*
X146752573Y-92242427D01*
X146787382Y-92270994D01*
X146827095Y-92292221D01*
X146870187Y-92305292D01*
X146915000Y-92309706D01*
X146921023Y-92309706D01*
X146876360Y-92346360D01*
X146865619Y-92359448D01*
X146487581Y-92737486D01*
X146456987Y-92731400D01*
X146343013Y-92731400D01*
X146231228Y-92753635D01*
X146125930Y-92797251D01*
X146031164Y-92860572D01*
X145950572Y-92941164D01*
X145887251Y-93035930D01*
X145843635Y-93141228D01*
X145821400Y-93253013D01*
X145821400Y-93366987D01*
X145843635Y-93478772D01*
X145887251Y-93584070D01*
X145922685Y-93637100D01*
X137994706Y-93637100D01*
X137994706Y-93630000D01*
X137990292Y-93585187D01*
X137977221Y-93542095D01*
X137955994Y-93502382D01*
X137927427Y-93467573D01*
X137892618Y-93439006D01*
X137852905Y-93417779D01*
X137809813Y-93404708D01*
X137765000Y-93400294D01*
X136015000Y-93400294D01*
X135970187Y-93404708D01*
X135927095Y-93417779D01*
X135887382Y-93439006D01*
X135852573Y-93467573D01*
X135824006Y-93502382D01*
X135802779Y-93542095D01*
X135789708Y-93585187D01*
X135785294Y-93630000D01*
X135508600Y-93630000D01*
X135508600Y-92280000D01*
X136035294Y-92280000D01*
X136039708Y-92324813D01*
X136052779Y-92367905D01*
X136074006Y-92407618D01*
X136102573Y-92442427D01*
X136137382Y-92470994D01*
X136177095Y-92492221D01*
X136220187Y-92505292D01*
X136265000Y-92509706D01*
X136881650Y-92508600D01*
X136938800Y-92451450D01*
X136938800Y-91606200D01*
X137091200Y-91606200D01*
X137091200Y-92451450D01*
X137148350Y-92508600D01*
X137765000Y-92509706D01*
X137809813Y-92505292D01*
X137852905Y-92492221D01*
X137892618Y-92470994D01*
X137927427Y-92442427D01*
X137955994Y-92407618D01*
X137977221Y-92367905D01*
X137990292Y-92324813D01*
X137994706Y-92280000D01*
X137993600Y-91663350D01*
X137936450Y-91606200D01*
X137091200Y-91606200D01*
X136938800Y-91606200D01*
X136093550Y-91606200D01*
X136036400Y-91663350D01*
X136035294Y-92280000D01*
X135508600Y-92280000D01*
X135508600Y-91580000D01*
X144335294Y-91580000D01*
X144339708Y-91624813D01*
X144352779Y-91667905D01*
X144374006Y-91707618D01*
X144402573Y-91742427D01*
X144437382Y-91770994D01*
X144477095Y-91792221D01*
X144520187Y-91805292D01*
X144565000Y-91809706D01*
X145131650Y-91808600D01*
X145188800Y-91751450D01*
X145188800Y-91256200D01*
X145341200Y-91256200D01*
X145341200Y-91751450D01*
X145398350Y-91808600D01*
X145965000Y-91809706D01*
X146009813Y-91805292D01*
X146052905Y-91792221D01*
X146092618Y-91770994D01*
X146127427Y-91742427D01*
X146155994Y-91707618D01*
X146177221Y-91667905D01*
X146190292Y-91624813D01*
X146194706Y-91580000D01*
X146193600Y-91313350D01*
X146136450Y-91256200D01*
X145341200Y-91256200D01*
X145188800Y-91256200D01*
X144393550Y-91256200D01*
X144336400Y-91313350D01*
X144335294Y-91580000D01*
X135508600Y-91580000D01*
X135508600Y-90780000D01*
X136035294Y-90780000D01*
X136036400Y-91396650D01*
X136093550Y-91453800D01*
X136938800Y-91453800D01*
X136938800Y-90608550D01*
X137091200Y-90608550D01*
X137091200Y-91453800D01*
X137936450Y-91453800D01*
X137993600Y-91396650D01*
X137994706Y-90780000D01*
X144335294Y-90780000D01*
X144336400Y-91046650D01*
X144393550Y-91103800D01*
X145188800Y-91103800D01*
X145188800Y-90608550D01*
X145341200Y-90608550D01*
X145341200Y-91103800D01*
X146136450Y-91103800D01*
X146193600Y-91046650D01*
X146194706Y-90780000D01*
X146190292Y-90735187D01*
X146177221Y-90692095D01*
X146155994Y-90652382D01*
X146127427Y-90617573D01*
X146092618Y-90589006D01*
X146052905Y-90567779D01*
X146009813Y-90554708D01*
X145965000Y-90550294D01*
X145398350Y-90551400D01*
X145341200Y-90608550D01*
X145188800Y-90608550D01*
X145131650Y-90551400D01*
X144565000Y-90550294D01*
X144520187Y-90554708D01*
X144477095Y-90567779D01*
X144437382Y-90589006D01*
X144402573Y-90617573D01*
X144374006Y-90652382D01*
X144352779Y-90692095D01*
X144339708Y-90735187D01*
X144335294Y-90780000D01*
X137994706Y-90780000D01*
X137990292Y-90735187D01*
X137977221Y-90692095D01*
X137955994Y-90652382D01*
X137927427Y-90617573D01*
X137892618Y-90589006D01*
X137852905Y-90567779D01*
X137809813Y-90554708D01*
X137765000Y-90550294D01*
X137148350Y-90551400D01*
X137091200Y-90608550D01*
X136938800Y-90608550D01*
X136881650Y-90551400D01*
X136265000Y-90550294D01*
X136220187Y-90554708D01*
X136177095Y-90567779D01*
X136137382Y-90589006D01*
X136102573Y-90617573D01*
X136074006Y-90652382D01*
X136052779Y-90692095D01*
X136039708Y-90735187D01*
X136035294Y-90780000D01*
X135508600Y-90780000D01*
X135508600Y-87210000D01*
X136080294Y-87210000D01*
X136084708Y-87254813D01*
X136097779Y-87297905D01*
X136119006Y-87337618D01*
X136147573Y-87372427D01*
X136182382Y-87400994D01*
X136222095Y-87422221D01*
X136265187Y-87435292D01*
X136310000Y-87439706D01*
X137026650Y-87438600D01*
X137083800Y-87381450D01*
X137083800Y-86436200D01*
X137236200Y-86436200D01*
X137236200Y-87381450D01*
X137293350Y-87438600D01*
X138010000Y-87439706D01*
X138054813Y-87435292D01*
X138097905Y-87422221D01*
X138137618Y-87400994D01*
X138172427Y-87372427D01*
X138200994Y-87337618D01*
X138222221Y-87297905D01*
X138235292Y-87254813D01*
X138239706Y-87210000D01*
X138238600Y-86493350D01*
X138181450Y-86436200D01*
X137236200Y-86436200D01*
X137083800Y-86436200D01*
X136138550Y-86436200D01*
X136081400Y-86493350D01*
X136080294Y-87210000D01*
X135508600Y-87210000D01*
X135508600Y-85737406D01*
X135529151Y-85527814D01*
X135534529Y-85510000D01*
X136080294Y-85510000D01*
X136081400Y-86226650D01*
X136138550Y-86283800D01*
X137083800Y-86283800D01*
X137083800Y-85338550D01*
X137236200Y-85338550D01*
X137236200Y-86283800D01*
X138181450Y-86283800D01*
X138211483Y-86253767D01*
X138621400Y-86253767D01*
X138621400Y-86466233D01*
X138662850Y-86674616D01*
X138744157Y-86870909D01*
X138862197Y-87047567D01*
X139012433Y-87197803D01*
X139189091Y-87315843D01*
X139385384Y-87397150D01*
X139593767Y-87438600D01*
X139806233Y-87438600D01*
X140014616Y-87397150D01*
X140210909Y-87315843D01*
X140387567Y-87197803D01*
X140537803Y-87047567D01*
X140655843Y-86870909D01*
X140737150Y-86674616D01*
X140778600Y-86466233D01*
X140778600Y-86253767D01*
X141161400Y-86253767D01*
X141161400Y-86466233D01*
X141202850Y-86674616D01*
X141284157Y-86870909D01*
X141402197Y-87047567D01*
X141552433Y-87197803D01*
X141729091Y-87315843D01*
X141925384Y-87397150D01*
X142133767Y-87438600D01*
X142346233Y-87438600D01*
X142554616Y-87397150D01*
X142750909Y-87315843D01*
X142927567Y-87197803D01*
X143077803Y-87047567D01*
X143195843Y-86870909D01*
X143277150Y-86674616D01*
X143318600Y-86466233D01*
X143318600Y-86253767D01*
X143701400Y-86253767D01*
X143701400Y-86466233D01*
X143742850Y-86674616D01*
X143824157Y-86870909D01*
X143942197Y-87047567D01*
X144092433Y-87197803D01*
X144269091Y-87315843D01*
X144465384Y-87397150D01*
X144673767Y-87438600D01*
X144886233Y-87438600D01*
X145094616Y-87397150D01*
X145290909Y-87315843D01*
X145467567Y-87197803D01*
X145617803Y-87047567D01*
X145735843Y-86870909D01*
X145817150Y-86674616D01*
X145858600Y-86466233D01*
X145858600Y-86253767D01*
X146241400Y-86253767D01*
X146241400Y-86466233D01*
X146282850Y-86674616D01*
X146364157Y-86870909D01*
X146482197Y-87047567D01*
X146632433Y-87197803D01*
X146809091Y-87315843D01*
X147005384Y-87397150D01*
X147213767Y-87438600D01*
X147426233Y-87438600D01*
X147634616Y-87397150D01*
X147830909Y-87315843D01*
X148007567Y-87197803D01*
X148157803Y-87047567D01*
X148275843Y-86870909D01*
X148357150Y-86674616D01*
X148398600Y-86466233D01*
X148398600Y-86253767D01*
X148781400Y-86253767D01*
X148781400Y-86466233D01*
X148822850Y-86674616D01*
X148904157Y-86870909D01*
X149022197Y-87047567D01*
X149172433Y-87197803D01*
X149349091Y-87315843D01*
X149545384Y-87397150D01*
X149753767Y-87438600D01*
X149966233Y-87438600D01*
X150174616Y-87397150D01*
X150370909Y-87315843D01*
X150547567Y-87197803D01*
X150697803Y-87047567D01*
X150815843Y-86870909D01*
X150897150Y-86674616D01*
X150938600Y-86466233D01*
X150938600Y-86253767D01*
X151321400Y-86253767D01*
X151321400Y-86466233D01*
X151362850Y-86674616D01*
X151444157Y-86870909D01*
X151562197Y-87047567D01*
X151712433Y-87197803D01*
X151889091Y-87315843D01*
X152085384Y-87397150D01*
X152293767Y-87438600D01*
X152506233Y-87438600D01*
X152714616Y-87397150D01*
X152910909Y-87315843D01*
X153087567Y-87197803D01*
X153237803Y-87047567D01*
X153355843Y-86870909D01*
X153437150Y-86674616D01*
X153478600Y-86466233D01*
X153478600Y-86253767D01*
X153861400Y-86253767D01*
X153861400Y-86466233D01*
X153902850Y-86674616D01*
X153984157Y-86870909D01*
X154102197Y-87047567D01*
X154252433Y-87197803D01*
X154429091Y-87315843D01*
X154625384Y-87397150D01*
X154833767Y-87438600D01*
X155046233Y-87438600D01*
X155254616Y-87397150D01*
X155450909Y-87315843D01*
X155627567Y-87197803D01*
X155777803Y-87047567D01*
X155895843Y-86870909D01*
X155977150Y-86674616D01*
X156018600Y-86466233D01*
X156018600Y-86253767D01*
X156401400Y-86253767D01*
X156401400Y-86466233D01*
X156442850Y-86674616D01*
X156524157Y-86870909D01*
X156642197Y-87047567D01*
X156792433Y-87197803D01*
X156969091Y-87315843D01*
X157165384Y-87397150D01*
X157373767Y-87438600D01*
X157586233Y-87438600D01*
X157794616Y-87397150D01*
X157990909Y-87315843D01*
X158167567Y-87197803D01*
X158317803Y-87047567D01*
X158435843Y-86870909D01*
X158517150Y-86674616D01*
X158558600Y-86466233D01*
X158558600Y-86253767D01*
X158941400Y-86253767D01*
X158941400Y-86466233D01*
X158982850Y-86674616D01*
X159064157Y-86870909D01*
X159182197Y-87047567D01*
X159332433Y-87197803D01*
X159509091Y-87315843D01*
X159705384Y-87397150D01*
X159913767Y-87438600D01*
X160126233Y-87438600D01*
X160334616Y-87397150D01*
X160530909Y-87315843D01*
X160707567Y-87197803D01*
X160857803Y-87047567D01*
X160975843Y-86870909D01*
X161057150Y-86674616D01*
X161098600Y-86466233D01*
X161098600Y-86253767D01*
X161481400Y-86253767D01*
X161481400Y-86466233D01*
X161522850Y-86674616D01*
X161604157Y-86870909D01*
X161722197Y-87047567D01*
X161872433Y-87197803D01*
X162049091Y-87315843D01*
X162245384Y-87397150D01*
X162453767Y-87438600D01*
X162666233Y-87438600D01*
X162874616Y-87397150D01*
X163070909Y-87315843D01*
X163247567Y-87197803D01*
X163397803Y-87047567D01*
X163515843Y-86870909D01*
X163597150Y-86674616D01*
X163638600Y-86466233D01*
X163638600Y-86253767D01*
X164021400Y-86253767D01*
X164021400Y-86466233D01*
X164062850Y-86674616D01*
X164144157Y-86870909D01*
X164262197Y-87047567D01*
X164412433Y-87197803D01*
X164589091Y-87315843D01*
X164785384Y-87397150D01*
X164993767Y-87438600D01*
X165206233Y-87438600D01*
X165414616Y-87397150D01*
X165610909Y-87315843D01*
X165787567Y-87197803D01*
X165937803Y-87047567D01*
X166055843Y-86870909D01*
X166137150Y-86674616D01*
X166178600Y-86466233D01*
X166178600Y-86253767D01*
X166137150Y-86045384D01*
X166055843Y-85849091D01*
X165937803Y-85672433D01*
X165787567Y-85522197D01*
X165610909Y-85404157D01*
X165414616Y-85322850D01*
X165206233Y-85281400D01*
X164993767Y-85281400D01*
X164785384Y-85322850D01*
X164589091Y-85404157D01*
X164412433Y-85522197D01*
X164262197Y-85672433D01*
X164144157Y-85849091D01*
X164062850Y-86045384D01*
X164021400Y-86253767D01*
X163638600Y-86253767D01*
X163597150Y-86045384D01*
X163515843Y-85849091D01*
X163397803Y-85672433D01*
X163247567Y-85522197D01*
X163070909Y-85404157D01*
X162874616Y-85322850D01*
X162666233Y-85281400D01*
X162453767Y-85281400D01*
X162245384Y-85322850D01*
X162049091Y-85404157D01*
X161872433Y-85522197D01*
X161722197Y-85672433D01*
X161604157Y-85849091D01*
X161522850Y-86045384D01*
X161481400Y-86253767D01*
X161098600Y-86253767D01*
X161057150Y-86045384D01*
X160975843Y-85849091D01*
X160857803Y-85672433D01*
X160707567Y-85522197D01*
X160530909Y-85404157D01*
X160334616Y-85322850D01*
X160126233Y-85281400D01*
X159913767Y-85281400D01*
X159705384Y-85322850D01*
X159509091Y-85404157D01*
X159332433Y-85522197D01*
X159182197Y-85672433D01*
X159064157Y-85849091D01*
X158982850Y-86045384D01*
X158941400Y-86253767D01*
X158558600Y-86253767D01*
X158517150Y-86045384D01*
X158435843Y-85849091D01*
X158317803Y-85672433D01*
X158167567Y-85522197D01*
X157990909Y-85404157D01*
X157794616Y-85322850D01*
X157586233Y-85281400D01*
X157373767Y-85281400D01*
X157165384Y-85322850D01*
X156969091Y-85404157D01*
X156792433Y-85522197D01*
X156642197Y-85672433D01*
X156524157Y-85849091D01*
X156442850Y-86045384D01*
X156401400Y-86253767D01*
X156018600Y-86253767D01*
X155977150Y-86045384D01*
X155895843Y-85849091D01*
X155777803Y-85672433D01*
X155627567Y-85522197D01*
X155450909Y-85404157D01*
X155254616Y-85322850D01*
X155046233Y-85281400D01*
X154833767Y-85281400D01*
X154625384Y-85322850D01*
X154429091Y-85404157D01*
X154252433Y-85522197D01*
X154102197Y-85672433D01*
X153984157Y-85849091D01*
X153902850Y-86045384D01*
X153861400Y-86253767D01*
X153478600Y-86253767D01*
X153437150Y-86045384D01*
X153355843Y-85849091D01*
X153237803Y-85672433D01*
X153087567Y-85522197D01*
X152910909Y-85404157D01*
X152714616Y-85322850D01*
X152506233Y-85281400D01*
X152293767Y-85281400D01*
X152085384Y-85322850D01*
X151889091Y-85404157D01*
X151712433Y-85522197D01*
X151562197Y-85672433D01*
X151444157Y-85849091D01*
X151362850Y-86045384D01*
X151321400Y-86253767D01*
X150938600Y-86253767D01*
X150897150Y-86045384D01*
X150815843Y-85849091D01*
X150697803Y-85672433D01*
X150547567Y-85522197D01*
X150370909Y-85404157D01*
X150174616Y-85322850D01*
X149966233Y-85281400D01*
X149753767Y-85281400D01*
X149545384Y-85322850D01*
X149349091Y-85404157D01*
X149172433Y-85522197D01*
X149022197Y-85672433D01*
X148904157Y-85849091D01*
X148822850Y-86045384D01*
X148781400Y-86253767D01*
X148398600Y-86253767D01*
X148357150Y-86045384D01*
X148275843Y-85849091D01*
X148157803Y-85672433D01*
X148007567Y-85522197D01*
X147830909Y-85404157D01*
X147634616Y-85322850D01*
X147426233Y-85281400D01*
X147213767Y-85281400D01*
X147005384Y-85322850D01*
X146809091Y-85404157D01*
X146632433Y-85522197D01*
X146482197Y-85672433D01*
X146364157Y-85849091D01*
X146282850Y-86045384D01*
X146241400Y-86253767D01*
X145858600Y-86253767D01*
X145817150Y-86045384D01*
X145735843Y-85849091D01*
X145617803Y-85672433D01*
X145467567Y-85522197D01*
X145290909Y-85404157D01*
X145094616Y-85322850D01*
X144886233Y-85281400D01*
X144673767Y-85281400D01*
X144465384Y-85322850D01*
X144269091Y-85404157D01*
X144092433Y-85522197D01*
X143942197Y-85672433D01*
X143824157Y-85849091D01*
X143742850Y-86045384D01*
X143701400Y-86253767D01*
X143318600Y-86253767D01*
X143277150Y-86045384D01*
X143195843Y-85849091D01*
X143077803Y-85672433D01*
X142927567Y-85522197D01*
X142750909Y-85404157D01*
X142554616Y-85322850D01*
X142346233Y-85281400D01*
X142133767Y-85281400D01*
X141925384Y-85322850D01*
X141729091Y-85404157D01*
X141552433Y-85522197D01*
X141402197Y-85672433D01*
X141284157Y-85849091D01*
X141202850Y-86045384D01*
X141161400Y-86253767D01*
X140778600Y-86253767D01*
X140737150Y-86045384D01*
X140655843Y-85849091D01*
X140537803Y-85672433D01*
X140387567Y-85522197D01*
X140210909Y-85404157D01*
X140014616Y-85322850D01*
X139806233Y-85281400D01*
X139593767Y-85281400D01*
X139385384Y-85322850D01*
X139189091Y-85404157D01*
X139012433Y-85522197D01*
X138862197Y-85672433D01*
X138744157Y-85849091D01*
X138662850Y-86045384D01*
X138621400Y-86253767D01*
X138211483Y-86253767D01*
X138238600Y-86226650D01*
X138239706Y-85510000D01*
X138235292Y-85465187D01*
X138222221Y-85422095D01*
X138200994Y-85382382D01*
X138172427Y-85347573D01*
X138137618Y-85319006D01*
X138097905Y-85297779D01*
X138054813Y-85284708D01*
X138010000Y-85280294D01*
X137293350Y-85281400D01*
X137236200Y-85338550D01*
X137083800Y-85338550D01*
X137026650Y-85281400D01*
X136310000Y-85280294D01*
X136265187Y-85284708D01*
X136222095Y-85297779D01*
X136182382Y-85319006D01*
X136147573Y-85347573D01*
X136119006Y-85382382D01*
X136097779Y-85422095D01*
X136084708Y-85465187D01*
X136080294Y-85510000D01*
X135534529Y-85510000D01*
X135586415Y-85338146D01*
X135679433Y-85163205D01*
X135804656Y-85009666D01*
X135957317Y-84883374D01*
X136131602Y-84789139D01*
X136320866Y-84730551D01*
X136529721Y-84708600D01*
X173342594Y-84708600D01*
X173552186Y-84729151D01*
G37*
X173552186Y-84729151D02*
X173741854Y-84786415D01*
X173916795Y-84879433D01*
X174070334Y-85004656D01*
X174196626Y-85157317D01*
X174290861Y-85331602D01*
X174349449Y-85520866D01*
X174371400Y-85729721D01*
X174371401Y-109842583D01*
X174350849Y-110052186D01*
X174293584Y-110241856D01*
X174200566Y-110416797D01*
X174075344Y-110570334D01*
X173922683Y-110696626D01*
X173748398Y-110790861D01*
X173559134Y-110849449D01*
X173350279Y-110871400D01*
X136537406Y-110871400D01*
X136327814Y-110850849D01*
X136138144Y-110793584D01*
X135963203Y-110700566D01*
X135809666Y-110575344D01*
X135683374Y-110422683D01*
X135589139Y-110248398D01*
X135533915Y-110070000D01*
X136080294Y-110070000D01*
X136084708Y-110114813D01*
X136097779Y-110157905D01*
X136119006Y-110197618D01*
X136147573Y-110232427D01*
X136182382Y-110260994D01*
X136222095Y-110282221D01*
X136265187Y-110295292D01*
X136310000Y-110299706D01*
X137026650Y-110298600D01*
X137083800Y-110241450D01*
X137083800Y-109296200D01*
X137236200Y-109296200D01*
X137236200Y-110241450D01*
X137293350Y-110298600D01*
X138010000Y-110299706D01*
X138054813Y-110295292D01*
X138097905Y-110282221D01*
X138137618Y-110260994D01*
X138172427Y-110232427D01*
X138200994Y-110197618D01*
X138222221Y-110157905D01*
X138235292Y-110114813D01*
X138239706Y-110070000D01*
X138238600Y-109353350D01*
X138181450Y-109296200D01*
X137236200Y-109296200D01*
X137083800Y-109296200D01*
X136138550Y-109296200D01*
X136081400Y-109353350D01*
X136080294Y-110070000D01*
X135533915Y-110070000D01*
X135530551Y-110059134D01*
X135508600Y-109850279D01*
X135508600Y-108370000D01*
X136080294Y-108370000D01*
X136081400Y-109086650D01*
X136138550Y-109143800D01*
X137083800Y-109143800D01*
X137083800Y-108198550D01*
X137236200Y-108198550D01*
X137236200Y-109143800D01*
X138181450Y-109143800D01*
X138211483Y-109113767D01*
X138621400Y-109113767D01*
X138621400Y-109326233D01*
X138662850Y-109534616D01*
X138744157Y-109730909D01*
X138862197Y-109907567D01*
X139012433Y-110057803D01*
X139189091Y-110175843D01*
X139385384Y-110257150D01*
X139593767Y-110298600D01*
X139806233Y-110298600D01*
X140014616Y-110257150D01*
X140210909Y-110175843D01*
X140387567Y-110057803D01*
X140537803Y-109907567D01*
X140655843Y-109730909D01*
X140737150Y-109534616D01*
X140778600Y-109326233D01*
X140778600Y-109113767D01*
X141161400Y-109113767D01*
X141161400Y-109326233D01*
X141202850Y-109534616D01*
X141284157Y-109730909D01*
X141402197Y-109907567D01*
X141552433Y-110057803D01*
X141729091Y-110175843D01*
X141925384Y-110257150D01*
X142133767Y-110298600D01*
X142346233Y-110298600D01*
X142554616Y-110257150D01*
X142750909Y-110175843D01*
X142927567Y-110057803D01*
X143077803Y-109907567D01*
X143195843Y-109730909D01*
X143277150Y-109534616D01*
X143318600Y-109326233D01*
X143318600Y-109113767D01*
X143701400Y-109113767D01*
X143701400Y-109326233D01*
X143742850Y-109534616D01*
X143824157Y-109730909D01*
X143942197Y-109907567D01*
X144092433Y-110057803D01*
X144269091Y-110175843D01*
X144465384Y-110257150D01*
X144673767Y-110298600D01*
X144886233Y-110298600D01*
X145094616Y-110257150D01*
X145290909Y-110175843D01*
X145467567Y-110057803D01*
X145617803Y-109907567D01*
X145735843Y-109730909D01*
X145817150Y-109534616D01*
X145858600Y-109326233D01*
X145858600Y-109113767D01*
X146241400Y-109113767D01*
X146241400Y-109326233D01*
X146282850Y-109534616D01*
X146364157Y-109730909D01*
X146482197Y-109907567D01*
X146632433Y-110057803D01*
X146809091Y-110175843D01*
X147005384Y-110257150D01*
X147213767Y-110298600D01*
X147426233Y-110298600D01*
X147634616Y-110257150D01*
X147830909Y-110175843D01*
X148007567Y-110057803D01*
X148157803Y-109907567D01*
X148275843Y-109730909D01*
X148357150Y-109534616D01*
X148398600Y-109326233D01*
X148398600Y-109113767D01*
X148781400Y-109113767D01*
X148781400Y-109326233D01*
X148822850Y-109534616D01*
X148904157Y-109730909D01*
X149022197Y-109907567D01*
X149172433Y-110057803D01*
X149349091Y-110175843D01*
X149545384Y-110257150D01*
X149753767Y-110298600D01*
X149966233Y-110298600D01*
X150174616Y-110257150D01*
X150370909Y-110175843D01*
X150547567Y-110057803D01*
X150697803Y-109907567D01*
X150815843Y-109730909D01*
X150897150Y-109534616D01*
X150938600Y-109326233D01*
X150938600Y-109113767D01*
X151321400Y-109113767D01*
X151321400Y-109326233D01*
X151362850Y-109534616D01*
X151444157Y-109730909D01*
X151562197Y-109907567D01*
X151712433Y-110057803D01*
X151889091Y-110175843D01*
X152085384Y-110257150D01*
X152293767Y-110298600D01*
X152506233Y-110298600D01*
X152714616Y-110257150D01*
X152910909Y-110175843D01*
X153087567Y-110057803D01*
X153237803Y-109907567D01*
X153355843Y-109730909D01*
X153437150Y-109534616D01*
X153478600Y-109326233D01*
X153478600Y-109113767D01*
X153861400Y-109113767D01*
X153861400Y-109326233D01*
X153902850Y-109534616D01*
X153984157Y-109730909D01*
X154102197Y-109907567D01*
X154252433Y-110057803D01*
X154429091Y-110175843D01*
X154625384Y-110257150D01*
X154833767Y-110298600D01*
X155046233Y-110298600D01*
X155254616Y-110257150D01*
X155450909Y-110175843D01*
X155627567Y-110057803D01*
X155777803Y-109907567D01*
X155895843Y-109730909D01*
X155977150Y-109534616D01*
X156018600Y-109326233D01*
X156018600Y-109113767D01*
X156401400Y-109113767D01*
X156401400Y-109326233D01*
X156442850Y-109534616D01*
X156524157Y-109730909D01*
X156642197Y-109907567D01*
X156792433Y-110057803D01*
X156969091Y-110175843D01*
X157165384Y-110257150D01*
X157373767Y-110298600D01*
X157586233Y-110298600D01*
X157794616Y-110257150D01*
X157990909Y-110175843D01*
X158167567Y-110057803D01*
X158317803Y-109907567D01*
X158435843Y-109730909D01*
X158517150Y-109534616D01*
X158558600Y-109326233D01*
X158558600Y-109113767D01*
X158941400Y-109113767D01*
X158941400Y-109326233D01*
X158982850Y-109534616D01*
X159064157Y-109730909D01*
X159182197Y-109907567D01*
X159332433Y-110057803D01*
X159509091Y-110175843D01*
X159705384Y-110257150D01*
X159913767Y-110298600D01*
X160126233Y-110298600D01*
X160334616Y-110257150D01*
X160530909Y-110175843D01*
X160707567Y-110057803D01*
X160857803Y-109907567D01*
X160975843Y-109730909D01*
X161057150Y-109534616D01*
X161098600Y-109326233D01*
X161098600Y-109113767D01*
X161481400Y-109113767D01*
X161481400Y-109326233D01*
X161522850Y-109534616D01*
X161604157Y-109730909D01*
X161722197Y-109907567D01*
X161872433Y-110057803D01*
X162049091Y-110175843D01*
X162245384Y-110257150D01*
X162453767Y-110298600D01*
X162666233Y-110298600D01*
X162874616Y-110257150D01*
X163070909Y-110175843D01*
X163247567Y-110057803D01*
X163397803Y-109907567D01*
X163515843Y-109730909D01*
X163597150Y-109534616D01*
X163638600Y-109326233D01*
X163638600Y-109113767D01*
X164021400Y-109113767D01*
X164021400Y-109326233D01*
X164062850Y-109534616D01*
X164144157Y-109730909D01*
X164262197Y-109907567D01*
X164412433Y-110057803D01*
X164589091Y-110175843D01*
X164785384Y-110257150D01*
X164993767Y-110298600D01*
X165206233Y-110298600D01*
X165414616Y-110257150D01*
X165610909Y-110175843D01*
X165787567Y-110057803D01*
X165937803Y-109907567D01*
X166055843Y-109730909D01*
X166137150Y-109534616D01*
X166178600Y-109326233D01*
X166178600Y-109113767D01*
X166561400Y-109113767D01*
X166561400Y-109326233D01*
X166602850Y-109534616D01*
X166684157Y-109730909D01*
X166802197Y-109907567D01*
X166952433Y-110057803D01*
X167129091Y-110175843D01*
X167325384Y-110257150D01*
X167533767Y-110298600D01*
X167746233Y-110298600D01*
X167954616Y-110257150D01*
X168150909Y-110175843D01*
X168327567Y-110057803D01*
X168477803Y-109907567D01*
X168595843Y-109730909D01*
X168677150Y-109534616D01*
X168718600Y-109326233D01*
X168718600Y-109113767D01*
X169101400Y-109113767D01*
X169101400Y-109326233D01*
X169142850Y-109534616D01*
X169224157Y-109730909D01*
X169342197Y-109907567D01*
X169492433Y-110057803D01*
X169669091Y-110175843D01*
X169865384Y-110257150D01*
X170073767Y-110298600D01*
X170286233Y-110298600D01*
X170494616Y-110257150D01*
X170690909Y-110175843D01*
X170867567Y-110057803D01*
X171017803Y-109907567D01*
X171135843Y-109730909D01*
X171217150Y-109534616D01*
X171231281Y-109463571D01*
X171669258Y-109463571D01*
X171736966Y-109663880D01*
X171842451Y-109847131D01*
X171981660Y-110006282D01*
X172149243Y-110135217D01*
X172338760Y-110228981D01*
X172476430Y-110270739D01*
X172643800Y-110238604D01*
X172643800Y-109296200D01*
X172796200Y-109296200D01*
X172796200Y-110238604D01*
X172963570Y-110270739D01*
X173101240Y-110228981D01*
X173290757Y-110135217D01*
X173458340Y-110006282D01*
X173597549Y-109847131D01*
X173703034Y-109663880D01*
X173770742Y-109463571D01*
X173738759Y-109296200D01*
X172796200Y-109296200D01*
X172643800Y-109296200D01*
X171701241Y-109296200D01*
X171669258Y-109463571D01*
X171231281Y-109463571D01*
X171258600Y-109326233D01*
X171258600Y-109113767D01*
X171231282Y-108976429D01*
X171669258Y-108976429D01*
X171701241Y-109143800D01*
X172643800Y-109143800D01*
X172643800Y-108201396D01*
X172796200Y-108201396D01*
X172796200Y-109143800D01*
X173738759Y-109143800D01*
X173770742Y-108976429D01*
X173703034Y-108776120D01*
X173597549Y-108592869D01*
X173458340Y-108433718D01*
X173290757Y-108304783D01*
X173101240Y-108211019D01*
X172963570Y-108169261D01*
X172796200Y-108201396D01*
X172643800Y-108201396D01*
X172476430Y-108169261D01*
X172338760Y-108211019D01*
X172149243Y-108304783D01*
X171981660Y-108433718D01*
X171842451Y-108592869D01*
X171736966Y-108776120D01*
X171669258Y-108976429D01*
X171231282Y-108976429D01*
X171217150Y-108905384D01*
X171135843Y-108709091D01*
X171017803Y-108532433D01*
X170867567Y-108382197D01*
X170690909Y-108264157D01*
X170494616Y-108182850D01*
X170286233Y-108141400D01*
X170073767Y-108141400D01*
X169865384Y-108182850D01*
X169669091Y-108264157D01*
X169492433Y-108382197D01*
X169342197Y-108532433D01*
X169224157Y-108709091D01*
X169142850Y-108905384D01*
X169101400Y-109113767D01*
X168718600Y-109113767D01*
X168677150Y-108905384D01*
X168595843Y-108709091D01*
X168477803Y-108532433D01*
X168327567Y-108382197D01*
X168150909Y-108264157D01*
X167954616Y-108182850D01*
X167746233Y-108141400D01*
X167533767Y-108141400D01*
X167325384Y-108182850D01*
X167129091Y-108264157D01*
X166952433Y-108382197D01*
X166802197Y-108532433D01*
X166684157Y-108709091D01*
X166602850Y-108905384D01*
X166561400Y-109113767D01*
X166178600Y-109113767D01*
X166137150Y-108905384D01*
X166055843Y-108709091D01*
X165937803Y-108532433D01*
X165787567Y-108382197D01*
X165610909Y-108264157D01*
X165414616Y-108182850D01*
X165206233Y-108141400D01*
X164993767Y-108141400D01*
X164785384Y-108182850D01*
X164589091Y-108264157D01*
X164412433Y-108382197D01*
X164262197Y-108532433D01*
X164144157Y-108709091D01*
X164062850Y-108905384D01*
X164021400Y-109113767D01*
X163638600Y-109113767D01*
X163597150Y-108905384D01*
X163515843Y-108709091D01*
X163397803Y-108532433D01*
X163247567Y-108382197D01*
X163070909Y-108264157D01*
X162874616Y-108182850D01*
X162666233Y-108141400D01*
X162453767Y-108141400D01*
X162245384Y-108182850D01*
X162049091Y-108264157D01*
X161872433Y-108382197D01*
X161722197Y-108532433D01*
X161604157Y-108709091D01*
X161522850Y-108905384D01*
X161481400Y-109113767D01*
X161098600Y-109113767D01*
X161057150Y-108905384D01*
X160975843Y-108709091D01*
X160857803Y-108532433D01*
X160707567Y-108382197D01*
X160530909Y-108264157D01*
X160334616Y-108182850D01*
X160126233Y-108141400D01*
X159913767Y-108141400D01*
X159705384Y-108182850D01*
X159509091Y-108264157D01*
X159332433Y-108382197D01*
X159182197Y-108532433D01*
X159064157Y-108709091D01*
X158982850Y-108905384D01*
X158941400Y-109113767D01*
X158558600Y-109113767D01*
X158517150Y-108905384D01*
X158435843Y-108709091D01*
X158317803Y-108532433D01*
X158167567Y-108382197D01*
X157990909Y-108264157D01*
X157794616Y-108182850D01*
X157586233Y-108141400D01*
X157373767Y-108141400D01*
X157165384Y-108182850D01*
X156969091Y-108264157D01*
X156792433Y-108382197D01*
X156642197Y-108532433D01*
X156524157Y-108709091D01*
X156442850Y-108905384D01*
X156401400Y-109113767D01*
X156018600Y-109113767D01*
X155977150Y-108905384D01*
X155895843Y-108709091D01*
X155777803Y-108532433D01*
X155627567Y-108382197D01*
X155450909Y-108264157D01*
X155254616Y-108182850D01*
X155046233Y-108141400D01*
X154833767Y-108141400D01*
X154625384Y-108182850D01*
X154429091Y-108264157D01*
X154252433Y-108382197D01*
X154102197Y-108532433D01*
X153984157Y-108709091D01*
X153902850Y-108905384D01*
X153861400Y-109113767D01*
X153478600Y-109113767D01*
X153437150Y-108905384D01*
X153355843Y-108709091D01*
X153237803Y-108532433D01*
X153087567Y-108382197D01*
X152910909Y-108264157D01*
X152714616Y-108182850D01*
X152506233Y-108141400D01*
X152293767Y-108141400D01*
X152085384Y-108182850D01*
X151889091Y-108264157D01*
X151712433Y-108382197D01*
X151562197Y-108532433D01*
X151444157Y-108709091D01*
X151362850Y-108905384D01*
X151321400Y-109113767D01*
X150938600Y-109113767D01*
X150897150Y-108905384D01*
X150815843Y-108709091D01*
X150697803Y-108532433D01*
X150547567Y-108382197D01*
X150370909Y-108264157D01*
X150174616Y-108182850D01*
X149966233Y-108141400D01*
X149753767Y-108141400D01*
X149545384Y-108182850D01*
X149349091Y-108264157D01*
X149172433Y-108382197D01*
X149022197Y-108532433D01*
X148904157Y-108709091D01*
X148822850Y-108905384D01*
X148781400Y-109113767D01*
X148398600Y-109113767D01*
X148357150Y-108905384D01*
X148275843Y-108709091D01*
X148157803Y-108532433D01*
X148007567Y-108382197D01*
X147830909Y-108264157D01*
X147634616Y-108182850D01*
X147426233Y-108141400D01*
X147213767Y-108141400D01*
X147005384Y-108182850D01*
X146809091Y-108264157D01*
X146632433Y-108382197D01*
X146482197Y-108532433D01*
X146364157Y-108709091D01*
X146282850Y-108905384D01*
X146241400Y-109113767D01*
X145858600Y-109113767D01*
X145817150Y-108905384D01*
X145747558Y-108737375D01*
X150640557Y-103844377D01*
X150653640Y-103833640D01*
X150696490Y-103781427D01*
X150728331Y-103721857D01*
X150747938Y-103657220D01*
X150752900Y-103606843D01*
X150752900Y-103606836D01*
X150754558Y-103590001D01*
X150752900Y-103573166D01*
X150752900Y-102346758D01*
X150778836Y-102329428D01*
X150859428Y-102248836D01*
X150922749Y-102154070D01*
X150966365Y-102048772D01*
X150988600Y-101936987D01*
X150988600Y-101823013D01*
X150966365Y-101711228D01*
X150922749Y-101605930D01*
X150859428Y-101511164D01*
X150778836Y-101430572D01*
X150684070Y-101367251D01*
X150578772Y-101323635D01*
X150466987Y-101301400D01*
X150353013Y-101301400D01*
X150241228Y-101323635D01*
X150135930Y-101367251D01*
X150041164Y-101430572D01*
X149960572Y-101511164D01*
X149897251Y-101605930D01*
X149853635Y-101711228D01*
X149831400Y-101823013D01*
X149831400Y-101936987D01*
X149853635Y-102048772D01*
X149897251Y-102154070D01*
X149960572Y-102248836D01*
X150041164Y-102329428D01*
X150067100Y-102346758D01*
X150067101Y-103447965D01*
X145262625Y-108252442D01*
X145094616Y-108182850D01*
X144886233Y-108141400D01*
X144673767Y-108141400D01*
X144465384Y-108182850D01*
X144269091Y-108264157D01*
X144092433Y-108382197D01*
X143942197Y-108532433D01*
X143824157Y-108709091D01*
X143742850Y-108905384D01*
X143701400Y-109113767D01*
X143318600Y-109113767D01*
X143277150Y-108905384D01*
X143195843Y-108709091D01*
X143077803Y-108532433D01*
X142927567Y-108382197D01*
X142750909Y-108264157D01*
X142554616Y-108182850D01*
X142346233Y-108141400D01*
X142133767Y-108141400D01*
X141925384Y-108182850D01*
X141729091Y-108264157D01*
X141552433Y-108382197D01*
X141402197Y-108532433D01*
X141284157Y-108709091D01*
X141202850Y-108905384D01*
X141161400Y-109113767D01*
X140778600Y-109113767D01*
X140737150Y-108905384D01*
X140655843Y-108709091D01*
X140537803Y-108532433D01*
X140387567Y-108382197D01*
X140210909Y-108264157D01*
X140014616Y-108182850D01*
X139806233Y-108141400D01*
X139593767Y-108141400D01*
X139385384Y-108182850D01*
X139189091Y-108264157D01*
X139012433Y-108382197D01*
X138862197Y-108532433D01*
X138744157Y-108709091D01*
X138662850Y-108905384D01*
X138621400Y-109113767D01*
X138211483Y-109113767D01*
X138238600Y-109086650D01*
X138239706Y-108370000D01*
X138235292Y-108325187D01*
X138222221Y-108282095D01*
X138200994Y-108242382D01*
X138172427Y-108207573D01*
X138137618Y-108179006D01*
X138097905Y-108157779D01*
X138054813Y-108144708D01*
X138010000Y-108140294D01*
X137293350Y-108141400D01*
X137236200Y-108198550D01*
X137083800Y-108198550D01*
X137026650Y-108141400D01*
X136310000Y-108140294D01*
X136265187Y-108144708D01*
X136222095Y-108157779D01*
X136182382Y-108179006D01*
X136147573Y-108207573D01*
X136119006Y-108242382D01*
X136097779Y-108282095D01*
X136084708Y-108325187D01*
X136080294Y-108370000D01*
X135508600Y-108370000D01*
X135508600Y-103530000D01*
X136035294Y-103530000D01*
X136039708Y-103574813D01*
X136052779Y-103617905D01*
X136074006Y-103657618D01*
X136102573Y-103692427D01*
X136137382Y-103720994D01*
X136177095Y-103742221D01*
X136220187Y-103755292D01*
X136265000Y-103759706D01*
X136881650Y-103758600D01*
X136938800Y-103701450D01*
X136938800Y-102956200D01*
X137091200Y-102956200D01*
X137091200Y-103701450D01*
X137148350Y-103758600D01*
X137765000Y-103759706D01*
X137809813Y-103755292D01*
X137852905Y-103742221D01*
X137892618Y-103720994D01*
X137927427Y-103692427D01*
X137955994Y-103657618D01*
X137977221Y-103617905D01*
X137990292Y-103574813D01*
X137994706Y-103530000D01*
X143635294Y-103530000D01*
X143639708Y-103574813D01*
X143652779Y-103617905D01*
X143674006Y-103657618D01*
X143702573Y-103692427D01*
X143737382Y-103720994D01*
X143777095Y-103742221D01*
X143820187Y-103755292D01*
X143865000Y-103759706D01*
X144481650Y-103758600D01*
X144538800Y-103701450D01*
X144538800Y-103206200D01*
X143693550Y-103206200D01*
X143636400Y-103263350D01*
X143635294Y-103530000D01*
X137994706Y-103530000D01*
X137993600Y-103013350D01*
X137936450Y-102956200D01*
X137091200Y-102956200D01*
X136938800Y-102956200D01*
X136093550Y-102956200D01*
X136036400Y-103013350D01*
X136035294Y-103530000D01*
X135508600Y-103530000D01*
X135508600Y-99830000D01*
X135785294Y-99830000D01*
X135789708Y-99874813D01*
X135802779Y-99917905D01*
X135824006Y-99957618D01*
X135852573Y-99992427D01*
X135887382Y-100020994D01*
X135904231Y-100030000D01*
X135887382Y-100039006D01*
X135852573Y-100067573D01*
X135824006Y-100102382D01*
X135802779Y-100142095D01*
X135789708Y-100185187D01*
X135785294Y-100230000D01*
X135785294Y-100930000D01*
X135789708Y-100974813D01*
X135802779Y-101017905D01*
X135824006Y-101057618D01*
X135852573Y-101092427D01*
X135887382Y-101120994D01*
X135904231Y-101130000D01*
X135887382Y-101139006D01*
X135852573Y-101167573D01*
X135824006Y-101202382D01*
X135802779Y-101242095D01*
X135789708Y-101285187D01*
X135785294Y-101330000D01*
X135785294Y-102030000D01*
X135789708Y-102074813D01*
X135802779Y-102117905D01*
X135824006Y-102157618D01*
X135852573Y-102192427D01*
X135887382Y-102220994D01*
X135927095Y-102242221D01*
X135970187Y-102255292D01*
X136015000Y-102259706D01*
X136035358Y-102259706D01*
X136036400Y-102746650D01*
X136093550Y-102803800D01*
X136938800Y-102803800D01*
X136938800Y-102783800D01*
X137091200Y-102783800D01*
X137091200Y-102803800D01*
X137936450Y-102803800D01*
X137993600Y-102746650D01*
X137993635Y-102730000D01*
X143635294Y-102730000D01*
X143636400Y-102996650D01*
X143693550Y-103053800D01*
X144538800Y-103053800D01*
X144538800Y-102558550D01*
X144481650Y-102501400D01*
X143865000Y-102500294D01*
X143820187Y-102504708D01*
X143777095Y-102517779D01*
X143737382Y-102539006D01*
X143702573Y-102567573D01*
X143674006Y-102602382D01*
X143652779Y-102642095D01*
X143639708Y-102685187D01*
X143635294Y-102730000D01*
X137993635Y-102730000D01*
X137994706Y-102230000D01*
X137990292Y-102185187D01*
X137977221Y-102142095D01*
X137970756Y-102130000D01*
X137977221Y-102117905D01*
X137990292Y-102074813D01*
X137994706Y-102030000D01*
X137994706Y-102022900D01*
X145393435Y-102022900D01*
X145389708Y-102035187D01*
X145385294Y-102080000D01*
X145386084Y-102502371D01*
X145365000Y-102500294D01*
X144748350Y-102501400D01*
X144691200Y-102558550D01*
X144691200Y-103053800D01*
X144711200Y-103053800D01*
X144711200Y-103206200D01*
X144691200Y-103206200D01*
X144691200Y-103701450D01*
X144748350Y-103758600D01*
X145365000Y-103759706D01*
X145409813Y-103755292D01*
X145452905Y-103742221D01*
X145490000Y-103722393D01*
X145527095Y-103742221D01*
X145570187Y-103755292D01*
X145615000Y-103759706D01*
X145981650Y-103758600D01*
X146038800Y-103701450D01*
X146038800Y-102881200D01*
X146191200Y-102881200D01*
X146191200Y-103701450D01*
X146248350Y-103758600D01*
X146615000Y-103759706D01*
X146659813Y-103755292D01*
X146702905Y-103742221D01*
X146742618Y-103720994D01*
X146777427Y-103692427D01*
X146805994Y-103657618D01*
X146827221Y-103617905D01*
X146840292Y-103574813D01*
X146844706Y-103530000D01*
X146843600Y-102938350D01*
X146786450Y-102881200D01*
X146191200Y-102881200D01*
X146038800Y-102881200D01*
X146018800Y-102881200D01*
X146018800Y-102728800D01*
X146038800Y-102728800D01*
X146038800Y-102708800D01*
X146191200Y-102708800D01*
X146191200Y-102728800D01*
X146786450Y-102728800D01*
X146843600Y-102671650D01*
X146844706Y-102080000D01*
X146840292Y-102035187D01*
X146836565Y-102022900D01*
X148732593Y-102022900D01*
X148749428Y-102024558D01*
X148766263Y-102022900D01*
X148766271Y-102022900D01*
X148816648Y-102017938D01*
X148881285Y-101998331D01*
X148940855Y-101966490D01*
X148993068Y-101923640D01*
X149003809Y-101910552D01*
X152160562Y-98753800D01*
X152173639Y-98743068D01*
X152184372Y-98729990D01*
X152184376Y-98729986D01*
X152202071Y-98708424D01*
X152216490Y-98690855D01*
X152248331Y-98631285D01*
X152267938Y-98566648D01*
X152272900Y-98516271D01*
X152272900Y-98516264D01*
X152274558Y-98499429D01*
X152272900Y-98482594D01*
X152272900Y-98265048D01*
X152298836Y-98247718D01*
X152379428Y-98167126D01*
X152442749Y-98072360D01*
X152486365Y-97967062D01*
X152508600Y-97855277D01*
X152508600Y-97741303D01*
X152486365Y-97629518D01*
X152442749Y-97524220D01*
X152379428Y-97429454D01*
X152298836Y-97348862D01*
X152204070Y-97285541D01*
X152098772Y-97241925D01*
X151986987Y-97219690D01*
X151873013Y-97219690D01*
X151761228Y-97241925D01*
X151655930Y-97285541D01*
X151561164Y-97348862D01*
X151480572Y-97429454D01*
X151417251Y-97524220D01*
X151373635Y-97629518D01*
X151351400Y-97741303D01*
X151351400Y-97855277D01*
X151363915Y-97918194D01*
X151280482Y-97883635D01*
X151168697Y-97861400D01*
X151054723Y-97861400D01*
X150942938Y-97883635D01*
X150837640Y-97927251D01*
X150742874Y-97990572D01*
X150662282Y-98071164D01*
X150598961Y-98165930D01*
X150555345Y-98271228D01*
X150533110Y-98383013D01*
X150533110Y-98496987D01*
X150539195Y-98527581D01*
X148829677Y-100237100D01*
X137994706Y-100237100D01*
X137994706Y-100230000D01*
X137990292Y-100185187D01*
X137977221Y-100142095D01*
X137955994Y-100102382D01*
X137927427Y-100067573D01*
X137892618Y-100039006D01*
X137875769Y-100030000D01*
X137892618Y-100020994D01*
X137927427Y-99992427D01*
X137955994Y-99957618D01*
X137977221Y-99917905D01*
X137990292Y-99874813D01*
X137994706Y-99830000D01*
X137993600Y-99613350D01*
X137936450Y-99556200D01*
X136966200Y-99556200D01*
X136966200Y-99576200D01*
X136813800Y-99576200D01*
X136813800Y-99556200D01*
X135843550Y-99556200D01*
X135786400Y-99613350D01*
X135785294Y-99830000D01*
X135508600Y-99830000D01*
X135508600Y-93630000D01*
X135785294Y-93630000D01*
X135785294Y-94330000D01*
X135789708Y-94374813D01*
X135802779Y-94417905D01*
X135824006Y-94457618D01*
X135852573Y-94492427D01*
X135887382Y-94520994D01*
X135904231Y-94530000D01*
X135887382Y-94539006D01*
X135852573Y-94567573D01*
X135824006Y-94602382D01*
X135802779Y-94642095D01*
X135789708Y-94685187D01*
X135785294Y-94730000D01*
X135785294Y-95430000D01*
X135789708Y-95474813D01*
X135802779Y-95517905D01*
X135824006Y-95557618D01*
X135852573Y-95592427D01*
X135887382Y-95620994D01*
X135904231Y-95630000D01*
X135887382Y-95639006D01*
X135852573Y-95667573D01*
X135824006Y-95702382D01*
X135802779Y-95742095D01*
X135789708Y-95785187D01*
X135785294Y-95830000D01*
X135785294Y-96530000D01*
X135789708Y-96574813D01*
X135802779Y-96617905D01*
X135824006Y-96657618D01*
X135852573Y-96692427D01*
X135887382Y-96720994D01*
X135904231Y-96730000D01*
X135887382Y-96739006D01*
X135852573Y-96767573D01*
X135824006Y-96802382D01*
X135802779Y-96842095D01*
X135789708Y-96885187D01*
X135785294Y-96930000D01*
X135785294Y-97630000D01*
X135789708Y-97674813D01*
X135802779Y-97717905D01*
X135824006Y-97757618D01*
X135852573Y-97792427D01*
X135887382Y-97820994D01*
X135904231Y-97830000D01*
X135887382Y-97839006D01*
X135852573Y-97867573D01*
X135824006Y-97902382D01*
X135802779Y-97942095D01*
X135789708Y-97985187D01*
X135785294Y-98030000D01*
X135785294Y-98730000D01*
X135789708Y-98774813D01*
X135802779Y-98817905D01*
X135824006Y-98857618D01*
X135852573Y-98892427D01*
X135887382Y-98920994D01*
X135904231Y-98930000D01*
X135887382Y-98939006D01*
X135852573Y-98967573D01*
X135824006Y-99002382D01*
X135802779Y-99042095D01*
X135789708Y-99085187D01*
X135785294Y-99130000D01*
X135786400Y-99346650D01*
X135843550Y-99403800D01*
X136813800Y-99403800D01*
X136813800Y-99383800D01*
X136966200Y-99383800D01*
X136966200Y-99403800D01*
X137936450Y-99403800D01*
X137993600Y-99346650D01*
X137994706Y-99130000D01*
X137990292Y-99085187D01*
X137977221Y-99042095D01*
X137955994Y-99002382D01*
X137927427Y-98967573D01*
X137892618Y-98939006D01*
X137875769Y-98930000D01*
X137892618Y-98920994D01*
X137927427Y-98892427D01*
X137955994Y-98857618D01*
X137977221Y-98817905D01*
X137990292Y-98774813D01*
X137992775Y-98749602D01*
X147229144Y-98749602D01*
X147245979Y-98751260D01*
X147262814Y-98749602D01*
X147262822Y-98749602D01*
X147313199Y-98744640D01*
X147377836Y-98725033D01*
X147437406Y-98693192D01*
X147489619Y-98650342D01*
X147500360Y-98637254D01*
X150410548Y-95727067D01*
X150423625Y-95716335D01*
X150434358Y-95703257D01*
X150434362Y-95703253D01*
X150452854Y-95680720D01*
X150466476Y-95664122D01*
X150498317Y-95604552D01*
X150516468Y-95544714D01*
X150517924Y-95539916D01*
X150522456Y-95493899D01*
X150522886Y-95489538D01*
X150522886Y-95489531D01*
X150524544Y-95472696D01*
X150522886Y-95455861D01*
X150522886Y-95444479D01*
X150548822Y-95427149D01*
X150629414Y-95346557D01*
X150692735Y-95251791D01*
X150736351Y-95146493D01*
X150758586Y-95034708D01*
X150758586Y-94920734D01*
X150736351Y-94808949D01*
X150692843Y-94703911D01*
X151329018Y-94703911D01*
X151402020Y-94752690D01*
X151507318Y-94796306D01*
X151619103Y-94818541D01*
X151733077Y-94818541D01*
X151844862Y-94796306D01*
X151950160Y-94752690D01*
X152044926Y-94689369D01*
X152125518Y-94608777D01*
X152188839Y-94514011D01*
X152232455Y-94408713D01*
X152254690Y-94296928D01*
X152254690Y-94182954D01*
X152232455Y-94071169D01*
X152188839Y-93965871D01*
X152125518Y-93871105D01*
X152081965Y-93827552D01*
X152152718Y-93756799D01*
X152216039Y-93662033D01*
X152259655Y-93556735D01*
X152281890Y-93444950D01*
X152281890Y-93330976D01*
X152259655Y-93219191D01*
X152216039Y-93113893D01*
X152152718Y-93019127D01*
X152072126Y-92938535D01*
X152063693Y-92932900D01*
X156200249Y-92932900D01*
X157324606Y-94057258D01*
X157335343Y-94070341D01*
X157387556Y-94113191D01*
X157447126Y-94145032D01*
X157511763Y-94164639D01*
X157562140Y-94169601D01*
X157562147Y-94169601D01*
X157578982Y-94171259D01*
X157595817Y-94169601D01*
X159089668Y-94169601D01*
X159687442Y-94767375D01*
X159617850Y-94935384D01*
X159576400Y-95143767D01*
X159576400Y-95356233D01*
X159617850Y-95564616D01*
X159699157Y-95760909D01*
X159817197Y-95937567D01*
X159903431Y-96023801D01*
X159060159Y-96023801D01*
X159043324Y-96022143D01*
X159026489Y-96023801D01*
X159026482Y-96023801D01*
X158976105Y-96028763D01*
X158911468Y-96048370D01*
X158851898Y-96080211D01*
X158799685Y-96123061D01*
X158788948Y-96136144D01*
X158255026Y-96670066D01*
X157883412Y-96298452D01*
X158038800Y-96268759D01*
X158038800Y-95326200D01*
X158191200Y-95326200D01*
X158191200Y-96268759D01*
X158358571Y-96300742D01*
X158558880Y-96233034D01*
X158742131Y-96127549D01*
X158901282Y-95988340D01*
X159030217Y-95820757D01*
X159123981Y-95631240D01*
X159165739Y-95493570D01*
X159133604Y-95326200D01*
X158191200Y-95326200D01*
X158038800Y-95326200D01*
X157096396Y-95326200D01*
X157066559Y-95481600D01*
X156614112Y-95029152D01*
X156636834Y-95006430D01*
X157064261Y-95006430D01*
X157096396Y-95173800D01*
X158038800Y-95173800D01*
X158038800Y-94231241D01*
X158191200Y-94231241D01*
X158191200Y-95173800D01*
X159133604Y-95173800D01*
X159165739Y-95006430D01*
X159123981Y-94868760D01*
X159030217Y-94679243D01*
X158901282Y-94511660D01*
X158742131Y-94372451D01*
X158558880Y-94266966D01*
X158358571Y-94199258D01*
X158191200Y-94231241D01*
X158038800Y-94231241D01*
X157871429Y-94199258D01*
X157671120Y-94266966D01*
X157487869Y-94372451D01*
X157328718Y-94511660D01*
X157199783Y-94679243D01*
X157106019Y-94868760D01*
X157064261Y-95006430D01*
X156636834Y-95006430D01*
X156659428Y-94983836D01*
X156722749Y-94889070D01*
X156766365Y-94783772D01*
X156788600Y-94671987D01*
X156788600Y-94558013D01*
X156766365Y-94446228D01*
X156722749Y-94340930D01*
X156659428Y-94246164D01*
X156578836Y-94165572D01*
X156484070Y-94102251D01*
X156378772Y-94058635D01*
X156266987Y-94036400D01*
X156153013Y-94036400D01*
X156041228Y-94058635D01*
X155935930Y-94102251D01*
X155841164Y-94165572D01*
X155760572Y-94246164D01*
X155697251Y-94340930D01*
X155653635Y-94446228D01*
X155631400Y-94558013D01*
X155631400Y-94671987D01*
X155653635Y-94783772D01*
X155697251Y-94889070D01*
X155760572Y-94983836D01*
X155841164Y-95064428D01*
X155867101Y-95081759D01*
X155867101Y-95093129D01*
X155865442Y-95109974D01*
X155872062Y-95177193D01*
X155884004Y-95216559D01*
X155891670Y-95241831D01*
X155923511Y-95301401D01*
X155966361Y-95353614D01*
X155979443Y-95364350D01*
X158000652Y-97385560D01*
X158011386Y-97398640D01*
X158024466Y-97409374D01*
X158024469Y-97409377D01*
X158063599Y-97441490D01*
X158123169Y-97473331D01*
X158187806Y-97492938D01*
X158255026Y-97499559D01*
X158322246Y-97492938D01*
X158386883Y-97473331D01*
X158446452Y-97441490D01*
X158498666Y-97398640D01*
X158509406Y-97385553D01*
X159185359Y-96709601D01*
X160902014Y-96709601D01*
X157624515Y-99987100D01*
X157311758Y-99987100D01*
X157294428Y-99961164D01*
X157213836Y-99880572D01*
X157119070Y-99817251D01*
X157013772Y-99773635D01*
X156901987Y-99751400D01*
X156788013Y-99751400D01*
X156676228Y-99773635D01*
X156570930Y-99817251D01*
X156476164Y-99880572D01*
X156395572Y-99961164D01*
X156332251Y-100055930D01*
X156288635Y-100161228D01*
X156266400Y-100273013D01*
X156266400Y-100386987D01*
X156288635Y-100498772D01*
X156332251Y-100604070D01*
X156395572Y-100698836D01*
X156476164Y-100779428D01*
X156570930Y-100842749D01*
X156676228Y-100886365D01*
X156788013Y-100908600D01*
X156901987Y-100908600D01*
X157013772Y-100886365D01*
X157119070Y-100842749D01*
X157213836Y-100779428D01*
X157294428Y-100698836D01*
X157311758Y-100672900D01*
X157749713Y-100672900D01*
X157766548Y-100674558D01*
X157782005Y-100673036D01*
X157259152Y-101195888D01*
X157213836Y-101150572D01*
X157119070Y-101087251D01*
X157013772Y-101043635D01*
X156901987Y-101021400D01*
X156788013Y-101021400D01*
X156676228Y-101043635D01*
X156570930Y-101087251D01*
X156476164Y-101150572D01*
X156395572Y-101231164D01*
X156332251Y-101325930D01*
X156288635Y-101431228D01*
X156266400Y-101543013D01*
X156266400Y-101656987D01*
X156288635Y-101768772D01*
X156332251Y-101874070D01*
X156395572Y-101968836D01*
X156476164Y-102049428D01*
X156570930Y-102112749D01*
X156676228Y-102156365D01*
X156788013Y-102178600D01*
X156901987Y-102178600D01*
X157013772Y-102156365D01*
X157119070Y-102112749D01*
X157213836Y-102049428D01*
X157294428Y-101968836D01*
X157311758Y-101942900D01*
X157323139Y-101942900D01*
X157339974Y-101944558D01*
X157356809Y-101942900D01*
X157356817Y-101942900D01*
X157407194Y-101937938D01*
X157471831Y-101918331D01*
X157531401Y-101886490D01*
X157583614Y-101843640D01*
X157594355Y-101830552D01*
X161061400Y-98363508D01*
X161061400Y-106680000D01*
X161065792Y-106724598D01*
X161078801Y-106767481D01*
X161099926Y-106807003D01*
X161128355Y-106841645D01*
X161162997Y-106870074D01*
X161202519Y-106891199D01*
X161245402Y-106904208D01*
X161290000Y-106908600D01*
X168910000Y-106908600D01*
X168954598Y-106904208D01*
X168997481Y-106891199D01*
X169037003Y-106870074D01*
X169071645Y-106841645D01*
X169100074Y-106807003D01*
X169121199Y-106767481D01*
X169134208Y-106724598D01*
X169138600Y-106680000D01*
X169138600Y-100343747D01*
X169406516Y-100343747D01*
X169487707Y-100472546D01*
X169656805Y-100554342D01*
X169838612Y-100601576D01*
X170026141Y-100612435D01*
X170212185Y-100586499D01*
X170389595Y-100524767D01*
X170487293Y-100472546D01*
X170568484Y-100343747D01*
X169987500Y-99762763D01*
X169406516Y-100343747D01*
X169138600Y-100343747D01*
X169138600Y-100096134D01*
X169169954Y-100154793D01*
X169298753Y-100235984D01*
X169879737Y-99655000D01*
X169298753Y-99074016D01*
X169169954Y-99155207D01*
X169138600Y-99220026D01*
X169138600Y-98966253D01*
X169406516Y-98966253D01*
X169987500Y-99547237D01*
X170568484Y-98966253D01*
X170487293Y-98837454D01*
X170318195Y-98755658D01*
X170136388Y-98708424D01*
X169948859Y-98697565D01*
X169762815Y-98723501D01*
X169585405Y-98785233D01*
X169487707Y-98837454D01*
X169406516Y-98966253D01*
X169138600Y-98966253D01*
X169138600Y-97790000D01*
X169134208Y-97745402D01*
X169121199Y-97702519D01*
X169100074Y-97662997D01*
X169071645Y-97628355D01*
X169037003Y-97599926D01*
X168997481Y-97578801D01*
X168954598Y-97565792D01*
X168910000Y-97561400D01*
X165519100Y-97561400D01*
X165519100Y-95343747D01*
X169406516Y-95343747D01*
X169487707Y-95472546D01*
X169656805Y-95554342D01*
X169838612Y-95601576D01*
X170026141Y-95612435D01*
X170212185Y-95586499D01*
X170389595Y-95524767D01*
X170487293Y-95472546D01*
X170568484Y-95343747D01*
X169987500Y-94762763D01*
X169406516Y-95343747D01*
X165519100Y-95343747D01*
X165519100Y-94788596D01*
X165614055Y-94693641D01*
X169030065Y-94693641D01*
X169056001Y-94879685D01*
X169117733Y-95057095D01*
X169169954Y-95154793D01*
X169298753Y-95235984D01*
X169879737Y-94655000D01*
X170095263Y-94655000D01*
X170676247Y-95235984D01*
X170680901Y-95233050D01*
X170680902Y-99076950D01*
X170676247Y-99074016D01*
X170095263Y-99655000D01*
X170676247Y-100235984D01*
X170680902Y-100233050D01*
X170680902Y-104404411D01*
X170678874Y-104425001D01*
X170686966Y-104507158D01*
X170710931Y-104586159D01*
X170749848Y-104658967D01*
X170802220Y-104722783D01*
X170818207Y-104735903D01*
X170871400Y-104789096D01*
X170871400Y-104831987D01*
X170893635Y-104943772D01*
X170937251Y-105049070D01*
X171000572Y-105143836D01*
X171081164Y-105224428D01*
X171175930Y-105287749D01*
X171281228Y-105331365D01*
X171393013Y-105353600D01*
X171506987Y-105353600D01*
X171618772Y-105331365D01*
X171724070Y-105287749D01*
X171818836Y-105224428D01*
X171899428Y-105143836D01*
X171962749Y-105049070D01*
X172006365Y-104943772D01*
X172028600Y-104831987D01*
X172028600Y-104718013D01*
X172006365Y-104606228D01*
X171962749Y-104500930D01*
X171899428Y-104406164D01*
X171818836Y-104325572D01*
X171724070Y-104262251D01*
X171618772Y-104218635D01*
X171519101Y-104198810D01*
X171519101Y-100731202D01*
X171569822Y-100731202D01*
X171534490Y-100859334D01*
X171542813Y-100901691D01*
X171606210Y-101051987D01*
X171697710Y-101187027D01*
X171813797Y-101301621D01*
X171950009Y-101391366D01*
X172101112Y-101452813D01*
X172261300Y-101483600D01*
X172611300Y-101483600D01*
X172611300Y-100731200D01*
X172763700Y-100731200D01*
X172763700Y-101483600D01*
X173113700Y-101483600D01*
X173273888Y-101452813D01*
X173424991Y-101391366D01*
X173561203Y-101301621D01*
X173677290Y-101187027D01*
X173768790Y-101051987D01*
X173832187Y-100901691D01*
X173840510Y-100859334D01*
X173805177Y-100731200D01*
X172763700Y-100731200D01*
X172611300Y-100731200D01*
X172591300Y-100731200D01*
X172591300Y-100578800D01*
X172611300Y-100578800D01*
X172611300Y-99826400D01*
X172763700Y-99826400D01*
X172763700Y-100578800D01*
X173805177Y-100578800D01*
X173840510Y-100450666D01*
X173832187Y-100408309D01*
X173768790Y-100258013D01*
X173677290Y-100122973D01*
X173561203Y-100008379D01*
X173424991Y-99918634D01*
X173273888Y-99857187D01*
X173113700Y-99826400D01*
X172763700Y-99826400D01*
X172611300Y-99826400D01*
X172261300Y-99826400D01*
X172101112Y-99857187D01*
X171950009Y-99918634D01*
X171813797Y-100008379D01*
X171697710Y-100122973D01*
X171606210Y-100258013D01*
X171542813Y-100408309D01*
X171534490Y-100450666D01*
X171569822Y-100578798D01*
X171519101Y-100578798D01*
X171519101Y-93731202D01*
X171569822Y-93731202D01*
X171534490Y-93859334D01*
X171542813Y-93901691D01*
X171606210Y-94051987D01*
X171697710Y-94187027D01*
X171813797Y-94301621D01*
X171950009Y-94391366D01*
X172101112Y-94452813D01*
X172261300Y-94483600D01*
X172611300Y-94483600D01*
X172611300Y-93731200D01*
X172763700Y-93731200D01*
X172763700Y-94483600D01*
X173113700Y-94483600D01*
X173273888Y-94452813D01*
X173424991Y-94391366D01*
X173561203Y-94301621D01*
X173677290Y-94187027D01*
X173768790Y-94051987D01*
X173832187Y-93901691D01*
X173840510Y-93859334D01*
X173805177Y-93731200D01*
X172763700Y-93731200D01*
X172611300Y-93731200D01*
X172591300Y-93731200D01*
X172591300Y-93578800D01*
X172611300Y-93578800D01*
X172611300Y-92826400D01*
X172763700Y-92826400D01*
X172763700Y-93578800D01*
X173805177Y-93578800D01*
X173840510Y-93450666D01*
X173832187Y-93408309D01*
X173768790Y-93258013D01*
X173677290Y-93122973D01*
X173561203Y-93008379D01*
X173424991Y-92918634D01*
X173273888Y-92857187D01*
X173113700Y-92826400D01*
X172763700Y-92826400D01*
X172611300Y-92826400D01*
X172261300Y-92826400D01*
X172101112Y-92857187D01*
X171950009Y-92918634D01*
X171813797Y-93008379D01*
X171697710Y-93122973D01*
X171606210Y-93258013D01*
X171542813Y-93408309D01*
X171534490Y-93450666D01*
X171569822Y-93578798D01*
X171519101Y-93578798D01*
X171519101Y-91381190D01*
X171618772Y-91361365D01*
X171724070Y-91317749D01*
X171818836Y-91254428D01*
X171899428Y-91173836D01*
X171962749Y-91079070D01*
X172006365Y-90973772D01*
X172028600Y-90861987D01*
X172028600Y-90748013D01*
X172006365Y-90636228D01*
X171962749Y-90530930D01*
X171899428Y-90436164D01*
X171818836Y-90355572D01*
X171724070Y-90292251D01*
X171618772Y-90248635D01*
X171506987Y-90226400D01*
X171393013Y-90226400D01*
X171281228Y-90248635D01*
X171175930Y-90292251D01*
X171081164Y-90355572D01*
X171000572Y-90436164D01*
X170937251Y-90530930D01*
X170893635Y-90636228D01*
X170871400Y-90748013D01*
X170871400Y-90790904D01*
X170818212Y-90844092D01*
X170802219Y-90857217D01*
X170749847Y-90921034D01*
X170710930Y-90993842D01*
X170697242Y-91038966D01*
X170686966Y-91072842D01*
X170678874Y-91154999D01*
X170680901Y-91175579D01*
X170680901Y-94076950D01*
X170676247Y-94074016D01*
X170095263Y-94655000D01*
X169879737Y-94655000D01*
X169298753Y-94074016D01*
X169169954Y-94155207D01*
X169088158Y-94324305D01*
X169040924Y-94506112D01*
X169030065Y-94693641D01*
X165614055Y-94693641D01*
X165749096Y-94558600D01*
X165791987Y-94558600D01*
X165903772Y-94536365D01*
X166009070Y-94492749D01*
X166103836Y-94429428D01*
X166184428Y-94348836D01*
X166247749Y-94254070D01*
X166291365Y-94148772D01*
X166313600Y-94036987D01*
X166313600Y-93966253D01*
X169406516Y-93966253D01*
X169987500Y-94547237D01*
X170568484Y-93966253D01*
X170487293Y-93837454D01*
X170318195Y-93755658D01*
X170136388Y-93708424D01*
X169948859Y-93697565D01*
X169762815Y-93723501D01*
X169585405Y-93785233D01*
X169487707Y-93837454D01*
X169406516Y-93966253D01*
X166313600Y-93966253D01*
X166313600Y-93923013D01*
X166291365Y-93811228D01*
X166247749Y-93705930D01*
X166184428Y-93611164D01*
X166103836Y-93530572D01*
X166009070Y-93467251D01*
X165903772Y-93423635D01*
X165791987Y-93401400D01*
X165678013Y-93401400D01*
X165566228Y-93423635D01*
X165463921Y-93466012D01*
X170410556Y-88519377D01*
X170423639Y-88508640D01*
X170466490Y-88456427D01*
X170498331Y-88396857D01*
X170517938Y-88332220D01*
X170522900Y-88281843D01*
X170522900Y-88281842D01*
X170524559Y-88265000D01*
X170522900Y-88248157D01*
X170522900Y-87385434D01*
X170690909Y-87315843D01*
X170867567Y-87197803D01*
X171017803Y-87047567D01*
X171135843Y-86870909D01*
X171217150Y-86674616D01*
X171231281Y-86603571D01*
X171669258Y-86603571D01*
X171736966Y-86803880D01*
X171842451Y-86987131D01*
X171981660Y-87146282D01*
X172149243Y-87275217D01*
X172338760Y-87368981D01*
X172476430Y-87410739D01*
X172643800Y-87378604D01*
X172643800Y-86436200D01*
X172796200Y-86436200D01*
X172796200Y-87378604D01*
X172963570Y-87410739D01*
X173101240Y-87368981D01*
X173290757Y-87275217D01*
X173458340Y-87146282D01*
X173597549Y-86987131D01*
X173703034Y-86803880D01*
X173770742Y-86603571D01*
X173738759Y-86436200D01*
X172796200Y-86436200D01*
X172643800Y-86436200D01*
X171701241Y-86436200D01*
X171669258Y-86603571D01*
X171231281Y-86603571D01*
X171258600Y-86466233D01*
X171258600Y-86253767D01*
X171231282Y-86116429D01*
X171669258Y-86116429D01*
X171701241Y-86283800D01*
X172643800Y-86283800D01*
X172643800Y-85341396D01*
X172796200Y-85341396D01*
X172796200Y-86283800D01*
X173738759Y-86283800D01*
X173770742Y-86116429D01*
X173703034Y-85916120D01*
X173597549Y-85732869D01*
X173458340Y-85573718D01*
X173290757Y-85444783D01*
X173101240Y-85351019D01*
X172963570Y-85309261D01*
X172796200Y-85341396D01*
X172643800Y-85341396D01*
X172476430Y-85309261D01*
X172338760Y-85351019D01*
X172149243Y-85444783D01*
X171981660Y-85573718D01*
X171842451Y-85732869D01*
X171736966Y-85916120D01*
X171669258Y-86116429D01*
X171231282Y-86116429D01*
X171217150Y-86045384D01*
X171135843Y-85849091D01*
X171017803Y-85672433D01*
X170867567Y-85522197D01*
X170690909Y-85404157D01*
X170494616Y-85322850D01*
X170286233Y-85281400D01*
X170073767Y-85281400D01*
X169865384Y-85322850D01*
X169669091Y-85404157D01*
X169492433Y-85522197D01*
X169342197Y-85672433D01*
X169224157Y-85849091D01*
X169142850Y-86045384D01*
X169101400Y-86253767D01*
X169101400Y-86466233D01*
X169142850Y-86674616D01*
X169224157Y-86870909D01*
X169342197Y-87047567D01*
X169492433Y-87197803D01*
X169669091Y-87315843D01*
X169837100Y-87385435D01*
X169837100Y-88122967D01*
X167982900Y-89977167D01*
X167982900Y-87385434D01*
X168150909Y-87315843D01*
X168327567Y-87197803D01*
X168477803Y-87047567D01*
X168595843Y-86870909D01*
X168677150Y-86674616D01*
X168718600Y-86466233D01*
X168718600Y-86253767D01*
X168677150Y-86045384D01*
X168595843Y-85849091D01*
X168477803Y-85672433D01*
X168327567Y-85522197D01*
X168150909Y-85404157D01*
X167954616Y-85322850D01*
X167746233Y-85281400D01*
X167533767Y-85281400D01*
X167325384Y-85322850D01*
X167129091Y-85404157D01*
X166952433Y-85522197D01*
X166802197Y-85672433D01*
X166684157Y-85849091D01*
X166602850Y-86045384D01*
X166561400Y-86253767D01*
X166561400Y-86466233D01*
X166602850Y-86674616D01*
X166684157Y-86870909D01*
X166802197Y-87047567D01*
X166952433Y-87197803D01*
X167129091Y-87315843D01*
X167297101Y-87385435D01*
X167297100Y-89931796D01*
X162114601Y-95114296D01*
X162114601Y-94275332D01*
X164377419Y-92012515D01*
X164408013Y-92018600D01*
X164521987Y-92018600D01*
X164633772Y-91996365D01*
X164739070Y-91952749D01*
X164833836Y-91889428D01*
X164914428Y-91808836D01*
X164977749Y-91714070D01*
X165021365Y-91608772D01*
X165043600Y-91496987D01*
X165043600Y-91383013D01*
X165021365Y-91271228D01*
X164977749Y-91165930D01*
X164914428Y-91071164D01*
X164833836Y-90990572D01*
X164739070Y-90927251D01*
X164633772Y-90883635D01*
X164521987Y-90861400D01*
X164408013Y-90861400D01*
X164296228Y-90883635D01*
X164190930Y-90927251D01*
X164096164Y-90990572D01*
X164015572Y-91071164D01*
X163952251Y-91165930D01*
X163908635Y-91271228D01*
X163886400Y-91383013D01*
X163886400Y-91496987D01*
X163892485Y-91527581D01*
X161541144Y-93878923D01*
X161528062Y-93889659D01*
X161485212Y-93941872D01*
X161456119Y-93996301D01*
X161453371Y-94001442D01*
X161433763Y-94066080D01*
X161427143Y-94133299D01*
X161428802Y-94150144D01*
X161428802Y-94498432D01*
X161342567Y-94412197D01*
X161165909Y-94294157D01*
X160969616Y-94212850D01*
X160761233Y-94171400D01*
X160548767Y-94171400D01*
X160340384Y-94212850D01*
X160172375Y-94282442D01*
X159486082Y-93596149D01*
X159475341Y-93583061D01*
X159423128Y-93540211D01*
X159363558Y-93508370D01*
X159298921Y-93488763D01*
X159248544Y-93483801D01*
X159248536Y-93483801D01*
X159231701Y-93482143D01*
X159214866Y-93483801D01*
X158866569Y-93483801D01*
X158952803Y-93397567D01*
X159070843Y-93220909D01*
X159152150Y-93024616D01*
X159193600Y-92816233D01*
X159193600Y-92603767D01*
X159576400Y-92603767D01*
X159576400Y-92816233D01*
X159617850Y-93024616D01*
X159699157Y-93220909D01*
X159817197Y-93397567D01*
X159967433Y-93547803D01*
X160144091Y-93665843D01*
X160340384Y-93747150D01*
X160548767Y-93788600D01*
X160761233Y-93788600D01*
X160969616Y-93747150D01*
X161165909Y-93665843D01*
X161342567Y-93547803D01*
X161492803Y-93397567D01*
X161610843Y-93220909D01*
X161692150Y-93024616D01*
X161733600Y-92816233D01*
X161733600Y-92603767D01*
X161692150Y-92395384D01*
X161610843Y-92199091D01*
X161492803Y-92022433D01*
X161342567Y-91872197D01*
X161165909Y-91754157D01*
X160969616Y-91672850D01*
X160761233Y-91631400D01*
X160548767Y-91631400D01*
X160340384Y-91672850D01*
X160144091Y-91754157D01*
X159967433Y-91872197D01*
X159817197Y-92022433D01*
X159699157Y-92199091D01*
X159617850Y-92395384D01*
X159576400Y-92603767D01*
X159193600Y-92603767D01*
X159152150Y-92395384D01*
X159070843Y-92199091D01*
X158952803Y-92022433D01*
X158802567Y-91872197D01*
X158625909Y-91754157D01*
X158429616Y-91672850D01*
X158221233Y-91631400D01*
X158008767Y-91631400D01*
X157800384Y-91672850D01*
X157604091Y-91754157D01*
X157427433Y-91872197D01*
X157277197Y-92022433D01*
X157159157Y-92199091D01*
X157077850Y-92395384D01*
X157036400Y-92603767D01*
X157036400Y-92799185D01*
X156596663Y-92359448D01*
X156585922Y-92346360D01*
X156533709Y-92303510D01*
X156474139Y-92271669D01*
X156409502Y-92252062D01*
X156359125Y-92247100D01*
X156359117Y-92247100D01*
X156342282Y-92245442D01*
X156325447Y-92247100D01*
X148621733Y-92247100D01*
X148627427Y-92242427D01*
X148655994Y-92207618D01*
X148677221Y-92167905D01*
X148690292Y-92124813D01*
X148694706Y-92080000D01*
X148694706Y-91080000D01*
X148690292Y-91035187D01*
X148677221Y-90992095D01*
X148655994Y-90952382D01*
X148627427Y-90917573D01*
X148592618Y-90889006D01*
X148552905Y-90867779D01*
X148509813Y-90854708D01*
X148465000Y-90850294D01*
X148252900Y-90850294D01*
X148252900Y-90346758D01*
X148278836Y-90329428D01*
X148359428Y-90248836D01*
X148422749Y-90154070D01*
X148466365Y-90048772D01*
X148488600Y-89936987D01*
X148488600Y-89823013D01*
X148466365Y-89711228D01*
X148422749Y-89605930D01*
X148359428Y-89511164D01*
X148278836Y-89430572D01*
X148184070Y-89367251D01*
X148078772Y-89323635D01*
X148060498Y-89320000D01*
X157035294Y-89320000D01*
X157035294Y-91020000D01*
X157039708Y-91064813D01*
X157052779Y-91107905D01*
X157074006Y-91147618D01*
X157102573Y-91182427D01*
X157137382Y-91210994D01*
X157177095Y-91232221D01*
X157220187Y-91245292D01*
X157265000Y-91249706D01*
X158965000Y-91249706D01*
X159009813Y-91245292D01*
X159052905Y-91232221D01*
X159092618Y-91210994D01*
X159127427Y-91182427D01*
X159155994Y-91147618D01*
X159177221Y-91107905D01*
X159190292Y-91064813D01*
X159194706Y-91020000D01*
X159194706Y-90063767D01*
X159576400Y-90063767D01*
X159576400Y-90276233D01*
X159617850Y-90484616D01*
X159699157Y-90680909D01*
X159817197Y-90857567D01*
X159967433Y-91007803D01*
X160144091Y-91125843D01*
X160340384Y-91207150D01*
X160548767Y-91248600D01*
X160761233Y-91248600D01*
X160969616Y-91207150D01*
X161165909Y-91125843D01*
X161342567Y-91007803D01*
X161492803Y-90857567D01*
X161610843Y-90680909D01*
X161648871Y-90589100D01*
X165335836Y-90589100D01*
X165366164Y-90619428D01*
X165460930Y-90682749D01*
X165566228Y-90726365D01*
X165678013Y-90748600D01*
X165791987Y-90748600D01*
X165903772Y-90726365D01*
X166009070Y-90682749D01*
X166103836Y-90619428D01*
X166184428Y-90538836D01*
X166247749Y-90444070D01*
X166291365Y-90338772D01*
X166313600Y-90226987D01*
X166313600Y-90113013D01*
X166291365Y-90001228D01*
X166247749Y-89895930D01*
X166184428Y-89801164D01*
X166103836Y-89720572D01*
X166009070Y-89657251D01*
X165903772Y-89613635D01*
X165791987Y-89591400D01*
X165678013Y-89591400D01*
X165566228Y-89613635D01*
X165460930Y-89657251D01*
X165366164Y-89720572D01*
X165335836Y-89750900D01*
X161648871Y-89750900D01*
X161610843Y-89659091D01*
X161492803Y-89482433D01*
X161342567Y-89332197D01*
X161165909Y-89214157D01*
X160969616Y-89132850D01*
X160761233Y-89091400D01*
X160548767Y-89091400D01*
X160340384Y-89132850D01*
X160144091Y-89214157D01*
X159967433Y-89332197D01*
X159817197Y-89482433D01*
X159699157Y-89659091D01*
X159617850Y-89855384D01*
X159576400Y-90063767D01*
X159194706Y-90063767D01*
X159194706Y-89320000D01*
X159190292Y-89275187D01*
X159177221Y-89232095D01*
X159155994Y-89192382D01*
X159127427Y-89157573D01*
X159092618Y-89129006D01*
X159052905Y-89107779D01*
X159009813Y-89094708D01*
X158965000Y-89090294D01*
X157265000Y-89090294D01*
X157220187Y-89094708D01*
X157177095Y-89107779D01*
X157137382Y-89129006D01*
X157102573Y-89157573D01*
X157074006Y-89192382D01*
X157052779Y-89232095D01*
X157039708Y-89275187D01*
X157035294Y-89320000D01*
X148060498Y-89320000D01*
X147966987Y-89301400D01*
X147853013Y-89301400D01*
X147741228Y-89323635D01*
X147635930Y-89367251D01*
X147541164Y-89430572D01*
X147460572Y-89511164D01*
X147397251Y-89605930D01*
X147353635Y-89711228D01*
X147331400Y-89823013D01*
X147331400Y-89936987D01*
X147353635Y-90048772D01*
X147397251Y-90154070D01*
X147460572Y-90248836D01*
X147541164Y-90329428D01*
X147567100Y-90346758D01*
X147567101Y-90850294D01*
X146915000Y-90850294D01*
X146870187Y-90854708D01*
X146827095Y-90867779D01*
X146787382Y-90889006D01*
X146752573Y-90917573D01*
X146724006Y-90952382D01*
X146702779Y-90992095D01*
X146689708Y-91035187D01*
X146685294Y-91080000D01*
X146685294Y-92080000D01*
X146689708Y-92124813D01*
X146702779Y-92167905D01*
X146724006Y-92207618D01*
X146752573Y-92242427D01*
X146787382Y-92270994D01*
X146827095Y-92292221D01*
X146870187Y-92305292D01*
X146915000Y-92309706D01*
X146921023Y-92309706D01*
X146876360Y-92346360D01*
X146865619Y-92359448D01*
X146487581Y-92737486D01*
X146456987Y-92731400D01*
X146343013Y-92731400D01*
X146231228Y-92753635D01*
X146125930Y-92797251D01*
X146031164Y-92860572D01*
X145950572Y-92941164D01*
X145887251Y-93035930D01*
X145843635Y-93141228D01*
X145821400Y-93253013D01*
X145821400Y-93366987D01*
X145843635Y-93478772D01*
X145887251Y-93584070D01*
X145922685Y-93637100D01*
X137994706Y-93637100D01*
X137994706Y-93630000D01*
X137990292Y-93585187D01*
X137977221Y-93542095D01*
X137955994Y-93502382D01*
X137927427Y-93467573D01*
X137892618Y-93439006D01*
X137852905Y-93417779D01*
X137809813Y-93404708D01*
X137765000Y-93400294D01*
X136015000Y-93400294D01*
X135970187Y-93404708D01*
X135927095Y-93417779D01*
X135887382Y-93439006D01*
X135852573Y-93467573D01*
X135824006Y-93502382D01*
X135802779Y-93542095D01*
X135789708Y-93585187D01*
X135785294Y-93630000D01*
X135508600Y-93630000D01*
X135508600Y-92280000D01*
X136035294Y-92280000D01*
X136039708Y-92324813D01*
X136052779Y-92367905D01*
X136074006Y-92407618D01*
X136102573Y-92442427D01*
X136137382Y-92470994D01*
X136177095Y-92492221D01*
X136220187Y-92505292D01*
X136265000Y-92509706D01*
X136881650Y-92508600D01*
X136938800Y-92451450D01*
X136938800Y-91606200D01*
X137091200Y-91606200D01*
X137091200Y-92451450D01*
X137148350Y-92508600D01*
X137765000Y-92509706D01*
X137809813Y-92505292D01*
X137852905Y-92492221D01*
X137892618Y-92470994D01*
X137927427Y-92442427D01*
X137955994Y-92407618D01*
X137977221Y-92367905D01*
X137990292Y-92324813D01*
X137994706Y-92280000D01*
X137993600Y-91663350D01*
X137936450Y-91606200D01*
X137091200Y-91606200D01*
X136938800Y-91606200D01*
X136093550Y-91606200D01*
X136036400Y-91663350D01*
X136035294Y-92280000D01*
X135508600Y-92280000D01*
X135508600Y-91580000D01*
X144335294Y-91580000D01*
X144339708Y-91624813D01*
X144352779Y-91667905D01*
X144374006Y-91707618D01*
X144402573Y-91742427D01*
X144437382Y-91770994D01*
X144477095Y-91792221D01*
X144520187Y-91805292D01*
X144565000Y-91809706D01*
X145131650Y-91808600D01*
X145188800Y-91751450D01*
X145188800Y-91256200D01*
X145341200Y-91256200D01*
X145341200Y-91751450D01*
X145398350Y-91808600D01*
X145965000Y-91809706D01*
X146009813Y-91805292D01*
X146052905Y-91792221D01*
X146092618Y-91770994D01*
X146127427Y-91742427D01*
X146155994Y-91707618D01*
X146177221Y-91667905D01*
X146190292Y-91624813D01*
X146194706Y-91580000D01*
X146193600Y-91313350D01*
X146136450Y-91256200D01*
X145341200Y-91256200D01*
X145188800Y-91256200D01*
X144393550Y-91256200D01*
X144336400Y-91313350D01*
X144335294Y-91580000D01*
X135508600Y-91580000D01*
X135508600Y-90780000D01*
X136035294Y-90780000D01*
X136036400Y-91396650D01*
X136093550Y-91453800D01*
X136938800Y-91453800D01*
X136938800Y-90608550D01*
X137091200Y-90608550D01*
X137091200Y-91453800D01*
X137936450Y-91453800D01*
X137993600Y-91396650D01*
X137994706Y-90780000D01*
X144335294Y-90780000D01*
X144336400Y-91046650D01*
X144393550Y-91103800D01*
X145188800Y-91103800D01*
X145188800Y-90608550D01*
X145341200Y-90608550D01*
X145341200Y-91103800D01*
X146136450Y-91103800D01*
X146193600Y-91046650D01*
X146194706Y-90780000D01*
X146190292Y-90735187D01*
X146177221Y-90692095D01*
X146155994Y-90652382D01*
X146127427Y-90617573D01*
X146092618Y-90589006D01*
X146052905Y-90567779D01*
X146009813Y-90554708D01*
X145965000Y-90550294D01*
X145398350Y-90551400D01*
X145341200Y-90608550D01*
X145188800Y-90608550D01*
X145131650Y-90551400D01*
X144565000Y-90550294D01*
X144520187Y-90554708D01*
X144477095Y-90567779D01*
X144437382Y-90589006D01*
X144402573Y-90617573D01*
X144374006Y-90652382D01*
X144352779Y-90692095D01*
X144339708Y-90735187D01*
X144335294Y-90780000D01*
X137994706Y-90780000D01*
X137990292Y-90735187D01*
X137977221Y-90692095D01*
X137955994Y-90652382D01*
X137927427Y-90617573D01*
X137892618Y-90589006D01*
X137852905Y-90567779D01*
X137809813Y-90554708D01*
X137765000Y-90550294D01*
X137148350Y-90551400D01*
X137091200Y-90608550D01*
X136938800Y-90608550D01*
X136881650Y-90551400D01*
X136265000Y-90550294D01*
X136220187Y-90554708D01*
X136177095Y-90567779D01*
X136137382Y-90589006D01*
X136102573Y-90617573D01*
X136074006Y-90652382D01*
X136052779Y-90692095D01*
X136039708Y-90735187D01*
X136035294Y-90780000D01*
X135508600Y-90780000D01*
X135508600Y-87210000D01*
X136080294Y-87210000D01*
X136084708Y-87254813D01*
X136097779Y-87297905D01*
X136119006Y-87337618D01*
X136147573Y-87372427D01*
X136182382Y-87400994D01*
X136222095Y-87422221D01*
X136265187Y-87435292D01*
X136310000Y-87439706D01*
X137026650Y-87438600D01*
X137083800Y-87381450D01*
X137083800Y-86436200D01*
X137236200Y-86436200D01*
X137236200Y-87381450D01*
X137293350Y-87438600D01*
X138010000Y-87439706D01*
X138054813Y-87435292D01*
X138097905Y-87422221D01*
X138137618Y-87400994D01*
X138172427Y-87372427D01*
X138200994Y-87337618D01*
X138222221Y-87297905D01*
X138235292Y-87254813D01*
X138239706Y-87210000D01*
X138238600Y-86493350D01*
X138181450Y-86436200D01*
X137236200Y-86436200D01*
X137083800Y-86436200D01*
X136138550Y-86436200D01*
X136081400Y-86493350D01*
X136080294Y-87210000D01*
X135508600Y-87210000D01*
X135508600Y-85737406D01*
X135529151Y-85527814D01*
X135534529Y-85510000D01*
X136080294Y-85510000D01*
X136081400Y-86226650D01*
X136138550Y-86283800D01*
X137083800Y-86283800D01*
X137083800Y-85338550D01*
X137236200Y-85338550D01*
X137236200Y-86283800D01*
X138181450Y-86283800D01*
X138211483Y-86253767D01*
X138621400Y-86253767D01*
X138621400Y-86466233D01*
X138662850Y-86674616D01*
X138744157Y-86870909D01*
X138862197Y-87047567D01*
X139012433Y-87197803D01*
X139189091Y-87315843D01*
X139385384Y-87397150D01*
X139593767Y-87438600D01*
X139806233Y-87438600D01*
X140014616Y-87397150D01*
X140210909Y-87315843D01*
X140387567Y-87197803D01*
X140537803Y-87047567D01*
X140655843Y-86870909D01*
X140737150Y-86674616D01*
X140778600Y-86466233D01*
X140778600Y-86253767D01*
X141161400Y-86253767D01*
X141161400Y-86466233D01*
X141202850Y-86674616D01*
X141284157Y-86870909D01*
X141402197Y-87047567D01*
X141552433Y-87197803D01*
X141729091Y-87315843D01*
X141925384Y-87397150D01*
X142133767Y-87438600D01*
X142346233Y-87438600D01*
X142554616Y-87397150D01*
X142750909Y-87315843D01*
X142927567Y-87197803D01*
X143077803Y-87047567D01*
X143195843Y-86870909D01*
X143277150Y-86674616D01*
X143318600Y-86466233D01*
X143318600Y-86253767D01*
X143701400Y-86253767D01*
X143701400Y-86466233D01*
X143742850Y-86674616D01*
X143824157Y-86870909D01*
X143942197Y-87047567D01*
X144092433Y-87197803D01*
X144269091Y-87315843D01*
X144465384Y-87397150D01*
X144673767Y-87438600D01*
X144886233Y-87438600D01*
X145094616Y-87397150D01*
X145290909Y-87315843D01*
X145467567Y-87197803D01*
X145617803Y-87047567D01*
X145735843Y-86870909D01*
X145817150Y-86674616D01*
X145858600Y-86466233D01*
X145858600Y-86253767D01*
X146241400Y-86253767D01*
X146241400Y-86466233D01*
X146282850Y-86674616D01*
X146364157Y-86870909D01*
X146482197Y-87047567D01*
X146632433Y-87197803D01*
X146809091Y-87315843D01*
X147005384Y-87397150D01*
X147213767Y-87438600D01*
X147426233Y-87438600D01*
X147634616Y-87397150D01*
X147830909Y-87315843D01*
X148007567Y-87197803D01*
X148157803Y-87047567D01*
X148275843Y-86870909D01*
X148357150Y-86674616D01*
X148398600Y-86466233D01*
X148398600Y-86253767D01*
X148781400Y-86253767D01*
X148781400Y-86466233D01*
X148822850Y-86674616D01*
X148904157Y-86870909D01*
X149022197Y-87047567D01*
X149172433Y-87197803D01*
X149349091Y-87315843D01*
X149545384Y-87397150D01*
X149753767Y-87438600D01*
X149966233Y-87438600D01*
X150174616Y-87397150D01*
X150370909Y-87315843D01*
X150547567Y-87197803D01*
X150697803Y-87047567D01*
X150815843Y-86870909D01*
X150897150Y-86674616D01*
X150938600Y-86466233D01*
X150938600Y-86253767D01*
X151321400Y-86253767D01*
X151321400Y-86466233D01*
X151362850Y-86674616D01*
X151444157Y-86870909D01*
X151562197Y-87047567D01*
X151712433Y-87197803D01*
X151889091Y-87315843D01*
X152085384Y-87397150D01*
X152293767Y-87438600D01*
X152506233Y-87438600D01*
X152714616Y-87397150D01*
X152910909Y-87315843D01*
X153087567Y-87197803D01*
X153237803Y-87047567D01*
X153355843Y-86870909D01*
X153437150Y-86674616D01*
X153478600Y-86466233D01*
X153478600Y-86253767D01*
X153861400Y-86253767D01*
X153861400Y-86466233D01*
X153902850Y-86674616D01*
X153984157Y-86870909D01*
X154102197Y-87047567D01*
X154252433Y-87197803D01*
X154429091Y-87315843D01*
X154625384Y-87397150D01*
X154833767Y-87438600D01*
X155046233Y-87438600D01*
X155254616Y-87397150D01*
X155450909Y-87315843D01*
X155627567Y-87197803D01*
X155777803Y-87047567D01*
X155895843Y-86870909D01*
X155977150Y-86674616D01*
X156018600Y-86466233D01*
X156018600Y-86253767D01*
X156401400Y-86253767D01*
X156401400Y-86466233D01*
X156442850Y-86674616D01*
X156524157Y-86870909D01*
X156642197Y-87047567D01*
X156792433Y-87197803D01*
X156969091Y-87315843D01*
X157165384Y-87397150D01*
X157373767Y-87438600D01*
X157586233Y-87438600D01*
X157794616Y-87397150D01*
X157990909Y-87315843D01*
X158167567Y-87197803D01*
X158317803Y-87047567D01*
X158435843Y-86870909D01*
X158517150Y-86674616D01*
X158558600Y-86466233D01*
X158558600Y-86253767D01*
X158941400Y-86253767D01*
X158941400Y-86466233D01*
X158982850Y-86674616D01*
X159064157Y-86870909D01*
X159182197Y-87047567D01*
X159332433Y-87197803D01*
X159509091Y-87315843D01*
X159705384Y-87397150D01*
X159913767Y-87438600D01*
X160126233Y-87438600D01*
X160334616Y-87397150D01*
X160530909Y-87315843D01*
X160707567Y-87197803D01*
X160857803Y-87047567D01*
X160975843Y-86870909D01*
X161057150Y-86674616D01*
X161098600Y-86466233D01*
X161098600Y-86253767D01*
X161481400Y-86253767D01*
X161481400Y-86466233D01*
X161522850Y-86674616D01*
X161604157Y-86870909D01*
X161722197Y-87047567D01*
X161872433Y-87197803D01*
X162049091Y-87315843D01*
X162245384Y-87397150D01*
X162453767Y-87438600D01*
X162666233Y-87438600D01*
X162874616Y-87397150D01*
X163070909Y-87315843D01*
X163247567Y-87197803D01*
X163397803Y-87047567D01*
X163515843Y-86870909D01*
X163597150Y-86674616D01*
X163638600Y-86466233D01*
X163638600Y-86253767D01*
X164021400Y-86253767D01*
X164021400Y-86466233D01*
X164062850Y-86674616D01*
X164144157Y-86870909D01*
X164262197Y-87047567D01*
X164412433Y-87197803D01*
X164589091Y-87315843D01*
X164785384Y-87397150D01*
X164993767Y-87438600D01*
X165206233Y-87438600D01*
X165414616Y-87397150D01*
X165610909Y-87315843D01*
X165787567Y-87197803D01*
X165937803Y-87047567D01*
X166055843Y-86870909D01*
X166137150Y-86674616D01*
X166178600Y-86466233D01*
X166178600Y-86253767D01*
X166137150Y-86045384D01*
X166055843Y-85849091D01*
X165937803Y-85672433D01*
X165787567Y-85522197D01*
X165610909Y-85404157D01*
X165414616Y-85322850D01*
X165206233Y-85281400D01*
X164993767Y-85281400D01*
X164785384Y-85322850D01*
X164589091Y-85404157D01*
X164412433Y-85522197D01*
X164262197Y-85672433D01*
X164144157Y-85849091D01*
X164062850Y-86045384D01*
X164021400Y-86253767D01*
X163638600Y-86253767D01*
X163597150Y-86045384D01*
X163515843Y-85849091D01*
X163397803Y-85672433D01*
X163247567Y-85522197D01*
X163070909Y-85404157D01*
X162874616Y-85322850D01*
X162666233Y-85281400D01*
X162453767Y-85281400D01*
X162245384Y-85322850D01*
X162049091Y-85404157D01*
X161872433Y-85522197D01*
X161722197Y-85672433D01*
X161604157Y-85849091D01*
X161522850Y-86045384D01*
X161481400Y-86253767D01*
X161098600Y-86253767D01*
X161057150Y-86045384D01*
X160975843Y-85849091D01*
X160857803Y-85672433D01*
X160707567Y-85522197D01*
X160530909Y-85404157D01*
X160334616Y-85322850D01*
X160126233Y-85281400D01*
X159913767Y-85281400D01*
X159705384Y-85322850D01*
X159509091Y-85404157D01*
X159332433Y-85522197D01*
X159182197Y-85672433D01*
X159064157Y-85849091D01*
X158982850Y-86045384D01*
X158941400Y-86253767D01*
X158558600Y-86253767D01*
X158517150Y-86045384D01*
X158435843Y-85849091D01*
X158317803Y-85672433D01*
X158167567Y-85522197D01*
X157990909Y-85404157D01*
X157794616Y-85322850D01*
X157586233Y-85281400D01*
X157373767Y-85281400D01*
X157165384Y-85322850D01*
X156969091Y-85404157D01*
X156792433Y-85522197D01*
X156642197Y-85672433D01*
X156524157Y-85849091D01*
X156442850Y-86045384D01*
X156401400Y-86253767D01*
X156018600Y-86253767D01*
X155977150Y-86045384D01*
X155895843Y-85849091D01*
X155777803Y-85672433D01*
X155627567Y-85522197D01*
X155450909Y-85404157D01*
X155254616Y-85322850D01*
X155046233Y-85281400D01*
X154833767Y-85281400D01*
X154625384Y-85322850D01*
X154429091Y-85404157D01*
X154252433Y-85522197D01*
X154102197Y-85672433D01*
X153984157Y-85849091D01*
X153902850Y-86045384D01*
X153861400Y-86253767D01*
X153478600Y-86253767D01*
X153437150Y-86045384D01*
X153355843Y-85849091D01*
X153237803Y-85672433D01*
X153087567Y-85522197D01*
X152910909Y-85404157D01*
X152714616Y-85322850D01*
X152506233Y-85281400D01*
X152293767Y-85281400D01*
X152085384Y-85322850D01*
X151889091Y-85404157D01*
X151712433Y-85522197D01*
X151562197Y-85672433D01*
X151444157Y-85849091D01*
X151362850Y-86045384D01*
X151321400Y-86253767D01*
X150938600Y-86253767D01*
X150897150Y-86045384D01*
X150815843Y-85849091D01*
X150697803Y-85672433D01*
X150547567Y-85522197D01*
X150370909Y-85404157D01*
X150174616Y-85322850D01*
X149966233Y-85281400D01*
X149753767Y-85281400D01*
X149545384Y-85322850D01*
X149349091Y-85404157D01*
X149172433Y-85522197D01*
X149022197Y-85672433D01*
X148904157Y-85849091D01*
X148822850Y-86045384D01*
X148781400Y-86253767D01*
X148398600Y-86253767D01*
X148357150Y-86045384D01*
X148275843Y-85849091D01*
X148157803Y-85672433D01*
X148007567Y-85522197D01*
X147830909Y-85404157D01*
X147634616Y-85322850D01*
X147426233Y-85281400D01*
X147213767Y-85281400D01*
X147005384Y-85322850D01*
X146809091Y-85404157D01*
X146632433Y-85522197D01*
X146482197Y-85672433D01*
X146364157Y-85849091D01*
X146282850Y-86045384D01*
X146241400Y-86253767D01*
X145858600Y-86253767D01*
X145817150Y-86045384D01*
X145735843Y-85849091D01*
X145617803Y-85672433D01*
X145467567Y-85522197D01*
X145290909Y-85404157D01*
X145094616Y-85322850D01*
X144886233Y-85281400D01*
X144673767Y-85281400D01*
X144465384Y-85322850D01*
X144269091Y-85404157D01*
X144092433Y-85522197D01*
X143942197Y-85672433D01*
X143824157Y-85849091D01*
X143742850Y-86045384D01*
X143701400Y-86253767D01*
X143318600Y-86253767D01*
X143277150Y-86045384D01*
X143195843Y-85849091D01*
X143077803Y-85672433D01*
X142927567Y-85522197D01*
X142750909Y-85404157D01*
X142554616Y-85322850D01*
X142346233Y-85281400D01*
X142133767Y-85281400D01*
X141925384Y-85322850D01*
X141729091Y-85404157D01*
X141552433Y-85522197D01*
X141402197Y-85672433D01*
X141284157Y-85849091D01*
X141202850Y-86045384D01*
X141161400Y-86253767D01*
X140778600Y-86253767D01*
X140737150Y-86045384D01*
X140655843Y-85849091D01*
X140537803Y-85672433D01*
X140387567Y-85522197D01*
X140210909Y-85404157D01*
X140014616Y-85322850D01*
X139806233Y-85281400D01*
X139593767Y-85281400D01*
X139385384Y-85322850D01*
X139189091Y-85404157D01*
X139012433Y-85522197D01*
X138862197Y-85672433D01*
X138744157Y-85849091D01*
X138662850Y-86045384D01*
X138621400Y-86253767D01*
X138211483Y-86253767D01*
X138238600Y-86226650D01*
X138239706Y-85510000D01*
X138235292Y-85465187D01*
X138222221Y-85422095D01*
X138200994Y-85382382D01*
X138172427Y-85347573D01*
X138137618Y-85319006D01*
X138097905Y-85297779D01*
X138054813Y-85284708D01*
X138010000Y-85280294D01*
X137293350Y-85281400D01*
X137236200Y-85338550D01*
X137083800Y-85338550D01*
X137026650Y-85281400D01*
X136310000Y-85280294D01*
X136265187Y-85284708D01*
X136222095Y-85297779D01*
X136182382Y-85319006D01*
X136147573Y-85347573D01*
X136119006Y-85382382D01*
X136097779Y-85422095D01*
X136084708Y-85465187D01*
X136080294Y-85510000D01*
X135534529Y-85510000D01*
X135586415Y-85338146D01*
X135679433Y-85163205D01*
X135804656Y-85009666D01*
X135957317Y-84883374D01*
X136131602Y-84789139D01*
X136320866Y-84730551D01*
X136529721Y-84708600D01*
X173342594Y-84708600D01*
X173552186Y-84729151D01*
%TO.N,VCC*%
G36*
X168833800Y-106603800D02*
G01*
X161366200Y-106603800D01*
X161366200Y-98058708D01*
X161558708Y-97866200D01*
X168833800Y-97866200D01*
X168833800Y-106603800D01*
G37*
X168833800Y-106603800D02*
X161366200Y-106603800D01*
X161366200Y-98058708D01*
X161558708Y-97866200D01*
X168833800Y-97866200D01*
X168833800Y-106603800D01*
%TD*%
M02*
