%TF.GenerationSoftware,KiCad,Pcbnew,5.1.6+dfsg1-1*%
%TF.CreationDate,2020-06-20T08:37:57+08:00*%
%TF.ProjectId,stm32dev,73746d33-3264-4657-962e-6b696361645f,rev?*%
%TF.SameCoordinates,Original*%
%TF.FileFunction,Soldermask,Top*%
%TF.FilePolarity,Negative*%
%FSLAX46Y46*%
G04 Gerber Fmt 4.6, Leading zero omitted, Abs format (unit mm)*
G04 Created by KiCad (PCBNEW 5.1.6+dfsg1-1) date 2020-06-20 08:37:57*
%MOMM*%
%LPD*%
G01*
G04 APERTURE LIST*
%ADD10R,1.000000X1.300000*%
%ADD11R,1.100000X1.600000*%
%ADD12O,1.800000X1.800000*%
%ADD13R,1.800000X1.800000*%
%ADD14R,2.000000X1.300000*%
%ADD15O,2.000000X1.300000*%
%ADD16R,2.000000X1.600000*%
%ADD17C,1.550000*%
%ADD18R,1.450000X0.500000*%
%ADD19R,1.600000X2.100000*%
%ADD20R,3.900000X2.100000*%
%ADD21R,1.300000X1.500000*%
G04 APERTURE END LIST*
D10*
%TO.C,D3*%
X173100000Y-90805000D03*
X169800000Y-90805000D03*
%TD*%
%TO.C,D1*%
X173354000Y-103632000D03*
X170054000Y-103632000D03*
%TD*%
%TO.C,C10*%
G36*
G01*
X138765000Y-98778750D02*
X138765000Y-99341250D01*
G75*
G02*
X138521250Y-99585000I-243750J0D01*
G01*
X138033750Y-99585000D01*
G75*
G02*
X137790000Y-99341250I0J243750D01*
G01*
X137790000Y-98778750D01*
G75*
G02*
X138033750Y-98535000I243750J0D01*
G01*
X138521250Y-98535000D01*
G75*
G02*
X138765000Y-98778750I0J-243750D01*
G01*
G37*
G36*
G01*
X140340000Y-98778750D02*
X140340000Y-99341250D01*
G75*
G02*
X140096250Y-99585000I-243750J0D01*
G01*
X139608750Y-99585000D01*
G75*
G02*
X139365000Y-99341250I0J243750D01*
G01*
X139365000Y-98778750D01*
G75*
G02*
X139608750Y-98535000I243750J0D01*
G01*
X140096250Y-98535000D01*
G75*
G02*
X140340000Y-98778750I0J-243750D01*
G01*
G37*
%TD*%
%TO.C,C6*%
G36*
G01*
X139365000Y-92991250D02*
X139365000Y-92428750D01*
G75*
G02*
X139608750Y-92185000I243750J0D01*
G01*
X140096250Y-92185000D01*
G75*
G02*
X140340000Y-92428750I0J-243750D01*
G01*
X140340000Y-92991250D01*
G75*
G02*
X140096250Y-93235000I-243750J0D01*
G01*
X139608750Y-93235000D01*
G75*
G02*
X139365000Y-92991250I0J243750D01*
G01*
G37*
G36*
G01*
X137790000Y-92991250D02*
X137790000Y-92428750D01*
G75*
G02*
X138033750Y-92185000I243750J0D01*
G01*
X138521250Y-92185000D01*
G75*
G02*
X138765000Y-92428750I0J-243750D01*
G01*
X138765000Y-92991250D01*
G75*
G02*
X138521250Y-93235000I-243750J0D01*
G01*
X138033750Y-93235000D01*
G75*
G02*
X137790000Y-92991250I0J243750D01*
G01*
G37*
%TD*%
%TO.C,C13*%
G36*
G01*
X155856250Y-89870000D02*
X155293750Y-89870000D01*
G75*
G02*
X155050000Y-89626250I0J243750D01*
G01*
X155050000Y-89138750D01*
G75*
G02*
X155293750Y-88895000I243750J0D01*
G01*
X155856250Y-88895000D01*
G75*
G02*
X156100000Y-89138750I0J-243750D01*
G01*
X156100000Y-89626250D01*
G75*
G02*
X155856250Y-89870000I-243750J0D01*
G01*
G37*
G36*
G01*
X155856250Y-91445000D02*
X155293750Y-91445000D01*
G75*
G02*
X155050000Y-91201250I0J243750D01*
G01*
X155050000Y-90713750D01*
G75*
G02*
X155293750Y-90470000I243750J0D01*
G01*
X155856250Y-90470000D01*
G75*
G02*
X156100000Y-90713750I0J-243750D01*
G01*
X156100000Y-91201250D01*
G75*
G02*
X155856250Y-91445000I-243750J0D01*
G01*
G37*
%TD*%
%TO.C,C12*%
G36*
G01*
X154605000Y-105056250D02*
X154605000Y-104493750D01*
G75*
G02*
X154848750Y-104250000I243750J0D01*
G01*
X155336250Y-104250000D01*
G75*
G02*
X155580000Y-104493750I0J-243750D01*
G01*
X155580000Y-105056250D01*
G75*
G02*
X155336250Y-105300000I-243750J0D01*
G01*
X154848750Y-105300000D01*
G75*
G02*
X154605000Y-105056250I0J243750D01*
G01*
G37*
G36*
G01*
X153030000Y-105056250D02*
X153030000Y-104493750D01*
G75*
G02*
X153273750Y-104250000I243750J0D01*
G01*
X153761250Y-104250000D01*
G75*
G02*
X154005000Y-104493750I0J-243750D01*
G01*
X154005000Y-105056250D01*
G75*
G02*
X153761250Y-105300000I-243750J0D01*
G01*
X153273750Y-105300000D01*
G75*
G02*
X153030000Y-105056250I0J243750D01*
G01*
G37*
%TD*%
%TO.C,C11*%
G36*
G01*
X142735000Y-91242500D02*
X142735000Y-91637500D01*
G75*
G02*
X142562500Y-91810000I-172500J0D01*
G01*
X142217500Y-91810000D01*
G75*
G02*
X142045000Y-91637500I0J172500D01*
G01*
X142045000Y-91242500D01*
G75*
G02*
X142217500Y-91070000I172500J0D01*
G01*
X142562500Y-91070000D01*
G75*
G02*
X142735000Y-91242500I0J-172500D01*
G01*
G37*
G36*
G01*
X143705000Y-91242500D02*
X143705000Y-91637500D01*
G75*
G02*
X143532500Y-91810000I-172500J0D01*
G01*
X143187500Y-91810000D01*
G75*
G02*
X143015000Y-91637500I0J172500D01*
G01*
X143015000Y-91242500D01*
G75*
G02*
X143187500Y-91070000I172500J0D01*
G01*
X143532500Y-91070000D01*
G75*
G02*
X143705000Y-91242500I0J-172500D01*
G01*
G37*
%TD*%
%TO.C,C9*%
G36*
G01*
X139502500Y-103010000D02*
X139897500Y-103010000D01*
G75*
G02*
X140070000Y-103182500I0J-172500D01*
G01*
X140070000Y-103527500D01*
G75*
G02*
X139897500Y-103700000I-172500J0D01*
G01*
X139502500Y-103700000D01*
G75*
G02*
X139330000Y-103527500I0J172500D01*
G01*
X139330000Y-103182500D01*
G75*
G02*
X139502500Y-103010000I172500J0D01*
G01*
G37*
G36*
G01*
X139502500Y-102040000D02*
X139897500Y-102040000D01*
G75*
G02*
X140070000Y-102212500I0J-172500D01*
G01*
X140070000Y-102557500D01*
G75*
G02*
X139897500Y-102730000I-172500J0D01*
G01*
X139502500Y-102730000D01*
G75*
G02*
X139330000Y-102557500I0J172500D01*
G01*
X139330000Y-102212500D01*
G75*
G02*
X139502500Y-102040000I172500J0D01*
G01*
G37*
%TD*%
%TO.C,C8*%
G36*
G01*
X155080000Y-103067500D02*
X155080000Y-102672500D01*
G75*
G02*
X155252500Y-102500000I172500J0D01*
G01*
X155597500Y-102500000D01*
G75*
G02*
X155770000Y-102672500I0J-172500D01*
G01*
X155770000Y-103067500D01*
G75*
G02*
X155597500Y-103240000I-172500J0D01*
G01*
X155252500Y-103240000D01*
G75*
G02*
X155080000Y-103067500I0J172500D01*
G01*
G37*
G36*
G01*
X154110000Y-103067500D02*
X154110000Y-102672500D01*
G75*
G02*
X154282500Y-102500000I172500J0D01*
G01*
X154627500Y-102500000D01*
G75*
G02*
X154800000Y-102672500I0J-172500D01*
G01*
X154800000Y-103067500D01*
G75*
G02*
X154627500Y-103240000I-172500J0D01*
G01*
X154282500Y-103240000D01*
G75*
G02*
X154110000Y-103067500I0J172500D01*
G01*
G37*
%TD*%
%TO.C,C7*%
G36*
G01*
X154595000Y-92907500D02*
X154595000Y-92512500D01*
G75*
G02*
X154767500Y-92340000I172500J0D01*
G01*
X155112500Y-92340000D01*
G75*
G02*
X155285000Y-92512500I0J-172500D01*
G01*
X155285000Y-92907500D01*
G75*
G02*
X155112500Y-93080000I-172500J0D01*
G01*
X154767500Y-93080000D01*
G75*
G02*
X154595000Y-92907500I0J172500D01*
G01*
G37*
G36*
G01*
X153625000Y-92907500D02*
X153625000Y-92512500D01*
G75*
G02*
X153797500Y-92340000I172500J0D01*
G01*
X154142500Y-92340000D01*
G75*
G02*
X154315000Y-92512500I0J-172500D01*
G01*
X154315000Y-92907500D01*
G75*
G02*
X154142500Y-93080000I-172500J0D01*
G01*
X153797500Y-93080000D01*
G75*
G02*
X153625000Y-92907500I0J172500D01*
G01*
G37*
%TD*%
%TO.C,C5*%
G36*
G01*
X144640000Y-105212500D02*
X144640000Y-105607500D01*
G75*
G02*
X144467500Y-105780000I-172500J0D01*
G01*
X144122500Y-105780000D01*
G75*
G02*
X143950000Y-105607500I0J172500D01*
G01*
X143950000Y-105212500D01*
G75*
G02*
X144122500Y-105040000I172500J0D01*
G01*
X144467500Y-105040000D01*
G75*
G02*
X144640000Y-105212500I0J-172500D01*
G01*
G37*
G36*
G01*
X145610000Y-105212500D02*
X145610000Y-105607500D01*
G75*
G02*
X145437500Y-105780000I-172500J0D01*
G01*
X145092500Y-105780000D01*
G75*
G02*
X144920000Y-105607500I0J172500D01*
G01*
X144920000Y-105212500D01*
G75*
G02*
X145092500Y-105040000I172500J0D01*
G01*
X145437500Y-105040000D01*
G75*
G02*
X145610000Y-105212500I0J-172500D01*
G01*
G37*
%TD*%
D11*
%TO.C,D2*%
X164135000Y-94525000D03*
X167335000Y-94525000D03*
X164135000Y-89625000D03*
X167335000Y-89625000D03*
%TD*%
D12*
%TO.C,J5*%
X160655000Y-95250000D03*
X158115000Y-95250000D03*
X160655000Y-92710000D03*
X158115000Y-92710000D03*
X160655000Y-90170000D03*
D13*
X158115000Y-90170000D03*
%TD*%
D12*
%TO.C,J4*%
X172720000Y-86360000D03*
X170180000Y-86360000D03*
X167640000Y-86360000D03*
X165100000Y-86360000D03*
X162560000Y-86360000D03*
X160020000Y-86360000D03*
X157480000Y-86360000D03*
X154940000Y-86360000D03*
X152400000Y-86360000D03*
X149860000Y-86360000D03*
X147320000Y-86360000D03*
X144780000Y-86360000D03*
X142240000Y-86360000D03*
X139700000Y-86360000D03*
D13*
X137160000Y-86360000D03*
%TD*%
D12*
%TO.C,J3*%
X172720000Y-109220000D03*
X170180000Y-109220000D03*
X167640000Y-109220000D03*
X165100000Y-109220000D03*
X162560000Y-109220000D03*
X160020000Y-109220000D03*
X157480000Y-109220000D03*
X154940000Y-109220000D03*
X152400000Y-109220000D03*
X149860000Y-109220000D03*
X147320000Y-109220000D03*
X144780000Y-109220000D03*
X142240000Y-109220000D03*
X139700000Y-109220000D03*
D13*
X137160000Y-109220000D03*
%TD*%
D14*
%TO.C,J1*%
X172687500Y-100055000D03*
X172687500Y-94255000D03*
D15*
X172687500Y-93655000D03*
X172687500Y-100655000D03*
D16*
X172687500Y-98155000D03*
D17*
X169987500Y-94655000D03*
D18*
X169987500Y-97155000D03*
X169987500Y-96505000D03*
X169987500Y-95855000D03*
X169987500Y-98455000D03*
X169987500Y-97805000D03*
D17*
X169987500Y-99655000D03*
D16*
X172687500Y-96155000D03*
%TD*%
D19*
%TO.C,U1*%
X162800000Y-105385000D03*
X167400000Y-105385000D03*
X165100000Y-105385000D03*
D20*
X165100000Y-99085000D03*
%TD*%
%TO.C,C4*%
G36*
G01*
X165240000Y-96717500D02*
X165240000Y-96322500D01*
G75*
G02*
X165412500Y-96150000I172500J0D01*
G01*
X165757500Y-96150000D01*
G75*
G02*
X165930000Y-96322500I0J-172500D01*
G01*
X165930000Y-96717500D01*
G75*
G02*
X165757500Y-96890000I-172500J0D01*
G01*
X165412500Y-96890000D01*
G75*
G02*
X165240000Y-96717500I0J172500D01*
G01*
G37*
G36*
G01*
X164270000Y-96717500D02*
X164270000Y-96322500D01*
G75*
G02*
X164442500Y-96150000I172500J0D01*
G01*
X164787500Y-96150000D01*
G75*
G02*
X164960000Y-96322500I0J-172500D01*
G01*
X164960000Y-96717500D01*
G75*
G02*
X164787500Y-96890000I-172500J0D01*
G01*
X164442500Y-96890000D01*
G75*
G02*
X164270000Y-96717500I0J172500D01*
G01*
G37*
%TD*%
%TO.C,C3*%
G36*
G01*
X160501250Y-101200000D02*
X159538750Y-101200000D01*
G75*
G02*
X159270000Y-100931250I0J268750D01*
G01*
X159270000Y-100393750D01*
G75*
G02*
X159538750Y-100125000I268750J0D01*
G01*
X160501250Y-100125000D01*
G75*
G02*
X160770000Y-100393750I0J-268750D01*
G01*
X160770000Y-100931250D01*
G75*
G02*
X160501250Y-101200000I-268750J0D01*
G01*
G37*
G36*
G01*
X160501250Y-103075000D02*
X159538750Y-103075000D01*
G75*
G02*
X159270000Y-102806250I0J268750D01*
G01*
X159270000Y-102268750D01*
G75*
G02*
X159538750Y-102000000I268750J0D01*
G01*
X160501250Y-102000000D01*
G75*
G02*
X160770000Y-102268750I0J-268750D01*
G01*
X160770000Y-102806250D01*
G75*
G02*
X160501250Y-103075000I-268750J0D01*
G01*
G37*
%TD*%
%TO.C,C2*%
G36*
G01*
X159538750Y-105810000D02*
X160501250Y-105810000D01*
G75*
G02*
X160770000Y-106078750I0J-268750D01*
G01*
X160770000Y-106616250D01*
G75*
G02*
X160501250Y-106885000I-268750J0D01*
G01*
X159538750Y-106885000D01*
G75*
G02*
X159270000Y-106616250I0J268750D01*
G01*
X159270000Y-106078750D01*
G75*
G02*
X159538750Y-105810000I268750J0D01*
G01*
G37*
G36*
G01*
X159538750Y-103935000D02*
X160501250Y-103935000D01*
G75*
G02*
X160770000Y-104203750I0J-268750D01*
G01*
X160770000Y-104741250D01*
G75*
G02*
X160501250Y-105010000I-268750J0D01*
G01*
X159538750Y-105010000D01*
G75*
G02*
X159270000Y-104741250I0J268750D01*
G01*
X159270000Y-104203750D01*
G75*
G02*
X159538750Y-103935000I268750J0D01*
G01*
G37*
%TD*%
%TO.C,C1*%
G36*
G01*
X171850000Y-107161250D02*
X171850000Y-106198750D01*
G75*
G02*
X172118750Y-105930000I268750J0D01*
G01*
X172656250Y-105930000D01*
G75*
G02*
X172925000Y-106198750I0J-268750D01*
G01*
X172925000Y-107161250D01*
G75*
G02*
X172656250Y-107430000I-268750J0D01*
G01*
X172118750Y-107430000D01*
G75*
G02*
X171850000Y-107161250I0J268750D01*
G01*
G37*
G36*
G01*
X169975000Y-107161250D02*
X169975000Y-106198750D01*
G75*
G02*
X170243750Y-105930000I268750J0D01*
G01*
X170781250Y-105930000D01*
G75*
G02*
X171050000Y-106198750I0J-268750D01*
G01*
X171050000Y-107161250D01*
G75*
G02*
X170781250Y-107430000I-268750J0D01*
G01*
X170243750Y-107430000D01*
G75*
G02*
X169975000Y-107161250I0J268750D01*
G01*
G37*
%TD*%
D21*
%TO.C,Y1*%
X139915000Y-94785000D03*
X139915000Y-96985000D03*
X138215000Y-96985000D03*
X138215000Y-94785000D03*
%TD*%
%TO.C,U2*%
G36*
G01*
X144215000Y-92715000D02*
X144215000Y-91265000D01*
G75*
G02*
X144315000Y-91165000I100000J0D01*
G01*
X144515000Y-91165000D01*
G75*
G02*
X144615000Y-91265000I0J-100000D01*
G01*
X144615000Y-92715000D01*
G75*
G02*
X144515000Y-92815000I-100000J0D01*
G01*
X144315000Y-92815000D01*
G75*
G02*
X144215000Y-92715000I0J100000D01*
G01*
G37*
G36*
G01*
X144715000Y-92715000D02*
X144715000Y-91265000D01*
G75*
G02*
X144815000Y-91165000I100000J0D01*
G01*
X145015000Y-91165000D01*
G75*
G02*
X145115000Y-91265000I0J-100000D01*
G01*
X145115000Y-92715000D01*
G75*
G02*
X145015000Y-92815000I-100000J0D01*
G01*
X144815000Y-92815000D01*
G75*
G02*
X144715000Y-92715000I0J100000D01*
G01*
G37*
G36*
G01*
X145215000Y-92715000D02*
X145215000Y-91265000D01*
G75*
G02*
X145315000Y-91165000I100000J0D01*
G01*
X145515000Y-91165000D01*
G75*
G02*
X145615000Y-91265000I0J-100000D01*
G01*
X145615000Y-92715000D01*
G75*
G02*
X145515000Y-92815000I-100000J0D01*
G01*
X145315000Y-92815000D01*
G75*
G02*
X145215000Y-92715000I0J100000D01*
G01*
G37*
G36*
G01*
X145715000Y-92715000D02*
X145715000Y-91265000D01*
G75*
G02*
X145815000Y-91165000I100000J0D01*
G01*
X146015000Y-91165000D01*
G75*
G02*
X146115000Y-91265000I0J-100000D01*
G01*
X146115000Y-92715000D01*
G75*
G02*
X146015000Y-92815000I-100000J0D01*
G01*
X145815000Y-92815000D01*
G75*
G02*
X145715000Y-92715000I0J100000D01*
G01*
G37*
G36*
G01*
X146215000Y-92715000D02*
X146215000Y-91265000D01*
G75*
G02*
X146315000Y-91165000I100000J0D01*
G01*
X146515000Y-91165000D01*
G75*
G02*
X146615000Y-91265000I0J-100000D01*
G01*
X146615000Y-92715000D01*
G75*
G02*
X146515000Y-92815000I-100000J0D01*
G01*
X146315000Y-92815000D01*
G75*
G02*
X146215000Y-92715000I0J100000D01*
G01*
G37*
G36*
G01*
X146715000Y-92715000D02*
X146715000Y-91265000D01*
G75*
G02*
X146815000Y-91165000I100000J0D01*
G01*
X147015000Y-91165000D01*
G75*
G02*
X147115000Y-91265000I0J-100000D01*
G01*
X147115000Y-92715000D01*
G75*
G02*
X147015000Y-92815000I-100000J0D01*
G01*
X146815000Y-92815000D01*
G75*
G02*
X146715000Y-92715000I0J100000D01*
G01*
G37*
G36*
G01*
X147215000Y-92715000D02*
X147215000Y-91265000D01*
G75*
G02*
X147315000Y-91165000I100000J0D01*
G01*
X147515000Y-91165000D01*
G75*
G02*
X147615000Y-91265000I0J-100000D01*
G01*
X147615000Y-92715000D01*
G75*
G02*
X147515000Y-92815000I-100000J0D01*
G01*
X147315000Y-92815000D01*
G75*
G02*
X147215000Y-92715000I0J100000D01*
G01*
G37*
G36*
G01*
X147715000Y-92715000D02*
X147715000Y-91265000D01*
G75*
G02*
X147815000Y-91165000I100000J0D01*
G01*
X148015000Y-91165000D01*
G75*
G02*
X148115000Y-91265000I0J-100000D01*
G01*
X148115000Y-92715000D01*
G75*
G02*
X148015000Y-92815000I-100000J0D01*
G01*
X147815000Y-92815000D01*
G75*
G02*
X147715000Y-92715000I0J100000D01*
G01*
G37*
G36*
G01*
X148215000Y-92715000D02*
X148215000Y-91265000D01*
G75*
G02*
X148315000Y-91165000I100000J0D01*
G01*
X148515000Y-91165000D01*
G75*
G02*
X148615000Y-91265000I0J-100000D01*
G01*
X148615000Y-92715000D01*
G75*
G02*
X148515000Y-92815000I-100000J0D01*
G01*
X148315000Y-92815000D01*
G75*
G02*
X148215000Y-92715000I0J100000D01*
G01*
G37*
G36*
G01*
X148715000Y-92715000D02*
X148715000Y-91265000D01*
G75*
G02*
X148815000Y-91165000I100000J0D01*
G01*
X149015000Y-91165000D01*
G75*
G02*
X149115000Y-91265000I0J-100000D01*
G01*
X149115000Y-92715000D01*
G75*
G02*
X149015000Y-92815000I-100000J0D01*
G01*
X148815000Y-92815000D01*
G75*
G02*
X148715000Y-92715000I0J100000D01*
G01*
G37*
G36*
G01*
X149215000Y-92715000D02*
X149215000Y-91265000D01*
G75*
G02*
X149315000Y-91165000I100000J0D01*
G01*
X149515000Y-91165000D01*
G75*
G02*
X149615000Y-91265000I0J-100000D01*
G01*
X149615000Y-92715000D01*
G75*
G02*
X149515000Y-92815000I-100000J0D01*
G01*
X149315000Y-92815000D01*
G75*
G02*
X149215000Y-92715000I0J100000D01*
G01*
G37*
G36*
G01*
X149715000Y-92715000D02*
X149715000Y-91265000D01*
G75*
G02*
X149815000Y-91165000I100000J0D01*
G01*
X150015000Y-91165000D01*
G75*
G02*
X150115000Y-91265000I0J-100000D01*
G01*
X150115000Y-92715000D01*
G75*
G02*
X150015000Y-92815000I-100000J0D01*
G01*
X149815000Y-92815000D01*
G75*
G02*
X149715000Y-92715000I0J100000D01*
G01*
G37*
G36*
G01*
X150215000Y-92715000D02*
X150215000Y-91265000D01*
G75*
G02*
X150315000Y-91165000I100000J0D01*
G01*
X150515000Y-91165000D01*
G75*
G02*
X150615000Y-91265000I0J-100000D01*
G01*
X150615000Y-92715000D01*
G75*
G02*
X150515000Y-92815000I-100000J0D01*
G01*
X150315000Y-92815000D01*
G75*
G02*
X150215000Y-92715000I0J100000D01*
G01*
G37*
G36*
G01*
X150715000Y-92715000D02*
X150715000Y-91265000D01*
G75*
G02*
X150815000Y-91165000I100000J0D01*
G01*
X151015000Y-91165000D01*
G75*
G02*
X151115000Y-91265000I0J-100000D01*
G01*
X151115000Y-92715000D01*
G75*
G02*
X151015000Y-92815000I-100000J0D01*
G01*
X150815000Y-92815000D01*
G75*
G02*
X150715000Y-92715000I0J100000D01*
G01*
G37*
G36*
G01*
X151215000Y-92715000D02*
X151215000Y-91265000D01*
G75*
G02*
X151315000Y-91165000I100000J0D01*
G01*
X151515000Y-91165000D01*
G75*
G02*
X151615000Y-91265000I0J-100000D01*
G01*
X151615000Y-92715000D01*
G75*
G02*
X151515000Y-92815000I-100000J0D01*
G01*
X151315000Y-92815000D01*
G75*
G02*
X151215000Y-92715000I0J100000D01*
G01*
G37*
G36*
G01*
X151715000Y-92715000D02*
X151715000Y-91265000D01*
G75*
G02*
X151815000Y-91165000I100000J0D01*
G01*
X152015000Y-91165000D01*
G75*
G02*
X152115000Y-91265000I0J-100000D01*
G01*
X152115000Y-92715000D01*
G75*
G02*
X152015000Y-92815000I-100000J0D01*
G01*
X151815000Y-92815000D01*
G75*
G02*
X151715000Y-92715000I0J100000D01*
G01*
G37*
G36*
G01*
X153015000Y-94015000D02*
X153015000Y-93815000D01*
G75*
G02*
X153115000Y-93715000I100000J0D01*
G01*
X154565000Y-93715000D01*
G75*
G02*
X154665000Y-93815000I0J-100000D01*
G01*
X154665000Y-94015000D01*
G75*
G02*
X154565000Y-94115000I-100000J0D01*
G01*
X153115000Y-94115000D01*
G75*
G02*
X153015000Y-94015000I0J100000D01*
G01*
G37*
G36*
G01*
X153015000Y-94515000D02*
X153015000Y-94315000D01*
G75*
G02*
X153115000Y-94215000I100000J0D01*
G01*
X154565000Y-94215000D01*
G75*
G02*
X154665000Y-94315000I0J-100000D01*
G01*
X154665000Y-94515000D01*
G75*
G02*
X154565000Y-94615000I-100000J0D01*
G01*
X153115000Y-94615000D01*
G75*
G02*
X153015000Y-94515000I0J100000D01*
G01*
G37*
G36*
G01*
X153015000Y-95015000D02*
X153015000Y-94815000D01*
G75*
G02*
X153115000Y-94715000I100000J0D01*
G01*
X154565000Y-94715000D01*
G75*
G02*
X154665000Y-94815000I0J-100000D01*
G01*
X154665000Y-95015000D01*
G75*
G02*
X154565000Y-95115000I-100000J0D01*
G01*
X153115000Y-95115000D01*
G75*
G02*
X153015000Y-95015000I0J100000D01*
G01*
G37*
G36*
G01*
X153015000Y-95515000D02*
X153015000Y-95315000D01*
G75*
G02*
X153115000Y-95215000I100000J0D01*
G01*
X154565000Y-95215000D01*
G75*
G02*
X154665000Y-95315000I0J-100000D01*
G01*
X154665000Y-95515000D01*
G75*
G02*
X154565000Y-95615000I-100000J0D01*
G01*
X153115000Y-95615000D01*
G75*
G02*
X153015000Y-95515000I0J100000D01*
G01*
G37*
G36*
G01*
X153015000Y-96015000D02*
X153015000Y-95815000D01*
G75*
G02*
X153115000Y-95715000I100000J0D01*
G01*
X154565000Y-95715000D01*
G75*
G02*
X154665000Y-95815000I0J-100000D01*
G01*
X154665000Y-96015000D01*
G75*
G02*
X154565000Y-96115000I-100000J0D01*
G01*
X153115000Y-96115000D01*
G75*
G02*
X153015000Y-96015000I0J100000D01*
G01*
G37*
G36*
G01*
X153015000Y-96515000D02*
X153015000Y-96315000D01*
G75*
G02*
X153115000Y-96215000I100000J0D01*
G01*
X154565000Y-96215000D01*
G75*
G02*
X154665000Y-96315000I0J-100000D01*
G01*
X154665000Y-96515000D01*
G75*
G02*
X154565000Y-96615000I-100000J0D01*
G01*
X153115000Y-96615000D01*
G75*
G02*
X153015000Y-96515000I0J100000D01*
G01*
G37*
G36*
G01*
X153015000Y-97015000D02*
X153015000Y-96815000D01*
G75*
G02*
X153115000Y-96715000I100000J0D01*
G01*
X154565000Y-96715000D01*
G75*
G02*
X154665000Y-96815000I0J-100000D01*
G01*
X154665000Y-97015000D01*
G75*
G02*
X154565000Y-97115000I-100000J0D01*
G01*
X153115000Y-97115000D01*
G75*
G02*
X153015000Y-97015000I0J100000D01*
G01*
G37*
G36*
G01*
X153015000Y-97515000D02*
X153015000Y-97315000D01*
G75*
G02*
X153115000Y-97215000I100000J0D01*
G01*
X154565000Y-97215000D01*
G75*
G02*
X154665000Y-97315000I0J-100000D01*
G01*
X154665000Y-97515000D01*
G75*
G02*
X154565000Y-97615000I-100000J0D01*
G01*
X153115000Y-97615000D01*
G75*
G02*
X153015000Y-97515000I0J100000D01*
G01*
G37*
G36*
G01*
X153015000Y-98015000D02*
X153015000Y-97815000D01*
G75*
G02*
X153115000Y-97715000I100000J0D01*
G01*
X154565000Y-97715000D01*
G75*
G02*
X154665000Y-97815000I0J-100000D01*
G01*
X154665000Y-98015000D01*
G75*
G02*
X154565000Y-98115000I-100000J0D01*
G01*
X153115000Y-98115000D01*
G75*
G02*
X153015000Y-98015000I0J100000D01*
G01*
G37*
G36*
G01*
X153015000Y-98515000D02*
X153015000Y-98315000D01*
G75*
G02*
X153115000Y-98215000I100000J0D01*
G01*
X154565000Y-98215000D01*
G75*
G02*
X154665000Y-98315000I0J-100000D01*
G01*
X154665000Y-98515000D01*
G75*
G02*
X154565000Y-98615000I-100000J0D01*
G01*
X153115000Y-98615000D01*
G75*
G02*
X153015000Y-98515000I0J100000D01*
G01*
G37*
G36*
G01*
X153015000Y-99015000D02*
X153015000Y-98815000D01*
G75*
G02*
X153115000Y-98715000I100000J0D01*
G01*
X154565000Y-98715000D01*
G75*
G02*
X154665000Y-98815000I0J-100000D01*
G01*
X154665000Y-99015000D01*
G75*
G02*
X154565000Y-99115000I-100000J0D01*
G01*
X153115000Y-99115000D01*
G75*
G02*
X153015000Y-99015000I0J100000D01*
G01*
G37*
G36*
G01*
X153015000Y-99515000D02*
X153015000Y-99315000D01*
G75*
G02*
X153115000Y-99215000I100000J0D01*
G01*
X154565000Y-99215000D01*
G75*
G02*
X154665000Y-99315000I0J-100000D01*
G01*
X154665000Y-99515000D01*
G75*
G02*
X154565000Y-99615000I-100000J0D01*
G01*
X153115000Y-99615000D01*
G75*
G02*
X153015000Y-99515000I0J100000D01*
G01*
G37*
G36*
G01*
X153015000Y-100015000D02*
X153015000Y-99815000D01*
G75*
G02*
X153115000Y-99715000I100000J0D01*
G01*
X154565000Y-99715000D01*
G75*
G02*
X154665000Y-99815000I0J-100000D01*
G01*
X154665000Y-100015000D01*
G75*
G02*
X154565000Y-100115000I-100000J0D01*
G01*
X153115000Y-100115000D01*
G75*
G02*
X153015000Y-100015000I0J100000D01*
G01*
G37*
G36*
G01*
X153015000Y-100515000D02*
X153015000Y-100315000D01*
G75*
G02*
X153115000Y-100215000I100000J0D01*
G01*
X154565000Y-100215000D01*
G75*
G02*
X154665000Y-100315000I0J-100000D01*
G01*
X154665000Y-100515000D01*
G75*
G02*
X154565000Y-100615000I-100000J0D01*
G01*
X153115000Y-100615000D01*
G75*
G02*
X153015000Y-100515000I0J100000D01*
G01*
G37*
G36*
G01*
X153015000Y-101015000D02*
X153015000Y-100815000D01*
G75*
G02*
X153115000Y-100715000I100000J0D01*
G01*
X154565000Y-100715000D01*
G75*
G02*
X154665000Y-100815000I0J-100000D01*
G01*
X154665000Y-101015000D01*
G75*
G02*
X154565000Y-101115000I-100000J0D01*
G01*
X153115000Y-101115000D01*
G75*
G02*
X153015000Y-101015000I0J100000D01*
G01*
G37*
G36*
G01*
X153015000Y-101515000D02*
X153015000Y-101315000D01*
G75*
G02*
X153115000Y-101215000I100000J0D01*
G01*
X154565000Y-101215000D01*
G75*
G02*
X154665000Y-101315000I0J-100000D01*
G01*
X154665000Y-101515000D01*
G75*
G02*
X154565000Y-101615000I-100000J0D01*
G01*
X153115000Y-101615000D01*
G75*
G02*
X153015000Y-101515000I0J100000D01*
G01*
G37*
G36*
G01*
X151715000Y-104065000D02*
X151715000Y-102615000D01*
G75*
G02*
X151815000Y-102515000I100000J0D01*
G01*
X152015000Y-102515000D01*
G75*
G02*
X152115000Y-102615000I0J-100000D01*
G01*
X152115000Y-104065000D01*
G75*
G02*
X152015000Y-104165000I-100000J0D01*
G01*
X151815000Y-104165000D01*
G75*
G02*
X151715000Y-104065000I0J100000D01*
G01*
G37*
G36*
G01*
X151215000Y-104065000D02*
X151215000Y-102615000D01*
G75*
G02*
X151315000Y-102515000I100000J0D01*
G01*
X151515000Y-102515000D01*
G75*
G02*
X151615000Y-102615000I0J-100000D01*
G01*
X151615000Y-104065000D01*
G75*
G02*
X151515000Y-104165000I-100000J0D01*
G01*
X151315000Y-104165000D01*
G75*
G02*
X151215000Y-104065000I0J100000D01*
G01*
G37*
G36*
G01*
X150715000Y-104065000D02*
X150715000Y-102615000D01*
G75*
G02*
X150815000Y-102515000I100000J0D01*
G01*
X151015000Y-102515000D01*
G75*
G02*
X151115000Y-102615000I0J-100000D01*
G01*
X151115000Y-104065000D01*
G75*
G02*
X151015000Y-104165000I-100000J0D01*
G01*
X150815000Y-104165000D01*
G75*
G02*
X150715000Y-104065000I0J100000D01*
G01*
G37*
G36*
G01*
X150215000Y-104065000D02*
X150215000Y-102615000D01*
G75*
G02*
X150315000Y-102515000I100000J0D01*
G01*
X150515000Y-102515000D01*
G75*
G02*
X150615000Y-102615000I0J-100000D01*
G01*
X150615000Y-104065000D01*
G75*
G02*
X150515000Y-104165000I-100000J0D01*
G01*
X150315000Y-104165000D01*
G75*
G02*
X150215000Y-104065000I0J100000D01*
G01*
G37*
G36*
G01*
X149715000Y-104065000D02*
X149715000Y-102615000D01*
G75*
G02*
X149815000Y-102515000I100000J0D01*
G01*
X150015000Y-102515000D01*
G75*
G02*
X150115000Y-102615000I0J-100000D01*
G01*
X150115000Y-104065000D01*
G75*
G02*
X150015000Y-104165000I-100000J0D01*
G01*
X149815000Y-104165000D01*
G75*
G02*
X149715000Y-104065000I0J100000D01*
G01*
G37*
G36*
G01*
X149215000Y-104065000D02*
X149215000Y-102615000D01*
G75*
G02*
X149315000Y-102515000I100000J0D01*
G01*
X149515000Y-102515000D01*
G75*
G02*
X149615000Y-102615000I0J-100000D01*
G01*
X149615000Y-104065000D01*
G75*
G02*
X149515000Y-104165000I-100000J0D01*
G01*
X149315000Y-104165000D01*
G75*
G02*
X149215000Y-104065000I0J100000D01*
G01*
G37*
G36*
G01*
X148715000Y-104065000D02*
X148715000Y-102615000D01*
G75*
G02*
X148815000Y-102515000I100000J0D01*
G01*
X149015000Y-102515000D01*
G75*
G02*
X149115000Y-102615000I0J-100000D01*
G01*
X149115000Y-104065000D01*
G75*
G02*
X149015000Y-104165000I-100000J0D01*
G01*
X148815000Y-104165000D01*
G75*
G02*
X148715000Y-104065000I0J100000D01*
G01*
G37*
G36*
G01*
X148215000Y-104065000D02*
X148215000Y-102615000D01*
G75*
G02*
X148315000Y-102515000I100000J0D01*
G01*
X148515000Y-102515000D01*
G75*
G02*
X148615000Y-102615000I0J-100000D01*
G01*
X148615000Y-104065000D01*
G75*
G02*
X148515000Y-104165000I-100000J0D01*
G01*
X148315000Y-104165000D01*
G75*
G02*
X148215000Y-104065000I0J100000D01*
G01*
G37*
G36*
G01*
X147715000Y-104065000D02*
X147715000Y-102615000D01*
G75*
G02*
X147815000Y-102515000I100000J0D01*
G01*
X148015000Y-102515000D01*
G75*
G02*
X148115000Y-102615000I0J-100000D01*
G01*
X148115000Y-104065000D01*
G75*
G02*
X148015000Y-104165000I-100000J0D01*
G01*
X147815000Y-104165000D01*
G75*
G02*
X147715000Y-104065000I0J100000D01*
G01*
G37*
G36*
G01*
X147215000Y-104065000D02*
X147215000Y-102615000D01*
G75*
G02*
X147315000Y-102515000I100000J0D01*
G01*
X147515000Y-102515000D01*
G75*
G02*
X147615000Y-102615000I0J-100000D01*
G01*
X147615000Y-104065000D01*
G75*
G02*
X147515000Y-104165000I-100000J0D01*
G01*
X147315000Y-104165000D01*
G75*
G02*
X147215000Y-104065000I0J100000D01*
G01*
G37*
G36*
G01*
X146715000Y-104065000D02*
X146715000Y-102615000D01*
G75*
G02*
X146815000Y-102515000I100000J0D01*
G01*
X147015000Y-102515000D01*
G75*
G02*
X147115000Y-102615000I0J-100000D01*
G01*
X147115000Y-104065000D01*
G75*
G02*
X147015000Y-104165000I-100000J0D01*
G01*
X146815000Y-104165000D01*
G75*
G02*
X146715000Y-104065000I0J100000D01*
G01*
G37*
G36*
G01*
X146215000Y-104065000D02*
X146215000Y-102615000D01*
G75*
G02*
X146315000Y-102515000I100000J0D01*
G01*
X146515000Y-102515000D01*
G75*
G02*
X146615000Y-102615000I0J-100000D01*
G01*
X146615000Y-104065000D01*
G75*
G02*
X146515000Y-104165000I-100000J0D01*
G01*
X146315000Y-104165000D01*
G75*
G02*
X146215000Y-104065000I0J100000D01*
G01*
G37*
G36*
G01*
X145715000Y-104065000D02*
X145715000Y-102615000D01*
G75*
G02*
X145815000Y-102515000I100000J0D01*
G01*
X146015000Y-102515000D01*
G75*
G02*
X146115000Y-102615000I0J-100000D01*
G01*
X146115000Y-104065000D01*
G75*
G02*
X146015000Y-104165000I-100000J0D01*
G01*
X145815000Y-104165000D01*
G75*
G02*
X145715000Y-104065000I0J100000D01*
G01*
G37*
G36*
G01*
X145215000Y-104065000D02*
X145215000Y-102615000D01*
G75*
G02*
X145315000Y-102515000I100000J0D01*
G01*
X145515000Y-102515000D01*
G75*
G02*
X145615000Y-102615000I0J-100000D01*
G01*
X145615000Y-104065000D01*
G75*
G02*
X145515000Y-104165000I-100000J0D01*
G01*
X145315000Y-104165000D01*
G75*
G02*
X145215000Y-104065000I0J100000D01*
G01*
G37*
G36*
G01*
X144715000Y-104065000D02*
X144715000Y-102615000D01*
G75*
G02*
X144815000Y-102515000I100000J0D01*
G01*
X145015000Y-102515000D01*
G75*
G02*
X145115000Y-102615000I0J-100000D01*
G01*
X145115000Y-104065000D01*
G75*
G02*
X145015000Y-104165000I-100000J0D01*
G01*
X144815000Y-104165000D01*
G75*
G02*
X144715000Y-104065000I0J100000D01*
G01*
G37*
G36*
G01*
X144215000Y-104065000D02*
X144215000Y-102615000D01*
G75*
G02*
X144315000Y-102515000I100000J0D01*
G01*
X144515000Y-102515000D01*
G75*
G02*
X144615000Y-102615000I0J-100000D01*
G01*
X144615000Y-104065000D01*
G75*
G02*
X144515000Y-104165000I-100000J0D01*
G01*
X144315000Y-104165000D01*
G75*
G02*
X144215000Y-104065000I0J100000D01*
G01*
G37*
G36*
G01*
X141665000Y-101515000D02*
X141665000Y-101315000D01*
G75*
G02*
X141765000Y-101215000I100000J0D01*
G01*
X143215000Y-101215000D01*
G75*
G02*
X143315000Y-101315000I0J-100000D01*
G01*
X143315000Y-101515000D01*
G75*
G02*
X143215000Y-101615000I-100000J0D01*
G01*
X141765000Y-101615000D01*
G75*
G02*
X141665000Y-101515000I0J100000D01*
G01*
G37*
G36*
G01*
X141665000Y-101015000D02*
X141665000Y-100815000D01*
G75*
G02*
X141765000Y-100715000I100000J0D01*
G01*
X143215000Y-100715000D01*
G75*
G02*
X143315000Y-100815000I0J-100000D01*
G01*
X143315000Y-101015000D01*
G75*
G02*
X143215000Y-101115000I-100000J0D01*
G01*
X141765000Y-101115000D01*
G75*
G02*
X141665000Y-101015000I0J100000D01*
G01*
G37*
G36*
G01*
X141665000Y-100515000D02*
X141665000Y-100315000D01*
G75*
G02*
X141765000Y-100215000I100000J0D01*
G01*
X143215000Y-100215000D01*
G75*
G02*
X143315000Y-100315000I0J-100000D01*
G01*
X143315000Y-100515000D01*
G75*
G02*
X143215000Y-100615000I-100000J0D01*
G01*
X141765000Y-100615000D01*
G75*
G02*
X141665000Y-100515000I0J100000D01*
G01*
G37*
G36*
G01*
X141665000Y-100015000D02*
X141665000Y-99815000D01*
G75*
G02*
X141765000Y-99715000I100000J0D01*
G01*
X143215000Y-99715000D01*
G75*
G02*
X143315000Y-99815000I0J-100000D01*
G01*
X143315000Y-100015000D01*
G75*
G02*
X143215000Y-100115000I-100000J0D01*
G01*
X141765000Y-100115000D01*
G75*
G02*
X141665000Y-100015000I0J100000D01*
G01*
G37*
G36*
G01*
X141665000Y-99515000D02*
X141665000Y-99315000D01*
G75*
G02*
X141765000Y-99215000I100000J0D01*
G01*
X143215000Y-99215000D01*
G75*
G02*
X143315000Y-99315000I0J-100000D01*
G01*
X143315000Y-99515000D01*
G75*
G02*
X143215000Y-99615000I-100000J0D01*
G01*
X141765000Y-99615000D01*
G75*
G02*
X141665000Y-99515000I0J100000D01*
G01*
G37*
G36*
G01*
X141665000Y-99015000D02*
X141665000Y-98815000D01*
G75*
G02*
X141765000Y-98715000I100000J0D01*
G01*
X143215000Y-98715000D01*
G75*
G02*
X143315000Y-98815000I0J-100000D01*
G01*
X143315000Y-99015000D01*
G75*
G02*
X143215000Y-99115000I-100000J0D01*
G01*
X141765000Y-99115000D01*
G75*
G02*
X141665000Y-99015000I0J100000D01*
G01*
G37*
G36*
G01*
X141665000Y-98515000D02*
X141665000Y-98315000D01*
G75*
G02*
X141765000Y-98215000I100000J0D01*
G01*
X143215000Y-98215000D01*
G75*
G02*
X143315000Y-98315000I0J-100000D01*
G01*
X143315000Y-98515000D01*
G75*
G02*
X143215000Y-98615000I-100000J0D01*
G01*
X141765000Y-98615000D01*
G75*
G02*
X141665000Y-98515000I0J100000D01*
G01*
G37*
G36*
G01*
X141665000Y-98015000D02*
X141665000Y-97815000D01*
G75*
G02*
X141765000Y-97715000I100000J0D01*
G01*
X143215000Y-97715000D01*
G75*
G02*
X143315000Y-97815000I0J-100000D01*
G01*
X143315000Y-98015000D01*
G75*
G02*
X143215000Y-98115000I-100000J0D01*
G01*
X141765000Y-98115000D01*
G75*
G02*
X141665000Y-98015000I0J100000D01*
G01*
G37*
G36*
G01*
X141665000Y-97515000D02*
X141665000Y-97315000D01*
G75*
G02*
X141765000Y-97215000I100000J0D01*
G01*
X143215000Y-97215000D01*
G75*
G02*
X143315000Y-97315000I0J-100000D01*
G01*
X143315000Y-97515000D01*
G75*
G02*
X143215000Y-97615000I-100000J0D01*
G01*
X141765000Y-97615000D01*
G75*
G02*
X141665000Y-97515000I0J100000D01*
G01*
G37*
G36*
G01*
X141665000Y-97015000D02*
X141665000Y-96815000D01*
G75*
G02*
X141765000Y-96715000I100000J0D01*
G01*
X143215000Y-96715000D01*
G75*
G02*
X143315000Y-96815000I0J-100000D01*
G01*
X143315000Y-97015000D01*
G75*
G02*
X143215000Y-97115000I-100000J0D01*
G01*
X141765000Y-97115000D01*
G75*
G02*
X141665000Y-97015000I0J100000D01*
G01*
G37*
G36*
G01*
X141665000Y-96515000D02*
X141665000Y-96315000D01*
G75*
G02*
X141765000Y-96215000I100000J0D01*
G01*
X143215000Y-96215000D01*
G75*
G02*
X143315000Y-96315000I0J-100000D01*
G01*
X143315000Y-96515000D01*
G75*
G02*
X143215000Y-96615000I-100000J0D01*
G01*
X141765000Y-96615000D01*
G75*
G02*
X141665000Y-96515000I0J100000D01*
G01*
G37*
G36*
G01*
X141665000Y-96015000D02*
X141665000Y-95815000D01*
G75*
G02*
X141765000Y-95715000I100000J0D01*
G01*
X143215000Y-95715000D01*
G75*
G02*
X143315000Y-95815000I0J-100000D01*
G01*
X143315000Y-96015000D01*
G75*
G02*
X143215000Y-96115000I-100000J0D01*
G01*
X141765000Y-96115000D01*
G75*
G02*
X141665000Y-96015000I0J100000D01*
G01*
G37*
G36*
G01*
X141665000Y-95515000D02*
X141665000Y-95315000D01*
G75*
G02*
X141765000Y-95215000I100000J0D01*
G01*
X143215000Y-95215000D01*
G75*
G02*
X143315000Y-95315000I0J-100000D01*
G01*
X143315000Y-95515000D01*
G75*
G02*
X143215000Y-95615000I-100000J0D01*
G01*
X141765000Y-95615000D01*
G75*
G02*
X141665000Y-95515000I0J100000D01*
G01*
G37*
G36*
G01*
X141665000Y-95015000D02*
X141665000Y-94815000D01*
G75*
G02*
X141765000Y-94715000I100000J0D01*
G01*
X143215000Y-94715000D01*
G75*
G02*
X143315000Y-94815000I0J-100000D01*
G01*
X143315000Y-95015000D01*
G75*
G02*
X143215000Y-95115000I-100000J0D01*
G01*
X141765000Y-95115000D01*
G75*
G02*
X141665000Y-95015000I0J100000D01*
G01*
G37*
G36*
G01*
X141665000Y-94515000D02*
X141665000Y-94315000D01*
G75*
G02*
X141765000Y-94215000I100000J0D01*
G01*
X143215000Y-94215000D01*
G75*
G02*
X143315000Y-94315000I0J-100000D01*
G01*
X143315000Y-94515000D01*
G75*
G02*
X143215000Y-94615000I-100000J0D01*
G01*
X141765000Y-94615000D01*
G75*
G02*
X141665000Y-94515000I0J100000D01*
G01*
G37*
G36*
G01*
X141665000Y-94015000D02*
X141665000Y-93815000D01*
G75*
G02*
X141765000Y-93715000I100000J0D01*
G01*
X143215000Y-93715000D01*
G75*
G02*
X143315000Y-93815000I0J-100000D01*
G01*
X143315000Y-94015000D01*
G75*
G02*
X143215000Y-94115000I-100000J0D01*
G01*
X141765000Y-94115000D01*
G75*
G02*
X141665000Y-94015000I0J100000D01*
G01*
G37*
%TD*%
M02*
